<?xml version="1.0" encoding="UTF-8" standalone="no"?>
<svg xmlns="http://www.w3.org/2000/svg" version="1.1" width="800" height="800">
<polygon points="14.702972296849154,25.493399868541225 16.979330826485292,24.103296037646533 18.116070497071735,25.659309717418687" style="fill:none;stroke:black;stroke-width:1"/>
<polygon points="14.302342728979543,13.94805590602988 11.578562512782387,13.51874567408795 12.424204529967236,11.23089436319795" style="fill:none;stroke:black;stroke-width:1"/>
<polygon points="23.2409763659587,6.567240017392518 22.77617735456376,4.339276911582498 24.897058848053533,6.552755984556124" style="fill:none;stroke:black;stroke-width:1"/>
<polygon points="18.113843922149325,4.017242470518349 14.039692765293593,5.405433268741987 17.153734419470677,2.1521556744430557" style="fill:none;stroke:black;stroke-width:1"/>
<polygon points="10.503955931847102,9.929777376203898 10.633448275862069,11.382758620689655 8.660161915226425,8.887919840861347" style="fill:none;stroke:black;stroke-width:1"/>
<polygon points="11.578562512782387,13.51874567408795 10.633448275862069,11.382758620689655 12.424204529967236,11.23089436319795" style="fill:none;stroke:black;stroke-width:1"/>
<polygon points="10.633448275862069,11.382758620689655 10.503955931847102,9.929777376203898 12.424204529967236,11.23089436319795" style="fill:none;stroke:black;stroke-width:1"/>
<polygon points="8.920640098233136,5.802233858855562 9.605976124437783,7.130037782531285 8.660161915226425,8.887919840861347" style="fill:none;stroke:black;stroke-width:1"/>
<polygon points="9.605976124437783,7.130037782531285 10.503955931847102,9.929777376203898 8.660161915226425,8.887919840861347" style="fill:none;stroke:black;stroke-width:1"/>
<polygon points="11.37121186068382,4.031306194989669 9.605976124437783,7.130037782531285 8.920640098233136,5.802233858855562" style="fill:none;stroke:black;stroke-width:1"/>
<polygon points="20.81284918067024,24.24828111625859 19.844822583027323,23.01197666339331 22.334879232709213,20.6664976302216" style="fill:none;stroke:black;stroke-width:1"/>
<polygon points="19.844822583027323,23.01197666339331 20.81284918067024,24.24828111625859 18.116070497071735,25.659309717418687" style="fill:none;stroke:black;stroke-width:1"/>
<polygon points="16.979330826485292,24.103296037646533 19.844822583027323,23.01197666339331 18.116070497071735,25.659309717418687" style="fill:none;stroke:black;stroke-width:1"/>
<polygon points="20.816345619359232,19.565654917178843 22.374702226861473,18.227668577215344 22.334879232709213,20.6664976302216" style="fill:none;stroke:black;stroke-width:1"/>
<polygon points="19.844822583027323,23.01197666339331 20.816345619359232,19.565654917178843 22.334879232709213,20.6664976302216" style="fill:none;stroke:black;stroke-width:1"/>
<polygon points="15.599625876608085,11.265633574512686 14.302342728979543,13.94805590602988 12.424204529967236,11.23089436319795" style="fill:none;stroke:black;stroke-width:1"/>
<polygon points="14.302342728979543,13.94805590602988 15.599625876608085,11.265633574512686 17.494935482965264,13.918989767372517" style="fill:none;stroke:black;stroke-width:1"/>
<polygon points="23.2409763659587,6.567240017392518 20.572685032193718,5.238103835712316 22.77617735456376,4.339276911582498" style="fill:none;stroke:black;stroke-width:1"/>
<polygon points="17.153734419470677,2.1521556744430557 15.10976840522527,3.2944860768514435 14.01905789222524,2.5939853852663886" style="fill:none;stroke:black;stroke-width:1"/>
<polygon points="12.619532940751181,5.109188293305166 9.605976124437783,7.130037782531285 11.37121186068382,4.031306194989669" style="fill:none;stroke:black;stroke-width:1"/>
<polygon points="9.605976124437783,7.130037782531285 12.619532940751181,5.109188293305166 10.503955931847102,9.929777376203898" style="fill:none;stroke:black;stroke-width:1"/>
<polygon points="12.619532940751181,5.109188293305166 11.37121186068382,4.031306194989669 14.01905789222524,2.5939853852663886" style="fill:none;stroke:black;stroke-width:1"/>
<polygon points="24.62342218084642,9.701058042627245 23.2409763659587,6.567240017392518 24.897058848053533,6.552755984556124" style="fill:none;stroke:black;stroke-width:1"/>
<polygon points="22.374702226861473,18.227668577215344 24.62342218084642,9.701058042627245 22.334879232709213,20.6664976302216" style="fill:none;stroke:black;stroke-width:1"/>
<polygon points="24.62342218084642,9.701058042627245 22.374702226861473,18.227668577215344 22.764490106269804,15.21122725672856" style="fill:none;stroke:black;stroke-width:1"/>
<polygon points="10.657794311389967,14.583052942294835 10.633448275862069,11.382758620689655 11.578562512782387,13.51874567408795" style="fill:none;stroke:black;stroke-width:1"/>
<polygon points="10.633448275862069,11.382758620689655 10.657794311389967,14.583052942294835 8.660161915226425,8.887919840861347" style="fill:none;stroke:black;stroke-width:1"/>
<polygon points="20.694392930348865,13.894640863578523 19.476744527024348,15.06179551456731 17.494935482965264,13.918989767372517" style="fill:none;stroke:black;stroke-width:1"/>
<polygon points="20.816345619359232,19.565654917178843 20.850664015271587,16.820592589828127 22.374702226861473,18.227668577215344" style="fill:none;stroke:black;stroke-width:1"/>
<polygon points="22.374702226861473,18.227668577215344 20.850664015271587,16.820592589828127 22.764490106269804,15.21122725672856" style="fill:none;stroke:black;stroke-width:1"/>
<polygon points="20.850664015271587,16.820592589828127 20.694392930348865,13.894640863578523 22.764490106269804,15.21122725672856" style="fill:none;stroke:black;stroke-width:1"/>
<polygon points="20.694392930348865,13.894640863578523 20.850664015271587,16.820592589828127 19.476744527024348,15.06179551456731" style="fill:none;stroke:black;stroke-width:1"/>
<polygon points="19.29273902341898,24.625341013914625 19.844822583027323,23.01197666339331 16.979330826485292,24.103296037646533" style="fill:none;stroke:black;stroke-width:1"/>
<polygon points="19.844822583027323,23.01197666339331 19.29273902341898,24.625341013914625 19.45688626097249,24.527788035624177" style="fill:none;stroke:black;stroke-width:1"/>
<polygon points="17.50020665368923,24.98225590477398 17.689133053953597,24.951027416204955 16.979330826485292,24.103296037646533" style="fill:none;stroke:black;stroke-width:1"/>
<polygon points="13.565640135233826,10.375003625252505 15.599625876608085,11.265633574512686 12.424204529967236,11.23089436319795" style="fill:none;stroke:black;stroke-width:1"/>
<polygon points="10.503955931847102,9.929777376203898 13.565640135233826,10.375003625252505 12.424204529967236,11.23089436319795" style="fill:none;stroke:black;stroke-width:1"/>
<polygon points="12.619532940751181,5.109188293305166 13.565640135233826,10.375003625252505 10.503955931847102,9.929777376203898" style="fill:none;stroke:black;stroke-width:1"/>
<polygon points="15.599625876608085,11.265633574512686 18.782981293647335,11.299437599402305 17.494935482965264,13.918989767372517" style="fill:none;stroke:black;stroke-width:1"/>
<polygon points="18.782981293647335,11.299437599402305 20.694392930348865,13.894640863578523 17.494935482965264,13.918989767372517" style="fill:none;stroke:black;stroke-width:1"/>
<polygon points="20.694392930348865,13.894640863578523 18.782981293647335,11.299437599402305 21.202254799671824,11.180194915715816" style="fill:none;stroke:black;stroke-width:1"/>
<polygon points="20.572685032193718,5.238103835712316 19.847968168544213,3.7335959036238657 22.77617735456376,4.339276911582498" style="fill:none;stroke:black;stroke-width:1"/>
<polygon points="19.847968168544213,3.7335959036238657 20.572685032193718,5.238103835712316 18.113843922149325,4.017242470518349" style="fill:none;stroke:black;stroke-width:1"/>
<polygon points="22.77617735456376,4.339276911582498 19.847968168544213,3.7335959036238657 17.153734419470677,2.1521556744430557" style="fill:none;stroke:black;stroke-width:1"/>
<polygon points="19.847968168544213,3.7335959036238657 18.113843922149325,4.017242470518349 17.153734419470677,2.1521556744430557" style="fill:none;stroke:black;stroke-width:1"/>
<polygon points="22.82404865923204,9.542830912430372 20.572685032193718,5.238103835712316 23.2409763659587,6.567240017392518" style="fill:none;stroke:black;stroke-width:1"/>
<polygon points="24.62342218084642,9.701058042627245 22.82404865923204,9.542830912430372 23.2409763659587,6.567240017392518" style="fill:none;stroke:black;stroke-width:1"/>
<polygon points="22.81279394944535,12.003277504341664 24.62342218084642,9.701058042627245 22.764490106269804,15.21122725672856" style="fill:none;stroke:black;stroke-width:1"/>
<polygon points="20.694392930348865,13.894640863578523 22.81279394944535,12.003277504341664 22.764490106269804,15.21122725672856" style="fill:none;stroke:black;stroke-width:1"/>
<polygon points="22.81279394944535,12.003277504341664 20.694392930348865,13.894640863578523 21.202254799671824,11.180194915715816" style="fill:none;stroke:black;stroke-width:1"/>
<polygon points="22.82404865923204,9.542830912430372 22.81279394944535,12.003277504341664 21.202254799671824,11.180194915715816" style="fill:none;stroke:black;stroke-width:1"/>
<polygon points="22.81279394944535,12.003277504341664 22.82404865923204,9.542830912430372 24.62342218084642,9.701058042627245" style="fill:none;stroke:black;stroke-width:1"/>
<polygon points="16.30474207130583,19.297988946119556 16.335872743369727,15.075250043456325 17.494935482965264,13.918989767372517" style="fill:none;stroke:black;stroke-width:1"/>
<polygon points="13.706185413992182,20.512551203600562 16.335872743369727,15.075250043456325 13.764258745998523,20.605454584280693" style="fill:none;stroke:black;stroke-width:1"/>
<polygon points="16.335872743369727,15.075250043456325 14.302342728979543,13.94805590602988 17.494935482965264,13.918989767372517" style="fill:none;stroke:black;stroke-width:1"/>
<polygon points="19.29273902341898,24.625341013914625 19.03310344827586,23.182068965517242 19.45688626097249,24.527788035624177" style="fill:none;stroke:black;stroke-width:1"/>
<polygon points="19.580075292105548,23.43800908061604 20.131364648772397,22.666142638587885 20.816345619359232,19.565654917178843" style="fill:none;stroke:black;stroke-width:1"/>
<polygon points="19.754846153360642,24.017991386045264 20.816345619359232,19.565654917178843 19.844822583027323,23.01197666339331" style="fill:none;stroke:black;stroke-width:1"/>
<polygon points="19.754846153360642,24.017991386045264 19.752786288995203,23.806869992483303 20.816345619359232,19.565654917178843" style="fill:none;stroke:black;stroke-width:1"/>
<polygon points="19.6987900335669,24.216111484276936 19.754846153360642,24.017991386045264 19.844822583027323,23.01197666339331" style="fill:none;stroke:black;stroke-width:1"/>
<polygon points="12.072868152514625,23.484179322316507 13.869128905277382,23.262408556738443 14.702972296849154,25.493399868541225" style="fill:none;stroke:black;stroke-width:1"/>
<polygon points="13.869128905277382,23.262408556738443 16.979330826485292,24.103296037646533 14.702972296849154,25.493399868541225" style="fill:none;stroke:black;stroke-width:1"/>
<polygon points="13.565640135233826,10.375003625252505 16.718679057129204,10.345751960106787 15.599625876608085,11.265633574512686" style="fill:none;stroke:black;stroke-width:1"/>
<polygon points="16.718679057129204,10.345751960106787 18.782981293647335,11.299437599402305 15.599625876608085,11.265633574512686" style="fill:none;stroke:black;stroke-width:1"/>
<polygon points="14.26646910872681,5.493658885717952 14.039692765293593,5.405433268741987 18.113843922149325,4.017242470518349" style="fill:none;stroke:black;stroke-width:1"/>
<polygon points="14.483666270188785,5.595094888983009 14.26646910872681,5.493658885717952 18.113843922149325,4.017242470518349" style="fill:none;stroke:black;stroke-width:1"/>
<polygon points="14.887218790037888,5.835047439639643 14.690758185389237,5.70910362485197 18.113843922149325,4.017242470518349" style="fill:none;stroke:black;stroke-width:1"/>
<polygon points="14.690758185389237,5.70910362485197 14.483666270188785,5.595094888983009 18.113843922149325,4.017242470518349" style="fill:none;stroke:black;stroke-width:1"/>
<polygon points="20.850664015271587,16.820592589828127 18.050234069326002,16.176845362713504 19.476744527024348,15.06179551456731" style="fill:none;stroke:black;stroke-width:1"/>
<polygon points="17.136415685105767,16.901625049018325 18.050234069326002,16.176845362713504 20.850664015271587,16.820592589828127" style="fill:none;stroke:black;stroke-width:1"/>
<polygon points="13.869128905277382,23.262408556738443 16.69443420135969,25.05320169684877 16.979330826485292,24.103296037646533" style="fill:none;stroke:black;stroke-width:1"/>
<polygon points="12.276606504457282,17.357516733803113 12.310566395162486,19.973577983194136 11.137888552826034,20.241518882766034" style="fill:none;stroke:black;stroke-width:1"/>
<polygon points="12.310566395162486,19.973577983194136 12.072868152514625,23.484179322316507 11.137888552826034,20.241518882766034" style="fill:none;stroke:black;stroke-width:1"/>
<polygon points="13.191521039022682,15.095803352207993 10.657794311389967,14.583052942294835 11.578562512782387,13.51874567408795" style="fill:none;stroke:black;stroke-width:1"/>
<polygon points="14.302342728979543,13.94805590602988 13.191521039022682,15.095803352207993 11.578562512782387,13.51874567408795" style="fill:none;stroke:black;stroke-width:1"/>
<polygon points="19.752786288995203,23.806869992483303 19.69176063608776,23.608947282175464 20.816345619359232,19.565654917178843" style="fill:none;stroke:black;stroke-width:1"/>
<polygon points="19.69176063608776,23.608947282175464 19.580075292105548,23.43800908061604 20.816345619359232,19.565654917178843" style="fill:none;stroke:black;stroke-width:1"/>
<polygon points="19.69176063608776,23.608947282175464 19.6987900335669,24.216111484276936 19.580075292105548,23.43800908061604" style="fill:none;stroke:black;stroke-width:1"/>
<polygon points="19.754846153360642,24.017991386045264 19.69176063608776,23.608947282175464 19.752786288995203,23.806869992483303" style="fill:none;stroke:black;stroke-width:1"/>
<polygon points="19.69176063608776,23.608947282175464 19.754846153360642,24.017991386045264 19.6987900335669,24.216111484276936" style="fill:none;stroke:black;stroke-width:1"/>
<polygon points="19.580075292105548,23.43800908061604 19.42671349258309,23.30332041758099 20.131364648772397,22.666142638587885" style="fill:none;stroke:black;stroke-width:1"/>
<polygon points="19.42671349258309,23.30332041758099 19.03310344827586,23.182068965517242 19.240658473054896,23.214146322846283" style="fill:none;stroke:black;stroke-width:1"/>
<polygon points="19.03310344827586,23.182068965517242 19.42671349258309,23.30332041758099 19.45688626097249,24.527788035624177" style="fill:none;stroke:black;stroke-width:1"/>
<polygon points="19.59502879370111,24.38868153884174 19.844822583027323,23.01197666339331 19.45688626097249,24.527788035624177" style="fill:none;stroke:black;stroke-width:1"/>
<polygon points="19.59502879370111,24.38868153884174 19.6987900335669,24.216111484276936 19.844822583027323,23.01197666339331" style="fill:none;stroke:black;stroke-width:1"/>
<polygon points="19.6987900335669,24.216111484276936 19.59502879370111,24.38868153884174 19.580075292105548,23.43800908061604" style="fill:none;stroke:black;stroke-width:1"/>
<polygon points="19.42671349258309,23.30332041758099 19.59502879370111,24.38868153884174 19.45688626097249,24.527788035624177" style="fill:none;stroke:black;stroke-width:1"/>
<polygon points="19.59502879370111,24.38868153884174 19.42671349258309,23.30332041758099 19.580075292105548,23.43800908061604" style="fill:none;stroke:black;stroke-width:1"/>
<polygon points="22.82404865923204,9.542830912430372 16.379469116651418,8.356887902406031 20.572685032193718,5.238103835712316" style="fill:none;stroke:black;stroke-width:1"/>
<polygon points="15.142885916429782,8.699636678542378 16.379469116651418,8.356887902406031 16.371075104988247,8.64126517131615" style="fill:none;stroke:black;stroke-width:1"/>
<polygon points="19.8717179790246,10.31650029496107 22.82404865923204,9.542830912430372 21.202254799671824,11.180194915715816" style="fill:none;stroke:black;stroke-width:1"/>
<polygon points="18.782981293647335,11.299437599402305 19.8717179790246,10.31650029496107 21.202254799671824,11.180194915715816" style="fill:none;stroke:black;stroke-width:1"/>
<polygon points="19.8717179790246,10.31650029496107 16.379469116651418,8.356887902406031 22.82404865923204,9.542830912430372" style="fill:none;stroke:black;stroke-width:1"/>
<polygon points="16.379469116651418,8.356887902406031 19.8717179790246,10.31650029496107 16.371075104988247,8.64126517131615" style="fill:none;stroke:black;stroke-width:1"/>
<polygon points="16.718679057129204,10.345751960106787 19.8717179790246,10.31650029496107 18.782981293647335,11.299437599402305" style="fill:none;stroke:black;stroke-width:1"/>
<polygon points="13.854210598692454,6.952939451307085 14.26646910872681,5.493658885717952 14.483666270188785,5.595094888983009" style="fill:none;stroke:black;stroke-width:1"/>
<polygon points="15.072522019844458,5.972288679660845 14.887218790037888,5.835047439639643 18.113843922149325,4.017242470518349" style="fill:none;stroke:black;stroke-width:1"/>
<polygon points="20.572685032193718,5.238103835712316 15.718487938140393,6.637769410379884 18.113843922149325,4.017242470518349" style="fill:none;stroke:black;stroke-width:1"/>
<polygon points="15.85922144264108,6.8404941239225 15.718487938140393,6.637769410379884 20.572685032193718,5.238103835712316" style="fill:none;stroke:black;stroke-width:1"/>
<polygon points="19.2166172759546,17.90312893116895 18.136416552148706,18.115874871995747 20.850664015271587,16.820592589828127" style="fill:none;stroke:black;stroke-width:1"/>
<polygon points="16.335872743369727,15.075250043456325 13.810934913067742,20.709060615225898 13.764258745998523,20.605454584280693" style="fill:none;stroke:black;stroke-width:1"/>
<polygon points="15.825240876941795,24.625173697982824 13.869128905277382,23.262408556738443 12.072868152514625,23.484179322316507" style="fill:none;stroke:black;stroke-width:1"/>
<polygon points="12.310566395162486,19.973577983194136 15.825240876941795,24.625173697982824 12.072868152514625,23.484179322316507" style="fill:none;stroke:black;stroke-width:1"/>
<polygon points="13.191521039022682,15.095803352207993 11.106817097506575,17.588692947176785 10.657794311389967,14.583052942294835" style="fill:none;stroke:black;stroke-width:1"/>
<polygon points="11.106817097506575,17.588692947176785 13.191521039022682,15.095803352207993 12.276606504457282,17.357516733803113" style="fill:none;stroke:black;stroke-width:1"/>
<polygon points="11.106817097506575,17.588692947176785 12.276606504457282,17.357516733803113 11.137888552826034,20.241518882766034" style="fill:none;stroke:black;stroke-width:1"/>
<polygon points="11.106817097506575,17.588692947176785 11.137888552826034,20.241518882766034 8.660161915226425,8.887919840861347" style="fill:none;stroke:black;stroke-width:1"/>
<polygon points="10.657794311389967,14.583052942294835 11.106817097506575,17.588692947176785 8.660161915226425,8.887919840861347" style="fill:none;stroke:black;stroke-width:1"/>
<polygon points="17.689133053953597,24.951027416204955 17.87121415953446,24.915890509628046 16.979330826485292,24.103296037646533" style="fill:none;stroke:black;stroke-width:1"/>
<polygon points="17.87121415953446,24.915890509628046 18.048641767663746,24.88145658447808 16.979330826485292,24.103296037646533" style="fill:none;stroke:black;stroke-width:1"/>
<polygon points="17.87121415953446,24.915890509628046 17.689133053953597,24.951027416204955 17.46864853392313,23.352583427539997" style="fill:none;stroke:black;stroke-width:1"/>
<polygon points="18.40349556030933,24.81259245821839 18.580922456632127,24.778160395088545 16.979330826485292,24.103296037646533" style="fill:none;stroke:black;stroke-width:1"/>
<polygon points="18.40349556030933,24.81259245821839 18.212300223155562,23.226472319760795 18.580922456632127,24.778160395088545" style="fill:none;stroke:black;stroke-width:1"/>
<polygon points="19.113203145600508,24.674864205699006 19.29273902341898,24.625341013914625 16.979330826485292,24.103296037646533" style="fill:none;stroke:black;stroke-width:1"/>
<polygon points="18.935776249277716,24.70929626882885 19.113203145600508,24.674864205699006 16.979330826485292,24.103296037646533" style="fill:none;stroke:black;stroke-width:1"/>
<polygon points="19.113203145600508,24.674864205699006 19.03310344827586,23.182068965517242 19.29273902341898,24.625341013914625" style="fill:none;stroke:black;stroke-width:1"/>
<polygon points="18.580922456632127,24.778160395088545 18.75834935295492,24.7437283319587 16.979330826485292,24.103296037646533" style="fill:none;stroke:black;stroke-width:1"/>
<polygon points="18.75834935295492,24.7437283319587 18.935776249277716,24.70929626882885 16.979330826485292,24.103296037646533" style="fill:none;stroke:black;stroke-width:1"/>
<polygon points="19.03310344827586,23.182068965517242 15.425885781673708,22.061728920875908 19.240658473054896,23.214146322846283" style="fill:none;stroke:black;stroke-width:1"/>
<polygon points="17.689133053953597,24.951027416204955 17.291221637600337,23.387015490669842 17.46864853392313,23.352583427539997" style="fill:none;stroke:black;stroke-width:1"/>
<polygon points="17.50020665368923,24.98225590477398 17.291221637600337,23.387015490669842 17.689133053953597,24.951027416204955" style="fill:none;stroke:black;stroke-width:1"/>
<polygon points="17.105495188222566,25.030010831463883 16.758940948631956,23.49031168005938 16.93636784495475,23.455879616929536" style="fill:none;stroke:black;stroke-width:1"/>
<polygon points="12.258606495185424,21.764860585082474 12.310566395162486,19.973577983194136 12.276606504457282,17.357516733803113" style="fill:none;stroke:black;stroke-width:1"/>
<polygon points="12.200533163179081,21.671957204402343 12.258606495185424,21.764860585082474 12.276606504457282,17.357516733803113" style="fill:none;stroke:black;stroke-width:1"/>
<polygon points="19.552603455580275,19.006870028142824 19.812956396692496,19.66800394342359 16.335872743369727,15.075250043456325" style="fill:none;stroke:black;stroke-width:1"/>
<polygon points="20.850664015271587,16.820592589828127 21.56904837905439,19.555214648588525 20.701006520269083,19.62875195797379" style="fill:none;stroke:black;stroke-width:1"/>
<polygon points="21.56904837905439,19.555214648588525 20.850664015271587,16.820592589828127 20.816345619359232,19.565654917178843" style="fill:none;stroke:black;stroke-width:1"/>
<polygon points="15.347571267963499,9.0779799500053 16.072336910572098,9.079997594089608 15.563473076700943,9.17599664905087" style="fill:none;stroke:black;stroke-width:1"/>
<polygon points="16.718679057129204,10.345751960106787 15.347571267963499,9.0779799500053 15.563473076700943,9.17599664905087" style="fill:none;stroke:black;stroke-width:1"/>
<polygon points="19.8717179790246,10.31650029496107 16.26298418862422,8.891382289716566 16.371075104988247,8.64126517131615" style="fill:none;stroke:black;stroke-width:1"/>
<polygon points="16.26298418862422,8.891382289716566 19.8717179790246,10.31650029496107 16.072336910572098,9.079997594089608" style="fill:none;stroke:black;stroke-width:1"/>
<polygon points="15.347571267963499,9.0779799500053 16.26298418862422,8.891382289716566 16.072336910572098,9.079997594089608" style="fill:none;stroke:black;stroke-width:1"/>
<polygon points="16.26298418862422,8.891382289716566 15.142885916429782,8.699636678542378 16.371075104988247,8.64126517131615" style="fill:none;stroke:black;stroke-width:1"/>
<polygon points="15.8230977796714,9.181369930230144 19.8717179790246,10.31650029496107 16.718679057129204,10.345751960106787" style="fill:none;stroke:black;stroke-width:1"/>
<polygon points="19.8717179790246,10.31650029496107 15.8230977796714,9.181369930230144 16.072336910572098,9.079997594089608" style="fill:none;stroke:black;stroke-width:1"/>
<polygon points="15.8230977796714,9.181369930230144 16.718679057129204,10.345751960106787 15.563473076700943,9.17599664905087" style="fill:none;stroke:black;stroke-width:1"/>
<polygon points="16.072336910572098,9.079997594089608 15.8230977796714,9.181369930230144 15.563473076700943,9.17599664905087" style="fill:none;stroke:black;stroke-width:1"/>
<polygon points="14.690758185389237,5.70910362485197 14.079610821645195,7.074548567027772 14.483666270188785,5.595094888983009" style="fill:none;stroke:black;stroke-width:1"/>
<polygon points="14.079610821645195,7.074548567027772 13.854210598692454,6.952939451307085 14.483666270188785,5.595094888983009" style="fill:none;stroke:black;stroke-width:1"/>
<polygon points="14.079610821645195,7.074548567027772 14.690758185389237,5.70910362485197 14.887218790037888,5.835047439639643" style="fill:none;stroke:black;stroke-width:1"/>
<polygon points="14.26646910872681,5.493658885717952 13.610083964498244,6.843279294944886 14.039692765293593,5.405433268741987" style="fill:none;stroke:black;stroke-width:1"/>
<polygon points="13.854210598692454,6.952939451307085 13.610083964498244,6.843279294944886 14.26646910872681,5.493658885717952" style="fill:none;stroke:black;stroke-width:1"/>
<polygon points="13.610083964498244,6.843279294944886 13.854210598692454,6.952939451307085 13.34995123762273,6.746409789650279" style="fill:none;stroke:black;stroke-width:1"/>
<polygon points="15.410027955873863,6.278011027807818 15.246141810518663,6.120189691230381 18.113843922149325,4.017242470518349" style="fill:none;stroke:black;stroke-width:1"/>
<polygon points="15.246141810518663,6.120189691230381 15.072522019844458,5.972288679660845 18.113843922149325,4.017242470518349" style="fill:none;stroke:black;stroke-width:1"/>
<polygon points="15.56809857143868,6.4502556336529455 15.410027955873863,6.278011027807818 18.113843922149325,4.017242470518349" style="fill:none;stroke:black;stroke-width:1"/>
<polygon points="15.718487938140393,6.637769410379884 15.56809857143868,6.4502556336529455 18.113843922149325,4.017242470518349" style="fill:none;stroke:black;stroke-width:1"/>
<polygon points="13.559506789674563,5.271163808398086 15.10976840522527,3.2944860768514435 17.153734419470677,2.1521556744430557" style="fill:none;stroke:black;stroke-width:1"/>
<polygon points="13.559506789674563,5.271163808398086 13.307149286069311,5.226395272400529 15.10976840522527,3.2944860768514435" style="fill:none;stroke:black;stroke-width:1"/>
<polygon points="12.23520361202682,5.743158954168422 12.619532940751181,5.109188293305166 14.01905789222524,2.5939853852663886" style="fill:none;stroke:black;stroke-width:1"/>
<polygon points="12.529272541601191,6.4803354173715615 13.565640135233826,10.375003625252505 12.619532940751181,5.109188293305166" style="fill:none;stroke:black;stroke-width:1"/>
<polygon points="12.335861515451207,6.282443718986241 12.529272541601191,6.4803354173715615 12.619532940751181,5.109188293305166" style="fill:none;stroke:black;stroke-width:1"/>
<polygon points="20.202119336844504,18.520002142061053 20.850664015271587,16.820592589828127 20.701006520269083,19.62875195797379" style="fill:none;stroke:black;stroke-width:1"/>
<polygon points="20.202119336844504,18.520002142061053 19.2166172759546,17.90312893116895 20.850664015271587,16.820592589828127" style="fill:none;stroke:black;stroke-width:1"/>
<polygon points="16.5417982874991,17.971158273504706 17.136415685105767,16.901625049018325 20.850664015271587,16.820592589828127" style="fill:none;stroke:black;stroke-width:1"/>
<polygon points="16.594428817836658,18.933034364869542 16.5417982874991,17.971158273504706 20.850664015271587,16.820592589828127" style="fill:none;stroke:black;stroke-width:1"/>
<polygon points="18.136416552148706,18.115874871995747 17.566293786136224,18.968185913299944 20.850664015271587,16.820592589828127" style="fill:none;stroke:black;stroke-width:1"/>
<polygon points="17.566293786136224,18.968185913299944 16.594428817836658,18.933034364869542 20.850664015271587,16.820592589828127" style="fill:none;stroke:black;stroke-width:1"/>
<polygon points="19.476744527024348,15.06179551456731 16.521882215241142,20.50410434787478 17.494935482965264,13.918989767372517" style="fill:none;stroke:black;stroke-width:1"/>
<polygon points="13.865289118970974,20.94218435055222 13.844962387484102,20.82185645930707 16.335872743369727,15.075250043456325" style="fill:none;stroke:black;stroke-width:1"/>
<polygon points="13.844962387484102,20.82185645930707 13.810934913067742,20.709060615225898 16.335872743369727,15.075250043456325" style="fill:none;stroke:black;stroke-width:1"/>
<polygon points="13.871079126152152,21.068267738106176 13.865289118970974,20.94218435055222 16.335872743369727,15.075250043456325" style="fill:none;stroke:black;stroke-width:1"/>
<polygon points="18.048641767663746,24.88145658447808 18.22606866398654,24.847024521348235 16.979330826485292,24.103296037646533" style="fill:none;stroke:black;stroke-width:1"/>
<polygon points="18.22606866398654,24.847024521348235 18.40349556030933,24.81259245821839 16.979330826485292,24.103296037646533" style="fill:none;stroke:black;stroke-width:1"/>
<polygon points="17.828104707954235,23.283528960875433 18.22606866398654,24.847024521348235 18.048641767663746,24.88145658447808" style="fill:none;stroke:black;stroke-width:1"/>
<polygon points="18.212300223155562,23.226472319760795 18.412460716256078,23.205524331831583 18.580922456632127,24.778160395088545" style="fill:none;stroke:black;stroke-width:1"/>
<polygon points="18.412460716256078,23.205524331831583 18.75834935295492,24.7437283319587 18.580922456632127,24.778160395088545" style="fill:none;stroke:black;stroke-width:1"/>
<polygon points="14.561502513685026,19.759227756398847 18.412460716256078,23.205524331831583 14.788361151551966,18.569214069998605" style="fill:none;stroke:black;stroke-width:1"/>
<polygon points="18.412460716256078,23.205524331831583 18.212300223155562,23.226472319760795 14.788361151551966,18.569214069998605" style="fill:none;stroke:black;stroke-width:1"/>
<polygon points="17.646084634066945,23.318126402900713 17.87121415953446,24.915890509628046 17.46864853392313,23.352583427539997" style="fill:none;stroke:black;stroke-width:1"/>
<polygon points="17.87121415953446,24.915890509628046 17.646084634066945,23.318126402900713 18.048641767663746,24.88145658447808" style="fill:none;stroke:black;stroke-width:1"/>
<polygon points="17.646084634066945,23.318126402900713 17.828104707954235,23.283528960875433 18.048641767663746,24.88145658447808" style="fill:none;stroke:black;stroke-width:1"/>
<polygon points="14.779075702573396,20.998169316055645 15.425885781673708,22.061728920875908 19.03310344827586,23.182068965517242" style="fill:none;stroke:black;stroke-width:1"/>
<polygon points="17.625874140327443,23.23779069931075 19.42671349258309,23.30332041758099 19.240658473054896,23.214146322846283" style="fill:none;stroke:black;stroke-width:1"/>
<polygon points="16.304613547070705,16.92623799886318 17.646084634066945,23.318126402900713 13.496728973751088,21.864619341683564" style="fill:none;stroke:black;stroke-width:1"/>
<polygon points="16.58151405230916,23.524743743189227 16.69443420135969,25.05320169684877 16.404087155986367,23.55917580631907" style="fill:none;stroke:black;stroke-width:1"/>
<polygon points="17.113794741277545,23.421447553799688 17.291221637600337,23.387015490669842 17.50020665368923,24.98225590477398" style="fill:none;stroke:black;stroke-width:1"/>
<polygon points="17.105495188222566,25.030010831463883 16.90154873257658,25.045048871372515 16.758940948631956,23.49031168005938" style="fill:none;stroke:black;stroke-width:1"/>
<polygon points="16.58151405230916,23.524743743189227 16.90154873257658,25.045048871372515 16.69443420135969,25.05320169684877" style="fill:none;stroke:black;stroke-width:1"/>
<polygon points="16.90154873257658,25.045048871372515 16.58151405230916,23.524743743189227 16.758940948631956,23.49031168005938" style="fill:none;stroke:black;stroke-width:1"/>
<polygon points="16.69443420135969,25.05320169684877 16.90154873257658,25.045048871372515 16.979330826485292,24.103296037646533" style="fill:none;stroke:black;stroke-width:1"/>
<polygon points="16.90154873257658,25.045048871372515 17.105495188222566,25.030010831463883 16.979330826485292,24.103296037646533" style="fill:none;stroke:black;stroke-width:1"/>
<polygon points="13.191521039022682,15.095803352207993 12.225608762612843,20.700573472826147 12.276606504457282,17.357516733803113" style="fill:none;stroke:black;stroke-width:1"/>
<polygon points="12.310566395162486,19.973577983194136 12.486136012505236,21.96688244473043 15.922261507885759,23.845358473176336" style="fill:none;stroke:black;stroke-width:1"/>
<polygon points="17.14290286838581,20.000189606356383 16.335872743369727,15.075250043456325 16.30474207130583,19.297988946119556" style="fill:none;stroke:black;stroke-width:1"/>
<polygon points="17.14290286838581,20.000189606356383 18.19949359588702,19.903479224983965 16.335872743369727,15.075250043456325" style="fill:none;stroke:black;stroke-width:1"/>
<polygon points="18.821389614498692,19.11454078476841 19.552603455580275,19.006870028142824 16.335872743369727,15.075250043456325" style="fill:none;stroke:black;stroke-width:1"/>
<polygon points="18.19949359588702,19.903479224983965 18.821389614498692,19.11454078476841 16.335872743369727,15.075250043456325" style="fill:none;stroke:black;stroke-width:1"/>
<polygon points="19.812956396692496,19.66800394342359 19.214137090688588,20.787529286090262 16.335872743369727,15.075250043456325" style="fill:none;stroke:black;stroke-width:1"/>
<polygon points="19.214137090688588,20.787529286090262 13.871079126152152,21.068267738106176 16.335872743369727,15.075250043456325" style="fill:none;stroke:black;stroke-width:1"/>
<polygon points="20.467984313445168,17.85157341796103 21.281141897407093,18.647872118776988 20.816345619359232,19.565654917178843" style="fill:none;stroke:black;stroke-width:1"/>
<polygon points="21.281141897407093,18.647872118776988 21.56904837905439,19.555214648588525 20.816345619359232,19.565654917178843" style="fill:none;stroke:black;stroke-width:1"/>
<polygon points="20.131364648772397,22.666142638587885 21.017042844803758,21.805306984393493 20.816345619359232,19.565654917178843" style="fill:none;stroke:black;stroke-width:1"/>
<polygon points="21.017042844803758,21.805306984393493 21.54521420950331,20.68331526208931 20.816345619359232,19.565654917178843" style="fill:none;stroke:black;stroke-width:1"/>
<polygon points="19.338936969107444,17.40951323962452 20.467984313445168,17.85157341796103 20.816345619359232,19.565654917178843" style="fill:none;stroke:black;stroke-width:1"/>
<polygon points="21.54521420950331,20.68331526208931 19.338936969107444,17.40951323962452 20.816345619359232,19.565654917178843" style="fill:none;stroke:black;stroke-width:1"/>
<polygon points="16.20374071942411,7.53935154391447 16.103822411687645,7.29134342519026 20.572685032193718,5.238103835712316" style="fill:none;stroke:black;stroke-width:1"/>
<polygon points="16.379469116651418,8.356887902406031 16.344157133845222,8.074337346379 20.572685032193718,5.238103835712316" style="fill:none;stroke:black;stroke-width:1"/>
<polygon points="16.344157133845222,8.074337346379 16.379469116651418,8.356887902406031 15.142885916429782,8.699636678542378" style="fill:none;stroke:black;stroke-width:1"/>
<polygon points="16.26298418862422,8.891382289716566 15.199631572391366,8.911150799186048 15.142885916429782,8.699636678542378" style="fill:none;stroke:black;stroke-width:1"/>
<polygon points="15.199631572391366,8.911150799186048 16.26298418862422,8.891382289716566 15.347571267963499,9.0779799500053" style="fill:none;stroke:black;stroke-width:1"/>
<polygon points="15.199631572391366,8.911150799186048 15.347571267963499,9.0779799500053 16.718679057129204,10.345751960106787" style="fill:none;stroke:black;stroke-width:1"/>
<polygon points="15.199631572391366,8.911150799186048 16.718679057129204,10.345751960106787 13.565640135233826,10.375003625252505" style="fill:none;stroke:black;stroke-width:1"/>
<polygon points="15.142885916429782,8.699636678542378 15.199631572391366,8.911150799186048 13.565640135233826,10.375003625252505" style="fill:none;stroke:black;stroke-width:1"/>
<polygon points="15.072522019844458,5.972288679660845 14.2835643147963,7.207264950397841 14.887218790037888,5.835047439639643" style="fill:none;stroke:black;stroke-width:1"/>
<polygon points="14.2835643147963,7.207264950397841 14.079610821645195,7.074548567027772 14.887218790037888,5.835047439639643" style="fill:none;stroke:black;stroke-width:1"/>
<polygon points="13.559506789674563,5.271163808398086 13.803863304179416,5.331055691740302 13.34995123762273,6.746409789650279" style="fill:none;stroke:black;stroke-width:1"/>
<polygon points="13.610083964498244,6.843279294944886 13.803863304179416,5.331055691740302 14.039692765293593,5.405433268741987" style="fill:none;stroke:black;stroke-width:1"/>
<polygon points="13.803863304179416,5.331055691740302 13.610083964498244,6.843279294944886 13.34995123762273,6.746409789650279" style="fill:none;stroke:black;stroke-width:1"/>
<polygon points="14.039692765293593,5.405433268741987 13.803863304179416,5.331055691740302 17.153734419470677,2.1521556744430557" style="fill:none;stroke:black;stroke-width:1"/>
<polygon points="13.803863304179416,5.331055691740302 13.559506789674563,5.271163808398086 17.153734419470677,2.1521556744430557" style="fill:none;stroke:black;stroke-width:1"/>
<polygon points="12.231645928575027,6.027603625965572 12.335861515451207,6.282443718986241 12.619532940751181,5.109188293305166" style="fill:none;stroke:black;stroke-width:1"/>
<polygon points="12.23520361202682,5.743158954168422 12.231645928575027,6.027603625965572 12.619532940751181,5.109188293305166" style="fill:none;stroke:black;stroke-width:1"/>
<polygon points="12.231645928575027,6.027603625965572 12.23520361202682,5.743158954168422 12.335861515451207,6.282443718986241" style="fill:none;stroke:black;stroke-width:1"/>
<polygon points="12.529272541601191,6.4803354173715615 12.793103448275861,6.594827586206897 13.565640135233826,10.375003625252505" style="fill:none;stroke:black;stroke-width:1"/>
<polygon points="12.793103448275861,6.594827586206897 15.142885916429782,8.699636678542378 13.565640135233826,10.375003625252505" style="fill:none;stroke:black;stroke-width:1"/>
<polygon points="12.793103448275861,6.594827586206897 12.529272541601191,6.4803354173715615 12.538603387534343,5.303390535898529" style="fill:none;stroke:black;stroke-width:1"/>
<polygon points="12.793103448275861,6.594827586206897 14.2835643147963,7.207264950397841 15.142885916429782,8.699636678542378" style="fill:none;stroke:black;stroke-width:1"/>
<polygon points="14.2835643147963,7.207264950397841 12.793103448275861,6.594827586206897 14.079610821645195,7.074548567027772" style="fill:none;stroke:black;stroke-width:1"/>
<polygon points="12.23520361202682,5.743158954168422 12.346386111367789,5.48946747485229 12.335861515451207,6.282443718986241" style="fill:none;stroke:black;stroke-width:1"/>
<polygon points="12.346386111367789,5.48946747485229 12.529272541601191,6.4803354173715615 12.335861515451207,6.282443718986241" style="fill:none;stroke:black;stroke-width:1"/>
<polygon points="12.529272541601191,6.4803354173715615 12.346386111367789,5.48946747485229 12.538603387534343,5.303390535898529" style="fill:none;stroke:black;stroke-width:1"/>
<polygon points="12.346386111367789,5.48946747485229 12.23520361202682,5.743158954168422 14.01905789222524,2.5939853852663886" style="fill:none;stroke:black;stroke-width:1"/>
<polygon points="15.10976840522527,3.2944860768514435 12.346386111367789,5.48946747485229 14.01905789222524,2.5939853852663886" style="fill:none;stroke:black;stroke-width:1"/>
<polygon points="12.538603387534343,5.303390535898529 12.346386111367789,5.48946747485229 15.10976840522527,3.2944860768514435" style="fill:none;stroke:black;stroke-width:1"/>
<polygon points="19.427430684575008,19.675151836522613 18.194476814537033,19.597752724154486 19.476744527024348,15.06179551456731" style="fill:none;stroke:black;stroke-width:1"/>
<polygon points="19.38047616989028,17.582603701745583 17.718444226953512,20.939699895165532 19.476744527024348,15.06179551456731" style="fill:none;stroke:black;stroke-width:1"/>
<polygon points="17.718444226953512,20.939699895165532 16.521882215241142,20.50410434787478 19.476744527024348,15.06179551456731" style="fill:none;stroke:black;stroke-width:1"/>
<polygon points="16.09015145218795,24.93093057684211 16.276151775587977,25.020188701910755 13.869128905277382,23.262408556738443" style="fill:none;stroke:black;stroke-width:1"/>
<polygon points="15.825240876941795,24.625173697982824 15.936853407461047,24.79617056560748 13.869128905277382,23.262408556738443" style="fill:none;stroke:black;stroke-width:1"/>
<polygon points="15.936853407461047,24.79617056560748 16.09015145218795,24.93093057684211 13.869128905277382,23.262408556738443" style="fill:none;stroke:black;stroke-width:1"/>
<polygon points="16.09015145218795,24.93093057684211 15.936853407461047,24.79617056560748 15.922261507885759,23.845358473176336" style="fill:none;stroke:black;stroke-width:1"/>
<polygon points="15.818484271855892,24.017909590491772 12.310566395162486,19.973577983194136 15.922261507885759,23.845358473176336" style="fill:none;stroke:black;stroke-width:1"/>
<polygon points="15.818484271855892,24.017909590491772 15.762328162597008,24.216050308385622 12.310566395162486,19.973577983194136" style="fill:none;stroke:black;stroke-width:1"/>
<polygon points="15.762328162597008,24.216050308385622 15.818484271855892,24.017909590491772 15.825240876941795,24.625173697982824" style="fill:none;stroke:black;stroke-width:1"/>
<polygon points="15.936853407461047,24.79617056560748 15.818484271855892,24.017909590491772 15.922261507885759,23.845358473176336" style="fill:none;stroke:black;stroke-width:1"/>
<polygon points="15.818484271855892,24.017909590491772 15.936853407461047,24.79617056560748 15.825240876941795,24.625173697982824" style="fill:none;stroke:black;stroke-width:1"/>
<polygon points="15.764297096164704,24.427205003744106 15.825240876941795,24.625173697982824 12.310566395162486,19.973577983194136" style="fill:none;stroke:black;stroke-width:1"/>
<polygon points="15.762328162597008,24.216050308385622 15.764297096164704,24.427205003744106 12.310566395162486,19.973577983194136" style="fill:none;stroke:black;stroke-width:1"/>
<polygon points="15.764297096164704,24.427205003744106 15.762328162597008,24.216050308385622 15.825240876941795,24.625173697982824" style="fill:none;stroke:black;stroke-width:1"/>
<polygon points="18.017179062352696,23.252725731302103 18.22606866398654,24.847024521348235 17.828104707954235,23.283528960875433" style="fill:none;stroke:black;stroke-width:1"/>
<polygon points="18.212300223155562,23.226472319760795 18.017179062352696,23.252725731302103 14.788361151551966,18.569214069998605" style="fill:none;stroke:black;stroke-width:1"/>
<polygon points="18.40349556030933,24.81259245821839 18.017179062352696,23.252725731302103 18.212300223155562,23.226472319760795" style="fill:none;stroke:black;stroke-width:1"/>
<polygon points="18.22606866398654,24.847024521348235 18.017179062352696,23.252725731302103 18.40349556030933,24.81259245821839" style="fill:none;stroke:black;stroke-width:1"/>
<polygon points="18.75834935295492,24.7437283319587 18.616653067547475,23.19063737309454 18.935776249277716,24.70929626882885" style="fill:none;stroke:black;stroke-width:1"/>
<polygon points="18.412460716256078,23.205524331831583 18.616653067547475,23.19063737309454 18.75834935295492,24.7437283319587" style="fill:none;stroke:black;stroke-width:1"/>
<polygon points="14.779075702573396,20.998169316055645 18.616653067547475,23.19063737309454 14.561502513685026,19.759227756398847" style="fill:none;stroke:black;stroke-width:1"/>
<polygon points="18.616653067547475,23.19063737309454 18.412460716256078,23.205524331831583 14.561502513685026,19.759227756398847" style="fill:none;stroke:black;stroke-width:1"/>
<polygon points="15.425885781673708,22.061728920875908 16.406096341543396,22.839075979535437 19.240658473054896,23.214146322846283" style="fill:none;stroke:black;stroke-width:1"/>
<polygon points="16.406096341543396,22.839075979535437 17.625874140327443,23.23779069931075 19.240658473054896,23.214146322846283" style="fill:none;stroke:black;stroke-width:1"/>
<polygon points="19.42671349258309,23.30332041758099 18.964526035646326,23.173770963316773 20.131364648772397,22.666142638587885" style="fill:none;stroke:black;stroke-width:1"/>
<polygon points="17.625874140327443,23.23779069931075 18.964526035646326,23.173770963316773 19.42671349258309,23.30332041758099" style="fill:none;stroke:black;stroke-width:1"/>
<polygon points="18.017179062352696,23.252725731302103 15.393735967972992,17.593915140858833 14.788361151551966,18.569214069998605" style="fill:none;stroke:black;stroke-width:1"/>
<polygon points="15.393735967972992,17.593915140858833 18.017179062352696,23.252725731302103 17.828104707954235,23.283528960875433" style="fill:none;stroke:black;stroke-width:1"/>
<polygon points="17.646084634066945,23.318126402900713 15.393735967972992,17.593915140858833 17.828104707954235,23.283528960875433" style="fill:none;stroke:black;stroke-width:1"/>
<polygon points="16.304613547070705,16.92623799886318 15.393735967972992,17.593915140858833 17.646084634066945,23.318126402900713" style="fill:none;stroke:black;stroke-width:1"/>
<polygon points="17.305354263519497,25.008831776228998 17.105495188222566,25.030010831463883 16.93636784495475,23.455879616929536" style="fill:none;stroke:black;stroke-width:1"/>
<polygon points="17.113794741277545,23.421447553799688 17.305354263519497,25.008831776228998 16.93636784495475,23.455879616929536" style="fill:none;stroke:black;stroke-width:1"/>
<polygon points="17.305354263519497,25.008831776228998 17.113794741277545,23.421447553799688 17.50020665368923,24.98225590477398" style="fill:none;stroke:black;stroke-width:1"/>
<polygon points="17.305354263519497,25.008831776228998 17.50020665368923,24.98225590477398 16.979330826485292,24.103296037646533" style="fill:none;stroke:black;stroke-width:1"/>
<polygon points="17.105495188222566,25.030010831463883 17.305354263519497,25.008831776228998 16.979330826485292,24.103296037646533" style="fill:none;stroke:black;stroke-width:1"/>
<polygon points="13.0970963315624,20.210717833484626 13.191521039022682,15.095803352207993 14.302342728979543,13.94805590602988" style="fill:none;stroke:black;stroke-width:1"/>
<polygon points="13.199637557156152,20.22049438543663 13.0970963315624,20.210717833484626 14.302342728979543,13.94805590602988" style="fill:none;stroke:black;stroke-width:1"/>
<polygon points="12.40306241459802,21.913373179542248 12.486136012505236,21.96688244473043 12.310566395162486,19.973577983194136" style="fill:none;stroke:black;stroke-width:1"/>
<polygon points="15.988324471602807,7.0583715402146705 15.85922144264108,6.8404941239225 20.572685032193718,5.238103835712316" style="fill:none;stroke:black;stroke-width:1"/>
<polygon points="16.103822411687645,7.29134342519026 15.988324471602807,7.0583715402146705 20.572685032193718,5.238103835712316" style="fill:none;stroke:black;stroke-width:1"/>
<polygon points="16.285212968962465,7.801172269458614 16.20374071942411,7.53935154391447 20.572685032193718,5.238103835712316" style="fill:none;stroke:black;stroke-width:1"/>
<polygon points="16.344157133845222,8.074337346379 16.285212968962465,7.801172269458614 20.572685032193718,5.238103835712316" style="fill:none;stroke:black;stroke-width:1"/>
<polygon points="15.246141810518663,6.120189691230381 14.463663962800961,7.3512010049693135 15.072522019844458,5.972288679660845" style="fill:none;stroke:black;stroke-width:1"/>
<polygon points="14.463663962800961,7.3512010049693135 14.2835643147963,7.207264950397841 15.072522019844458,5.972288679660845" style="fill:none;stroke:black;stroke-width:1"/>
<polygon points="14.463663962800961,7.3512010049693135 15.246141810518663,6.120189691230381 15.410027955873863,6.278011027807818" style="fill:none;stroke:black;stroke-width:1"/>
<polygon points="14.2835643147963,7.207264950397841 14.463663962800961,7.3512010049693135 15.142885916429782,8.699636678542378" style="fill:none;stroke:black;stroke-width:1"/>
<polygon points="13.076913843434486,6.663025309645517 13.559506789674563,5.271163808398086 13.34995123762273,6.746409789650279" style="fill:none;stroke:black;stroke-width:1"/>
<polygon points="13.559506789674563,5.271163808398086 13.076913843434486,6.663025309645517 13.307149286069311,5.226395272400529" style="fill:none;stroke:black;stroke-width:1"/>
<polygon points="13.854210598692454,6.952939451307085 13.076913843434486,6.663025309645517 13.34995123762273,6.746409789650279" style="fill:none;stroke:black;stroke-width:1"/>
<polygon points="14.079610821645195,7.074548567027772 13.076913843434486,6.663025309645517 13.854210598692454,6.952939451307085" style="fill:none;stroke:black;stroke-width:1"/>
<polygon points="12.793103448275861,6.594827586206897 13.076913843434486,6.663025309645517 14.079610821645195,7.074548567027772" style="fill:none;stroke:black;stroke-width:1"/>
<polygon points="13.307149286069311,5.226395272400529 13.047316857653943,5.197387737432818 15.10976840522527,3.2944860768514435" style="fill:none;stroke:black;stroke-width:1"/>
<polygon points="13.076913843434486,6.663025309645517 13.047316857653943,5.197387737432818 13.307149286069311,5.226395272400529" style="fill:none;stroke:black;stroke-width:1"/>
<polygon points="13.047316857653943,5.197387737432818 13.076913843434486,6.663025309645517 12.793103448275861,6.594827586206897" style="fill:none;stroke:black;stroke-width:1"/>
<polygon points="18.050234069326002,16.176845362713504 20.17231981068662,18.877954130840905 19.476744527024348,15.06179551456731" style="fill:none;stroke:black;stroke-width:1"/>
<polygon points="20.17231981068662,18.877954130840905 19.427430684575008,19.675151836522613 19.476744527024348,15.06179551456731" style="fill:none;stroke:black;stroke-width:1"/>
<polygon points="18.546086385143894,17.028124041164784 19.38047616989028,17.582603701745583 19.476744527024348,15.06179551456731" style="fill:none;stroke:black;stroke-width:1"/>
<polygon points="17.609463731732593,17.4863938768554 18.546086385143894,17.028124041164784 19.476744527024348,15.06179551456731" style="fill:none;stroke:black;stroke-width:1"/>
<polygon points="18.194476814537033,19.597752724154486 17.416064510523412,18.63720721473139 19.476744527024348,15.06179551456731" style="fill:none;stroke:black;stroke-width:1"/>
<polygon points="17.416064510523412,18.63720721473139 17.609463731732593,17.4863938768554 19.476744527024348,15.06179551456731" style="fill:none;stroke:black;stroke-width:1"/>
<polygon points="15.873787703027508,18.521338296983846 16.30474207130583,19.297988946119556 17.494935482965264,13.918989767372517" style="fill:none;stroke:black;stroke-width:1"/>
<polygon points="15.102749881361992,18.63208119777906 15.873787703027508,18.521338296983846 17.494935482965264,13.918989767372517" style="fill:none;stroke:black;stroke-width:1"/>
<polygon points="16.521882215241142,20.50410434787478 15.611273037735312,19.69682104642099 17.494935482965264,13.918989767372517" style="fill:none;stroke:black;stroke-width:1"/>
<polygon points="15.611273037735312,19.69682104642099 15.102749881361992,18.63208119777906 17.494935482965264,13.918989767372517" style="fill:none;stroke:black;stroke-width:1"/>
<polygon points="16.69443420135969,25.05320169684877 16.485908582824663,25.054482758620686 16.404087155986367,23.55917580631907" style="fill:none;stroke:black;stroke-width:1"/>
<polygon points="16.485908582824663,25.054482758620686 16.224551278167894,23.608698998103456 16.404087155986367,23.55917580631907" style="fill:none;stroke:black;stroke-width:1"/>
<polygon points="16.485908582824663,25.054482758620686 16.69443420135969,25.05320169684877 13.869128905277382,23.262408556738443" style="fill:none;stroke:black;stroke-width:1"/>
<polygon points="16.276151775587977,25.020188701910755 16.485908582824663,25.054482758620686 13.869128905277382,23.262408556738443" style="fill:none;stroke:black;stroke-width:1"/>
<polygon points="16.485908582824663,25.054482758620686 16.276151775587977,25.020188701910755 16.09015145218795,24.93093057684211" style="fill:none;stroke:black;stroke-width:1"/>
<polygon points="18.616653067547475,23.19063737309454 18.823869802922992,23.182567049129734 18.935776249277716,24.70929626882885" style="fill:none;stroke:black;stroke-width:1"/>
<polygon points="19.113203145600508,24.674864205699006 18.823869802922992,23.182567049129734 19.03310344827586,23.182068965517242" style="fill:none;stroke:black;stroke-width:1"/>
<polygon points="18.823869802922992,23.182567049129734 19.113203145600508,24.674864205699006 18.935776249277716,24.70929626882885" style="fill:none;stroke:black;stroke-width:1"/>
<polygon points="18.823869802922992,23.182567049129734 14.779075702573396,20.998169316055645 19.03310344827586,23.182068965517242" style="fill:none;stroke:black;stroke-width:1"/>
<polygon points="18.823869802922992,23.182567049129734 18.616653067547475,23.19063737309454 14.779075702573396,20.998169316055645" style="fill:none;stroke:black;stroke-width:1"/>
<polygon points="13.29808376260348,20.240967782590726 13.199637557156152,20.22049438543663 14.302342728979543,13.94805590602988" style="fill:none;stroke:black;stroke-width:1"/>
<polygon points="16.335872743369727,15.075250043456325 13.561729494579586,20.364038609140785 14.302342728979543,13.94805590602988" style="fill:none;stroke:black;stroke-width:1"/>
<polygon points="13.561729494579586,20.364038609140785 13.478655896672368,20.310529343952602 14.302342728979543,13.94805590602988" style="fill:none;stroke:black;stroke-width:1"/>
<polygon points="12.56714170485337,20.345285422332555 12.468140318857106,20.413943138063733 13.191521039022682,15.095803352207993" style="fill:none;stroke:black;stroke-width:1"/>
<polygon points="12.468140318857106,20.413943138063733 12.376827545261593,20.49675138456095 13.191521039022682,15.095803352207993" style="fill:none;stroke:black;stroke-width:1"/>
<polygon points="12.295342633126944,20.59267835878817 12.225608762612843,20.700573472826147 13.191521039022682,15.095803352207993" style="fill:none;stroke:black;stroke-width:1"/>
<polygon points="12.376827545261593,20.49675138456095 12.295342633126944,20.59267835878817 13.191521039022682,15.095803352207993" style="fill:none;stroke:black;stroke-width:1"/>
<polygon points="12.258606495185424,21.764860585082474 12.326645724313764,21.845717265556566 12.310566395162486,19.973577983194136" style="fill:none;stroke:black;stroke-width:1"/>
<polygon points="12.326645724313764,21.845717265556566 12.40306241459802,21.913373179542248 12.310566395162486,19.973577983194136" style="fill:none;stroke:black;stroke-width:1"/>
<polygon points="16.485908582824663,25.054482758620686 16.060404040614387,23.706251976393904 16.224551278167894,23.608698998103456" style="fill:none;stroke:black;stroke-width:1"/>
<polygon points="16.060404040614387,23.706251976393904 16.09015145218795,24.93093057684211 15.922261507885759,23.845358473176336" style="fill:none;stroke:black;stroke-width:1"/>
<polygon points="16.060404040614387,23.706251976393904 16.485908582824663,25.054482758620686 16.09015145218795,24.93093057684211" style="fill:none;stroke:black;stroke-width:1"/>
<polygon points="12.486136012505236,21.96688244473043 12.5737047961994,22.00642894659797 15.922261507885759,23.845358473176336" style="fill:none;stroke:black;stroke-width:1"/>
<polygon points="12.5737047961994,22.00642894659797 16.060404040614387,23.706251976393904 15.922261507885759,23.845358473176336" style="fill:none;stroke:black;stroke-width:1"/>
<polygon points="16.060404040614387,23.706251976393904 12.5737047961994,22.00642894659797 12.666804636565544,22.036667029511694" style="fill:none;stroke:black;stroke-width:1"/>
<polygon points="13.080399904063778,22.05163848972793 16.58151405230916,23.524743743189227 16.404087155986367,23.55917580631907" style="fill:none;stroke:black;stroke-width:1"/>
<polygon points="15.56809857143868,6.4502556336529455 14.623682847753626,7.510229874810221 15.410027955873863,6.278011027807818" style="fill:none;stroke:black;stroke-width:1"/>
<polygon points="14.623682847753626,7.510229874810221 14.463663962800961,7.3512010049693135 15.410027955873863,6.278011027807818" style="fill:none;stroke:black;stroke-width:1"/>
<polygon points="14.463663962800961,7.3512010049693135 14.623682847753626,7.510229874810221 15.142885916429782,8.699636678542378" style="fill:none;stroke:black;stroke-width:1"/>
<polygon points="12.783663010882538,5.202613945074607 12.793103448275861,6.594827586206897 12.538603387534343,5.303390535898529" style="fill:none;stroke:black;stroke-width:1"/>
<polygon points="12.783663010882538,5.202613945074607 13.047316857653943,5.197387737432818 12.793103448275861,6.594827586206897" style="fill:none;stroke:black;stroke-width:1"/>
<polygon points="12.783663010882538,5.202613945074607 12.538603387534343,5.303390535898529 15.10976840522527,3.2944860768514435" style="fill:none;stroke:black;stroke-width:1"/>
<polygon points="13.047316857653943,5.197387737432818 12.783663010882538,5.202613945074607 15.10976840522527,3.2944860768514435" style="fill:none;stroke:black;stroke-width:1"/>
<polygon points="13.478655896672368,20.310529343952602 13.391091415828152,20.2710613864764 14.302342728979543,13.94805590602988" style="fill:none;stroke:black;stroke-width:1"/>
<polygon points="13.391091415828152,20.2710613864764 13.29808376260348,20.240967782590726 14.302342728979543,13.94805590602988" style="fill:none;stroke:black;stroke-width:1"/>
<polygon points="13.638146184863842,20.43169452312647 16.335872743369727,15.075250043456325 13.706185413992182,20.512551203600562" style="fill:none;stroke:black;stroke-width:1"/>
<polygon points="13.638146184863842,20.43169452312647 13.561729494579586,20.364038609140785 16.335872743369727,15.075250043456325" style="fill:none;stroke:black;stroke-width:1"/>
<polygon points="12.67149297675118,20.291665111560583 12.56714170485337,20.345285422332555 13.191521039022682,15.095803352207993" style="fill:none;stroke:black;stroke-width:1"/>
<polygon points="12.777922031239104,20.252671521322164 12.67149297675118,20.291665111560583 13.191521039022682,15.095803352207993" style="fill:none;stroke:black;stroke-width:1"/>
<polygon points="12.884994817615933,20.226335294266764 12.777922031239104,20.252671521322164 13.191521039022682,15.095803352207993" style="fill:none;stroke:black;stroke-width:1"/>
<polygon points="12.153856996109866,21.56835117345714 12.200533163179081,21.671957204402343 12.276606504457282,17.357516733803113" style="fill:none;stroke:black;stroke-width:1"/>
<polygon points="12.119829521693502,21.45555532937597 12.153856996109866,21.56835117345714 12.276606504457282,17.357516733803113" style="fill:none;stroke:black;stroke-width:1"/>
<polygon points="12.093712783025454,21.20914405057686 12.099502790206628,21.33522743813081 12.276606504457282,17.357516733803113" style="fill:none;stroke:black;stroke-width:1"/>
<polygon points="12.099502790206628,21.33522743813081 12.119829521693502,21.45555532937597 12.276606504457282,17.357516733803113" style="fill:none;stroke:black;stroke-width:1"/>
<polygon points="12.225608762612843,20.700573472826147 12.169319861052859,20.819195371140673 12.276606504457282,17.357516733803113" style="fill:none;stroke:black;stroke-width:1"/>
<polygon points="12.169319861052859,20.819195371140673 12.12793103448276,20.947241379310345 12.276606504457282,17.357516733803113" style="fill:none;stroke:black;stroke-width:1"/>
<polygon points="12.103066228700069,21.07917248518426 12.093712783025454,21.20914405057686 12.276606504457282,17.357516733803113" style="fill:none;stroke:black;stroke-width:1"/>
<polygon points="12.12793103448276,20.947241379310345 12.103066228700069,21.07917248518426 12.276606504457282,17.357516733803113" style="fill:none;stroke:black;stroke-width:1"/>
<polygon points="16.224551278167894,23.608698998103456 12.973459369174263,22.065456198579113 16.404087155986367,23.55917580631907" style="fill:none;stroke:black;stroke-width:1"/>
<polygon points="12.973459369174263,22.065456198579113 13.080399904063778,22.05163848972793 16.404087155986367,23.55917580631907" style="fill:none;stroke:black;stroke-width:1"/>
<polygon points="16.58151405230916,23.524743743189227 13.187633664554486,22.02532726959062 16.758940948631956,23.49031168005938" style="fill:none;stroke:black;stroke-width:1"/>
<polygon points="13.080399904063778,22.05163848972793 13.187633664554486,22.02532726959062 16.58151405230916,23.524743743189227" style="fill:none;stroke:black;stroke-width:1"/>
<polygon points="16.758940948631956,23.49031168005938 13.187633664554486,22.02532726959062 16.93636784495475,23.455879616929536" style="fill:none;stroke:black;stroke-width:1"/>
<polygon points="14.76463246420135,7.682783424734074 15.56809857143868,6.4502556336529455 15.718487938140393,6.637769410379884" style="fill:none;stroke:black;stroke-width:1"/>
<polygon points="14.76463246420135,7.682783424734074 14.623682847753626,7.510229874810221 15.56809857143868,6.4502556336529455" style="fill:none;stroke:black;stroke-width:1"/>
<polygon points="14.76463246420135,7.682783424734074 15.718487938140393,6.637769410379884 15.85922144264108,6.8404941239225" style="fill:none;stroke:black;stroke-width:1"/>
<polygon points="14.623682847753626,7.510229874810221 14.76463246420135,7.682783424734074 15.142885916429782,8.699636678542378" style="fill:none;stroke:black;stroke-width:1"/>
<polygon points="13.0970963315624,20.210717833484626 12.991788135786054,20.212468684075507 13.191521039022682,15.095803352207993" style="fill:none;stroke:black;stroke-width:1"/>
<polygon points="12.991788135786054,20.212468684075507 12.884994817615933,20.226335294266764 13.191521039022682,15.095803352207993" style="fill:none;stroke:black;stroke-width:1"/>
<polygon points="16.060404040614387,23.706251976393904 12.765356786548821,22.05726101127185 16.224551278167894,23.608698998103456" style="fill:none;stroke:black;stroke-width:1"/>
<polygon points="12.765356786548821,22.05726101127185 16.060404040614387,23.706251976393904 12.666804636565544,22.036667029511694" style="fill:none;stroke:black;stroke-width:1"/>
<polygon points="13.294108823534636,21.98646632517773 17.113794741277545,23.421447553799688 16.93636784495475,23.455879616929536" style="fill:none;stroke:black;stroke-width:1"/>
<polygon points="13.187633664554486,22.02532726959062 13.294108823534636,21.98646632517773 16.93636784495475,23.455879616929536" style="fill:none;stroke:black;stroke-width:1"/>
<polygon points="17.113794741277545,23.421447553799688 13.294108823534636,21.98646632517773 17.291221637600337,23.387015490669842" style="fill:none;stroke:black;stroke-width:1"/>
<polygon points="15.988324471602807,7.0583715402146705 14.885356937788806,7.8674678062535826 15.85922144264108,6.8404941239225" style="fill:none;stroke:black;stroke-width:1"/>
<polygon points="14.885356937788806,7.8674678062535826 14.76463246420135,7.682783424734074 15.85922144264108,6.8404941239225" style="fill:none;stroke:black;stroke-width:1"/>
<polygon points="14.76463246420135,7.682783424734074 14.885356937788806,7.8674678062535826 15.142885916429782,8.699636678542378" style="fill:none;stroke:black;stroke-width:1"/>
<polygon points="12.868017714073005,22.067134253407925 12.973459369174263,22.065456198579113 16.224551278167894,23.608698998103456" style="fill:none;stroke:black;stroke-width:1"/>
<polygon points="12.765356786548821,22.05726101127185 12.868017714073005,22.067134253407925 16.224551278167894,23.608698998103456" style="fill:none;stroke:black;stroke-width:1"/>
<polygon points="13.398057208628035,21.93318387333387 17.646084634066945,23.318126402900713 17.46864853392313,23.352583427539997" style="fill:none;stroke:black;stroke-width:1"/>
<polygon points="17.646084634066945,23.318126402900713 13.398057208628035,21.93318387333387 13.496728973751088,21.864619341683564" style="fill:none;stroke:black;stroke-width:1"/>
<polygon points="17.291221637600337,23.387015490669842 13.398057208628035,21.93318387333387 17.46864853392313,23.352583427539997" style="fill:none;stroke:black;stroke-width:1"/>
<polygon points="13.294108823534636,21.98646632517773 13.398057208628035,21.93318387333387 17.291221637600337,23.387015490669842" style="fill:none;stroke:black;stroke-width:1"/>
<polygon points="14.984700394160694,8.062889170881455 15.988324471602807,7.0583715402146705 16.103822411687645,7.29134342519026" style="fill:none;stroke:black;stroke-width:1"/>
<polygon points="14.984700394160694,8.062889170881455 14.885356937788806,7.8674678062535826 15.988324471602807,7.0583715402146705" style="fill:none;stroke:black;stroke-width:1"/>
<polygon points="14.984700394160694,8.062889170881455 16.103822411687645,7.29134342519026 16.20374071942411,7.53935154391447" style="fill:none;stroke:black;stroke-width:1"/>
<polygon points="14.885356937788806,7.8674678062535826 15.114620757836494,8.480367455513143 15.142885916429782,8.699636678542378" style="fill:none;stroke:black;stroke-width:1"/>
<polygon points="14.984700394160694,8.062889170881455 15.114620757836494,8.480367455513143 14.885356937788806,7.8674678062535826" style="fill:none;stroke:black;stroke-width:1"/>
<polygon points="15.114620757836494,8.480367455513143 16.344157133845222,8.074337346379 15.142885916429782,8.699636678542378" style="fill:none;stroke:black;stroke-width:1"/>
<polygon points="15.114620757836494,8.480367455513143 16.285212968962465,7.801172269458614 16.344157133845222,8.074337346379" style="fill:none;stroke:black;stroke-width:1"/>
<polygon points="16.285212968962465,7.801172269458614 15.061506958961694,8.267653670130406 16.20374071942411,7.53935154391447" style="fill:none;stroke:black;stroke-width:1"/>
<polygon points="15.114620757836494,8.480367455513143 15.061506958961694,8.267653670130406 16.285212968962465,7.801172269458614" style="fill:none;stroke:black;stroke-width:1"/>
<polygon points="15.061506958961694,8.267653670130406 14.984700394160694,8.062889170881455 16.20374071942411,7.53935154391447" style="fill:none;stroke:black;stroke-width:1"/>
<polygon points="15.061506958961694,8.267653670130406 15.114620757836494,8.480367455513143 14.984700394160694,8.062889170881455" style="fill:none;stroke:black;stroke-width:1"/>
<polygon points="13.871079126152152,21.068267738106176 19.214137090688588,20.787529286090262 13.861725680477537,21.19823930349878" style="fill:none;stroke:black;stroke-width:1"/>
<polygon points="13.861725680477537,21.19823930349878 19.214137090688588,20.787529286090262 18.277342868978256,21.592646703552063" style="fill:none;stroke:black;stroke-width:1"/>
<polygon points="13.739194746964966,21.577346462331782 19.3996632050763,17.398778794747948 18.52051581563567,16.84035923525618" style="fill:none;stroke:black;stroke-width:1"/>
<polygon points="13.739194746964966,21.577346462331782 18.52051581563567,16.84035923525618 13.669280609129242,21.685554845479736" style="fill:none;stroke:black;stroke-width:1"/>
<polygon points="19.984473265305176,18.244317697149523 13.739194746964966,21.577346462331782 13.79597210866492,21.45839049708755" style="fill:none;stroke:black;stroke-width:1"/>
<polygon points="13.739194746964966,21.577346462331782 19.984473265305176,18.244317697149523 19.3996632050763,17.398778794747948" style="fill:none;stroke:black;stroke-width:1"/>
<polygon points="17.43857938945599,16.65916673095145 13.587833740804792,21.781714199645126 13.669280609129242,21.685554845479736" style="fill:none;stroke:black;stroke-width:1"/>
<polygon points="18.52051581563567,16.84035923525618 17.43857938945599,16.65916673095145 13.669280609129242,21.685554845479736" style="fill:none;stroke:black;stroke-width:1"/>
<polygon points="13.587833740804792,21.781714199645126 17.43857938945599,16.65916673095145 13.496728973751088,21.864619341683564" style="fill:none;stroke:black;stroke-width:1"/>
<polygon points="17.43857938945599,16.65916673095145 16.304613547070705,16.92623799886318 13.496728973751088,21.864619341683564" style="fill:none;stroke:black;stroke-width:1"/>
<polygon points="18.964526035646326,23.173770963316773 20.181724137931035,19.28379310344828 20.131364648772397,22.666142638587885" style="fill:none;stroke:black;stroke-width:1"/>
<polygon points="20.181724137931035,19.28379310344828 14.561502513685026,19.759227756398847 14.788361151551966,18.569214069998605" style="fill:none;stroke:black;stroke-width:1"/>
<polygon points="18.821389614498692,19.11454078476841 20.181724137931035,19.28379310344828 19.552603455580275,19.006870028142824" style="fill:none;stroke:black;stroke-width:1"/>
<polygon points="20.181724137931035,19.28379310344828 14.779075702573396,20.998169316055645 14.561502513685026,19.759227756398847" style="fill:none;stroke:black;stroke-width:1"/>
<polygon points="20.181724137931035,19.28379310344828 20.202119336844504,18.520002142061053 20.701006520269083,19.62875195797379" style="fill:none;stroke:black;stroke-width:1"/>
<polygon points="20.181724137931035,19.28379310344828 21.281141897407093,18.647872118776988 20.467984313445168,17.85157341796103" style="fill:none;stroke:black;stroke-width:1"/>
<polygon points="20.181724137931035,19.28379310344828 18.050234069326002,16.176845362713504 17.136415685105767,16.901625049018325" style="fill:none;stroke:black;stroke-width:1"/>
<polygon points="19.338936969107444,17.40951323962452 20.181724137931035,19.28379310344828 20.467984313445168,17.85157341796103" style="fill:none;stroke:black;stroke-width:1"/>
<polygon points="20.181724137931035,19.28379310344828 17.43857938945599,16.65916673095145 18.52051581563567,16.84035923525618" style="fill:none;stroke:black;stroke-width:1"/>
<polygon points="21.56904837905439,19.555214648588525 20.181724137931035,19.28379310344828 20.701006520269083,19.62875195797379" style="fill:none;stroke:black;stroke-width:1"/>
<polygon points="19.2166172759546,17.90312893116895 20.181724137931035,19.28379310344828 18.136416552148706,18.115874871995747" style="fill:none;stroke:black;stroke-width:1"/>
<polygon points="16.5417982874991,17.971158273504706 20.181724137931035,19.28379310344828 17.136415685105767,16.901625049018325" style="fill:none;stroke:black;stroke-width:1"/>
<polygon points="20.181724137931035,19.28379310344828 17.566293786136224,18.968185913299944 18.136416552148706,18.115874871995747" style="fill:none;stroke:black;stroke-width:1"/>
<polygon points="20.181724137931035,19.28379310344828 17.718444226953512,20.939699895165532 19.38047616989028,17.582603701745583" style="fill:none;stroke:black;stroke-width:1"/>
<polygon points="20.181724137931035,19.28379310344828 16.406096341543396,22.839075979535437 15.425885781673708,22.061728920875908" style="fill:none;stroke:black;stroke-width:1"/>
<polygon points="20.181724137931035,19.28379310344828 17.14290286838581,20.000189606356383 16.30474207130583,19.297988946119556" style="fill:none;stroke:black;stroke-width:1"/>
<polygon points="20.181724137931035,19.28379310344828 19.812956396692496,19.66800394342359 19.552603455580275,19.006870028142824" style="fill:none;stroke:black;stroke-width:1"/>
<polygon points="19.214137090688588,20.787529286090262 20.181724137931035,19.28379310344828 18.277342868978256,21.592646703552063" style="fill:none;stroke:black;stroke-width:1"/>
<polygon points="20.181724137931035,19.28379310344828 21.017042844803758,21.805306984393493 20.131364648772397,22.666142638587885" style="fill:none;stroke:black;stroke-width:1"/>
<polygon points="20.202119336844504,18.520002142061053 20.181724137931035,19.28379310344828 19.2166172759546,17.90312893116895" style="fill:none;stroke:black;stroke-width:1"/>
<polygon points="20.181724137931035,19.28379310344828 16.5417982874991,17.971158273504706 16.594428817836658,18.933034364869542" style="fill:none;stroke:black;stroke-width:1"/>
<polygon points="17.566293786136224,18.968185913299944 20.181724137931035,19.28379310344828 16.594428817836658,18.933034364869542" style="fill:none;stroke:black;stroke-width:1"/>
<polygon points="15.393735967972992,17.593915140858833 20.181724137931035,19.28379310344828 14.788361151551966,18.569214069998605" style="fill:none;stroke:black;stroke-width:1"/>
<polygon points="20.181724137931035,19.28379310344828 20.17231981068662,18.877954130840905 18.050234069326002,16.176845362713504" style="fill:none;stroke:black;stroke-width:1"/>
<polygon points="14.779075702573396,20.998169316055645 20.181724137931035,19.28379310344828 15.425885781673708,22.061728920875908" style="fill:none;stroke:black;stroke-width:1"/>
<polygon points="20.181724137931035,19.28379310344828 17.416064510523412,18.63720721473139 18.194476814537033,19.597752724154486" style="fill:none;stroke:black;stroke-width:1"/>
<polygon points="19.3996632050763,17.398778794747948 20.181724137931035,19.28379310344828 18.52051581563567,16.84035923525618" style="fill:none;stroke:black;stroke-width:1"/>
<polygon points="19.984473265305176,18.244317697149523 20.181724137931035,19.28379310344828 19.3996632050763,17.398778794747948" style="fill:none;stroke:black;stroke-width:1"/>
<polygon points="17.14290286838581,20.000189606356383 20.181724137931035,19.28379310344828 18.19949359588702,19.903479224983965" style="fill:none;stroke:black;stroke-width:1"/>
<polygon points="20.181724137931035,19.28379310344828 18.821389614498692,19.11454078476841 18.19949359588702,19.903479224983965" style="fill:none;stroke:black;stroke-width:1"/>
<polygon points="20.181724137931035,19.28379310344828 19.214137090688588,20.787529286090262 19.812956396692496,19.66800394342359" style="fill:none;stroke:black;stroke-width:1"/>
<polygon points="21.281141897407093,18.647872118776988 20.181724137931035,19.28379310344828 21.56904837905439,19.555214648588525" style="fill:none;stroke:black;stroke-width:1"/>
<polygon points="21.017042844803758,21.805306984393493 20.181724137931035,19.28379310344828 21.54521420950331,20.68331526208931" style="fill:none;stroke:black;stroke-width:1"/>
<polygon points="20.181724137931035,19.28379310344828 19.338936969107444,17.40951323962452 21.54521420950331,20.68331526208931" style="fill:none;stroke:black;stroke-width:1"/>
<polygon points="19.427430684575008,19.675151836522613 20.181724137931035,19.28379310344828 18.194476814537033,19.597752724154486" style="fill:none;stroke:black;stroke-width:1"/>
<polygon points="18.546086385143894,17.028124041164784 20.181724137931035,19.28379310344828 19.38047616989028,17.582603701745583" style="fill:none;stroke:black;stroke-width:1"/>
<polygon points="17.718444226953512,20.939699895165532 20.181724137931035,19.28379310344828 16.521882215241142,20.50410434787478" style="fill:none;stroke:black;stroke-width:1"/>
<polygon points="15.873787703027508,18.521338296983846 20.181724137931035,19.28379310344828 16.30474207130583,19.297988946119556" style="fill:none;stroke:black;stroke-width:1"/>
<polygon points="16.406096341543396,22.839075979535437 20.181724137931035,19.28379310344828 17.625874140327443,23.23779069931075" style="fill:none;stroke:black;stroke-width:1"/>
<polygon points="20.181724137931035,19.28379310344828 18.964526035646326,23.173770963316773 17.625874140327443,23.23779069931075" style="fill:none;stroke:black;stroke-width:1"/>
<polygon points="20.181724137931035,19.28379310344828 15.611273037735312,19.69682104642099 16.521882215241142,20.50410434787478" style="fill:none;stroke:black;stroke-width:1"/>
<polygon points="17.43857938945599,16.65916673095145 20.181724137931035,19.28379310344828 16.304613547070705,16.92623799886318" style="fill:none;stroke:black;stroke-width:1"/>
<polygon points="20.181724137931035,19.28379310344828 15.393735967972992,17.593915140858833 16.304613547070705,16.92623799886318" style="fill:none;stroke:black;stroke-width:1"/>
<polygon points="20.17231981068662,18.877954130840905 20.181724137931035,19.28379310344828 19.427430684575008,19.675151836522613" style="fill:none;stroke:black;stroke-width:1"/>
<polygon points="20.181724137931035,19.28379310344828 18.546086385143894,17.028124041164784 17.609463731732593,17.4863938768554" style="fill:none;stroke:black;stroke-width:1"/>
<polygon points="17.416064510523412,18.63720721473139 20.181724137931035,19.28379310344828 17.609463731732593,17.4863938768554" style="fill:none;stroke:black;stroke-width:1"/>
<polygon points="20.181724137931035,19.28379310344828 15.873787703027508,18.521338296983846 15.102749881361992,18.63208119777906" style="fill:none;stroke:black;stroke-width:1"/>
<polygon points="15.611273037735312,19.69682104642099 20.181724137931035,19.28379310344828 15.102749881361992,18.63208119777906" style="fill:none;stroke:black;stroke-width:1"/>
<polygon points="20.181724137931035,19.28379310344828 13.836934592599407,21.330254178154334 13.861725680477537,21.19823930349878" style="fill:none;stroke:black;stroke-width:1"/>
<polygon points="20.181724137931035,19.28379310344828 13.861725680477537,21.19823930349878 18.277342868978256,21.592646703552063" style="fill:none;stroke:black;stroke-width:1"/>
<polygon points="13.836934592599407,21.330254178154334 20.181724137931035,19.28379310344828 13.79597210866492,21.45839049708755" style="fill:none;stroke:black;stroke-width:1"/>
<polygon points="20.181724137931035,19.28379310344828 19.984473265305176,18.244317697149523 13.79597210866492,21.45839049708755" style="fill:none;stroke:black;stroke-width:1"/>
<polygon points="13.398057208628035,21.93318387333387 13.706185413992182,20.512551203600562 13.764258745998523,20.605454584280693" style="fill:none;stroke:black;stroke-width:1"/>
<polygon points="13.810934913067742,20.709060615225898 13.398057208628035,21.93318387333387 13.764258745998523,20.605454584280693" style="fill:none;stroke:black;stroke-width:1"/>
<polygon points="13.398057208628035,21.93318387333387 12.099502790206628,21.33522743813081 12.093712783025454,21.20914405057686" style="fill:none;stroke:black;stroke-width:1"/>
<polygon points="13.398057208628035,21.93318387333387 13.587833740804792,21.781714199645126 13.496728973751088,21.864619341683564" style="fill:none;stroke:black;stroke-width:1"/>
<polygon points="13.398057208628035,21.93318387333387 13.844962387484102,20.82185645930707 13.865289118970974,20.94218435055222" style="fill:none;stroke:black;stroke-width:1"/>
<polygon points="13.871079126152152,21.068267738106176 13.398057208628035,21.93318387333387 13.865289118970974,20.94218435055222" style="fill:none;stroke:black;stroke-width:1"/>
<polygon points="13.398057208628035,21.93318387333387 13.638146184863842,20.43169452312647 13.706185413992182,20.512551203600562" style="fill:none;stroke:black;stroke-width:1"/>
<polygon points="13.398057208628035,21.93318387333387 13.836934592599407,21.330254178154334 13.79597210866492,21.45839049708755" style="fill:none;stroke:black;stroke-width:1"/>
<polygon points="13.587833740804792,21.781714199645126 13.398057208628035,21.93318387333387 13.669280609129242,21.685554845479736" style="fill:none;stroke:black;stroke-width:1"/>
<polygon points="13.739194746964966,21.577346462331782 13.398057208628035,21.93318387333387 13.79597210866492,21.45839049708755" style="fill:none;stroke:black;stroke-width:1"/>
<polygon points="13.398057208628035,21.93318387333387 12.258606495185424,21.764860585082474 12.200533163179081,21.671957204402343" style="fill:none;stroke:black;stroke-width:1"/>
<polygon points="13.844962387484102,20.82185645930707 13.398057208628035,21.93318387333387 13.810934913067742,20.709060615225898" style="fill:none;stroke:black;stroke-width:1"/>
<polygon points="13.836934592599407,21.330254178154334 13.398057208628035,21.93318387333387 13.861725680477537,21.19823930349878" style="fill:none;stroke:black;stroke-width:1"/>
<polygon points="13.398057208628035,21.93318387333387 13.871079126152152,21.068267738106176 13.861725680477537,21.19823930349878" style="fill:none;stroke:black;stroke-width:1"/>
<polygon points="13.29808376260348,20.240967782590726 13.398057208628035,21.93318387333387 13.199637557156152,20.22049438543663" style="fill:none;stroke:black;stroke-width:1"/>
<polygon points="13.398057208628035,21.93318387333387 13.391091415828152,20.2710613864764 13.478655896672368,20.310529343952602" style="fill:none;stroke:black;stroke-width:1"/>
<polygon points="12.295342633126944,20.59267835878817 13.398057208628035,21.93318387333387 12.225608762612843,20.700573472826147" style="fill:none;stroke:black;stroke-width:1"/>
<polygon points="13.398057208628035,21.93318387333387 13.739194746964966,21.577346462331782 13.669280609129242,21.685554845479736" style="fill:none;stroke:black;stroke-width:1"/>
<polygon points="13.398057208628035,21.93318387333387 12.5737047961994,22.00642894659797 12.486136012505236,21.96688244473043" style="fill:none;stroke:black;stroke-width:1"/>
<polygon points="13.398057208628035,21.93318387333387 13.0970963315624,20.210717833484626 13.199637557156152,20.22049438543663" style="fill:none;stroke:black;stroke-width:1"/>
<polygon points="13.398057208628035,21.93318387333387 12.468140318857106,20.413943138063733 12.56714170485337,20.345285422332555" style="fill:none;stroke:black;stroke-width:1"/>
<polygon points="13.398057208628035,21.93318387333387 12.765356786548821,22.05726101127185 12.666804636565544,22.036667029511694" style="fill:none;stroke:black;stroke-width:1"/>
<polygon points="12.40306241459802,21.913373179542248 13.398057208628035,21.93318387333387 12.486136012505236,21.96688244473043" style="fill:none;stroke:black;stroke-width:1"/>
<polygon points="13.398057208628035,21.93318387333387 12.326645724313764,21.845717265556566 12.258606495185424,21.764860585082474" style="fill:none;stroke:black;stroke-width:1"/>
<polygon points="13.398057208628035,21.93318387333387 12.991788135786054,20.212468684075507 13.0970963315624,20.210717833484626" style="fill:none;stroke:black;stroke-width:1"/>
<polygon points="13.561729494579586,20.364038609140785 13.398057208628035,21.93318387333387 13.478655896672368,20.310529343952602" style="fill:none;stroke:black;stroke-width:1"/>
<polygon points="12.67149297675118,20.291665111560583 13.398057208628035,21.93318387333387 12.56714170485337,20.345285422332555" style="fill:none;stroke:black;stroke-width:1"/>
<polygon points="12.468140318857106,20.413943138063733 13.398057208628035,21.93318387333387 12.376827545261593,20.49675138456095" style="fill:none;stroke:black;stroke-width:1"/>
<polygon points="13.398057208628035,21.93318387333387 12.295342633126944,20.59267835878817 12.376827545261593,20.49675138456095" style="fill:none;stroke:black;stroke-width:1"/>
<polygon points="12.153856996109866,21.56835117345714 13.398057208628035,21.93318387333387 12.200533163179081,21.671957204402343" style="fill:none;stroke:black;stroke-width:1"/>
<polygon points="13.398057208628035,21.93318387333387 12.169319861052859,20.819195371140673 12.225608762612843,20.700573472826147" style="fill:none;stroke:black;stroke-width:1"/>
<polygon points="12.326645724313764,21.845717265556566 13.398057208628035,21.93318387333387 12.40306241459802,21.913373179542248" style="fill:none;stroke:black;stroke-width:1"/>
<polygon points="12.5737047961994,22.00642894659797 13.398057208628035,21.93318387333387 12.666804636565544,22.036667029511694" style="fill:none;stroke:black;stroke-width:1"/>
<polygon points="12.103066228700069,21.07917248518426 13.398057208628035,21.93318387333387 12.093712783025454,21.20914405057686" style="fill:none;stroke:black;stroke-width:1"/>
<polygon points="13.391091415828152,20.2710613864764 13.398057208628035,21.93318387333387 13.29808376260348,20.240967782590726" style="fill:none;stroke:black;stroke-width:1"/>
<polygon points="13.638146184863842,20.43169452312647 13.398057208628035,21.93318387333387 13.561729494579586,20.364038609140785" style="fill:none;stroke:black;stroke-width:1"/>
<polygon points="13.398057208628035,21.93318387333387 12.67149297675118,20.291665111560583 12.777922031239104,20.252671521322164" style="fill:none;stroke:black;stroke-width:1"/>
<polygon points="12.884994817615933,20.226335294266764 13.398057208628035,21.93318387333387 12.777922031239104,20.252671521322164" style="fill:none;stroke:black;stroke-width:1"/>
<polygon points="13.398057208628035,21.93318387333387 12.153856996109866,21.56835117345714 12.119829521693502,21.45555532937597" style="fill:none;stroke:black;stroke-width:1"/>
<polygon points="12.099502790206628,21.33522743813081 13.398057208628035,21.93318387333387 12.119829521693502,21.45555532937597" style="fill:none;stroke:black;stroke-width:1"/>
<polygon points="12.169319861052859,20.819195371140673 13.398057208628035,21.93318387333387 12.12793103448276,20.947241379310345" style="fill:none;stroke:black;stroke-width:1"/>
<polygon points="13.398057208628035,21.93318387333387 12.103066228700069,21.07917248518426 12.12793103448276,20.947241379310345" style="fill:none;stroke:black;stroke-width:1"/>
<polygon points="12.973459369174263,22.065456198579113 13.398057208628035,21.93318387333387 13.080399904063778,22.05163848972793" style="fill:none;stroke:black;stroke-width:1"/>
<polygon points="13.398057208628035,21.93318387333387 13.187633664554486,22.02532726959062 13.080399904063778,22.05163848972793" style="fill:none;stroke:black;stroke-width:1"/>
<polygon points="12.991788135786054,20.212468684075507 13.398057208628035,21.93318387333387 12.884994817615933,20.226335294266764" style="fill:none;stroke:black;stroke-width:1"/>
<polygon points="12.868017714073005,22.067134253407925 13.398057208628035,21.93318387333387 12.973459369174263,22.065456198579113" style="fill:none;stroke:black;stroke-width:1"/>
<polygon points="13.398057208628035,21.93318387333387 13.294108823534636,21.98646632517773 13.187633664554486,22.02532726959062" style="fill:none;stroke:black;stroke-width:1"/>
<polygon points="13.398057208628035,21.93318387333387 12.868017714073005,22.067134253407925 12.765356786548821,22.05726101127185" style="fill:none;stroke:black;stroke-width:1"/>
</svg>
