<?xml version="1.0" encoding="UTF-8" standalone="no"?>
<svg xmlns="http://www.w3.org/2000/svg" version="1.1" width="800" height="800">
<polygon points="19.16430832513907,8.361954254740198 19.09671083811546,6.117474346335566 19.61043540846328,8.334390426395746" style="fill:none;stroke:black;stroke-width:1"/>
<polygon points="17.430777543514896,4.911251577134459 17.13853130752074,5.016771653581197 17.189323407588557,4.969024634390761" style="fill:none;stroke:black;stroke-width:1"/>
<polygon points="18.618042989084877,5.520050954293599 20.302248498095718,5.43157494834403 20.56680964555676,5.761817115812492" style="fill:none;stroke:black;stroke-width:1"/>
<polygon points="17.996839373064617,5.040134296974945 7.679152786151009,9.516210663500354 19.637974404572525,4.98321275274144" style="fill:none;stroke:black;stroke-width:1"/>
<polygon points="17.948891025341183,6.45788985773162 18.13551724137931,6.842413793103449 18.54867085804283,5.052575895509927" style="fill:none;stroke:black;stroke-width:1"/>
<polygon points="17.13853130752074,5.016771653581197 18.13551724137931,6.842413793103449 17.189323407588557,4.969024634390761" style="fill:none;stroke:black;stroke-width:1"/>
<polygon points="18.13551724137931,6.842413793103449 17.948891025341183,6.45788985773162 17.189323407588557,4.969024634390761" style="fill:none;stroke:black;stroke-width:1"/>
<polygon points="18.659004140931398,4.91334424543509 17.95848883080227,6.343523110990104 18.54867085804283,5.052575895509927" style="fill:none;stroke:black;stroke-width:1"/>
<polygon points="17.95848883080227,6.343523110990104 17.948891025341183,6.45788985773162 18.54867085804283,5.052575895509927" style="fill:none;stroke:black;stroke-width:1"/>
<polygon points="18.959780343771612,4.88843940563329 17.95848883080227,6.343523110990104 18.659004140931398,4.91334424543509" style="fill:none;stroke:black;stroke-width:1"/>
<polygon points="19.98614593553718,8.132675400472579 19.43356704044188,6.151665879543561 20.23574223215094,7.713829211046638" style="fill:none;stroke:black;stroke-width:1"/>
<polygon points="19.43356704044188,6.151665879543561 19.98614593553718,8.132675400472579 19.61043540846328,8.334390426395746" style="fill:none;stroke:black;stroke-width:1"/>
<polygon points="19.09671083811546,6.117474346335566 19.43356704044188,6.151665879543561 19.61043540846328,8.334390426395746" style="fill:none;stroke:black;stroke-width:1"/>
<polygon points="18.491620947258458,5.044669801399996 20.326160020876635,7.373535807741202 20.23574223215094,7.713829211046638" style="fill:none;stroke:black;stroke-width:1"/>
<polygon points="19.43356704044188,6.151665879543561 18.491620947258458,5.044669801399996 20.23574223215094,7.713829211046638" style="fill:none;stroke:black;stroke-width:1"/>
<polygon points="17.47653861039384,5.125351085307078 17.430777543514896,4.911251577134459 17.189323407588557,4.969024634390761" style="fill:none;stroke:black;stroke-width:1"/>
<polygon points="17.430777543514896,4.911251577134459 17.47653861039384,5.125351085307078 17.7952640793721,4.780453953176327" style="fill:none;stroke:black;stroke-width:1"/>
<polygon points="18.618042989084877,5.520050954293599 18.298334649608634,5.275385024917479 20.302248498095718,5.43157494834403" style="fill:none;stroke:black;stroke-width:1"/>
<polygon points="19.637974404572525,4.98321275274144 17.647932408965843,4.848197044817373 19.27771083088059,4.8925438574960625" style="fill:none;stroke:black;stroke-width:1"/>
<polygon points="17.343707188558376,4.8769083674528995 17.95848883080227,6.343523110990104 18.959780343771612,4.88843940563329" style="fill:none;stroke:black;stroke-width:1"/>
<polygon points="17.95848883080227,6.343523110990104 17.343707188558376,4.8769083674528995 17.948891025341183,6.45788985773162" style="fill:none;stroke:black;stroke-width:1"/>
<polygon points="17.343707188558376,4.8769083674528995 18.959780343771612,4.88843940563329 19.27771083088059,4.8925438574960625" style="fill:none;stroke:black;stroke-width:1"/>
<polygon points="20.589022001630273,6.184781095176005 18.618042989084877,5.520050954293599 20.56680964555676,5.761817115812492" style="fill:none;stroke:black;stroke-width:1"/>
<polygon points="20.326160020876635,7.373535807741202 20.589022001630273,6.184781095176005 20.23574223215094,7.713829211046638" style="fill:none;stroke:black;stroke-width:1"/>
<polygon points="20.589022001630273,6.184781095176005 20.326160020876635,7.373535807741202 20.415538799318497,6.968416790085524" style="fill:none;stroke:black;stroke-width:1"/>
<polygon points="18.245074401254847,7.2415573832482245 18.13551724137931,6.842413793103449 17.13853130752074,5.016771653581197" style="fill:none;stroke:black;stroke-width:1"/>
<polygon points="18.13551724137931,6.842413793103449 18.245074401254847,7.2415573832482245 18.54867085804283,5.052575895509927" style="fill:none;stroke:black;stroke-width:1"/>
<polygon points="18.19064173551976,4.670883886103351 18.679014871133198,4.673079815552902 17.7952640793721,4.780453953176327" style="fill:none;stroke:black;stroke-width:1"/>
<polygon points="18.491620947258458,5.044669801399996 18.647988068722135,4.799150296671765 20.326160020876635,7.373535807741202" style="fill:none;stroke:black;stroke-width:1"/>
<polygon points="20.326160020876635,7.373535807741202 18.647988068722135,4.799150296671765 20.415538799318497,6.968416790085524" style="fill:none;stroke:black;stroke-width:1"/>
<polygon points="18.647988068722135,4.799150296671765 18.19064173551976,4.670883886103351 20.415538799318497,6.968416790085524" style="fill:none;stroke:black;stroke-width:1"/>
<polygon points="18.19064173551976,4.670883886103351 18.647988068722135,4.799150296671765 18.679014871133198,4.673079815552902" style="fill:none;stroke:black;stroke-width:1"/>
<polygon points="24.774980609431246,19.880632369504312 19.43356704044188,6.151665879543561 19.09671083811546,6.117474346335566" style="fill:none;stroke:black;stroke-width:1"/>
<polygon points="19.43356704044188,6.151665879543561 24.774980609431246,19.880632369504312 24.806044358686098,19.72019931018865" style="fill:none;stroke:black;stroke-width:1"/>
<polygon points="24.37991728529523,21.42015157148292 24.463883555223642,21.279623372922305 19.09671083811546,6.117474346335566" style="fill:none;stroke:black;stroke-width:1"/>
<polygon points="18.127441428225957,6.367516313636266 17.47653861039384,5.125351085307078 17.189323407588557,4.969024634390761" style="fill:none;stroke:black;stroke-width:1"/>
<polygon points="17.948891025341183,6.45788985773162 18.127441428225957,6.367516313636266 17.189323407588557,4.969024634390761" style="fill:none;stroke:black;stroke-width:1"/>
<polygon points="17.343707188558376,4.8769083674528995 18.127441428225957,6.367516313636266 17.948891025341183,6.45788985773162" style="fill:none;stroke:black;stroke-width:1"/>
<polygon points="17.47653861039384,5.125351085307078 17.79945712999193,5.277469197310363 17.7952640793721,4.780453953176327" style="fill:none;stroke:black;stroke-width:1"/>
<polygon points="17.79945712999193,5.277469197310363 18.19064173551976,4.670883886103351 17.7952640793721,4.780453953176327" style="fill:none;stroke:black;stroke-width:1"/>
<polygon points="18.19064173551976,4.670883886103351 17.79945712999193,5.277469197310363 18.37514659852322,4.357184428849814" style="fill:none;stroke:black;stroke-width:1"/>
<polygon points="18.298334649608634,5.275385024917479 19.959938606249512,5.249818164508916 20.302248498095718,5.43157494834403" style="fill:none;stroke:black;stroke-width:1"/>
<polygon points="19.959938606249512,5.249818164508916 18.298334649608634,5.275385024917479 17.996839373064617,5.040134296974945" style="fill:none;stroke:black;stroke-width:1"/>
<polygon points="20.302248498095718,5.43157494834403 19.959938606249512,5.249818164508916 19.637974404572525,4.98321275274144" style="fill:none;stroke:black;stroke-width:1"/>
<polygon points="19.959938606249512,5.249818164508916 17.996839373064617,5.040134296974945 19.637974404572525,4.98321275274144" style="fill:none;stroke:black;stroke-width:1"/>
<polygon points="18.669471411996632,5.9078868587442965 18.298334649608634,5.275385024917479 18.618042989084877,5.520050954293599" style="fill:none;stroke:black;stroke-width:1"/>
<polygon points="20.589022001630273,6.184781095176005 18.669471411996632,5.9078868587442965 18.618042989084877,5.520050954293599" style="fill:none;stroke:black;stroke-width:1"/>
<polygon points="20.442572772504082,6.538282499877697 20.589022001630273,6.184781095176005 20.415538799318497,6.968416790085524" style="fill:none;stroke:black;stroke-width:1"/>
<polygon points="18.19064173551976,4.670883886103351 20.442572772504082,6.538282499877697 20.415538799318497,6.968416790085524" style="fill:none;stroke:black;stroke-width:1"/>
<polygon points="20.442572772504082,6.538282499877697 18.19064173551976,4.670883886103351 18.37514659852322,4.357184428849814" style="fill:none;stroke:black;stroke-width:1"/>
<polygon points="18.669471411996632,5.9078868587442965 20.442572772504082,6.538282499877697 18.37514659852322,4.357184428849814" style="fill:none;stroke:black;stroke-width:1"/>
<polygon points="20.442572772504082,6.538282499877697 18.669471411996632,5.9078868587442965 20.589022001630273,6.184781095176005" style="fill:none;stroke:black;stroke-width:1"/>
<polygon points="10.335581548909348,20.289884931609315 18.547272701765948,4.733625195553475 17.7952640793721,4.780453953176327" style="fill:none;stroke:black;stroke-width:1"/>
<polygon points="12.269104407814297,25.432475853346606 18.547272701765948,4.733625195553475 12.129926612024676,25.474439217701132" style="fill:none;stroke:black;stroke-width:1"/>
<polygon points="18.547272701765948,4.733625195553475 17.430777543514896,4.911251577134459 17.7952640793721,4.780453953176327" style="fill:none;stroke:black;stroke-width:1"/>
<polygon points="24.774980609431246,19.880632369504312 24.188965517241378,18.569310344827585 24.806044358686098,19.72019931018865" style="fill:none;stroke:black;stroke-width:1"/>
<polygon points="24.64053915188129,18.772884607490756 24.391347668163245,27.45513515170746 18.491620947258458,5.044669801399996" style="fill:none;stroke:black;stroke-width:1"/>
<polygon points="24.858764706977386,19.215907385173473 18.491620947258458,5.044669801399996 19.43356704044188,6.151665879543561" style="fill:none;stroke:black;stroke-width:1"/>
<polygon points="24.858764706977386,19.215907385173473 24.81950615815629,19.051601618649677 18.491620947258458,5.044669801399996" style="fill:none;stroke:black;stroke-width:1"/>
<polygon points="24.860227858374497,19.388363483057503 24.858764706977386,19.215907385173473 19.43356704044188,6.151665879543561" style="fill:none;stroke:black;stroke-width:1"/>
<polygon points="18.785433954713135,8.194714939231035 18.738575491035483,5.915264825722239 19.16430832513907,8.361954254740198" style="fill:none;stroke:black;stroke-width:1"/>
<polygon points="18.738575491035483,5.915264825722239 19.09671083811546,6.117474346335566 19.16430832513907,8.361954254740198" style="fill:none;stroke:black;stroke-width:1"/>
<polygon points="18.127441428225957,6.367516313636266 18.313935719676703,6.235883820480537 17.47653861039384,5.125351085307078" style="fill:none;stroke:black;stroke-width:1"/>
<polygon points="18.313935719676703,6.235883820480537 17.79945712999193,5.277469197310363 17.47653861039384,5.125351085307078" style="fill:none;stroke:black;stroke-width:1"/>
<polygon points="7.756297787879358,9.373632647227184 7.679152786151009,9.516210663500354 17.996839373064617,5.040134296974945" style="fill:none;stroke:black;stroke-width:1"/>
<polygon points="7.83260981726238,9.232203360196547 7.756297787879358,9.373632647227184 17.996839373064617,5.040134296974945" style="fill:none;stroke:black;stroke-width:1"/>
<polygon points="7.982551980108872,8.952569181276704 7.908043129579181,9.091867354261899 17.996839373064617,5.040134296974945" style="fill:none;stroke:black;stroke-width:1"/>
<polygon points="7.908043129579181,9.091867354261899 7.83260981726238,9.232203360196547 17.996839373064617,5.040134296974945" style="fill:none;stroke:black;stroke-width:1"/>
<polygon points="18.647988068722135,4.799150296671765 12.012211586775104,4.6584764564057615 18.679014871133198,4.673079815552902" style="fill:none;stroke:black;stroke-width:1"/>
<polygon points="7.666098457214845,7.422857638577926 12.012211586775104,4.6584764564057615 18.647988068722135,4.799150296671765" style="fill:none;stroke:black;stroke-width:1"/>
<polygon points="18.738575491035483,5.915264825722239 23.818751374857356,21.73940763581947 19.09671083811546,6.117474346335566" style="fill:none;stroke:black;stroke-width:1"/>
<polygon points="18.424729270057764,5.143618231354788 18.515365310137504,5.500190688357936 18.554124728621293,7.885711797397845" style="fill:none;stroke:black;stroke-width:1"/>
<polygon points="18.515365310137504,5.500190688357936 18.785433954713135,8.194714939231035 18.554124728621293,7.885711797397845" style="fill:none;stroke:black;stroke-width:1"/>
<polygon points="18.39987088928276,4.826115084935975 18.245074401254847,7.2415573832482245 17.13853130752074,5.016771653581197" style="fill:none;stroke:black;stroke-width:1"/>
<polygon points="17.430777543514896,4.911251577134459 18.39987088928276,4.826115084935975 17.13853130752074,5.016771653581197" style="fill:none;stroke:black;stroke-width:1"/>
<polygon points="24.81950615815629,19.051601618649677 24.745487241476432,18.902076938331373 18.491620947258458,5.044669801399996" style="fill:none;stroke:black;stroke-width:1"/>
<polygon points="24.745487241476432,18.902076938331373 24.64053915188129,18.772884607490756 18.491620947258458,5.044669801399996" style="fill:none;stroke:black;stroke-width:1"/>
<polygon points="24.745487241476432,18.902076938331373 24.860227858374497,19.388363483057503 24.64053915188129,18.772884607490756" style="fill:none;stroke:black;stroke-width:1"/>
<polygon points="24.858764706977386,19.215907385173473 24.745487241476432,18.902076938331373 24.81950615815629,19.051601618649677" style="fill:none;stroke:black;stroke-width:1"/>
<polygon points="24.745487241476432,18.902076938331373 24.858764706977386,19.215907385173473 24.860227858374497,19.388363483057503" style="fill:none;stroke:black;stroke-width:1"/>
<polygon points="24.64053915188129,18.772884607490756 24.50855196588541,18.669182776728857 24.391347668163245,27.45513515170746" style="fill:none;stroke:black;stroke-width:1"/>
<polygon points="24.50855196588541,18.669182776728857 24.188965517241378,18.569310344827585 24.353415760003355,18.596129596646712" style="fill:none;stroke:black;stroke-width:1"/>
<polygon points="24.188965517241378,18.569310344827585 24.50855196588541,18.669182776728857 24.806044358686098,19.72019931018865" style="fill:none;stroke:black;stroke-width:1"/>
<polygon points="24.834846829260528,19.556152901438896 19.43356704044188,6.151665879543561 24.806044358686098,19.72019931018865" style="fill:none;stroke:black;stroke-width:1"/>
<polygon points="24.834846829260528,19.556152901438896 24.860227858374497,19.388363483057503 19.43356704044188,6.151665879543561" style="fill:none;stroke:black;stroke-width:1"/>
<polygon points="24.860227858374497,19.388363483057503 24.834846829260528,19.556152901438896 24.64053915188129,18.772884607490756" style="fill:none;stroke:black;stroke-width:1"/>
<polygon points="24.50855196588541,18.669182776728857 24.834846829260528,19.556152901438896 24.806044358686098,19.72019931018865" style="fill:none;stroke:black;stroke-width:1"/>
<polygon points="24.834846829260528,19.556152901438896 24.50855196588541,18.669182776728857 24.64053915188129,18.772884607490756" style="fill:none;stroke:black;stroke-width:1"/>
<polygon points="18.669471411996632,5.9078868587442965 9.487436218560733,8.744339069956503 18.298334649608634,5.275385024917479" style="fill:none;stroke:black;stroke-width:1"/>
<polygon points="9.168492300044507,9.994426861851007 9.487436218560733,8.744339069956503 9.544987693944694,8.914067130362646" style="fill:none;stroke:black;stroke-width:1"/>
<polygon points="18.50043001112745,6.104251327324808 18.669471411996632,5.9078868587442965 18.37514659852322,4.357184428849814" style="fill:none;stroke:black;stroke-width:1"/>
<polygon points="17.79945712999193,5.277469197310363 18.50043001112745,6.104251327324808 18.37514659852322,4.357184428849814" style="fill:none;stroke:black;stroke-width:1"/>
<polygon points="18.50043001112745,6.104251327324808 9.487436218560733,8.744339069956503 18.669471411996632,5.9078868587442965" style="fill:none;stroke:black;stroke-width:1"/>
<polygon points="9.487436218560733,8.744339069956503 18.50043001112745,6.104251327324808 9.544987693944694,8.914067130362646" style="fill:none;stroke:black;stroke-width:1"/>
<polygon points="18.313935719676703,6.235883820480537 18.50043001112745,6.104251327324808 17.79945712999193,5.277469197310363" style="fill:none;stroke:black;stroke-width:1"/>
<polygon points="8.365058904201629,11.27327548848607 7.756297787879358,9.373632647227184 7.83260981726238,9.232203360196547" style="fill:none;stroke:black;stroke-width:1"/>
<polygon points="8.056090624130555,8.814253393094427 7.982551980108872,8.952569181276704 17.996839373064617,5.040134296974945" style="fill:none;stroke:black;stroke-width:1"/>
<polygon points="18.298334649608634,5.275385024917479 8.460444390551757,8.343030789476094 17.996839373064617,5.040134296974945" style="fill:none;stroke:black;stroke-width:1"/>
<polygon points="8.614432340884315,8.292320389952607 8.460444390551757,8.343030789476094 18.298334649608634,5.275385024917479" style="fill:none;stroke:black;stroke-width:1"/>
<polygon points="16.85722641185794,9.231061933914035 11.893372666418333,10.728104027137016 18.647988068722135,4.799150296671765" style="fill:none;stroke:black;stroke-width:1"/>
<polygon points="18.547272701765948,4.733625195553475 11.989757758414436,25.517333247296104 12.129926612024676,25.474439217701132" style="fill:none;stroke:black;stroke-width:1"/>
<polygon points="23.081019567156574,21.401467472380922 18.738575491035483,5.915264825722239 18.785433954713135,8.194714939231035" style="fill:none;stroke:black;stroke-width:1"/>
<polygon points="18.515365310137504,5.500190688357936 23.081019567156574,21.401467472380922 18.785433954713135,8.194714939231035" style="fill:none;stroke:black;stroke-width:1"/>
<polygon points="18.39987088928276,4.826115084935975 18.410676938779584,7.594611742227478 18.245074401254847,7.2415573832482245" style="fill:none;stroke:black;stroke-width:1"/>
<polygon points="18.410676938779584,7.594611742227478 18.39987088928276,4.826115084935975 18.424729270057764,5.143618231354788" style="fill:none;stroke:black;stroke-width:1"/>
<polygon points="18.410676938779584,7.594611742227478 18.424729270057764,5.143618231354788 18.554124728621293,7.885711797397845" style="fill:none;stroke:black;stroke-width:1"/>
<polygon points="18.410676938779584,7.594611742227478 18.554124728621293,7.885711797397845 18.54867085804283,5.052575895509927" style="fill:none;stroke:black;stroke-width:1"/>
<polygon points="18.245074401254847,7.2415573832482245 18.410676938779584,7.594611742227478 18.54867085804283,5.052575895509927" style="fill:none;stroke:black;stroke-width:1"/>
<polygon points="24.463883555223642,21.279623372922305 24.51704599907625,21.121507293326214 19.09671083811546,6.117474346335566" style="fill:none;stroke:black;stroke-width:1"/>
<polygon points="24.51704599907625,21.121507293326214 24.549267704396776,20.966554630151375 19.09671083811546,6.117474346335566" style="fill:none;stroke:black;stroke-width:1"/>
<polygon points="24.51704599907625,21.121507293326214 24.463883555223642,21.279623372922305 23.278538652744174,19.336625423929977" style="fill:none;stroke:black;stroke-width:1"/>
<polygon points="24.6137047087794,20.656666061982758 24.645923210970718,20.501721777898453 19.09671083811546,6.117474346335566" style="fill:none;stroke:black;stroke-width:1"/>
<polygon points="24.6137047087794,20.656666061982758 23.56016112924508,18.769125438923567 24.645923210970718,20.501721777898453" style="fill:none;stroke:black;stroke-width:1"/>
<polygon points="24.742578717544653,20.03688892564553 24.774980609431246,19.880632369504312 19.09671083811546,6.117474346335566" style="fill:none;stroke:black;stroke-width:1"/>
<polygon points="24.71036021535334,20.191833209729836 24.742578717544653,20.03688892564553 19.09671083811546,6.117474346335566" style="fill:none;stroke:black;stroke-width:1"/>
<polygon points="24.742578717544653,20.03688892564553 24.188965517241378,18.569310344827585 24.774980609431246,19.880632369504312" style="fill:none;stroke:black;stroke-width:1"/>
<polygon points="24.645923210970718,20.501721777898453 24.678141713162027,20.346777493814148 19.09671083811546,6.117474346335566" style="fill:none;stroke:black;stroke-width:1"/>
<polygon points="24.678141713162027,20.346777493814148 24.71036021535334,20.191833209729836 19.09671083811546,6.117474346335566" style="fill:none;stroke:black;stroke-width:1"/>
<polygon points="24.188965517241378,18.569310344827585 5.388435367922085,24.871907885150286 24.353415760003355,18.596129596646712" style="fill:none;stroke:black;stroke-width:1"/>
<polygon points="24.463883555223642,21.279623372922305 23.246320150552858,19.491569708014286 23.278538652744174,19.336625423929977" style="fill:none;stroke:black;stroke-width:1"/>
<polygon points="24.37991728529523,21.42015157148292 23.246320150552858,19.491569708014286 24.463883555223642,21.279623372922305" style="fill:none;stroke:black;stroke-width:1"/>
<polygon points="24.136120753217767,21.635048741587482 23.149664643978916,19.956402560267207 23.18188314617023,19.801458276182895" style="fill:none;stroke:black;stroke-width:1"/>
<polygon points="11.332459183484922,24.32587719572705 18.515365310137504,5.500190688357936 18.424729270057764,5.143618231354788" style="fill:none;stroke:black;stroke-width:1"/>
<polygon points="11.47163697927454,24.283913831372516 11.332459183484922,24.32587719572705 18.424729270057764,5.143618231354788" style="fill:none;stroke:black;stroke-width:1"/>
<polygon points="26.44055727530315,17.393587450837725 27.846075910877328,19.871562663401615 18.547272701765948,4.733625195553475" style="fill:none;stroke:black;stroke-width:1"/>
<polygon points="18.647988068722135,4.799150296671765 28.141268355354356,15.181905439868792 23.94068761601898,15.976711486687048" style="fill:none;stroke:black;stroke-width:1"/>
<polygon points="28.141268355354356,15.181905439868792 18.647988068722135,4.799150296671765 18.491620947258458,5.044669801399996" style="fill:none;stroke:black;stroke-width:1"/>
<polygon points="9.301141665646183,9.726826658653453 9.529172412359056,9.26895209415686 9.377341055661855,9.585100040821118" style="fill:none;stroke:black;stroke-width:1"/>
<polygon points="18.313935719676703,6.235883820480537 9.301141665646183,9.726826658653453 9.377341055661855,9.585100040821118" style="fill:none;stroke:black;stroke-width:1"/>
<polygon points="18.50043001112745,6.104251327324808 9.559253226322955,9.091671283550493 9.544987693944694,8.914067130362646" style="fill:none;stroke:black;stroke-width:1"/>
<polygon points="9.559253226322955,9.091671283550493 18.50043001112745,6.104251327324808 9.529172412359056,9.26895209415686" style="fill:none;stroke:black;stroke-width:1"/>
<polygon points="9.301141665646183,9.726826658653453 9.559253226322955,9.091671283550493 9.529172412359056,9.26895209415686" style="fill:none;stroke:black;stroke-width:1"/>
<polygon points="9.559253226322955,9.091671283550493 9.168492300044507,9.994426861851007 9.544987693944694,8.914067130362646" style="fill:none;stroke:black;stroke-width:1"/>
<polygon points="9.457342436480397,9.435317473609107 18.50043001112745,6.104251327324808 18.313935719676703,6.235883820480537" style="fill:none;stroke:black;stroke-width:1"/>
<polygon points="18.50043001112745,6.104251327324808 9.457342436480397,9.435317473609107 9.529172412359056,9.26895209415686" style="fill:none;stroke:black;stroke-width:1"/>
<polygon points="9.457342436480397,9.435317473609107 18.313935719676703,6.235883820480537 9.377341055661855,9.585100040821118" style="fill:none;stroke:black;stroke-width:1"/>
<polygon points="9.529172412359056,9.26895209415686 9.457342436480397,9.435317473609107 9.377341055661855,9.585100040821118" style="fill:none;stroke:black;stroke-width:1"/>
<polygon points="7.908043129579181,9.091867354261899 8.508759940220225,11.184427070834756 7.83260981726238,9.232203360196547" style="fill:none;stroke:black;stroke-width:1"/>
<polygon points="8.508759940220225,11.184427070834756 8.365058904201629,11.27327548848607 7.83260981726238,9.232203360196547" style="fill:none;stroke:black;stroke-width:1"/>
<polygon points="8.508759940220225,11.184427070834756 7.908043129579181,9.091867354261899 7.982551980108872,8.952569181276704" style="fill:none;stroke:black;stroke-width:1"/>
<polygon points="7.756297787879358,9.373632647227184 8.200838833465767,11.331604766108912 7.679152786151009,9.516210663500354" style="fill:none;stroke:black;stroke-width:1"/>
<polygon points="8.365058904201629,11.27327548848607 8.200838833465767,11.331604766108912 7.756297787879358,9.373632647227184" style="fill:none;stroke:black;stroke-width:1"/>
<polygon points="8.200838833465767,11.331604766108912 8.365058904201629,11.27327548848607 8.023240237747984,11.357051402417738" style="fill:none;stroke:black;stroke-width:1"/>
<polygon points="8.211215675232687,8.539889110703836 8.128613316923335,8.676864541568523 17.996839373064617,5.040134296974945" style="fill:none;stroke:black;stroke-width:1"/>
<polygon points="8.128613316923335,8.676864541568523 8.056090624130555,8.814253393094427 17.996839373064617,5.040134296974945" style="fill:none;stroke:black;stroke-width:1"/>
<polygon points="8.323850763522778,8.426404343106247 8.211215675232687,8.539889110703836 17.996839373064617,5.040134296974945" style="fill:none;stroke:black;stroke-width:1"/>
<polygon points="8.460444390551757,8.343030789476094 8.323850763522778,8.426404343106247 17.996839373064617,5.040134296974945" style="fill:none;stroke:black;stroke-width:1"/>
<polygon points="7.522546844541916,9.805034676360433 17.647932408965843,4.848197044817373 19.637974404572525,4.98321275274144" style="fill:none;stroke:black;stroke-width:1"/>
<polygon points="7.522546844541916,9.805034676360433 7.443177394102957,9.95139156924042 17.647932408965843,4.848197044817373" style="fill:none;stroke:black;stroke-width:1"/>
<polygon points="7.195126719003056,10.771111961065095 17.343707188558376,4.8769083674528995 19.27771083088059,4.8925438574960625" style="fill:none;stroke:black;stroke-width:1"/>
<polygon points="7.489195682905804,11.21432040586028 18.127441428225957,6.367516313636266 17.343707188558376,4.8769083674528995" style="fill:none;stroke:black;stroke-width:1"/>
<polygon points="7.352513108959592,11.09131706579036 7.489195682905804,11.21432040586028 17.343707188558376,4.8769083674528995" style="fill:none;stroke:black;stroke-width:1"/>
<polygon points="21.461764890039166,11.484464721279274 18.647988068722135,4.799150296671765 23.94068761601898,15.976711486687048" style="fill:none;stroke:black;stroke-width:1"/>
<polygon points="21.461764890039166,11.484464721279274 16.85722641185794,9.231061933914035 18.647988068722135,4.799150296671765" style="fill:none;stroke:black;stroke-width:1"/>
<polygon points="4.820540963808175,11.713230487117407 7.666098457214845,7.422857638577926 18.647988068722135,4.799150296671765" style="fill:none;stroke:black;stroke-width:1"/>
<polygon points="4.954427862014116,15.501987538756774 4.820540963808175,11.713230487117407 18.647988068722135,4.799150296671765" style="fill:none;stroke:black;stroke-width:1"/>
<polygon points="11.893372666418333,10.728104027137016 9.293322037613011,15.11183660984975 18.647988068722135,4.799150296671765" style="fill:none;stroke:black;stroke-width:1"/>
<polygon points="9.293322037613011,15.11183660984975 4.954427862014116,15.501987538756774 18.647988068722135,4.799150296671765" style="fill:none;stroke:black;stroke-width:1"/>
<polygon points="18.679014871133198,4.673079815552902 9.243178491525887,26.389836502310185 17.7952640793721,4.780453953176327" style="fill:none;stroke:black;stroke-width:1"/>
<polygon points="11.706028909608287,25.60537449548047 11.848489018486555,25.561026391076805 18.547272701765948,4.733625195553475" style="fill:none;stroke:black;stroke-width:1"/>
<polygon points="11.848489018486555,25.561026391076805 11.989757758414436,25.517333247296104 18.547272701765948,4.733625195553475" style="fill:none;stroke:black;stroke-width:1"/>
<polygon points="11.562304737746913,25.650223077824023 11.706028909608287,25.60537449548047 18.547272701765948,4.733625195553475" style="fill:none;stroke:black;stroke-width:1"/>
<polygon points="24.549267704396776,20.966554630151375 24.58148620658809,20.811610346067063 19.09671083811546,6.117474346335566" style="fill:none;stroke:black;stroke-width:1"/>
<polygon points="24.58148620658809,20.811610346067063 24.6137047087794,20.656666061982758 19.09671083811546,6.117474346335566" style="fill:none;stroke:black;stroke-width:1"/>
<polygon points="23.363686373361617,19.02588032393944 24.58148620658809,20.811610346067063 24.549267704396776,20.966554630151375" style="fill:none;stroke:black;stroke-width:1"/>
<polygon points="23.56016112924508,18.769125438923567 23.69468081693614,18.67485949324211 24.645923210970718,20.501721777898453" style="fill:none;stroke:black;stroke-width:1"/>
<polygon points="23.69468081693614,18.67485949324211 24.678141713162027,20.346777493814148 24.645923210970718,20.501721777898453" style="fill:none;stroke:black;stroke-width:1"/>
<polygon points="2.491003539615729,14.977590229723482 23.69468081693614,18.67485949324211 3.9563551371343557,9.945467877849639" style="fill:none;stroke:black;stroke-width:1"/>
<polygon points="23.69468081693614,18.67485949324211 23.56016112924508,18.769125438923567 3.9563551371343557,9.945467877849639" style="fill:none;stroke:black;stroke-width:1"/>
<polygon points="23.310798572130075,19.1815688130532 24.51704599907625,21.121507293326214 23.278538652744174,19.336625423929977" style="fill:none;stroke:black;stroke-width:1"/>
<polygon points="24.51704599907625,21.121507293326214 23.310798572130075,19.1815688130532 24.549267704396776,20.966554630151375" style="fill:none;stroke:black;stroke-width:1"/>
<polygon points="23.310798572130075,19.1815688130532 23.363686373361617,19.02588032393944 24.549267704396776,20.966554630151375" style="fill:none;stroke:black;stroke-width:1"/>
<polygon points="2.9886250621774755,20.288143567711558 5.388435367922085,24.871907885150286 24.188965517241378,18.569310344827585" style="fill:none;stroke:black;stroke-width:1"/>
<polygon points="14.211142154414233,29.958691210024696 24.50855196588541,18.669182776728857 24.353415760003355,18.596129596646712" style="fill:none;stroke:black;stroke-width:1"/>
<polygon points="11.530210312208562,3.351510516104743 23.310798572130075,19.1815688130532 10.575831031489496,25.57422655879647" style="fill:none;stroke:black;stroke-width:1"/>
<polygon points="23.117446141787607,20.111346844351512 23.818751374857356,21.73940763581947 23.08522763959629,20.266291128435817" style="fill:none;stroke:black;stroke-width:1"/>
<polygon points="23.214101648361545,19.64651399209859 23.246320150552858,19.491569708014286 24.37991728529523,21.42015157148292" style="fill:none;stroke:black;stroke-width:1"/>
<polygon points="24.136120753217767,21.635048741587482 23.98456423407209,21.702719921176328 23.149664643978916,19.956402560267207" style="fill:none;stroke:black;stroke-width:1"/>
<polygon points="23.117446141787607,20.111346844351512 23.98456423407209,21.702719921176328 23.818751374857356,21.73940763581947" style="fill:none;stroke:black;stroke-width:1"/>
<polygon points="23.98456423407209,21.702719921176328 23.117446141787607,20.111346844351512 23.149664643978916,19.956402560267207" style="fill:none;stroke:black;stroke-width:1"/>
<polygon points="23.818751374857356,21.73940763581947 23.98456423407209,21.702719921176328 19.09671083811546,6.117474346335566" style="fill:none;stroke:black;stroke-width:1"/>
<polygon points="23.98456423407209,21.702719921176328 24.136120753217767,21.635048741587482 19.09671083811546,6.117474346335566" style="fill:none;stroke:black;stroke-width:1"/>
<polygon points="18.39987088928276,4.826115084935975 12.63279076169556,23.9955988840639 18.424729270057764,5.143618231354788" style="fill:none;stroke:black;stroke-width:1"/>
<polygon points="18.515365310137504,5.500190688357936 10.919561406663956,24.445098742495635 22.992959527880412,20.747027152642456" style="fill:none;stroke:black;stroke-width:1"/>
<polygon points="14.551792862886664,23.126848665747794 18.547272701765948,4.733625195553475 10.335581548909348,20.289884931609315" style="fill:none;stroke:black;stroke-width:1"/>
<polygon points="14.551792862886664,23.126848665747794 19.706958926460278,22.315550100865853 18.547272701765948,4.733625195553475" style="fill:none;stroke:black;stroke-width:1"/>
<polygon points="22.855702615634506,18.341994010237407 26.44055727530315,17.393587450837725 18.547272701765948,4.733625195553475" style="fill:none;stroke:black;stroke-width:1"/>
<polygon points="19.706958926460278,22.315550100865853 22.855702615634506,18.341994010237407 18.547272701765948,4.733625195553475" style="fill:none;stroke:black;stroke-width:1"/>
<polygon points="27.846075910877328,19.871562663401615 25.321168238036403,24.38690004375241 18.547272701765948,4.733625195553475" style="fill:none;stroke:black;stroke-width:1"/>
<polygon points="25.321168238036403,24.38690004375241 11.562304737746913,25.650223077824023 18.547272701765948,4.733625195553475" style="fill:none;stroke:black;stroke-width:1"/>
<polygon points="23.937199455352744,6.716084943680553 27.195900793363236,10.67553094605842 18.491620947258458,5.044669801399996" style="fill:none;stroke:black;stroke-width:1"/>
<polygon points="27.195900793363236,10.67553094605842 28.141268355354356,15.181905439868792 18.491620947258458,5.044669801399996" style="fill:none;stroke:black;stroke-width:1"/>
<polygon points="24.391347668163245,27.45513515170746 27.844743451226513,23.718009170979414 18.491620947258458,5.044669801399996" style="fill:none;stroke:black;stroke-width:1"/>
<polygon points="27.844743451226513,23.718009170979414 29.710679542167707,18.871300324863054 18.491620947258458,5.044669801399996" style="fill:none;stroke:black;stroke-width:1"/>
<polygon points="19.30097413295038,4.403874904239023 23.937199455352744,6.716084943680553 18.491620947258458,5.044669801399996" style="fill:none;stroke:black;stroke-width:1"/>
<polygon points="29.710679542167707,18.871300324863054 19.30097413295038,4.403874904239023 18.491620947258458,5.044669801399996" style="fill:none;stroke:black;stroke-width:1"/>
<polygon points="9.115120291749324,8.3616875135054 8.94833434971892,8.299096813782546 18.298334649608634,5.275385024917479" style="fill:none;stroke:black;stroke-width:1"/>
<polygon points="9.487436218560733,8.744339069956503 9.39401846031138,8.591455685510477 18.298334649608634,5.275385024917479" style="fill:none;stroke:black;stroke-width:1"/>
<polygon points="9.39401846031138,8.591455685510477 9.487436218560733,8.744339069956503 9.168492300044507,9.994426861851007" style="fill:none;stroke:black;stroke-width:1"/>
<polygon points="9.559253226322955,9.091671283550493 9.230852024601408,9.862569585027204 9.168492300044507,9.994426861851007" style="fill:none;stroke:black;stroke-width:1"/>
<polygon points="9.230852024601408,9.862569585027204 9.559253226322955,9.091671283550493 9.301141665646183,9.726826658653453" style="fill:none;stroke:black;stroke-width:1"/>
<polygon points="9.230852024601408,9.862569585027204 9.301141665646183,9.726826658653453 18.313935719676703,6.235883820480537" style="fill:none;stroke:black;stroke-width:1"/>
<polygon points="9.230852024601408,9.862569585027204 18.313935719676703,6.235883820480537 18.127441428225957,6.367516313636266" style="fill:none;stroke:black;stroke-width:1"/>
<polygon points="9.168492300044507,9.994426861851007 9.230852024601408,9.862569585027204 18.127441428225957,6.367516313636266" style="fill:none;stroke:black;stroke-width:1"/>
<polygon points="8.056090624130555,8.814253393094427 8.624801431786203,11.06742301444051 7.982551980108872,8.952569181276704" style="fill:none;stroke:black;stroke-width:1"/>
<polygon points="8.624801431786203,11.06742301444051 8.508759940220225,11.184427070834756 7.982551980108872,8.952569181276704" style="fill:none;stroke:black;stroke-width:1"/>
<polygon points="7.522546844541916,9.805034676360433 7.601220556798232,9.65999285716259 8.023240237747984,11.357051402417738" style="fill:none;stroke:black;stroke-width:1"/>
<polygon points="8.200838833465767,11.331604766108912 7.601220556798232,9.65999285716259 7.679152786151009,9.516210663500354" style="fill:none;stroke:black;stroke-width:1"/>
<polygon points="7.601220556798232,9.65999285716259 8.200838833465767,11.331604766108912 8.023240237747984,11.357051402417738" style="fill:none;stroke:black;stroke-width:1"/>
<polygon points="7.679152786151009,9.516210663500354 7.601220556798232,9.65999285716259 19.637974404572525,4.98321275274144" style="fill:none;stroke:black;stroke-width:1"/>
<polygon points="7.601220556798232,9.65999285716259 7.522546844541916,9.805034676360433 19.637974404572525,4.98321275274144" style="fill:none;stroke:black;stroke-width:1"/>
<polygon points="7.253101338022843,10.940844811466809 7.352513108959592,11.09131706579036 17.343707188558376,4.8769083674528995" style="fill:none;stroke:black;stroke-width:1"/>
<polygon points="7.195126719003056,10.771111961065095 7.253101338022843,10.940844811466809 17.343707188558376,4.8769083674528995" style="fill:none;stroke:black;stroke-width:1"/>
<polygon points="7.253101338022843,10.940844811466809 7.195126719003056,10.771111961065095 7.352513108959592,11.09131706579036" style="fill:none;stroke:black;stroke-width:1"/>
<polygon points="7.489195682905804,11.21432040586028 7.65896551724138,11.301724137931036 18.127441428225957,6.367516313636266" style="fill:none;stroke:black;stroke-width:1"/>
<polygon points="7.65896551724138,11.301724137931036 9.168492300044507,9.994426861851007 18.127441428225957,6.367516313636266" style="fill:none;stroke:black;stroke-width:1"/>
<polygon points="7.65896551724138,11.301724137931036 7.489195682905804,11.21432040586028 7.211341573509863,10.416137692400188" style="fill:none;stroke:black;stroke-width:1"/>
<polygon points="7.65896551724138,11.301724137931036 8.624801431786203,11.06742301444051 9.168492300044507,9.994426861851007" style="fill:none;stroke:black;stroke-width:1"/>
<polygon points="8.624801431786203,11.06742301444051 7.65896551724138,11.301724137931036 8.508759940220225,11.184427070834756" style="fill:none;stroke:black;stroke-width:1"/>
<polygon points="7.195126719003056,10.771111961065095 7.181127228156165,10.593197611490996 7.352513108959592,11.09131706579036" style="fill:none;stroke:black;stroke-width:1"/>
<polygon points="7.181127228156165,10.593197611490996 7.489195682905804,11.21432040586028 7.352513108959592,11.09131706579036" style="fill:none;stroke:black;stroke-width:1"/>
<polygon points="7.489195682905804,11.21432040586028 7.181127228156165,10.593197611490996 7.211341573509863,10.416137692400188" style="fill:none;stroke:black;stroke-width:1"/>
<polygon points="7.181127228156165,10.593197611490996 7.195126719003056,10.771111961065095 19.27771083088059,4.8925438574960625" style="fill:none;stroke:black;stroke-width:1"/>
<polygon points="17.647932408965843,4.848197044817373 7.181127228156165,10.593197611490996 19.27771083088059,4.8925438574960625" style="fill:none;stroke:black;stroke-width:1"/>
<polygon points="7.211341573509863,10.416137692400188 7.181127228156165,10.593197611490996 17.647932408965843,4.848197044817373" style="fill:none;stroke:black;stroke-width:1"/>
<polygon points="18.854200335618845,21.288076852789768 13.706415710266127,21.315882695839264 18.679014871133198,4.673079815552902" style="fill:none;stroke:black;stroke-width:1"/>
<polygon points="21.012349513193712,13.174223379793139 14.078290498350054,28.35001646511858 18.679014871133198,4.673079815552902" style="fill:none;stroke:black;stroke-width:1"/>
<polygon points="14.078290498350054,28.35001646511858 9.243178491525887,26.389836502310185 18.679014871133198,4.673079815552902" style="fill:none;stroke:black;stroke-width:1"/>
<polygon points="23.317340285584248,21.6349466981751 23.472230358889544,21.708378014759944 18.738575491035483,5.915264825722239" style="fill:none;stroke:black;stroke-width:1"/>
<polygon points="23.081019567156574,21.401467472380922 23.18563999616841,21.530923800515087 18.738575491035483,5.915264825722239" style="fill:none;stroke:black;stroke-width:1"/>
<polygon points="23.18563999616841,21.530923800515087 23.317340285584248,21.6349466981751 18.738575491035483,5.915264825722239" style="fill:none;stroke:black;stroke-width:1"/>
<polygon points="23.317340285584248,21.6349466981751 23.18563999616841,21.530923800515087 22.992959527880412,20.747027152642456" style="fill:none;stroke:black;stroke-width:1"/>
<polygon points="22.967506516028077,20.91473135340168 18.515365310137504,5.500190688357936 22.992959527880412,20.747027152642456" style="fill:none;stroke:black;stroke-width:1"/>
<polygon points="22.967506516028077,20.91473135340168 22.96851971483206,21.087280239765505 18.515365310137504,5.500190688357936" style="fill:none;stroke:black;stroke-width:1"/>
<polygon points="22.96851971483206,21.087280239765505 22.967506516028077,20.91473135340168 23.081019567156574,21.401467472380922" style="fill:none;stroke:black;stroke-width:1"/>
<polygon points="23.18563999616841,21.530923800515087 22.967506516028077,20.91473135340168 22.992959527880412,20.747027152642456" style="fill:none;stroke:black;stroke-width:1"/>
<polygon points="22.967506516028077,20.91473135340168 23.18563999616841,21.530923800515087 23.081019567156574,21.401467472380922" style="fill:none;stroke:black;stroke-width:1"/>
<polygon points="23.007369075063295,21.251735864373668 23.081019567156574,21.401467472380922 18.515365310137504,5.500190688357936" style="fill:none;stroke:black;stroke-width:1"/>
<polygon points="22.96851971483206,21.087280239765505 23.007369075063295,21.251735864373668 18.515365310137504,5.500190688357936" style="fill:none;stroke:black;stroke-width:1"/>
<polygon points="23.007369075063295,21.251735864373668 22.96851971483206,21.087280239765505 23.081019567156574,21.401467472380922" style="fill:none;stroke:black;stroke-width:1"/>
<polygon points="23.44831843689343,18.88726579085945 24.58148620658809,20.811610346067063 23.363686373361617,19.02588032393944" style="fill:none;stroke:black;stroke-width:1"/>
<polygon points="23.56016112924508,18.769125438923567 23.44831843689343,18.88726579085945 3.9563551371343557,9.945467877849639" style="fill:none;stroke:black;stroke-width:1"/>
<polygon points="24.6137047087794,20.656666061982758 23.44831843689343,18.88726579085945 23.56016112924508,18.769125438923567" style="fill:none;stroke:black;stroke-width:1"/>
<polygon points="24.58148620658809,20.811610346067063 23.44831843689343,18.88726579085945 24.6137047087794,20.656666061982758" style="fill:none;stroke:black;stroke-width:1"/>
<polygon points="24.678141713162027,20.346777493814148 23.847343866486163,18.60786817892541 24.71036021535334,20.191833209729836" style="fill:none;stroke:black;stroke-width:1"/>
<polygon points="23.69468081693614,18.67485949324211 23.847343866486163,18.60786817892541 24.678141713162027,20.346777493814148" style="fill:none;stroke:black;stroke-width:1"/>
<polygon points="2.9886250621774755,20.288143567711558 23.847343866486163,18.60786817892541 2.491003539615729,14.977590229723482" style="fill:none;stroke:black;stroke-width:1"/>
<polygon points="23.847343866486163,18.60786817892541 23.69468081693614,18.67485949324211 2.491003539615729,14.977590229723482" style="fill:none;stroke:black;stroke-width:1"/>
<polygon points="5.388435367922085,24.871907885150286 9.26722678825783,28.23333518597145 24.353415760003355,18.596129596646712" style="fill:none;stroke:black;stroke-width:1"/>
<polygon points="9.26722678825783,28.23333518597145 14.211142154414233,29.958691210024696 24.353415760003355,18.596129596646712" style="fill:none;stroke:black;stroke-width:1"/>
<polygon points="24.50855196588541,18.669182776728857 19.685658637467725,29.67060239805179 24.391347668163245,27.45513515170746" style="fill:none;stroke:black;stroke-width:1"/>
<polygon points="14.211142154414233,29.958691210024696 19.685658637467725,29.67060239805179 24.50855196588541,18.669182776728857" style="fill:none;stroke:black;stroke-width:1"/>
<polygon points="23.44831843689343,18.88726579085945 7.081049600847141,5.93272454542672 3.9563551371343557,9.945467877849639" style="fill:none;stroke:black;stroke-width:1"/>
<polygon points="7.081049600847141,5.93272454542672 23.44831843689343,18.88726579085945 23.363686373361617,19.02588032393944" style="fill:none;stroke:black;stroke-width:1"/>
<polygon points="23.310798572130075,19.1815688130532 7.081049600847141,5.93272454542672 23.363686373361617,19.02588032393944" style="fill:none;stroke:black;stroke-width:1"/>
<polygon points="11.530210312208562,3.351510516104743 7.081049600847141,5.93272454542672 23.310798572130075,19.1815688130532" style="fill:none;stroke:black;stroke-width:1"/>
<polygon points="24.26928406079271,21.539742993030494 24.136120753217767,21.635048741587482 23.18188314617023,19.801458276182895" style="fill:none;stroke:black;stroke-width:1"/>
<polygon points="23.214101648361545,19.64651399209859 24.26928406079271,21.539742993030494 23.18188314617023,19.801458276182895" style="fill:none;stroke:black;stroke-width:1"/>
<polygon points="24.26928406079271,21.539742993030494 23.214101648361545,19.64651399209859 24.37991728529523,21.42015157148292" style="fill:none;stroke:black;stroke-width:1"/>
<polygon points="24.26928406079271,21.539742993030494 24.37991728529523,21.42015157148292 19.09671083811546,6.117474346335566" style="fill:none;stroke:black;stroke-width:1"/>
<polygon points="24.136120753217767,21.635048741587482 24.26928406079271,21.539742993030494 19.09671083811546,6.117474346335566" style="fill:none;stroke:black;stroke-width:1"/>
<polygon points="13.136726743343335,25.000736972618824 18.39987088928276,4.826115084935975 17.430777543514896,4.911251577134459" style="fill:none;stroke:black;stroke-width:1"/>
<polygon points="13.053077530143423,25.113591671338522 13.136726743343335,25.000736972618824 17.430777543514896,4.911251577134459" style="fill:none;stroke:black;stroke-width:1"/>
<polygon points="11.056565266288281,24.40656095340128 10.919561406663956,24.445098742495635 18.515365310137504,5.500190688357936" style="fill:none;stroke:black;stroke-width:1"/>
<polygon points="8.779250399085141,8.276825084675014 8.614432340884315,8.292320389952607 18.298334649608634,5.275385024917479" style="fill:none;stroke:black;stroke-width:1"/>
<polygon points="8.94833434971892,8.299096813782546 8.779250399085141,8.276825084675014 18.298334649608634,5.275385024917479" style="fill:none;stroke:black;stroke-width:1"/>
<polygon points="9.269030853437926,8.46190485610131 9.115120291749324,8.3616875135054 18.298334649608634,5.275385024917479" style="fill:none;stroke:black;stroke-width:1"/>
<polygon points="9.39401846031138,8.591455685510477 9.269030853437926,8.46190485610131 18.298334649608634,5.275385024917479" style="fill:none;stroke:black;stroke-width:1"/>
<polygon points="8.128613316923335,8.676864541568523 8.707452283633351,10.928920249263946 8.056090624130555,8.814253393094427" style="fill:none;stroke:black;stroke-width:1"/>
<polygon points="8.707452283633351,10.928920249263946 8.624801431786203,11.06742301444051 8.056090624130555,8.814253393094427" style="fill:none;stroke:black;stroke-width:1"/>
<polygon points="8.707452283633351,10.928920249263946 8.128613316923335,8.676864541568523 8.211215675232687,8.539889110703836" style="fill:none;stroke:black;stroke-width:1"/>
<polygon points="8.624801431786203,11.06742301444051 8.707452283633351,10.928920249263946 9.168492300044507,9.994426861851007" style="fill:none;stroke:black;stroke-width:1"/>
<polygon points="7.841118607421475,11.346588967436178 7.522546844541916,9.805034676360433 8.023240237747984,11.357051402417738" style="fill:none;stroke:black;stroke-width:1"/>
<polygon points="7.522546844541916,9.805034676360433 7.841118607421475,11.346588967436178 7.443177394102957,9.95139156924042" style="fill:none;stroke:black;stroke-width:1"/>
<polygon points="8.365058904201629,11.27327548848607 7.841118607421475,11.346588967436178 8.023240237747984,11.357051402417738" style="fill:none;stroke:black;stroke-width:1"/>
<polygon points="8.508759940220225,11.184427070834756 7.841118607421475,11.346588967436178 8.365058904201629,11.27327548848607" style="fill:none;stroke:black;stroke-width:1"/>
<polygon points="7.65896551724138,11.301724137931036 7.841118607421475,11.346588967436178 8.508759940220225,11.184427070834756" style="fill:none;stroke:black;stroke-width:1"/>
<polygon points="7.443177394102957,9.95139156924042 7.363157950202249,10.09911898394909 17.647932408965843,4.848197044817373" style="fill:none;stroke:black;stroke-width:1"/>
<polygon points="7.841118607421475,11.346588967436178 7.363157950202249,10.09911898394909 7.443177394102957,9.95139156924042" style="fill:none;stroke:black;stroke-width:1"/>
<polygon points="7.363157950202249,10.09911898394909 7.841118607421475,11.346588967436178 7.65896551724138,11.301724137931036" style="fill:none;stroke:black;stroke-width:1"/>
<polygon points="12.012211586775104,4.6584764564057615 21.85598979769939,17.277354067563646 18.679014871133198,4.673079815552902" style="fill:none;stroke:black;stroke-width:1"/>
<polygon points="21.85598979769939,17.277354067563646 18.854200335618845,21.288076852789768 18.679014871133198,4.673079815552902" style="fill:none;stroke:black;stroke-width:1"/>
<polygon points="16.72543938275713,10.542430444032828 21.012349513193712,13.174223379793139 18.679014871133198,4.673079815552902" style="fill:none;stroke:black;stroke-width:1"/>
<polygon points="11.999802392199474,12.402390800388135 16.72543938275713,10.542430444032828 18.679014871133198,4.673079815552902" style="fill:none;stroke:black;stroke-width:1"/>
<polygon points="13.706415710266127,21.315882695839264 10.648048069322256,17.31636714036257 18.679014871133198,4.673079815552902" style="fill:none;stroke:black;stroke-width:1"/>
<polygon points="10.648048069322256,17.31636714036257 11.999802392199474,12.402390800388135 18.679014871133198,4.673079815552902" style="fill:none;stroke:black;stroke-width:1"/>
<polygon points="7.91482906422098,17.059640690966148 10.335581548909348,20.289884931609315 17.7952640793721,4.780453953176327" style="fill:none;stroke:black;stroke-width:1"/>
<polygon points="3.934323816519363,17.760237648797062 7.91482906422098,17.059640690966148 17.7952640793721,4.780453953176327" style="fill:none;stroke:black;stroke-width:1"/>
<polygon points="9.243178491525887,26.389836502310185 5.690521921121446,22.688201430832464 17.7952640793721,4.780453953176327" style="fill:none;stroke:black;stroke-width:1"/>
<polygon points="5.690521921121446,22.688201430832464 3.934323816519363,17.760237648797062 17.7952640793721,4.780453953176327" style="fill:none;stroke:black;stroke-width:1"/>
<polygon points="23.818751374857356,21.73940763581947 23.646588622710997,21.7451724137931 23.08522763959629,20.266291128435817" style="fill:none;stroke:black;stroke-width:1"/>
<polygon points="23.646588622710997,21.7451724137931 23.0528257477097,20.42254768457704 23.08522763959629,20.266291128435817" style="fill:none;stroke:black;stroke-width:1"/>
<polygon points="23.646588622710997,21.7451724137931 23.818751374857356,21.73940763581947 18.738575491035483,5.915264825722239" style="fill:none;stroke:black;stroke-width:1"/>
<polygon points="23.472230358889544,21.708378014759944 23.646588622710997,21.7451724137931 18.738575491035483,5.915264825722239" style="fill:none;stroke:black;stroke-width:1"/>
<polygon points="23.646588622710997,21.7451724137931 23.472230358889544,21.708378014759944 23.317340285584248,21.6349466981751" style="fill:none;stroke:black;stroke-width:1"/>
<polygon points="23.847343866486163,18.60786817892541 24.013616644414718,18.571551721083797 24.71036021535334,20.191833209729836" style="fill:none;stroke:black;stroke-width:1"/>
<polygon points="24.742578717544653,20.03688892564553 24.013616644414718,18.571551721083797 24.188965517241378,18.569310344827585" style="fill:none;stroke:black;stroke-width:1"/>
<polygon points="24.013616644414718,18.571551721083797 24.742578717544653,20.03688892564553 24.71036021535334,20.191833209729836" style="fill:none;stroke:black;stroke-width:1"/>
<polygon points="24.013616644414718,18.571551721083797 2.9886250621774755,20.288143567711558 24.188965517241378,18.569310344827585" style="fill:none;stroke:black;stroke-width:1"/>
<polygon points="24.013616644414718,18.571551721083797 23.847343866486163,18.60786817892541 2.9886250621774755,20.288143567711558" style="fill:none;stroke:black;stroke-width:1"/>
<polygon points="12.946668408774903,25.205721958531957 13.053077530143423,25.113591671338522 17.430777543514896,4.911251577134459" style="fill:none;stroke:black;stroke-width:1"/>
<polygon points="18.547272701765948,4.733625195553475 12.544998325010937,25.351792095672373 17.430777543514896,4.911251577134459" style="fill:none;stroke:black;stroke-width:1"/>
<polygon points="12.544998325010937,25.351792095672373 12.68200218463526,25.313254306578013 17.430777543514896,4.911251577134459" style="fill:none;stroke:black;stroke-width:1"/>
<polygon points="13.121375416808839,24.303677988934506 13.026080785247366,24.18930460006636 18.39987088928276,4.826115084935975" style="fill:none;stroke:black;stroke-width:1"/>
<polygon points="13.026080785247366,24.18930460006636 12.90956567886907,24.098053554719286 18.39987088928276,4.826115084935975" style="fill:none;stroke:black;stroke-width:1"/>
<polygon points="12.776813974832349,24.03259753254224 12.63279076169556,23.9955988840639 18.39987088928276,4.826115084935975" style="fill:none;stroke:black;stroke-width:1"/>
<polygon points="12.90956567886907,24.098053554719286 12.776813974832349,24.03259753254224 18.39987088928276,4.826115084935975" style="fill:none;stroke:black;stroke-width:1"/>
<polygon points="11.332459183484922,24.32587719572705 11.194147987445039,24.366793020933223 18.515365310137504,5.500190688357936" style="fill:none;stroke:black;stroke-width:1"/>
<polygon points="11.194147987445039,24.366793020933223 11.056565266288281,24.40656095340128 18.515365310137504,5.500190688357936" style="fill:none;stroke:black;stroke-width:1"/>
<polygon points="23.646588622710997,21.7451724137931 23.02176199845485,20.58298074389271 23.0528257477097,20.42254768457704" style="fill:none;stroke:black;stroke-width:1"/>
<polygon points="23.02176199845485,20.58298074389271 23.317340285584248,21.6349466981751 22.992959527880412,20.747027152642456" style="fill:none;stroke:black;stroke-width:1"/>
<polygon points="23.02176199845485,20.58298074389271 23.646588622710997,21.7451724137931 23.317340285584248,21.6349466981751" style="fill:none;stroke:black;stroke-width:1"/>
<polygon points="10.919561406663956,24.445098742495635 10.781464834209846,24.486423537752838 22.992959527880412,20.747027152642456" style="fill:none;stroke:black;stroke-width:1"/>
<polygon points="10.781464834209846,24.486423537752838 23.02176199845485,20.58298074389271 22.992959527880412,20.747027152642456" style="fill:none;stroke:black;stroke-width:1"/>
<polygon points="23.02176199845485,20.58298074389271 10.781464834209846,24.486423537752838 10.655329387485688,24.553634695928938" style="fill:none;stroke:black;stroke-width:1"/>
<polygon points="10.379015167689808,25.02875484923685 23.117446141787607,20.111346844351512 23.08522763959629,20.266291128435817" style="fill:none;stroke:black;stroke-width:1"/>
<polygon points="8.323850763522778,8.426404343106247 8.778792288972086,10.792499037587728 8.211215675232687,8.539889110703836" style="fill:none;stroke:black;stroke-width:1"/>
<polygon points="8.778792288972086,10.792499037587728 8.707452283633351,10.928920249263946 8.211215675232687,8.539889110703836" style="fill:none;stroke:black;stroke-width:1"/>
<polygon points="8.707452283633351,10.928920249263946 8.778792288972086,10.792499037587728 9.168492300044507,9.994426861851007" style="fill:none;stroke:black;stroke-width:1"/>
<polygon points="7.282806209053188,10.249823245841194 7.65896551724138,11.301724137931036 7.211341573509863,10.416137692400188" style="fill:none;stroke:black;stroke-width:1"/>
<polygon points="7.282806209053188,10.249823245841194 7.363157950202249,10.09911898394909 7.65896551724138,11.301724137931036" style="fill:none;stroke:black;stroke-width:1"/>
<polygon points="7.282806209053188,10.249823245841194 7.211341573509863,10.416137692400188 17.647932408965843,4.848197044817373" style="fill:none;stroke:black;stroke-width:1"/>
<polygon points="7.363157950202249,10.09911898394909 7.282806209053188,10.249823245841194 17.647932408965843,4.848197044817373" style="fill:none;stroke:black;stroke-width:1"/>
<polygon points="12.68200218463526,25.313254306578013 12.820118119914135,25.27228296108181 17.430777543514896,4.911251577134459" style="fill:none;stroke:black;stroke-width:1"/>
<polygon points="12.820118119914135,25.27228296108181 12.946668408774903,25.205721958531957 17.430777543514896,4.911251577134459" style="fill:none;stroke:black;stroke-width:1"/>
<polygon points="12.407415603854178,25.39156002814043 18.547272701765948,4.733625195553475 12.269104407814297,25.432475853346606" style="fill:none;stroke:black;stroke-width:1"/>
<polygon points="12.407415603854178,25.39156002814043 12.544998325010937,25.351792095672373 18.547272701765948,4.733625195553475" style="fill:none;stroke:black;stroke-width:1"/>
<polygon points="13.190448350530824,24.438488439166697 13.121375416808839,24.303677988934506 18.39987088928276,4.826115084935975" style="fill:none;stroke:black;stroke-width:1"/>
<polygon points="13.224891368609072,24.585956520021043 13.190448350530824,24.438488439166697 18.39987088928276,4.826115084935975" style="fill:none;stroke:black;stroke-width:1"/>
<polygon points="13.225261079868892,24.73212717873928 13.224891368609072,24.585956520021043 18.39987088928276,4.826115084935975" style="fill:none;stroke:black;stroke-width:1"/>
<polygon points="11.611805832884782,24.24101980177755 11.47163697927454,24.283913831372516 18.424729270057764,5.143618231354788" style="fill:none;stroke:black;stroke-width:1"/>
<polygon points="11.753074572812661,24.197326657996843 11.611805832884782,24.24101980177755 18.424729270057764,5.143618231354788" style="fill:none;stroke:black;stroke-width:1"/>
<polygon points="12.039258853552305,24.108129971249628 11.89553468169093,24.152978553593183 18.424729270057764,5.143618231354788" style="fill:none;stroke:black;stroke-width:1"/>
<polygon points="11.89553468169093,24.152978553593183 11.753074572812661,24.197326657996843 18.424729270057764,5.143618231354788" style="fill:none;stroke:black;stroke-width:1"/>
<polygon points="12.63279076169556,23.9955988840639 12.482441192988704,23.989712066976853 18.424729270057764,5.143618231354788" style="fill:none;stroke:black;stroke-width:1"/>
<polygon points="12.482441192988704,23.989712066976853 12.330689655172414,24.017586206896553 18.424729270057764,5.143618231354788" style="fill:none;stroke:black;stroke-width:1"/>
<polygon points="12.184299847401139,24.06294328648532 12.039258853552305,24.108129971249628 18.424729270057764,5.143618231354788" style="fill:none;stroke:black;stroke-width:1"/>
<polygon points="12.330689655172414,24.017586206896553 12.184299847401139,24.06294328648532 18.424729270057764,5.143618231354788" style="fill:none;stroke:black;stroke-width:1"/>
<polygon points="23.0528257477097,20.42254768457704 10.408617810893784,24.888680634814712 23.08522763959629,20.266291128435817" style="fill:none;stroke:black;stroke-width:1"/>
<polygon points="10.408617810893784,24.888680634814712 10.379015167689808,25.02875484923685 23.08522763959629,20.266291128435817" style="fill:none;stroke:black;stroke-width:1"/>
<polygon points="23.117446141787607,20.111346844351512 10.380109262462073,25.175038039086456 23.149664643978916,19.956402560267207" style="fill:none;stroke:black;stroke-width:1"/>
<polygon points="10.379015167689808,25.02875484923685 10.380109262462073,25.175038039086456 23.117446141787607,20.111346844351512" style="fill:none;stroke:black;stroke-width:1"/>
<polygon points="23.149664643978916,19.956402560267207 10.380109262462073,25.175038039086456 23.18188314617023,19.801458276182895" style="fill:none;stroke:black;stroke-width:1"/>
<polygon points="8.848474097049522,10.657253885049158 8.323850763522778,8.426404343106247 8.460444390551757,8.343030789476094" style="fill:none;stroke:black;stroke-width:1"/>
<polygon points="8.848474097049522,10.657253885049158 8.778792288972086,10.792499037587728 8.323850763522778,8.426404343106247" style="fill:none;stroke:black;stroke-width:1"/>
<polygon points="8.848474097049522,10.657253885049158 8.460444390551757,8.343030789476094 8.614432340884315,8.292320389952607" style="fill:none;stroke:black;stroke-width:1"/>
<polygon points="8.778792288972086,10.792499037587728 8.848474097049522,10.657253885049158 9.168492300044507,9.994426861851007" style="fill:none;stroke:black;stroke-width:1"/>
<polygon points="13.136726743343335,25.000736972618824 13.194995961427638,24.87198133713107 18.39987088928276,4.826115084935975" style="fill:none;stroke:black;stroke-width:1"/>
<polygon points="13.194995961427638,24.87198133713107 13.225261079868892,24.73212717873928 18.39987088928276,4.826115084935975" style="fill:none;stroke:black;stroke-width:1"/>
<polygon points="23.02176199845485,20.58298074389271 10.549397016528946,24.646307613849643 23.0528257477097,20.42254768457704" style="fill:none;stroke:black;stroke-width:1"/>
<polygon points="10.549397016528946,24.646307613849643 23.02176199845485,20.58298074389271 10.655329387485688,24.553634695928938" style="fill:none;stroke:black;stroke-width:1"/>
<polygon points="10.41475975075534,25.323103026155707 23.214101648361545,19.64651399209859 23.18188314617023,19.801458276182895" style="fill:none;stroke:black;stroke-width:1"/>
<polygon points="10.380109262462073,25.175038039086456 10.41475975075534,25.323103026155707 23.18188314617023,19.801458276182895" style="fill:none;stroke:black;stroke-width:1"/>
<polygon points="23.214101648361545,19.64651399209859 10.41475975075534,25.323103026155707 23.246320150552858,19.491569708014286" style="fill:none;stroke:black;stroke-width:1"/>
<polygon points="8.779250399085141,8.276825084675014 8.916397197052152,10.523063587431949 8.614432340884315,8.292320389952607" style="fill:none;stroke:black;stroke-width:1"/>
<polygon points="8.916397197052152,10.523063587431949 8.848474097049522,10.657253885049158 8.614432340884315,8.292320389952607" style="fill:none;stroke:black;stroke-width:1"/>
<polygon points="8.848474097049522,10.657253885049158 8.916397197052152,10.523063587431949 9.168492300044507,9.994426861851007" style="fill:none;stroke:black;stroke-width:1"/>
<polygon points="10.466286462015978,24.75959741839764 10.408617810893784,24.888680634814712 23.0528257477097,20.42254768457704" style="fill:none;stroke:black;stroke-width:1"/>
<polygon points="10.549397016528946,24.646307613849643 10.466286462015978,24.75959741839764 23.0528257477097,20.42254768457704" style="fill:none;stroke:black;stroke-width:1"/>
<polygon points="10.48201969385748,25.45943384156439 23.310798572130075,19.1815688130532 23.278538652744174,19.336625423929977" style="fill:none;stroke:black;stroke-width:1"/>
<polygon points="23.310798572130075,19.1815688130532 10.48201969385748,25.45943384156439 10.575831031489496,25.57422655879647" style="fill:none;stroke:black;stroke-width:1"/>
<polygon points="23.246320150552858,19.491569708014286 10.48201969385748,25.45943384156439 23.278538652744174,19.336625423929977" style="fill:none;stroke:black;stroke-width:1"/>
<polygon points="10.41475975075534,25.323103026155707 10.48201969385748,25.45943384156439 23.246320150552858,19.491569708014286" style="fill:none;stroke:black;stroke-width:1"/>
<polygon points="8.98246107816647,10.389806940519817 8.779250399085141,8.276825084675014 8.94833434971892,8.299096813782546" style="fill:none;stroke:black;stroke-width:1"/>
<polygon points="8.98246107816647,10.389806940519817 8.916397197052152,10.523063587431949 8.779250399085141,8.276825084675014" style="fill:none;stroke:black;stroke-width:1"/>
<polygon points="8.98246107816647,10.389806940519817 8.94833434971892,8.299096813782546 9.115120291749324,8.3616875135054" style="fill:none;stroke:black;stroke-width:1"/>
<polygon points="8.916397197052152,10.523063587431949 9.108609140476155,10.12560978194563 9.168492300044507,9.994426861851007" style="fill:none;stroke:black;stroke-width:1"/>
<polygon points="8.98246107816647,10.389806940519817 9.108609140476155,10.12560978194563 8.916397197052152,10.523063587431949" style="fill:none;stroke:black;stroke-width:1"/>
<polygon points="9.108609140476155,10.12560978194563 9.39401846031138,8.591455685510477 9.168492300044507,9.994426861851007" style="fill:none;stroke:black;stroke-width:1"/>
<polygon points="9.108609140476155,10.12560978194563 9.269030853437926,8.46190485610131 9.39401846031138,8.591455685510477" style="fill:none;stroke:black;stroke-width:1"/>
<polygon points="9.269030853437926,8.46190485610131 9.046565229578974,10.257362740096472 9.115120291749324,8.3616875135054" style="fill:none;stroke:black;stroke-width:1"/>
<polygon points="9.108609140476155,10.12560978194563 9.046565229578974,10.257362740096472 9.269030853437926,8.46190485610131" style="fill:none;stroke:black;stroke-width:1"/>
<polygon points="9.046565229578974,10.257362740096472 8.98246107816647,10.389806940519817 9.115120291749324,8.3616875135054" style="fill:none;stroke:black;stroke-width:1"/>
<polygon points="9.046565229578974,10.257362740096472 9.108609140476155,10.12560978194563 8.98246107816647,10.389806940519817" style="fill:none;stroke:black;stroke-width:1"/>
<polygon points="11.562304737746913,25.650223077824023 25.321168238036403,24.38690004375241 11.41726374389808,25.695409762588334" style="fill:none;stroke:black;stroke-width:1"/>
<polygon points="11.41726374389808,25.695409762588334 25.321168238036403,24.38690004375241 21.208544728652985,27.47024306282811" style="fill:none;stroke:black;stroke-width:1"/>
<polygon points="10.968825031404574,25.76504082414677 26.15603575278112,6.961486320019519 22.03009329612161,3.9260716406573426" style="fill:none;stroke:black;stroke-width:1"/>
<polygon points="10.968825031404574,25.76504082414677 22.03009329612161,3.9260716406573426 10.823990615320492,25.729451886663337" style="fill:none;stroke:black;stroke-width:1"/>
<polygon points="28.890631512124127,11.306096740329016 10.968825031404574,25.76504082414677 11.121372670741298,25.76942434005013" style="fill:none;stroke:black;stroke-width:1"/>
<polygon points="10.968825031404574,25.76504082414677 28.890631512124127,11.306096740329016 26.15603575278112,6.961486320019519" style="fill:none;stroke:black;stroke-width:1"/>
<polygon points="16.92744897774386,2.613577965086516 10.691410108429656,25.665041574208058 10.823990615320492,25.729451886663337" style="fill:none;stroke:black;stroke-width:1"/>
<polygon points="22.03009329612161,3.9260716406573426 16.92744897774386,2.613577965086516 10.823990615320492,25.729451886663337" style="fill:none;stroke:black;stroke-width:1"/>
<polygon points="10.691410108429656,25.665041574208058 16.92744897774386,2.613577965086516 10.575831031489496,25.57422655879647" style="fill:none;stroke:black;stroke-width:1"/>
<polygon points="16.92744897774386,2.613577965086516 11.530210312208562,3.351510516104743 10.575831031489496,25.57422655879647" style="fill:none;stroke:black;stroke-width:1"/>
<polygon points="19.685658637467725,29.67060239805179 29.812758620689657,16.53206896551724 24.391347668163245,27.45513515170746" style="fill:none;stroke:black;stroke-width:1"/>
<polygon points="29.812758620689657,16.53206896551724 2.491003539615729,14.977590229723482 3.9563551371343557,9.945467877849639" style="fill:none;stroke:black;stroke-width:1"/>
<polygon points="22.855702615634506,18.341994010237407 29.812758620689657,16.53206896551724 26.44055727530315,17.393587450837725" style="fill:none;stroke:black;stroke-width:1"/>
<polygon points="29.812758620689657,16.53206896551724 2.9886250621774755,20.288143567711558 2.491003539615729,14.977590229723482" style="fill:none;stroke:black;stroke-width:1"/>
<polygon points="29.812758620689657,16.53206896551724 21.461764890039166,11.484464721279274 23.94068761601898,15.976711486687048" style="fill:none;stroke:black;stroke-width:1"/>
<polygon points="29.812758620689657,16.53206896551724 27.195900793363236,10.67553094605842 23.937199455352744,6.716084943680553" style="fill:none;stroke:black;stroke-width:1"/>
<polygon points="29.812758620689657,16.53206896551724 12.012211586775104,4.6584764564057615 7.666098457214845,7.422857638577926" style="fill:none;stroke:black;stroke-width:1"/>
<polygon points="19.30097413295038,4.403874904239023 29.812758620689657,16.53206896551724 23.937199455352744,6.716084943680553" style="fill:none;stroke:black;stroke-width:1"/>
<polygon points="29.812758620689657,16.53206896551724 16.92744897774386,2.613577965086516 22.03009329612161,3.9260716406573426" style="fill:none;stroke:black;stroke-width:1"/>
<polygon points="28.141268355354356,15.181905439868792 29.812758620689657,16.53206896551724 23.94068761601898,15.976711486687048" style="fill:none;stroke:black;stroke-width:1"/>
<polygon points="16.85722641185794,9.231061933914035 29.812758620689657,16.53206896551724 11.893372666418333,10.728104027137016" style="fill:none;stroke:black;stroke-width:1"/>
<polygon points="4.820540963808175,11.713230487117407 29.812758620689657,16.53206896551724 7.666098457214845,7.422857638577926" style="fill:none;stroke:black;stroke-width:1"/>
<polygon points="29.812758620689657,16.53206896551724 9.293322037613011,15.11183660984975 11.893372666418333,10.728104027137016" style="fill:none;stroke:black;stroke-width:1"/>
<polygon points="29.812758620689657,16.53206896551724 14.078290498350054,28.35001646511858 21.012349513193712,13.174223379793139" style="fill:none;stroke:black;stroke-width:1"/>
<polygon points="29.812758620689657,16.53206896551724 9.26722678825783,28.23333518597145 5.388435367922085,24.871907885150286" style="fill:none;stroke:black;stroke-width:1"/>
<polygon points="29.812758620689657,16.53206896551724 14.551792862886664,23.126848665747794 10.335581548909348,20.289884931609315" style="fill:none;stroke:black;stroke-width:1"/>
<polygon points="29.812758620689657,16.53206896551724 27.846075910877328,19.871562663401615 26.44055727530315,17.393587450837725" style="fill:none;stroke:black;stroke-width:1"/>
<polygon points="25.321168238036403,24.38690004375241 29.812758620689657,16.53206896551724 21.208544728652985,27.47024306282811" style="fill:none;stroke:black;stroke-width:1"/>
<polygon points="29.812758620689657,16.53206896551724 27.844743451226513,23.718009170979414 24.391347668163245,27.45513515170746" style="fill:none;stroke:black;stroke-width:1"/>
<polygon points="21.461764890039166,11.484464721279274 29.812758620689657,16.53206896551724 16.85722641185794,9.231061933914035" style="fill:none;stroke:black;stroke-width:1"/>
<polygon points="29.812758620689657,16.53206896551724 4.820540963808175,11.713230487117407 4.954427862014116,15.501987538756774" style="fill:none;stroke:black;stroke-width:1"/>
<polygon points="9.293322037613011,15.11183660984975 29.812758620689657,16.53206896551724 4.954427862014116,15.501987538756774" style="fill:none;stroke:black;stroke-width:1"/>
<polygon points="7.081049600847141,5.93272454542672 29.812758620689657,16.53206896551724 3.9563551371343557,9.945467877849639" style="fill:none;stroke:black;stroke-width:1"/>
<polygon points="29.812758620689657,16.53206896551724 21.85598979769939,17.277354067563646 12.012211586775104,4.6584764564057615" style="fill:none;stroke:black;stroke-width:1"/>
<polygon points="2.9886250621774755,20.288143567711558 29.812758620689657,16.53206896551724 5.388435367922085,24.871907885150286" style="fill:none;stroke:black;stroke-width:1"/>
<polygon points="29.812758620689657,16.53206896551724 10.648048069322256,17.31636714036257 13.706415710266127,21.315882695839264" style="fill:none;stroke:black;stroke-width:1"/>
<polygon points="26.15603575278112,6.961486320019519 29.812758620689657,16.53206896551724 22.03009329612161,3.9260716406573426" style="fill:none;stroke:black;stroke-width:1"/>
<polygon points="28.890631512124127,11.306096740329016 29.812758620689657,16.53206896551724 26.15603575278112,6.961486320019519" style="fill:none;stroke:black;stroke-width:1"/>
<polygon points="14.551792862886664,23.126848665747794 29.812758620689657,16.53206896551724 19.706958926460278,22.315550100865853" style="fill:none;stroke:black;stroke-width:1"/>
<polygon points="29.812758620689657,16.53206896551724 22.855702615634506,18.341994010237407 19.706958926460278,22.315550100865853" style="fill:none;stroke:black;stroke-width:1"/>
<polygon points="29.812758620689657,16.53206896551724 25.321168238036403,24.38690004375241 27.846075910877328,19.871562663401615" style="fill:none;stroke:black;stroke-width:1"/>
<polygon points="27.195900793363236,10.67553094605842 29.812758620689657,16.53206896551724 28.141268355354356,15.181905439868792" style="fill:none;stroke:black;stroke-width:1"/>
<polygon points="27.844743451226513,23.718009170979414 29.812758620689657,16.53206896551724 29.710679542167707,18.871300324863054" style="fill:none;stroke:black;stroke-width:1"/>
<polygon points="29.812758620689657,16.53206896551724 19.30097413295038,4.403874904239023 29.710679542167707,18.871300324863054" style="fill:none;stroke:black;stroke-width:1"/>
<polygon points="18.854200335618845,21.288076852789768 29.812758620689657,16.53206896551724 13.706415710266127,21.315882695839264" style="fill:none;stroke:black;stroke-width:1"/>
<polygon points="16.72543938275713,10.542430444032828 29.812758620689657,16.53206896551724 21.012349513193712,13.174223379793139" style="fill:none;stroke:black;stroke-width:1"/>
<polygon points="14.078290498350054,28.35001646511858 29.812758620689657,16.53206896551724 9.243178491525887,26.389836502310185" style="fill:none;stroke:black;stroke-width:1"/>
<polygon points="7.91482906422098,17.059640690966148 29.812758620689657,16.53206896551724 10.335581548909348,20.289884931609315" style="fill:none;stroke:black;stroke-width:1"/>
<polygon points="9.26722678825783,28.23333518597145 29.812758620689657,16.53206896551724 14.211142154414233,29.958691210024696" style="fill:none;stroke:black;stroke-width:1"/>
<polygon points="29.812758620689657,16.53206896551724 19.685658637467725,29.67060239805179 14.211142154414233,29.958691210024696" style="fill:none;stroke:black;stroke-width:1"/>
<polygon points="29.812758620689657,16.53206896551724 5.690521921121446,22.688201430832464 9.243178491525887,26.389836502310185" style="fill:none;stroke:black;stroke-width:1"/>
<polygon points="16.92744897774386,2.613577965086516 29.812758620689657,16.53206896551724 11.530210312208562,3.351510516104743" style="fill:none;stroke:black;stroke-width:1"/>
<polygon points="29.812758620689657,16.53206896551724 7.081049600847141,5.93272454542672 11.530210312208562,3.351510516104743" style="fill:none;stroke:black;stroke-width:1"/>
<polygon points="21.85598979769939,17.277354067563646 29.812758620689657,16.53206896551724 18.854200335618845,21.288076852789768" style="fill:none;stroke:black;stroke-width:1"/>
<polygon points="29.812758620689657,16.53206896551724 16.72543938275713,10.542430444032828 11.999802392199474,12.402390800388135" style="fill:none;stroke:black;stroke-width:1"/>
<polygon points="10.648048069322256,17.31636714036257 29.812758620689657,16.53206896551724 11.999802392199474,12.402390800388135" style="fill:none;stroke:black;stroke-width:1"/>
<polygon points="29.812758620689657,16.53206896551724 7.91482906422098,17.059640690966148 3.934323816519363,17.760237648797062" style="fill:none;stroke:black;stroke-width:1"/>
<polygon points="5.690521921121446,22.688201430832464 29.812758620689657,16.53206896551724 3.934323816519363,17.760237648797062" style="fill:none;stroke:black;stroke-width:1"/>
<polygon points="29.812758620689657,16.53206896551724 11.271205666697327,25.7411438016945 11.41726374389808,25.695409762588334" style="fill:none;stroke:black;stroke-width:1"/>
<polygon points="29.812758620689657,16.53206896551724 11.41726374389808,25.695409762588334 21.208544728652985,27.47024306282811" style="fill:none;stroke:black;stroke-width:1"/>
<polygon points="11.271205666697327,25.7411438016945 29.812758620689657,16.53206896551724 11.121372670741298,25.76942434005013" style="fill:none;stroke:black;stroke-width:1"/>
<polygon points="29.812758620689657,16.53206896551724 28.890631512124127,11.306096740329016 11.121372670741298,25.76942434005013" style="fill:none;stroke:black;stroke-width:1"/>
<polygon points="10.48201969385748,25.45943384156439 12.269104407814297,25.432475853346606 12.129926612024676,25.474439217701132" style="fill:none;stroke:black;stroke-width:1"/>
<polygon points="11.989757758414436,25.517333247296104 10.48201969385748,25.45943384156439 12.129926612024676,25.474439217701132" style="fill:none;stroke:black;stroke-width:1"/>
<polygon points="10.48201969385748,25.45943384156439 11.89553468169093,24.152978553593183 12.039258853552305,24.108129971249628" style="fill:none;stroke:black;stroke-width:1"/>
<polygon points="10.48201969385748,25.45943384156439 10.691410108429656,25.665041574208058 10.575831031489496,25.57422655879647" style="fill:none;stroke:black;stroke-width:1"/>
<polygon points="10.48201969385748,25.45943384156439 11.848489018486555,25.561026391076805 11.706028909608287,25.60537449548047" style="fill:none;stroke:black;stroke-width:1"/>
<polygon points="11.562304737746913,25.650223077824023 10.48201969385748,25.45943384156439 11.706028909608287,25.60537449548047" style="fill:none;stroke:black;stroke-width:1"/>
<polygon points="10.48201969385748,25.45943384156439 12.407415603854178,25.39156002814043 12.269104407814297,25.432475853346606" style="fill:none;stroke:black;stroke-width:1"/>
<polygon points="10.48201969385748,25.45943384156439 11.271205666697327,25.7411438016945 11.121372670741298,25.76942434005013" style="fill:none;stroke:black;stroke-width:1"/>
<polygon points="10.691410108429656,25.665041574208058 10.48201969385748,25.45943384156439 10.823990615320492,25.729451886663337" style="fill:none;stroke:black;stroke-width:1"/>
<polygon points="10.968825031404574,25.76504082414677 10.48201969385748,25.45943384156439 11.121372670741298,25.76942434005013" style="fill:none;stroke:black;stroke-width:1"/>
<polygon points="10.48201969385748,25.45943384156439 11.332459183484922,24.32587719572705 11.47163697927454,24.283913831372516" style="fill:none;stroke:black;stroke-width:1"/>
<polygon points="11.848489018486555,25.561026391076805 10.48201969385748,25.45943384156439 11.989757758414436,25.517333247296104" style="fill:none;stroke:black;stroke-width:1"/>
<polygon points="11.271205666697327,25.7411438016945 10.48201969385748,25.45943384156439 11.41726374389808,25.695409762588334" style="fill:none;stroke:black;stroke-width:1"/>
<polygon points="10.48201969385748,25.45943384156439 11.562304737746913,25.650223077824023 11.41726374389808,25.695409762588334" style="fill:none;stroke:black;stroke-width:1"/>
<polygon points="12.946668408774903,25.205721958531957 10.48201969385748,25.45943384156439 13.053077530143423,25.113591671338522" style="fill:none;stroke:black;stroke-width:1"/>
<polygon points="10.48201969385748,25.45943384156439 12.820118119914135,25.27228296108181 12.68200218463526,25.313254306578013" style="fill:none;stroke:black;stroke-width:1"/>
<polygon points="12.776813974832349,24.03259753254224 10.48201969385748,25.45943384156439 12.63279076169556,23.9955988840639" style="fill:none;stroke:black;stroke-width:1"/>
<polygon points="10.48201969385748,25.45943384156439 10.968825031404574,25.76504082414677 10.823990615320492,25.729451886663337" style="fill:none;stroke:black;stroke-width:1"/>
<polygon points="10.48201969385748,25.45943384156439 10.781464834209846,24.486423537752838 10.919561406663956,24.445098742495635" style="fill:none;stroke:black;stroke-width:1"/>
<polygon points="10.48201969385748,25.45943384156439 13.136726743343335,25.000736972618824 13.053077530143423,25.113591671338522" style="fill:none;stroke:black;stroke-width:1"/>
<polygon points="10.48201969385748,25.45943384156439 13.026080785247366,24.18930460006636 13.121375416808839,24.303677988934506" style="fill:none;stroke:black;stroke-width:1"/>
<polygon points="10.48201969385748,25.45943384156439 10.549397016528946,24.646307613849643 10.655329387485688,24.553634695928938" style="fill:none;stroke:black;stroke-width:1"/>
<polygon points="11.056565266288281,24.40656095340128 10.48201969385748,25.45943384156439 10.919561406663956,24.445098742495635" style="fill:none;stroke:black;stroke-width:1"/>
<polygon points="10.48201969385748,25.45943384156439 11.194147987445039,24.366793020933223 11.332459183484922,24.32587719572705" style="fill:none;stroke:black;stroke-width:1"/>
<polygon points="10.48201969385748,25.45943384156439 13.194995961427638,24.87198133713107 13.136726743343335,25.000736972618824" style="fill:none;stroke:black;stroke-width:1"/>
<polygon points="12.544998325010937,25.351792095672373 10.48201969385748,25.45943384156439 12.68200218463526,25.313254306578013" style="fill:none;stroke:black;stroke-width:1"/>
<polygon points="13.190448350530824,24.438488439166697 10.48201969385748,25.45943384156439 13.121375416808839,24.303677988934506" style="fill:none;stroke:black;stroke-width:1"/>
<polygon points="13.026080785247366,24.18930460006636 10.48201969385748,25.45943384156439 12.90956567886907,24.098053554719286" style="fill:none;stroke:black;stroke-width:1"/>
<polygon points="10.48201969385748,25.45943384156439 12.776813974832349,24.03259753254224 12.90956567886907,24.098053554719286" style="fill:none;stroke:black;stroke-width:1"/>
<polygon points="11.611805832884782,24.24101980177755 10.48201969385748,25.45943384156439 11.47163697927454,24.283913831372516" style="fill:none;stroke:black;stroke-width:1"/>
<polygon points="10.48201969385748,25.45943384156439 12.482441192988704,23.989712066976853 12.63279076169556,23.9955988840639" style="fill:none;stroke:black;stroke-width:1"/>
<polygon points="11.194147987445039,24.366793020933223 10.48201969385748,25.45943384156439 11.056565266288281,24.40656095340128" style="fill:none;stroke:black;stroke-width:1"/>
<polygon points="10.781464834209846,24.486423537752838 10.48201969385748,25.45943384156439 10.655329387485688,24.553634695928938" style="fill:none;stroke:black;stroke-width:1"/>
<polygon points="12.184299847401139,24.06294328648532 10.48201969385748,25.45943384156439 12.039258853552305,24.108129971249628" style="fill:none;stroke:black;stroke-width:1"/>
<polygon points="12.820118119914135,25.27228296108181 10.48201969385748,25.45943384156439 12.946668408774903,25.205721958531957" style="fill:none;stroke:black;stroke-width:1"/>
<polygon points="12.407415603854178,25.39156002814043 10.48201969385748,25.45943384156439 12.544998325010937,25.351792095672373" style="fill:none;stroke:black;stroke-width:1"/>
<polygon points="10.48201969385748,25.45943384156439 13.190448350530824,24.438488439166697 13.224891368609072,24.585956520021043" style="fill:none;stroke:black;stroke-width:1"/>
<polygon points="13.225261079868892,24.73212717873928 10.48201969385748,25.45943384156439 13.224891368609072,24.585956520021043" style="fill:none;stroke:black;stroke-width:1"/>
<polygon points="10.48201969385748,25.45943384156439 11.611805832884782,24.24101980177755 11.753074572812661,24.197326657996843" style="fill:none;stroke:black;stroke-width:1"/>
<polygon points="11.89553468169093,24.152978553593183 10.48201969385748,25.45943384156439 11.753074572812661,24.197326657996843" style="fill:none;stroke:black;stroke-width:1"/>
<polygon points="12.482441192988704,23.989712066976853 10.48201969385748,25.45943384156439 12.330689655172414,24.017586206896553" style="fill:none;stroke:black;stroke-width:1"/>
<polygon points="10.48201969385748,25.45943384156439 12.184299847401139,24.06294328648532 12.330689655172414,24.017586206896553" style="fill:none;stroke:black;stroke-width:1"/>
<polygon points="10.408617810893784,24.888680634814712 10.48201969385748,25.45943384156439 10.379015167689808,25.02875484923685" style="fill:none;stroke:black;stroke-width:1"/>
<polygon points="10.48201969385748,25.45943384156439 10.380109262462073,25.175038039086456 10.379015167689808,25.02875484923685" style="fill:none;stroke:black;stroke-width:1"/>
<polygon points="13.194995961427638,24.87198133713107 10.48201969385748,25.45943384156439 13.225261079868892,24.73212717873928" style="fill:none;stroke:black;stroke-width:1"/>
<polygon points="10.466286462015978,24.75959741839764 10.48201969385748,25.45943384156439 10.408617810893784,24.888680634814712" style="fill:none;stroke:black;stroke-width:1"/>
<polygon points="10.48201969385748,25.45943384156439 10.41475975075534,25.323103026155707 10.380109262462073,25.175038039086456" style="fill:none;stroke:black;stroke-width:1"/>
<polygon points="10.48201969385748,25.45943384156439 10.466286462015978,24.75959741839764 10.549397016528946,24.646307613849643" style="fill:none;stroke:black;stroke-width:1"/>
</svg>
