<?xml version="1.0" encoding="UTF-8" standalone="no"?>
<svg xmlns="http://www.w3.org/2000/svg" version="1.1" width="800" height="800">
<polygon points="18.31453003403623,11.625086752607057 18.693400359709713,9.54334514468051 19.32579447296013,11.634375053257259" style="fill:none;stroke:black;stroke-width:1"/>
<polygon points="16.834885197889115,6.6325476397812055 16.079489632332482,6.636195276534863 16.281681716613072,6.16176172559213" style="fill:none;stroke:black;stroke-width:1"/>
<polygon points="19.498601727537036,5.719515537741012 20.773473042184868,5.223518179437072 21.391619017460904,5.912472138430326" style="fill:none;stroke:black;stroke-width:1"/>
<polygon points="18.019125953842657,4.8452977586022605 8.890684210749598,8.73320544545114 19.164785835981696,4.44396378544651" style="fill:none;stroke:black;stroke-width:1"/>
<polygon points="16.53080815038993,7.119201766012053 16.70655172413793,7.707241379310345 16.66514534512542,5.783117599386387" style="fill:none;stroke:black;stroke-width:1"/>
<polygon points="16.079489632332482,6.636195276534863 16.70655172413793,7.707241379310345 16.281681716613072,6.16176172559213" style="fill:none;stroke:black;stroke-width:1"/>
<polygon points="16.70655172413793,7.707241379310345 16.53080815038993,7.119201766012053 16.281681716613072,6.16176172559213" style="fill:none;stroke:black;stroke-width:1"/>
<polygon points="16.80407765660792,5.082656552753276 16.367534029589986,6.4933354293789 16.66514534512542,5.783117599386387" style="fill:none;stroke:black;stroke-width:1"/>
<polygon points="16.367534029589986,6.4933354293789 16.53080815038993,7.119201766012053 16.66514534512542,5.783117599386387" style="fill:none;stroke:black;stroke-width:1"/>
<polygon points="17.514338727945365,4.725175936939267 16.367534029589986,6.4933354293789 16.80407765660792,5.082656552753276" style="fill:none;stroke:black;stroke-width:1"/>
<polygon points="20.143613220324433,11.202314584431818 19.51190142950577,9.363153647895892 20.635577851304898,10.181004148032343" style="fill:none;stroke:black;stroke-width:1"/>
<polygon points="19.51190142950577,9.363153647895892 20.143613220324433,11.202314584431818 19.32579447296013,11.634375053257259" style="fill:none;stroke:black;stroke-width:1"/>
<polygon points="18.693400359709713,9.54334514468051 19.51190142950577,9.363153647895892 19.32579447296013,11.634375053257259" style="fill:none;stroke:black;stroke-width:1"/>
<polygon points="18.934425646706224,7.810571728215014 20.71635853630232,9.440989668593419 20.635577851304898,10.181004148032343" style="fill:none;stroke:black;stroke-width:1"/>
<polygon points="19.51190142950577,9.363153647895892 18.934425646706224,7.810571728215014 20.635577851304898,10.181004148032343" style="fill:none;stroke:black;stroke-width:1"/>
<polygon points="17.119031423006074,6.294928702298622 16.834885197889115,6.6325476397812055 16.281681716613072,6.16176172559213" style="fill:none;stroke:black;stroke-width:1"/>
<polygon points="16.834885197889115,6.6325476397812055 17.119031423006074,6.294928702298622 17.738058632437465,6.521127441594649" style="fill:none;stroke:black;stroke-width:1"/>
<polygon points="19.498601727537036,5.719515537741012 18.731544246291506,5.268283846021257 20.773473042184868,5.223518179437072" style="fill:none;stroke:black;stroke-width:1"/>
<polygon points="19.164785835981696,4.44396378544651 17.164472598729546,4.5522520985381485 18.276062652089095,4.454723196118982" style="fill:none;stroke:black;stroke-width:1"/>
<polygon points="16.44386447469034,4.921152162853331 16.367534029589986,6.4933354293789 17.514338727945365,4.725175936939267" style="fill:none;stroke:black;stroke-width:1"/>
<polygon points="16.367534029589986,6.4933354293789 16.44386447469034,4.921152162853331 16.53080815038993,7.119201766012053" style="fill:none;stroke:black;stroke-width:1"/>
<polygon points="16.44386447469034,4.921152162853331 17.514338727945365,4.725175936939267 18.276062652089095,4.454723196118982" style="fill:none;stroke:black;stroke-width:1"/>
<polygon points="21.357479178623826,6.854548132785764 19.498601727537036,5.719515537741012 21.391619017460904,5.912472138430326" style="fill:none;stroke:black;stroke-width:1"/>
<polygon points="20.71635853630232,9.440989668593419 21.357479178623826,6.854548132785764 20.635577851304898,10.181004148032343" style="fill:none;stroke:black;stroke-width:1"/>
<polygon points="21.357479178623826,6.854548132785764 20.71635853630232,9.440989668593419 20.86295809588065,8.538475926588958" style="fill:none;stroke:black;stroke-width:1"/>
<polygon points="16.799878193661538,8.639937489733292 16.70655172413793,7.707241379310345 16.079489632332482,6.636195276534863" style="fill:none;stroke:black;stroke-width:1"/>
<polygon points="16.70655172413793,7.707241379310345 16.799878193661538,8.639937489733292 16.66514534512542,5.783117599386387" style="fill:none;stroke:black;stroke-width:1"/>
<polygon points="18.667546725011015,6.4277899770510025 18.830963377017227,6.6518828058413595 17.738058632437465,6.521127441594649" style="fill:none;stroke:black;stroke-width:1"/>
<polygon points="18.934425646706224,7.810571728215014 19.06754539187441,7.0889488287015485 20.71635853630232,9.440989668593419" style="fill:none;stroke:black;stroke-width:1"/>
<polygon points="20.71635853630232,9.440989668593419 19.06754539187441,7.0889488287015485 20.86295809588065,8.538475926588958" style="fill:none;stroke:black;stroke-width:1"/>
<polygon points="19.06754539187441,7.0889488287015485 18.667546725011015,6.4277899770510025 20.86295809588065,8.538475926588958" style="fill:none;stroke:black;stroke-width:1"/>
<polygon points="18.667546725011015,6.4277899770510025 19.06754539187441,7.0889488287015485 18.830963377017227,6.6518828058413595" style="fill:none;stroke:black;stroke-width:1"/>
<polygon points="23.730744116857483,20.784386397011037 19.51190142950577,9.363153647895892 18.693400359709713,9.54334514468051" style="fill:none;stroke:black;stroke-width:1"/>
<polygon points="19.51190142950577,9.363153647895892 23.730744116857483,20.784386397011037 23.787157101978742,20.635930495985892" style="fill:none;stroke:black;stroke-width:1"/>
<polygon points="23.069496212608374,22.09864763496693 23.17345488831506,21.978938428785668 18.693400359709713,9.54334514468051" style="fill:none;stroke:black;stroke-width:1"/>
<polygon points="17.258526896227455,7.130847230134597 17.119031423006074,6.294928702298622 16.281681716613072,6.16176172559213" style="fill:none;stroke:black;stroke-width:1"/>
<polygon points="16.53080815038993,7.119201766012053 17.258526896227455,7.130847230134597 16.281681716613072,6.16176172559213" style="fill:none;stroke:black;stroke-width:1"/>
<polygon points="16.44386447469034,4.921152162853331 17.258526896227455,7.130847230134597 16.53080815038993,7.119201766012053" style="fill:none;stroke:black;stroke-width:1"/>
<polygon points="17.119031423006074,6.294928702298622 17.98679506592629,6.424510797708827 17.738058632437465,6.521127441594649" style="fill:none;stroke:black;stroke-width:1"/>
<polygon points="17.98679506592629,6.424510797708827 18.667546725011015,6.4277899770510025 17.738058632437465,6.521127441594649" style="fill:none;stroke:black;stroke-width:1"/>
<polygon points="18.667546725011015,6.4277899770510025 17.98679506592629,6.424510797708827 18.913643398741996,5.656805473967147" style="fill:none;stroke:black;stroke-width:1"/>
<polygon points="18.731544246291506,5.268283846021257 19.938610903829456,4.961013924340335 20.773473042184868,5.223518179437072" style="fill:none;stroke:black;stroke-width:1"/>
<polygon points="19.938610903829456,4.961013924340335 18.731544246291506,5.268283846021257 18.019125953842657,4.8452977586022605" style="fill:none;stroke:black;stroke-width:1"/>
<polygon points="20.773473042184868,5.223518179437072 19.938610903829456,4.961013924340335 19.164785835981696,4.44396378544651" style="fill:none;stroke:black;stroke-width:1"/>
<polygon points="19.938610903829456,4.961013924340335 18.019125953842657,4.8452977586022605 19.164785835981696,4.44396378544651" style="fill:none;stroke:black;stroke-width:1"/>
<polygon points="19.460819459089095,6.600257154684501 18.731544246291506,5.268283846021257 19.498601727537036,5.719515537741012" style="fill:none;stroke:black;stroke-width:1"/>
<polygon points="21.357479178623826,6.854548132785764 19.460819459089095,6.600257154684501 19.498601727537036,5.719515537741012" style="fill:none;stroke:black;stroke-width:1"/>
<polygon points="20.894043472873847,7.579233929299404 21.357479178623826,6.854548132785764 20.86295809588065,8.538475926588958" style="fill:none;stroke:black;stroke-width:1"/>
<polygon points="18.667546725011015,6.4277899770510025 20.894043472873847,7.579233929299404 20.86295809588065,8.538475926588958" style="fill:none;stroke:black;stroke-width:1"/>
<polygon points="20.894043472873847,7.579233929299404 18.667546725011015,6.4277899770510025 18.913643398741996,5.656805473967147" style="fill:none;stroke:black;stroke-width:1"/>
<polygon points="19.460819459089095,6.600257154684501 20.894043472873847,7.579233929299404 18.913643398741996,5.656805473967147" style="fill:none;stroke:black;stroke-width:1"/>
<polygon points="20.894043472873847,7.579233929299404 19.460819459089095,6.600257154684501 21.357479178623826,6.854548132785764" style="fill:none;stroke:black;stroke-width:1"/>
<polygon points="11.472564505556296,20.1009523629446 18.126053662071428,6.7034584999159215 17.738058632437465,6.521127441594649" style="fill:none;stroke:black;stroke-width:1"/>
<polygon points="12.542834123276752,24.495347348633075 18.126053662071428,6.7034584999159215 12.441227970876836,24.547013573240097" style="fill:none;stroke:black;stroke-width:1"/>
<polygon points="18.126053662071428,6.7034584999159215 16.834885197889115,6.6325476397812055 17.738058632437465,6.521127441594649" style="fill:none;stroke:black;stroke-width:1"/>
<polygon points="23.730744116857483,20.784386397011037 23.20689655172414,19.447931034482757 23.787157101978742,20.635930495985892" style="fill:none;stroke:black;stroke-width:1"/>
<polygon points="23.676641273828768,19.661479745228906 23.579922331136416,26.542946101589443 18.934425646706224,7.810571728215014" style="fill:none;stroke:black;stroke-width:1"/>
<polygon points="23.88658974438372,20.13059005200619 18.934425646706224,7.810571728215014 19.51190142950577,9.363153647895892" style="fill:none;stroke:black;stroke-width:1"/>
<polygon points="23.88658974438372,20.13059005200619 23.854416659268463,19.957367023189416 18.934425646706224,7.810571728215014" style="fill:none;stroke:black;stroke-width:1"/>
<polygon points="23.87709684412543,20.307934530908824 23.88658974438372,20.13059005200619 19.51190142950577,9.363153647895892" style="fill:none;stroke:black;stroke-width:1"/>
<polygon points="17.506849992389608,11.106993869342553 17.811061855652984,9.219482679249133 18.31453003403623,11.625086752607057" style="fill:none;stroke:black;stroke-width:1"/>
<polygon points="17.811061855652984,9.219482679249133 18.693400359709713,9.54334514468051 18.31453003403623,11.625086752607057" style="fill:none;stroke:black;stroke-width:1"/>
<polygon points="17.258526896227455,7.130847230134597 18.01007730776289,7.018715847076013 17.119031423006074,6.294928702298622" style="fill:none;stroke:black;stroke-width:1"/>
<polygon points="18.01007730776289,7.018715847076013 17.98679506592629,6.424510797708827 17.119031423006074,6.294928702298622" style="fill:none;stroke:black;stroke-width:1"/>
<polygon points="8.996330420421728,8.63459002598733 8.890684210749598,8.73320544545114 18.019125953842657,4.8452977586022605" style="fill:none;stroke:black;stroke-width:1"/>
<polygon points="9.099477713057885,8.539420794251111 8.996330420421728,8.63459002598733 18.019125953842657,4.8452977586022605" style="fill:none;stroke:black;stroke-width:1"/>
<polygon points="9.29772661057154,8.35875551620298 9.199988854495382,8.447531405802865 18.019125953842657,4.8452977586022605" style="fill:none;stroke:black;stroke-width:1"/>
<polygon points="9.199988854495382,8.447531405802865 9.099477713057885,8.539420794251111 18.019125953842657,4.8452977586022605" style="fill:none;stroke:black;stroke-width:1"/>
<polygon points="19.06754539187441,7.0889488287015485 13.162311107260987,6.852451486178664 18.830963377017227,6.6518828058413595" style="fill:none;stroke:black;stroke-width:1"/>
<polygon points="9.469968405384543,9.228337145328478 13.162311107260987,6.852451486178664 19.06754539187441,7.0889488287015485" style="fill:none;stroke:black;stroke-width:1"/>
<polygon points="17.811061855652984,9.219482679249133 22.46173857990542,22.37060650458696 18.693400359709713,9.54334514468051" style="fill:none;stroke:black;stroke-width:1"/>
<polygon points="17.253658267086244,7.470075088963991 17.333498850142266,8.25702636356483 17.1415083141841,10.2391988612775" style="fill:none;stroke:black;stroke-width:1"/>
<polygon points="17.333498850142266,8.25702636356483 17.506849992389608,11.106993869342553 17.1415083141841,10.2391988612775" style="fill:none;stroke:black;stroke-width:1"/>
<polygon points="17.407804251137982,6.782246183463978 16.799878193661538,8.639937489733292 16.079489632332482,6.636195276534863" style="fill:none;stroke:black;stroke-width:1"/>
<polygon points="16.834885197889115,6.6325476397812055 17.407804251137982,6.782246183463978 16.079489632332482,6.636195276534863" style="fill:none;stroke:black;stroke-width:1"/>
<polygon points="23.854416659268463,19.957367023189416 23.782872649973825,19.79862367049215 18.934425646706224,7.810571728215014" style="fill:none;stroke:black;stroke-width:1"/>
<polygon points="23.782872649973825,19.79862367049215 23.676641273828768,19.661479745228906 18.934425646706224,7.810571728215014" style="fill:none;stroke:black;stroke-width:1"/>
<polygon points="23.782872649973825,19.79862367049215 23.87709684412543,20.307934530908824 23.676641273828768,19.661479745228906" style="fill:none;stroke:black;stroke-width:1"/>
<polygon points="23.88658974438372,20.13059005200619 23.782872649973825,19.79862367049215 23.854416659268463,19.957367023189416" style="fill:none;stroke:black;stroke-width:1"/>
<polygon points="23.782872649973825,19.79862367049215 23.88658974438372,20.13059005200619 23.87709684412543,20.307934530908824" style="fill:none;stroke:black;stroke-width:1"/>
<polygon points="23.676641273828768,19.661479745228906 23.540582732875443,19.55187566070069 23.579922331136416,26.542946101589443" style="fill:none;stroke:black;stroke-width:1"/>
<polygon points="23.540582732875443,19.55187566070069 23.20689655172414,19.447931034482757 23.379557229156028,19.475751830208537" style="fill:none;stroke:black;stroke-width:1"/>
<polygon points="23.20689655172414,19.447931034482757 23.540582732875443,19.55187566070069 23.787157101978742,20.635930495985892" style="fill:none;stroke:black;stroke-width:1"/>
<polygon points="23.836786251058736,20.476634546658484 19.51190142950577,9.363153647895892 23.787157101978742,20.635930495985892" style="fill:none;stroke:black;stroke-width:1"/>
<polygon points="23.836786251058736,20.476634546658484 23.87709684412543,20.307934530908824 19.51190142950577,9.363153647895892" style="fill:none;stroke:black;stroke-width:1"/>
<polygon points="23.87709684412543,20.307934530908824 23.836786251058736,20.476634546658484 23.676641273828768,19.661479745228906" style="fill:none;stroke:black;stroke-width:1"/>
<polygon points="23.540582732875443,19.55187566070069 23.836786251058736,20.476634546658484 23.787157101978742,20.635930495985892" style="fill:none;stroke:black;stroke-width:1"/>
<polygon points="23.836786251058736,20.476634546658484 23.540582732875443,19.55187566070069 23.676641273828768,19.661479745228906" style="fill:none;stroke:black;stroke-width:1"/>
<polygon points="19.460819459089095,6.600257154684501 10.800204389625625,8.670538847565938 18.731544246291506,5.268283846021257" style="fill:none;stroke:black;stroke-width:1"/>
<polygon points="10.306472036498844,9.74780016026841 10.800204389625625,8.670538847565938 10.84519481985775,8.862104852449027" style="fill:none;stroke:black;stroke-width:1"/>
<polygon points="18.761627719298332,6.9065844640174285 19.460819459089095,6.600257154684501 18.913643398741996,5.656805473967147" style="fill:none;stroke:black;stroke-width:1"/>
<polygon points="17.98679506592629,6.424510797708827 18.761627719298332,6.9065844640174285 18.913643398741996,5.656805473967147" style="fill:none;stroke:black;stroke-width:1"/>
<polygon points="18.761627719298332,6.9065844640174285 10.800204389625625,8.670538847565938 19.460819459089095,6.600257154684501" style="fill:none;stroke:black;stroke-width:1"/>
<polygon points="10.800204389625625,8.670538847565938 18.761627719298332,6.9065844640174285 10.84519481985775,8.862104852449027" style="fill:none;stroke:black;stroke-width:1"/>
<polygon points="18.01007730776289,7.018715847076013 18.761627719298332,6.9065844640174285 17.98679506592629,6.424510797708827" style="fill:none;stroke:black;stroke-width:1"/>
<polygon points="9.410611607914166,10.450354338547214 8.996330420421728,8.63459002598733 9.099477713057885,8.539420794251111" style="fill:none;stroke:black;stroke-width:1"/>
<polygon points="9.392553747123678,8.27292678101184 9.29772661057154,8.35875551620298 18.019125953842657,4.8452977586022605" style="fill:none;stroke:black;stroke-width:1"/>
<polygon points="18.731544246291506,5.268283846021257 9.842928875806734,8.018219098219674 18.019125953842657,4.8452977586022605" style="fill:none;stroke:black;stroke-width:1"/>
<polygon points="9.994392169790364,8.01578205356592 9.842928875806734,8.018219098219674 18.731544246291506,5.268283846021257" style="fill:none;stroke:black;stroke-width:1"/>
<polygon points="17.3066341954954,10.882884219105446 13.082523882747928,12.135298473776773 19.06754539187441,7.0889488287015485" style="fill:none;stroke:black;stroke-width:1"/>
<polygon points="18.126053662071428,6.7034584999159215 12.336648645015066,24.601471793568447 12.441227970876836,24.547013573240097" style="fill:none;stroke:black;stroke-width:1"/>
<polygon points="21.69896648330614,22.01550675344795 17.811061855652984,9.219482679249133 17.506849992389608,11.106993869342553" style="fill:none;stroke:black;stroke-width:1"/>
<polygon points="17.333498850142266,8.25702636356483 21.69896648330614,22.01550675344795 17.506849992389608,11.106993869342553" style="fill:none;stroke:black;stroke-width:1"/>
<polygon points="17.407804251137982,6.782246183463978 17.01946554044187,9.498246257455918 16.799878193661538,8.639937489733292" style="fill:none;stroke:black;stroke-width:1"/>
<polygon points="17.01946554044187,9.498246257455918 17.407804251137982,6.782246183463978 17.253658267086244,7.470075088963991" style="fill:none;stroke:black;stroke-width:1"/>
<polygon points="17.01946554044187,9.498246257455918 17.253658267086244,7.470075088963991 17.1415083141841,10.2391988612775" style="fill:none;stroke:black;stroke-width:1"/>
<polygon points="17.01946554044187,9.498246257455918 17.1415083141841,10.2391988612775 16.66514534512542,5.783117599386387" style="fill:none;stroke:black;stroke-width:1"/>
<polygon points="16.799878193661538,8.639937489733292 17.01946554044187,9.498246257455918 16.66514534512542,5.783117599386387" style="fill:none;stroke:black;stroke-width:1"/>
<polygon points="23.17345488831506,21.978938428785668 23.25117326773496,21.844246953574185 18.693400359709713,9.54334514468051" style="fill:none;stroke:black;stroke-width:1"/>
<polygon points="23.25117326773496,21.844246953574185 23.31105324025715,21.712250240499323 18.693400359709713,9.54334514468051" style="fill:none;stroke:black;stroke-width:1"/>
<polygon points="23.25117326773496,21.844246953574185 23.17345488831506,21.978938428785668 22.17189291582588,20.10156980556998" style="fill:none;stroke:black;stroke-width:1"/>
<polygon points="23.430807728118435,21.448271089837164 23.49068497204908,21.31628151450609 18.693400359709713,9.54334514468051" style="fill:none;stroke:black;stroke-width:1"/>
<polygon points="23.430807728118435,21.448271089837164 22.541520956656598,19.61814389241637 23.49068497204908,21.31628151450609" style="fill:none;stroke:black;stroke-width:1"/>
<polygon points="23.67031670384101,20.92031278851286 23.730744116857483,20.784386397011037 18.693400359709713,9.54334514468051" style="fill:none;stroke:black;stroke-width:1"/>
<polygon points="23.610439459910364,21.052302363843935 23.67031670384101,20.92031278851286 18.693400359709713,9.54334514468051" style="fill:none;stroke:black;stroke-width:1"/>
<polygon points="23.67031670384101,20.92031278851286 23.20689655172414,19.447931034482757 23.730744116857483,20.784386397011037" style="fill:none;stroke:black;stroke-width:1"/>
<polygon points="23.49068497204908,21.31628151450609 23.550562215979724,21.184291939175015 18.693400359709713,9.54334514468051" style="fill:none;stroke:black;stroke-width:1"/>
<polygon points="23.550562215979724,21.184291939175015 23.610439459910364,21.052302363843935 18.693400359709713,9.54334514468051" style="fill:none;stroke:black;stroke-width:1"/>
<polygon points="23.20689655172414,19.447931034482757 7.300330684827156,24.336635701478976 23.379557229156028,19.475751830208537" style="fill:none;stroke:black;stroke-width:1"/>
<polygon points="23.17345488831506,21.978938428785668 22.112015671895236,20.233559380901056 22.17189291582588,20.10156980556998" style="fill:none;stroke:black;stroke-width:1"/>
<polygon points="23.069496212608374,22.09864763496693 22.112015671895236,20.233559380901056 23.17345488831506,21.978938428785668" style="fill:none;stroke:black;stroke-width:1"/>
<polygon points="22.79695397893297,22.281708187278227 21.932383940103307,20.629528106894284 21.992261184033946,20.497538531563208" style="fill:none;stroke:black;stroke-width:1"/>
<polygon points="11.5088681952374,23.838064507985223 17.333498850142266,8.25702636356483 17.253658267086244,7.470075088963991" style="fill:none;stroke:black;stroke-width:1"/>
<polygon points="11.610474347637311,23.786398283378198 11.5088681952374,23.838064507985223 17.253658267086244,7.470075088963991" style="fill:none;stroke:black;stroke-width:1"/>
<polygon points="25.12856607154641,17.700879370324408 26.315957908175456,19.83278957388199 18.126053662071428,6.7034584999159215" style="fill:none;stroke:black;stroke-width:1"/>
<polygon points="19.06754539187441,7.0889488287015485 26.88941693129722,16.01491671772017 23.32360550254281,16.672338243122617" style="fill:none;stroke:black;stroke-width:1"/>
<polygon points="26.88941693129722,16.01491671772017 19.06754539187441,7.0889488287015485 18.934425646706224,7.810571728215014" style="fill:none;stroke:black;stroke-width:1"/>
<polygon points="10.452842542278052,9.603236809387138 10.77548945963773,9.232960760810718 10.555651916812156,9.507175585245832" style="fill:none;stroke:black;stroke-width:1"/>
<polygon points="18.01007730776289,7.018715847076013 10.452842542278052,9.603236809387138 10.555651916812156,9.507175585245832" style="fill:none;stroke:black;stroke-width:1"/>
<polygon points="18.761627719298332,6.9065844640174285 10.836154361999387,9.053520999010697 10.84519481985775,8.862104852449027" style="fill:none;stroke:black;stroke-width:1"/>
<polygon points="10.836154361999387,9.053520999010697 18.761627719298332,6.9065844640174285 10.77548945963773,9.232960760810718" style="fill:none;stroke:black;stroke-width:1"/>
<polygon points="10.452842542278052,9.603236809387138 10.836154361999387,9.053520999010697 10.77548945963773,9.232960760810718" style="fill:none;stroke:black;stroke-width:1"/>
<polygon points="10.836154361999387,9.053520999010697 10.306472036498844,9.74780016026841 10.84519481985775,8.862104852449027" style="fill:none;stroke:black;stroke-width:1"/>
<polygon points="10.669867263754874,9.386946512965496 18.761627719298332,6.9065844640174285 18.01007730776289,7.018715847076013" style="fill:none;stroke:black;stroke-width:1"/>
<polygon points="18.761627719298332,6.9065844640174285 10.669867263754874,9.386946512965496 10.77548945963773,9.232960760810718" style="fill:none;stroke:black;stroke-width:1"/>
<polygon points="10.669867263754874,9.386946512965496 18.01007730776289,7.018715847076013 10.555651916812156,9.507175585245832" style="fill:none;stroke:black;stroke-width:1"/>
<polygon points="10.77548945963773,9.232960760810718 10.669867263754874,9.386946512965496 10.555651916812156,9.507175585245832" style="fill:none;stroke:black;stroke-width:1"/>
<polygon points="9.199988854495382,8.447531405802865 9.56987439382498,10.401593070109616 9.099477713057885,8.539420794251111" style="fill:none;stroke:black;stroke-width:1"/>
<polygon points="9.56987439382498,10.401593070109616 9.410611607914166,10.450354338547214 9.099477713057885,8.539420794251111" style="fill:none;stroke:black;stroke-width:1"/>
<polygon points="9.56987439382498,10.401593070109616 9.199988854495382,8.447531405802865 9.29772661057154,8.35875551620298" style="fill:none;stroke:black;stroke-width:1"/>
<polygon points="8.996330420421728,8.63459002598733 9.231171239376714,10.476685628744335 8.890684210749598,8.73320544545114" style="fill:none;stroke:black;stroke-width:1"/>
<polygon points="9.410611607914166,10.450354338547214 9.231171239376714,10.476685628744335 8.996330420421728,8.63459002598733" style="fill:none;stroke:black;stroke-width:1"/>
<polygon points="9.231171239376714,10.476685628744335 9.410611607914166,10.450354338547214 9.037851856771745,10.478833952366795" style="fill:none;stroke:black;stroke-width:1"/>
<polygon points="9.582418014402434,8.109055190152214 9.484333029989111,8.18987885578983 18.019125953842657,4.8452977586022605" style="fill:none;stroke:black;stroke-width:1"/>
<polygon points="9.484333029989111,8.18987885578983 9.392553747123678,8.27292678101184 18.019125953842657,4.8452977586022605" style="fill:none;stroke:black;stroke-width:1"/>
<polygon points="9.703707488840092,8.049995065115143 9.582418014402434,8.109055190152214 18.019125953842657,4.8452977586022605" style="fill:none;stroke:black;stroke-width:1"/>
<polygon points="9.842928875806734,8.018219098219674 9.703707488840092,8.049995065115143 18.019125953842657,4.8452977586022605" style="fill:none;stroke:black;stroke-width:1"/>
<polygon points="8.672443976948134,8.941440225319987 17.164472598729546,4.5522520985381485 19.164785835981696,4.44396378544651" style="fill:none;stroke:black;stroke-width:1"/>
<polygon points="8.672443976948134,8.941440225319987 8.560124421144167,9.05139227460425 17.164472598729546,4.5522520985381485" style="fill:none;stroke:black;stroke-width:1"/>
<polygon points="8.155141365293296,9.813406626418109 16.44386447469034,4.921152162853331 18.276062652089095,4.454723196118982" style="fill:none;stroke:black;stroke-width:1"/>
<polygon points="8.449210322657306,10.312608979481476 17.258526896227455,7.130847230134597 16.44386447469034,4.921152162853331" style="fill:none;stroke:black;stroke-width:1"/>
<polygon points="8.30172232924371,10.175341190208622 8.449210322657306,10.312608979481476 16.44386447469034,4.921152162853331" style="fill:none;stroke:black;stroke-width:1"/>
<polygon points="21.22183240371637,12.82456708714247 19.06754539187441,7.0889488287015485 23.32360550254281,16.672338243122617" style="fill:none;stroke:black;stroke-width:1"/>
<polygon points="21.22183240371637,12.82456708714247 17.3066341954954,10.882884219105446 19.06754539187441,7.0889488287015485" style="fill:none;stroke:black;stroke-width:1"/>
<polygon points="7.053161406415969,12.905216732143558 9.469968405384543,9.228337145328478 19.06754539187441,7.0889488287015485" style="fill:none;stroke:black;stroke-width:1"/>
<polygon points="7.1715709012184075,16.155520267540158 7.053161406415969,12.905216732143558 19.06754539187441,7.0889488287015485" style="fill:none;stroke:black;stroke-width:1"/>
<polygon points="13.082523882747928,12.135298473776773 10.86912618018886,15.846379334316453 19.06754539187441,7.0889488287015485" style="fill:none;stroke:black;stroke-width:1"/>
<polygon points="10.86912618018886,15.846379334316453 7.1715709012184075,16.155520267540158 19.06754539187441,7.0889488287015485" style="fill:none;stroke:black;stroke-width:1"/>
<polygon points="18.830963377017227,6.6518828058413595 10.62959824842403,25.26874466337011 17.738058632437465,6.521127441594649" style="fill:none;stroke:black;stroke-width:1"/>
<polygon points="12.117316568534514,24.717147801208423 12.228769660200374,24.658327356454002 18.126053662071428,6.7034584999159215" style="fill:none;stroke:black;stroke-width:1"/>
<polygon points="12.228769660200374,24.658327356454002 12.336648645015066,24.601471793568447 18.126053662071428,6.7034584999159215" style="fill:none;stroke:black;stroke-width:1"/>
<polygon points="12.002071287919339,24.777469679782527 12.117316568534514,24.717147801208423 18.126053662071428,6.7034584999159215" style="fill:none;stroke:black;stroke-width:1"/>
<polygon points="23.31105324025715,21.712250240499323 23.370930484187795,21.58026066516824 18.693400359709713,9.54334514468051" style="fill:none;stroke:black;stroke-width:1"/>
<polygon points="23.370930484187795,21.58026066516824 23.430807728118435,21.448271089837164 18.693400359709713,9.54334514468051" style="fill:none;stroke:black;stroke-width:1"/>
<polygon points="22.309289865664976,19.83686101668915 23.370930484187795,21.58026066516824 23.31105324025715,21.712250240499323" style="fill:none;stroke:black;stroke-width:1"/>
<polygon points="22.541520956656598,19.61814389241637 22.68854365490184,19.537843272021057 23.49068497204908,21.31628151450609" style="fill:none;stroke:black;stroke-width:1"/>
<polygon points="22.68854365490184,19.537843272021057 23.550562215979724,21.184291939175015 23.49068497204908,21.31628151450609" style="fill:none;stroke:black;stroke-width:1"/>
<polygon points="4.790146201343213,15.888378330042599 22.68854365490184,19.537843272021057 6.019594377975803,11.588086200163726" style="fill:none;stroke:black;stroke-width:1"/>
<polygon points="22.68854365490184,19.537843272021057 22.541520956656598,19.61814389241637 6.019594377975803,11.588086200163726" style="fill:none;stroke:black;stroke-width:1"/>
<polygon points="22.23180544107043,19.969484544452726 23.25117326773496,21.844246953574185 22.17189291582588,20.10156980556998" style="fill:none;stroke:black;stroke-width:1"/>
<polygon points="23.25117326773496,21.844246953574185 22.23180544107043,19.969484544452726 23.31105324025715,21.712250240499323" style="fill:none;stroke:black;stroke-width:1"/>
<polygon points="22.23180544107043,19.969484544452726 22.309289865664976,19.83686101668915 23.31105324025715,21.712250240499323" style="fill:none;stroke:black;stroke-width:1"/>
<polygon points="5.23442518415765,20.423386567396143 7.300330684827156,24.336635701478976 23.20689655172414,19.447931034482757" style="fill:none;stroke:black;stroke-width:1"/>
<polygon points="14.861567294588177,28.678519684174425 23.540582732875443,19.55187566070069 23.379557229156028,19.475751830208537" style="fill:none;stroke:black;stroke-width:1"/>
<polygon points="12.439620452182304,5.937172893773017 22.23180544107043,19.969484544452726 11.132192544301226,24.867634707917826" style="fill:none;stroke:black;stroke-width:1"/>
<polygon points="21.872506696172664,20.76151768222536 22.46173857990542,22.37060650458696 21.812629452242017,20.893507257556436" style="fill:none;stroke:black;stroke-width:1"/>
<polygon points="22.052138427964593,20.365548956232132 22.112015671895236,20.233559380901056 23.069496212608374,22.09864763496693" style="fill:none;stroke:black;stroke-width:1"/>
<polygon points="22.79695397893297,22.281708187278227 22.63541842426342,22.339354006927984 21.932383940103307,20.629528106894284" style="fill:none;stroke:black;stroke-width:1"/>
<polygon points="21.872506696172664,20.76151768222536 22.63541842426342,22.339354006927984 22.46173857990542,22.37060650458696" style="fill:none;stroke:black;stroke-width:1"/>
<polygon points="22.63541842426342,22.339354006927984 21.872506696172664,20.76151768222536 21.932383940103307,20.629528106894284" style="fill:none;stroke:black;stroke-width:1"/>
<polygon points="22.46173857990542,22.37060650458696 22.63541842426342,22.339354006927984 18.693400359709713,9.54334514468051" style="fill:none;stroke:black;stroke-width:1"/>
<polygon points="22.63541842426342,22.339354006927984 22.79695397893297,22.281708187278227 18.693400359709713,9.54334514468051" style="fill:none;stroke:black;stroke-width:1"/>
<polygon points="17.407804251137982,6.782246183463978 12.555232285679804,23.367974996209085 17.253658267086244,7.470075088963991" style="fill:none;stroke:black;stroke-width:1"/>
<polygon points="17.333498850142266,8.25702636356483 11.217956569681341,23.97305754292131 21.64615990502429,21.33718549941081" style="fill:none;stroke:black;stroke-width:1"/>
<polygon points="15.045337625838881,22.531294559197047 18.126053662071428,6.7034584999159215 11.472564505556296,20.1009523629446" style="fill:none;stroke:black;stroke-width:1"/>
<polygon points="15.045337625838881,22.531294559197047 19.419822673017748,21.8561080292693 18.126053662071428,6.7034584999159215" style="fill:none;stroke:black;stroke-width:1"/>
<polygon points="22.08726204398959,18.48914577681474 25.12856607154641,17.700879370324408 18.126053662071428,6.7034584999159215" style="fill:none;stroke:black;stroke-width:1"/>
<polygon points="19.419822673017748,21.8561080292693 22.08726204398959,18.48914577681474 18.126053662071428,6.7034584999159215" style="fill:none;stroke:black;stroke-width:1"/>
<polygon points="26.315957908175456,19.83278957388199 24.15792420997015,23.701305613721523 18.126053662071428,6.7034584999159215" style="fill:none;stroke:black;stroke-width:1"/>
<polygon points="24.15792420997015,23.701305613721523 12.002071287919339,24.777469679782527 18.126053662071428,6.7034584999159215" style="fill:none;stroke:black;stroke-width:1"/>
<polygon points="23.276396571179873,8.837130367353023 26.06928005127635,12.194072121814335 18.934425646706224,7.810571728215014" style="fill:none;stroke:black;stroke-width:1"/>
<polygon points="26.06928005127635,12.194072121814335 26.88941693129722,16.01491671772017 18.934425646706224,7.810571728215014" style="fill:none;stroke:black;stroke-width:1"/>
<polygon points="23.579922331136416,26.542946101589443 26.544229050003132,23.35368494496305 18.934425646706224,7.810571728215014" style="fill:none;stroke:black;stroke-width:1"/>
<polygon points="26.544229050003132,23.35368494496305 28.155352812136393,19.21644602719186 18.934425646706224,7.810571728215014" style="fill:none;stroke:black;stroke-width:1"/>
<polygon points="19.30820514936125,6.881139349074354 23.276396571179873,8.837130367353023 18.934425646706224,7.810571728215014" style="fill:none;stroke:black;stroke-width:1"/>
<polygon points="28.155352812136393,19.21644602719186 19.30820514936125,6.881139349074354 18.934425646706224,7.810571728215014" style="fill:none;stroke:black;stroke-width:1"/>
<polygon points="10.465333706544524,8.205052090726175 10.311284456760582,8.107143787384016 18.731544246291506,5.268283846021257" style="fill:none;stroke:black;stroke-width:1"/>
<polygon points="10.800204389625625,8.670538847565938 10.71785439812735,8.492956954247338 18.731544246291506,5.268283846021257" style="fill:none;stroke:black;stroke-width:1"/>
<polygon points="10.71785439812735,8.492956954247338 10.800204389625625,8.670538847565938 10.306472036498844,9.74780016026841" style="fill:none;stroke:black;stroke-width:1"/>
<polygon points="10.836154361999387,9.053520999010697 10.367762414656639,9.681346959152698 10.306472036498844,9.74780016026841" style="fill:none;stroke:black;stroke-width:1"/>
<polygon points="10.367762414656639,9.681346959152698 10.836154361999387,9.053520999010697 10.452842542278052,9.603236809387138" style="fill:none;stroke:black;stroke-width:1"/>
<polygon points="10.367762414656639,9.681346959152698 10.452842542278052,9.603236809387138 18.01007730776289,7.018715847076013" style="fill:none;stroke:black;stroke-width:1"/>
<polygon points="10.367762414656639,9.681346959152698 18.01007730776289,7.018715847076013 17.258526896227455,7.130847230134597" style="fill:none;stroke:black;stroke-width:1"/>
<polygon points="10.306472036498844,9.74780016026841 10.367762414656639,9.681346959152698 17.258526896227455,7.130847230134597" style="fill:none;stroke:black;stroke-width:1"/>
<polygon points="9.392553747123678,8.27292678101184 9.70266102855003,10.332154811765715 9.29772661057154,8.35875551620298" style="fill:none;stroke:black;stroke-width:1"/>
<polygon points="9.70266102855003,10.332154811765715 9.56987439382498,10.401593070109616 9.29772661057154,8.35875551620298" style="fill:none;stroke:black;stroke-width:1"/>
<polygon points="8.672443976948134,8.941440225319987 8.782676318204171,8.835433397082156 9.037851856771745,10.478833952366795" style="fill:none;stroke:black;stroke-width:1"/>
<polygon points="9.231171239376714,10.476685628744335 8.782676318204171,8.835433397082156 8.890684210749598,8.73320544545114" style="fill:none;stroke:black;stroke-width:1"/>
<polygon points="8.782676318204171,8.835433397082156 9.231171239376714,10.476685628744335 9.037851856771745,10.478833952366795" style="fill:none;stroke:black;stroke-width:1"/>
<polygon points="8.890684210749598,8.73320544545114 8.782676318204171,8.835433397082156 19.164785835981696,4.44396378544651" style="fill:none;stroke:black;stroke-width:1"/>
<polygon points="8.782676318204171,8.835433397082156 8.672443976948134,8.941440225319987 19.164785835981696,4.44396378544651" style="fill:none;stroke:black;stroke-width:1"/>
<polygon points="8.201395545747069,10.004989347561812 8.30172232924371,10.175341190208622 16.44386447469034,4.921152162853331" style="fill:none;stroke:black;stroke-width:1"/>
<polygon points="8.155141365293296,9.813406626418109 8.201395545747069,10.004989347561812 16.44386447469034,4.921152162853331" style="fill:none;stroke:black;stroke-width:1"/>
<polygon points="8.201395545747069,10.004989347561812 8.155141365293296,9.813406626418109 8.30172232924371,10.175341190208622" style="fill:none;stroke:black;stroke-width:1"/>
<polygon points="8.449210322657306,10.312608979481476 8.636896551724139,10.405172413793103 17.258526896227455,7.130847230134597" style="fill:none;stroke:black;stroke-width:1"/>
<polygon points="8.636896551724139,10.405172413793103 10.306472036498844,9.74780016026841 17.258526896227455,7.130847230134597" style="fill:none;stroke:black;stroke-width:1"/>
<polygon points="8.636896551724139,10.405172413793103 8.449210322657306,10.312608979481476 8.226058109514526,9.442281091161776" style="fill:none;stroke:black;stroke-width:1"/>
<polygon points="8.636896551724139,10.405172413793103 9.70266102855003,10.332154811765715 10.306472036498844,9.74780016026841" style="fill:none;stroke:black;stroke-width:1"/>
<polygon points="9.70266102855003,10.332154811765715 8.636896551724139,10.405172413793103 9.56987439382498,10.401593070109616" style="fill:none;stroke:black;stroke-width:1"/>
<polygon points="8.155141365293296,9.813406626418109 8.164986063053618,9.621058537845528 8.30172232924371,10.175341190208622" style="fill:none;stroke:black;stroke-width:1"/>
<polygon points="8.164986063053618,9.621058537845528 8.449210322657306,10.312608979481476 8.30172232924371,10.175341190208622" style="fill:none;stroke:black;stroke-width:1"/>
<polygon points="8.449210322657306,10.312608979481476 8.164986063053618,9.621058537845528 8.226058109514526,9.442281091161776" style="fill:none;stroke:black;stroke-width:1"/>
<polygon points="8.164986063053618,9.621058537845528 8.155141365293296,9.813406626418109 18.276062652089095,4.454723196118982" style="fill:none;stroke:black;stroke-width:1"/>
<polygon points="17.164472598729546,4.5522520985381485 8.164986063053618,9.621058537845528 18.276062652089095,4.454723196118982" style="fill:none;stroke:black;stroke-width:1"/>
<polygon points="8.226058109514526,9.442281091161776 8.164986063053618,9.621058537845528 17.164472598729546,4.5522520985381485" style="fill:none;stroke:black;stroke-width:1"/>
<polygon points="18.963387068753352,20.980853040167453 14.561284492032012,20.988619844089783 18.830963377017227,6.6518828058413595" style="fill:none;stroke:black;stroke-width:1"/>
<polygon points="20.70151649542163,14.013914869688842 14.77165311332214,26.938527594651333 18.830963377017227,6.6518828058413595" style="fill:none;stroke:black;stroke-width:1"/>
<polygon points="14.77165311332214,26.938527594651333 10.62959824842403,25.26874466337011 18.830963377017227,6.6518828058413595" style="fill:none;stroke:black;stroke-width:1"/>
<polygon points="21.940732888746858,22.26275315125453 22.101548723974958,22.339199098026768 17.811061855652984,9.219482679249133" style="fill:none;stroke:black;stroke-width:1"/>
<polygon points="21.69896648330614,22.01550675344795 21.80491874117653,22.152875565294586 17.811061855652984,9.219482679249133" style="fill:none;stroke:black;stroke-width:1"/>
<polygon points="21.80491874117653,22.152875565294586 21.940732888746858,22.26275315125453 17.811061855652984,9.219482679249133" style="fill:none;stroke:black;stroke-width:1"/>
<polygon points="21.940732888746858,22.26275315125453 21.80491874117653,22.152875565294586 21.64615990502429,21.33718549941081" style="fill:none;stroke:black;stroke-width:1"/>
<polygon points="21.60578799332862,21.505812922371227 17.333498850142266,8.25702636356483 21.64615990502429,21.33718549941081" style="fill:none;stroke:black;stroke-width:1"/>
<polygon points="21.60578799332862,21.505812922371227 21.59591180012062,21.68323644331219 17.333498850142266,8.25702636356483" style="fill:none;stroke:black;stroke-width:1"/>
<polygon points="21.59591180012062,21.68323644331219 21.60578799332862,21.505812922371227 21.69896648330614,22.01550675344795" style="fill:none;stroke:black;stroke-width:1"/>
<polygon points="21.80491874117653,22.152875565294586 21.60578799332862,21.505812922371227 21.64615990502429,21.33718549941081" style="fill:none;stroke:black;stroke-width:1"/>
<polygon points="21.60578799332862,21.505812922371227 21.80491874117653,22.152875565294586 21.69896648330614,22.01550675344795" style="fill:none;stroke:black;stroke-width:1"/>
<polygon points="21.62773631717785,21.856587129015658 21.69896648330614,22.01550675344795 17.333498850142266,8.25702636356483" style="fill:none;stroke:black;stroke-width:1"/>
<polygon points="21.59591180012062,21.68323644331219 21.62773631717785,21.856587129015658 17.333498850142266,8.25702636356483" style="fill:none;stroke:black;stroke-width:1"/>
<polygon points="21.62773631717785,21.856587129015658 21.59591180012062,21.68323644331219 21.69896648330614,22.01550675344795" style="fill:none;stroke:black;stroke-width:1"/>
<polygon points="22.41381569888567,19.718781969991383 23.370930484187795,21.58026066516824 22.309289865664976,19.83686101668915" style="fill:none;stroke:black;stroke-width:1"/>
<polygon points="22.541520956656598,19.61814389241637 22.41381569888567,19.718781969991383 6.019594377975803,11.588086200163726" style="fill:none;stroke:black;stroke-width:1"/>
<polygon points="23.430807728118435,21.448271089837164 22.41381569888567,19.718781969991383 22.541520956656598,19.61814389241637" style="fill:none;stroke:black;stroke-width:1"/>
<polygon points="23.370930484187795,21.58026066516824 22.41381569888567,19.718781969991383 23.430807728118435,21.448271089837164" style="fill:none;stroke:black;stroke-width:1"/>
<polygon points="23.550562215979724,21.184291939175015 22.851021809545458,19.480776596862388 23.610439459910364,21.052302363843935" style="fill:none;stroke:black;stroke-width:1"/>
<polygon points="22.68854365490184,19.537843272021057 22.851021809545458,19.480776596862388 23.550562215979724,21.184291939175015" style="fill:none;stroke:black;stroke-width:1"/>
<polygon points="5.23442518415765,20.423386567396143 22.851021809545458,19.480776596862388 4.790146201343213,15.888378330042599" style="fill:none;stroke:black;stroke-width:1"/>
<polygon points="22.851021809545458,19.480776596862388 22.68854365490184,19.537843272021057 4.790146201343213,15.888378330042599" style="fill:none;stroke:black;stroke-width:1"/>
<polygon points="7.300330684827156,24.336635701478976 10.627011465074128,27.205857241888395 23.379557229156028,19.475751830208537" style="fill:none;stroke:black;stroke-width:1"/>
<polygon points="10.627011465074128,27.205857241888395 14.861567294588177,28.678519684174425 23.379557229156028,19.475751830208537" style="fill:none;stroke:black;stroke-width:1"/>
<polygon points="23.540582732875443,19.55187566070069 19.548300046644602,28.433110696197502 23.579922331136416,26.542946101589443" style="fill:none;stroke:black;stroke-width:1"/>
<polygon points="14.861567294588177,28.678519684174425 19.548300046644602,28.433110696197502 23.540582732875443,19.55187566070069" style="fill:none;stroke:black;stroke-width:1"/>
<polygon points="22.41381569888567,19.718781969991383 8.664418432680636,8.153903706461406 6.019594377975803,11.588086200163726" style="fill:none;stroke:black;stroke-width:1"/>
<polygon points="8.664418432680636,8.153903706461406 22.41381569888567,19.718781969991383 22.309289865664976,19.83686101668915" style="fill:none;stroke:black;stroke-width:1"/>
<polygon points="22.23180544107043,19.969484544452726 8.664418432680636,8.153903706461406 22.309289865664976,19.83686101668915" style="fill:none;stroke:black;stroke-width:1"/>
<polygon points="12.439620452182304,5.937172893773017 8.664418432680636,8.153903706461406 22.23180544107043,19.969484544452726" style="fill:none;stroke:black;stroke-width:1"/>
<polygon points="22.94282124226448,22.20052180887783 22.79695397893297,22.281708187278227 21.992261184033946,20.497538531563208" style="fill:none;stroke:black;stroke-width:1"/>
<polygon points="22.052138427964593,20.365548956232132 22.94282124226448,22.20052180887783 21.992261184033946,20.497538531563208" style="fill:none;stroke:black;stroke-width:1"/>
<polygon points="22.94282124226448,22.20052180887783 22.052138427964593,20.365548956232132 23.069496212608374,22.09864763496693" style="fill:none;stroke:black;stroke-width:1"/>
<polygon points="22.94282124226448,22.20052180887783 23.069496212608374,22.09864763496693 18.693400359709713,9.54334514468051" style="fill:none;stroke:black;stroke-width:1"/>
<polygon points="22.79695397893297,22.281708187278227 22.94282124226448,22.20052180887783 18.693400359709713,9.54334514468051" style="fill:none;stroke:black;stroke-width:1"/>
<polygon points="13.129178093480299,24.0883523746885 17.407804251137982,6.782246183463978 16.834885197889115,6.6325476397812055" style="fill:none;stroke:black;stroke-width:1"/>
<polygon points="13.080993725764895,24.181573140690542 13.129178093480299,24.0883523746885 16.834885197889115,6.6325476397812055" style="fill:none;stroke:black;stroke-width:1"/>
<polygon points="11.313040913585375,23.931668044094796 11.217956569681341,23.97305754292131 17.333498850142266,8.25702636356483" style="fill:none;stroke:black;stroke-width:1"/>
<polygon points="10.152407365278982,8.044738695253997 9.994392169790364,8.01578205356592 18.731544246291506,5.268283846021257" style="fill:none;stroke:black;stroke-width:1"/>
<polygon points="10.311284456760582,8.107143787384016 10.152407365278982,8.044738695253997 18.731544246291506,5.268283846021257" style="fill:none;stroke:black;stroke-width:1"/>
<polygon points="10.605446494490218,8.336051030074131 10.465333706544524,8.205052090726175 18.731544246291506,5.268283846021257" style="fill:none;stroke:black;stroke-width:1"/>
<polygon points="10.71785439812735,8.492956954247338 10.605446494490218,8.336051030074131 18.731544246291506,5.268283846021257" style="fill:none;stroke:black;stroke-width:1"/>
<polygon points="9.484333029989111,8.18987885578983 9.803873555855754,10.247449917017347 9.392553747123678,8.27292678101184" style="fill:none;stroke:black;stroke-width:1"/>
<polygon points="9.803873555855754,10.247449917017347 9.70266102855003,10.332154811765715 9.392553747123678,8.27292678101184" style="fill:none;stroke:black;stroke-width:1"/>
<polygon points="9.803873555855754,10.247449917017347 9.484333029989111,8.18987885578983 9.582418014402434,8.109055190152214" style="fill:none;stroke:black;stroke-width:1"/>
<polygon points="9.70266102855003,10.332154811765715 9.803873555855754,10.247449917017347 10.306472036498844,9.74780016026841" style="fill:none;stroke:black;stroke-width:1"/>
<polygon points="8.83841293809062,10.454481604047482 8.672443976948134,8.941440225319987 9.037851856771745,10.478833952366795" style="fill:none;stroke:black;stroke-width:1"/>
<polygon points="8.672443976948134,8.941440225319987 8.83841293809062,10.454481604047482 8.560124421144167,9.05139227460425" style="fill:none;stroke:black;stroke-width:1"/>
<polygon points="9.410611607914166,10.450354338547214 8.83841293809062,10.454481604047482 9.037851856771745,10.478833952366795" style="fill:none;stroke:black;stroke-width:1"/>
<polygon points="9.56987439382498,10.401593070109616 8.83841293809062,10.454481604047482 9.410611607914166,10.450354338547214" style="fill:none;stroke:black;stroke-width:1"/>
<polygon points="8.636896551724139,10.405172413793103 8.83841293809062,10.454481604047482 9.56987439382498,10.401593070109616" style="fill:none;stroke:black;stroke-width:1"/>
<polygon points="8.560124421144167,9.05139227460425 8.44585488495495,9.165455889374561 17.164472598729546,4.5522520985381485" style="fill:none;stroke:black;stroke-width:1"/>
<polygon points="8.83841293809062,10.454481604047482 8.44585488495495,9.165455889374561 8.560124421144167,9.05139227460425" style="fill:none;stroke:black;stroke-width:1"/>
<polygon points="8.44585488495495,9.165455889374561 8.83841293809062,10.454481604047482 8.636896551724139,10.405172413793103" style="fill:none;stroke:black;stroke-width:1"/>
<polygon points="13.162311107260987,6.852451486178664 21.5352907525541,17.582230270092648 18.830963377017227,6.6518828058413595" style="fill:none;stroke:black;stroke-width:1"/>
<polygon points="21.5352907525541,17.582230270092648 18.963387068753352,20.980853040167453 18.830963377017227,6.6518828058413595" style="fill:none;stroke:black;stroke-width:1"/>
<polygon points="17.07222928797366,11.777800653010344 20.70151649542163,14.013914869688842 18.830963377017227,6.6518828058413595" style="fill:none;stroke:black;stroke-width:1"/>
<polygon points="13.068309314015304,13.370772338762851 17.07222928797366,11.777800653010344 18.830963377017227,6.6518828058413595" style="fill:none;stroke:black;stroke-width:1"/>
<polygon points="14.561284492032012,20.988619844089783 11.937194058122476,17.567955725956633 18.830963377017227,6.6518828058413595" style="fill:none;stroke:black;stroke-width:1"/>
<polygon points="11.937194058122476,17.567955725956633 13.068309314015304,13.370772338762851 18.830963377017227,6.6518828058413595" style="fill:none;stroke:black;stroke-width:1"/>
<polygon points="9.430821185898413,17.338059282588567 11.472564505556296,20.1009523629446 17.738058632437465,6.521127441594649" style="fill:none;stroke:black;stroke-width:1"/>
<polygon points="6.061643066965577,17.926303086698397 9.430821185898413,17.338059282588567 17.738058632437465,6.521127441594649" style="fill:none;stroke:black;stroke-width:1"/>
<polygon points="10.62959824842403,25.26874466337011 7.580188800476467,22.11841469094456 17.738058632437465,6.521127441594649" style="fill:none;stroke:black;stroke-width:1"/>
<polygon points="7.580188800476467,22.11841469094456 6.061643066965577,17.926303086698397 17.738058632437465,6.521127441594649" style="fill:none;stroke:black;stroke-width:1"/>
<polygon points="22.46173857990542,22.37060650458696 22.282649567494552,22.375517241379306 21.812629452242017,20.893507257556436" style="fill:none;stroke:black;stroke-width:1"/>
<polygon points="22.282649567494552,22.375517241379306 21.752202039225548,21.029433649058262 21.812629452242017,20.893507257556436" style="fill:none;stroke:black;stroke-width:1"/>
<polygon points="22.282649567494552,22.375517241379306 22.46173857990542,22.37060650458696 17.811061855652984,9.219482679249133" style="fill:none;stroke:black;stroke-width:1"/>
<polygon points="22.101548723974958,22.339199098026768 22.282649567494552,22.375517241379306 17.811061855652984,9.219482679249133" style="fill:none;stroke:black;stroke-width:1"/>
<polygon points="22.282649567494552,22.375517241379306 22.101548723974958,22.339199098026768 21.940732888746858,22.26275315125453" style="fill:none;stroke:black;stroke-width:1"/>
<polygon points="22.851021809545458,19.480776596862388 23.025093436511536,19.449840354997306 23.610439459910364,21.052302363843935" style="fill:none;stroke:black;stroke-width:1"/>
<polygon points="23.67031670384101,20.92031278851286 23.025093436511536,19.449840354997306 23.20689655172414,19.447931034482757" style="fill:none;stroke:black;stroke-width:1"/>
<polygon points="23.025093436511536,19.449840354997306 23.67031670384101,20.92031278851286 23.610439459910364,21.052302363843935" style="fill:none;stroke:black;stroke-width:1"/>
<polygon points="23.025093436511536,19.449840354997306 5.23442518415765,20.423386567396143 23.20689655172414,19.447931034482757" style="fill:none;stroke:black;stroke-width:1"/>
<polygon points="23.025093436511536,19.449840354997306 22.851021809545458,19.480776596862388 5.23442518415765,20.423386567396143" style="fill:none;stroke:black;stroke-width:1"/>
<polygon points="13.013604666647012,24.260054496447914 13.080993725764895,24.181573140690542 16.834885197889115,6.6325476397812055" style="fill:none;stroke:black;stroke-width:1"/>
<polygon points="18.126053662071428,6.7034584999159215 12.738661404928774,24.4017438125235 16.834885197889115,6.6325476397812055" style="fill:none;stroke:black;stroke-width:1"/>
<polygon points="12.738661404928774,24.4017438125235 12.833745748832806,24.360354313696984 16.834885197889115,6.6325476397812055" style="fill:none;stroke:black;stroke-width:1"/>
<polygon points="13.015807090722085,23.549698452438896 12.91980641069684,23.47018813111348 17.407804251137982,6.782246183463978" style="fill:none;stroke:black;stroke-width:1"/>
<polygon points="12.91980641069684,23.47018813111348 12.808091748658123,23.412091236593888 17.407804251137982,6.782246183463978" style="fill:none;stroke:black;stroke-width:1"/>
<polygon points="12.685105147840844,23.377374832779562 12.555232285679804,23.367974996209085 17.407804251137982,6.782246183463978" style="fill:none;stroke:black;stroke-width:1"/>
<polygon points="12.808091748658123,23.412091236593888 12.685105147840844,23.377374832779562 17.407804251137982,6.782246183463978" style="fill:none;stroke:black;stroke-width:1"/>
<polygon points="11.5088681952374,23.838064507985223 11.4098618420867,23.88658811514719 17.333498850142266,8.25702636356483" style="fill:none;stroke:black;stroke-width:1"/>
<polygon points="11.4098618420867,23.88658811514719 11.313040913585375,23.931668044094796 17.333498850142266,8.25702636356483" style="fill:none;stroke:black;stroke-width:1"/>
<polygon points="22.282649567494552,22.375517241379306 21.69578905410428,21.17788955008341 21.752202039225548,21.029433649058262" style="fill:none;stroke:black;stroke-width:1"/>
<polygon points="21.69578905410428,21.17788955008341 21.940732888746858,22.26275315125453 21.64615990502429,21.33718549941081" style="fill:none;stroke:black;stroke-width:1"/>
<polygon points="21.69578905410428,21.17788955008341 22.282649567494552,22.375517241379306 21.940732888746858,22.26275315125453" style="fill:none;stroke:black;stroke-width:1"/>
<polygon points="11.217956569681341,23.97305754292131 11.12284387458881,24.0140436156281 21.64615990502429,21.33718549941081" style="fill:none;stroke:black;stroke-width:1"/>
<polygon points="11.12284387458881,24.0140436156281 21.69578905410428,21.17788955008341 21.64615990502429,21.33718549941081" style="fill:none;stroke:black;stroke-width:1"/>
<polygon points="21.69578905410428,21.17788955008341 11.12284387458881,24.0140436156281 11.038467530167566,24.074212283278037" style="fill:none;stroke:black;stroke-width:1"/>
<polygon points="10.89356464128485,24.461685066473244 21.872506696172664,20.76151768222536 21.812629452242017,20.893507257556436" style="fill:none;stroke:black;stroke-width:1"/>
<polygon points="9.703707488840092,8.049995065115143 9.892104776359046,10.167304911344393 9.582418014402434,8.109055190152214" style="fill:none;stroke:black;stroke-width:1"/>
<polygon points="9.892104776359046,10.167304911344393 9.803873555855754,10.247449917017347 9.582418014402434,8.109055190152214" style="fill:none;stroke:black;stroke-width:1"/>
<polygon points="9.803873555855754,10.247449917017347 9.892104776359046,10.167304911344393 10.306472036498844,9.74780016026841" style="fill:none;stroke:black;stroke-width:1"/>
<polygon points="8.330588457020683,9.288450045695177 8.636896551724139,10.405172413793103 8.226058109514526,9.442281091161776" style="fill:none;stroke:black;stroke-width:1"/>
<polygon points="8.330588457020683,9.288450045695177 8.44585488495495,9.165455889374561 8.636896551724139,10.405172413793103" style="fill:none;stroke:black;stroke-width:1"/>
<polygon points="8.330588457020683,9.288450045695177 8.226058109514526,9.442281091161776 17.164472598729546,4.5522520985381485" style="fill:none;stroke:black;stroke-width:1"/>
<polygon points="8.44585488495495,9.165455889374561 8.330588457020683,9.288450045695177 17.164472598729546,4.5522520985381485" style="fill:none;stroke:black;stroke-width:1"/>
<polygon points="12.833745748832806,24.360354313696984 12.92887493818347,24.319669327823636 16.834885197889115,6.6325476397812055" style="fill:none;stroke:black;stroke-width:1"/>
<polygon points="12.92887493818347,24.319669327823636 13.013604666647012,24.260054496447914 16.834885197889115,6.6325476397812055" style="fill:none;stroke:black;stroke-width:1"/>
<polygon points="12.641840476427447,24.446823741471103 18.126053662071428,6.7034584999159215 12.542834123276752,24.495347348633075" style="fill:none;stroke:black;stroke-width:1"/>
<polygon points="12.641840476427447,24.446823741471103 12.738661404928774,24.4017438125235 18.126053662071428,6.7034584999159215" style="fill:none;stroke:black;stroke-width:1"/>
<polygon points="13.09159970790613,23.648617329146486 13.015807090722085,23.549698452438896 17.407804251137982,6.782246183463978" style="fill:none;stroke:black;stroke-width:1"/>
<polygon points="13.139754351967174,23.760568901221255 13.09159970790613,23.648617329146486 17.407804251137982,6.782246183463978" style="fill:none;stroke:black;stroke-width:1"/>
<polygon points="13.160448458487377,23.87388110550642 13.139754351967174,23.760568901221255 17.407804251137982,6.782246183463978" style="fill:none;stroke:black;stroke-width:1"/>
<polygon points="11.715053673499083,23.731940063049855 11.610474347637311,23.786398283378198 17.253658267086244,7.470075088963991" style="fill:none;stroke:black;stroke-width:1"/>
<polygon points="11.822932658313773,23.675084500164296 11.715053673499083,23.731940063049855 17.253658267086244,7.470075088963991" style="fill:none;stroke:black;stroke-width:1"/>
<polygon points="12.049631030594808,23.555942176835767 11.934385749979636,23.616264055409875 17.253658267086244,7.470075088963991" style="fill:none;stroke:black;stroke-width:1"/>
<polygon points="11.934385749979636,23.616264055409875 11.822932658313773,23.675084500164296 17.253658267086244,7.470075088963991" style="fill:none;stroke:black;stroke-width:1"/>
<polygon points="12.555232285679804,23.367974996209085 12.422799034524733,23.385804124912816 17.253658267086244,7.470075088963991" style="fill:none;stroke:black;stroke-width:1"/>
<polygon points="12.422799034524733,23.385804124912816 12.292068965517242,23.432758620689654 17.253658267086244,7.470075088963991" style="fill:none;stroke:black;stroke-width:1"/>
<polygon points="12.168826777172363,23.494605990999403 12.049631030594808,23.555942176835767 17.253658267086244,7.470075088963991" style="fill:none;stroke:black;stroke-width:1"/>
<polygon points="12.292068965517242,23.432758620689654 12.168826777172363,23.494605990999403 17.253658267086244,7.470075088963991" style="fill:none;stroke:black;stroke-width:1"/>
<polygon points="21.752202039225548,21.029433649058262 10.897159060090065,24.350923599341264 21.812629452242017,20.893507257556436" style="fill:none;stroke:black;stroke-width:1"/>
<polygon points="10.897159060090065,24.350923599341264 10.89356464128485,24.461685066473244 21.812629452242017,20.893507257556436" style="fill:none;stroke:black;stroke-width:1"/>
<polygon points="21.872506696172664,20.76151768222536 10.91487581524158,24.57509313061106 21.932383940103307,20.629528106894284" style="fill:none;stroke:black;stroke-width:1"/>
<polygon points="10.89356464128485,24.461685066473244 10.91487581524158,24.57509313061106 21.872506696172664,20.76151768222536" style="fill:none;stroke:black;stroke-width:1"/>
<polygon points="21.932383940103307,20.629528106894284 10.91487581524158,24.57509313061106 21.992261184033946,20.497538531563208" style="fill:none;stroke:black;stroke-width:1"/>
<polygon points="9.975361405078441,10.09068808308438 9.703707488840092,8.049995065115143 9.842928875806734,8.018219098219674" style="fill:none;stroke:black;stroke-width:1"/>
<polygon points="9.975361405078441,10.09068808308438 9.892104776359046,10.167304911344393 9.703707488840092,8.049995065115143" style="fill:none;stroke:black;stroke-width:1"/>
<polygon points="9.975361405078441,10.09068808308438 9.842928875806734,8.018219098219674 9.994392169790364,8.01578205356592" style="fill:none;stroke:black;stroke-width:1"/>
<polygon points="9.892104776359046,10.167304911344393 9.975361405078441,10.09068808308438 10.306472036498844,9.74780016026841" style="fill:none;stroke:black;stroke-width:1"/>
<polygon points="13.129178093480299,24.0883523746885 13.15628970892448,23.98445511750144 17.407804251137982,6.782246183463978" style="fill:none;stroke:black;stroke-width:1"/>
<polygon points="13.15628970892448,23.98445511750144 13.160448458487377,23.87388110550642 17.407804251137982,6.782246183463978" style="fill:none;stroke:black;stroke-width:1"/>
<polygon points="21.69578905410428,21.17788955008341 10.971484591770826,24.153155880025302 21.752202039225548,21.029433649058262" style="fill:none;stroke:black;stroke-width:1"/>
<polygon points="10.971484591770826,24.153155880025302 21.69578905410428,21.17788955008341 11.038467530167566,24.074212283278037" style="fill:none;stroke:black;stroke-width:1"/>
<polygon points="10.963207193189492,24.687553178350377 22.052138427964593,20.365548956232132 21.992261184033946,20.497538531563208" style="fill:none;stroke:black;stroke-width:1"/>
<polygon points="10.91487581524158,24.57509313061106 10.963207193189492,24.687553178350377 21.992261184033946,20.497538531563208" style="fill:none;stroke:black;stroke-width:1"/>
<polygon points="22.052138427964593,20.365548956232132 10.963207193189492,24.687553178350377 22.112015671895236,20.233559380901056" style="fill:none;stroke:black;stroke-width:1"/>
<polygon points="10.152407365278982,8.044738695253997 10.053341909573419,10.017235819588452 9.994392169790364,8.01578205356592" style="fill:none;stroke:black;stroke-width:1"/>
<polygon points="10.053341909573419,10.017235819588452 9.975361405078441,10.09068808308438 9.994392169790364,8.01578205356592" style="fill:none;stroke:black;stroke-width:1"/>
<polygon points="9.975361405078441,10.09068808308438 10.053341909573419,10.017235819588452 10.306472036498844,9.74780016026841" style="fill:none;stroke:black;stroke-width:1"/>
<polygon points="10.923759081455412,24.24674729173293 10.897159060090065,24.350923599341264 21.752202039225548,21.029433649058262" style="fill:none;stroke:black;stroke-width:1"/>
<polygon points="10.971484591770826,24.153155880025302 10.923759081455412,24.24674729173293 21.752202039225548,21.029433649058262" style="fill:none;stroke:black;stroke-width:1"/>
<polygon points="11.037455410956632,24.787767180949054 22.23180544107043,19.969484544452726 22.17189291582588,20.10156980556998" style="fill:none;stroke:black;stroke-width:1"/>
<polygon points="22.23180544107043,19.969484544452726 11.037455410956632,24.787767180949054 11.132192544301226,24.867634707917826" style="fill:none;stroke:black;stroke-width:1"/>
<polygon points="22.112015671895236,20.233559380901056 11.037455410956632,24.787767180949054 22.17189291582588,20.10156980556998" style="fill:none;stroke:black;stroke-width:1"/>
<polygon points="10.963207193189492,24.687553178350377 11.037455410956632,24.787767180949054 22.112015671895236,20.233559380901056" style="fill:none;stroke:black;stroke-width:1"/>
<polygon points="10.125744757403464,9.946584508207748 10.152407365278982,8.044738695253997 10.311284456760582,8.107143787384016" style="fill:none;stroke:black;stroke-width:1"/>
<polygon points="10.125744757403464,9.946584508207748 10.053341909573419,10.017235819588452 10.152407365278982,8.044738695253997" style="fill:none;stroke:black;stroke-width:1"/>
<polygon points="10.125744757403464,9.946584508207748 10.311284456760582,8.107143787384016 10.465333706544524,8.205052090726175" style="fill:none;stroke:black;stroke-width:1"/>
<polygon points="10.053341909573419,10.017235819588452 10.252611353306694,9.812230291196586 10.306472036498844,9.74780016026841" style="fill:none;stroke:black;stroke-width:1"/>
<polygon points="10.125744757403464,9.946584508207748 10.252611353306694,9.812230291196586 10.053341909573419,10.017235819588452" style="fill:none;stroke:black;stroke-width:1"/>
<polygon points="10.252611353306694,9.812230291196586 10.71785439812735,8.492956954247338 10.306472036498844,9.74780016026841" style="fill:none;stroke:black;stroke-width:1"/>
<polygon points="10.252611353306694,9.812230291196586 10.605446494490218,8.336051030074131 10.71785439812735,8.492956954247338" style="fill:none;stroke:black;stroke-width:1"/>
<polygon points="10.605446494490218,8.336051030074131 10.192268416128062,9.878370536293412 10.465333706544524,8.205052090726175" style="fill:none;stroke:black;stroke-width:1"/>
<polygon points="10.252611353306694,9.812230291196586 10.192268416128062,9.878370536293412 10.605446494490218,8.336051030074131" style="fill:none;stroke:black;stroke-width:1"/>
<polygon points="10.192268416128062,9.878370536293412 10.125744757403464,9.946584508207748 10.465333706544524,8.205052090726175" style="fill:none;stroke:black;stroke-width:1"/>
<polygon points="10.192268416128062,9.878370536293412 10.252611353306694,9.812230291196586 10.125744757403464,9.946584508207748" style="fill:none;stroke:black;stroke-width:1"/>
<polygon points="12.002071287919339,24.777469679782527 24.15792420997015,23.701305613721523 11.882875541341786,24.838805865618895" style="fill:none;stroke:black;stroke-width:1"/>
<polygon points="11.882875541341786,24.838805865618895 24.15792420997015,23.701305613721523 20.650220564905418,26.35070089915648" style="fill:none;stroke:black;stroke-width:1"/>
<polygon points="11.496514501035122,24.96738475522963 24.869107648456392,8.9495420294916 21.36160234745762,6.385935944390454" style="fill:none;stroke:black;stroke-width:1"/>
<polygon points="11.496514501035122,24.96738475522963 21.36160234745762,6.385935944390454 11.365950614141207,24.959185783580747" style="fill:none;stroke:black;stroke-width:1"/>
<polygon points="27.194220417491945,12.627662636866255 11.496514501035122,24.96738475522963 11.63082018272675,24.948275036628683" style="fill:none;stroke:black;stroke-width:1"/>
<polygon points="11.496514501035122,24.96738475522963 27.194220417491945,12.627662636866255 24.869107648456392,8.9495420294916" style="fill:none;stroke:black;stroke-width:1"/>
<polygon points="17.024807151403316,5.288928206203645 11.24310984792968,24.925360169529405 11.365950614141207,24.959185783580747" style="fill:none;stroke:black;stroke-width:1"/>
<polygon points="21.36160234745762,6.385935944390454 17.024807151403316,5.288928206203645 11.365950614141207,24.959185783580747" style="fill:none;stroke:black;stroke-width:1"/>
<polygon points="11.24310984792968,24.925360169529405 17.024807151403316,5.288928206203645 11.132192544301226,24.867634707917826" style="fill:none;stroke:black;stroke-width:1"/>
<polygon points="17.024807151403316,5.288928206203645 12.439620452182304,5.937172893773017 11.132192544301226,24.867634707917826" style="fill:none;stroke:black;stroke-width:1"/>
<polygon points="19.548300046644602,28.433110696197502 27.978275862068966,17.056206896551725 23.579922331136416,26.542946101589443" style="fill:none;stroke:black;stroke-width:1"/>
<polygon points="27.978275862068966,17.056206896551725 4.790146201343213,15.888378330042599 6.019594377975803,11.588086200163726" style="fill:none;stroke:black;stroke-width:1"/>
<polygon points="22.08726204398959,18.48914577681474 27.978275862068966,17.056206896551725 25.12856607154641,17.700879370324408" style="fill:none;stroke:black;stroke-width:1"/>
<polygon points="27.978275862068966,17.056206896551725 5.23442518415765,20.423386567396143 4.790146201343213,15.888378330042599" style="fill:none;stroke:black;stroke-width:1"/>
<polygon points="27.978275862068966,17.056206896551725 21.22183240371637,12.82456708714247 23.32360550254281,16.672338243122617" style="fill:none;stroke:black;stroke-width:1"/>
<polygon points="27.978275862068966,17.056206896551725 26.06928005127635,12.194072121814335 23.276396571179873,8.837130367353023" style="fill:none;stroke:black;stroke-width:1"/>
<polygon points="27.978275862068966,17.056206896551725 13.162311107260987,6.852451486178664 9.469968405384543,9.228337145328478" style="fill:none;stroke:black;stroke-width:1"/>
<polygon points="19.30820514936125,6.881139349074354 27.978275862068966,17.056206896551725 23.276396571179873,8.837130367353023" style="fill:none;stroke:black;stroke-width:1"/>
<polygon points="27.978275862068966,17.056206896551725 17.024807151403316,5.288928206203645 21.36160234745762,6.385935944390454" style="fill:none;stroke:black;stroke-width:1"/>
<polygon points="26.88941693129722,16.01491671772017 27.978275862068966,17.056206896551725 23.32360550254281,16.672338243122617" style="fill:none;stroke:black;stroke-width:1"/>
<polygon points="17.3066341954954,10.882884219105446 27.978275862068966,17.056206896551725 13.082523882747928,12.135298473776773" style="fill:none;stroke:black;stroke-width:1"/>
<polygon points="7.053161406415969,12.905216732143558 27.978275862068966,17.056206896551725 9.469968405384543,9.228337145328478" style="fill:none;stroke:black;stroke-width:1"/>
<polygon points="27.978275862068966,17.056206896551725 10.86912618018886,15.846379334316453 13.082523882747928,12.135298473776773" style="fill:none;stroke:black;stroke-width:1"/>
<polygon points="27.978275862068966,17.056206896551725 14.77165311332214,26.938527594651333 20.70151649542163,14.013914869688842" style="fill:none;stroke:black;stroke-width:1"/>
<polygon points="27.978275862068966,17.056206896551725 10.627011465074128,27.205857241888395 7.300330684827156,24.336635701478976" style="fill:none;stroke:black;stroke-width:1"/>
<polygon points="27.978275862068966,17.056206896551725 15.045337625838881,22.531294559197047 11.472564505556296,20.1009523629446" style="fill:none;stroke:black;stroke-width:1"/>
<polygon points="27.978275862068966,17.056206896551725 26.315957908175456,19.83278957388199 25.12856607154641,17.700879370324408" style="fill:none;stroke:black;stroke-width:1"/>
<polygon points="24.15792420997015,23.701305613721523 27.978275862068966,17.056206896551725 20.650220564905418,26.35070089915648" style="fill:none;stroke:black;stroke-width:1"/>
<polygon points="27.978275862068966,17.056206896551725 26.544229050003132,23.35368494496305 23.579922331136416,26.542946101589443" style="fill:none;stroke:black;stroke-width:1"/>
<polygon points="21.22183240371637,12.82456708714247 27.978275862068966,17.056206896551725 17.3066341954954,10.882884219105446" style="fill:none;stroke:black;stroke-width:1"/>
<polygon points="27.978275862068966,17.056206896551725 7.053161406415969,12.905216732143558 7.1715709012184075,16.155520267540158" style="fill:none;stroke:black;stroke-width:1"/>
<polygon points="10.86912618018886,15.846379334316453 27.978275862068966,17.056206896551725 7.1715709012184075,16.155520267540158" style="fill:none;stroke:black;stroke-width:1"/>
<polygon points="8.664418432680636,8.153903706461406 27.978275862068966,17.056206896551725 6.019594377975803,11.588086200163726" style="fill:none;stroke:black;stroke-width:1"/>
<polygon points="27.978275862068966,17.056206896551725 21.5352907525541,17.582230270092648 13.162311107260987,6.852451486178664" style="fill:none;stroke:black;stroke-width:1"/>
<polygon points="5.23442518415765,20.423386567396143 27.978275862068966,17.056206896551725 7.300330684827156,24.336635701478976" style="fill:none;stroke:black;stroke-width:1"/>
<polygon points="27.978275862068966,17.056206896551725 11.937194058122476,17.567955725956633 14.561284492032012,20.988619844089783" style="fill:none;stroke:black;stroke-width:1"/>
<polygon points="24.869107648456392,8.9495420294916 27.978275862068966,17.056206896551725 21.36160234745762,6.385935944390454" style="fill:none;stroke:black;stroke-width:1"/>
<polygon points="27.194220417491945,12.627662636866255 27.978275862068966,17.056206896551725 24.869107648456392,8.9495420294916" style="fill:none;stroke:black;stroke-width:1"/>
<polygon points="15.045337625838881,22.531294559197047 27.978275862068966,17.056206896551725 19.419822673017748,21.8561080292693" style="fill:none;stroke:black;stroke-width:1"/>
<polygon points="27.978275862068966,17.056206896551725 22.08726204398959,18.48914577681474 19.419822673017748,21.8561080292693" style="fill:none;stroke:black;stroke-width:1"/>
<polygon points="27.978275862068966,17.056206896551725 24.15792420997015,23.701305613721523 26.315957908175456,19.83278957388199" style="fill:none;stroke:black;stroke-width:1"/>
<polygon points="26.06928005127635,12.194072121814335 27.978275862068966,17.056206896551725 26.88941693129722,16.01491671772017" style="fill:none;stroke:black;stroke-width:1"/>
<polygon points="26.544229050003132,23.35368494496305 27.978275862068966,17.056206896551725 28.155352812136393,19.21644602719186" style="fill:none;stroke:black;stroke-width:1"/>
<polygon points="27.978275862068966,17.056206896551725 19.30820514936125,6.881139349074354 28.155352812136393,19.21644602719186" style="fill:none;stroke:black;stroke-width:1"/>
<polygon points="18.963387068753352,20.980853040167453 27.978275862068966,17.056206896551725 14.561284492032012,20.988619844089783" style="fill:none;stroke:black;stroke-width:1"/>
<polygon points="17.07222928797366,11.777800653010344 27.978275862068966,17.056206896551725 20.70151649542163,14.013914869688842" style="fill:none;stroke:black;stroke-width:1"/>
<polygon points="14.77165311332214,26.938527594651333 27.978275862068966,17.056206896551725 10.62959824842403,25.26874466337011" style="fill:none;stroke:black;stroke-width:1"/>
<polygon points="9.430821185898413,17.338059282588567 27.978275862068966,17.056206896551725 11.472564505556296,20.1009523629446" style="fill:none;stroke:black;stroke-width:1"/>
<polygon points="10.627011465074128,27.205857241888395 27.978275862068966,17.056206896551725 14.861567294588177,28.678519684174425" style="fill:none;stroke:black;stroke-width:1"/>
<polygon points="27.978275862068966,17.056206896551725 19.548300046644602,28.433110696197502 14.861567294588177,28.678519684174425" style="fill:none;stroke:black;stroke-width:1"/>
<polygon points="27.978275862068966,17.056206896551725 7.580188800476467,22.11841469094456 10.62959824842403,25.26874466337011" style="fill:none;stroke:black;stroke-width:1"/>
<polygon points="17.024807151403316,5.288928206203645 27.978275862068966,17.056206896551725 12.439620452182304,5.937172893773017" style="fill:none;stroke:black;stroke-width:1"/>
<polygon points="27.978275862068966,17.056206896551725 8.664418432680636,8.153903706461406 12.439620452182304,5.937172893773017" style="fill:none;stroke:black;stroke-width:1"/>
<polygon points="21.5352907525541,17.582230270092648 27.978275862068966,17.056206896551725 18.963387068753352,20.980853040167453" style="fill:none;stroke:black;stroke-width:1"/>
<polygon points="27.978275862068966,17.056206896551725 17.07222928797366,11.777800653010344 13.068309314015304,13.370772338762851" style="fill:none;stroke:black;stroke-width:1"/>
<polygon points="11.937194058122476,17.567955725956633 27.978275862068966,17.056206896551725 13.068309314015304,13.370772338762851" style="fill:none;stroke:black;stroke-width:1"/>
<polygon points="27.978275862068966,17.056206896551725 9.430821185898413,17.338059282588567 6.061643066965577,17.926303086698397" style="fill:none;stroke:black;stroke-width:1"/>
<polygon points="7.580188800476467,22.11841469094456 27.978275862068966,17.056206896551725 6.061643066965577,17.926303086698397" style="fill:none;stroke:black;stroke-width:1"/>
<polygon points="27.978275862068966,17.056206896551725 11.759915938297722,24.90097434959161 11.882875541341786,24.838805865618895" style="fill:none;stroke:black;stroke-width:1"/>
<polygon points="27.978275862068966,17.056206896551725 11.882875541341786,24.838805865618895 20.650220564905418,26.35070089915648" style="fill:none;stroke:black;stroke-width:1"/>
<polygon points="11.759915938297722,24.90097434959161 27.978275862068966,17.056206896551725 11.63082018272675,24.948275036628683" style="fill:none;stroke:black;stroke-width:1"/>
<polygon points="27.978275862068966,17.056206896551725 27.194220417491945,12.627662636866255 11.63082018272675,24.948275036628683" style="fill:none;stroke:black;stroke-width:1"/>
<polygon points="11.037455410956632,24.787767180949054 12.542834123276752,24.495347348633075 12.441227970876836,24.547013573240097" style="fill:none;stroke:black;stroke-width:1"/>
<polygon points="12.336648645015066,24.601471793568447 11.037455410956632,24.787767180949054 12.441227970876836,24.547013573240097" style="fill:none;stroke:black;stroke-width:1"/>
<polygon points="11.037455410956632,24.787767180949054 11.934385749979636,23.616264055409875 12.049631030594808,23.555942176835767" style="fill:none;stroke:black;stroke-width:1"/>
<polygon points="11.037455410956632,24.787767180949054 11.24310984792968,24.925360169529405 11.132192544301226,24.867634707917826" style="fill:none;stroke:black;stroke-width:1"/>
<polygon points="11.037455410956632,24.787767180949054 12.228769660200374,24.658327356454002 12.117316568534514,24.717147801208423" style="fill:none;stroke:black;stroke-width:1"/>
<polygon points="12.002071287919339,24.777469679782527 11.037455410956632,24.787767180949054 12.117316568534514,24.717147801208423" style="fill:none;stroke:black;stroke-width:1"/>
<polygon points="11.037455410956632,24.787767180949054 12.641840476427447,24.446823741471103 12.542834123276752,24.495347348633075" style="fill:none;stroke:black;stroke-width:1"/>
<polygon points="11.037455410956632,24.787767180949054 11.759915938297722,24.90097434959161 11.63082018272675,24.948275036628683" style="fill:none;stroke:black;stroke-width:1"/>
<polygon points="11.24310984792968,24.925360169529405 11.037455410956632,24.787767180949054 11.365950614141207,24.959185783580747" style="fill:none;stroke:black;stroke-width:1"/>
<polygon points="11.496514501035122,24.96738475522963 11.037455410956632,24.787767180949054 11.63082018272675,24.948275036628683" style="fill:none;stroke:black;stroke-width:1"/>
<polygon points="11.037455410956632,24.787767180949054 11.5088681952374,23.838064507985223 11.610474347637311,23.786398283378198" style="fill:none;stroke:black;stroke-width:1"/>
<polygon points="12.228769660200374,24.658327356454002 11.037455410956632,24.787767180949054 12.336648645015066,24.601471793568447" style="fill:none;stroke:black;stroke-width:1"/>
<polygon points="11.759915938297722,24.90097434959161 11.037455410956632,24.787767180949054 11.882875541341786,24.838805865618895" style="fill:none;stroke:black;stroke-width:1"/>
<polygon points="11.037455410956632,24.787767180949054 12.002071287919339,24.777469679782527 11.882875541341786,24.838805865618895" style="fill:none;stroke:black;stroke-width:1"/>
<polygon points="13.013604666647012,24.260054496447914 11.037455410956632,24.787767180949054 13.080993725764895,24.181573140690542" style="fill:none;stroke:black;stroke-width:1"/>
<polygon points="11.037455410956632,24.787767180949054 12.92887493818347,24.319669327823636 12.833745748832806,24.360354313696984" style="fill:none;stroke:black;stroke-width:1"/>
<polygon points="12.685105147840844,23.377374832779562 11.037455410956632,24.787767180949054 12.555232285679804,23.367974996209085" style="fill:none;stroke:black;stroke-width:1"/>
<polygon points="11.037455410956632,24.787767180949054 11.496514501035122,24.96738475522963 11.365950614141207,24.959185783580747" style="fill:none;stroke:black;stroke-width:1"/>
<polygon points="11.037455410956632,24.787767180949054 11.12284387458881,24.0140436156281 11.217956569681341,23.97305754292131" style="fill:none;stroke:black;stroke-width:1"/>
<polygon points="11.037455410956632,24.787767180949054 13.129178093480299,24.0883523746885 13.080993725764895,24.181573140690542" style="fill:none;stroke:black;stroke-width:1"/>
<polygon points="11.037455410956632,24.787767180949054 12.91980641069684,23.47018813111348 13.015807090722085,23.549698452438896" style="fill:none;stroke:black;stroke-width:1"/>
<polygon points="11.037455410956632,24.787767180949054 10.971484591770826,24.153155880025302 11.038467530167566,24.074212283278037" style="fill:none;stroke:black;stroke-width:1"/>
<polygon points="11.313040913585375,23.931668044094796 11.037455410956632,24.787767180949054 11.217956569681341,23.97305754292131" style="fill:none;stroke:black;stroke-width:1"/>
<polygon points="11.037455410956632,24.787767180949054 11.4098618420867,23.88658811514719 11.5088681952374,23.838064507985223" style="fill:none;stroke:black;stroke-width:1"/>
<polygon points="11.037455410956632,24.787767180949054 13.15628970892448,23.98445511750144 13.129178093480299,24.0883523746885" style="fill:none;stroke:black;stroke-width:1"/>
<polygon points="12.738661404928774,24.4017438125235 11.037455410956632,24.787767180949054 12.833745748832806,24.360354313696984" style="fill:none;stroke:black;stroke-width:1"/>
<polygon points="13.09159970790613,23.648617329146486 11.037455410956632,24.787767180949054 13.015807090722085,23.549698452438896" style="fill:none;stroke:black;stroke-width:1"/>
<polygon points="12.91980641069684,23.47018813111348 11.037455410956632,24.787767180949054 12.808091748658123,23.412091236593888" style="fill:none;stroke:black;stroke-width:1"/>
<polygon points="11.037455410956632,24.787767180949054 12.685105147840844,23.377374832779562 12.808091748658123,23.412091236593888" style="fill:none;stroke:black;stroke-width:1"/>
<polygon points="11.715053673499083,23.731940063049855 11.037455410956632,24.787767180949054 11.610474347637311,23.786398283378198" style="fill:none;stroke:black;stroke-width:1"/>
<polygon points="11.037455410956632,24.787767180949054 12.422799034524733,23.385804124912816 12.555232285679804,23.367974996209085" style="fill:none;stroke:black;stroke-width:1"/>
<polygon points="11.4098618420867,23.88658811514719 11.037455410956632,24.787767180949054 11.313040913585375,23.931668044094796" style="fill:none;stroke:black;stroke-width:1"/>
<polygon points="11.12284387458881,24.0140436156281 11.037455410956632,24.787767180949054 11.038467530167566,24.074212283278037" style="fill:none;stroke:black;stroke-width:1"/>
<polygon points="12.168826777172363,23.494605990999403 11.037455410956632,24.787767180949054 12.049631030594808,23.555942176835767" style="fill:none;stroke:black;stroke-width:1"/>
<polygon points="12.92887493818347,24.319669327823636 11.037455410956632,24.787767180949054 13.013604666647012,24.260054496447914" style="fill:none;stroke:black;stroke-width:1"/>
<polygon points="12.641840476427447,24.446823741471103 11.037455410956632,24.787767180949054 12.738661404928774,24.4017438125235" style="fill:none;stroke:black;stroke-width:1"/>
<polygon points="11.037455410956632,24.787767180949054 13.09159970790613,23.648617329146486 13.139754351967174,23.760568901221255" style="fill:none;stroke:black;stroke-width:1"/>
<polygon points="13.160448458487377,23.87388110550642 11.037455410956632,24.787767180949054 13.139754351967174,23.760568901221255" style="fill:none;stroke:black;stroke-width:1"/>
<polygon points="11.037455410956632,24.787767180949054 11.715053673499083,23.731940063049855 11.822932658313773,23.675084500164296" style="fill:none;stroke:black;stroke-width:1"/>
<polygon points="11.934385749979636,23.616264055409875 11.037455410956632,24.787767180949054 11.822932658313773,23.675084500164296" style="fill:none;stroke:black;stroke-width:1"/>
<polygon points="12.422799034524733,23.385804124912816 11.037455410956632,24.787767180949054 12.292068965517242,23.432758620689654" style="fill:none;stroke:black;stroke-width:1"/>
<polygon points="11.037455410956632,24.787767180949054 12.168826777172363,23.494605990999403 12.292068965517242,23.432758620689654" style="fill:none;stroke:black;stroke-width:1"/>
<polygon points="10.897159060090065,24.350923599341264 11.037455410956632,24.787767180949054 10.89356464128485,24.461685066473244" style="fill:none;stroke:black;stroke-width:1"/>
<polygon points="11.037455410956632,24.787767180949054 10.91487581524158,24.57509313061106 10.89356464128485,24.461685066473244" style="fill:none;stroke:black;stroke-width:1"/>
<polygon points="13.15628970892448,23.98445511750144 11.037455410956632,24.787767180949054 13.160448458487377,23.87388110550642" style="fill:none;stroke:black;stroke-width:1"/>
<polygon points="10.923759081455412,24.24674729173293 11.037455410956632,24.787767180949054 10.897159060090065,24.350923599341264" style="fill:none;stroke:black;stroke-width:1"/>
<polygon points="11.037455410956632,24.787767180949054 10.963207193189492,24.687553178350377 10.91487581524158,24.57509313061106" style="fill:none;stroke:black;stroke-width:1"/>
<polygon points="11.037455410956632,24.787767180949054 10.923759081455412,24.24674729173293 10.971484591770826,24.153155880025302" style="fill:none;stroke:black;stroke-width:1"/>
</svg>
