<?xml version="1.0" encoding="UTF-8" standalone="no"?>
<svg xmlns="http://www.w3.org/2000/svg" version="1.1" width="800" height="800">
<polygon points="16.402528879054838,18.9671348728075 17.78595178329678,17.25155444095664 18.68535236807804,19.059340463695662" style="fill:none;stroke:black;stroke-width:1"/>
<polygon points="15.494127420231107,10.505463780736386 13.696645863158903,10.279898428180616 14.239487911918214,8.84542018079521" style="fill:none;stroke:black;stroke-width:1"/>
<polygon points="21.47985888905439,6.168310850497692 21.833728266385457,4.755390449396415 23.247440104245236,6.251445939320455" style="fill:none;stroke:black;stroke-width:1"/>
<polygon points="18.069270760593245,4.4069155472637185 11.616629916096418,6.9714437048404125 18.100111556652333,3.230653609032916" style="fill:none;stroke:black;stroke-width:1"/>
<polygon points="13.340121681749608,8.607153559643029 13.491379310344827,9.653103448275862 12.427212941061246,7.4268364331084245" style="fill:none;stroke:black;stroke-width:1"/>
<polygon points="13.696645863158903,10.279898428180616 13.491379310344827,9.653103448275862 14.239487911918214,8.84542018079521" style="fill:none;stroke:black;stroke-width:1"/>
<polygon points="13.491379310344827,9.653103448275862 13.340121681749608,8.607153559643029 14.239487911918214,8.84542018079521" style="fill:none;stroke:black;stroke-width:1"/>
<polygon points="12.630493066880092,5.463609244219192 12.78788572686235,6.830413145753692 12.427212941061246,7.4268364331084245" style="fill:none;stroke:black;stroke-width:1"/>
<polygon points="12.78788572686235,6.830413145753692 13.340121681749608,8.607153559643029 12.427212941061246,7.4268364331084245" style="fill:none;stroke:black;stroke-width:1"/>
<polygon points="14.262095092336313,4.357833132377715 12.78788572686235,6.830413145753692 12.630493066880092,5.463609244219192" style="fill:none;stroke:black;stroke-width:1"/>
<polygon points="20.497914611095744,18.10900274834011 19.688153804899535,16.589001126688643 21.5352079944013,15.732147756250185" style="fill:none;stroke:black;stroke-width:1"/>
<polygon points="19.688153804899535,16.589001126688643 20.497914611095744,18.10900274834011 18.68535236807804,19.059340463695662" style="fill:none;stroke:black;stroke-width:1"/>
<polygon points="17.78595178329678,17.25155444095664 19.688153804899535,16.589001126688643 18.68535236807804,19.059340463695662" style="fill:none;stroke:black;stroke-width:1"/>
<polygon points="19.9307362204637,14.033851063548807 21.594305196010108,14.092760855510909 21.5352079944013,15.732147756250185" style="fill:none;stroke:black;stroke-width:1"/>
<polygon points="19.688153804899535,16.589001126688643 19.9307362204637,14.033851063548807 21.5352079944013,15.732147756250185" style="fill:none;stroke:black;stroke-width:1"/>
<polygon points="16.314640251383608,8.926478340529597 15.494127420231107,10.505463780736386 14.239487911918214,8.84542018079521" style="fill:none;stroke:black;stroke-width:1"/>
<polygon points="15.494127420231107,10.505463780736386 16.314640251383608,8.926478340529597 17.609346376834534,10.437642790535874" style="fill:none;stroke:black;stroke-width:1"/>
<polygon points="21.47985888905439,6.168310850497692 19.706265838827974,5.252306193504759 21.833728266385457,4.755390449396415" style="fill:none;stroke:black;stroke-width:1"/>
<polygon points="18.100111556652333,3.230653609032916 16.07668802569787,3.886375969409893 16.02235424980823,3.46962670802055" style="fill:none;stroke:black;stroke-width:1"/>
<polygon points="14.419218368487254,5.020700702504303 12.78788572686235,6.830413145753692 14.262095092336313,4.357833132377715" style="fill:none;stroke:black;stroke-width:1"/>
<polygon points="12.78788572686235,6.830413145753692 14.419218368487254,5.020700702504303 13.340121681749608,8.607153559643029" style="fill:none;stroke:black;stroke-width:1"/>
<polygon points="14.419218368487254,5.020700702504303 14.262095092336313,4.357833132377715 16.02235424980823,3.46962670802055" style="fill:none;stroke:black;stroke-width:1"/>
<polygon points="23.086507826859314,8.361523967407724 21.47985888905439,6.168310850497692 23.247440104245236,6.251445939320455" style="fill:none;stroke:black;stroke-width:1"/>
<polygon points="21.594305196010108,14.092760855510909 23.086507826859314,8.361523967407724 21.5352079944013,15.732147756250185" style="fill:none;stroke:black;stroke-width:1"/>
<polygon points="23.086507826859314,8.361523967407724 21.594305196010108,14.092760855510909 21.8696515131455,12.071108983721688" style="fill:none;stroke:black;stroke-width:1"/>
<polygon points="13.548186726576587,11.786292729324698 13.491379310344827,9.653103448275862 13.696645863158903,10.279898428180616" style="fill:none;stroke:black;stroke-width:1"/>
<polygon points="13.491379310344827,9.653103448275862 13.548186726576587,11.786292729324698 12.427212941061246,7.4268364331084245" style="fill:none;stroke:black;stroke-width:1"/>
<polygon points="19.74058295136635,10.38082868168322 19.172847515256286,11.104189533990393 17.609346376834534,10.437642790535874" style="fill:none;stroke:black;stroke-width:1"/>
<polygon points="19.9307362204637,14.033851063548807 20.01154936896703,12.240995525768563 21.594305196010108,14.092760855510909" style="fill:none;stroke:black;stroke-width:1"/>
<polygon points="21.594305196010108,14.092760855510909 20.01154936896703,12.240995525768563 21.8696515131455,12.071108983721688" style="fill:none;stroke:black;stroke-width:1"/>
<polygon points="20.01154936896703,12.240995525768563 19.74058295136635,10.38082868168322 21.8696515131455,12.071108983721688" style="fill:none;stroke:black;stroke-width:1"/>
<polygon points="19.74058295136635,10.38082868168322 20.01154936896703,12.240995525768563 19.172847515256286,11.104189533990393" style="fill:none;stroke:black;stroke-width:1"/>
<polygon points="21.38121200856651,22.81783295890117 19.688153804899535,16.589001126688643 17.78595178329678,17.25155444095664" style="fill:none;stroke:black;stroke-width:1"/>
<polygon points="19.688153804899535,16.589001126688643 21.38121200856651,22.81783295890117 21.494660774387196,22.696325664029686" style="fill:none;stroke:black;stroke-width:1"/>
<polygon points="20.121048799062944,23.625263777805955 20.269990387770758,23.552397304478234 17.78595178329678,17.25155444095664" style="fill:none;stroke:black;stroke-width:1"/>
<polygon points="15.303469199230829,8.848341792255843 16.314640251383608,8.926478340529597 14.239487911918214,8.84542018079521" style="fill:none;stroke:black;stroke-width:1"/>
<polygon points="13.340121681749608,8.607153559643029 15.303469199230829,8.848341792255843 14.239487911918214,8.84542018079521" style="fill:none;stroke:black;stroke-width:1"/>
<polygon points="14.419218368487254,5.020700702504303 15.303469199230829,8.848341792255843 13.340121681749608,8.607153559643029" style="fill:none;stroke:black;stroke-width:1"/>
<polygon points="16.314640251383608,8.926478340529597 18.408305421778607,9.005354398605373 17.609346376834534,10.437642790535874" style="fill:none;stroke:black;stroke-width:1"/>
<polygon points="18.408305421778607,9.005354398605373 19.74058295136635,10.38082868168322 17.609346376834534,10.437642790535874" style="fill:none;stroke:black;stroke-width:1"/>
<polygon points="19.74058295136635,10.38082868168322 18.408305421778607,9.005354398605373 20.12526119923426,8.580952825481148" style="fill:none;stroke:black;stroke-width:1"/>
<polygon points="19.706265838827974,5.252306193504759 19.890623573384325,4.3112043839610275 21.833728266385457,4.755390449396415" style="fill:none;stroke:black;stroke-width:1"/>
<polygon points="19.890623573384325,4.3112043839610275 19.706265838827974,5.252306193504759 18.069270760593245,4.4069155472637185" style="fill:none;stroke:black;stroke-width:1"/>
<polygon points="21.833728266385457,4.755390449396415 19.890623573384325,4.3112043839610275 18.100111556652333,3.230653609032916" style="fill:none;stroke:black;stroke-width:1"/>
<polygon points="19.890623573384325,4.3112043839610275 18.069270760593245,4.4069155472637185 18.100111556652333,3.230653609032916" style="fill:none;stroke:black;stroke-width:1"/>
<polygon points="21.241352565047123,8.158090320549963 19.706265838827974,5.252306193504759 21.47985888905439,6.168310850497692" style="fill:none;stroke:black;stroke-width:1"/>
<polygon points="23.086507826859314,8.361523967407724 21.241352565047123,8.158090320549963 21.47985888905439,6.168310850497692" style="fill:none;stroke:black;stroke-width:1"/>
<polygon points="21.90985254870582,9.921374645498247 23.086507826859314,8.361523967407724 21.8696515131455,12.071108983721688" style="fill:none;stroke:black;stroke-width:1"/>
<polygon points="19.74058295136635,10.38082868168322 21.90985254870582,9.921374645498247 21.8696515131455,12.071108983721688" style="fill:none;stroke:black;stroke-width:1"/>
<polygon points="21.90985254870582,9.921374645498247 19.74058295136635,10.38082868168322 20.12526119923426,8.580952825481148" style="fill:none;stroke:black;stroke-width:1"/>
<polygon points="21.241352565047123,8.158090320549963 21.90985254870582,9.921374645498247 20.12526119923426,8.580952825481148" style="fill:none;stroke:black;stroke-width:1"/>
<polygon points="21.90985254870582,9.921374645498247 21.241352565047123,8.158090320549963 23.086507826859314,8.361523967407724" style="fill:none;stroke:black;stroke-width:1"/>
<polygon points="14.030776158011934,19.67585408344899 17.178310822758764,11.13558343473143 17.609346376834534,10.437642790535874" style="fill:none;stroke:black;stroke-width:1"/>
<polygon points="13.158725983067272,22.386808213027628 17.178310822758764,11.13558343473143 13.1416560282942,22.460305873202763" style="fill:none;stroke:black;stroke-width:1"/>
<polygon points="17.178310822758764,11.13558343473143 15.494127420231107,10.505463780736386 17.609346376834534,10.437642790535874" style="fill:none;stroke:black;stroke-width:1"/>
<polygon points="21.38121200856651,22.81783295890117 20.997241379310346,21.424827586206895 21.494660774387196,22.696325664029686" style="fill:none;stroke:black;stroke-width:1"/>
<polygon points="21.507871048210593,21.66081880513974 21.754215322826056,24.49052073882391 19.9307362204637,14.033851063548807" style="fill:none;stroke:black;stroke-width:1"/>
<polygon points="21.699196078547974,22.188626052379817 19.9307362204637,14.033851063548807 19.688153804899535,16.589001126688643" style="fill:none;stroke:black;stroke-width:1"/>
<polygon points="21.699196078547974,22.188626052379817 21.682965286770855,21.99533918340383 19.9307362204637,14.033851063548807" style="fill:none;stroke:black;stroke-width:1"/>
<polygon points="21.66505206206503,22.376969388574295 21.699196078547974,22.188626052379817 19.688153804899535,16.589001126688643" style="fill:none;stroke:black;stroke-width:1"/>
<polygon points="14.630036077161675,17.65962146209347 15.72415617604237,16.653972849684653 16.402528879054838,18.9671348728075" style="fill:none;stroke:black;stroke-width:1"/>
<polygon points="15.72415617604237,16.653972849684653 17.78595178329678,17.25155444095664 16.402528879054838,18.9671348728075" style="fill:none;stroke:black;stroke-width:1"/>
<polygon points="15.303469199230829,8.848341792255843 17.326395880956824,8.780087906915835 16.314640251383608,8.926478340529597" style="fill:none;stroke:black;stroke-width:1"/>
<polygon points="17.326395880956824,8.780087906915835 18.408305421778607,9.005354398605373 16.314640251383608,8.926478340529597" style="fill:none;stroke:black;stroke-width:1"/>
<polygon points="11.786403843642065,6.97174412819766 11.616629916096418,6.9714437048404125 18.069270760593245,4.4069155472637185" style="fill:none;stroke:black;stroke-width:1"/>
<polygon points="11.949930478597771,6.980660020873881 11.786403843642065,6.97174412819766 18.069270760593245,4.4069155472637185" style="fill:none;stroke:black;stroke-width:1"/>
<polygon points="12.25686952911255,7.022674769787096 12.106866735556835,6.997775521770038 18.069270760593245,4.4069155472637185" style="fill:none;stroke:black;stroke-width:1"/>
<polygon points="12.106866735556835,6.997775521770038 11.949930478597771,6.980660020873881 18.069270760593245,4.4069155472637185" style="fill:none;stroke:black;stroke-width:1"/>
<polygon points="20.01154936896703,12.240995525768563 15.750035028354231,11.788895303167697 19.172847515256286,11.104189533990393" style="fill:none;stroke:black;stroke-width:1"/>
<polygon points="13.528675788766368,13.29066603551722 15.750035028354231,11.788895303167697 20.01154936896703,12.240995525768563" style="fill:none;stroke:black;stroke-width:1"/>
<polygon points="15.72415617604237,16.653972849684653 19.408459791263564,23.7908039593138 17.78595178329678,17.25155444095664" style="fill:none;stroke:black;stroke-width:1"/>
<polygon points="14.618748510400323,12.704603018584702 14.674299315152968,14.459906632780346 13.963121381700418,15.534544755006722" style="fill:none;stroke:black;stroke-width:1"/>
<polygon points="14.674299315152968,14.459906632780346 14.630036077161675,17.65962146209347 13.963121381700418,15.534544755006722" style="fill:none;stroke:black;stroke-width:1"/>
<polygon points="15.175654315312233,11.183541155151987 13.548186726576587,11.786292729324698 13.696645863158903,10.279898428180616" style="fill:none;stroke:black;stroke-width:1"/>
<polygon points="15.494127420231107,10.505463780736386 15.175654315312233,11.183541155151987 13.696645863158903,10.279898428180616" style="fill:none;stroke:black;stroke-width:1"/>
<polygon points="21.682965286770855,21.99533918340383 21.616989819092964,21.815853817853906 19.9307362204637,14.033851063548807" style="fill:none;stroke:black;stroke-width:1"/>
<polygon points="21.616989819092964,21.815853817853906 21.507871048210593,21.66081880513974 19.9307362204637,14.033851063548807" style="fill:none;stroke:black;stroke-width:1"/>
<polygon points="21.616989819092964,21.815853817853906 21.66505206206503,22.376969388574295 21.507871048210593,21.66081880513974" style="fill:none;stroke:black;stroke-width:1"/>
<polygon points="21.699196078547974,22.188626052379817 21.616989819092964,21.815853817853906 21.682965286770855,21.99533918340383" style="fill:none;stroke:black;stroke-width:1"/>
<polygon points="21.616989819092964,21.815853817853906 21.699196078547974,22.188626052379817 21.66505206206503,22.376969388574295" style="fill:none;stroke:black;stroke-width:1"/>
<polygon points="21.507871048210593,21.66081880513974 21.36265195860302,21.53793464963732 21.754215322826056,24.49052073882391" style="fill:none;stroke:black;stroke-width:1"/>
<polygon points="21.36265195860302,21.53793464963732 20.997241379310346,21.424827586206895 21.188375534749547,21.45490185572264" style="fill:none;stroke:black;stroke-width:1"/>
<polygon points="20.997241379310346,21.424827586206895 21.36265195860302,21.53793464963732 21.494660774387196,22.696325664029686" style="fill:none;stroke:black;stroke-width:1"/>
<polygon points="21.5911499501047,22.54771824840256 19.688153804899535,16.589001126688643 21.494660774387196,22.696325664029686" style="fill:none;stroke:black;stroke-width:1"/>
<polygon points="21.5911499501047,22.54771824840256 21.66505206206503,22.376969388574295 19.688153804899535,16.589001126688643" style="fill:none;stroke:black;stroke-width:1"/>
<polygon points="21.66505206206503,22.376969388574295 21.5911499501047,22.54771824840256 21.507871048210593,21.66081880513974" style="fill:none;stroke:black;stroke-width:1"/>
<polygon points="21.36265195860302,21.53793464963732 21.5911499501047,22.54771824840256 21.494660774387196,22.696325664029686" style="fill:none;stroke:black;stroke-width:1"/>
<polygon points="21.5911499501047,22.54771824840256 21.36265195860302,21.53793464963732 21.507871048210593,21.66081880513974" style="fill:none;stroke:black;stroke-width:1"/>
<polygon points="21.241352565047123,8.158090320549963 13.753932774521633,8.504488347187163 19.706265838827974,5.252306193504759" style="fill:none;stroke:black;stroke-width:1"/>
<polygon points="12.866926443521105,9.192890081707569 13.753932774521633,8.504488347187163 13.77066085316213,8.745189727143385" style="fill:none;stroke:black;stroke-width:1"/>
<polygon points="19.349322562682826,8.711834021575827 21.241352565047123,8.158090320549963 20.12526119923426,8.580952825481148" style="fill:none;stroke:black;stroke-width:1"/>
<polygon points="18.408305421778607,9.005354398605373 19.349322562682826,8.711834021575827 20.12526119923426,8.580952825481148" style="fill:none;stroke:black;stroke-width:1"/>
<polygon points="19.349322562682826,8.711834021575827 13.753932774521633,8.504488347187163 21.241352565047123,8.158090320549963" style="fill:none;stroke:black;stroke-width:1"/>
<polygon points="13.753932774521633,8.504488347187163 19.349322562682826,8.711834021575827 13.77066085316213,8.745189727143385" style="fill:none;stroke:black;stroke-width:1"/>
<polygon points="17.326395880956824,8.780087906915835 19.349322562682826,8.711834021575827 18.408305421778607,9.005354398605373" style="fill:none;stroke:black;stroke-width:1"/>
<polygon points="11.763105191267378,8.598781751184793 11.786403843642065,6.97174412819766 11.949930478597771,6.980660020873881" style="fill:none;stroke:black;stroke-width:1"/>
<polygon points="12.39959577385821,7.054941903826019 12.25686952911255,7.022674769787096 18.069270760593245,4.4069155472637185" style="fill:none;stroke:black;stroke-width:1"/>
<polygon points="19.706265838827974,5.252306193504759 12.953518967630437,7.287392792892726 18.069270760593245,4.4069155472637185" style="fill:none;stroke:black;stroke-width:1"/>
<polygon points="13.09930178482898,7.393570796695874 12.953518967630437,7.287392792892726 19.706265838827974,5.252306193504759" style="fill:none;stroke:black;stroke-width:1"/>
<polygon points="18.31780170867968,14.599484360786125 15.758114119489516,15.30148597871623 20.01154936896703,12.240995525768563" style="fill:none;stroke:black;stroke-width:1"/>
<polygon points="17.178310822758764,11.13558343473143 13.117153139866481,22.540783522681213 13.1416560282942,22.460305873202763" style="fill:none;stroke:black;stroke-width:1"/>
<polygon points="18.58934704464266,23.397095135848765 15.72415617604237,16.653972849684653 14.630036077161675,17.65962146209347" style="fill:none;stroke:black;stroke-width:1"/>
<polygon points="14.674299315152968,14.459906632780346 18.58934704464266,23.397095135848765 14.630036077161675,17.65962146209347" style="fill:none;stroke:black;stroke-width:1"/>
<polygon points="15.175654315312233,11.183541155151987 13.889239894182008,13.781423916719907 13.548186726576587,11.786292729324698" style="fill:none;stroke:black;stroke-width:1"/>
<polygon points="13.889239894182008,13.781423916719907 15.175654315312233,11.183541155151987 14.618748510400323,12.704603018584702" style="fill:none;stroke:black;stroke-width:1"/>
<polygon points="13.889239894182008,13.781423916719907 14.618748510400323,12.704603018584702 13.963121381700418,15.534544755006722" style="fill:none;stroke:black;stroke-width:1"/>
<polygon points="13.889239894182008,13.781423916719907 13.963121381700418,15.534544755006722 12.427212941061246,7.4268364331084245" style="fill:none;stroke:black;stroke-width:1"/>
<polygon points="13.548186726576587,11.786292729324698 13.889239894182008,13.781423916719907 12.427212941061246,7.4268364331084245" style="fill:none;stroke:black;stroke-width:1"/>
<polygon points="20.269990387770758,23.552397304478234 20.402959622217047,23.47041118913211 17.78595178329678,17.25155444095664" style="fill:none;stroke:black;stroke-width:1"/>
<polygon points="20.402959622217047,23.47041118913211 20.525070695942993,23.390065363782192 17.78595178329678,17.25155444095664" style="fill:none;stroke:black;stroke-width:1"/>
<polygon points="20.402959622217047,23.47041118913211 20.269990387770758,23.552397304478234 19.681940007759717,21.822694664259984" style="fill:none;stroke:black;stroke-width:1"/>
<polygon points="20.769289521631265,23.22938240250958 20.8913989344754,23.149040921873272 17.78595178329678,17.25155444095664" style="fill:none;stroke:black;stroke-width:1"/>
<polygon points="20.769289521631265,23.22938240250958 20.249580568332522,21.52843541277518 20.8913989344754,23.149040921873272" style="fill:none;stroke:black;stroke-width:1"/>
<polygon points="21.2577271730078,22.908016479964353 21.38121200856651,22.81783295890117 17.78595178329678,17.25155444095664" style="fill:none;stroke:black;stroke-width:1"/>
<polygon points="21.13561776016367,22.98835796060066 21.2577271730078,22.908016479964353 17.78595178329678,17.25155444095664" style="fill:none;stroke:black;stroke-width:1"/>
<polygon points="21.2577271730078,22.908016479964353 20.997241379310346,21.424827586206895 21.38121200856651,22.81783295890117" style="fill:none;stroke:black;stroke-width:1"/>
<polygon points="20.8913989344754,23.149040921873272 21.013508347319537,23.068699441236966 17.78595178329678,17.25155444095664" style="fill:none;stroke:black;stroke-width:1"/>
<polygon points="21.013508347319537,23.068699441236966 21.13561776016367,22.98835796060066 17.78595178329678,17.25155444095664" style="fill:none;stroke:black;stroke-width:1"/>
<polygon points="20.997241379310346,21.424827586206895 11.602095147863565,23.132273288218528 21.188375534749547,21.45490185572264" style="fill:none;stroke:black;stroke-width:1"/>
<polygon points="20.269990387770758,23.552397304478234 19.55983059491558,21.903036144896298 19.681940007759717,21.822694664259984" style="fill:none;stroke:black;stroke-width:1"/>
<polygon points="20.121048799062944,23.625263777805955 19.55983059491558,21.903036144896298 20.269990387770758,23.552397304478234" style="fill:none;stroke:black;stroke-width:1"/>
<polygon points="19.783828736792167,23.7366919400824 19.193502356383178,22.144060586805217 19.315611769227313,22.06371910616891" style="fill:none;stroke:black;stroke-width:1"/>
<polygon points="11.90578847168047,22.74048596056612 14.674299315152968,14.459906632780346 14.618748510400323,12.704603018584702" style="fill:none;stroke:black;stroke-width:1"/>
<polygon points="11.922858426453542,22.66698830039098 11.90578847168047,22.74048596056612 14.618748510400323,12.704603018584702" style="fill:none;stroke:black;stroke-width:1"/>
<polygon points="22.17658586309375,18.392286189169454 22.873192402096244,19.745550122462834 17.178310822758764,11.13558343473143" style="fill:none;stroke:black;stroke-width:1"/>
<polygon points="20.01154936896703,12.240995525768563 24.072751227168663,17.88919209288577 21.935170747221427,18.23749844510265" style="fill:none;stroke:black;stroke-width:1"/>
<polygon points="24.072751227168663,17.88919209288577 20.01154936896703,12.240995525768563 19.9307362204637,14.033851063548807" style="fill:none;stroke:black;stroke-width:1"/>
<polygon points="13.044169514699758,9.32515964853793 13.579702816014748,9.151980260781894 13.206851354400339,9.33184556020144" style="fill:none;stroke:black;stroke-width:1"/>
<polygon points="17.326395880956824,8.780087906915835 13.044169514699758,9.32515964853793 13.206851354400339,9.33184556020144" style="fill:none;stroke:black;stroke-width:1"/>
<polygon points="19.349322562682826,8.711834021575827 13.709181917271358,8.967682858796156 13.77066085316213,8.745189727143385" style="fill:none;stroke:black;stroke-width:1"/>
<polygon points="13.709181917271358,8.967682858796156 19.349322562682826,8.711834021575827 13.579702816014748,9.151980260781894" style="fill:none;stroke:black;stroke-width:1"/>
<polygon points="13.044169514699758,9.32515964853793 13.709181917271358,8.967682858796156 13.579702816014748,9.151980260781894" style="fill:none;stroke:black;stroke-width:1"/>
<polygon points="13.709181917271358,8.967682858796156 12.866926443521105,9.192890081707569 13.77066085316213,8.745189727143385" style="fill:none;stroke:black;stroke-width:1"/>
<polygon points="13.398048125122447,9.278111851517368 19.349322562682826,8.711834021575827 17.326395880956824,8.780087906915835" style="fill:none;stroke:black;stroke-width:1"/>
<polygon points="19.349322562682826,8.711834021575827 13.398048125122447,9.278111851517368 13.579702816014748,9.151980260781894" style="fill:none;stroke:black;stroke-width:1"/>
<polygon points="13.398048125122447,9.278111851517368 17.326395880956824,8.780087906915835 13.206851354400339,9.33184556020144" style="fill:none;stroke:black;stroke-width:1"/>
<polygon points="13.579702816014748,9.151980260781894 13.398048125122447,9.278111851517368 13.206851354400339,9.33184556020144" style="fill:none;stroke:black;stroke-width:1"/>
<polygon points="12.106866735556835,6.997775521770038 11.957381914435683,8.640216568478051 11.949930478597771,6.980660020873881" style="fill:none;stroke:black;stroke-width:1"/>
<polygon points="11.957381914435683,8.640216568478051 11.763105191267378,8.598781751184793 11.949930478597771,6.980660020873881" style="fill:none;stroke:black;stroke-width:1"/>
<polygon points="11.957381914435683,8.640216568478051 12.106866735556835,6.997775521770038 12.25686952911255,7.022674769787096" style="fill:none;stroke:black;stroke-width:1"/>
<polygon points="11.786403843642065,6.97174412819766 11.549419152676347,8.553117569674038 11.616629916096418,6.9714437048404125" style="fill:none;stroke:black;stroke-width:1"/>
<polygon points="11.763105191267378,8.598781751184793 11.549419152676347,8.553117569674038 11.786403843642065,6.97174412819766" style="fill:none;stroke:black;stroke-width:1"/>
<polygon points="11.549419152676347,8.553117569674038 11.763105191267378,8.598781751184793 11.320727999575208,8.502844689752168" style="fill:none;stroke:black;stroke-width:1"/>
<polygon points="12.667623277534368,7.139678868911062 12.534702384387112,7.0941610627877685 18.069270760593245,4.4069155472637185" style="fill:none;stroke:black;stroke-width:1"/>
<polygon points="12.534702384387112,7.0941610627877685 12.39959577385821,7.054941903826019 18.069270760593245,4.4069155472637185" style="fill:none;stroke:black;stroke-width:1"/>
<polygon points="12.80838512080405,7.203074189635156 12.667623277534368,7.139678868911062 18.069270760593245,4.4069155472637185" style="fill:none;stroke:black;stroke-width:1"/>
<polygon points="12.953518967630437,7.287392792892726 12.80838512080405,7.203074189635156 18.069270760593245,4.4069155472637185" style="fill:none;stroke:black;stroke-width:1"/>
<polygon points="11.259712524862126,6.99835271047898 16.07668802569787,3.886375969409893 18.100111556652333,3.230653609032916" style="fill:none;stroke:black;stroke-width:1"/>
<polygon points="11.259712524862126,6.99835271047898 11.073255231986892,7.026393861672867 16.07668802569787,3.886375969409893" style="fill:none;stroke:black;stroke-width:1"/>
<polygon points="10.315174319446339,7.658569623462393 14.419218368487254,5.020700702504303 16.02235424980823,3.46962670802055" style="fill:none;stroke:black;stroke-width:1"/>
<polygon points="10.609243262098188,8.283758270129168 15.303469199230829,8.848341792255843 14.419218368487254,5.020700702504303" style="fill:none;stroke:black;stroke-width:1"/>
<polygon points="10.437443074882973,8.114395470149715 10.609243262098188,8.283758270129168 14.419218368487254,5.020700702504303" style="fill:none;stroke:black;stroke-width:1"/>
<polygon points="20.68198430949009,15.839797410334661 20.01154936896703,12.240995525768563 21.935170747221427,18.23749844510265" style="fill:none;stroke:black;stroke-width:1"/>
<polygon points="20.68198430949009,15.839797410334661 18.31780170867968,14.599484360786125 20.01154936896703,12.240995525768563" style="fill:none;stroke:black;stroke-width:1"/>
<polygon points="12.076557402283509,15.587185783452401 13.528675788766368,13.29066603551722 20.01154936896703,12.240995525768563" style="fill:none;stroke:black;stroke-width:1"/>
<polygon points="12.16014273942807,17.625968907302774 12.076557402283509,15.587185783452401 20.01154936896703,12.240995525768563" style="fill:none;stroke:black;stroke-width:1"/>
<polygon points="15.758114119489516,15.30148597871623 14.414685500984525,17.499100464366535 20.01154936896703,12.240995525768563" style="fill:none;stroke:black;stroke-width:1"/>
<polygon points="14.414685500984525,17.499100464366535 12.16014273942807,17.625968907302774 20.01154936896703,12.240995525768563" style="fill:none;stroke:black;stroke-width:1"/>
<polygon points="19.172847515256286,11.104189533990393 13.749042701444855,22.746288025754932 17.609346376834534,10.437642790535874" style="fill:none;stroke:black;stroke-width:1"/>
<polygon points="13.042713801118524,22.718637739096316 13.084401104056465,22.627254528552683 17.178310822758764,11.13558343473143" style="fill:none;stroke:black;stroke-width:1"/>
<polygon points="13.084401104056465,22.627254528552683 13.117153139866481,22.540783522681213 17.178310822758764,11.13558343473143" style="fill:none;stroke:black;stroke-width:1"/>
<polygon points="12.991546025807299,22.813774534189164 13.042713801118524,22.718637739096316 17.178310822758764,11.13558343473143" style="fill:none;stroke:black;stroke-width:1"/>
<polygon points="20.525070695942993,23.390065363782192 20.64718010878713,23.309723883145885 17.78595178329678,17.25155444095664" style="fill:none;stroke:black;stroke-width:1"/>
<polygon points="20.64718010878713,23.309723883145885 20.769289521631265,23.22938240250958 17.78595178329678,17.25155444095664" style="fill:none;stroke:black;stroke-width:1"/>
<polygon points="19.93689772334752,21.661567575376004 20.64718010878713,23.309723883145885 20.525070695942993,23.390065363782192" style="fill:none;stroke:black;stroke-width:1"/>
<polygon points="20.249580568332522,21.52843541277518 20.42473504032467,21.479556774273686 20.8913989344754,23.149040921873272" style="fill:none;stroke:black;stroke-width:1"/>
<polygon points="20.42473504032467,21.479556774273686 21.013508347319537,23.068699441236966 20.8913989344754,23.149040921873272" style="fill:none;stroke:black;stroke-width:1"/>
<polygon points="9.963217190230058,17.93765155576061 20.42473504032467,21.479556774273686 10.661882669869065,15.283977425370427" style="fill:none;stroke:black;stroke-width:1"/>
<polygon points="20.42473504032467,21.479556774273686 20.249580568332522,21.52843541277518 10.661882669869065,15.283977425370427" style="fill:none;stroke:black;stroke-width:1"/>
<polygon points="19.804070896186232,21.742294940101658 20.402959622217047,23.47041118913211 19.681940007759717,21.822694664259984" style="fill:none;stroke:black;stroke-width:1"/>
<polygon points="20.402959622217047,23.47041118913211 19.804070896186232,21.742294940101658 20.525070695942993,23.390065363782192" style="fill:none;stroke:black;stroke-width:1"/>
<polygon points="19.804070896186232,21.742294940101658 19.93689772334752,21.661567575376004 20.525070695942993,23.390065363782192" style="fill:none;stroke:black;stroke-width:1"/>
<polygon points="10.287475458613047,20.727683316686466 11.602095147863565,23.132273288218528 20.997241379310346,21.424827586206895" style="fill:none;stroke:black;stroke-width:1"/>
<polygon points="16.325023859979552,25.798133751011303 21.36265195860302,21.53793464963732 21.188375534749547,21.45490185572264" style="fill:none;stroke:black;stroke-width:1"/>
<polygon points="14.485793267123222,11.754913243526635 19.804070896186232,21.742294940101658 12.384005948127623,23.277803043440866" style="fill:none;stroke:black;stroke-width:1"/>
<polygon points="19.071392943539045,22.224402067441524 19.408459791263564,23.7908039593138 18.94928353069491,22.30474354807783" style="fill:none;stroke:black;stroke-width:1"/>
<polygon points="19.43772118207145,21.983377625532604 19.55983059491558,21.903036144896298 20.121048799062944,23.625263777805955" style="fill:none;stroke:black;stroke-width:1"/>
<polygon points="19.783828736792167,23.7366919400824 19.599840352193915,23.771780699869208 19.193502356383178,22.144060586805217" style="fill:none;stroke:black;stroke-width:1"/>
<polygon points="19.071392943539045,22.224402067441524 19.599840352193915,23.771780699869208 19.408459791263564,23.7908039593138" style="fill:none;stroke:black;stroke-width:1"/>
<polygon points="19.599840352193915,23.771780699869208 19.071392943539045,22.224402067441524 19.193502356383178,22.144060586805217" style="fill:none;stroke:black;stroke-width:1"/>
<polygon points="19.408459791263564,23.7908039593138 19.599840352193915,23.771780699869208 17.78595178329678,17.25155444095664" style="fill:none;stroke:black;stroke-width:1"/>
<polygon points="19.599840352193915,23.771780699869208 19.783828736792167,23.7366919400824 17.78595178329678,17.25155444095664" style="fill:none;stroke:black;stroke-width:1"/>
<polygon points="15.175654315312233,11.183541155151987 12.380725714644354,21.955821248535766 14.618748510400323,12.704603018584702" style="fill:none;stroke:black;stroke-width:1"/>
<polygon points="14.674299315152968,14.459906632780346 11.889345686470463,22.91096484387908 18.615860753598007,22.66504177963962" style="fill:none;stroke:black;stroke-width:1"/>
<polygon points="16.155813342481373,21.191297819457873 17.178310822758764,11.13558343473143 14.030776158011934,19.67585408344899" style="fill:none;stroke:black;stroke-width:1"/>
<polygon points="16.155813342481373,21.191297819457873 18.773766102772072,20.822363368177065 17.178310822758764,11.13558343473143" style="fill:none;stroke:black;stroke-width:1"/>
<polygon points="20.358270757788524,18.82023725161374 22.17658586309375,18.392286189169454 17.178310822758764,11.13558343473143" style="fill:none;stroke:black;stroke-width:1"/>
<polygon points="18.773766102772072,20.822363368177065 20.358270757788524,18.82023725161374 17.178310822758764,11.13558343473143" style="fill:none;stroke:black;stroke-width:1"/>
<polygon points="22.873192402096244,19.745550122462834 21.540625146821085,22.158718146152033 17.178310822758764,11.13558343473143" style="fill:none;stroke:black;stroke-width:1"/>
<polygon points="21.540625146821085,22.158718146152033 12.991546025807299,22.813774534189164 17.178310822758764,11.13558343473143" style="fill:none;stroke:black;stroke-width:1"/>
<polygon points="21.789590081790912,13.609482570616086 23.53438338158086,15.61078976726515 19.9307362204637,14.033851063548807" style="fill:none;stroke:black;stroke-width:1"/>
<polygon points="23.53438338158086,15.61078976726515 24.072751227168663,17.88919209288577 19.9307362204637,14.033851063548807" style="fill:none;stroke:black;stroke-width:1"/>
<polygon points="21.754215322826056,24.49052073882391 23.618071647250524,22.533955436426226 19.9307362204637,14.033851063548807" style="fill:none;stroke:black;stroke-width:1"/>
<polygon points="23.618071647250524,22.533955436426226 24.655867669565936,19.993023857431687 19.9307362204637,14.033851063548807" style="fill:none;stroke:black;stroke-width:1"/>
<polygon points="19.324474936285704,12.454984349953856 21.789590081790912,13.609482570616086 19.9307362204637,14.033851063548807" style="fill:none;stroke:black;stroke-width:1"/>
<polygon points="24.655867669565936,19.993023857431687 19.324474936285704,12.454984349953856 19.9307362204637,14.033851063548807" style="fill:none;stroke:black;stroke-width:1"/>
<polygon points="13.503313889833716,7.85262238947292 13.377922197604322,7.675249477987322 19.706265838827974,5.252306193504759" style="fill:none;stroke:black;stroke-width:1"/>
<polygon points="13.753932774521633,8.504488347187163 13.696485258213283,8.271334808905277 19.706265838827974,5.252306193504759" style="fill:none;stroke:black;stroke-width:1"/>
<polygon points="13.696485258213283,8.271334808905277 13.753932774521633,8.504488347187163 12.866926443521105,9.192890081707569" style="fill:none;stroke:black;stroke-width:1"/>
<polygon points="13.709181917271358,8.967682858796156 12.925810792280906,9.273596050935058 12.866926443521105,9.192890081707569" style="fill:none;stroke:black;stroke-width:1"/>
<polygon points="12.925810792280906,9.273596050935058 13.709181917271358,8.967682858796156 13.044169514699758,9.32515964853793" style="fill:none;stroke:black;stroke-width:1"/>
<polygon points="12.925810792280906,9.273596050935058 13.044169514699758,9.32515964853793 17.326395880956824,8.780087906915835" style="fill:none;stroke:black;stroke-width:1"/>
<polygon points="12.925810792280906,9.273596050935058 17.326395880956824,8.780087906915835 15.303469199230829,8.848341792255843" style="fill:none;stroke:black;stroke-width:1"/>
<polygon points="12.866926443521105,9.192890081707569 12.925810792280906,9.273596050935058 15.303469199230829,8.848341792255843" style="fill:none;stroke:black;stroke-width:1"/>
<polygon points="12.39959577385821,7.054941903826019 12.127845121268644,8.677801355747429 12.25686952911255,7.022674769787096" style="fill:none;stroke:black;stroke-width:1"/>
<polygon points="12.127845121268644,8.677801355747429 11.957381914435683,8.640216568478051 12.25686952911255,7.022674769787096" style="fill:none;stroke:black;stroke-width:1"/>
<polygon points="11.259712524862126,6.99835271047898 11.440951781367536,6.980174611901173 11.320727999575208,8.502844689752168" style="fill:none;stroke:black;stroke-width:1"/>
<polygon points="11.549419152676347,8.553117569674038 11.440951781367536,6.980174611901173 11.616629916096418,6.9714437048404125" style="fill:none;stroke:black;stroke-width:1"/>
<polygon points="11.440951781367536,6.980174611901173 11.549419152676347,8.553117569674038 11.320727999575208,8.502844689752168" style="fill:none;stroke:black;stroke-width:1"/>
<polygon points="11.616629916096418,6.9714437048404125 11.440951781367536,6.980174611901173 18.100111556652333,3.230653609032916" style="fill:none;stroke:black;stroke-width:1"/>
<polygon points="11.440951781367536,6.980174611901173 11.259712524862126,6.99835271047898 18.100111556652333,3.230653609032916" style="fill:none;stroke:black;stroke-width:1"/>
<polygon points="10.335057513126577,7.899314553775566 10.437443074882973,8.114395470149715 14.419218368487254,5.020700702504303" style="fill:none;stroke:black;stroke-width:1"/>
<polygon points="10.315174319446339,7.658569623462393 10.335057513126577,7.899314553775566 14.419218368487254,5.020700702504303" style="fill:none;stroke:black;stroke-width:1"/>
<polygon points="10.335057513126577,7.899314553775566 10.315174319446339,7.658569623462393 10.437443074882973,8.114395470149715" style="fill:none;stroke:black;stroke-width:1"/>
<polygon points="10.609243262098188,8.283758270129168 10.837241379310345,8.387931034482758 15.303469199230829,8.848341792255843" style="fill:none;stroke:black;stroke-width:1"/>
<polygon points="10.837241379310345,8.387931034482758 12.866926443521105,9.192890081707569 15.303469199230829,8.848341792255843" style="fill:none;stroke:black;stroke-width:1"/>
<polygon points="10.837241379310345,8.387931034482758 10.609243262098188,8.283758270129168 10.509170315525017,7.251103738375352" style="fill:none;stroke:black;stroke-width:1"/>
<polygon points="10.837241379310345,8.387931034482758 12.127845121268644,8.677801355747429 12.866926443521105,9.192890081707569" style="fill:none;stroke:black;stroke-width:1"/>
<polygon points="12.127845121268644,8.677801355747429 10.837241379310345,8.387931034482758 11.957381914435683,8.640216568478051" style="fill:none;stroke:black;stroke-width:1"/>
<polygon points="10.315174319446339,7.658569623462393 10.378668441572884,7.433745622143226 10.437443074882973,8.114395470149715" style="fill:none;stroke:black;stroke-width:1"/>
<polygon points="10.378668441572884,7.433745622143226 10.609243262098188,8.283758270129168 10.437443074882973,8.114395470149715" style="fill:none;stroke:black;stroke-width:1"/>
<polygon points="10.609243262098188,8.283758270129168 10.378668441572884,7.433745622143226 10.509170315525017,7.251103738375352" style="fill:none;stroke:black;stroke-width:1"/>
<polygon points="10.378668441572884,7.433745622143226 10.315174319446339,7.658569623462393 16.02235424980823,3.46962670802055" style="fill:none;stroke:black;stroke-width:1"/>
<polygon points="16.07668802569787,3.886375969409893 10.378668441572884,7.433745622143226 16.02235424980823,3.46962670802055" style="fill:none;stroke:black;stroke-width:1"/>
<polygon points="10.509170315525017,7.251103738375352 10.378668441572884,7.433745622143226 16.07668802569787,3.886375969409893" style="fill:none;stroke:black;stroke-width:1"/>
<polygon points="19.209057218305993,20.289599461767242 16.48473925100526,20.25227842765345 19.172847515256286,11.104189533990393" style="fill:none;stroke:black;stroke-width:1"/>
<polygon points="20.002142205434446,15.903220721954174 16.331718997009336,23.762677636100026 19.172847515256286,11.104189533990393" style="fill:none;stroke:black;stroke-width:1"/>
<polygon points="16.331718997009336,23.762677636100026 13.749042701444855,22.746288025754932 19.172847515256286,11.104189533990393" style="fill:none;stroke:black;stroke-width:1"/>
<polygon points="18.84336624586273,23.67531767068325 19.01751504541714,23.758546535377114 15.72415617604237,16.653972849684653" style="fill:none;stroke:black;stroke-width:1"/>
<polygon points="18.58934704464266,23.397095135848765 18.698295917444803,23.55226703604847 15.72415617604237,16.653972849684653" style="fill:none;stroke:black;stroke-width:1"/>
<polygon points="18.698295917444803,23.55226703604847 18.84336624586273,23.67531767068325 15.72415617604237,16.653972849684653" style="fill:none;stroke:black;stroke-width:1"/>
<polygon points="18.84336624586273,23.67531767068325 18.698295917444803,23.55226703604847 18.615860753598007,22.66504177963962" style="fill:none;stroke:black;stroke-width:1"/>
<polygon points="18.541921317254822,22.83574645255269 14.674299315152968,14.459906632780346 18.615860753598007,22.66504177963962" style="fill:none;stroke:black;stroke-width:1"/>
<polygon points="18.541921317254822,22.83574645255269 18.507543992019883,23.024137901292242 14.674299315152968,14.459906632780346" style="fill:none;stroke:black;stroke-width:1"/>
<polygon points="18.507543992019883,23.024137901292242 18.541921317254822,22.83574645255269 18.58934704464266,23.397095135848765" style="fill:none;stroke:black;stroke-width:1"/>
<polygon points="18.698295917444803,23.55226703604847 18.541921317254822,22.83574645255269 18.615860753598007,22.66504177963962" style="fill:none;stroke:black;stroke-width:1"/>
<polygon points="18.541921317254822,22.83574645255269 18.698295917444803,23.55226703604847 18.58934704464266,23.397095135848765" style="fill:none;stroke:black;stroke-width:1"/>
<polygon points="18.523562611935596,23.21750247446013 18.58934704464266,23.397095135848765 14.674299315152968,14.459906632780346" style="fill:none;stroke:black;stroke-width:1"/>
<polygon points="18.507543992019883,23.024137901292242 18.523562611935596,23.21750247446013 14.674299315152968,14.459906632780346" style="fill:none;stroke:black;stroke-width:1"/>
<polygon points="18.523562611935596,23.21750247446013 18.507543992019883,23.024137901292242 18.58934704464266,23.397095135848765" style="fill:none;stroke:black;stroke-width:1"/>
<polygon points="20.086184538368215,21.58969337303823 20.64718010878713,23.309723883145885 19.93689772334752,21.661567575376004" style="fill:none;stroke:black;stroke-width:1"/>
<polygon points="20.249580568332522,21.52843541277518 20.086184538368215,21.58969337303823 10.661882669869065,15.283977425370427" style="fill:none;stroke:black;stroke-width:1"/>
<polygon points="20.769289521631265,23.22938240250958 20.086184538368215,21.58969337303823 20.249580568332522,21.52843541277518" style="fill:none;stroke:black;stroke-width:1"/>
<polygon points="20.64718010878713,23.309723883145885 20.086184538368215,21.58969337303823 20.769289521631265,23.22938240250958" style="fill:none;stroke:black;stroke-width:1"/>
<polygon points="21.013508347319537,23.068699441236966 20.60929718142888,21.444820537220583 21.13561776016367,22.98835796060066" style="fill:none;stroke:black;stroke-width:1"/>
<polygon points="20.42473504032467,21.479556774273686 20.60929718142888,21.444820537220583 21.013508347319537,23.068699441236966" style="fill:none;stroke:black;stroke-width:1"/>
<polygon points="10.287475458613047,20.727683316686466 20.60929718142888,21.444820537220583 9.963217190230058,17.93765155576061" style="fill:none;stroke:black;stroke-width:1"/>
<polygon points="20.60929718142888,21.444820537220583 20.42473504032467,21.479556774273686 9.963217190230058,17.93765155576061" style="fill:none;stroke:black;stroke-width:1"/>
<polygon points="11.602095147863565,23.132273288218528 13.6865269879108,24.894031867701536 21.188375534749547,21.45490185572264" style="fill:none;stroke:black;stroke-width:1"/>
<polygon points="13.6865269879108,24.894031867701536 16.325023859979552,25.798133751011303 21.188375534749547,21.45490185572264" style="fill:none;stroke:black;stroke-width:1"/>
<polygon points="21.36265195860302,21.53793464963732 19.239243217292575,25.648754367025354 21.754215322826056,24.49052073882391" style="fill:none;stroke:black;stroke-width:1"/>
<polygon points="16.325023859979552,25.798133751011303 19.239243217292575,25.648754367025354 21.36265195860302,21.53793464963732" style="fill:none;stroke:black;stroke-width:1"/>
<polygon points="20.086184538368215,21.58969337303823 12.226998304306,13.151556818789455 10.661882669869065,15.283977425370427" style="fill:none;stroke:black;stroke-width:1"/>
<polygon points="12.226998304306,13.151556818789455 20.086184538368215,21.58969337303823 19.93689772334752,21.661567575376004" style="fill:none;stroke:black;stroke-width:1"/>
<polygon points="19.804070896186232,21.742294940101658 12.226998304306,13.151556818789455 19.93689772334752,21.661567575376004" style="fill:none;stroke:black;stroke-width:1"/>
<polygon points="14.485793267123222,11.754913243526635 12.226998304306,13.151556818789455 19.804070896186232,21.742294940101658" style="fill:none;stroke:black;stroke-width:1"/>
<polygon points="19.95827990057596,23.68727414453433 19.783828736792167,23.7366919400824 19.315611769227313,22.06371910616891" style="fill:none;stroke:black;stroke-width:1"/>
<polygon points="19.43772118207145,21.983377625532604 19.95827990057596,23.68727414453433 19.315611769227313,22.06371910616891" style="fill:none;stroke:black;stroke-width:1"/>
<polygon points="19.95827990057596,23.68727414453433 19.43772118207145,21.983377625532604 20.121048799062944,23.625263777805955" style="fill:none;stroke:black;stroke-width:1"/>
<polygon points="19.95827990057596,23.68727414453433 20.121048799062944,23.625263777805955 17.78595178329678,17.25155444095664" style="fill:none;stroke:black;stroke-width:1"/>
<polygon points="19.783828736792167,23.7366919400824 19.95827990057596,23.68727414453433 17.78595178329678,17.25155444095664" style="fill:none;stroke:black;stroke-width:1"/>
<polygon points="13.11219363128847,22.035487029345273 15.175654315312233,11.183541155151987 15.494127420231107,10.505463780736386" style="fill:none;stroke:black;stroke-width:1"/>
<polygon points="13.143805165913207,22.08453144673259 13.11219363128847,22.035487029345273 15.494127420231107,10.505463780736386" style="fill:none;stroke:black;stroke-width:1"/>
<polygon points="11.890111120003834,22.86315899815521 11.889345686470463,22.91096484387908 14.674299315152968,14.459906632780346" style="fill:none;stroke:black;stroke-width:1"/>
<polygon points="13.242010539215123,7.522544319056706 13.09930178482898,7.393570796695874 19.706265838827974,5.252306193504759" style="fill:none;stroke:black;stroke-width:1"/>
<polygon points="13.377922197604322,7.675249477987322 13.242010539215123,7.522544319056706 19.706265838827974,5.252306193504759" style="fill:none;stroke:black;stroke-width:1"/>
<polygon points="13.612381686857878,8.052879921512975 13.503313889833716,7.85262238947292 19.706265838827974,5.252306193504759" style="fill:none;stroke:black;stroke-width:1"/>
<polygon points="13.696485258213283,8.271334808905277 13.612381686857878,8.052879921512975 19.706265838827974,5.252306193504759" style="fill:none;stroke:black;stroke-width:1"/>
<polygon points="12.534702384387112,7.0941610627877685 12.270821418356157,8.714141669462506 12.39959577385821,7.054941903826019" style="fill:none;stroke:black;stroke-width:1"/>
<polygon points="12.270821418356157,8.714141669462506 12.127845121268644,8.677801355747429 12.39959577385821,7.054941903826019" style="fill:none;stroke:black;stroke-width:1"/>
<polygon points="12.270821418356157,8.714141669462506 12.534702384387112,7.0941610627877685 12.667623277534368,7.139678868911062" style="fill:none;stroke:black;stroke-width:1"/>
<polygon points="12.127845121268644,8.677801355747429 12.270821418356157,8.714141669462506 12.866926443521105,9.192890081707569" style="fill:none;stroke:black;stroke-width:1"/>
<polygon points="11.082325182096197,8.447240036422912 11.259712524862126,6.99835271047898 11.320727999575208,8.502844689752168" style="fill:none;stroke:black;stroke-width:1"/>
<polygon points="11.259712524862126,6.99835271047898 11.082325182096197,8.447240036422912 11.073255231986892,7.026393861672867" style="fill:none;stroke:black;stroke-width:1"/>
<polygon points="11.763105191267378,8.598781751184793 11.082325182096197,8.447240036422912 11.320727999575208,8.502844689752168" style="fill:none;stroke:black;stroke-width:1"/>
<polygon points="11.957381914435683,8.640216568478051 11.082325182096197,8.447240036422912 11.763105191267378,8.598781751184793" style="fill:none;stroke:black;stroke-width:1"/>
<polygon points="10.837241379310345,8.387931034482758 11.082325182096197,8.447240036422912 11.957381914435683,8.640216568478051" style="fill:none;stroke:black;stroke-width:1"/>
<polygon points="11.073255231986892,7.026393861672867 10.881922988148537,7.064713926581874 16.07668802569787,3.886375969409893" style="fill:none;stroke:black;stroke-width:1"/>
<polygon points="11.082325182096197,8.447240036422912 10.881922988148537,7.064713926581874 11.073255231986892,7.026393861672867" style="fill:none;stroke:black;stroke-width:1"/>
<polygon points="10.881922988148537,7.064713926581874 11.082325182096197,8.447240036422912 10.837241379310345,8.387931034482758" style="fill:none;stroke:black;stroke-width:1"/>
<polygon points="15.750035028354231,11.788895303167697 20.8137179009772,18.2682017257829 19.172847515256286,11.104189533990393" style="fill:none;stroke:black;stroke-width:1"/>
<polygon points="20.8137179009772,18.2682017257829 19.209057218305993,20.289599461767242 19.172847515256286,11.104189533990393" style="fill:none;stroke:black;stroke-width:1"/>
<polygon points="17.852506574710844,14.557383623209754 20.002142205434446,15.903220721954174 19.172847515256286,11.104189533990393" style="fill:none;stroke:black;stroke-width:1"/>
<polygon points="15.472449888100925,15.549630800105964 17.852506574710844,14.557383623209754 19.172847515256286,11.104189533990393" style="fill:none;stroke:black;stroke-width:1"/>
<polygon points="16.48473925100526,20.25227842765345 14.837772532922973,18.13403004354327 19.172847515256286,11.104189533990393" style="fill:none;stroke:black;stroke-width:1"/>
<polygon points="14.837772532922973,18.13403004354327 15.472449888100925,15.549630800105964 19.172847515256286,11.104189533990393" style="fill:none;stroke:black;stroke-width:1"/>
<polygon points="12.84180345967264,17.964501113739008 14.030776158011934,19.67585408344899 17.609346376834534,10.437642790535874" style="fill:none;stroke:black;stroke-width:1"/>
<polygon points="10.848111380469561,18.299950321976393 12.84180345967264,17.964501113739008 17.609346376834534,10.437642790535874" style="fill:none;stroke:black;stroke-width:1"/>
<polygon points="13.749042701444855,22.746288025754932 11.831939279025267,20.836394526196788 17.609346376834534,10.437642790535874" style="fill:none;stroke:black;stroke-width:1"/>
<polygon points="11.831939279025267,20.836394526196788 10.848111380469561,18.299950321976393 17.609346376834534,10.437642790535874" style="fill:none;stroke:black;stroke-width:1"/>
<polygon points="19.408459791263564,23.7908039593138 19.213786693257553,23.793793103448273 18.94928353069491,22.30474354807783" style="fill:none;stroke:black;stroke-width:1"/>
<polygon points="19.213786693257553,23.793793103448273 18.8257986951362,22.394927069141012 18.94928353069491,22.30474354807783" style="fill:none;stroke:black;stroke-width:1"/>
<polygon points="19.213786693257553,23.793793103448273 19.408459791263564,23.7908039593138 15.72415617604237,16.653972849684653" style="fill:none;stroke:black;stroke-width:1"/>
<polygon points="19.01751504541714,23.758546535377114 19.213786693257553,23.793793103448273 15.72415617604237,16.653972849684653" style="fill:none;stroke:black;stroke-width:1"/>
<polygon points="19.213786693257553,23.793793103448273 19.01751504541714,23.758546535377114 18.84336624586273,23.67531767068325" style="fill:none;stroke:black;stroke-width:1"/>
<polygon points="20.60929718142888,21.444820537220583 20.800916218729363,21.42598978130271 21.13561776016367,22.98835796060066" style="fill:none;stroke:black;stroke-width:1"/>
<polygon points="21.2577271730078,22.908016479964353 20.800916218729363,21.42598978130271 20.997241379310346,21.424827586206895" style="fill:none;stroke:black;stroke-width:1"/>
<polygon points="20.800916218729363,21.42598978130271 21.2577271730078,22.908016479964353 21.13561776016367,22.98835796060066" style="fill:none;stroke:black;stroke-width:1"/>
<polygon points="20.800916218729363,21.42598978130271 10.287475458613047,20.727683316686466 20.997241379310346,21.424827586206895" style="fill:none;stroke:black;stroke-width:1"/>
<polygon points="20.800916218729363,21.42598978130271 20.60929718142888,21.444820537220583 10.287475458613047,20.727683316686466" style="fill:none;stroke:black;stroke-width:1"/>
<polygon points="13.164211246859258,22.132302706758814 13.143805165913207,22.08453144673259 15.494127420231107,10.505463780736386" style="fill:none;stroke:black;stroke-width:1"/>
<polygon points="17.178310822758764,11.13558343473143 13.174403334743909,22.264135175438533 15.494127420231107,10.505463780736386" style="fill:none;stroke:black;stroke-width:1"/>
<polygon points="13.174403334743909,22.264135175438533 13.175168768277281,22.216329329714664 15.494127420231107,10.505463780736386" style="fill:none;stroke:black;stroke-width:1"/>
<polygon points="12.778278357026881,21.85324449532377 12.680689067958157,21.852176075969496 15.175654315312233,11.183541155151987" style="fill:none;stroke:black;stroke-width:1"/>
<polygon points="12.680689067958157,21.852176075969496 12.579775405683488,21.868676020811744 15.175654315312233,11.183541155151987" style="fill:none;stroke:black;stroke-width:1"/>
<polygon points="12.478760287109957,21.90312375831353 12.380725714644354,21.955821248535766 15.175654315312233,11.183541155151987" style="fill:none;stroke:black;stroke-width:1"/>
<polygon points="12.579775405683488,21.868676020811744 12.478760287109957,21.90312375831353 15.175654315312233,11.183541155151987" style="fill:none;stroke:black;stroke-width:1"/>
<polygon points="11.90578847168047,22.74048596056612 11.89521801503044,22.806127077128625 14.674299315152968,14.459906632780346" style="fill:none;stroke:black;stroke-width:1"/>
<polygon points="11.89521801503044,22.806127077128625 11.890111120003834,22.86315899815521 14.674299315152968,14.459906632780346" style="fill:none;stroke:black;stroke-width:1"/>
<polygon points="19.213786693257553,23.793793103448273 18.712349929315515,22.516434364012497 18.8257986951362,22.394927069141012" style="fill:none;stroke:black;stroke-width:1"/>
<polygon points="18.712349929315515,22.516434364012497 18.84336624586273,23.67531767068325 18.615860753598007,22.66504177963962" style="fill:none;stroke:black;stroke-width:1"/>
<polygon points="18.712349929315515,22.516434364012497 19.213786693257553,23.793793103448273 18.84336624586273,23.67531767068325" style="fill:none;stroke:black;stroke-width:1"/>
<polygon points="11.889345686470463,22.91096484387908 11.890946715441476,22.95118879084744 18.615860753598007,22.66504177963962" style="fill:none;stroke:black;stroke-width:1"/>
<polygon points="11.890946715441476,22.95118879084744 18.712349929315515,22.516434364012497 18.615860753598007,22.66504177963962" style="fill:none;stroke:black;stroke-width:1"/>
<polygon points="18.712349929315515,22.516434364012497 11.890946715441476,22.95118879084744 11.900528351201789,22.9955118548135" style="fill:none;stroke:black;stroke-width:1"/>
<polygon points="12.051300956873694,23.185778055255135 19.071392943539045,22.224402067441524 18.94928353069491,22.30474354807783" style="fill:none;stroke:black;stroke-width:1"/>
<polygon points="12.80838512080405,7.203074189635156 12.397057872979707,8.76061812729689 12.667623277534368,7.139678868911062" style="fill:none;stroke:black;stroke-width:1"/>
<polygon points="12.397057872979707,8.76061812729689 12.270821418356157,8.714141669462506 12.667623277534368,7.139678868911062" style="fill:none;stroke:black;stroke-width:1"/>
<polygon points="12.270821418356157,8.714141669462506 12.397057872979707,8.76061812729689 12.866926443521105,9.192890081707569" style="fill:none;stroke:black;stroke-width:1"/>
<polygon points="10.688098514947548,7.125360345366641 10.837241379310345,8.387931034482758 10.509170315525017,7.251103738375352" style="fill:none;stroke:black;stroke-width:1"/>
<polygon points="10.688098514947548,7.125360345366641 10.881922988148537,7.064713926581874 10.837241379310345,8.387931034482758" style="fill:none;stroke:black;stroke-width:1"/>
<polygon points="10.688098514947548,7.125360345366641 10.509170315525017,7.251103738375352 16.07668802569787,3.886375969409893" style="fill:none;stroke:black;stroke-width:1"/>
<polygon points="10.881922988148537,7.064713926581874 10.688098514947548,7.125360345366641 16.07668802569787,3.886375969409893" style="fill:none;stroke:black;stroke-width:1"/>
<polygon points="13.175168768277281,22.216329329714664 13.173577779289477,22.176288652992746 15.494127420231107,10.505463780736386" style="fill:none;stroke:black;stroke-width:1"/>
<polygon points="13.173577779289477,22.176288652992746 13.164211246859258,22.132302706758814 15.494127420231107,10.505463780736386" style="fill:none;stroke:black;stroke-width:1"/>
<polygon points="13.169296439717304,22.32116709646512 17.178310822758764,11.13558343473143 13.158725983067272,22.386808213027628" style="fill:none;stroke:black;stroke-width:1"/>
<polygon points="13.169296439717304,22.32116709646512 13.174403334743909,22.264135175438533 17.178310822758764,11.13558343473143" style="fill:none;stroke:black;stroke-width:1"/>
<polygon points="12.869190262000568,21.871407331601006 12.778278357026881,21.85324449532377 15.175654315312233,11.183541155151987" style="fill:none;stroke:black;stroke-width:1"/>
<polygon points="12.9481960645229,21.90344675892174 12.869190262000568,21.871407331601006 15.175654315312233,11.183541155151987" style="fill:none;stroke:black;stroke-width:1"/>
<polygon points="13.014620060378967,21.942827440732486 12.9481960645229,21.90344675892174 15.175654315312233,11.183541155151987" style="fill:none;stroke:black;stroke-width:1"/>
<polygon points="11.947361314881261,22.586510650912537 11.922858426453542,22.66698830039098 14.618748510400323,12.704603018584702" style="fill:none;stroke:black;stroke-width:1"/>
<polygon points="11.980113350691276,22.500039645041063 11.947361314881261,22.586510650912537 14.618748510400323,12.704603018584702" style="fill:none;stroke:black;stroke-width:1"/>
<polygon points="12.072968428940445,22.313519639404582 12.02180065362922,22.40865643449743 14.618748510400323,12.704603018584702" style="fill:none;stroke:black;stroke-width:1"/>
<polygon points="12.02180065362922,22.40865643449743 11.980113350691276,22.500039645041063 14.618748510400323,12.704603018584702" style="fill:none;stroke:black;stroke-width:1"/>
<polygon points="12.380725714644354,21.955821248535766 12.2886041779808,22.02701125526874 14.618748510400323,12.704603018584702" style="fill:none;stroke:black;stroke-width:1"/>
<polygon points="12.2886041779808,22.02701125526874 12.205172413793104,22.11689655172414 14.618748510400323,12.704603018584702" style="fill:none;stroke:black;stroke-width:1"/>
<polygon points="12.134012369157617,22.21584707615609 12.072968428940445,22.313519639404582 14.618748510400323,12.704603018584702" style="fill:none;stroke:black;stroke-width:1"/>
<polygon points="12.205172413793104,22.11689655172414 12.134012369157617,22.21584707615609 14.618748510400323,12.704603018584702" style="fill:none;stroke:black;stroke-width:1"/>
<polygon points="18.8257986951362,22.394927069141012 11.996376870781699,23.140970269526008 18.94928353069491,22.30474354807783" style="fill:none;stroke:black;stroke-width:1"/>
<polygon points="11.996376870781699,23.140970269526008 12.051300956873694,23.185778055255135 18.94928353069491,22.30474354807783" style="fill:none;stroke:black;stroke-width:1"/>
<polygon points="19.071392943539045,22.224402067441524 12.11810055899547,23.225217086541413 19.193502356383178,22.144060586805217" style="fill:none;stroke:black;stroke-width:1"/>
<polygon points="12.051300956873694,23.185778055255135 12.11810055899547,23.225217086541413 19.071392943539045,22.224402067441524" style="fill:none;stroke:black;stroke-width:1"/>
<polygon points="19.193502356383178,22.144060586805217 12.11810055899547,23.225217086541413 19.315611769227313,22.06371910616891" style="fill:none;stroke:black;stroke-width:1"/>
<polygon points="12.51085784814351,8.81591502866363 12.80838512080405,7.203074189635156 12.953518967630437,7.287392792892726" style="fill:none;stroke:black;stroke-width:1"/>
<polygon points="12.51085784814351,8.81591502866363 12.397057872979707,8.76061812729689 12.80838512080405,7.203074189635156" style="fill:none;stroke:black;stroke-width:1"/>
<polygon points="12.51085784814351,8.81591502866363 12.953518967630437,7.287392792892726 13.09930178482898,7.393570796695874" style="fill:none;stroke:black;stroke-width:1"/>
<polygon points="12.397057872979707,8.76061812729689 12.51085784814351,8.81591502866363 12.866926443521105,9.192890081707569" style="fill:none;stroke:black;stroke-width:1"/>
<polygon points="13.11219363128847,22.035487029345273 13.06920064079237,21.98752112333477 15.175654315312233,11.183541155151987" style="fill:none;stroke:black;stroke-width:1"/>
<polygon points="13.06920064079237,21.98752112333477 13.014620060378967,21.942827440732486 15.175654315312233,11.183541155151987" style="fill:none;stroke:black;stroke-width:1"/>
<polygon points="18.712349929315515,22.516434364012497 11.921181636065059,23.043564478920533 18.8257986951362,22.394927069141012" style="fill:none;stroke:black;stroke-width:1"/>
<polygon points="11.921181636065059,23.043564478920533 18.712349929315515,22.516434364012497 11.900528351201789,22.9955118548135" style="fill:none;stroke:black;stroke-width:1"/>
<polygon points="12.197213938666334,23.25756602078839 19.43772118207145,21.983377625532604 19.315611769227313,22.06371910616891" style="fill:none;stroke:black;stroke-width:1"/>
<polygon points="12.11810055899547,23.225217086541413 12.197213938666334,23.25756602078839 19.315611769227313,22.06371910616891" style="fill:none;stroke:black;stroke-width:1"/>
<polygon points="19.43772118207145,21.983377625532604 12.197213938666334,23.25756602078839 19.55983059491558,21.903036144896298" style="fill:none;stroke:black;stroke-width:1"/>
<polygon points="13.242010539215123,7.522544319056706 12.61146751274627,8.879123341940579 13.09930178482898,7.393570796695874" style="fill:none;stroke:black;stroke-width:1"/>
<polygon points="12.61146751274627,8.879123341940579 12.51085784814351,8.81591502866363 13.09930178482898,7.393570796695874" style="fill:none;stroke:black;stroke-width:1"/>
<polygon points="12.51085784814351,8.81591502866363 12.61146751274627,8.879123341940579 12.866926443521105,9.192890081707569" style="fill:none;stroke:black;stroke-width:1"/>
<polygon points="11.953072475194137,23.09283450673734 11.996376870781699,23.140970269526008 18.8257986951362,22.394927069141012" style="fill:none;stroke:black;stroke-width:1"/>
<polygon points="11.921181636065059,23.043564478920533 11.953072475194137,23.09283450673734 18.8257986951362,22.394927069141012" style="fill:none;stroke:black;stroke-width:1"/>
<polygon points="12.287185774429728,23.276517194564544 19.804070896186232,21.742294940101658 19.681940007759717,21.822694664259984" style="fill:none;stroke:black;stroke-width:1"/>
<polygon points="19.804070896186232,21.742294940101658 12.287185774429728,23.276517194564544 12.384005948127623,23.277803043440866" style="fill:none;stroke:black;stroke-width:1"/>
<polygon points="19.55983059491558,21.903036144896298 12.287185774429728,23.276517194564544 19.681940007759717,21.822694664259984" style="fill:none;stroke:black;stroke-width:1"/>
<polygon points="12.197213938666334,23.25756602078839 12.287185774429728,23.276517194564544 19.55983059491558,21.903036144896298" style="fill:none;stroke:black;stroke-width:1"/>
<polygon points="12.698133035686702,8.949334035505593 13.242010539215123,7.522544319056706 13.377922197604322,7.675249477987322" style="fill:none;stroke:black;stroke-width:1"/>
<polygon points="12.698133035686702,8.949334035505593 12.61146751274627,8.879123341940579 13.242010539215123,7.522544319056706" style="fill:none;stroke:black;stroke-width:1"/>
<polygon points="12.698133035686702,8.949334035505593 13.377922197604322,7.675249477987322 13.503313889833716,7.85262238947292" style="fill:none;stroke:black;stroke-width:1"/>
<polygon points="12.61146751274627,8.879123341940579 12.826616332175412,9.107126437011235 12.866926443521105,9.192890081707569" style="fill:none;stroke:black;stroke-width:1"/>
<polygon points="12.698133035686702,8.949334035505593 12.826616332175412,9.107126437011235 12.61146751274627,8.879123341940579" style="fill:none;stroke:black;stroke-width:1"/>
<polygon points="12.826616332175412,9.107126437011235 13.696485258213283,8.271334808905277 12.866926443521105,9.192890081707569" style="fill:none;stroke:black;stroke-width:1"/>
<polygon points="12.826616332175412,9.107126437011235 13.612381686857878,8.052879921512975 13.696485258213283,8.271334808905277" style="fill:none;stroke:black;stroke-width:1"/>
<polygon points="13.612381686857878,8.052879921512975 12.770100585863513,9.025638077736525 13.503313889833716,7.85262238947292" style="fill:none;stroke:black;stroke-width:1"/>
<polygon points="12.826616332175412,9.107126437011235 12.770100585863513,9.025638077736525 13.612381686857878,8.052879921512975" style="fill:none;stroke:black;stroke-width:1"/>
<polygon points="12.770100585863513,9.025638077736525 12.698133035686702,8.949334035505593 13.503313889833716,7.85262238947292" style="fill:none;stroke:black;stroke-width:1"/>
<polygon points="12.770100585863513,9.025638077736525 12.826616332175412,9.107126437011235 12.698133035686702,8.949334035505593" style="fill:none;stroke:black;stroke-width:1"/>
<polygon points="12.991546025807299,22.813774534189164 21.540625146821085,22.158718146152033 12.930502085590124,22.911447097437655" style="fill:none;stroke:black;stroke-width:1"/>
<polygon points="12.930502085590124,22.911447097437655 21.540625146821085,22.158718146152033 19.39399119647339,23.831731030895316" style="fill:none;stroke:black;stroke-width:1"/>
<polygon points="12.683815807703862,23.17265860016606 21.973519413725754,13.422667375803783 19.857497712963646,11.920630627789956" style="fill:none;stroke:black;stroke-width:1"/>
<polygon points="12.683815807703862,23.17265860016606 19.857497712963646,11.920630627789956 12.585360611487815,23.226087051644917" style="fill:none;stroke:black;stroke-width:1"/>
<polygon points="23.377295454569538,15.601185904075043 12.683815807703862,23.17265860016606 12.777077084694016,23.100689103930435" style="fill:none;stroke:black;stroke-width:1"/>
<polygon points="12.683815807703862,23.17265860016606 23.377295454569538,15.601185904075043 21.973519413725754,13.422667375803783" style="fill:none;stroke:black;stroke-width:1"/>
<polygon points="17.243863042137086,11.308466248717188 12.48443426180474,23.261077009002435 12.585360611487815,23.226087051644917" style="fill:none;stroke:black;stroke-width:1"/>
<polygon points="19.857497712963646,11.920630627789956 17.243863042137086,11.308466248717188 12.585360611487815,23.226087051644917" style="fill:none;stroke:black;stroke-width:1"/>
<polygon points="12.48443426180474,23.261077009002435 17.243863042137086,11.308466248717188 12.384005948127623,23.277803043440866" style="fill:none;stroke:black;stroke-width:1"/>
<polygon points="17.243863042137086,11.308466248717188 14.485793267123222,11.754913243526635 12.384005948127623,23.277803043440866" style="fill:none;stroke:black;stroke-width:1"/>
<polygon points="19.239243217292575,25.648754367025354 23.850689655172413,18.235517241379313 21.754215322826056,24.49052073882391" style="fill:none;stroke:black;stroke-width:1"/>
<polygon points="23.850689655172413,18.235517241379313 9.963217190230058,17.93765155576061 10.661882669869065,15.283977425370427" style="fill:none;stroke:black;stroke-width:1"/>
<polygon points="20.358270757788524,18.82023725161374 23.850689655172413,18.235517241379313 22.17658586309375,18.392286189169454" style="fill:none;stroke:black;stroke-width:1"/>
<polygon points="23.850689655172413,18.235517241379313 10.287475458613047,20.727683316686466 9.963217190230058,17.93765155576061" style="fill:none;stroke:black;stroke-width:1"/>
<polygon points="23.850689655172413,18.235517241379313 20.68198430949009,15.839797410334661 21.935170747221427,18.23749844510265" style="fill:none;stroke:black;stroke-width:1"/>
<polygon points="23.850689655172413,18.235517241379313 23.53438338158086,15.61078976726515 21.789590081790912,13.609482570616086" style="fill:none;stroke:black;stroke-width:1"/>
<polygon points="23.850689655172413,18.235517241379313 15.750035028354231,11.788895303167697 13.528675788766368,13.29066603551722" style="fill:none;stroke:black;stroke-width:1"/>
<polygon points="19.324474936285704,12.454984349953856 23.850689655172413,18.235517241379313 21.789590081790912,13.609482570616086" style="fill:none;stroke:black;stroke-width:1"/>
<polygon points="23.850689655172413,18.235517241379313 17.243863042137086,11.308466248717188 19.857497712963646,11.920630627789956" style="fill:none;stroke:black;stroke-width:1"/>
<polygon points="24.072751227168663,17.88919209288577 23.850689655172413,18.235517241379313 21.935170747221427,18.23749844510265" style="fill:none;stroke:black;stroke-width:1"/>
<polygon points="18.31780170867968,14.599484360786125 23.850689655172413,18.235517241379313 15.758114119489516,15.30148597871623" style="fill:none;stroke:black;stroke-width:1"/>
<polygon points="12.076557402283509,15.587185783452401 23.850689655172413,18.235517241379313 13.528675788766368,13.29066603551722" style="fill:none;stroke:black;stroke-width:1"/>
<polygon points="23.850689655172413,18.235517241379313 14.414685500984525,17.499100464366535 15.758114119489516,15.30148597871623" style="fill:none;stroke:black;stroke-width:1"/>
<polygon points="23.850689655172413,18.235517241379313 16.331718997009336,23.762677636100026 20.002142205434446,15.903220721954174" style="fill:none;stroke:black;stroke-width:1"/>
<polygon points="23.850689655172413,18.235517241379313 13.6865269879108,24.894031867701536 11.602095147863565,23.132273288218528" style="fill:none;stroke:black;stroke-width:1"/>
<polygon points="23.850689655172413,18.235517241379313 16.155813342481373,21.191297819457873 14.030776158011934,19.67585408344899" style="fill:none;stroke:black;stroke-width:1"/>
<polygon points="23.850689655172413,18.235517241379313 22.873192402096244,19.745550122462834 22.17658586309375,18.392286189169454" style="fill:none;stroke:black;stroke-width:1"/>
<polygon points="21.540625146821085,22.158718146152033 23.850689655172413,18.235517241379313 19.39399119647339,23.831731030895316" style="fill:none;stroke:black;stroke-width:1"/>
<polygon points="23.850689655172413,18.235517241379313 23.618071647250524,22.533955436426226 21.754215322826056,24.49052073882391" style="fill:none;stroke:black;stroke-width:1"/>
<polygon points="20.68198430949009,15.839797410334661 23.850689655172413,18.235517241379313 18.31780170867968,14.599484360786125" style="fill:none;stroke:black;stroke-width:1"/>
<polygon points="23.850689655172413,18.235517241379313 12.076557402283509,15.587185783452401 12.16014273942807,17.625968907302774" style="fill:none;stroke:black;stroke-width:1"/>
<polygon points="14.414685500984525,17.499100464366535 23.850689655172413,18.235517241379313 12.16014273942807,17.625968907302774" style="fill:none;stroke:black;stroke-width:1"/>
<polygon points="12.226998304306,13.151556818789455 23.850689655172413,18.235517241379313 10.661882669869065,15.283977425370427" style="fill:none;stroke:black;stroke-width:1"/>
<polygon points="23.850689655172413,18.235517241379313 20.8137179009772,18.2682017257829 15.750035028354231,11.788895303167697" style="fill:none;stroke:black;stroke-width:1"/>
<polygon points="10.287475458613047,20.727683316686466 23.850689655172413,18.235517241379313 11.602095147863565,23.132273288218528" style="fill:none;stroke:black;stroke-width:1"/>
<polygon points="23.850689655172413,18.235517241379313 14.837772532922973,18.13403004354327 16.48473925100526,20.25227842765345" style="fill:none;stroke:black;stroke-width:1"/>
<polygon points="21.973519413725754,13.422667375803783 23.850689655172413,18.235517241379313 19.857497712963646,11.920630627789956" style="fill:none;stroke:black;stroke-width:1"/>
<polygon points="23.377295454569538,15.601185904075043 23.850689655172413,18.235517241379313 21.973519413725754,13.422667375803783" style="fill:none;stroke:black;stroke-width:1"/>
<polygon points="16.155813342481373,21.191297819457873 23.850689655172413,18.235517241379313 18.773766102772072,20.822363368177065" style="fill:none;stroke:black;stroke-width:1"/>
<polygon points="23.850689655172413,18.235517241379313 20.358270757788524,18.82023725161374 18.773766102772072,20.822363368177065" style="fill:none;stroke:black;stroke-width:1"/>
<polygon points="23.850689655172413,18.235517241379313 21.540625146821085,22.158718146152033 22.873192402096244,19.745550122462834" style="fill:none;stroke:black;stroke-width:1"/>
<polygon points="23.53438338158086,15.61078976726515 23.850689655172413,18.235517241379313 24.072751227168663,17.88919209288577" style="fill:none;stroke:black;stroke-width:1"/>
<polygon points="23.618071647250524,22.533955436426226 23.850689655172413,18.235517241379313 24.655867669565936,19.993023857431687" style="fill:none;stroke:black;stroke-width:1"/>
<polygon points="23.850689655172413,18.235517241379313 19.324474936285704,12.454984349953856 24.655867669565936,19.993023857431687" style="fill:none;stroke:black;stroke-width:1"/>
<polygon points="19.209057218305993,20.289599461767242 23.850689655172413,18.235517241379313 16.48473925100526,20.25227842765345" style="fill:none;stroke:black;stroke-width:1"/>
<polygon points="17.852506574710844,14.557383623209754 23.850689655172413,18.235517241379313 20.002142205434446,15.903220721954174" style="fill:none;stroke:black;stroke-width:1"/>
<polygon points="16.331718997009336,23.762677636100026 23.850689655172413,18.235517241379313 13.749042701444855,22.746288025754932" style="fill:none;stroke:black;stroke-width:1"/>
<polygon points="12.84180345967264,17.964501113739008 23.850689655172413,18.235517241379313 14.030776158011934,19.67585408344899" style="fill:none;stroke:black;stroke-width:1"/>
<polygon points="13.6865269879108,24.894031867701536 23.850689655172413,18.235517241379313 16.325023859979552,25.798133751011303" style="fill:none;stroke:black;stroke-width:1"/>
<polygon points="23.850689655172413,18.235517241379313 19.239243217292575,25.648754367025354 16.325023859979552,25.798133751011303" style="fill:none;stroke:black;stroke-width:1"/>
<polygon points="23.850689655172413,18.235517241379313 11.831939279025267,20.836394526196788 13.749042701444855,22.746288025754932" style="fill:none;stroke:black;stroke-width:1"/>
<polygon points="17.243863042137086,11.308466248717188 23.850689655172413,18.235517241379313 14.485793267123222,11.754913243526635" style="fill:none;stroke:black;stroke-width:1"/>
<polygon points="23.850689655172413,18.235517241379313 12.226998304306,13.151556818789455 14.485793267123222,11.754913243526635" style="fill:none;stroke:black;stroke-width:1"/>
<polygon points="20.8137179009772,18.2682017257829 23.850689655172413,18.235517241379313 19.209057218305993,20.289599461767242" style="fill:none;stroke:black;stroke-width:1"/>
<polygon points="23.850689655172413,18.235517241379313 17.852506574710844,14.557383623209754 15.472449888100925,15.549630800105964" style="fill:none;stroke:black;stroke-width:1"/>
<polygon points="14.837772532922973,18.13403004354327 23.850689655172413,18.235517241379313 15.472449888100925,15.549630800105964" style="fill:none;stroke:black;stroke-width:1"/>
<polygon points="23.850689655172413,18.235517241379313 12.84180345967264,17.964501113739008 10.848111380469561,18.299950321976393" style="fill:none;stroke:black;stroke-width:1"/>
<polygon points="11.831939279025267,20.836394526196788 23.850689655172413,18.235517241379313 10.848111380469561,18.299950321976393" style="fill:none;stroke:black;stroke-width:1"/>
<polygon points="23.850689655172413,18.235517241379313 12.859514049398614,23.01059308236011 12.930502085590124,22.911447097437655" style="fill:none;stroke:black;stroke-width:1"/>
<polygon points="23.850689655172413,18.235517241379313 12.930502085590124,22.911447097437655 19.39399119647339,23.831731030895316" style="fill:none;stroke:black;stroke-width:1"/>
<polygon points="12.859514049398614,23.01059308236011 23.850689655172413,18.235517241379313 12.777077084694016,23.100689103930435" style="fill:none;stroke:black;stroke-width:1"/>
<polygon points="23.850689655172413,18.235517241379313 23.377295454569538,15.601185904075043 12.777077084694016,23.100689103930435" style="fill:none;stroke:black;stroke-width:1"/>
<polygon points="12.287185774429728,23.276517194564544 13.158725983067272,22.386808213027628 13.1416560282942,22.460305873202763" style="fill:none;stroke:black;stroke-width:1"/>
<polygon points="13.117153139866481,22.540783522681213 12.287185774429728,23.276517194564544 13.1416560282942,22.460305873202763" style="fill:none;stroke:black;stroke-width:1"/>
<polygon points="12.287185774429728,23.276517194564544 12.02180065362922,22.40865643449743 12.072968428940445,22.313519639404582" style="fill:none;stroke:black;stroke-width:1"/>
<polygon points="12.287185774429728,23.276517194564544 12.48443426180474,23.261077009002435 12.384005948127623,23.277803043440866" style="fill:none;stroke:black;stroke-width:1"/>
<polygon points="12.287185774429728,23.276517194564544 13.084401104056465,22.627254528552683 13.042713801118524,22.718637739096316" style="fill:none;stroke:black;stroke-width:1"/>
<polygon points="12.991546025807299,22.813774534189164 12.287185774429728,23.276517194564544 13.042713801118524,22.718637739096316" style="fill:none;stroke:black;stroke-width:1"/>
<polygon points="12.287185774429728,23.276517194564544 13.169296439717304,22.32116709646512 13.158725983067272,22.386808213027628" style="fill:none;stroke:black;stroke-width:1"/>
<polygon points="12.287185774429728,23.276517194564544 12.859514049398614,23.01059308236011 12.777077084694016,23.100689103930435" style="fill:none;stroke:black;stroke-width:1"/>
<polygon points="12.48443426180474,23.261077009002435 12.287185774429728,23.276517194564544 12.585360611487815,23.226087051644917" style="fill:none;stroke:black;stroke-width:1"/>
<polygon points="12.683815807703862,23.17265860016606 12.287185774429728,23.276517194564544 12.777077084694016,23.100689103930435" style="fill:none;stroke:black;stroke-width:1"/>
<polygon points="12.287185774429728,23.276517194564544 11.90578847168047,22.74048596056612 11.922858426453542,22.66698830039098" style="fill:none;stroke:black;stroke-width:1"/>
<polygon points="13.084401104056465,22.627254528552683 12.287185774429728,23.276517194564544 13.117153139866481,22.540783522681213" style="fill:none;stroke:black;stroke-width:1"/>
<polygon points="12.859514049398614,23.01059308236011 12.287185774429728,23.276517194564544 12.930502085590124,22.911447097437655" style="fill:none;stroke:black;stroke-width:1"/>
<polygon points="12.287185774429728,23.276517194564544 12.991546025807299,22.813774534189164 12.930502085590124,22.911447097437655" style="fill:none;stroke:black;stroke-width:1"/>
<polygon points="13.164211246859258,22.132302706758814 12.287185774429728,23.276517194564544 13.143805165913207,22.08453144673259" style="fill:none;stroke:black;stroke-width:1"/>
<polygon points="12.287185774429728,23.276517194564544 13.173577779289477,22.176288652992746 13.175168768277281,22.216329329714664" style="fill:none;stroke:black;stroke-width:1"/>
<polygon points="12.478760287109957,21.90312375831353 12.287185774429728,23.276517194564544 12.380725714644354,21.955821248535766" style="fill:none;stroke:black;stroke-width:1"/>
<polygon points="12.287185774429728,23.276517194564544 12.683815807703862,23.17265860016606 12.585360611487815,23.226087051644917" style="fill:none;stroke:black;stroke-width:1"/>
<polygon points="12.287185774429728,23.276517194564544 11.890946715441476,22.95118879084744 11.889345686470463,22.91096484387908" style="fill:none;stroke:black;stroke-width:1"/>
<polygon points="12.287185774429728,23.276517194564544 13.11219363128847,22.035487029345273 13.143805165913207,22.08453144673259" style="fill:none;stroke:black;stroke-width:1"/>
<polygon points="12.287185774429728,23.276517194564544 12.680689067958157,21.852176075969496 12.778278357026881,21.85324449532377" style="fill:none;stroke:black;stroke-width:1"/>
<polygon points="12.287185774429728,23.276517194564544 11.921181636065059,23.043564478920533 11.900528351201789,22.9955118548135" style="fill:none;stroke:black;stroke-width:1"/>
<polygon points="11.890111120003834,22.86315899815521 12.287185774429728,23.276517194564544 11.889345686470463,22.91096484387908" style="fill:none;stroke:black;stroke-width:1"/>
<polygon points="12.287185774429728,23.276517194564544 11.89521801503044,22.806127077128625 11.90578847168047,22.74048596056612" style="fill:none;stroke:black;stroke-width:1"/>
<polygon points="12.287185774429728,23.276517194564544 13.06920064079237,21.98752112333477 13.11219363128847,22.035487029345273" style="fill:none;stroke:black;stroke-width:1"/>
<polygon points="13.174403334743909,22.264135175438533 12.287185774429728,23.276517194564544 13.175168768277281,22.216329329714664" style="fill:none;stroke:black;stroke-width:1"/>
<polygon points="12.869190262000568,21.871407331601006 12.287185774429728,23.276517194564544 12.778278357026881,21.85324449532377" style="fill:none;stroke:black;stroke-width:1"/>
<polygon points="12.680689067958157,21.852176075969496 12.287185774429728,23.276517194564544 12.579775405683488,21.868676020811744" style="fill:none;stroke:black;stroke-width:1"/>
<polygon points="12.287185774429728,23.276517194564544 12.478760287109957,21.90312375831353 12.579775405683488,21.868676020811744" style="fill:none;stroke:black;stroke-width:1"/>
<polygon points="11.947361314881261,22.586510650912537 12.287185774429728,23.276517194564544 11.922858426453542,22.66698830039098" style="fill:none;stroke:black;stroke-width:1"/>
<polygon points="12.287185774429728,23.276517194564544 12.2886041779808,22.02701125526874 12.380725714644354,21.955821248535766" style="fill:none;stroke:black;stroke-width:1"/>
<polygon points="11.89521801503044,22.806127077128625 12.287185774429728,23.276517194564544 11.890111120003834,22.86315899815521" style="fill:none;stroke:black;stroke-width:1"/>
<polygon points="11.890946715441476,22.95118879084744 12.287185774429728,23.276517194564544 11.900528351201789,22.9955118548135" style="fill:none;stroke:black;stroke-width:1"/>
<polygon points="12.134012369157617,22.21584707615609 12.287185774429728,23.276517194564544 12.072968428940445,22.313519639404582" style="fill:none;stroke:black;stroke-width:1"/>
<polygon points="13.173577779289477,22.176288652992746 12.287185774429728,23.276517194564544 13.164211246859258,22.132302706758814" style="fill:none;stroke:black;stroke-width:1"/>
<polygon points="13.169296439717304,22.32116709646512 12.287185774429728,23.276517194564544 13.174403334743909,22.264135175438533" style="fill:none;stroke:black;stroke-width:1"/>
<polygon points="12.287185774429728,23.276517194564544 12.869190262000568,21.871407331601006 12.9481960645229,21.90344675892174" style="fill:none;stroke:black;stroke-width:1"/>
<polygon points="13.014620060378967,21.942827440732486 12.287185774429728,23.276517194564544 12.9481960645229,21.90344675892174" style="fill:none;stroke:black;stroke-width:1"/>
<polygon points="12.287185774429728,23.276517194564544 11.947361314881261,22.586510650912537 11.980113350691276,22.500039645041063" style="fill:none;stroke:black;stroke-width:1"/>
<polygon points="12.02180065362922,22.40865643449743 12.287185774429728,23.276517194564544 11.980113350691276,22.500039645041063" style="fill:none;stroke:black;stroke-width:1"/>
<polygon points="12.2886041779808,22.02701125526874 12.287185774429728,23.276517194564544 12.205172413793104,22.11689655172414" style="fill:none;stroke:black;stroke-width:1"/>
<polygon points="12.287185774429728,23.276517194564544 12.134012369157617,22.21584707615609 12.205172413793104,22.11689655172414" style="fill:none;stroke:black;stroke-width:1"/>
<polygon points="11.996376870781699,23.140970269526008 12.287185774429728,23.276517194564544 12.051300956873694,23.185778055255135" style="fill:none;stroke:black;stroke-width:1"/>
<polygon points="12.287185774429728,23.276517194564544 12.11810055899547,23.225217086541413 12.051300956873694,23.185778055255135" style="fill:none;stroke:black;stroke-width:1"/>
<polygon points="13.06920064079237,21.98752112333477 12.287185774429728,23.276517194564544 13.014620060378967,21.942827440732486" style="fill:none;stroke:black;stroke-width:1"/>
<polygon points="11.953072475194137,23.09283450673734 12.287185774429728,23.276517194564544 11.996376870781699,23.140970269526008" style="fill:none;stroke:black;stroke-width:1"/>
<polygon points="12.287185774429728,23.276517194564544 12.197213938666334,23.25756602078839 12.11810055899547,23.225217086541413" style="fill:none;stroke:black;stroke-width:1"/>
<polygon points="12.287185774429728,23.276517194564544 11.953072475194137,23.09283450673734 11.921181636065059,23.043564478920533" style="fill:none;stroke:black;stroke-width:1"/>
</svg>
