<?xml version="1.0" encoding="UTF-8" standalone="no"?>
<svg xmlns="http://www.w3.org/2000/svg" version="1.1" width="800" height="800">
<polygon points="13.428304860194892,30.38809861534152 16.374365108876674,29.24210223516395 17.689109093817006,30.609286657710957" style="fill:none;stroke:black;stroke-width:1"/>
<polygon points="13.40850421054087,16.53 9.99,15.94788110851845 11.062741993504,13.020000000000001" style="fill:none;stroke:black;stroke-width:1"/>
<polygon points="24.56181447363694,6.866436892563637 23.483014170697487,4.0271917582220595 26.13427290590975,6.778738518482877" style="fill:none;stroke:black;stroke-width:1"/>
<polygon points="18.147273793316383,3.7249876629593213 15.856989902191472,4.230925441668168 16.443951566584435,1.34328222350066" style="fill:none;stroke:black;stroke-width:1"/>
<polygon points="8.376831619420223,10.921745238624547 8.49,12.68 5.834873645850308,9.983732396676038" style="fill:none;stroke:black;stroke-width:1"/>
<polygon points="9.99,15.94788110851845 8.49,12.68 11.062741993504,13.020000000000001" style="fill:none;stroke:black;stroke-width:1"/>
<polygon points="8.49,12.68 8.376831619420223,10.921745238624547 11.062741993504,13.020000000000001" style="fill:none;stroke:black;stroke-width:1"/>
<polygon points="6.13825037174792,6.05620231983284 7.219543922619358,7.354756260114479 5.834873645850308,9.983732396676038" style="fill:none;stroke:black;stroke-width:1"/>
<polygon points="7.219543922619358,7.354756260114479 8.376831619420223,10.921745238624547 5.834873645850308,9.983732396676038" style="fill:none;stroke:black;stroke-width:1"/>
<polygon points="9.20304943694445,3.7864109919486344 7.219543922619358,7.354756260114479 6.13825037174792,6.05620231983284" style="fill:none;stroke:black;stroke-width:1"/>
<polygon points="21.04905010785112,28.852739892197448 19.962324166623166,27.829208315921807 22.934632661440148,24.367260035700156" style="fill:none;stroke:black;stroke-width:1"/>
<polygon points="19.962324166623166,27.829208315921807 21.04905010785112,28.852739892197448 17.689109093817006,30.609286657710957" style="fill:none;stroke:black;stroke-width:1"/>
<polygon points="16.374365108876674,29.24210223516395 19.962324166623166,27.829208315921807 17.689109093817006,30.609286657710957" style="fill:none;stroke:black;stroke-width:1"/>
<polygon points="21.48055266853088,23.71450780740137 22.959999999999997,21.32884936849367 22.934632661440148,24.367260035700156" style="fill:none;stroke:black;stroke-width:1"/>
<polygon points="19.962324166623166,27.829208315921807 21.48055266853088,23.71450780740137 22.934632661440148,24.367260035700156" style="fill:none;stroke:black;stroke-width:1"/>
<polygon points="15.063365095526441,13.020000000000001 13.40850421054087,16.53 11.062741993504,13.020000000000001" style="fill:none;stroke:black;stroke-width:1"/>
<polygon points="13.40850421054087,16.53 15.063365095526441,13.020000000000001 17.40912731256331,16.53" style="fill:none;stroke:black;stroke-width:1"/>
<polygon points="24.56181447363694,6.866436892563637 21.22249942721803,5.227452067367984 23.483014170697487,4.0271917582220595" style="fill:none;stroke:black;stroke-width:1"/>
<polygon points="16.443951566584435,1.34328222350066 14.384578689870818,2.8505686574326066 12.516585624037996,1.9372543932007673" style="fill:none;stroke:black;stroke-width:1"/>
<polygon points="11.269768869949123,5.175553986405815 7.219543922619358,7.354756260114479 9.20304943694445,3.7864109919486344" style="fill:none;stroke:black;stroke-width:1"/>
<polygon points="7.219543922619358,7.354756260114479 11.269768869949123,5.175553986405815 8.376831619420223,10.921745238624547" style="fill:none;stroke:black;stroke-width:1"/>
<polygon points="11.269768869949123,5.175553986405815 9.20304943694445,3.7864109919486344 12.516585624037996,1.9372543932007673" style="fill:none;stroke:black;stroke-width:1"/>
<polygon points="25.776107946336744,10.705708599041884 24.56181447363694,6.866436892563637 26.13427290590975,6.778738518482877" style="fill:none;stroke:black;stroke-width:1"/>
<polygon points="22.959999999999997,21.32884936849367 25.776107946336744,10.705708599041884 22.934632661440148,24.367260035700156" style="fill:none;stroke:black;stroke-width:1"/>
<polygon points="25.776107946336744,10.705708599041884 22.959999999999997,21.32884936849367 23.435619051113036,17.56631596148371" style="fill:none;stroke:black;stroke-width:1"/>
<polygon points="8.49,16.680623102022437 8.49,12.68 9.99,15.94788110851845" style="fill:none;stroke:black;stroke-width:1"/>
<polygon points="8.49,12.68 8.49,16.680623102022437 5.834873645850308,9.983732396676038" style="fill:none;stroke:black;stroke-width:1"/>
<polygon points="21.40975041458575,16.53 19.704667285850388,18.029999999999998 17.40912731256331,16.53" style="fill:none;stroke:black;stroke-width:1"/>
<polygon points="21.48055266853088,23.71450780740137 21.48,20.255290387872805 22.959999999999997,21.32884936849367" style="fill:none;stroke:black;stroke-width:1"/>
<polygon points="22.959999999999997,21.32884936849367 21.48,20.255290387872805 23.435619051113036,17.56631596148371" style="fill:none;stroke:black;stroke-width:1"/>
<polygon points="21.48,20.255290387872805 21.40975041458575,16.53 23.435619051113036,17.56631596148371" style="fill:none;stroke:black;stroke-width:1"/>
<polygon points="21.40975041458575,16.53 21.48,20.255290387872805 19.704667285850388,18.029999999999998" style="fill:none;stroke:black;stroke-width:1"/>
<polygon points="17.726384284558332,25.980972055174714 19.962324166623166,27.829208315921807 16.374365108876674,29.24210223516395" style="fill:none;stroke:black;stroke-width:1"/>
<polygon points="19.962324166623166,27.829208315921807 17.726384284558332,25.980972055174714 17.928555375911454,25.90138481432004" style="fill:none;stroke:black;stroke-width:1"/>
<polygon points="15.534575044658942,26.0 15.75349005359073,26.0 16.374365108876674,29.24210223516395" style="fill:none;stroke:black;stroke-width:1"/>
<polygon points="12.262268337236074,11.520000000000001 15.063365095526441,13.020000000000001 11.062741993504,13.020000000000001" style="fill:none;stroke:black;stroke-width:1"/>
<polygon points="8.376831619420223,10.921745238624547 12.262268337236074,11.520000000000001 11.062741993504,13.020000000000001" style="fill:none;stroke:black;stroke-width:1"/>
<polygon points="11.269768869949123,5.175553986405815 12.262268337236074,11.520000000000001 8.376831619420223,10.921745238624547" style="fill:none;stroke:black;stroke-width:1"/>
<polygon points="15.063365095526441,13.020000000000001 19.06398819754888,13.020000000000001 17.40912731256331,16.53" style="fill:none;stroke:black;stroke-width:1"/>
<polygon points="19.06398819754888,13.020000000000001 21.40975041458575,16.53 17.40912731256331,16.53" style="fill:none;stroke:black;stroke-width:1"/>
<polygon points="21.40975041458575,16.53 19.06398819754888,13.020000000000001 22.009999999999998,13.129626483391817" style="fill:none;stroke:black;stroke-width:1"/>
<polygon points="21.22249942721803,5.227452067367984 19.815976614914124,3.3003895433709936 23.483014170697487,4.0271917582220595" style="fill:none;stroke:black;stroke-width:1"/>
<polygon points="19.815976614914124,3.3003895433709936 21.22249942721803,5.227452067367984 18.147273793316383,3.7249876629593213" style="fill:none;stroke:black;stroke-width:1"/>
<polygon points="23.483014170697487,4.0271917582220595 19.815976614914124,3.3003895433709936 16.443951566584435,1.34328222350066" style="fill:none;stroke:black;stroke-width:1"/>
<polygon points="19.815976614914124,3.3003895433709936 18.147273793316383,3.7249876629593213 16.443951566584435,1.34328222350066" style="fill:none;stroke:black;stroke-width:1"/>
<polygon points="24.011070729870728,10.581386356340678 21.22249942721803,5.227452067367984 24.56181447363694,6.866436892563637" style="fill:none;stroke:black;stroke-width:1"/>
<polygon points="25.776107946336744,10.705708599041884 24.011070729870728,10.581386356340678 24.56181447363694,6.866436892563637" style="fill:none;stroke:black;stroke-width:1"/>
<polygon points="23.49,13.564704648474226 25.776107946336744,10.705708599041884 23.435619051113036,17.56631596148371" style="fill:none;stroke:black;stroke-width:1"/>
<polygon points="21.40975041458575,16.53 23.49,13.564704648474226 23.435619051113036,17.56631596148371" style="fill:none;stroke:black;stroke-width:1"/>
<polygon points="23.49,13.564704648474226 21.40975041458575,16.53 22.009999999999998,13.129626483391817" style="fill:none;stroke:black;stroke-width:1"/>
<polygon points="24.011070729870728,10.581386356340678 23.49,13.564704648474226 22.009999999999998,13.129626483391817" style="fill:none;stroke:black;stroke-width:1"/>
<polygon points="23.49,13.564704648474226 24.011070729870728,10.581386356340678 25.776107946336744,10.705708599041884" style="fill:none;stroke:black;stroke-width:1"/>
<polygon points="18.010216506276254,19.014590093122482 15.704044183827952,18.029999999999998 17.40912731256331,16.53" style="fill:none;stroke:black;stroke-width:1"/>
<polygon points="14.116779987185863,19.106858446530264 15.704044183827952,18.029999999999998 14.231210784276765,19.21431611758914" style="fill:none;stroke:black;stroke-width:1"/>
<polygon points="15.704044183827952,18.029999999999998 13.40850421054087,16.53 17.40912731256331,16.53" style="fill:none;stroke:black;stroke-width:1"/>
<polygon points="17.726384284558332,25.980972055174714 17.56,24.5 17.928555375911454,25.90138481432004" style="fill:none;stroke:black;stroke-width:1"/>
<polygon points="18.134228475026767,24.770901787223266 18.914226643232155,21.29785906341086 21.48055266853088,23.71450780740137" style="fill:none;stroke:black;stroke-width:1"/>
<polygon points="18.296583709470145,25.390015386294344 21.48055266853088,23.71450780740137 19.962324166623166,27.829208315921807" style="fill:none;stroke:black;stroke-width:1"/>
<polygon points="18.296583709470145,25.390015386294344 18.30515204066346,25.16551809929291 21.48055266853088,23.71450780740137" style="fill:none;stroke:black;stroke-width:1"/>
<polygon points="18.224093512193303,25.595468056053917 18.296583709470145,25.390015386294344 19.962324166623166,27.829208315921807" style="fill:none;stroke:black;stroke-width:1"/>
<polygon points="10.154992209029336,27.852597717483782 12.47785845220364,28.21873533702879 13.428304860194892,30.38809861534152" style="fill:none;stroke:black;stroke-width:1"/>
<polygon points="12.47785845220364,28.21873533702879 16.374365108876674,29.24210223516395 13.428304860194892,30.38809861534152" style="fill:none;stroke:black;stroke-width:1"/>
<polygon points="12.262268337236074,11.520000000000001 16.26289143925849,11.520000000000001 15.063365095526441,13.020000000000001" style="fill:none;stroke:black;stroke-width:1"/>
<polygon points="16.26289143925849,11.520000000000001 19.06398819754888,13.020000000000001 15.063365095526441,13.020000000000001" style="fill:none;stroke:black;stroke-width:1"/>
<polygon points="16.126518057540366,4.385094953858172 15.856989902191472,4.230925441668168 18.147273793316383,3.7249876629593213" style="fill:none;stroke:black;stroke-width:1"/>
<polygon points="16.38396811388204,4.555921040064856 16.126518057540366,4.385094953858172 18.147273793316383,3.7249876629593213" style="fill:none;stroke:black;stroke-width:1"/>
<polygon points="16.85998073573189,4.944326942029054 16.628676772763537,4.742599702163418 18.147273793316383,3.7249876629593213" style="fill:none;stroke:black;stroke-width:1"/>
<polygon points="16.628676772763537,4.742599702163418 16.38396811388204,4.555921040064856 18.147273793316383,3.7249876629593213" style="fill:none;stroke:black;stroke-width:1"/>
<polygon points="21.48,20.255290387872805 19.77538335005483,19.46780790737286 19.704667285850388,18.029999999999998" style="fill:none;stroke:black;stroke-width:1"/>
<polygon points="19.842220607360314,19.60984430914415 19.77538335005483,19.46780790737286 21.48,20.255290387872805" style="fill:none;stroke:black;stroke-width:1"/>
<polygon points="12.47785845220364,28.21873533702879 14.658915008931787,26.0 16.374365108876674,29.24210223516395" style="fill:none;stroke:black;stroke-width:1"/>
<polygon points="10.52,20.84720202021692 10.53776670516962,24.108831496004477 9.018963931170246,23.771749478585516" style="fill:none;stroke:black;stroke-width:1"/>
<polygon points="10.53776670516962,24.108831496004477 10.154992209029336,27.852597717483782 9.018963931170246,23.771749478585516" style="fill:none;stroke:black;stroke-width:1"/>
<polygon points="11.703421081805516,18.029999999999998 8.49,16.680623102022437 9.99,15.94788110851845" style="fill:none;stroke:black;stroke-width:1"/>
<polygon points="13.40850421054087,16.53 11.703421081805516,18.029999999999998 9.99,15.94788110851845" style="fill:none;stroke:black;stroke-width:1"/>
<polygon points="18.30515204066346,25.16551809929291 18.247838748833853,24.953767380416632 21.48055266853088,23.71450780740137" style="fill:none;stroke:black;stroke-width:1"/>
<polygon points="18.247838748833853,24.953767380416632 18.134228475026767,24.770901787223266 21.48055266853088,23.71450780740137" style="fill:none;stroke:black;stroke-width:1"/>
<polygon points="18.247838748833853,24.953767380416632 18.224093512193303,25.595468056053917 18.134228475026767,24.770901787223266" style="fill:none;stroke:black;stroke-width:1"/>
<polygon points="18.296583709470145,25.390015386294344 18.247838748833853,24.953767380416632 18.30515204066346,25.16551809929291" style="fill:none;stroke:black;stroke-width:1"/>
<polygon points="18.247838748833853,24.953767380416632 18.296583709470145,25.390015386294344 18.224093512193303,25.595468056053917" style="fill:none;stroke:black;stroke-width:1"/>
<polygon points="18.134228475026767,24.770901787223266 17.97475964306814,24.627359743538747 18.914226643232155,21.29785906341086" style="fill:none;stroke:black;stroke-width:1"/>
<polygon points="17.97475964306814,24.627359743538747 17.56,24.5 17.779870676783908,24.533579673189013" style="fill:none;stroke:black;stroke-width:1"/>
<polygon points="17.56,24.5 17.97475964306814,24.627359743538747 17.928555375911454,25.90138481432004" style="fill:none;stroke:black;stroke-width:1"/>
<polygon points="18.097937926398423,25.769404006671127 19.962324166623166,27.829208315921807 17.928555375911454,25.90138481432004" style="fill:none;stroke:black;stroke-width:1"/>
<polygon points="18.097937926398423,25.769404006671127 18.224093512193303,25.595468056053917 19.962324166623166,27.829208315921807" style="fill:none;stroke:black;stroke-width:1"/>
<polygon points="18.224093512193303,25.595468056053917 18.097937926398423,25.769404006671127 18.134228475026767,24.770901787223266" style="fill:none;stroke:black;stroke-width:1"/>
<polygon points="17.97475964306814,24.627359743538747 18.097937926398423,25.769404006671127 17.928555375911454,25.90138481432004" style="fill:none;stroke:black;stroke-width:1"/>
<polygon points="18.097937926398423,25.769404006671127 17.97475964306814,24.627359743538747 18.134228475026767,24.770901787223266" style="fill:none;stroke:black;stroke-width:1"/>
<polygon points="24.011070729870728,10.581386356340678 18.348621373248754,8.246187568820181 21.22249942721803,5.227452067367984" style="fill:none;stroke:black;stroke-width:1"/>
<polygon points="16.849855521111287,8.329696626168483 18.348621373248754,8.246187568820181 18.321385793857832,8.56332175444572" style="fill:none;stroke:black;stroke-width:1"/>
<polygon points="20.263514541280927,11.520000000000001 24.011070729870728,10.581386356340678 22.009999999999998,13.129626483391817" style="fill:none;stroke:black;stroke-width:1"/>
<polygon points="19.06398819754888,13.020000000000001 20.263514541280927,11.520000000000001 22.009999999999998,13.129626483391817" style="fill:none;stroke:black;stroke-width:1"/>
<polygon points="20.263514541280927,11.520000000000001 18.348621373248754,8.246187568820181 24.011070729870728,10.581386356340678" style="fill:none;stroke:black;stroke-width:1"/>
<polygon points="18.348621373248754,8.246187568820181 20.263514541280927,11.520000000000001 18.321385793857832,8.56332175444572" style="fill:none;stroke:black;stroke-width:1"/>
<polygon points="16.26289143925849,11.520000000000001 20.263514541280927,11.520000000000001 19.06398819754888,13.020000000000001" style="fill:none;stroke:black;stroke-width:1"/>
<polygon points="15.42253965426126,5.718557726398804 16.126518057540366,4.385094953858172 16.38396811388204,4.555921040064856" style="fill:none;stroke:black;stroke-width:1"/>
<polygon points="17.077216704334145,5.160298761536964 16.85998073573189,4.944326942029054 18.147273793316383,3.7249876629593213" style="fill:none;stroke:black;stroke-width:1"/>
<polygon points="21.22249942721803,5.227452067367984 17.79221466602286,6.150551873495252 18.147273793316383,3.7249876629593213" style="fill:none;stroke:black;stroke-width:1"/>
<polygon points="17.929161186000155,6.4256866193424695 17.79221466602286,6.150551873495252 21.22249942721803,5.227452067367984" style="fill:none;stroke:black;stroke-width:1"/>
<polygon points="19.89072895141079,20.38086235895607 19.920143376643097,20.22666654195538 21.48,20.255290387872805" style="fill:none;stroke:black;stroke-width:1"/>
<polygon points="15.704044183827952,18.029999999999998 14.331271242968684,19.335268434634408 14.231210784276765,19.21431611758914" style="fill:none;stroke:black;stroke-width:1"/>
<polygon points="13.752161251166143,25.546232619583364 12.47785845220364,28.21873533702879 10.154992209029336,27.852597717483782" style="fill:none;stroke:black;stroke-width:1"/>
<polygon points="10.53776670516962,24.108831496004477 13.752161251166143,25.546232619583364 10.154992209029336,27.852597717483782" style="fill:none;stroke:black;stroke-width:1"/>
<polygon points="11.703421081805516,18.029999999999998 9.02,20.444144720019445 8.49,16.680623102022437" style="fill:none;stroke:black;stroke-width:1"/>
<polygon points="9.02,20.444144720019445 11.703421081805516,18.029999999999998 10.52,20.84720202021692" style="fill:none;stroke:black;stroke-width:1"/>
<polygon points="9.02,20.444144720019445 10.52,20.84720202021692 9.018963931170246,23.771749478585516" style="fill:none;stroke:black;stroke-width:1"/>
<polygon points="9.02,20.444144720019445 9.018963931170246,23.771749478585516 5.834873645850308,9.983732396676038" style="fill:none;stroke:black;stroke-width:1"/>
<polygon points="8.49,16.680623102022437 9.02,20.444144720019445 5.834873645850308,9.983732396676038" style="fill:none;stroke:black;stroke-width:1"/>
<polygon points="15.75349005359073,26.0 15.972405062522519,26.0 16.374365108876674,29.24210223516395" style="fill:none;stroke:black;stroke-width:1"/>
<polygon points="15.972405062522519,26.0 16.191320071454307,26.0 16.374365108876674,29.24210223516395" style="fill:none;stroke:black;stroke-width:1"/>
<polygon points="15.972405062522519,26.0 15.75349005359073,26.0 15.80867992854569,24.5" style="fill:none;stroke:black;stroke-width:1"/>
<polygon points="16.629150089317882,26.0 16.848065098249673,26.0 16.374365108876674,29.24210223516395" style="fill:none;stroke:black;stroke-width:1"/>
<polygon points="16.629150089317882,26.0 16.684339964272844,24.5 16.848065098249673,26.0" style="fill:none;stroke:black;stroke-width:1"/>
<polygon points="17.50481012504504,26.0 17.726384284558332,25.980972055174714 16.374365108876674,29.24210223516395" style="fill:none;stroke:black;stroke-width:1"/>
<polygon points="17.28589511611325,26.0 17.50481012504504,26.0 16.374365108876674,29.24210223516395" style="fill:none;stroke:black;stroke-width:1"/>
<polygon points="17.50481012504504,26.0 17.56,24.5 17.726384284558332,25.980972055174714" style="fill:none;stroke:black;stroke-width:1"/>
<polygon points="16.848065098249673,26.0 17.06698010718146,26.0 16.374365108876674,29.24210223516395" style="fill:none;stroke:black;stroke-width:1"/>
<polygon points="17.06698010718146,26.0 17.28589511611325,26.0 16.374365108876674,29.24210223516395" style="fill:none;stroke:black;stroke-width:1"/>
<polygon points="17.56,24.5 18.293728757031314,21.258820645368942 17.779870676783908,24.533579673189013" style="fill:none;stroke:black;stroke-width:1"/>
<polygon points="15.75349005359073,26.0 15.589764919613902,24.5 15.80867992854569,24.5" style="fill:none;stroke:black;stroke-width:1"/>
<polygon points="15.534575044658942,26.0 15.589764919613902,24.5 15.75349005359073,26.0" style="fill:none;stroke:black;stroke-width:1"/>
<polygon points="15.096745026795364,26.0 14.933019892818537,24.5 15.151934901750325,24.5" style="fill:none;stroke:black;stroke-width:1"/>
<polygon points="12.52322001281414,21.033141553469736 10.53776670516962,24.108831496004477 10.52,20.84720202021692" style="fill:none;stroke:black;stroke-width:1"/>
<polygon points="12.408789215723235,20.925683882410862 12.52322001281414,21.033141553469736 10.52,20.84720202021692" style="fill:none;stroke:black;stroke-width:1"/>
<polygon points="17.58461664994517,19.467807907372855 17.517779392639685,19.60984430914415 15.704044183827952,18.029999999999998" style="fill:none;stroke:black;stroke-width:1"/>
<polygon points="21.48,20.255290387872805 19.691271242968686,20.804731565365593 19.775383350054828,20.672192092627146" style="fill:none;stroke:black;stroke-width:1"/>
<polygon points="19.691271242968686,20.804731565365593 21.48,20.255290387872805 21.48055266853088,23.71450780740137" style="fill:none;stroke:black;stroke-width:1"/>
<polygon points="17.075122582911302,8.892595176105829 17.94181248149011,9.026010594070394 17.330939368426396,9.059109965687941" style="fill:none;stroke:black;stroke-width:1"/>
<polygon points="16.26289143925849,11.520000000000001 17.075122582911302,8.892595176105829 17.330939368426396,9.059109965687941" style="fill:none;stroke:black;stroke-width:1"/>
<polygon points="20.263514541280927,11.520000000000001 18.17833589213887,8.834156862906871 18.321385793857832,8.56332175444572" style="fill:none;stroke:black;stroke-width:1"/>
<polygon points="18.17833589213887,8.834156862906871 20.263514541280927,11.520000000000001 17.94181248149011,9.026010594070394" style="fill:none;stroke:black;stroke-width:1"/>
<polygon points="17.075122582911302,8.892595176105829 18.17833589213887,8.834156862906871 17.94181248149011,9.026010594070394" style="fill:none;stroke:black;stroke-width:1"/>
<polygon points="18.17833589213887,8.834156862906871 16.849855521111287,8.329696626168483 18.321385793857832,8.56332175444572" style="fill:none;stroke:black;stroke-width:1"/>
<polygon points="17.641885020583114,9.108813489264724 20.263514541280927,11.520000000000001 16.26289143925849,11.520000000000001" style="fill:none;stroke:black;stroke-width:1"/>
<polygon points="20.263514541280927,11.520000000000001 17.641885020583114,9.108813489264724 17.94181248149011,9.026010594070394" style="fill:none;stroke:black;stroke-width:1"/>
<polygon points="17.641885020583114,9.108813489264724 16.26289143925849,11.520000000000001 17.330939368426396,9.059109965687941" style="fill:none;stroke:black;stroke-width:1"/>
<polygon points="17.94181248149011,9.026010594070394 17.641885020583114,9.108813489264724 17.330939368426396,9.059109965687941" style="fill:none;stroke:black;stroke-width:1"/>
<polygon points="16.628676772763537,4.742599702163418 15.67128250205233,5.900297565940063 16.38396811388204,4.555921040064856" style="fill:none;stroke:black;stroke-width:1"/>
<polygon points="15.67128250205233,5.900297565940063 15.42253965426126,5.718557726398804 16.38396811388204,4.555921040064856" style="fill:none;stroke:black;stroke-width:1"/>
<polygon points="15.67128250205233,5.900297565940063 16.628676772763537,4.742599702163418 16.85998073573189,4.944326942029054" style="fill:none;stroke:black;stroke-width:1"/>
<polygon points="16.126518057540366,4.385094953858172 15.155582573364665,5.560900588898021 15.856989902191472,4.230925441668168" style="fill:none;stroke:black;stroke-width:1"/>
<polygon points="15.42253965426126,5.718557726398804 15.155582573364665,5.560900588898021 16.126518057540366,4.385094953858172" style="fill:none;stroke:black;stroke-width:1"/>
<polygon points="15.155582573364665,5.560900588898021 15.42253965426126,5.718557726398804 14.87186866615837,5.4290836145738615" style="fill:none;stroke:black;stroke-width:1"/>
<polygon points="17.466831464628484,5.631760146980383 17.27972138011733,5.389711162562341 18.147273793316383,3.7249876629593213" style="fill:none;stroke:black;stroke-width:1"/>
<polygon points="17.27972138011733,5.389711162562341 17.077216704334145,5.160298761536964 18.147273793316383,3.7249876629593213" style="fill:none;stroke:black;stroke-width:1"/>
<polygon points="17.63788365941465,5.885641716666289 17.466831464628484,5.631760146980383 18.147273793316383,3.7249876629593213" style="fill:none;stroke:black;stroke-width:1"/>
<polygon points="17.79221466602286,6.150551873495252 17.63788365941465,5.885641716666289 18.147273793316383,3.7249876629593213" style="fill:none;stroke:black;stroke-width:1"/>
<polygon points="15.28435248828389,3.975772131837415 14.384578689870818,2.8505686574326066 16.443951566584435,1.34328222350066" style="fill:none;stroke:black;stroke-width:1"/>
<polygon points="15.28435248828389,3.975772131837415 14.982569826631128,3.8763963304462736 14.384578689870818,2.8505686574326066" style="fill:none;stroke:black;stroke-width:1"/>
<polygon points="13.67522558146218,4.306600952197944 11.269768869949123,5.175553986405815 12.516585624037996,1.9372543932007673" style="fill:none;stroke:black;stroke-width:1"/>
<polygon points="13.969294501228445,5.127768277803356 12.262268337236074,11.520000000000001 11.269768869949123,5.175553986405815" style="fill:none;stroke:black;stroke-width:1"/>
<polygon points="13.759675345877382,4.9084799056136355 13.969294501228445,5.127768277803356 11.269768869949123,5.175553986405815" style="fill:none;stroke:black;stroke-width:1"/>
<polygon points="19.842220607360314,20.530155690855846 21.48,20.255290387872805 19.775383350054828,20.672192092627146" style="fill:none;stroke:black;stroke-width:1"/>
<polygon points="19.842220607360314,20.530155690855846 19.89072895141079,20.38086235895607 21.48,20.255290387872805" style="fill:none;stroke:black;stroke-width:1"/>
<polygon points="19.89072895141079,19.75913764104393 19.842220607360314,19.60984430914415 21.48,20.255290387872805" style="fill:none;stroke:black;stroke-width:1"/>
<polygon points="19.920143376643097,19.91333345804462 19.89072895141079,19.75913764104393 21.48,20.255290387872805" style="fill:none;stroke:black;stroke-width:1"/>
<polygon points="19.920143376643097,20.22666654195538 19.93,20.07 21.48,20.255290387872805" style="fill:none;stroke:black;stroke-width:1"/>
<polygon points="19.93,20.07 19.920143376643097,19.91333345804462 21.48,20.255290387872805" style="fill:none;stroke:black;stroke-width:1"/>
<polygon points="19.704667285850388,18.029999999999998 18.60151185058836,18.82246658946466 17.40912731256331,16.53" style="fill:none;stroke:black;stroke-width:1"/>
<polygon points="14.482220607360315,19.60984430914415 14.41538335005483,19.46780790737286 15.704044183827952,18.029999999999998" style="fill:none;stroke:black;stroke-width:1"/>
<polygon points="14.41538335005483,19.46780790737286 14.331271242968684,19.335268434634408 15.704044183827952,18.029999999999998" style="fill:none;stroke:black;stroke-width:1"/>
<polygon points="14.53072895141079,19.75913764104393 14.482220607360315,19.60984430914415 15.704044183827952,18.029999999999998" style="fill:none;stroke:black;stroke-width:1"/>
<polygon points="16.191320071454307,26.0 16.410235080386098,26.0 16.374365108876674,29.24210223516395" style="fill:none;stroke:black;stroke-width:1"/>
<polygon points="16.410235080386098,26.0 16.629150089317882,26.0 16.374365108876674,29.24210223516395" style="fill:none;stroke:black;stroke-width:1"/>
<polygon points="16.24650994640927,24.5 16.410235080386098,26.0 16.191320071454307,26.0" style="fill:none;stroke:black;stroke-width:1"/>
<polygon points="16.684339964272844,24.5 16.903254973204632,24.5 16.848065098249673,26.0" style="fill:none;stroke:black;stroke-width:1"/>
<polygon points="16.903254973204632,24.5 17.06698010718146,26.0 16.848065098249673,26.0" style="fill:none;stroke:black;stroke-width:1"/>
<polygon points="18.010216506276254,21.12540990687752 16.903254973204632,24.5 17.88322001281414,21.033141553469736" style="fill:none;stroke:black;stroke-width:1"/>
<polygon points="16.903254973204632,24.5 16.684339964272844,24.5 17.88322001281414,21.033141553469736" style="fill:none;stroke:black;stroke-width:1"/>
<polygon points="16.027594937477478,24.5 15.972405062522519,26.0 15.80867992854569,24.5" style="fill:none;stroke:black;stroke-width:1"/>
<polygon points="15.972405062522519,26.0 16.027594937477478,24.5 16.191320071454307,26.0" style="fill:none;stroke:black;stroke-width:1"/>
<polygon points="16.027594937477478,24.5 16.24650994640927,24.5 16.191320071454307,26.0" style="fill:none;stroke:black;stroke-width:1"/>
<polygon points="18.14777588554366,21.201033815582523 18.293728757031314,21.258820645368942 17.56,24.5" style="fill:none;stroke:black;stroke-width:1"/>
<polygon points="18.60151185058836,21.31753341053534 17.97475964306814,24.627359743538747 17.779870676783908,24.533579673189013" style="fill:none;stroke:black;stroke-width:1"/>
<polygon points="17.668728757031317,20.804731565365593 16.027594937477478,24.5 14.331271242968684,20.804731565365593" style="fill:none;stroke:black;stroke-width:1"/>
<polygon points="14.714104883886748,24.5 14.658915008931787,26.0 14.49518987495496,24.5" style="fill:none;stroke:black;stroke-width:1"/>
<polygon points="15.370849910682114,24.5 15.589764919613902,24.5 15.534575044658942,26.0" style="fill:none;stroke:black;stroke-width:1"/>
<polygon points="15.096745026795364,26.0 14.877830017863577,26.0 14.933019892818537,24.5" style="fill:none;stroke:black;stroke-width:1"/>
<polygon points="14.714104883886748,24.5 14.877830017863577,26.0 14.658915008931787,26.0" style="fill:none;stroke:black;stroke-width:1"/>
<polygon points="14.877830017863577,26.0 14.714104883886748,24.5 14.933019892818537,24.5" style="fill:none;stroke:black;stroke-width:1"/>
<polygon points="14.658915008931787,26.0 14.877830017863577,26.0 16.374365108876674,29.24210223516395" style="fill:none;stroke:black;stroke-width:1"/>
<polygon points="14.877830017863577,26.0 15.096745026795364,26.0 16.374365108876674,29.24210223516395" style="fill:none;stroke:black;stroke-width:1"/>
<polygon points="11.703421081805516,18.029999999999998 12.10927104858921,19.75913764104393 10.52,20.84720202021692" style="fill:none;stroke:black;stroke-width:1"/>
<polygon points="10.53776670516962,24.108831496004477 12.933728757031316,21.258820645368942 13.902062073601572,24.730595993328873" style="fill:none;stroke:black;stroke-width:1"/>
<polygon points="17.88322001281414,19.106858446530264 15.704044183827952,18.029999999999998 18.010216506276254,19.014590093122482" style="fill:none;stroke:black;stroke-width:1"/>
<polygon points="17.88322001281414,19.106858446530264 17.768789215723235,19.21431611758914 15.704044183827952,18.029999999999998" style="fill:none;stroke:black;stroke-width:1"/>
<polygon points="17.668728757031317,19.335268434634408 17.58461664994517,19.467807907372855 15.704044183827952,18.029999999999998" style="fill:none;stroke:black;stroke-width:1"/>
<polygon points="17.768789215723235,19.21431611758914 17.668728757031317,19.335268434634408 15.704044183827952,18.029999999999998" style="fill:none;stroke:black;stroke-width:1"/>
<polygon points="17.517779392639685,19.60984430914415 17.46927104858921,19.75913764104393 15.704044183827952,18.029999999999998" style="fill:none;stroke:black;stroke-width:1"/>
<polygon points="17.46927104858921,19.75913764104393 14.53072895141079,19.75913764104393 15.704044183827952,18.029999999999998" style="fill:none;stroke:black;stroke-width:1"/>
<polygon points="19.47677998718586,21.033141553469736 19.591210784276765,20.925683882410862 21.48055266853088,23.71450780740137" style="fill:none;stroke:black;stroke-width:1"/>
<polygon points="19.591210784276765,20.925683882410862 19.691271242968686,20.804731565365593 21.48055266853088,23.71450780740137" style="fill:none;stroke:black;stroke-width:1"/>
<polygon points="18.914226643232155,21.29785906341086 19.066271242968686,21.258820645368942 21.48055266853088,23.71450780740137" style="fill:none;stroke:black;stroke-width:1"/>
<polygon points="19.066271242968686,21.258820645368942 19.21222411445634,21.201033815582523 21.48055266853088,23.71450780740137" style="fill:none;stroke:black;stroke-width:1"/>
<polygon points="19.349783493723745,21.12540990687752 19.47677998718586,21.033141553469736 21.48055266853088,23.71450780740137" style="fill:none;stroke:black;stroke-width:1"/>
<polygon points="19.21222411445634,21.201033815582523 19.349783493723745,21.12540990687752 21.48055266853088,23.71450780740137" style="fill:none;stroke:black;stroke-width:1"/>
<polygon points="18.229060841616906,7.304398409745632 18.14824757225014,7.0034138855924635 21.22249942721803,5.227452067367984" style="fill:none;stroke:black;stroke-width:1"/>
<polygon points="18.348621373248754,8.246187568820181 18.329911040569176,7.926589249484293 21.22249942721803,5.227452067367984" style="fill:none;stroke:black;stroke-width:1"/>
<polygon points="18.329911040569176,7.926589249484293 18.348621373248754,8.246187568820181 16.849855521111287,8.329696626168483" style="fill:none;stroke:black;stroke-width:1"/>
<polygon points="18.17833589213887,8.834156862906871 16.904997157474213,8.639316860374288 16.849855521111287,8.329696626168483" style="fill:none;stroke:black;stroke-width:1"/>
<polygon points="16.904997157474213,8.639316860374288 18.17833589213887,8.834156862906871 17.075122582911302,8.892595176105829" style="fill:none;stroke:black;stroke-width:1"/>
<polygon points="16.904997157474213,8.639316860374288 17.075122582911302,8.892595176105829 16.26289143925849,11.520000000000001" style="fill:none;stroke:black;stroke-width:1"/>
<polygon points="16.904997157474213,8.639316860374288 16.26289143925849,11.520000000000001 12.262268337236074,11.520000000000001" style="fill:none;stroke:black;stroke-width:1"/>
<polygon points="16.849855521111287,8.329696626168483 16.904997157474213,8.639316860374288 12.262268337236074,11.520000000000001" style="fill:none;stroke:black;stroke-width:1"/>
<polygon points="17.077216704334145,5.160298761536964 15.90035370994204,6.10436264638565 16.85998073573189,4.944326942029054" style="fill:none;stroke:black;stroke-width:1"/>
<polygon points="15.90035370994204,6.10436264638565 15.67128250205233,5.900297565940063 16.85998073573189,4.944326942029054" style="fill:none;stroke:black;stroke-width:1"/>
<polygon points="15.28435248828389,3.975772131837415 15.576046946288326,4.0942165016196475 14.87186866615837,5.4290836145738615" style="fill:none;stroke:black;stroke-width:1"/>
<polygon points="15.155582573364665,5.560900588898021 15.576046946288326,4.0942165016196475 15.856989902191472,4.230925441668168" style="fill:none;stroke:black;stroke-width:1"/>
<polygon points="15.576046946288326,4.0942165016196475 15.155582573364665,5.560900588898021 14.87186866615837,5.4290836145738615" style="fill:none;stroke:black;stroke-width:1"/>
<polygon points="15.856989902191472,4.230925441668168 15.576046946288326,4.0942165016196475 16.443951566584435,1.34328222350066" style="fill:none;stroke:black;stroke-width:1"/>
<polygon points="15.576046946288326,4.0942165016196475 15.28435248828389,3.975772131837415 16.443951566584435,1.34328222350066" style="fill:none;stroke:black;stroke-width:1"/>
<polygon points="13.654087240161365,4.623820430108076 13.759675345877382,4.9084799056136355 11.269768869949123,5.175553986405815" style="fill:none;stroke:black;stroke-width:1"/>
<polygon points="13.67522558146218,4.306600952197944 13.654087240161365,4.623820430108076 11.269768869949123,5.175553986405815" style="fill:none;stroke:black;stroke-width:1"/>
<polygon points="13.654087240161365,4.623820430108076 13.67522558146218,4.306600952197944 13.759675345877382,4.9084799056136355" style="fill:none;stroke:black;stroke-width:1"/>
<polygon points="13.969294501228445,5.127768277803356 14.26,5.25 12.262268337236074,11.520000000000001" style="fill:none;stroke:black;stroke-width:1"/>
<polygon points="14.26,5.25 16.849855521111287,8.329696626168483 12.262268337236074,11.520000000000001" style="fill:none;stroke:black;stroke-width:1"/>
<polygon points="14.26,5.25 13.969294501228445,5.127768277803356 14.060678191541337,3.842605634040913" style="fill:none;stroke:black;stroke-width:1"/>
<polygon points="14.26,5.25 15.90035370994204,6.10436264638565 16.849855521111287,8.329696626168483" style="fill:none;stroke:black;stroke-width:1"/>
<polygon points="15.90035370994204,6.10436264638565 14.26,5.25 15.67128250205233,5.900297565940063" style="fill:none;stroke:black;stroke-width:1"/>
<polygon points="13.67522558146218,4.306600952197944 13.822174363713966,4.031258864384089 13.759675345877382,4.9084799056136355" style="fill:none;stroke:black;stroke-width:1"/>
<polygon points="13.822174363713966,4.031258864384089 13.969294501228445,5.127768277803356 13.759675345877382,4.9084799056136355" style="fill:none;stroke:black;stroke-width:1"/>
<polygon points="13.969294501228445,5.127768277803356 13.822174363713966,4.031258864384089 14.060678191541337,3.842605634040913" style="fill:none;stroke:black;stroke-width:1"/>
<polygon points="13.822174363713966,4.031258864384089 13.67522558146218,4.306600952197944 12.516585624037996,1.9372543932007673" style="fill:none;stroke:black;stroke-width:1"/>
<polygon points="14.384578689870818,2.8505686574326066 13.822174363713966,4.031258864384089 12.516585624037996,1.9372543932007673" style="fill:none;stroke:black;stroke-width:1"/>
<polygon points="14.060678191541337,3.842605634040913 13.822174363713966,4.031258864384089 14.384578689870818,2.8505686574326066" style="fill:none;stroke:black;stroke-width:1"/>
<polygon points="19.591210784276765,19.21431611758914 19.47677998718586,19.106858446530264 19.704667285850388,18.029999999999998" style="fill:none;stroke:black;stroke-width:1"/>
<polygon points="18.914226643232155,18.84214093658914 18.75848814941164,18.82246658946466 19.704667285850388,18.029999999999998" style="fill:none;stroke:black;stroke-width:1"/>
<polygon points="18.75848814941164,18.82246658946466 18.60151185058836,18.82246658946466 19.704667285850388,18.029999999999998" style="fill:none;stroke:black;stroke-width:1"/>
<polygon points="14.025240356931864,25.872640256461253 14.220129323216097,25.966420326810987 12.47785845220364,28.21873533702879" style="fill:none;stroke:black;stroke-width:1"/>
<polygon points="13.752161251166143,25.546232619583364 13.865771524973232,25.729098212776734 12.47785845220364,28.21873533702879" style="fill:none;stroke:black;stroke-width:1"/>
<polygon points="13.865771524973232,25.729098212776734 14.025240356931864,25.872640256461253 12.47785845220364,28.21873533702879" style="fill:none;stroke:black;stroke-width:1"/>
<polygon points="14.025240356931864,25.872640256461253 13.865771524973232,25.729098212776734 13.902062073601572,24.730595993328873" style="fill:none;stroke:black;stroke-width:1"/>
<polygon points="13.775906487806695,24.904531943946083 10.53776670516962,24.108831496004477 13.902062073601572,24.730595993328873" style="fill:none;stroke:black;stroke-width:1"/>
<polygon points="13.775906487806695,24.904531943946083 13.70341629052985,25.109984613705652 10.53776670516962,24.108831496004477" style="fill:none;stroke:black;stroke-width:1"/>
<polygon points="13.70341629052985,25.109984613705652 13.775906487806695,24.904531943946083 13.752161251166143,25.546232619583364" style="fill:none;stroke:black;stroke-width:1"/>
<polygon points="13.865771524973232,25.729098212776734 13.775906487806695,24.904531943946083 13.902062073601572,24.730595993328873" style="fill:none;stroke:black;stroke-width:1"/>
<polygon points="13.775906487806695,24.904531943946083 13.865771524973232,25.729098212776734 13.752161251166143,25.546232619583364" style="fill:none;stroke:black;stroke-width:1"/>
<polygon points="13.694847959336535,25.334481900707086 13.752161251166143,25.546232619583364 10.53776670516962,24.108831496004477" style="fill:none;stroke:black;stroke-width:1"/>
<polygon points="13.70341629052985,25.109984613705652 13.694847959336535,25.334481900707086 10.53776670516962,24.108831496004477" style="fill:none;stroke:black;stroke-width:1"/>
<polygon points="13.694847959336535,25.334481900707086 13.70341629052985,25.109984613705652 13.752161251166143,25.546232619583364" style="fill:none;stroke:black;stroke-width:1"/>
<polygon points="16.465424955341057,24.5 16.410235080386098,26.0 16.24650994640927,24.5" style="fill:none;stroke:black;stroke-width:1"/>
<polygon points="16.684339964272844,24.5 16.465424955341057,24.5 17.88322001281414,21.033141553469736" style="fill:none;stroke:black;stroke-width:1"/>
<polygon points="16.629150089317882,26.0 16.465424955341057,24.5 16.684339964272844,24.5" style="fill:none;stroke:black;stroke-width:1"/>
<polygon points="16.410235080386098,26.0 16.465424955341057,24.5 16.629150089317882,26.0" style="fill:none;stroke:black;stroke-width:1"/>
<polygon points="17.06698010718146,26.0 17.122169982136423,24.5 17.28589511611325,26.0" style="fill:none;stroke:black;stroke-width:1"/>
<polygon points="16.903254973204632,24.5 17.122169982136423,24.5 17.06698010718146,26.0" style="fill:none;stroke:black;stroke-width:1"/>
<polygon points="18.14777588554366,21.201033815582523 17.122169982136423,24.5 18.010216506276254,21.12540990687752" style="fill:none;stroke:black;stroke-width:1"/>
<polygon points="17.122169982136423,24.5 16.903254973204632,24.5 18.010216506276254,21.12540990687752" style="fill:none;stroke:black;stroke-width:1"/>
<polygon points="18.293728757031314,21.258820645368942 18.445773356767845,21.29785906341086 17.779870676783908,24.533579673189013" style="fill:none;stroke:black;stroke-width:1"/>
<polygon points="18.445773356767845,21.29785906341086 18.60151185058836,21.31753341053534 17.779870676783908,24.533579673189013" style="fill:none;stroke:black;stroke-width:1"/>
<polygon points="17.97475964306814,24.627359743538747 18.75848814941164,21.31753341053534 18.914226643232155,21.29785906341086" style="fill:none;stroke:black;stroke-width:1"/>
<polygon points="18.60151185058836,21.31753341053534 18.75848814941164,21.31753341053534 17.97475964306814,24.627359743538747" style="fill:none;stroke:black;stroke-width:1"/>
<polygon points="16.465424955341057,24.5 17.768789215723235,20.925683882410862 17.88322001281414,21.033141553469736" style="fill:none;stroke:black;stroke-width:1"/>
<polygon points="17.768789215723235,20.925683882410862 16.465424955341057,24.5 16.24650994640927,24.5" style="fill:none;stroke:black;stroke-width:1"/>
<polygon points="16.027594937477478,24.5 17.768789215723235,20.925683882410862 16.24650994640927,24.5" style="fill:none;stroke:black;stroke-width:1"/>
<polygon points="17.668728757031317,20.804731565365593 17.768789215723235,20.925683882410862 16.027594937477478,24.5" style="fill:none;stroke:black;stroke-width:1"/>
<polygon points="15.315660035727152,26.0 15.096745026795364,26.0 15.151934901750325,24.5" style="fill:none;stroke:black;stroke-width:1"/>
<polygon points="15.370849910682114,24.5 15.315660035727152,26.0 15.151934901750325,24.5" style="fill:none;stroke:black;stroke-width:1"/>
<polygon points="15.315660035727152,26.0 15.370849910682114,24.5 15.534575044658942,26.0" style="fill:none;stroke:black;stroke-width:1"/>
<polygon points="15.315660035727152,26.0 15.534575044658942,26.0 16.374365108876674,29.24210223516395" style="fill:none;stroke:black;stroke-width:1"/>
<polygon points="15.096745026795364,26.0 15.315660035727152,26.0 16.374365108876674,29.24210223516395" style="fill:none;stroke:black;stroke-width:1"/>
<polygon points="13.085773356767845,18.84214093658914 11.703421081805516,18.029999999999998 13.40850421054087,16.53" style="fill:none;stroke:black;stroke-width:1"/>
<polygon points="13.241511850588358,18.82246658946466 13.085773356767845,18.84214093658914 13.40850421054087,16.53" style="fill:none;stroke:black;stroke-width:1"/>
<polygon points="12.78777588554366,21.201033815582523 12.933728757031316,21.258820645368942 10.53776670516962,24.108831496004477" style="fill:none;stroke:black;stroke-width:1"/>
<polygon points="18.048059920893568,6.710241956083142 17.929161186000155,6.4256866193424695 21.22249942721803,5.227452067367984" style="fill:none;stroke:black;stroke-width:1"/>
<polygon points="18.14824757225014,7.0034138855924635 18.048059920893568,6.710241956083142 21.22249942721803,5.227452067367984" style="fill:none;stroke:black;stroke-width:1"/>
<polygon points="18.289836430540905,7.612391530417843 18.229060841616906,7.304398409745632 21.22249942721803,5.227452067367984" style="fill:none;stroke:black;stroke-width:1"/>
<polygon points="18.329911040569176,7.926589249484293 18.289836430540905,7.612391530417843 21.22249942721803,5.227452067367984" style="fill:none;stroke:black;stroke-width:1"/>
<polygon points="17.27972138011733,5.389711162562341 16.108295871134562,6.3289955065994175 17.077216704334145,5.160298761536964" style="fill:none;stroke:black;stroke-width:1"/>
<polygon points="16.108295871134562,6.3289955065994175 15.90035370994204,6.10436264638565 17.077216704334145,5.160298761536964" style="fill:none;stroke:black;stroke-width:1"/>
<polygon points="16.108295871134562,6.3289955065994175 17.27972138011733,5.389711162562341 17.466831464628484,5.631760146980383" style="fill:none;stroke:black;stroke-width:1"/>
<polygon points="15.90035370994204,6.10436264638565 16.108295871134562,6.3289955065994175 16.849855521111287,8.329696626168483" style="fill:none;stroke:black;stroke-width:1"/>
<polygon points="14.572855339438204,5.324864264562471 15.28435248828389,3.975772131837415 14.87186866615837,5.4290836145738615" style="fill:none;stroke:black;stroke-width:1"/>
<polygon points="15.28435248828389,3.975772131837415 14.572855339438204,5.324864264562471 14.982569826631128,3.8763963304462736" style="fill:none;stroke:black;stroke-width:1"/>
<polygon points="15.42253965426126,5.718557726398804 14.572855339438204,5.324864264562471 14.87186866615837,5.4290836145738615" style="fill:none;stroke:black;stroke-width:1"/>
<polygon points="15.67128250205233,5.900297565940063 14.572855339438204,5.324864264562471 15.42253965426126,5.718557726398804" style="fill:none;stroke:black;stroke-width:1"/>
<polygon points="14.26,5.25 14.572855339438204,5.324864264562471 15.67128250205233,5.900297565940063" style="fill:none;stroke:black;stroke-width:1"/>
<polygon points="14.982569826631128,3.8763963304462736 14.671362259782999,3.7968930955710265 14.384578689870818,2.8505686574326066" style="fill:none;stroke:black;stroke-width:1"/>
<polygon points="14.572855339438204,5.324864264562471 14.671362259782999,3.7968930955710265 14.982569826631128,3.8763963304462736" style="fill:none;stroke:black;stroke-width:1"/>
<polygon points="14.671362259782999,3.7968930955710265 14.572855339438204,5.324864264562471 14.26,5.25" style="fill:none;stroke:black;stroke-width:1"/>
<polygon points="19.77538335005483,19.46780790737286 19.691271242968686,19.335268434634408 19.704667285850388,18.029999999999998" style="fill:none;stroke:black;stroke-width:1"/>
<polygon points="19.691271242968686,19.335268434634408 19.591210784276765,19.21431611758914 19.704667285850388,18.029999999999998" style="fill:none;stroke:black;stroke-width:1"/>
<polygon points="19.066271242968686,18.88117935463106 18.914226643232155,18.84214093658914 19.704667285850388,18.029999999999998" style="fill:none;stroke:black;stroke-width:1"/>
<polygon points="19.21222411445634,18.938966184417474 19.066271242968686,18.88117935463106 19.704667285850388,18.029999999999998" style="fill:none;stroke:black;stroke-width:1"/>
<polygon points="19.47677998718586,19.106858446530264 19.349783493723745,19.014590093122482 19.704667285850388,18.029999999999998" style="fill:none;stroke:black;stroke-width:1"/>
<polygon points="19.349783493723745,19.014590093122482 19.21222411445634,18.938966184417474 19.704667285850388,18.029999999999998" style="fill:none;stroke:black;stroke-width:1"/>
<polygon points="18.14777588554366,18.938966184417474 18.010216506276254,19.014590093122482 17.40912731256331,16.53" style="fill:none;stroke:black;stroke-width:1"/>
<polygon points="18.293728757031314,18.88117935463106 18.14777588554366,18.938966184417474 17.40912731256331,16.53" style="fill:none;stroke:black;stroke-width:1"/>
<polygon points="18.60151185058836,18.82246658946466 18.445773356767845,18.84214093658914 17.40912731256331,16.53" style="fill:none;stroke:black;stroke-width:1"/>
<polygon points="18.445773356767845,18.84214093658914 18.293728757031314,18.88117935463106 17.40912731256331,16.53" style="fill:none;stroke:black;stroke-width:1"/>
<polygon points="14.658915008931787,26.0 14.44,26.0 14.49518987495496,24.5" style="fill:none;stroke:black;stroke-width:1"/>
<polygon points="14.44,26.0 14.273615715441665,24.519027944825286 14.49518987495496,24.5" style="fill:none;stroke:black;stroke-width:1"/>
<polygon points="14.44,26.0 14.658915008931787,26.0 12.47785845220364,28.21873533702879" style="fill:none;stroke:black;stroke-width:1"/>
<polygon points="14.220129323216097,25.966420326810987 14.44,26.0 12.47785845220364,28.21873533702879" style="fill:none;stroke:black;stroke-width:1"/>
<polygon points="14.44,26.0 14.220129323216097,25.966420326810987 14.025240356931864,25.872640256461253" style="fill:none;stroke:black;stroke-width:1"/>
<polygon points="17.122169982136423,24.5 17.34108499106821,24.5 17.28589511611325,26.0" style="fill:none;stroke:black;stroke-width:1"/>
<polygon points="17.50481012504504,26.0 17.34108499106821,24.5 17.56,24.5" style="fill:none;stroke:black;stroke-width:1"/>
<polygon points="17.34108499106821,24.5 17.50481012504504,26.0 17.28589511611325,26.0" style="fill:none;stroke:black;stroke-width:1"/>
<polygon points="17.34108499106821,24.5 18.14777588554366,21.201033815582523 17.56,24.5" style="fill:none;stroke:black;stroke-width:1"/>
<polygon points="17.34108499106821,24.5 17.122169982136423,24.5 18.14777588554366,21.201033815582523" style="fill:none;stroke:black;stroke-width:1"/>
<polygon points="13.398488149411643,18.82246658946466 13.241511850588358,18.82246658946466 13.40850421054087,16.53" style="fill:none;stroke:black;stroke-width:1"/>
<polygon points="15.704044183827952,18.029999999999998 13.852224114456341,18.938966184417474 13.40850421054087,16.53" style="fill:none;stroke:black;stroke-width:1"/>
<polygon points="13.852224114456341,18.938966184417474 13.706271242968684,18.88117935463106 13.40850421054087,16.53" style="fill:none;stroke:black;stroke-width:1"/>
<polygon points="12.408789215723235,19.21431611758914 12.308728757031316,19.335268434634408 11.703421081805516,18.029999999999998" style="fill:none;stroke:black;stroke-width:1"/>
<polygon points="12.308728757031316,19.335268434634408 12.22461664994517,19.467807907372855 11.703421081805516,18.029999999999998" style="fill:none;stroke:black;stroke-width:1"/>
<polygon points="12.157779392639686,19.60984430914415 12.10927104858921,19.75913764104393 11.703421081805516,18.029999999999998" style="fill:none;stroke:black;stroke-width:1"/>
<polygon points="12.22461664994517,19.467807907372855 12.157779392639686,19.60984430914415 11.703421081805516,18.029999999999998" style="fill:none;stroke:black;stroke-width:1"/>
<polygon points="12.52322001281414,21.033141553469736 12.650216506276255,21.12540990687752 10.53776670516962,24.108831496004477" style="fill:none;stroke:black;stroke-width:1"/>
<polygon points="12.650216506276255,21.12540990687752 12.78777588554366,21.201033815582523 10.53776670516962,24.108831496004477" style="fill:none;stroke:black;stroke-width:1"/>
<polygon points="14.44,26.0 14.071444624088542,24.59861518567996 14.273615715441665,24.519027944825286" style="fill:none;stroke:black;stroke-width:1"/>
<polygon points="14.071444624088542,24.59861518567996 14.025240356931864,25.872640256461253 13.902062073601572,24.730595993328873" style="fill:none;stroke:black;stroke-width:1"/>
<polygon points="14.071444624088542,24.59861518567996 14.44,26.0 14.025240356931864,25.872640256461253" style="fill:none;stroke:black;stroke-width:1"/>
<polygon points="12.933728757031316,21.258820645368942 13.085773356767845,21.29785906341086 13.902062073601572,24.730595993328873" style="fill:none;stroke:black;stroke-width:1"/>
<polygon points="13.085773356767845,21.29785906341086 14.071444624088542,24.59861518567996 13.902062073601572,24.730595993328873" style="fill:none;stroke:black;stroke-width:1"/>
<polygon points="14.071444624088542,24.59861518567996 13.085773356767845,21.29785906341086 13.241511850588358,21.31753341053534" style="fill:none;stroke:black;stroke-width:1"/>
<polygon points="13.852224114456341,21.201033815582523 14.714104883886748,24.5 14.49518987495496,24.5" style="fill:none;stroke:black;stroke-width:1"/>
<polygon points="17.63788365941465,5.885641716666289 16.293651578834066,6.572438685445219 17.466831464628484,5.631760146980383" style="fill:none;stroke:black;stroke-width:1"/>
<polygon points="16.293651578834066,6.572438685445219 16.108295871134562,6.3289955065994175 17.466831464628484,5.631760146980383" style="fill:none;stroke:black;stroke-width:1"/>
<polygon points="16.108295871134562,6.3289955065994175 16.293651578834066,6.572438685445219 16.849855521111287,8.329696626168483" style="fill:none;stroke:black;stroke-width:1"/>
<polygon points="14.355336382833778,3.7605541448555826 14.26,5.25 14.060678191541337,3.842605634040913" style="fill:none;stroke:black;stroke-width:1"/>
<polygon points="14.355336382833778,3.7605541448555826 14.671362259782999,3.7968930955710265 14.26,5.25" style="fill:none;stroke:black;stroke-width:1"/>
<polygon points="14.355336382833778,3.7605541448555826 14.060678191541337,3.842605634040913 14.384578689870818,2.8505686574326066" style="fill:none;stroke:black;stroke-width:1"/>
<polygon points="14.671362259782999,3.7968930955710265 14.355336382833778,3.7605541448555826 14.384578689870818,2.8505686574326066" style="fill:none;stroke:black;stroke-width:1"/>
<polygon points="13.706271242968684,18.88117935463106 13.554226643232157,18.84214093658914 13.40850421054087,16.53" style="fill:none;stroke:black;stroke-width:1"/>
<polygon points="13.554226643232157,18.84214093658914 13.398488149411643,18.82246658946466 13.40850421054087,16.53" style="fill:none;stroke:black;stroke-width:1"/>
<polygon points="13.989783493723746,19.014590093122482 15.704044183827952,18.029999999999998 14.116779987185863,19.106858446530264" style="fill:none;stroke:black;stroke-width:1"/>
<polygon points="13.989783493723746,19.014590093122482 13.852224114456341,18.938966184417474 15.704044183827952,18.029999999999998" style="fill:none;stroke:black;stroke-width:1"/>
<polygon points="12.52322001281414,19.106858446530264 12.408789215723235,19.21431611758914 11.703421081805516,18.029999999999998" style="fill:none;stroke:black;stroke-width:1"/>
<polygon points="12.650216506276255,19.014590093122482 12.52322001281414,19.106858446530264 11.703421081805516,18.029999999999998" style="fill:none;stroke:black;stroke-width:1"/>
<polygon points="12.78777588554366,18.938966184417474 12.650216506276255,19.014590093122482 11.703421081805516,18.029999999999998" style="fill:none;stroke:black;stroke-width:1"/>
<polygon points="12.308728757031316,20.804731565365593 12.408789215723235,20.925683882410862 10.52,20.84720202021692" style="fill:none;stroke:black;stroke-width:1"/>
<polygon points="12.22461664994517,20.672192092627146 12.308728757031316,20.804731565365593 10.52,20.84720202021692" style="fill:none;stroke:black;stroke-width:1"/>
<polygon points="12.10927104858921,20.38086235895607 12.157779392639686,20.530155690855846 10.52,20.84720202021692" style="fill:none;stroke:black;stroke-width:1"/>
<polygon points="12.157779392639686,20.530155690855846 12.22461664994517,20.672192092627146 10.52,20.84720202021692" style="fill:none;stroke:black;stroke-width:1"/>
<polygon points="12.10927104858921,19.75913764104393 12.079856623356903,19.91333345804462 10.52,20.84720202021692" style="fill:none;stroke:black;stroke-width:1"/>
<polygon points="12.079856623356903,19.91333345804462 12.07,20.07 10.52,20.84720202021692" style="fill:none;stroke:black;stroke-width:1"/>
<polygon points="12.079856623356903,20.22666654195538 12.10927104858921,20.38086235895607 10.52,20.84720202021692" style="fill:none;stroke:black;stroke-width:1"/>
<polygon points="12.07,20.07 12.079856623356903,20.22666654195538 10.52,20.84720202021692" style="fill:none;stroke:black;stroke-width:1"/>
<polygon points="14.273615715441665,24.519027944825286 13.706271242968684,21.258820645368942 14.49518987495496,24.5" style="fill:none;stroke:black;stroke-width:1"/>
<polygon points="13.706271242968684,21.258820645368942 13.852224114456341,21.201033815582523 14.49518987495496,24.5" style="fill:none;stroke:black;stroke-width:1"/>
<polygon points="14.714104883886748,24.5 13.989783493723746,21.12540990687752 14.933019892818537,24.5" style="fill:none;stroke:black;stroke-width:1"/>
<polygon points="13.852224114456341,21.201033815582523 13.989783493723746,21.12540990687752 14.714104883886748,24.5" style="fill:none;stroke:black;stroke-width:1"/>
<polygon points="14.933019892818537,24.5 13.989783493723746,21.12540990687752 15.151934901750325,24.5" style="fill:none;stroke:black;stroke-width:1"/>
<polygon points="16.454963426244728,6.832934721786907 17.63788365941465,5.885641716666289 17.79221466602286,6.150551873495252" style="fill:none;stroke:black;stroke-width:1"/>
<polygon points="16.454963426244728,6.832934721786907 16.293651578834066,6.572438685445219 17.63788365941465,5.885641716666289" style="fill:none;stroke:black;stroke-width:1"/>
<polygon points="16.454963426244728,6.832934721786907 17.79221466602286,6.150551873495252 17.929161186000155,6.4256866193424695" style="fill:none;stroke:black;stroke-width:1"/>
<polygon points="16.293651578834066,6.572438685445219 16.454963426244728,6.832934721786907 16.849855521111287,8.329696626168483" style="fill:none;stroke:black;stroke-width:1"/>
<polygon points="13.085773356767845,18.84214093658914 12.933728757031316,18.88117935463106 11.703421081805516,18.029999999999998" style="fill:none;stroke:black;stroke-width:1"/>
<polygon points="12.933728757031316,18.88117935463106 12.78777588554366,18.938966184417474 11.703421081805516,18.029999999999998" style="fill:none;stroke:black;stroke-width:1"/>
<polygon points="14.071444624088542,24.59861518567996 13.398488149411643,21.31753341053534 14.273615715441665,24.519027944825286" style="fill:none;stroke:black;stroke-width:1"/>
<polygon points="13.398488149411643,21.31753341053534 14.071444624088542,24.59861518567996 13.241511850588358,21.31753341053534" style="fill:none;stroke:black;stroke-width:1"/>
<polygon points="14.116779987185863,21.033141553469736 15.370849910682114,24.5 15.151934901750325,24.5" style="fill:none;stroke:black;stroke-width:1"/>
<polygon points="13.989783493723746,21.12540990687752 14.116779987185863,21.033141553469736 15.151934901750325,24.5" style="fill:none;stroke:black;stroke-width:1"/>
<polygon points="15.370849910682114,24.5 14.116779987185863,21.033141553469736 15.589764919613902,24.5" style="fill:none;stroke:black;stroke-width:1"/>
<polygon points="18.048059920893568,6.710241956083142 16.590774006570708,7.108726154488334 17.929161186000155,6.4256866193424695" style="fill:none;stroke:black;stroke-width:1"/>
<polygon points="16.590774006570708,7.108726154488334 16.454963426244728,6.832934721786907 17.929161186000155,6.4256866193424695" style="fill:none;stroke:black;stroke-width:1"/>
<polygon points="16.454963426244728,6.832934721786907 16.590774006570708,7.108726154488334 16.849855521111287,8.329696626168483" style="fill:none;stroke:black;stroke-width:1"/>
<polygon points="13.554226643232157,21.29785906341086 13.706271242968684,21.258820645368942 14.273615715441665,24.519027944825286" style="fill:none;stroke:black;stroke-width:1"/>
<polygon points="13.398488149411643,21.31753341053534 13.554226643232157,21.29785906341086 14.273615715441665,24.519027944825286" style="fill:none;stroke:black;stroke-width:1"/>
<polygon points="14.231210784276765,20.925683882410862 16.027594937477478,24.5 15.80867992854569,24.5" style="fill:none;stroke:black;stroke-width:1"/>
<polygon points="16.027594937477478,24.5 14.231210784276765,20.925683882410862 14.331271242968684,20.804731565365593" style="fill:none;stroke:black;stroke-width:1"/>
<polygon points="15.589764919613902,24.5 14.231210784276765,20.925683882410862 15.80867992854569,24.5" style="fill:none;stroke:black;stroke-width:1"/>
<polygon points="14.116779987185863,21.033141553469736 14.231210784276765,20.925683882410862 15.589764919613902,24.5" style="fill:none;stroke:black;stroke-width:1"/>
<polygon points="16.699625913016185,7.398055522413352 18.048059920893568,6.710241956083142 18.14824757225014,7.0034138855924635" style="fill:none;stroke:black;stroke-width:1"/>
<polygon points="16.699625913016185,7.398055522413352 16.590774006570708,7.108726154488334 18.048059920893568,6.710241956083142" style="fill:none;stroke:black;stroke-width:1"/>
<polygon points="16.699625913016185,7.398055522413352 18.14824757225014,7.0034138855924635 18.229060841616906,7.304398409745632" style="fill:none;stroke:black;stroke-width:1"/>
<polygon points="16.590774006570708,7.108726154488334 16.830624077082305,8.010298219389576 16.849855521111287,8.329696626168483" style="fill:none;stroke:black;stroke-width:1"/>
<polygon points="16.699625913016185,7.398055522413352 16.830624077082305,8.010298219389576 16.590774006570708,7.108726154488334" style="fill:none;stroke:black;stroke-width:1"/>
<polygon points="16.830624077082305,8.010298219389576 18.329911040569176,7.926589249484293 16.849855521111287,8.329696626168483" style="fill:none;stroke:black;stroke-width:1"/>
<polygon points="16.830624077082305,8.010298219389576 18.289836430540905,7.612391530417843 18.329911040569176,7.926589249484293" style="fill:none;stroke:black;stroke-width:1"/>
<polygon points="18.289836430540905,7.612391530417843 16.780061738785328,7.699165364425815 18.229060841616906,7.304398409745632" style="fill:none;stroke:black;stroke-width:1"/>
<polygon points="16.830624077082305,8.010298219389576 16.780061738785328,7.699165364425815 18.289836430540905,7.612391530417843" style="fill:none;stroke:black;stroke-width:1"/>
<polygon points="16.780061738785328,7.699165364425815 16.699625913016185,7.398055522413352 18.229060841616906,7.304398409745632" style="fill:none;stroke:black;stroke-width:1"/>
<polygon points="16.780061738785328,7.699165364425815 16.830624077082305,8.010298219389576 16.699625913016185,7.398055522413352" style="fill:none;stroke:black;stroke-width:1"/>
<polygon points="14.53072895141079,19.75913764104393 17.46927104858921,19.75913764104393 14.560143376643097,19.91333345804462" style="fill:none;stroke:black;stroke-width:1"/>
<polygon points="14.560143376643097,19.91333345804462 17.46927104858921,19.75913764104393 17.439856623356903,19.91333345804462" style="fill:none;stroke:black;stroke-width:1"/>
<polygon points="14.53072895141079,20.38086235895607 17.46927104858921,20.38086235895607 17.517779392639685,20.530155690855846" style="fill:none;stroke:black;stroke-width:1"/>
<polygon points="14.53072895141079,20.38086235895607 17.517779392639685,20.530155690855846 14.482220607360315,20.530155690855846" style="fill:none;stroke:black;stroke-width:1"/>
<polygon points="17.439856623356903,20.22666654195538 14.53072895141079,20.38086235895607 14.560143376643097,20.22666654195538" style="fill:none;stroke:black;stroke-width:1"/>
<polygon points="14.53072895141079,20.38086235895607 17.439856623356903,20.22666654195538 17.46927104858921,20.38086235895607" style="fill:none;stroke:black;stroke-width:1"/>
<polygon points="17.584616649945172,20.672192092627146 14.41538335005483,20.672192092627146 14.482220607360315,20.530155690855846" style="fill:none;stroke:black;stroke-width:1"/>
<polygon points="17.517779392639685,20.530155690855846 17.584616649945172,20.672192092627146 14.482220607360315,20.530155690855846" style="fill:none;stroke:black;stroke-width:1"/>
<polygon points="14.41538335005483,20.672192092627146 17.584616649945172,20.672192092627146 14.331271242968684,20.804731565365593" style="fill:none;stroke:black;stroke-width:1"/>
<polygon points="17.584616649945172,20.672192092627146 17.668728757031317,20.804731565365593 14.331271242968684,20.804731565365593" style="fill:none;stroke:black;stroke-width:1"/>
<polygon points="18.75848814941164,21.31753341053534 17.43,20.07 18.914226643232155,21.29785906341086" style="fill:none;stroke:black;stroke-width:1"/>
<polygon points="17.43,20.07 18.010216506276254,21.12540990687752 17.88322001281414,21.033141553469736" style="fill:none;stroke:black;stroke-width:1"/>
<polygon points="17.668728757031317,19.335268434634408 17.43,20.07 17.58461664994517,19.467807907372855" style="fill:none;stroke:black;stroke-width:1"/>
<polygon points="17.43,20.07 18.14777588554366,21.201033815582523 18.010216506276254,21.12540990687752" style="fill:none;stroke:black;stroke-width:1"/>
<polygon points="17.43,20.07 19.842220607360314,20.530155690855846 19.775383350054828,20.672192092627146" style="fill:none;stroke:black;stroke-width:1"/>
<polygon points="17.43,20.07 19.591210784276765,20.925683882410862 19.47677998718586,21.033141553469736" style="fill:none;stroke:black;stroke-width:1"/>
<polygon points="17.43,20.07 19.77538335005483,19.46780790737286 19.842220607360314,19.60984430914415" style="fill:none;stroke:black;stroke-width:1"/>
<polygon points="19.349783493723745,21.12540990687752 17.43,20.07 19.47677998718586,21.033141553469736" style="fill:none;stroke:black;stroke-width:1"/>
<polygon points="17.43,20.07 17.584616649945172,20.672192092627146 17.517779392639685,20.530155690855846" style="fill:none;stroke:black;stroke-width:1"/>
<polygon points="19.691271242968686,20.804731565365593 17.43,20.07 19.775383350054828,20.672192092627146" style="fill:none;stroke:black;stroke-width:1"/>
<polygon points="19.89072895141079,20.38086235895607 17.43,20.07 19.920143376643097,20.22666654195538" style="fill:none;stroke:black;stroke-width:1"/>
<polygon points="19.89072895141079,19.75913764104393 17.43,20.07 19.842220607360314,19.60984430914415" style="fill:none;stroke:black;stroke-width:1"/>
<polygon points="17.43,20.07 19.93,20.07 19.920143376643097,20.22666654195538" style="fill:none;stroke:black;stroke-width:1"/>
<polygon points="17.43,20.07 18.75848814941164,18.82246658946466 18.914226643232155,18.84214093658914" style="fill:none;stroke:black;stroke-width:1"/>
<polygon points="17.43,20.07 18.445773356767845,21.29785906341086 18.293728757031314,21.258820645368942" style="fill:none;stroke:black;stroke-width:1"/>
<polygon points="17.43,20.07 17.88322001281414,19.106858446530264 18.010216506276254,19.014590093122482" style="fill:none;stroke:black;stroke-width:1"/>
<polygon points="17.43,20.07 17.517779392639685,19.60984430914415 17.58461664994517,19.467807907372855" style="fill:none;stroke:black;stroke-width:1"/>
<polygon points="17.46927104858921,19.75913764104393 17.43,20.07 17.439856623356903,19.91333345804462" style="fill:none;stroke:black;stroke-width:1"/>
<polygon points="17.43,20.07 19.066271242968686,21.258820645368942 18.914226643232155,21.29785906341086" style="fill:none;stroke:black;stroke-width:1"/>
<polygon points="19.842220607360314,20.530155690855846 17.43,20.07 19.89072895141079,20.38086235895607" style="fill:none;stroke:black;stroke-width:1"/>
<polygon points="17.43,20.07 19.89072895141079,19.75913764104393 19.920143376643097,19.91333345804462" style="fill:none;stroke:black;stroke-width:1"/>
<polygon points="19.93,20.07 17.43,20.07 19.920143376643097,19.91333345804462" style="fill:none;stroke:black;stroke-width:1"/>
<polygon points="17.768789215723235,20.925683882410862 17.43,20.07 17.88322001281414,21.033141553469736" style="fill:none;stroke:black;stroke-width:1"/>
<polygon points="17.43,20.07 19.691271242968686,19.335268434634408 19.77538335005483,19.46780790737286" style="fill:none;stroke:black;stroke-width:1"/>
<polygon points="18.14777588554366,21.201033815582523 17.43,20.07 18.293728757031314,21.258820645368942" style="fill:none;stroke:black;stroke-width:1"/>
<polygon points="17.43,20.07 19.349783493723745,19.014590093122482 19.47677998718586,19.106858446530264" style="fill:none;stroke:black;stroke-width:1"/>
<polygon points="17.46927104858921,20.38086235895607 17.43,20.07 17.517779392639685,20.530155690855846" style="fill:none;stroke:black;stroke-width:1"/>
<polygon points="17.439856623356903,20.22666654195538 17.43,20.07 17.46927104858921,20.38086235895607" style="fill:none;stroke:black;stroke-width:1"/>
<polygon points="17.88322001281414,19.106858446530264 17.43,20.07 17.768789215723235,19.21431611758914" style="fill:none;stroke:black;stroke-width:1"/>
<polygon points="17.43,20.07 17.668728757031317,19.335268434634408 17.768789215723235,19.21431611758914" style="fill:none;stroke:black;stroke-width:1"/>
<polygon points="17.43,20.07 17.46927104858921,19.75913764104393 17.517779392639685,19.60984430914415" style="fill:none;stroke:black;stroke-width:1"/>
<polygon points="19.591210784276765,20.925683882410862 17.43,20.07 19.691271242968686,20.804731565365593" style="fill:none;stroke:black;stroke-width:1"/>
<polygon points="19.066271242968686,21.258820645368942 17.43,20.07 19.21222411445634,21.201033815582523" style="fill:none;stroke:black;stroke-width:1"/>
<polygon points="17.43,20.07 19.349783493723745,21.12540990687752 19.21222411445634,21.201033815582523" style="fill:none;stroke:black;stroke-width:1"/>
<polygon points="19.591210784276765,19.21431611758914 17.43,20.07 19.47677998718586,19.106858446530264" style="fill:none;stroke:black;stroke-width:1"/>
<polygon points="19.066271242968686,18.88117935463106 17.43,20.07 18.914226643232155,18.84214093658914" style="fill:none;stroke:black;stroke-width:1"/>
<polygon points="18.75848814941164,18.82246658946466 17.43,20.07 18.60151185058836,18.82246658946466" style="fill:none;stroke:black;stroke-width:1"/>
<polygon points="18.14777588554366,18.938966184417474 17.43,20.07 18.010216506276254,19.014590093122482" style="fill:none;stroke:black;stroke-width:1"/>
<polygon points="18.445773356767845,21.29785906341086 17.43,20.07 18.60151185058836,21.31753341053534" style="fill:none;stroke:black;stroke-width:1"/>
<polygon points="17.43,20.07 18.75848814941164,21.31753341053534 18.60151185058836,21.31753341053534" style="fill:none;stroke:black;stroke-width:1"/>
<polygon points="17.43,20.07 18.445773356767845,18.84214093658914 18.60151185058836,18.82246658946466" style="fill:none;stroke:black;stroke-width:1"/>
<polygon points="17.584616649945172,20.672192092627146 17.43,20.07 17.668728757031317,20.804731565365593" style="fill:none;stroke:black;stroke-width:1"/>
<polygon points="17.43,20.07 17.768789215723235,20.925683882410862 17.668728757031317,20.804731565365593" style="fill:none;stroke:black;stroke-width:1"/>
<polygon points="19.691271242968686,19.335268434634408 17.43,20.07 19.591210784276765,19.21431611758914" style="fill:none;stroke:black;stroke-width:1"/>
<polygon points="17.43,20.07 19.066271242968686,18.88117935463106 19.21222411445634,18.938966184417474" style="fill:none;stroke:black;stroke-width:1"/>
<polygon points="19.349783493723745,19.014590093122482 17.43,20.07 19.21222411445634,18.938966184417474" style="fill:none;stroke:black;stroke-width:1"/>
<polygon points="17.43,20.07 18.14777588554366,18.938966184417474 18.293728757031314,18.88117935463106" style="fill:none;stroke:black;stroke-width:1"/>
<polygon points="18.445773356767845,18.84214093658914 17.43,20.07 18.293728757031314,18.88117935463106" style="fill:none;stroke:black;stroke-width:1"/>
<polygon points="17.43,20.07 14.57,20.07 14.560143376643097,19.91333345804462" style="fill:none;stroke:black;stroke-width:1"/>
<polygon points="17.43,20.07 14.560143376643097,19.91333345804462 17.439856623356903,19.91333345804462" style="fill:none;stroke:black;stroke-width:1"/>
<polygon points="14.57,20.07 17.43,20.07 14.560143376643097,20.22666654195538" style="fill:none;stroke:black;stroke-width:1"/>
<polygon points="17.43,20.07 17.439856623356903,20.22666654195538 14.560143376643097,20.22666654195538" style="fill:none;stroke:black;stroke-width:1"/>
<polygon points="14.231210784276765,20.925683882410862 14.116779987185863,19.106858446530264 14.231210784276765,19.21431611758914" style="fill:none;stroke:black;stroke-width:1"/>
<polygon points="14.331271242968684,19.335268434634408 14.231210784276765,20.925683882410862 14.231210784276765,19.21431611758914" style="fill:none;stroke:black;stroke-width:1"/>
<polygon points="14.231210784276765,20.925683882410862 12.157779392639686,20.530155690855846 12.10927104858921,20.38086235895607" style="fill:none;stroke:black;stroke-width:1"/>
<polygon points="14.231210784276765,20.925683882410862 14.41538335005483,20.672192092627146 14.331271242968684,20.804731565365593" style="fill:none;stroke:black;stroke-width:1"/>
<polygon points="14.231210784276765,20.925683882410862 14.41538335005483,19.46780790737286 14.482220607360315,19.60984430914415" style="fill:none;stroke:black;stroke-width:1"/>
<polygon points="14.53072895141079,19.75913764104393 14.231210784276765,20.925683882410862 14.482220607360315,19.60984430914415" style="fill:none;stroke:black;stroke-width:1"/>
<polygon points="14.231210784276765,20.925683882410862 13.989783493723746,19.014590093122482 14.116779987185863,19.106858446530264" style="fill:none;stroke:black;stroke-width:1"/>
<polygon points="14.231210784276765,20.925683882410862 14.57,20.07 14.560143376643097,20.22666654195538" style="fill:none;stroke:black;stroke-width:1"/>
<polygon points="14.41538335005483,20.672192092627146 14.231210784276765,20.925683882410862 14.482220607360315,20.530155690855846" style="fill:none;stroke:black;stroke-width:1"/>
<polygon points="14.53072895141079,20.38086235895607 14.231210784276765,20.925683882410862 14.560143376643097,20.22666654195538" style="fill:none;stroke:black;stroke-width:1"/>
<polygon points="14.231210784276765,20.925683882410862 12.52322001281414,21.033141553469736 12.408789215723235,20.925683882410862" style="fill:none;stroke:black;stroke-width:1"/>
<polygon points="14.41538335005483,19.46780790737286 14.231210784276765,20.925683882410862 14.331271242968684,19.335268434634408" style="fill:none;stroke:black;stroke-width:1"/>
<polygon points="14.57,20.07 14.231210784276765,20.925683882410862 14.560143376643097,19.91333345804462" style="fill:none;stroke:black;stroke-width:1"/>
<polygon points="14.231210784276765,20.925683882410862 14.53072895141079,19.75913764104393 14.560143376643097,19.91333345804462" style="fill:none;stroke:black;stroke-width:1"/>
<polygon points="13.398488149411643,18.82246658946466 14.231210784276765,20.925683882410862 13.241511850588358,18.82246658946466" style="fill:none;stroke:black;stroke-width:1"/>
<polygon points="14.231210784276765,20.925683882410862 13.554226643232157,18.84214093658914 13.706271242968684,18.88117935463106" style="fill:none;stroke:black;stroke-width:1"/>
<polygon points="12.157779392639686,19.60984430914415 14.231210784276765,20.925683882410862 12.10927104858921,19.75913764104393" style="fill:none;stroke:black;stroke-width:1"/>
<polygon points="14.231210784276765,20.925683882410862 14.53072895141079,20.38086235895607 14.482220607360315,20.530155690855846" style="fill:none;stroke:black;stroke-width:1"/>
<polygon points="14.231210784276765,20.925683882410862 13.085773356767845,21.29785906341086 12.933728757031316,21.258820645368942" style="fill:none;stroke:black;stroke-width:1"/>
<polygon points="14.231210784276765,20.925683882410862 13.085773356767845,18.84214093658914 13.241511850588358,18.82246658946466" style="fill:none;stroke:black;stroke-width:1"/>
<polygon points="14.231210784276765,20.925683882410862 12.308728757031316,19.335268434634408 12.408789215723235,19.21431611758914" style="fill:none;stroke:black;stroke-width:1"/>
<polygon points="14.231210784276765,20.925683882410862 13.398488149411643,21.31753341053534 13.241511850588358,21.31753341053534" style="fill:none;stroke:black;stroke-width:1"/>
<polygon points="12.78777588554366,21.201033815582523 14.231210784276765,20.925683882410862 12.933728757031316,21.258820645368942" style="fill:none;stroke:black;stroke-width:1"/>
<polygon points="14.231210784276765,20.925683882410862 12.650216506276255,21.12540990687752 12.52322001281414,21.033141553469736" style="fill:none;stroke:black;stroke-width:1"/>
<polygon points="14.231210784276765,20.925683882410862 12.933728757031316,18.88117935463106 13.085773356767845,18.84214093658914" style="fill:none;stroke:black;stroke-width:1"/>
<polygon points="13.852224114456341,18.938966184417474 14.231210784276765,20.925683882410862 13.706271242968684,18.88117935463106" style="fill:none;stroke:black;stroke-width:1"/>
<polygon points="12.52322001281414,19.106858446530264 14.231210784276765,20.925683882410862 12.408789215723235,19.21431611758914" style="fill:none;stroke:black;stroke-width:1"/>
<polygon points="12.308728757031316,19.335268434634408 14.231210784276765,20.925683882410862 12.22461664994517,19.467807907372855" style="fill:none;stroke:black;stroke-width:1"/>
<polygon points="14.231210784276765,20.925683882410862 12.157779392639686,19.60984430914415 12.22461664994517,19.467807907372855" style="fill:none;stroke:black;stroke-width:1"/>
<polygon points="12.308728757031316,20.804731565365593 14.231210784276765,20.925683882410862 12.408789215723235,20.925683882410862" style="fill:none;stroke:black;stroke-width:1"/>
<polygon points="14.231210784276765,20.925683882410862 12.079856623356903,19.91333345804462 12.10927104858921,19.75913764104393" style="fill:none;stroke:black;stroke-width:1"/>
<polygon points="12.650216506276255,21.12540990687752 14.231210784276765,20.925683882410862 12.78777588554366,21.201033815582523" style="fill:none;stroke:black;stroke-width:1"/>
<polygon points="13.085773356767845,21.29785906341086 14.231210784276765,20.925683882410862 13.241511850588358,21.31753341053534" style="fill:none;stroke:black;stroke-width:1"/>
<polygon points="12.079856623356903,20.22666654195538 14.231210784276765,20.925683882410862 12.10927104858921,20.38086235895607" style="fill:none;stroke:black;stroke-width:1"/>
<polygon points="13.554226643232157,18.84214093658914 14.231210784276765,20.925683882410862 13.398488149411643,18.82246658946466" style="fill:none;stroke:black;stroke-width:1"/>
<polygon points="13.989783493723746,19.014590093122482 14.231210784276765,20.925683882410862 13.852224114456341,18.938966184417474" style="fill:none;stroke:black;stroke-width:1"/>
<polygon points="14.231210784276765,20.925683882410862 12.52322001281414,19.106858446530264 12.650216506276255,19.014590093122482" style="fill:none;stroke:black;stroke-width:1"/>
<polygon points="12.78777588554366,18.938966184417474 14.231210784276765,20.925683882410862 12.650216506276255,19.014590093122482" style="fill:none;stroke:black;stroke-width:1"/>
<polygon points="14.231210784276765,20.925683882410862 12.308728757031316,20.804731565365593 12.22461664994517,20.672192092627146" style="fill:none;stroke:black;stroke-width:1"/>
<polygon points="12.157779392639686,20.530155690855846 14.231210784276765,20.925683882410862 12.22461664994517,20.672192092627146" style="fill:none;stroke:black;stroke-width:1"/>
<polygon points="12.079856623356903,19.91333345804462 14.231210784276765,20.925683882410862 12.07,20.07" style="fill:none;stroke:black;stroke-width:1"/>
<polygon points="14.231210784276765,20.925683882410862 12.079856623356903,20.22666654195538 12.07,20.07" style="fill:none;stroke:black;stroke-width:1"/>
<polygon points="13.706271242968684,21.258820645368942 14.231210784276765,20.925683882410862 13.852224114456341,21.201033815582523" style="fill:none;stroke:black;stroke-width:1"/>
<polygon points="14.231210784276765,20.925683882410862 13.989783493723746,21.12540990687752 13.852224114456341,21.201033815582523" style="fill:none;stroke:black;stroke-width:1"/>
<polygon points="12.933728757031316,18.88117935463106 14.231210784276765,20.925683882410862 12.78777588554366,18.938966184417474" style="fill:none;stroke:black;stroke-width:1"/>
<polygon points="13.554226643232157,21.29785906341086 14.231210784276765,20.925683882410862 13.706271242968684,21.258820645368942" style="fill:none;stroke:black;stroke-width:1"/>
<polygon points="14.231210784276765,20.925683882410862 14.116779987185863,21.033141553469736 13.989783493723746,21.12540990687752" style="fill:none;stroke:black;stroke-width:1"/>
<polygon points="14.231210784276765,20.925683882410862 13.554226643232157,21.29785906341086 13.398488149411643,21.31753341053534" style="fill:none;stroke:black;stroke-width:1"/>
</svg>
