<?xml version="1.0" encoding="UTF-8" standalone="no"?>
<svg xmlns="http://www.w3.org/2000/svg" version="1.1" width="800" height="800">
<polygon points="17.889640888484813,13.25665300154049 18.49174512050684,11.256280543852984 19.183474005208556,13.284367366688013" style="fill:none;stroke:black;stroke-width:1"/>
<polygon points="16.536939025076226,7.493195671104579 15.549968794738355,7.445907088011697 15.827860871125324,6.758130271192814" style="fill:none;stroke:black;stroke-width:1"/>
<polygon points="19.938881096763115,5.819247829464718 21.009085314229445,5.119489794983592 21.80402370341298,5.987799649739244" style="fill:none;stroke:black;stroke-width:1"/>
<polygon points="18.030269244231675,4.747879489415917 9.496449923048889,8.341702836426535 18.928191551686282,4.174339301799045" style="fill:none;stroke:black;stroke-width:1"/>
<polygon points="15.821766712914304,7.44985772015227 15.992068965517241,8.139655172413793 15.723382588666713,6.148388451324617" style="fill:none;stroke:black;stroke-width:1"/>
<polygon points="15.549968794738355,7.445907088011697 15.992068965517241,8.139655172413793 15.827860871125324,6.758130271192814" style="fill:none;stroke:black;stroke-width:1"/>
<polygon points="15.992068965517241,8.139655172413793 15.821766712914304,7.44985772015227 15.827860871125324,6.758130271192814" style="fill:none;stroke:black;stroke-width:1"/>
<polygon points="15.87661441444618,5.167312706412368 15.572056628983846,6.568241588573298 15.723382588666713,6.148388451324617" style="fill:none;stroke:black;stroke-width:1"/>
<polygon points="15.572056628983846,6.568241588573298 15.821766712914304,7.44985772015227 15.723382588666713,6.148388451324617" style="fill:none;stroke:black;stroke-width:1"/>
<polygon points="16.791617920032245,4.643544202592255 15.572056628983846,6.568241588573298 15.87661441444618,5.167312706412368" style="fill:none;stroke:black;stroke-width:1"/>
<polygon points="20.222346862718055,12.737134176411438 19.55106862403772,10.96889753207206 20.835495660881875,11.414591616525197" style="fill:none;stroke:black;stroke-width:1"/>
<polygon points="19.55106862403772,10.96889753207206 20.222346862718055,12.737134176411438 19.183474005208556,13.284367366688013" style="fill:none;stroke:black;stroke-width:1"/>
<polygon points="18.49174512050684,11.256280543852984 19.55106862403772,10.96889753207206 19.183474005208556,13.284367366688013" style="fill:none;stroke:black;stroke-width:1"/>
<polygon points="19.155827996430105,9.193522691622524 20.91145779401516,10.474716599019528 20.835495660881875,11.414591616525197" style="fill:none;stroke:black;stroke-width:1"/>
<polygon points="19.55106862403772,10.96889753207206 19.155827996430105,9.193522691622524 20.835495660881875,11.414591616525197" style="fill:none;stroke:black;stroke-width:1"/>
<polygon points="16.940277829312194,6.879717510794395 16.536939025076226,7.493195671104579 15.827860871125324,6.758130271192814" style="fill:none;stroke:black;stroke-width:1"/>
<polygon points="16.536939025076226,7.493195671104579 16.940277829312194,6.879717510794395 17.70945590897015,7.39146418580381" style="fill:none;stroke:black;stroke-width:1"/>
<polygon points="19.938881096763115,5.819247829464718 18.948149044632945,5.264733256573146 21.009085314229445,5.119489794983592" style="fill:none;stroke:black;stroke-width:1"/>
<polygon points="18.928191551686282,4.174339301799045 16.922742693611397,4.404279625398536 17.775238562693346,4.235812865430441" style="fill:none;stroke:black;stroke-width:1"/>
<polygon points="15.99394311775632,4.943274060553547 15.572056628983846,6.568241588573298 16.791617920032245,4.643544202592255" style="fill:none;stroke:black;stroke-width:1"/>
<polygon points="15.572056628983846,6.568241588573298 15.99394311775632,4.943274060553547 15.821766712914304,7.44985772015227" style="fill:none;stroke:black;stroke-width:1"/>
<polygon points="15.99394311775632,4.943274060553547 16.791617920032245,4.643544202592255 17.775238562693346,4.235812865430441" style="fill:none;stroke:black;stroke-width:1"/>
<polygon points="21.7417077671206,7.1894316515906445 19.938881096763115,5.819247829464718 21.80402370341298,5.987799649739244" style="fill:none;stroke:black;stroke-width:1"/>
<polygon points="20.91145779401516,10.474716599019528 21.7417077671206,7.1894316515906445 20.835495660881875,11.414591616525197" style="fill:none;stroke:black;stroke-width:1"/>
<polygon points="21.7417077671206,7.1894316515906445 20.91145779401516,10.474716599019528 21.086667744161726,9.323505494840674" style="fill:none;stroke:black;stroke-width:1"/>
<polygon points="16.07728008986488,9.339127542975827 15.992068965517241,8.139655172413793 15.549968794738355,7.445907088011697" style="fill:none;stroke:black;stroke-width:1"/>
<polygon points="15.992068965517241,8.139655172413793 16.07728008986488,9.339127542975827 15.723382588666713,6.148388451324617" style="fill:none;stroke:black;stroke-width:1"/>
<polygon points="18.905999219756644,7.3062430225248285 18.906937629959238,7.641284300985589 17.70945590897015,7.39146418580381" style="fill:none;stroke:black;stroke-width:1"/>
<polygon points="19.155827996430105,9.193522691622524 19.27732405345055,8.233848094716441 20.91145779401516,10.474716599019528" style="fill:none;stroke:black;stroke-width:1"/>
<polygon points="20.91145779401516,10.474716599019528 19.27732405345055,8.233848094716441 21.086667744161726,9.323505494840674" style="fill:none;stroke:black;stroke-width:1"/>
<polygon points="19.27732405345055,8.233848094716441 18.905999219756644,7.3062430225248285 21.086667744161726,9.323505494840674" style="fill:none;stroke:black;stroke-width:1"/>
<polygon points="18.905999219756644,7.3062430225248285 19.27732405345055,8.233848094716441 18.906937629959238,7.641284300985589" style="fill:none;stroke:black;stroke-width:1"/>
<polygon points="23.2086258705706,21.2362634107644 19.55106862403772,10.96889753207206 18.49174512050684,11.256280543852984" style="fill:none;stroke:black;stroke-width:1"/>
<polygon points="19.55106862403772,10.96889753207206 23.2086258705706,21.2362634107644 23.27771347362507,21.093796088884513" style="fill:none;stroke:black;stroke-width:1"/>
<polygon points="22.414285676264946,22.437895666708936 22.528240554860773,22.32859595671735 18.49174512050684,11.256280543852984" style="fill:none;stroke:black;stroke-width:1"/>
<polygon points="16.824069630228205,7.5125126883837625 16.940277829312194,6.879717510794395 15.827860871125324,6.758130271192814" style="fill:none;stroke:black;stroke-width:1"/>
<polygon points="15.821766712914304,7.44985772015227 16.824069630228205,7.5125126883837625 15.827860871125324,6.758130271192814" style="fill:none;stroke:black;stroke-width:1"/>
<polygon points="15.99394311775632,4.943274060553547 16.824069630228205,7.5125126883837625 15.821766712914304,7.44985772015227" style="fill:none;stroke:black;stroke-width:1"/>
<polygon points="16.940277829312194,6.879717510794395 18.08046403389347,6.99803159790806 17.70945590897015,7.39146418580381" style="fill:none;stroke:black;stroke-width:1"/>
<polygon points="18.08046403389347,6.99803159790806 18.905999219756644,7.3062430225248285 17.70945590897015,7.39146418580381" style="fill:none;stroke:black;stroke-width:1"/>
<polygon points="18.905999219756644,7.3062430225248285 18.08046403389347,6.99803159790806 19.18289179885139,6.306615996525815" style="fill:none;stroke:black;stroke-width:1"/>
<polygon points="18.948149044632945,5.264733256573146 19.927947052619427,4.816611804256045 21.009085314229445,5.119489794983592" style="fill:none;stroke:black;stroke-width:1"/>
<polygon points="19.927947052619427,4.816611804256045 18.948149044632945,5.264733256573146 18.030269244231675,4.747879489415917" style="fill:none;stroke:black;stroke-width:1"/>
<polygon points="21.009085314229445,5.119489794983592 19.927947052619427,4.816611804256045 18.928191551686282,4.174339301799045" style="fill:none;stroke:black;stroke-width:1"/>
<polygon points="19.927947052619427,4.816611804256045 18.030269244231675,4.747879489415917 18.928191551686282,4.174339301799045" style="fill:none;stroke:black;stroke-width:1"/>
<polygon points="19.856493482635322,6.946442302654603 18.948149044632945,5.264733256573146 19.938881096763115,5.819247829464718" style="fill:none;stroke:black;stroke-width:1"/>
<polygon points="21.7417077671206,7.1894316515906445 19.856493482635322,6.946442302654603 19.938881096763115,5.819247829464718" style="fill:none;stroke:black;stroke-width:1"/>
<polygon points="21.11977882305873,8.099709644010257 21.7417077671206,7.1894316515906445 21.086667744161726,9.323505494840674" style="fill:none;stroke:black;stroke-width:1"/>
<polygon points="18.905999219756644,7.3062430225248285 21.11977882305873,8.099709644010257 21.086667744161726,9.323505494840674" style="fill:none;stroke:black;stroke-width:1"/>
<polygon points="21.11977882305873,8.099709644010257 18.905999219756644,7.3062430225248285 19.18289179885139,6.306615996525815" style="fill:none;stroke:black;stroke-width:1"/>
<polygon points="19.856493482635322,6.946442302654603 21.11977882305873,8.099709644010257 19.18289179885139,6.306615996525815" style="fill:none;stroke:black;stroke-width:1"/>
<polygon points="21.11977882305873,8.099709644010257 19.856493482635322,6.946442302654603 21.7417077671206,7.1894316515906445" style="fill:none;stroke:black;stroke-width:1"/>
<polygon points="12.041055983879772,20.00648607861224 17.915444142224167,7.688375152097146 17.70945590897015,7.39146418580381" style="fill:none;stroke:black;stroke-width:1"/>
<polygon points="12.679698981007977,24.026783096276308 17.915444142224167,7.688375152097146 12.596878650302916,24.083300751009578" style="fill:none;stroke:black;stroke-width:1"/>
<polygon points="17.915444142224167,7.688375152097146 16.536939025076226,7.493195671104579 17.70945590897015,7.39146418580381" style="fill:none;stroke:black;stroke-width:1"/>
<polygon points="23.2086258705706,21.2362634107644 22.715862068965517,19.887241379310346 23.27771347362507,21.093796088884513" style="fill:none;stroke:black;stroke-width:1"/>
<polygon points="23.194692334802507,20.10577731409798 23.174209662623003,26.086851576530435 19.155827996430105,9.193522691622524" style="fill:none;stroke:black;stroke-width:1"/>
<polygon points="23.400502263086885,20.587931385422554 19.155827996430105,9.193522691622524 19.55106862403772,10.96889753207206" style="fill:none;stroke:black;stroke-width:1"/>
<polygon points="23.400502263086885,20.587931385422554 23.371871909824552,20.410249725459288 19.155827996430105,9.193522691622524" style="fill:none;stroke:black;stroke-width:1"/>
<polygon points="23.385531337000895,20.767720054834484 23.400502263086885,20.587931385422554 19.55106862403772,10.96889753207206" style="fill:none;stroke:black;stroke-width:1"/>
<polygon points="16.867558011227846,12.563133334398312 17.34730503796174,10.871591606012583 17.889640888484813,13.25665300154049" style="fill:none;stroke:black;stroke-width:1"/>
<polygon points="17.34730503796174,10.871591606012583 18.49174512050684,11.256280543852984 17.889640888484813,13.25665300154049" style="fill:none;stroke:black;stroke-width:1"/>
<polygon points="16.824069630228205,7.5125126883837625 17.858148101805988,7.410131860373751 16.940277829312194,6.879717510794395" style="fill:none;stroke:black;stroke-width:1"/>
<polygon points="17.858148101805988,7.410131860373751 18.08046403389347,6.99803159790806 16.940277829312194,6.879717510794395" style="fill:none;stroke:black;stroke-width:1"/>
<polygon points="9.616346736692915,8.265068715367404 9.496449923048889,8.341702836426535 18.030269244231675,4.747879489415917" style="fill:none;stroke:black;stroke-width:1"/>
<polygon points="9.732911660955637,8.193029511278393 9.616346736692915,8.265068715367404 18.030269244231675,4.747879489415917" style="fill:none;stroke:black;stroke-width:1"/>
<polygon points="9.955313925802876,8.061848683666117 9.845961716953482,8.125363431573348 18.030269244231675,4.747879489415917" style="fill:none;stroke:black;stroke-width:1"/>
<polygon points="9.845961716953482,8.125363431573348 9.732911660955637,8.193029511278393 18.030269244231675,4.747879489415917" style="fill:none;stroke:black;stroke-width:1"/>
<polygon points="19.27732405345055,8.233848094716441 13.73736086750393,7.949439001065116 18.906937629959238,7.641284300985589" style="fill:none;stroke:black;stroke-width:1"/>
<polygon points="10.371903379469394,10.131076898703753 13.73736086750393,7.949439001065116 19.27732405345055,8.233848094716441" style="fill:none;stroke:black;stroke-width:1"/>
<polygon points="17.34730503796174,10.871591606012583 21.78323218242945,22.6862059389707 18.49174512050684,11.256280543852984" style="fill:none;stroke:black;stroke-width:1"/>
<polygon points="16.668122765600483,8.633303517768594 16.742565620144646,9.635444201168278 16.435200106965507,11.415942393217327" style="fill:none;stroke:black;stroke-width:1"/>
<polygon points="16.742565620144646,9.635444201168278 16.867558011227846,12.563133334398312 16.435200106965507,11.415942393217327" style="fill:none;stroke:black;stroke-width:1"/>
<polygon points="16.911770932065593,7.76031173272798 16.07728008986488,9.339127542975827 15.549968794738355,7.445907088011697" style="fill:none;stroke:black;stroke-width:1"/>
<polygon points="16.536939025076226,7.493195671104579 16.911770932065593,7.76031173272798 15.549968794738355,7.445907088011697" style="fill:none;stroke:black;stroke-width:1"/>
<polygon points="23.371871909824552,20.410249725459288 23.301565354222525,20.24689703657254 19.155827996430105,9.193522691622524" style="fill:none;stroke:black;stroke-width:1"/>
<polygon points="23.301565354222525,20.24689703657254 23.194692334802507,20.10577731409798 19.155827996430105,9.193522691622524" style="fill:none;stroke:black;stroke-width:1"/>
<polygon points="23.301565354222525,20.24689703657254 23.385531337000895,20.767720054834484 23.194692334802507,20.10577731409798" style="fill:none;stroke:black;stroke-width:1"/>
<polygon points="23.400502263086885,20.587931385422554 23.301565354222525,20.24689703657254 23.371871909824552,20.410249725459288" style="fill:none;stroke:black;stroke-width:1"/>
<polygon points="23.301565354222525,20.24689703657254 23.400502263086885,20.587931385422554 23.385531337000895,20.767720054834484" style="fill:none;stroke:black;stroke-width:1"/>
<polygon points="23.194692334802507,20.10577731409798 23.05659811637046,19.99322210268661 23.174209662623003,26.086851576530435" style="fill:none;stroke:black;stroke-width:1"/>
<polygon points="23.05659811637046,19.99322210268661 22.715862068965517,19.887241379310346 22.892627963732366,19.915562946989446" style="fill:none;stroke:black;stroke-width:1"/>
<polygon points="22.715862068965517,19.887241379310346 23.05659811637046,19.99322210268661 23.27771347362507,21.093796088884513" style="fill:none;stroke:black;stroke-width:1"/>
<polygon points="23.337755961957836,20.93687536926828 19.55106862403772,10.96889753207206 23.27771347362507,21.093796088884513" style="fill:none;stroke:black;stroke-width:1"/>
<polygon points="23.337755961957836,20.93687536926828 23.385531337000895,20.767720054834484 19.55106862403772,10.96889753207206" style="fill:none;stroke:black;stroke-width:1"/>
<polygon points="23.385531337000895,20.767720054834484 23.337755961957836,20.93687536926828 23.194692334802507,20.10577731409798" style="fill:none;stroke:black;stroke-width:1"/>
<polygon points="23.05659811637046,19.99322210268661 23.337755961957836,20.93687536926828 23.27771347362507,21.093796088884513" style="fill:none;stroke:black;stroke-width:1"/>
<polygon points="23.337755961957836,20.93687536926828 23.05659811637046,19.99322210268661 23.194692334802507,20.10577731409798" style="fill:none;stroke:black;stroke-width:1"/>
<polygon points="19.856493482635322,6.946442302654603 11.456588475158071,8.633638736370655 18.948149044632945,5.264733256573146" style="fill:none;stroke:black;stroke-width:1"/>
<polygon points="10.875461904726015,9.624486809477112 11.456588475158071,8.633638736370655 11.49529838281428,8.836123713492217" style="fill:none;stroke:black;stroke-width:1"/>
<polygon points="18.892226573383773,7.307751032363739 19.856493482635322,6.946442302654603 19.18289179885139,6.306615996525815" style="fill:none;stroke:black;stroke-width:1"/>
<polygon points="18.08046403389347,6.99803159790806 18.892226573383773,7.307751032363739 19.18289179885139,6.306615996525815" style="fill:none;stroke:black;stroke-width:1"/>
<polygon points="18.892226573383773,7.307751032363739 11.456588475158071,8.633638736370655 19.856493482635322,6.946442302654603" style="fill:none;stroke:black;stroke-width:1"/>
<polygon points="11.456588475158071,8.633638736370655 18.892226573383773,7.307751032363739 11.49529838281428,8.836123713492217" style="fill:none;stroke:black;stroke-width:1"/>
<polygon points="17.858148101805988,7.410131860373751 18.892226573383773,7.307751032363739 18.08046403389347,6.99803159790806" style="fill:none;stroke:black;stroke-width:1"/>
<polygon points="9.933387959770435,10.038893763577788 9.616346736692915,8.265068715367404 9.732911660955637,8.193029511278393" style="fill:none;stroke:black;stroke-width:1"/>
<polygon points="10.06078530862024,8.002263474970546 9.955313925802876,8.061848683666117 18.030269244231675,4.747879489415917" style="fill:none;stroke:black;stroke-width:1"/>
<polygon points="18.948149044632945,5.264733256573146 10.534171118434223,7.855813252591462 18.030269244231675,4.747879489415917" style="fill:none;stroke:black;stroke-width:1"/>
<polygon points="10.68437208424339,7.8775128853725755 10.534171118434223,7.855813252591462 18.948149044632945,5.264733256573146" style="fill:none;stroke:black;stroke-width:1"/>
<polygon points="17.53133808731413,11.708795361701153 13.677099490912724,12.838895697096653 19.27732405345055,8.233848094716441" style="fill:none;stroke:black;stroke-width:1"/>
<polygon points="17.915444142224167,7.688375152097146 12.51009408831538,24.143541066704618 12.596878650302916,24.083300751009578" style="fill:none;stroke:black;stroke-width:1"/>
<polygon points="21.007939941380926,22.322526393981466 17.34730503796174,10.871591606012583 16.867558011227846,12.563133334398312" style="fill:none;stroke:black;stroke-width:1"/>
<polygon points="16.742565620144646,9.635444201168278 21.007939941380926,22.322526393981466 16.867558011227846,12.563133334398312" style="fill:none;stroke:black;stroke-width:1"/>
<polygon points="16.911770932065593,7.76031173272798 16.323859841273013,10.450063515070138 16.07728008986488,9.339127542975827" style="fill:none;stroke:black;stroke-width:1"/>
<polygon points="16.323859841273013,10.450063515070138 16.911770932065593,7.76031173272798 16.668122765600483,8.633303517768594" style="fill:none;stroke:black;stroke-width:1"/>
<polygon points="16.323859841273013,10.450063515070138 16.668122765600483,8.633303517768594 16.435200106965507,11.415942393217327" style="fill:none;stroke:black;stroke-width:1"/>
<polygon points="16.323859841273013,10.450063515070138 16.435200106965507,11.415942393217327 15.723382588666713,6.148388451324617" style="fill:none;stroke:black;stroke-width:1"/>
<polygon points="16.07728008986488,9.339127542975827 16.323859841273013,10.450063515070138 15.723382588666713,6.148388451324617" style="fill:none;stroke:black;stroke-width:1"/>
<polygon points="22.528240554860773,22.32859595671735 22.61823690206431,22.20561678369817 18.49174512050684,11.256280543852984" style="fill:none;stroke:black;stroke-width:1"/>
<polygon points="22.61823690206431,22.20561678369817 22.691946008187337,22.08509804567329 18.49174512050684,11.256280543852984" style="fill:none;stroke:black;stroke-width:1"/>
<polygon points="22.61823690206431,22.20561678369817 22.528240554860773,22.32859595671735 21.61857004736673,20.484041996389983" style="fill:none;stroke:black;stroke-width:1"/>
<polygon points="22.839359237787953,21.84407360376437 22.91306585258826,21.72356138280991 18.49174512050684,11.256280543852984" style="fill:none;stroke:black;stroke-width:1"/>
<polygon points="22.839359237787953,21.84407360376437 22.03220087036236,20.042653119162775 22.91306585258826,21.72356138280991" style="fill:none;stroke:black;stroke-width:1"/>
<polygon points="23.134185696989185,21.362024719946525 23.2086258705706,21.2362634107644 18.49174512050684,11.256280543852984" style="fill:none;stroke:black;stroke-width:1"/>
<polygon points="23.060479082188877,21.482536940900985 23.134185696989185,21.362024719946525 18.49174512050684,11.256280543852984" style="fill:none;stroke:black;stroke-width:1"/>
<polygon points="23.134185696989185,21.362024719946525 22.715862068965517,19.887241379310346 23.2086258705706,21.2362634107644" style="fill:none;stroke:black;stroke-width:1"/>
<polygon points="22.91306585258826,21.72356138280991 22.98677246738857,21.60304916185545 18.49174512050684,11.256280543852984" style="fill:none;stroke:black;stroke-width:1"/>
<polygon points="22.98677246738857,21.60304916185545 23.060479082188877,21.482536940900985 18.49174512050684,11.256280543852984" style="fill:none;stroke:black;stroke-width:1"/>
<polygon points="22.715862068965517,19.887241379310346 8.256278343279691,24.06899960964332 22.892627963732366,19.915562946989446" style="fill:none;stroke:black;stroke-width:1"/>
<polygon points="22.528240554860773,22.32859595671735 21.544863432566423,20.604554217344443 21.61857004736673,20.484041996389983" style="fill:none;stroke:black;stroke-width:1"/>
<polygon points="22.414285676264946,22.437895666708936 21.544863432566423,20.604554217344443 22.528240554860773,22.32859595671735" style="fill:none;stroke:black;stroke-width:1"/>
<polygon points="22.12737059179057,22.6050379101236 21.3237435881655,20.96609088020783 21.397450202965807,20.845578659253363" style="fill:none;stroke:black;stroke-width:1"/>
<polygon points="11.597072701113637,23.59415816411431 16.742565620144646,9.635444201168278 16.668122765600483,8.633303517768594" style="fill:none;stroke:black;stroke-width:1"/>
<polygon points="11.679893031818695,23.537640509381042 11.597072701113637,23.59415816411431 16.668122765600483,8.633303517768594" style="fill:none;stroke:black;stroke-width:1"/>
<polygon points="24.472570469668042,17.854525330067755 25.55089890682452,19.813403029122178 17.915444142224167,7.688375152097146" style="fill:none;stroke:black;stroke-width:1"/>
<polygon points="19.27732405345055,8.233848094716441 26.26349121926865,16.431422356645857 23.015064445804725,17.020151621340403" style="fill:none;stroke:black;stroke-width:1"/>
<polygon points="26.26349121926865,16.431422356645857 19.27732405345055,8.233848094716441 19.155827996430105,9.193522691622524" style="fill:none;stroke:black;stroke-width:1"/>
<polygon points="11.028692980593988,9.541441884753981 11.398647983277067,9.214965094137646 11.144807347387307,9.46821335745819" style="fill:none;stroke:black;stroke-width:1"/>
<polygon points="17.858148101805988,7.410131860373751 11.028692980593988,9.541441884753981 11.144807347387307,9.46821335745819" style="fill:none;stroke:black;stroke-width:1"/>
<polygon points="18.892226573383773,7.307751032363739 11.474604929837602,9.034445856740799 11.49529838281428,8.836123713492217" style="fill:none;stroke:black;stroke-width:1"/>
<polygon points="11.474604929837602,9.034445856740799 18.892226573383773,7.307751032363739 11.398647983277067,9.214965094137646" style="fill:none;stroke:black;stroke-width:1"/>
<polygon points="11.028692980593988,9.541441884753981 11.474604929837602,9.034445856740799 11.398647983277067,9.214965094137646" style="fill:none;stroke:black;stroke-width:1"/>
<polygon points="11.474604929837602,9.034445856740799 10.875461904726015,9.624486809477112 11.49529838281428,8.836123713492217" style="fill:none;stroke:black;stroke-width:1"/>
<polygon points="11.276129677392113,9.36276103264369 18.892226573383773,7.307751032363739 17.858148101805988,7.410131860373751" style="fill:none;stroke:black;stroke-width:1"/>
<polygon points="18.892226573383773,7.307751032363739 11.276129677392113,9.36276103264369 11.398647983277067,9.214965094137646" style="fill:none;stroke:black;stroke-width:1"/>
<polygon points="11.276129677392113,9.36276103264369 17.858148101805988,7.410131860373751 11.144807347387307,9.46821335745819" style="fill:none;stroke:black;stroke-width:1"/>
<polygon points="11.398647983277067,9.214965094137646 11.276129677392113,9.36276103264369 11.144807347387307,9.46821335745819" style="fill:none;stroke:black;stroke-width:1"/>
<polygon points="9.845961716953482,8.125363431573348 10.100431620627358,10.010176069747047 9.732911660955637,8.193029511278393" style="fill:none;stroke:black;stroke-width:1"/>
<polygon points="10.100431620627358,10.010176069747047 9.933387959770435,10.038893763577788 9.732911660955637,8.193029511278393" style="fill:none;stroke:black;stroke-width:1"/>
<polygon points="10.100431620627358,10.010176069747047 9.845961716953482,8.125363431573348 9.955313925802876,8.061848683666117" style="fill:none;stroke:black;stroke-width:1"/>
<polygon points="9.616346736692915,8.265068715367404 9.746337442332187,10.049226060062047 9.496449923048889,8.341702836426535" style="fill:none;stroke:black;stroke-width:1"/>
<polygon points="9.933387959770435,10.038893763577788 9.746337442332187,10.049226060062047 9.616346736692915,8.265068715367404" style="fill:none;stroke:black;stroke-width:1"/>
<polygon points="9.746337442332187,10.049226060062047 9.933387959770435,10.038893763577788 9.545157666283625,10.039725227341322" style="fill:none;stroke:black;stroke-width:1"/>
<polygon points="10.26801918398731,7.8936382298764025 10.162192886522,7.946386012900484 18.030269244231675,4.747879489415917" style="fill:none;stroke:black;stroke-width:1"/>
<polygon points="10.162192886522,7.946386012900484 10.06078530862024,8.002263474970546 18.030269244231675,4.747879489415917" style="fill:none;stroke:black;stroke-width:1"/>
<polygon points="10.393635851498749,7.8617904261195894 10.26801918398731,7.8936382298764025 18.030269244231675,4.747879489415917" style="fill:none;stroke:black;stroke-width:1"/>
<polygon points="10.534171118434223,7.855813252591462 10.393635851498749,7.8617904261195894 18.030269244231675,4.747879489415917" style="fill:none;stroke:black;stroke-width:1"/>
<polygon points="9.247392543151243,8.509642999799762 16.922742693611397,4.404279625398536 18.928191551686282,4.174339301799045" style="fill:none;stroke:black;stroke-width:1"/>
<polygon points="9.247392543151243,8.509642999799762 9.118597934664773,8.601392627286165 16.922742693611397,4.404279625398536" style="fill:none;stroke:black;stroke-width:1"/>
<polygon points="8.635148688438417,9.334553959094617 15.99394311775632,4.943274060553547 17.775238562693346,4.235812865430441" style="fill:none;stroke:black;stroke-width:1"/>
<polygon points="8.929217642533057,9.861753266292073 16.824069630228205,7.5125126883837625 15.99394311775632,4.943274060553547" style="fill:none;stroke:black;stroke-width:1"/>
<polygon points="8.776326939385767,9.717353252417755 8.929217642533057,9.861753266292073 15.99394311775632,4.943274060553547" style="fill:none;stroke:black;stroke-width:1"/>
<polygon points="21.101866160554977,13.494618270074067 19.27732405345055,8.233848094716441 23.015064445804725,17.020151621340403" style="fill:none;stroke:black;stroke-width:1"/>
<polygon points="21.101866160554977,13.494618270074067 17.53133808731413,11.708795361701153 19.27732405345055,8.233848094716441" style="fill:none;stroke:black;stroke-width:1"/>
<polygon points="8.169471627719867,13.501209854656635 10.371903379469394,10.131076898703753 19.27732405345055,8.233848094716441" style="fill:none;stroke:black;stroke-width:1"/>
<polygon points="8.280142420820555,16.482286631931853 8.169471627719867,13.501209854656635 19.27732405345055,8.233848094716441" style="fill:none;stroke:black;stroke-width:1"/>
<polygon points="13.677099490912724,12.838895697096653 11.657028251476785,16.213650696549806 19.27732405345055,8.233848094716441" style="fill:none;stroke:black;stroke-width:1"/>
<polygon points="11.657028251476785,16.213650696549806 8.280142420820555,16.482286631931853 19.27732405345055,8.233848094716441" style="fill:none;stroke:black;stroke-width:1"/>
<polygon points="18.906937629959238,7.641284300985589 11.322808126873102,24.70819874390007 17.70945590897015,7.39146418580381" style="fill:none;stroke:black;stroke-width:1"/>
<polygon points="12.322960397997626,24.2730344540724 12.418909981057284,24.206977839142596 17.915444142224167,7.688375152097146" style="fill:none;stroke:black;stroke-width:1"/>
<polygon points="12.418909981057284,24.206977839142596 12.51009408831538,24.143541066704618 17.915444142224167,7.688375152097146" style="fill:none;stroke:black;stroke-width:1"/>
<polygon points="12.221954563005553,24.341092980761783 12.322960397997626,24.2730344540724 17.915444142224167,7.688375152097146" style="fill:none;stroke:black;stroke-width:1"/>
<polygon points="22.691946008187337,22.08509804567329 22.765652622987645,21.96458582471883 18.49174512050684,11.256280543852984" style="fill:none;stroke:black;stroke-width:1"/>
<polygon points="22.765652622987645,21.96458582471883 22.839359237787953,21.84407360376437 18.49174512050684,11.256280543852984" style="fill:none;stroke:black;stroke-width:1"/>
<polygon points="21.78209161181665,20.24235136306401 22.765652622987645,21.96458582471883 22.691946008187337,22.08509804567329" style="fill:none;stroke:black;stroke-width:1"/>
<polygon points="22.03220087036236,20.042653119162775 22.18547507388469,19.96933516141053 22.91306585258826,21.72356138280991" style="fill:none;stroke:black;stroke-width:1"/>
<polygon points="22.18547507388469,19.96933516141053 22.98677246738857,21.60304916185545 22.91306585258826,21.72356138280991" style="fill:none;stroke:black;stroke-width:1"/>
<polygon points="5.939717532206957,16.343772380202157 22.18547507388469,19.96933516141053 7.051213998396529,12.409395361320772" style="fill:none;stroke:black;stroke-width:1"/>
<polygon points="22.18547507388469,19.96933516141053 22.03220087036236,20.042653119162775 7.051213998396529,12.409395361320772" style="fill:none;stroke:black;stroke-width:1"/>
<polygon points="21.69230887554061,20.36344241015249 22.61823690206431,22.20561678369817 21.61857004736673,20.484041996389983" style="fill:none;stroke:black;stroke-width:1"/>
<polygon points="22.61823690206431,22.20561678369817 21.69230887554061,20.36344241015249 22.691946008187337,22.08509804567329" style="fill:none;stroke:black;stroke-width:1"/>
<polygon points="21.69230887554061,20.36344241015249 21.78209161181665,20.24235136306401 22.691946008187337,22.08509804567329" style="fill:none;stroke:black;stroke-width:1"/>
<polygon points="6.357325245147738,20.491008067238436 8.256278343279691,24.06899960964332 22.715862068965517,19.887241379310346" style="fill:none;stroke:black;stroke-width:1"/>
<polygon points="15.186779864675152,28.038433921249286 23.05659811637046,19.99322210268661 22.892627963732366,19.915562946989446" style="fill:none;stroke:black;stroke-width:1"/>
<polygon points="12.894325522169174,7.230004082607153 21.69230887554061,20.36344241015249 11.410373300707093,24.5143387824785" style="fill:none;stroke:black;stroke-width:1"/>
<polygon points="21.25003697336519,21.08660310116229 21.78323218242945,22.6862059389707 21.176330358564883,21.20711532211675" style="fill:none;stroke:black;stroke-width:1"/>
<polygon points="21.47115681776612,20.725066438298903 21.544863432566423,20.604554217344443 22.414285676264946,22.437895666708936" style="fill:none;stroke:black;stroke-width:1"/>
<polygon points="22.12737059179057,22.6050379101236 21.960845519359086,22.65767104980381 21.3237435881655,20.96609088020783" style="fill:none;stroke:black;stroke-width:1"/>
<polygon points="21.25003697336519,21.08660310116229 21.960845519359086,22.65767104980381 21.78323218242945,22.6862059389707" style="fill:none;stroke:black;stroke-width:1"/>
<polygon points="21.960845519359086,22.65767104980381 21.25003697336519,21.08660310116229 21.3237435881655,20.96609088020783" style="fill:none;stroke:black;stroke-width:1"/>
<polygon points="21.78323218242945,22.6862059389707 21.960845519359086,22.65767104980381 18.49174512050684,11.256280543852984" style="fill:none;stroke:black;stroke-width:1"/>
<polygon points="21.960845519359086,22.65767104980381 22.12737059179057,22.6050379101236 18.49174512050684,11.256280543852984" style="fill:none;stroke:black;stroke-width:1"/>
<polygon points="16.911770932065593,7.76031173272798 12.516453047671927,23.054163052281684 16.668122765600483,8.633303517768594" style="fill:none;stroke:black;stroke-width:1"/>
<polygon points="16.742565620144646,9.635444201168278 11.367154151190036,23.73703694313415 20.97276009359623,21.632264672794992" style="fill:none;stroke:black;stroke-width:1"/>
<polygon points="15.292110007314992,22.233517505921675 17.915444142224167,7.688375152097146 12.041055983879772,20.00648607861224" style="fill:none;stroke:black;stroke-width:1"/>
<polygon points="15.292110007314992,22.233517505921675 19.27625454629649,21.626386993471026 17.915444142224167,7.688375152097146" style="fill:none;stroke:black;stroke-width:1"/>
<polygon points="21.70304175816713,18.562721660103406 24.472570469668042,17.854525330067755 17.915444142224167,7.688375152097146" style="fill:none;stroke:black;stroke-width:1"/>
<polygon points="19.27625454629649,21.626386993471026 21.70304175816713,18.562721660103406 17.915444142224167,7.688375152097146" style="fill:none;stroke:black;stroke-width:1"/>
<polygon points="25.55089890682452,19.813403029122178 23.576302195937025,23.358508398706082 17.915444142224167,7.688375152097146" style="fill:none;stroke:black;stroke-width:1"/>
<polygon points="23.576302195937025,23.358508398706082 12.221954563005553,24.341092980761783 17.915444142224167,7.688375152097146" style="fill:none;stroke:black;stroke-width:1"/>
<polygon points="22.945995129093436,9.89765307918926 25.50596968023291,12.953342709692294 19.155827996430105,9.193522691622524" style="fill:none;stroke:black;stroke-width:1"/>
<polygon points="25.50596968023291,12.953342709692294 26.26349121926865,16.431422356645857 19.155827996430105,9.193522691622524" style="fill:none;stroke:black;stroke-width:1"/>
<polygon points="23.174209662623003,26.086851576530435 25.89397184939144,23.171522831954867 19.155827996430105,9.193522691622524" style="fill:none;stroke:black;stroke-width:1"/>
<polygon points="25.89397184939144,23.171522831954867 27.37768944712074,19.389018878356268 19.155827996430105,9.193522691622524" style="fill:none;stroke:black;stroke-width:1"/>
<polygon points="19.31182065756668,8.119771571492022 22.945995129093436,9.89765307918926 19.155827996430105,9.193522691622524" style="fill:none;stroke:black;stroke-width:1"/>
<polygon points="27.37768944712074,19.389018878356268 19.31182065756668,8.119771571492022 19.155827996430105,9.193522691622524" style="fill:none;stroke:black;stroke-width:1"/>
<polygon points="11.140440413942121,8.126734379336563 10.992759510281413,8.011167274184752 18.948149044632945,5.264733256573146" style="fill:none;stroke:black;stroke-width:1"/>
<polygon points="11.456588475158071,8.633638736370655 11.379772367035335,8.44370758861577 18.948149044632945,5.264733256573146" style="fill:none;stroke:black;stroke-width:1"/>
<polygon points="11.379772367035335,8.44370758861577 11.456588475158071,8.633638736370655 10.875461904726015,9.624486809477112" style="fill:none;stroke:black;stroke-width:1"/>
<polygon points="11.474604929837602,9.034445856740799 10.936217609684252,9.590735646215446 10.875461904726015,9.624486809477112" style="fill:none;stroke:black;stroke-width:1"/>
<polygon points="10.936217609684252,9.590735646215446 11.474604929837602,9.034445856740799 11.028692980593988,9.541441884753981" style="fill:none;stroke:black;stroke-width:1"/>
<polygon points="10.936217609684252,9.590735646215446 11.028692980593988,9.541441884753981 17.858148101805988,7.410131860373751" style="fill:none;stroke:black;stroke-width:1"/>
<polygon points="10.936217609684252,9.590735646215446 17.858148101805988,7.410131860373751 16.824069630228205,7.5125126883837625" style="fill:none;stroke:black;stroke-width:1"/>
<polygon points="10.875461904726015,9.624486809477112 10.936217609684252,9.590735646215446 16.824069630228205,7.5125126883837625" style="fill:none;stroke:black;stroke-width:1"/>
<polygon points="10.06078530862024,8.002263474970546 10.241590826931946,9.964520710428319 9.955313925802876,8.061848683666117" style="fill:none;stroke:black;stroke-width:1"/>
<polygon points="10.241590826931946,9.964520710428319 10.100431620627358,10.010176069747047 9.955313925802876,8.061848683666117" style="fill:none;stroke:black;stroke-width:1"/>
<polygon points="9.247392543151243,8.509642999799762 9.373404198907142,8.423153667041937 9.545157666283625,10.039725227341322" style="fill:none;stroke:black;stroke-width:1"/>
<polygon points="9.746337442332187,10.049226060062047 9.373404198907142,8.423153667041937 9.496449923048889,8.341702836426535" style="fill:none;stroke:black;stroke-width:1"/>
<polygon points="9.373404198907142,8.423153667041937 9.746337442332187,10.049226060062047 9.545157666283625,10.039725227341322" style="fill:none;stroke:black;stroke-width:1"/>
<polygon points="9.496449923048889,8.341702836426535 9.373404198907142,8.423153667041937 18.928191551686282,4.174339301799045" style="fill:none;stroke:black;stroke-width:1"/>
<polygon points="9.373404198907142,8.423153667041937 9.247392543151243,8.509642999799762 18.928191551686282,4.174339301799045" style="fill:none;stroke:black;stroke-width:1"/>
<polygon points="8.67554264960918,9.537061615609314 8.776326939385767,9.717353252417755 15.99394311775632,4.943274060553547" style="fill:none;stroke:black;stroke-width:1"/>
<polygon points="8.635148688438417,9.334553959094617 8.67554264960918,9.537061615609314 15.99394311775632,4.943274060553547" style="fill:none;stroke:black;stroke-width:1"/>
<polygon points="8.67554264960918,9.537061615609314 8.635148688438417,9.334553959094617 8.776326939385767,9.717353252417755" style="fill:none;stroke:black;stroke-width:1"/>
<polygon points="8.929217642533057,9.861753266292073 9.125862068965517,9.956896551724139 16.824069630228205,7.5125126883837625" style="fill:none;stroke:black;stroke-width:1"/>
<polygon points="9.125862068965517,9.956896551724139 10.875461904726015,9.624486809477112 16.824069630228205,7.5125126883837625" style="fill:none;stroke:black;stroke-width:1"/>
<polygon points="9.125862068965517,9.956896551724139 8.929217642533057,9.861753266292073 8.733416377516857,8.955352790542571" style="fill:none;stroke:black;stroke-width:1"/>
<polygon points="9.125862068965517,9.956896551724139 10.241590826931946,9.964520710428319 10.875461904726015,9.624486809477112" style="fill:none;stroke:black;stroke-width:1"/>
<polygon points="10.241590826931946,9.964520710428319 9.125862068965517,9.956896551724139 10.100431620627358,10.010176069747047" style="fill:none;stroke:black;stroke-width:1"/>
<polygon points="8.635148688438417,9.334553959094617 8.656915480502342,9.134989001022793 8.776326939385767,9.717353252417755" style="fill:none;stroke:black;stroke-width:1"/>
<polygon points="8.656915480502342,9.134989001022793 8.929217642533057,9.861753266292073 8.776326939385767,9.717353252417755" style="fill:none;stroke:black;stroke-width:1"/>
<polygon points="8.929217642533057,9.861753266292073 8.656915480502342,9.134989001022793 8.733416377516857,8.955352790542571" style="fill:none;stroke:black;stroke-width:1"/>
<polygon points="8.656915480502342,9.134989001022793 8.635148688438417,9.334553959094617 17.775238562693346,4.235812865430441" style="fill:none;stroke:black;stroke-width:1"/>
<polygon points="16.922742693611397,4.404279625398536 8.656915480502342,9.134989001022793 17.775238562693346,4.235812865430441" style="fill:none;stroke:black;stroke-width:1"/>
<polygon points="8.733416377516857,8.955352790542571 8.656915480502342,9.134989001022793 16.922742693611397,4.404279625398536" style="fill:none;stroke:black;stroke-width:1"/>
<polygon points="19.017980435320602,20.827241133856297 14.988718882914956,20.824988418215042 18.906937629959238,7.641284300985589" style="fill:none;stroke:black;stroke-width:1"/>
<polygon points="20.546099986535587,14.433760614636693 15.118334420808184,26.23278315941771 18.906937629959238,7.641284300985589" style="fill:none;stroke:black;stroke-width:1"/>
<polygon points="15.118334420808184,26.23278315941771 11.322808126873102,24.70819874390007 18.906937629959238,7.641284300985589" style="fill:none;stroke:black;stroke-width:1"/>
<polygon points="21.252429190328165,22.576656377794244 21.416207906517666,22.654609639660176 17.34730503796174,10.871591606012583" style="fill:none;stroke:black;stroke-width:1"/>
<polygon points="21.007939941380926,22.322526393981466 21.11455811368059,22.46385144768434 17.34730503796174,10.871591606012583" style="fill:none;stroke:black;stroke-width:1"/>
<polygon points="21.11455811368059,22.46385144768434 21.252429190328165,22.576656377794244 17.34730503796174,10.871591606012583" style="fill:none;stroke:black;stroke-width:1"/>
<polygon points="21.252429190328165,22.576656377794244 21.11455811368059,22.46385144768434 20.97276009359623,21.632264672794992" style="fill:none;stroke:black;stroke-width:1"/>
<polygon points="20.924928731978884,21.801353706855995 16.742565620144646,9.635444201168278 20.97276009359623,21.632264672794992" style="fill:none;stroke:black;stroke-width:1"/>
<polygon points="20.924928731978884,21.801353706855995 20.9096078427649,21.981214545085535 16.742565620144646,9.635444201168278" style="fill:none;stroke:black;stroke-width:1"/>
<polygon points="20.9096078427649,21.981214545085535 20.924928731978884,21.801353706855995 21.007939941380926,22.322526393981466" style="fill:none;stroke:black;stroke-width:1"/>
<polygon points="21.11455811368059,22.46385144768434 20.924928731978884,21.801353706855995 20.97276009359623,21.632264672794992" style="fill:none;stroke:black;stroke-width:1"/>
<polygon points="20.924928731978884,21.801353706855995 21.11455811368059,22.46385144768434 21.007939941380926,22.322526393981466" style="fill:none;stroke:black;stroke-width:1"/>
<polygon points="20.937919938235126,22.159012761336648 21.007939941380926,22.322526393981466 16.742565620144646,9.635444201168278" style="fill:none;stroke:black;stroke-width:1"/>
<polygon points="20.9096078427649,21.981214545085535 20.937919938235126,22.159012761336648 16.742565620144646,9.635444201168278" style="fill:none;stroke:black;stroke-width:1"/>
<polygon points="20.937919938235126,22.159012761336648 20.9096078427649,21.981214545085535 21.007939941380926,22.322526393981466" style="fill:none;stroke:black;stroke-width:1"/>
<polygon points="21.89656432988179,20.134540059557352 22.765652622987645,21.96458582471883 21.78209161181665,20.24235136306401" style="fill:none;stroke:black;stroke-width:1"/>
<polygon points="22.03220087036236,20.042653119162775 21.89656432988179,20.134540059557352 7.051213998396529,12.409395361320772" style="fill:none;stroke:black;stroke-width:1"/>
<polygon points="22.839359237787953,21.84407360376437 21.89656432988179,20.134540059557352 22.03220087036236,20.042653119162775" style="fill:none;stroke:black;stroke-width:1"/>
<polygon points="22.765652622987645,21.96458582471883 21.89656432988179,20.134540059557352 22.839359237787953,21.84407360376437" style="fill:none;stroke:black;stroke-width:1"/>
<polygon points="22.98677246738857,21.60304916185545 22.35286078107511,19.917230805830876 23.060479082188877,21.482536940900985" style="fill:none;stroke:black;stroke-width:1"/>
<polygon points="22.18547507388469,19.96933516141053 22.35286078107511,19.917230805830876 22.98677246738857,21.60304916185545" style="fill:none;stroke:black;stroke-width:1"/>
<polygon points="6.357325245147738,20.491008067238436 22.35286078107511,19.917230805830876 5.939717532206957,16.343772380202157" style="fill:none;stroke:black;stroke-width:1"/>
<polygon points="22.35286078107511,19.917230805830876 22.18547507388469,19.96933516141053 5.939717532206957,16.343772380202157" style="fill:none;stroke:black;stroke-width:1"/>
<polygon points="8.256278343279691,24.06899960964332 11.306903803482276,26.692118269846873 22.892627963732366,19.915562946989446" style="fill:none;stroke:black;stroke-width:1"/>
<polygon points="11.306903803482276,26.692118269846873 15.186779864675152,28.038433921249286 22.892627963732366,19.915562946989446" style="fill:none;stroke:black;stroke-width:1"/>
<polygon points="23.05659811637046,19.99322210268661 19.479620751233043,27.81436484527036 23.174209662623003,26.086851576530435" style="fill:none;stroke:black;stroke-width:1"/>
<polygon points="15.186779864675152,28.038433921249286 19.479620751233043,27.81436484527036 23.05659811637046,19.99322210268661" style="fill:none;stroke:black;stroke-width:1"/>
<polygon points="21.89656432988179,20.134540059557352 9.456102848597384,9.264493286978752 7.051213998396529,12.409395361320772" style="fill:none;stroke:black;stroke-width:1"/>
<polygon points="9.456102848597384,9.264493286978752 21.89656432988179,20.134540059557352 21.78209161181665,20.24235136306401" style="fill:none;stroke:black;stroke-width:1"/>
<polygon points="21.69230887554061,20.36344241015249 9.456102848597384,9.264493286978752 21.78209161181665,20.24235136306401" style="fill:none;stroke:black;stroke-width:1"/>
<polygon points="12.894325522169174,7.230004082607153 9.456102848597384,9.264493286978752 21.69230887554061,20.36344241015249" style="fill:none;stroke:black;stroke-width:1"/>
<polygon points="22.279589833000365,22.5309112168015 22.12737059179057,22.6050379101236 21.397450202965807,20.845578659253363" style="fill:none;stroke:black;stroke-width:1"/>
<polygon points="21.47115681776612,20.725066438298903 22.279589833000365,22.5309112168015 21.397450202965807,20.845578659253363" style="fill:none;stroke:black;stroke-width:1"/>
<polygon points="22.279589833000365,22.5309112168015 21.47115681776612,20.725066438298903 22.414285676264946,22.437895666708936" style="fill:none;stroke:black;stroke-width:1"/>
<polygon points="22.279589833000365,22.5309112168015 22.414285676264946,22.437895666708936 18.49174512050684,11.256280543852984" style="fill:none;stroke:black;stroke-width:1"/>
<polygon points="22.12737059179057,22.6050379101236 22.279589833000365,22.5309112168015 18.49174512050684,11.256280543852984" style="fill:none;stroke:black;stroke-width:1"/>
<polygon points="13.125403768548782,23.63216007572334 16.911770932065593,7.76031173272798 16.536939025076226,7.493195671104579" style="fill:none;stroke:black;stroke-width:1"/>
<polygon points="13.09495182357563,23.715563875366552 13.125403768548782,23.63216007572334 16.536939025076226,7.493195671104579" style="fill:none;stroke:black;stroke-width:1"/>
<polygon points="11.441278737233922,23.694221589441554 11.367154151190036,23.73703694313415 16.742565620144646,9.635444201168278" style="fill:none;stroke:black;stroke-width:1"/>
<polygon points="10.838985848375902,7.928695500543488 10.68437208424339,7.8775128853725755 18.948149044632945,5.264733256573146" style="fill:none;stroke:black;stroke-width:1"/>
<polygon points="10.992759510281413,8.011167274184752 10.838985848375902,7.928695500543488 18.948149044632945,5.264733256573146" style="fill:none;stroke:black;stroke-width:1"/>
<polygon points="11.273654315016366,8.27312411706054 11.140440413942121,8.126734379336563 18.948149044632945,5.264733256573146" style="fill:none;stroke:black;stroke-width:1"/>
<polygon points="11.379772367035335,8.44370758861577 11.273654315016366,8.27312411706054 18.948149044632945,5.264733256573146" style="fill:none;stroke:black;stroke-width:1"/>
<polygon points="10.162192886522,7.946386012900484 10.352084191966954,9.90671475089405 10.06078530862024,8.002263474970546" style="fill:none;stroke:black;stroke-width:1"/>
<polygon points="10.352084191966954,9.90671475089405 10.241590826931946,9.964520710428319 10.06078530862024,8.002263474970546" style="fill:none;stroke:black;stroke-width:1"/>
<polygon points="10.352084191966954,9.90671475089405 10.162192886522,7.946386012900484 10.26801918398731,7.8936382298764025" style="fill:none;stroke:black;stroke-width:1"/>
<polygon points="10.241590826931946,9.964520710428319 10.352084191966954,9.90671475089405 10.875461904726015,9.624486809477112" style="fill:none;stroke:black;stroke-width:1"/>
<polygon points="9.337060103425191,10.008427922353134 9.247392543151243,8.509642999799762 9.545157666283625,10.039725227341322" style="fill:none;stroke:black;stroke-width:1"/>
<polygon points="9.247392543151243,8.509642999799762 9.337060103425191,10.008427922353134 9.118597934664773,8.601392627286165" style="fill:none;stroke:black;stroke-width:1"/>
<polygon points="9.933387959770435,10.038893763577788 9.337060103425191,10.008427922353134 9.545157666283625,10.039725227341322" style="fill:none;stroke:black;stroke-width:1"/>
<polygon points="10.100431620627358,10.010176069747047 9.337060103425191,10.008427922353134 9.933387959770435,10.038893763577788" style="fill:none;stroke:black;stroke-width:1"/>
<polygon points="9.125862068965517,9.956896551724139 9.337060103425191,10.008427922353134 10.100431620627358,10.010176069747047" style="fill:none;stroke:black;stroke-width:1"/>
<polygon points="9.118597934664773,8.601392627286165 8.987203352331303,8.698624342087298 16.922742693611397,4.404279625398536" style="fill:none;stroke:black;stroke-width:1"/>
<polygon points="9.337060103425191,10.008427922353134 8.987203352331303,8.698624342087298 9.118597934664773,8.601392627286165" style="fill:none;stroke:black;stroke-width:1"/>
<polygon points="8.987203352331303,8.698624342087298 9.337060103425191,10.008427922353134 9.125862068965517,9.956896551724139" style="fill:none;stroke:black;stroke-width:1"/>
<polygon points="13.73736086750393,7.949439001065116 21.374941229981456,17.73466837135715 18.906937629959238,7.641284300985589" style="fill:none;stroke:black;stroke-width:1"/>
<polygon points="21.374941229981456,17.73466837135715 19.017980435320602,20.827241133856297 18.906937629959238,7.641284300985589" style="fill:none;stroke:black;stroke-width:1"/>
<polygon points="17.245624240581922,12.395485757499102 20.546099986535587,14.433760614636693 18.906937629959238,7.641284300985589" style="fill:none;stroke:black;stroke-width:1"/>
<polygon points="13.602562774923221,13.85496310795021 17.245624240581922,12.395485757499102 18.906937629959238,7.641284300985589" style="fill:none;stroke:black;stroke-width:1"/>
<polygon points="14.988718882914956,20.824988418215042 12.581767052522586,17.69375001875366 18.906937629959238,7.641284300985589" style="fill:none;stroke:black;stroke-width:1"/>
<polygon points="12.581767052522586,17.69375001875366 13.602562774923221,13.85496310795021 18.906937629959238,7.641284300985589" style="fill:none;stroke:black;stroke-width:1"/>
<polygon points="10.18881724673713,17.477268578399777 12.041055983879772,20.00648607861224 17.70945590897015,7.39146418580381" style="fill:none;stroke:black;stroke-width:1"/>
<polygon points="7.125302692188685,18.009335805649062 10.18881724673713,17.477268578399777 17.70945590897015,7.39146418580381" style="fill:none;stroke:black;stroke-width:1"/>
<polygon points="11.322808126873102,24.70819874390007 8.525022240153978,21.833521321000614 17.70945590897015,7.39146418580381" style="fill:none;stroke:black;stroke-width:1"/>
<polygon points="8.525022240153978,21.833521321000614 7.125302692188685,18.009335805649062 17.70945590897015,7.39146418580381" style="fill:none;stroke:black;stroke-width:1"/>
<polygon points="21.78323218242945,22.6862059389707 21.60068003988633,22.690689655172413 21.176330358564883,21.20711532211675" style="fill:none;stroke:black;stroke-width:1"/>
<polygon points="21.60068003988633,22.690689655172413 21.101890184983468,21.332876631298873 21.176330358564883,21.20711532211675" style="fill:none;stroke:black;stroke-width:1"/>
<polygon points="21.60068003988633,22.690689655172413 21.78323218242945,22.6862059389707 17.34730503796174,10.871591606012583" style="fill:none;stroke:black;stroke-width:1"/>
<polygon points="21.416207906517666,22.654609639660176 21.60068003988633,22.690689655172413 17.34730503796174,10.871591606012583" style="fill:none;stroke:black;stroke-width:1"/>
<polygon points="21.60068003988633,22.690689655172413 21.416207906517666,22.654609639660176 21.252429190328165,22.576656377794244" style="fill:none;stroke:black;stroke-width:1"/>
<polygon points="22.35286078107511,19.917230805830876 22.53083183255994,19.888984671954063 23.060479082188877,21.482536940900985" style="fill:none;stroke:black;stroke-width:1"/>
<polygon points="23.134185696989185,21.362024719946525 22.53083183255994,19.888984671954063 22.715862068965517,19.887241379310346" style="fill:none;stroke:black;stroke-width:1"/>
<polygon points="22.53083183255994,19.888984671954063 23.134185696989185,21.362024719946525 23.060479082188877,21.482536940900985" style="fill:none;stroke:black;stroke-width:1"/>
<polygon points="22.53083183255994,19.888984671954063 6.357325245147738,20.491008067238436 22.715862068965517,19.887241379310346" style="fill:none;stroke:black;stroke-width:1"/>
<polygon points="22.53083183255994,19.888984671954063 22.35286078107511,19.917230805830876 6.357325245147738,20.491008067238436" style="fill:none;stroke:black;stroke-width:1"/>
<polygon points="13.047072795583066,23.78722076540589 13.09495182357563,23.715563875366552 16.536939025076226,7.493195671104579" style="fill:none;stroke:black;stroke-width:1"/>
<polygon points="17.915444142224167,7.688375152097146 12.835492944887692,23.926719670949062 16.536939025076226,7.493195671104579" style="fill:none;stroke:black;stroke-width:1"/>
<polygon points="12.835492944887692,23.926719670949062 12.909617530931579,23.883904317256473 16.536939025076226,7.493195671104579" style="fill:none;stroke:black;stroke-width:1"/>
<polygon points="12.963022927678706,23.172708684191093 12.866669223421578,23.11062989663704 16.911770932065593,7.76031173272798" style="fill:none;stroke:black;stroke-width:1"/>
<polygon points="12.866669223421578,23.11062989663704 12.75735478355265,23.069110077531192 16.911770932065593,7.76031173272798" style="fill:none;stroke:black;stroke-width:1"/>
<polygon points="12.63925073434509,23.04976348289822 12.516453047671927,23.054163052281684 16.911770932065593,7.76031173272798" style="fill:none;stroke:black;stroke-width:1"/>
<polygon points="12.75735478355265,23.069110077531192 12.63925073434509,23.04976348289822 16.911770932065593,7.76031173272798" style="fill:none;stroke:black;stroke-width:1"/>
<polygon points="11.597072701113637,23.59415816411431 11.517718769407534,23.64648566225418 16.742565620144646,9.635444201168278" style="fill:none;stroke:black;stroke-width:1"/>
<polygon points="11.517718769407534,23.64648566225418 11.441278737233922,23.694221589441554 16.742565620144646,9.635444201168278" style="fill:none;stroke:black;stroke-width:1"/>
<polygon points="21.60068003988633,22.690689655172413 21.032802581929,21.475343953178765 21.101890184983468,21.332876631298873" style="fill:none;stroke:black;stroke-width:1"/>
<polygon points="21.032802581929,21.475343953178765 21.252429190328165,22.576656377794244 20.97276009359623,21.632264672794992" style="fill:none;stroke:black;stroke-width:1"/>
<polygon points="21.032802581929,21.475343953178765 21.60068003988633,22.690689655172413 21.252429190328165,22.576656377794244" style="fill:none;stroke:black;stroke-width:1"/>
<polygon points="11.367154151190036,23.73703694313415 11.29353339477829,23.77785365456573 20.97276009359623,21.632264672794992" style="fill:none;stroke:black;stroke-width:1"/>
<polygon points="11.29353339477829,23.77785365456573 21.032802581929,21.475343953178765 20.97276009359623,21.632264672794992" style="fill:none;stroke:black;stroke-width:1"/>
<polygon points="21.032802581929,21.475343953178765 11.29353339477829,23.77785365456573 11.230036601508504,23.834501076952584" style="fill:none;stroke:black;stroke-width:1"/>
<polygon points="11.15083937808237,24.178150175091446 21.25003697336519,21.08660310116229 21.176330358564883,21.20711532211675" style="fill:none;stroke:black;stroke-width:1"/>
<polygon points="10.393635851498749,7.8617904261195894 10.448761020052526,9.854707848222727 10.26801918398731,7.8936382298764025" style="fill:none;stroke:black;stroke-width:1"/>
<polygon points="10.448761020052526,9.854707848222727 10.352084191966954,9.90671475089405 10.26801918398731,7.8936382298764025" style="fill:none;stroke:black;stroke-width:1"/>
<polygon points="10.352084191966954,9.90671475089405 10.448761020052526,9.854707848222727 10.875461904726015,9.624486809477112" style="fill:none;stroke:black;stroke-width:1"/>
<polygon points="8.854479581004432,8.80776344562217 9.125862068965517,9.956896551724139 8.733416377516857,8.955352790542571" style="fill:none;stroke:black;stroke-width:1"/>
<polygon points="8.854479581004432,8.80776344562217 8.987203352331303,8.698624342087298 9.125862068965517,9.956896551724139" style="fill:none;stroke:black;stroke-width:1"/>
<polygon points="8.854479581004432,8.80776344562217 8.733416377516857,8.955352790542571 16.922742693611397,4.404279625398536" style="fill:none;stroke:black;stroke-width:1"/>
<polygon points="8.987203352331303,8.698624342087298 8.854479581004432,8.80776344562217 16.922742693611397,4.404279625398536" style="fill:none;stroke:black;stroke-width:1"/>
<polygon points="12.909617530931579,23.883904317256473 12.983253347318138,23.843362511194552 16.536939025076226,7.493195671104579" style="fill:none;stroke:black;stroke-width:1"/>
<polygon points="12.983253347318138,23.843362511194552 13.047072795583066,23.78722076540589 16.536939025076226,7.493195671104579" style="fill:none;stroke:black;stroke-width:1"/>
<polygon points="12.75905291271408,23.97445559813644 17.915444142224167,7.688375152097146 12.679698981007977,24.026783096276308" style="fill:none;stroke:black;stroke-width:1"/>
<polygon points="12.75905291271408,23.97445559813644 12.835492944887692,23.926719670949062 17.915444142224167,7.688375152097146" style="fill:none;stroke:black;stroke-width:1"/>
<polygon points="13.042175386593783,23.253681774136382 12.963022927678706,23.172708684191093 16.911770932065593,7.76031173272798" style="fill:none;stroke:black;stroke-width:1"/>
<polygon points="13.097185843646226,23.34787509182136 13.042175386593783,23.253681774136382 16.911770932065593,7.76031173272798" style="fill:none;stroke:black;stroke-width:1"/>
<polygon points="13.12804214779662,23.44475806888999 13.097185843646226,23.34787509182136 16.911770932065593,7.76031173272798" style="fill:none;stroke:black;stroke-width:1"/>
<polygon points="11.766677593806232,23.477400193686005 11.679893031818695,23.537640509381042 16.668122765600483,8.633303517768594" style="fill:none;stroke:black;stroke-width:1"/>
<polygon points="11.85786170106433,23.41396342124802 11.766677593806232,23.477400193686005 16.668122765600483,8.633303517768594" style="fill:none;stroke:black;stroke-width:1"/>
<polygon points="12.054817119116063,23.279848279628837 11.953811284123987,23.34790680631822 16.668122765600483,8.633303517768594" style="fill:none;stroke:black;stroke-width:1"/>
<polygon points="11.953811284123987,23.34790680631822 11.85786170106433,23.41396342124802 16.668122765600483,8.633303517768594" style="fill:none;stroke:black;stroke-width:1"/>
<polygon points="12.516453047671927,23.054163052281684 12.392977955292746,23.083850153880803 16.668122765600483,8.633303517768594" style="fill:none;stroke:black;stroke-width:1"/>
<polygon points="12.392977955292746,23.083850153880803 12.272758620689654,23.140344827586205 16.668122765600483,8.633303517768594" style="fill:none;stroke:black;stroke-width:1"/>
<polygon points="12.161090242057977,23.210437343256444 12.054817119116063,23.279848279628837 16.668122765600483,8.633303517768594" style="fill:none;stroke:black;stroke-width:1"/>
<polygon points="12.272758620689654,23.140344827586205 12.161090242057977,23.210437343256444 16.668122765600483,8.633303517768594" style="fill:none;stroke:black;stroke-width:1"/>
<polygon points="21.101890184983468,21.332876631298873 11.141429684688205,24.08204508160454 21.176330358564883,21.20711532211675" style="fill:none;stroke:black;stroke-width:1"/>
<polygon points="11.141429684688205,24.08204508160454 11.15083937808237,24.178150175091446 21.176330358564883,21.20711532211675" style="fill:none;stroke:black;stroke-width:1"/>
<polygon points="21.25003697336519,21.08660310116229 11.182259091631332,24.27512067637336 21.3237435881655,20.96609088020783" style="fill:none;stroke:black;stroke-width:1"/>
<polygon points="11.15083937808237,24.178150175091446 11.182259091631332,24.27512067637336 21.25003697336519,21.08660310116229" style="fill:none;stroke:black;stroke-width:1"/>
<polygon points="21.3237435881655,20.96609088020783 11.182259091631332,24.27512067637336 21.397450202965807,20.845578659253363" style="fill:none;stroke:black;stroke-width:1"/>
<polygon points="10.538805059092901,9.807405182101991 10.393635851498749,7.8617904261195894 10.534171118434223,7.855813252591462" style="fill:none;stroke:black;stroke-width:1"/>
<polygon points="10.538805059092901,9.807405182101991 10.448761020052526,9.854707848222727 10.393635851498749,7.8617904261195894" style="fill:none;stroke:black;stroke-width:1"/>
<polygon points="10.538805059092901,9.807405182101991 10.534171118434223,7.855813252591462 10.68437208424339,7.8775128853725755" style="fill:none;stroke:black;stroke-width:1"/>
<polygon points="10.448761020052526,9.854707848222727 10.538805059092901,9.807405182101991 10.875461904726015,9.624486809477112" style="fill:none;stroke:black;stroke-width:1"/>
<polygon points="13.125403768548782,23.63216007572334 13.136936582672899,23.540692007686623 16.911770932065593,7.76031173272798" style="fill:none;stroke:black;stroke-width:1"/>
<polygon points="13.136936582672899,23.540692007686623 13.12804214779662,23.44475806888999 16.911770932065593,7.76031173272798" style="fill:none;stroke:black;stroke-width:1"/>
<polygon points="21.032802581929,21.475343953178765 11.182528379391767,23.906580013113132 21.101890184983468,21.332876631298873" style="fill:none;stroke:black;stroke-width:1"/>
<polygon points="11.182528379391767,23.906580013113132 21.032802581929,21.475343953178765 11.230036601508504,23.834501076952584" style="fill:none;stroke:black;stroke-width:1"/>
<polygon points="11.237430914406566,24.369778254447713 21.47115681776612,20.725066438298903 21.397450202965807,20.845578659253363" style="fill:none;stroke:black;stroke-width:1"/>
<polygon points="11.182259091631332,24.27512067637336 11.237430914406566,24.369778254447713 21.397450202965807,20.845578659253363" style="fill:none;stroke:black;stroke-width:1"/>
<polygon points="21.47115681776612,20.725066438298903 11.237430914406566,24.369778254447713 21.544863432566423,20.604554217344443" style="fill:none;stroke:black;stroke-width:1"/>
<polygon points="10.838985848375902,7.928695500543488 10.621814265834052,9.764321935666702 10.68437208424339,7.8775128853725755" style="fill:none;stroke:black;stroke-width:1"/>
<polygon points="10.621814265834052,9.764321935666702 10.538805059092901,9.807405182101991 10.68437208424339,7.8775128853725755" style="fill:none;stroke:black;stroke-width:1"/>
<polygon points="10.538805059092901,9.807405182101991 10.621814265834052,9.764321935666702 10.875461904726015,9.624486809477112" style="fill:none;stroke:black;stroke-width:1"/>
<polygon points="11.152495391175128,23.99032222840058 11.141429684688205,24.08204508160454 21.101890184983468,21.332876631298873" style="fill:none;stroke:black;stroke-width:1"/>
<polygon points="11.182528379391767,23.906580013113132 11.152495391175128,23.99032222840058 21.101890184983468,21.332876631298873" style="fill:none;stroke:black;stroke-width:1"/>
<polygon points="11.315173269506209,24.45193385064139 21.69230887554061,20.36344241015249 21.61857004736673,20.484041996389983" style="fill:none;stroke:black;stroke-width:1"/>
<polygon points="21.69230887554061,20.36344241015249 11.315173269506209,24.45193385064139 11.410373300707093,24.5143387824785" style="fill:none;stroke:black;stroke-width:1"/>
<polygon points="21.544863432566423,20.604554217344443 11.315173269506209,24.45193385064139 21.61857004736673,20.484041996389983" style="fill:none;stroke:black;stroke-width:1"/>
<polygon points="11.237430914406566,24.369778254447713 11.315173269506209,24.45193385064139 21.544863432566423,20.604554217344443" style="fill:none;stroke:black;stroke-width:1"/>
<polygon points="10.69738659702196,9.724973292051715 10.838985848375902,7.928695500543488 10.992759510281413,8.011167274184752" style="fill:none;stroke:black;stroke-width:1"/>
<polygon points="10.69738659702196,9.724973292051715 10.621814265834052,9.764321935666702 10.838985848375902,7.928695500543488" style="fill:none;stroke:black;stroke-width:1"/>
<polygon points="10.69738659702196,9.724973292051715 10.992759510281413,8.011167274184752 11.140440413942121,8.126734379336563" style="fill:none;stroke:black;stroke-width:1"/>
<polygon points="10.621814265834052,9.764321935666702 10.824612459721966,9.655540545822063 10.875461904726015,9.624486809477112" style="fill:none;stroke:black;stroke-width:1"/>
<polygon points="10.69738659702196,9.724973292051715 10.824612459721966,9.655540545822063 10.621814265834052,9.764321935666702" style="fill:none;stroke:black;stroke-width:1"/>
<polygon points="10.824612459721966,9.655540545822063 11.379772367035335,8.44370758861577 10.875461904726015,9.624486809477112" style="fill:none;stroke:black;stroke-width:1"/>
<polygon points="10.824612459721966,9.655540545822063 11.273654315016366,8.27312411706054 11.379772367035335,8.44370758861577" style="fill:none;stroke:black;stroke-width:1"/>
<polygon points="11.273654315016366,8.27312411706054 10.765120009402608,9.688874434391881 11.140440413942121,8.126734379336563" style="fill:none;stroke:black;stroke-width:1"/>
<polygon points="10.824612459721966,9.655540545822063 10.765120009402608,9.688874434391881 11.273654315016366,8.27312411706054" style="fill:none;stroke:black;stroke-width:1"/>
<polygon points="10.765120009402608,9.688874434391881 10.69738659702196,9.724973292051715 11.140440413942121,8.126734379336563" style="fill:none;stroke:black;stroke-width:1"/>
<polygon points="10.765120009402608,9.688874434391881 10.824612459721966,9.655540545822063 10.69738659702196,9.724973292051715" style="fill:none;stroke:black;stroke-width:1"/>
<polygon points="12.221954563005553,24.341092980761783 23.576302195937025,23.358508398706082 12.11568144006364,24.410503917134175" style="fill:none;stroke:black;stroke-width:1"/>
<polygon points="12.11568144006364,24.410503917134175 23.576302195937025,23.358508398706082 20.371058483031632,25.790929817320666" style="fill:none;stroke:black;stroke-width:1"/>
<polygon points="11.760359235850398,24.56855672077106 24.225643596294027,9.943569884227642 21.027356873125626,7.61586809625701" style="fill:none;stroke:black;stroke-width:1"/>
<polygon points="11.760359235850398,24.56855672077106 21.027356873125626,7.61586809625701 11.636930613551563,24.574052732039448" style="fill:none;stroke:black;stroke-width:1"/>
<polygon points="26.346014870175857,13.288445585134875 11.760359235850398,24.56855672077106 11.885543938719476,24.53770038491796" style="fill:none;stroke:black;stroke-width:1"/>
<polygon points="11.760359235850398,24.56855672077106 26.346014870175857,13.288445585134875 24.225643596294027,9.943569884227642" style="fill:none;stroke:black;stroke-width:1"/>
<polygon points="17.07348623823304,6.626603326762211 11.518959717679694,24.555519467190077 11.636930613551563,24.574052732039448" style="fill:none;stroke:black;stroke-width:1"/>
<polygon points="21.027356873125626,7.61586809625701 17.07348623823304,6.626603326762211 11.636930613551563,24.574052732039448" style="fill:none;stroke:black;stroke-width:1"/>
<polygon points="11.518959717679694,24.555519467190077 17.07348623823304,6.626603326762211 11.410373300707093,24.5143387824785" style="fill:none;stroke:black;stroke-width:1"/>
<polygon points="17.07348623823304,6.626603326762211 12.894325522169174,7.230004082607153 11.410373300707093,24.5143387824785" style="fill:none;stroke:black;stroke-width:1"/>
<polygon points="19.479620751233043,27.81436484527036 27.061034482758622,17.318275862068965 23.174209662623003,26.086851576530435" style="fill:none;stroke:black;stroke-width:1"/>
<polygon points="27.061034482758622,17.318275862068965 5.939717532206957,16.343772380202157 7.051213998396529,12.409395361320772" style="fill:none;stroke:black;stroke-width:1"/>
<polygon points="21.70304175816713,18.562721660103406 27.061034482758622,17.318275862068965 24.472570469668042,17.854525330067755" style="fill:none;stroke:black;stroke-width:1"/>
<polygon points="27.061034482758622,17.318275862068965 6.357325245147738,20.491008067238436 5.939717532206957,16.343772380202157" style="fill:none;stroke:black;stroke-width:1"/>
<polygon points="27.061034482758622,17.318275862068965 21.101866160554977,13.494618270074067 23.015064445804725,17.020151621340403" style="fill:none;stroke:black;stroke-width:1"/>
<polygon points="27.061034482758622,17.318275862068965 25.50596968023291,12.953342709692294 22.945995129093436,9.89765307918926" style="fill:none;stroke:black;stroke-width:1"/>
<polygon points="27.061034482758622,17.318275862068965 13.73736086750393,7.949439001065116 10.371903379469394,10.131076898703753" style="fill:none;stroke:black;stroke-width:1"/>
<polygon points="19.31182065756668,8.119771571492022 27.061034482758622,17.318275862068965 22.945995129093436,9.89765307918926" style="fill:none;stroke:black;stroke-width:1"/>
<polygon points="27.061034482758622,17.318275862068965 17.07348623823304,6.626603326762211 21.027356873125626,7.61586809625701" style="fill:none;stroke:black;stroke-width:1"/>
<polygon points="26.26349121926865,16.431422356645857 27.061034482758622,17.318275862068965 23.015064445804725,17.020151621340403" style="fill:none;stroke:black;stroke-width:1"/>
<polygon points="17.53133808731413,11.708795361701153 27.061034482758622,17.318275862068965 13.677099490912724,12.838895697096653" style="fill:none;stroke:black;stroke-width:1"/>
<polygon points="8.169471627719867,13.501209854656635 27.061034482758622,17.318275862068965 10.371903379469394,10.131076898703753" style="fill:none;stroke:black;stroke-width:1"/>
<polygon points="27.061034482758622,17.318275862068965 11.657028251476785,16.213650696549806 13.677099490912724,12.838895697096653" style="fill:none;stroke:black;stroke-width:1"/>
<polygon points="27.061034482758622,17.318275862068965 15.118334420808184,26.23278315941771 20.546099986535587,14.433760614636693" style="fill:none;stroke:black;stroke-width:1"/>
<polygon points="27.061034482758622,17.318275862068965 11.306903803482276,26.692118269846873 8.256278343279691,24.06899960964332" style="fill:none;stroke:black;stroke-width:1"/>
<polygon points="27.061034482758622,17.318275862068965 15.292110007314992,22.233517505921675 12.041055983879772,20.00648607861224" style="fill:none;stroke:black;stroke-width:1"/>
<polygon points="27.061034482758622,17.318275862068965 25.55089890682452,19.813403029122178 24.472570469668042,17.854525330067755" style="fill:none;stroke:black;stroke-width:1"/>
<polygon points="23.576302195937025,23.358508398706082 27.061034482758622,17.318275862068965 20.371058483031632,25.790929817320666" style="fill:none;stroke:black;stroke-width:1"/>
<polygon points="27.061034482758622,17.318275862068965 25.89397184939144,23.171522831954867 23.174209662623003,26.086851576530435" style="fill:none;stroke:black;stroke-width:1"/>
<polygon points="21.101866160554977,13.494618270074067 27.061034482758622,17.318275862068965 17.53133808731413,11.708795361701153" style="fill:none;stroke:black;stroke-width:1"/>
<polygon points="27.061034482758622,17.318275862068965 8.169471627719867,13.501209854656635 8.280142420820555,16.482286631931853" style="fill:none;stroke:black;stroke-width:1"/>
<polygon points="11.657028251476785,16.213650696549806 27.061034482758622,17.318275862068965 8.280142420820555,16.482286631931853" style="fill:none;stroke:black;stroke-width:1"/>
<polygon points="9.456102848597384,9.264493286978752 27.061034482758622,17.318275862068965 7.051213998396529,12.409395361320772" style="fill:none;stroke:black;stroke-width:1"/>
<polygon points="27.061034482758622,17.318275862068965 21.374941229981456,17.73466837135715 13.73736086750393,7.949439001065116" style="fill:none;stroke:black;stroke-width:1"/>
<polygon points="6.357325245147738,20.491008067238436 27.061034482758622,17.318275862068965 8.256278343279691,24.06899960964332" style="fill:none;stroke:black;stroke-width:1"/>
<polygon points="27.061034482758622,17.318275862068965 12.581767052522586,17.69375001875366 14.988718882914956,20.824988418215042" style="fill:none;stroke:black;stroke-width:1"/>
<polygon points="24.225643596294027,9.943569884227642 27.061034482758622,17.318275862068965 21.027356873125626,7.61586809625701" style="fill:none;stroke:black;stroke-width:1"/>
<polygon points="26.346014870175857,13.288445585134875 27.061034482758622,17.318275862068965 24.225643596294027,9.943569884227642" style="fill:none;stroke:black;stroke-width:1"/>
<polygon points="15.292110007314992,22.233517505921675 27.061034482758622,17.318275862068965 19.27625454629649,21.626386993471026" style="fill:none;stroke:black;stroke-width:1"/>
<polygon points="27.061034482758622,17.318275862068965 21.70304175816713,18.562721660103406 19.27625454629649,21.626386993471026" style="fill:none;stroke:black;stroke-width:1"/>
<polygon points="27.061034482758622,17.318275862068965 23.576302195937025,23.358508398706082 25.55089890682452,19.813403029122178" style="fill:none;stroke:black;stroke-width:1"/>
<polygon points="25.50596968023291,12.953342709692294 27.061034482758622,17.318275862068965 26.26349121926865,16.431422356645857" style="fill:none;stroke:black;stroke-width:1"/>
<polygon points="25.89397184939144,23.171522831954867 27.061034482758622,17.318275862068965 27.37768944712074,19.389018878356268" style="fill:none;stroke:black;stroke-width:1"/>
<polygon points="27.061034482758622,17.318275862068965 19.31182065756668,8.119771571492022 27.37768944712074,19.389018878356268" style="fill:none;stroke:black;stroke-width:1"/>
<polygon points="19.017980435320602,20.827241133856297 27.061034482758622,17.318275862068965 14.988718882914956,20.824988418215042" style="fill:none;stroke:black;stroke-width:1"/>
<polygon points="17.245624240581922,12.395485757499102 27.061034482758622,17.318275862068965 20.546099986535587,14.433760614636693" style="fill:none;stroke:black;stroke-width:1"/>
<polygon points="15.118334420808184,26.23278315941771 27.061034482758622,17.318275862068965 11.322808126873102,24.70819874390007" style="fill:none;stroke:black;stroke-width:1"/>
<polygon points="10.18881724673713,17.477268578399777 27.061034482758622,17.318275862068965 12.041055983879772,20.00648607861224" style="fill:none;stroke:black;stroke-width:1"/>
<polygon points="11.306903803482276,26.692118269846873 27.061034482758622,17.318275862068965 15.186779864675152,28.038433921249286" style="fill:none;stroke:black;stroke-width:1"/>
<polygon points="27.061034482758622,17.318275862068965 19.479620751233043,27.81436484527036 15.186779864675152,28.038433921249286" style="fill:none;stroke:black;stroke-width:1"/>
<polygon points="27.061034482758622,17.318275862068965 8.525022240153978,21.833521321000614 11.322808126873102,24.70819874390007" style="fill:none;stroke:black;stroke-width:1"/>
<polygon points="17.07348623823304,6.626603326762211 27.061034482758622,17.318275862068965 12.894325522169174,7.230004082607153" style="fill:none;stroke:black;stroke-width:1"/>
<polygon points="27.061034482758622,17.318275862068965 9.456102848597384,9.264493286978752 12.894325522169174,7.230004082607153" style="fill:none;stroke:black;stroke-width:1"/>
<polygon points="21.374941229981456,17.73466837135715 27.061034482758622,17.318275862068965 19.017980435320602,20.827241133856297" style="fill:none;stroke:black;stroke-width:1"/>
<polygon points="27.061034482758622,17.318275862068965 17.245624240581922,12.395485757499102 13.602562774923221,13.85496310795021" style="fill:none;stroke:black;stroke-width:1"/>
<polygon points="12.581767052522586,17.69375001875366 27.061034482758622,17.318275862068965 13.602562774923221,13.85496310795021" style="fill:none;stroke:black;stroke-width:1"/>
<polygon points="27.061034482758622,17.318275862068965 10.18881724673713,17.477268578399777 7.125302692188685,18.009335805649062" style="fill:none;stroke:black;stroke-width:1"/>
<polygon points="8.525022240153978,21.833521321000614 27.061034482758622,17.318275862068965 7.125302692188685,18.009335805649062" style="fill:none;stroke:black;stroke-width:1"/>
<polygon points="27.061034482758622,17.318275862068965 12.004271074097922,24.480889623540165 12.11568144006364,24.410503917134175" style="fill:none;stroke:black;stroke-width:1"/>
<polygon points="27.061034482758622,17.318275862068965 12.11568144006364,24.410503917134175 20.371058483031632,25.790929817320666" style="fill:none;stroke:black;stroke-width:1"/>
<polygon points="12.004271074097922,24.480889623540165 27.061034482758622,17.318275862068965 11.885543938719476,24.53770038491796" style="fill:none;stroke:black;stroke-width:1"/>
<polygon points="27.061034482758622,17.318275862068965 26.346014870175857,13.288445585134875 11.885543938719476,24.53770038491796" style="fill:none;stroke:black;stroke-width:1"/>
<polygon points="11.315173269506209,24.45193385064139 12.679698981007977,24.026783096276308 12.596878650302916,24.083300751009578" style="fill:none;stroke:black;stroke-width:1"/>
<polygon points="12.51009408831538,24.143541066704618 11.315173269506209,24.45193385064139 12.596878650302916,24.083300751009578" style="fill:none;stroke:black;stroke-width:1"/>
<polygon points="11.315173269506209,24.45193385064139 11.953811284123987,23.34790680631822 12.054817119116063,23.279848279628837" style="fill:none;stroke:black;stroke-width:1"/>
<polygon points="11.315173269506209,24.45193385064139 11.518959717679694,24.555519467190077 11.410373300707093,24.5143387824785" style="fill:none;stroke:black;stroke-width:1"/>
<polygon points="11.315173269506209,24.45193385064139 12.418909981057284,24.206977839142596 12.322960397997626,24.2730344540724" style="fill:none;stroke:black;stroke-width:1"/>
<polygon points="12.221954563005553,24.341092980761783 11.315173269506209,24.45193385064139 12.322960397997626,24.2730344540724" style="fill:none;stroke:black;stroke-width:1"/>
<polygon points="11.315173269506209,24.45193385064139 12.75905291271408,23.97445559813644 12.679698981007977,24.026783096276308" style="fill:none;stroke:black;stroke-width:1"/>
<polygon points="11.315173269506209,24.45193385064139 12.004271074097922,24.480889623540165 11.885543938719476,24.53770038491796" style="fill:none;stroke:black;stroke-width:1"/>
<polygon points="11.518959717679694,24.555519467190077 11.315173269506209,24.45193385064139 11.636930613551563,24.574052732039448" style="fill:none;stroke:black;stroke-width:1"/>
<polygon points="11.760359235850398,24.56855672077106 11.315173269506209,24.45193385064139 11.885543938719476,24.53770038491796" style="fill:none;stroke:black;stroke-width:1"/>
<polygon points="11.315173269506209,24.45193385064139 11.597072701113637,23.59415816411431 11.679893031818695,23.537640509381042" style="fill:none;stroke:black;stroke-width:1"/>
<polygon points="12.418909981057284,24.206977839142596 11.315173269506209,24.45193385064139 12.51009408831538,24.143541066704618" style="fill:none;stroke:black;stroke-width:1"/>
<polygon points="12.004271074097922,24.480889623540165 11.315173269506209,24.45193385064139 12.11568144006364,24.410503917134175" style="fill:none;stroke:black;stroke-width:1"/>
<polygon points="11.315173269506209,24.45193385064139 12.221954563005553,24.341092980761783 12.11568144006364,24.410503917134175" style="fill:none;stroke:black;stroke-width:1"/>
<polygon points="13.047072795583066,23.78722076540589 11.315173269506209,24.45193385064139 13.09495182357563,23.715563875366552" style="fill:none;stroke:black;stroke-width:1"/>
<polygon points="11.315173269506209,24.45193385064139 12.983253347318138,23.843362511194552 12.909617530931579,23.883904317256473" style="fill:none;stroke:black;stroke-width:1"/>
<polygon points="12.63925073434509,23.04976348289822 11.315173269506209,24.45193385064139 12.516453047671927,23.054163052281684" style="fill:none;stroke:black;stroke-width:1"/>
<polygon points="11.315173269506209,24.45193385064139 11.760359235850398,24.56855672077106 11.636930613551563,24.574052732039448" style="fill:none;stroke:black;stroke-width:1"/>
<polygon points="11.315173269506209,24.45193385064139 11.29353339477829,23.77785365456573 11.367154151190036,23.73703694313415" style="fill:none;stroke:black;stroke-width:1"/>
<polygon points="11.315173269506209,24.45193385064139 13.125403768548782,23.63216007572334 13.09495182357563,23.715563875366552" style="fill:none;stroke:black;stroke-width:1"/>
<polygon points="11.315173269506209,24.45193385064139 12.866669223421578,23.11062989663704 12.963022927678706,23.172708684191093" style="fill:none;stroke:black;stroke-width:1"/>
<polygon points="11.315173269506209,24.45193385064139 11.182528379391767,23.906580013113132 11.230036601508504,23.834501076952584" style="fill:none;stroke:black;stroke-width:1"/>
<polygon points="11.441278737233922,23.694221589441554 11.315173269506209,24.45193385064139 11.367154151190036,23.73703694313415" style="fill:none;stroke:black;stroke-width:1"/>
<polygon points="11.315173269506209,24.45193385064139 11.517718769407534,23.64648566225418 11.597072701113637,23.59415816411431" style="fill:none;stroke:black;stroke-width:1"/>
<polygon points="11.315173269506209,24.45193385064139 13.136936582672899,23.540692007686623 13.125403768548782,23.63216007572334" style="fill:none;stroke:black;stroke-width:1"/>
<polygon points="12.835492944887692,23.926719670949062 11.315173269506209,24.45193385064139 12.909617530931579,23.883904317256473" style="fill:none;stroke:black;stroke-width:1"/>
<polygon points="13.042175386593783,23.253681774136382 11.315173269506209,24.45193385064139 12.963022927678706,23.172708684191093" style="fill:none;stroke:black;stroke-width:1"/>
<polygon points="12.866669223421578,23.11062989663704 11.315173269506209,24.45193385064139 12.75735478355265,23.069110077531192" style="fill:none;stroke:black;stroke-width:1"/>
<polygon points="11.315173269506209,24.45193385064139 12.63925073434509,23.04976348289822 12.75735478355265,23.069110077531192" style="fill:none;stroke:black;stroke-width:1"/>
<polygon points="11.766677593806232,23.477400193686005 11.315173269506209,24.45193385064139 11.679893031818695,23.537640509381042" style="fill:none;stroke:black;stroke-width:1"/>
<polygon points="11.315173269506209,24.45193385064139 12.392977955292746,23.083850153880803 12.516453047671927,23.054163052281684" style="fill:none;stroke:black;stroke-width:1"/>
<polygon points="11.517718769407534,23.64648566225418 11.315173269506209,24.45193385064139 11.441278737233922,23.694221589441554" style="fill:none;stroke:black;stroke-width:1"/>
<polygon points="11.29353339477829,23.77785365456573 11.315173269506209,24.45193385064139 11.230036601508504,23.834501076952584" style="fill:none;stroke:black;stroke-width:1"/>
<polygon points="12.161090242057977,23.210437343256444 11.315173269506209,24.45193385064139 12.054817119116063,23.279848279628837" style="fill:none;stroke:black;stroke-width:1"/>
<polygon points="12.983253347318138,23.843362511194552 11.315173269506209,24.45193385064139 13.047072795583066,23.78722076540589" style="fill:none;stroke:black;stroke-width:1"/>
<polygon points="12.75905291271408,23.97445559813644 11.315173269506209,24.45193385064139 12.835492944887692,23.926719670949062" style="fill:none;stroke:black;stroke-width:1"/>
<polygon points="11.315173269506209,24.45193385064139 13.042175386593783,23.253681774136382 13.097185843646226,23.34787509182136" style="fill:none;stroke:black;stroke-width:1"/>
<polygon points="13.12804214779662,23.44475806888999 11.315173269506209,24.45193385064139 13.097185843646226,23.34787509182136" style="fill:none;stroke:black;stroke-width:1"/>
<polygon points="11.315173269506209,24.45193385064139 11.766677593806232,23.477400193686005 11.85786170106433,23.41396342124802" style="fill:none;stroke:black;stroke-width:1"/>
<polygon points="11.953811284123987,23.34790680631822 11.315173269506209,24.45193385064139 11.85786170106433,23.41396342124802" style="fill:none;stroke:black;stroke-width:1"/>
<polygon points="12.392977955292746,23.083850153880803 11.315173269506209,24.45193385064139 12.272758620689654,23.140344827586205" style="fill:none;stroke:black;stroke-width:1"/>
<polygon points="11.315173269506209,24.45193385064139 12.161090242057977,23.210437343256444 12.272758620689654,23.140344827586205" style="fill:none;stroke:black;stroke-width:1"/>
<polygon points="11.141429684688205,24.08204508160454 11.315173269506209,24.45193385064139 11.15083937808237,24.178150175091446" style="fill:none;stroke:black;stroke-width:1"/>
<polygon points="11.315173269506209,24.45193385064139 11.182259091631332,24.27512067637336 11.15083937808237,24.178150175091446" style="fill:none;stroke:black;stroke-width:1"/>
<polygon points="13.136936582672899,23.540692007686623 11.315173269506209,24.45193385064139 13.12804214779662,23.44475806888999" style="fill:none;stroke:black;stroke-width:1"/>
<polygon points="11.152495391175128,23.99032222840058 11.315173269506209,24.45193385064139 11.141429684688205,24.08204508160454" style="fill:none;stroke:black;stroke-width:1"/>
<polygon points="11.315173269506209,24.45193385064139 11.237430914406566,24.369778254447713 11.182259091631332,24.27512067637336" style="fill:none;stroke:black;stroke-width:1"/>
<polygon points="11.315173269506209,24.45193385064139 11.152495391175128,23.99032222840058 11.182528379391767,23.906580013113132" style="fill:none;stroke:black;stroke-width:1"/>
</svg>
