<?xml version="1.0" encoding="UTF-8" standalone="no"?>
<svg xmlns="http://www.w3.org/2000/svg" version="1.1" width="800" height="800">
<polygon points="16.82741802460626,17.335568623874067 17.987607022499656,15.538619041784166 18.827672835829617,17.409348150264904" style="fill:none;stroke:black;stroke-width:1"/>
<polygon points="15.792073593043998,9.644815749413013 14.226166700753032,9.470186616703781 14.693308757405962,8.249051635194526" style="fill:none;stroke:black;stroke-width:1"/>
<polygon points="21.03957951982831,6.068578558773985 21.59811599434088,4.859418833849894 22.835035418293167,6.176118428011538" style="fill:none;stroke:black;stroke-width:1"/>
<polygon points="18.058127470204226,4.50433381645006 11.010864203797125,7.362946313865019 18.336705840947747,3.5002780926803814" style="fill:none;stroke:black;stroke-width:1"/>
<polygon points="14.049163119225238,8.276497605502813 14.205862068965518,9.220689655172414 13.36897569751995,7.0615655811701945" style="fill:none;stroke:black;stroke-width:1"/>
<polygon points="14.226166700753032,9.470186616703781 14.205862068965518,9.220689655172414 14.693308757405962,8.249051635194526" style="fill:none;stroke:black;stroke-width:1"/>
<polygon points="14.205862068965518,9.220689655172414 14.049163119225238,8.276497605502813 14.693308757405962,8.249051635194526" style="fill:none;stroke:black;stroke-width:1"/>
<polygon points="13.557956309041833,5.378953090560099 13.583363127468491,6.755506986559293 13.36897569751995,7.0615655811701945" style="fill:none;stroke:black;stroke-width:1"/>
<polygon points="13.583363127468491,6.755506986559293 14.049163119225238,8.276497605502813 13.36897569751995,7.0615655811701945" style="fill:none;stroke:black;stroke-width:1"/>
<polygon points="14.984815900249437,4.439464866724727 13.583363127468491,6.755506986559293 13.557956309041833,5.378953090560099" style="fill:none;stroke:black;stroke-width:1"/>
<polygon points="20.41918096870212,16.574183156360487 19.648986610367587,14.983257242512476 21.335290184824323,14.49856028775733" style="fill:none;stroke:black;stroke-width:1"/>
<polygon points="19.648986610367587,14.983257242512476 20.41918096870212,16.574183156360487 18.827672835829617,17.409348150264904" style="fill:none;stroke:black;stroke-width:1"/>
<polygon points="17.987607022499656,15.538619041784166 19.648986610367587,14.983257242512476 18.827672835829617,17.409348150264904" style="fill:none;stroke:black;stroke-width:1"/>
<polygon points="19.709333870739812,12.650900100141296 21.399205938297264,13.059033925084801 21.335290184824323,14.49856028775733" style="fill:none;stroke:black;stroke-width:1"/>
<polygon points="19.648986610367587,14.983257242512476 19.709333870739812,12.650900100141296 21.335290184824323,14.49856028775733" style="fill:none;stroke:black;stroke-width:1"/>
<polygon points="16.49339384507749,8.341689532033826 15.792073593043998,9.644815749413013 14.693308757405962,8.249051635194526" style="fill:none;stroke:black;stroke-width:1"/>
<polygon points="15.792073593043998,9.644815749413013 16.49339384507749,8.341689532033826 17.637949100301853,9.567306046326713" style="fill:none;stroke:black;stroke-width:1"/>
<polygon points="21.03957951982831,6.068578558773985 19.48966104048654,5.25585678295287 21.59811599434088,4.859418833849894" style="fill:none;stroke:black;stroke-width:1"/>
<polygon points="18.336705840947747,3.5002780926803814 16.318417930816018,4.034348442549506 16.523178339203977,3.6885370387090903" style="fill:none;stroke:black;stroke-width:1"/>
<polygon points="14.869139725421274,4.998578804804087 13.583363127468491,6.755506986559293 14.984815900249437,4.439464866724727" style="fill:none;stroke:black;stroke-width:1"/>
<polygon points="13.583363127468491,6.755506986559293 14.869139725421274,4.998578804804087 14.049163119225238,8.276497605502813" style="fill:none;stroke:black;stroke-width:1"/>
<polygon points="14.869139725421274,4.998578804804087 14.984815900249437,4.439464866724727 16.523178339203977,3.6885370387090903" style="fill:none;stroke:black;stroke-width:1"/>
<polygon points="22.70227923836254,8.026640448602844 21.03957951982831,6.068578558773985 22.835035418293167,6.176118428011538" style="fill:none;stroke:black;stroke-width:1"/>
<polygon points="21.399205938297264,13.059033925084801 22.70227923836254,8.026640448602844 21.335290184824323,14.49856028775733" style="fill:none;stroke:black;stroke-width:1"/>
<polygon points="22.70227923836254,8.026640448602844 21.399205938297264,13.059033925084801 21.64594186486442,11.286079415469969" style="fill:none;stroke:black;stroke-width:1"/>
<polygon points="14.270784830373243,11.087102676082164 14.205862068965518,9.220689655172414 14.226166700753032,9.470186616703781" style="fill:none;stroke:black;stroke-width:1"/>
<polygon points="14.205862068965518,9.220689655172414 14.270784830373243,11.087102676082164 13.36897569751995,7.0615655811701945" style="fill:none;stroke:black;stroke-width:1"/>
<polygon points="19.50213045662072,9.502375636209393 19.096873262314276,10.114788038846163 17.637949100301853,9.567306046326713" style="fill:none;stroke:black;stroke-width:1"/>
<polygon points="19.709333870739812,12.650900100141296 19.801770707390894,11.09609625975367 21.399205938297264,13.059033925084801" style="fill:none;stroke:black;stroke-width:1"/>
<polygon points="21.399205938297264,13.059033925084801 19.801770707390894,11.09609625975367 21.64594186486442,11.286079415469969" style="fill:none;stroke:black;stroke-width:1"/>
<polygon points="19.801770707390894,11.09609625975367 19.50213045662072,9.502375636209393 21.64594186486442,11.286079415469969" style="fill:none;stroke:black;stroke-width:1"/>
<polygon points="19.50213045662072,9.502375636209393 19.801770707390894,11.09609625975367 19.096873262314276,10.114788038846163" style="fill:none;stroke:black;stroke-width:1"/>
<polygon points="21.903330254853394,22.36595594514781 19.648986610367587,14.983257242512476 17.987607022499656,15.538619041784166" style="fill:none;stroke:black;stroke-width:1"/>
<polygon points="19.648986610367587,14.983257242512476 21.903330254853394,22.36595594514781 22.00410440274087,22.238460071131065" style="fill:none;stroke:black;stroke-width:1"/>
<polygon points="20.776259335406372,23.286015746063953 20.91520472122505,23.20273977654655 17.987607022499656,15.538619041784166" style="fill:none;stroke:black;stroke-width:1"/>
<polygon points="15.737926465230078,8.466676334006676 16.49339384507749,8.341689532033826 14.693308757405962,8.249051635194526" style="fill:none;stroke:black;stroke-width:1"/>
<polygon points="14.049163119225238,8.276497605502813 15.737926465230078,8.466676334006676 14.693308757405962,8.249051635194526" style="fill:none;stroke:black;stroke-width:1"/>
<polygon points="14.869139725421274,4.998578804804087 15.737926465230078,8.466676334006676 14.049163119225238,8.276497605502813" style="fill:none;stroke:black;stroke-width:1"/>
<polygon points="16.49339384507749,8.341689532033826 18.314636453811428,8.431833598406142 17.637949100301853,9.567306046326713" style="fill:none;stroke:black;stroke-width:1"/>
<polygon points="18.314636453811428,8.431833598406142 19.50213045662072,9.502375636209393 17.637949100301853,9.567306046326713" style="fill:none;stroke:black;stroke-width:1"/>
<polygon points="19.50213045662072,9.502375636209393 18.314636453811428,8.431833598406142 19.85601279912487,7.931142302922481" style="fill:none;stroke:black;stroke-width:1"/>
<polygon points="19.48966104048654,5.25585678295287 19.901287424594354,4.455606504045319 21.59811599434088,4.859418833849894" style="fill:none;stroke:black;stroke-width:1"/>
<polygon points="19.901287424594354,4.455606504045319 19.48966104048654,5.25585678295287 18.058127470204226,4.50433381645006" style="fill:none;stroke:black;stroke-width:1"/>
<polygon points="21.59811599434088,4.859418833849894 19.901287424594354,4.455606504045319 18.336705840947747,3.5002780926803814" style="fill:none;stroke:black;stroke-width:1"/>
<polygon points="19.901287424594354,4.455606504045319 18.058127470204226,4.50433381645006 18.336705840947747,3.5002780926803814" style="fill:none;stroke:black;stroke-width:1"/>
<polygon points="20.845678541500895,7.811905172579859 19.48966104048654,5.25585678295287 21.03957951982831,6.068578558773985" style="fill:none;stroke:black;stroke-width:1"/>
<polygon points="22.70227923836254,8.026640448602844 20.845678541500895,7.811905172579859 21.03957951982831,6.068578558773985" style="fill:none;stroke:black;stroke-width:1"/>
<polygon points="21.684117198520937,9.400898930787394 22.70227923836254,8.026640448602844 21.64594186486442,11.286079415469969" style="fill:none;stroke:black;stroke-width:1"/>
<polygon points="19.50213045662072,9.502375636209393 21.684117198520937,9.400898930787394 21.64594186486442,11.286079415469969" style="fill:none;stroke:black;stroke-width:1"/>
<polygon points="21.684117198520937,9.400898930787394 19.50213045662072,9.502375636209393 19.85601279912487,7.931142302922481" style="fill:none;stroke:black;stroke-width:1"/>
<polygon points="20.845678541500895,7.811905172579859 21.684117198520937,9.400898930787394 19.85601279912487,7.931142302922481" style="fill:none;stroke:black;stroke-width:1"/>
<polygon points="21.684117198520937,9.400898930787394 20.845678541500895,7.811905172579859 22.70227923836254,8.026640448602844" style="fill:none;stroke:black;stroke-width:1"/>
<polygon points="13.462284679688457,19.770320367781345 17.38892034260602,10.150666782550205 17.637949100301853,9.567306046326713" style="fill:none;stroke:black;stroke-width:1"/>
<polygon points="13.021861125336045,22.85537246538439 17.38892034260602,10.150666782550205 12.986005348868119,22.924018695433283" style="fill:none;stroke:black;stroke-width:1"/>
<polygon points="17.38892034260602,10.150666782550205 15.792073593043998,9.644815749413013 17.637949100301853,9.567306046326713" style="fill:none;stroke:black;stroke-width:1"/>
<polygon points="21.903330254853394,22.36595594514781 21.488275862068967,20.98551724137931 22.00410440274087,22.238460071131065" style="fill:none;stroke:black;stroke-width:1"/>
<polygon points="21.989819987236853,21.21652123627067 22.159927991339465,24.94661526388292 19.709333870739812,12.650900100141296" style="fill:none;stroke:black;stroke-width:1"/>
<polygon points="22.185283559844805,21.731284718963458 19.709333870739812,12.650900100141296 19.648986610367587,14.983257242512476" style="fill:none;stroke:black;stroke-width:1"/>
<polygon points="22.185283559844805,21.731284718963458 22.16551003621477,21.54245648113396 19.709333870739812,12.650900100141296" style="fill:none;stroke:black;stroke-width:1"/>
<polygon points="22.156617569189564,21.917183864648635 22.185283559844805,21.731284718963458 19.648986610367587,14.983257242512476" style="fill:none;stroke:black;stroke-width:1"/>
<polygon points="15.269328058323438,16.20348199703771 16.18791299373362,15.001863922921203 16.82741802460626,17.335568623874067" style="fill:none;stroke:black;stroke-width:1"/>
<polygon points="16.18791299373362,15.001863922921203 17.987607022499656,15.538619041784166 16.82741802460626,17.335568623874067" style="fill:none;stroke:black;stroke-width:1"/>
<polygon points="15.737926465230078,8.466676334006676 17.478325086913728,8.388671893618096 16.49339384507749,8.341689532033826" style="fill:none;stroke:black;stroke-width:1"/>
<polygon points="17.478325086913728,8.388671893618096 18.314636453811428,8.431833598406142 16.49339384507749,8.341689532033826" style="fill:none;stroke:black;stroke-width:1"/>
<polygon points="11.16638752737088,7.341265438817587 11.010864203797125,7.362946313865019 18.058127470204226,4.50433381645006" style="fill:none;stroke:black;stroke-width:1"/>
<polygon points="11.31649653070002,7.3270513038465985 11.16638752737088,7.341265438817587 18.058127470204226,4.50433381645006" style="fill:none;stroke:black;stroke-width:1"/>
<polygon points="11.599282213881214,7.319581602323958 11.460893873098733,7.319943495999555 18.058127470204226,4.50433381645006" style="fill:none;stroke:black;stroke-width:1"/>
<polygon points="11.460893873098733,7.319943495999555 11.31649653070002,7.3270513038465985 18.058127470204226,4.50433381645006" style="fill:none;stroke:black;stroke-width:1"/>
<polygon points="19.801770707390894,11.09609625975367 15.17498526811129,10.691907788281245 19.096873262314276,10.114788038846163" style="fill:none;stroke:black;stroke-width:1"/>
<polygon points="12.626740814681519,12.387926282141944 15.17498526811129,10.691907788281245 19.801770707390894,11.09609625975367" style="fill:none;stroke:black;stroke-width:1"/>
<polygon points="16.18791299373362,15.001863922921203 20.08696618873953,23.475204524930056 17.987607022499656,15.538619041784166" style="fill:none;stroke:black;stroke-width:1"/>
<polygon points="15.204284011886083,11.5413745897801 15.26523254515059,13.081488795176895 14.669429588919016,14.357801223066897" style="fill:none;stroke:black;stroke-width:1"/>
<polygon points="15.26523254515059,13.081488795176895 15.269328058323438,16.20348199703771 14.669429588919016,14.357801223066897" style="fill:none;stroke:black;stroke-width:1"/>
<polygon points="15.671687634384622,10.205475605887983 14.270784830373243,11.087102676082164 14.226166700753032,9.470186616703781" style="fill:none;stroke:black;stroke-width:1"/>
<polygon points="15.792073593043998,9.644815749413013 15.671687634384622,10.205475605887983 14.226166700753032,9.470186616703781" style="fill:none;stroke:black;stroke-width:1"/>
<polygon points="22.16551003621477,21.54245648113396 22.098297114844268,21.367580451773513 19.709333870739812,12.650900100141296" style="fill:none;stroke:black;stroke-width:1"/>
<polygon points="22.098297114844268,21.367580451773513 21.989819987236853,21.21652123627067 19.709333870739812,12.650900100141296" style="fill:none;stroke:black;stroke-width:1"/>
<polygon points="22.098297114844268,21.367580451773513 22.156617569189564,21.917183864648635 21.989819987236853,21.21652123627067" style="fill:none;stroke:black;stroke-width:1"/>
<polygon points="22.185283559844805,21.731284718963458 22.098297114844268,21.367580451773513 22.16551003621477,21.54245648113396" style="fill:none;stroke:black;stroke-width:1"/>
<polygon points="22.098297114844268,21.367580451773513 22.185283559844805,21.731284718963458 22.156617569189564,21.917183864648635" style="fill:none;stroke:black;stroke-width:1"/>
<polygon points="21.989819987236853,21.21652123627067 21.846636575108,21.096588207651408 22.159927991339465,24.94661526388292" style="fill:none;stroke:black;stroke-width:1"/>
<polygon points="21.846636575108,21.096588207651408 21.488275862068967,20.98551724137931 21.67530480017321,21.015090738941723" style="fill:none;stroke:black;stroke-width:1"/>
<polygon points="21.488275862068967,20.98551724137931 21.846636575108,21.096588207651408 22.00410440274087,22.238460071131065" style="fill:none;stroke:black;stroke-width:1"/>
<polygon points="22.090180239205598,22.08747742579277 19.648986610367587,14.983257242512476 22.00410440274087,22.238460071131065" style="fill:none;stroke:black;stroke-width:1"/>
<polygon points="22.090180239205598,22.08747742579277 22.156617569189564,21.917183864648635 19.648986610367587,14.983257242512476" style="fill:none;stroke:black;stroke-width:1"/>
<polygon points="22.156617569189564,21.917183864648635 22.090180239205598,22.08747742579277 21.989819987236853,21.21652123627067" style="fill:none;stroke:black;stroke-width:1"/>
<polygon points="21.846636575108,21.096588207651408 22.090180239205598,22.08747742579277 22.00410440274087,22.238460071131065" style="fill:none;stroke:black;stroke-width:1"/>
<polygon points="22.090180239205598,22.08747742579277 21.846636575108,21.096588207651408 21.989819987236853,21.21652123627067" style="fill:none;stroke:black;stroke-width:1"/>
<polygon points="20.845678541500895,7.811905172579859 13.097548688989185,8.541388458382446 19.48966104048654,5.25585678295287" style="fill:none;stroke:black;stroke-width:1"/>
<polygon points="12.297936575293935,9.316203432498867 13.097548688989185,8.541388458382446 13.120557290205603,8.771170866100196" style="fill:none;stroke:black;stroke-width:1"/>
<polygon points="19.21872370859738,8.310667453229517 20.845678541500895,7.811905172579859 19.85601279912487,7.931142302922481" style="fill:none;stroke:black;stroke-width:1"/>
<polygon points="18.314636453811428,8.431833598406142 19.21872370859738,8.310667453229517 19.85601279912487,7.931142302922481" style="fill:none;stroke:black;stroke-width:1"/>
<polygon points="19.21872370859738,8.310667453229517 13.097548688989185,8.541388458382446 20.845678541500895,7.811905172579859" style="fill:none;stroke:black;stroke-width:1"/>
<polygon points="13.097548688989185,8.541388458382446 19.21872370859738,8.310667453229517 13.120557290205603,8.771170866100196" style="fill:none;stroke:black;stroke-width:1"/>
<polygon points="17.478325086913728,8.388671893618096 19.21872370859738,8.310667453229517 18.314636453811428,8.431833598406142" style="fill:none;stroke:black;stroke-width:1"/>
<polygon points="11.24032883941111,9.01024232615422 11.16638752737088,7.341265438817587 11.31649653070002,7.3270513038465985" style="fill:none;stroke:black;stroke-width:1"/>
<polygon points="11.731364212361648,7.325605209867312 11.599282213881214,7.319581602323958 18.058127470204226,4.50433381645006" style="fill:none;stroke:black;stroke-width:1"/>
<polygon points="19.48966104048654,5.25585678295287 12.262276725002948,7.449798638520936 18.058127470204226,4.50433381645006" style="fill:none;stroke:black;stroke-width:1"/>
<polygon points="12.409321870375953,7.531839964889217 12.262276725002948,7.449798638520936 19.48966104048654,5.25585678295287" style="fill:none;stroke:black;stroke-width:1"/>
<polygon points="18.093097816860954,13.773573218190418 15.163538511324719,14.59788875539635 19.801770707390894,11.09609625975367" style="fill:none;stroke:black;stroke-width:1"/>
<polygon points="17.38892034260602,10.150666782550205 12.943707696566168,22.998714249545046 12.986005348868119,22.924018695433283" style="fill:none;stroke:black;stroke-width:1"/>
<polygon points="19.28037358656788,23.09007549531525 16.18791299373362,15.001863922921203 15.269328058323438,16.20348199703771" style="fill:none;stroke:black;stroke-width:1"/>
<polygon points="15.26523254515059,13.081488795176895 19.28037358656788,23.09007549531525 15.269328058323438,16.20348199703771" style="fill:none;stroke:black;stroke-width:1"/>
<polygon points="15.671687634384622,10.205475605887983 14.584845593350867,12.829606659105686 14.270784830373243,11.087102676082164" style="fill:none;stroke:black;stroke-width:1"/>
<polygon points="14.584845593350867,12.829606659105686 15.671687634384622,10.205475605887983 15.204284011886083,11.5413745897801" style="fill:none;stroke:black;stroke-width:1"/>
<polygon points="14.584845593350867,12.829606659105686 15.204284011886083,11.5413745897801 14.669429588919016,14.357801223066897" style="fill:none;stroke:black;stroke-width:1"/>
<polygon points="14.584845593350867,12.829606659105686 14.669429588919016,14.357801223066897 13.36897569751995,7.0615655811701945" style="fill:none;stroke:black;stroke-width:1"/>
<polygon points="14.270784830373243,11.087102676082164 14.584845593350867,12.829606659105686 13.36897569751995,7.0615655811701945" style="fill:none;stroke:black;stroke-width:1"/>
<polygon points="20.91520472122505,23.20273977654655 21.03589598788769,23.109041359008128 17.987607022499656,15.538619041784166" style="fill:none;stroke:black;stroke-width:1"/>
<polygon points="21.03589598788769,23.109041359008128 21.144177928012805,23.017217558608223 17.987607022499656,15.538619041784166" style="fill:none;stroke:black;stroke-width:1"/>
<polygon points="21.03589598788769,23.109041359008128 20.91520472122505,23.20273977654655 20.235262876218865,21.440222473439984" style="fill:none;stroke:black;stroke-width:1"/>
<polygon points="21.360738011961743,22.833579888582378 21.469018053936217,22.741761053569455 17.987607022499656,15.538619041784166" style="fill:none;stroke:black;stroke-width:1"/>
<polygon points="21.360738011961743,22.833579888582378 20.758900654626764,21.10392618602878 21.469018053936217,22.741761053569455" style="fill:none;stroke:black;stroke-width:1"/>
<polygon points="21.793858179859626,22.466304548530687 21.903330254853394,22.36595594514781 17.987607022499656,15.538619041784166" style="fill:none;stroke:black;stroke-width:1"/>
<polygon points="21.685578137885155,22.55812338354361 21.793858179859626,22.466304548530687 17.987607022499656,15.538619041784166" style="fill:none;stroke:black;stroke-width:1"/>
<polygon points="21.793858179859626,22.466304548530687 21.488275862068967,20.98551724137931 21.903330254853394,22.36595594514781" style="fill:none;stroke:black;stroke-width:1"/>
<polygon points="21.469018053936217,22.741761053569455 21.577298095910688,22.649942218556532 17.987607022499656,15.538619041784166" style="fill:none;stroke:black;stroke-width:1"/>
<polygon points="21.577298095910688,22.649942218556532 21.685578137885155,22.55812338354361 17.987607022499656,15.538619041784166" style="fill:none;stroke:black;stroke-width:1"/>
<polygon points="21.488275862068967,20.98551724137931 10.646147489411032,23.399909380054183 21.67530480017321,21.015090738941723" style="fill:none;stroke:black;stroke-width:1"/>
<polygon points="20.91520472122505,23.20273977654655 20.126982834244394,21.53204130845291 20.235262876218865,21.440222473439984" style="fill:none;stroke:black;stroke-width:1"/>
<polygon points="20.776259335406372,23.286015746063953 20.126982834244394,21.53204130845291 20.91520472122505,23.20273977654655" style="fill:none;stroke:black;stroke-width:1"/>
<polygon points="20.45341212393457,23.41336221723703 19.802142708320986,21.80749781349168 19.910422750295453,21.715678978478753" style="fill:none;stroke:black;stroke-width:1"/>
<polygon points="11.817583965804232,22.98439230443703 15.26523254515059,13.081488795176895 15.204284011886083,11.5413745897801" style="fill:none;stroke:black;stroke-width:1"/>
<polygon points="11.853439742272158,22.91574607438814 11.817583965804232,22.98439230443703 15.204284011886083,11.5413745897801" style="fill:none;stroke:black;stroke-width:1"/>
<polygon points="22.83258146497212,18.23864022942611 23.63825140344718,19.76493666722265 17.38892034260602,10.150666782550205" style="fill:none;stroke:black;stroke-width:1"/>
<polygon points="19.801770707390894,11.09609625975367 24.698676939197227,17.47268645396008 22.24371180395951,17.889685066884866" style="fill:none;stroke:black;stroke-width:1"/>
<polygon points="24.698676939197227,17.47268645396008 19.801770707390894,11.09609625975367 19.709333870739812,12.650900100141296" style="fill:none;stroke:black;stroke-width:1"/>
<polygon points="12.468319076383823,9.386954573171087 12.956544292375412,9.169975927454967 12.617695923825186,9.370807787989083" style="fill:none;stroke:black;stroke-width:1"/>
<polygon points="17.478325086913728,8.388671893618096 12.468319076383823,9.386954573171087 12.617695923825186,9.370807787989083" style="fill:none;stroke:black;stroke-width:1"/>
<polygon points="19.21872370859738,8.310667453229517 13.070731349433142,8.986758001066054 13.120557290205603,8.771170866100196" style="fill:none;stroke:black;stroke-width:1"/>
<polygon points="13.070731349433142,8.986758001066054 19.21872370859738,8.310667453229517 12.956544292375412,9.169975927454967" style="fill:none;stroke:black;stroke-width:1"/>
<polygon points="12.468319076383823,9.386954573171087 13.070731349433142,8.986758001066054 12.956544292375412,9.169975927454967" style="fill:none;stroke:black;stroke-width:1"/>
<polygon points="13.070731349433142,8.986758001066054 12.297936575293935,9.316203432498867 13.120557290205603,8.771170866100196" style="fill:none;stroke:black;stroke-width:1"/>
<polygon points="12.791785711485208,9.302297331839174 19.21872370859738,8.310667453229517 17.478325086913728,8.388671893618096" style="fill:none;stroke:black;stroke-width:1"/>
<polygon points="19.21872370859738,8.310667453229517 12.791785711485208,9.302297331839174 12.956544292375412,9.169975927454967" style="fill:none;stroke:black;stroke-width:1"/>
<polygon points="12.791785711485208,9.302297331839174 17.478325086913728,8.388671893618096 12.617695923825186,9.370807787989083" style="fill:none;stroke:black;stroke-width:1"/>
<polygon points="12.956544292375412,9.169975927454967 12.791785711485208,9.302297331839174 12.617695923825186,9.370807787989083" style="fill:none;stroke:black;stroke-width:1"/>
<polygon points="11.460893873098733,7.319943495999555 11.426824687633305,9.031633568840622 11.31649653070002,7.3270513038465985" style="fill:none;stroke:black;stroke-width:1"/>
<polygon points="11.426824687633305,9.031633568840622 11.24032883941111,9.01024232615422 11.31649653070002,7.3270513038465985" style="fill:none;stroke:black;stroke-width:1"/>
<polygon points="11.426824687633305,9.031633568840622 11.460893873098733,7.319943495999555 11.599282213881214,7.319581602323958" style="fill:none;stroke:black;stroke-width:1"/>
<polygon points="11.16638752737088,7.341265438817587 11.034252949720873,8.980577138356328 11.010864203797125,7.362946313865019" style="fill:none;stroke:black;stroke-width:1"/>
<polygon points="11.24032883941111,9.01024232615422 11.034252949720873,8.980577138356328 11.16638752737088,7.341265438817587" style="fill:none;stroke:black;stroke-width:1"/>
<polygon points="11.034252949720873,8.980577138356328 11.24032883941111,9.01024232615422 10.813422190063328,8.941953414777641" style="fill:none;stroke:black;stroke-width:1"/>
<polygon points="11.982022107949494,7.355095829186874 11.856842527854223,7.337653905677117 18.058127470204226,4.50433381645006" style="fill:none;stroke:black;stroke-width:1"/>
<polygon points="11.856842527854223,7.337653905677117 11.731364212361648,7.325605209867312 18.058127470204226,4.50433381645006" style="fill:none;stroke:black;stroke-width:1"/>
<polygon points="12.118456758145392,7.391278828630709 11.982022107949494,7.355095829186874 18.058127470204226,4.50433381645006" style="fill:none;stroke:black;stroke-width:1"/>
<polygon points="12.262276725002948,7.449798638520936 12.118456758145392,7.391278828630709 18.058127470204226,4.50433381645006" style="fill:none;stroke:black;stroke-width:1"/>
<polygon points="10.684763958659016,7.430149935999204 16.318417930816018,4.034348442549506 18.336705840947747,3.5002780926803814" style="fill:none;stroke:black;stroke-width:1"/>
<polygon points="10.684763958659016,7.430149935999204 10.514781718466285,7.476393508990953 16.318417930816018,4.034348442549506" style="fill:none;stroke:black;stroke-width:1"/>
<polygon points="9.835166996301218,8.137422290785885 14.869139725421274,4.998578804804087 16.523178339203977,3.6885370387090903" style="fill:none;stroke:black;stroke-width:1"/>
<polygon points="10.129235942222437,8.734613983318571 15.737926465230078,8.466676334006676 14.869139725421274,4.998578804804087" style="fill:none;stroke:black;stroke-width:1"/>
<polygon points="9.962838464740914,8.572383407940583 10.129235942222437,8.734613983318571 14.869139725421274,4.998578804804087" style="fill:none;stroke:black;stroke-width:1"/>
<polygon points="20.801950552651483,15.169746227403062 19.801770707390894,11.09609625975367 22.24371180395951,17.889685066884866" style="fill:none;stroke:black;stroke-width:1"/>
<polygon points="20.801950552651483,15.169746227403062 18.093097816860954,13.773573218190418 19.801770707390894,11.09609625975367" style="fill:none;stroke:black;stroke-width:1"/>
<polygon points="10.96024718097961,14.991192660939323 12.626740814681519,12.387926282141944 19.801770707390894,11.09609625975367" style="fill:none;stroke:black;stroke-width:1"/>
<polygon points="11.051571219825924,17.299202542911083 10.96024718097961,14.991192660939323 19.801770707390894,11.09609625975367" style="fill:none;stroke:black;stroke-width:1"/>
<polygon points="15.163538511324719,14.59788875539635 13.626783429696598,17.13182910213318 19.801770707390894,11.09609625975367" style="fill:none;stroke:black;stroke-width:1"/>
<polygon points="13.626783429696598,17.13182910213318 11.051571219825924,17.299202542911083 19.801770707390894,11.09609625975367" style="fill:none;stroke:black;stroke-width:1"/>
<polygon points="19.096873262314276,10.114788038846163 13.055832822995782,23.306833945224973 17.637949100301853,9.567306046326713" style="fill:none;stroke:black;stroke-width:1"/>
<polygon points="12.83706997165541,23.16275108623234 12.894260783199556,23.07860404586409 17.38892034260602,10.150666782550205" style="fill:none;stroke:black;stroke-width:1"/>
<polygon points="12.894260783199556,23.07860404586409 12.943707696566168,22.998714249545046 17.38892034260602,10.150666782550205" style="fill:none;stroke:black;stroke-width:1"/>
<polygon points="12.771662750721084,23.250151233209913 12.83706997165541,23.16275108623234 17.38892034260602,10.150666782550205" style="fill:none;stroke:black;stroke-width:1"/>
<polygon points="21.144177928012805,23.017217558608223 21.252457969987276,22.9253987235953 17.987607022499656,15.538619041784166" style="fill:none;stroke:black;stroke-width:1"/>
<polygon points="21.252457969987276,22.9253987235953 21.360738011961743,22.833579888582378 17.987607022499656,15.538619041784166" style="fill:none;stroke:black;stroke-width:1"/>
<polygon points="20.464095977195846,21.25607722900115 21.252457969987276,22.9253987235953 21.144177928012805,23.017217558608223" style="fill:none;stroke:black;stroke-width:1"/>
<polygon points="20.758900654626764,21.10392618602878 20.92780362134182,21.048064884884212 21.469018053936217,22.741761053569455" style="fill:none;stroke:black;stroke-width:1"/>
<polygon points="20.92780362134182,21.048064884884212 21.577298095910688,22.649942218556532 21.469018053936217,22.741761053569455" style="fill:none;stroke:black;stroke-width:1"/>
<polygon points="8.813645859366313,17.482257505601055 20.92780362134182,21.048064884884212 9.630263049448342,14.462668264213383" style="fill:none;stroke:black;stroke-width:1"/>
<polygon points="20.92780362134182,21.048064884884212 20.758900654626764,21.10392618602878 9.630263049448342,14.462668264213383" style="fill:none;stroke:black;stroke-width:1"/>
<polygon points="20.343567461716056,21.348337074401897 21.03589598788769,23.109041359008128 20.235262876218865,21.440222473439984" style="fill:none;stroke:black;stroke-width:1"/>
<polygon points="21.03589598788769,23.109041359008128 20.343567461716056,21.348337074401897 21.144177928012805,23.017217558608223" style="fill:none;stroke:black;stroke-width:1"/>
<polygon points="20.343567461716056,21.348337074401897 20.464095977195846,21.25607722900115 21.144177928012805,23.017217558608223" style="fill:none;stroke:black;stroke-width:1"/>
<polygon points="9.164575397622958,20.66006181684417 10.646147489411032,23.399909380054183 21.488275862068967,20.98551724137931" style="fill:none;stroke:black;stroke-width:1"/>
<polygon points="15.99981128989258,26.438219513936442 21.846636575108,21.096588207651408 21.67530480017321,21.015090738941723" style="fill:none;stroke:black;stroke-width:1"/>
<polygon points="14.031088197136352,10.462082054692496 20.343567461716056,21.348337074401897 12.105825191721758,23.63109896888019" style="fill:none;stroke:black;stroke-width:1"/>
<polygon points="19.693862666346515,21.8993166485046 20.08696618873953,23.475204524930056 19.585582624372044,21.99113548351752" style="fill:none;stroke:black;stroke-width:1"/>
<polygon points="20.018702792269927,21.623860143465834 20.126982834244394,21.53204130845291 20.776259335406372,23.286015746063953" style="fill:none;stroke:black;stroke-width:1"/>
<polygon points="20.45341212393457,23.41336221723703 20.27441325709825,23.453463656993378 19.802142708320986,21.80749781349168" style="fill:none;stroke:black;stroke-width:1"/>
<polygon points="19.693862666346515,21.8993166485046 20.27441325709825,23.453463656993378 20.08696618873953,23.475204524930056" style="fill:none;stroke:black;stroke-width:1"/>
<polygon points="20.27441325709825,23.453463656993378 19.693862666346515,21.8993166485046 19.802142708320986,21.80749781349168" style="fill:none;stroke:black;stroke-width:1"/>
<polygon points="20.08696618873953,23.475204524930056 20.27441325709825,23.453463656993378 17.987607022499656,15.538619041784166" style="fill:none;stroke:black;stroke-width:1"/>
<polygon points="20.27441325709825,23.453463656993378 20.45341212393457,23.41336221723703 17.987607022499656,15.538619041784166" style="fill:none;stroke:black;stroke-width:1"/>
<polygon points="15.671687634384622,10.205475605887983 12.419504952652233,22.26963319246317 15.204284011886083,11.5413745897801" style="fill:none;stroke:black;stroke-width:1"/>
<polygon points="15.26523254515059,13.081488795176895 11.740148104961769,23.14698544366624 19.28926056502607,22.36996260625544" style="fill:none;stroke:black;stroke-width:1"/>
<polygon points="15.909040961005264,21.48907487273324 17.38892034260602,10.150666782550205 13.462284679688457,19.770320367781345" style="fill:none;stroke:black;stroke-width:1"/>
<polygon points="15.909040961005264,21.48907487273324 18.91733422949333,21.05208440397534 17.38892034260602,10.150666782550205" style="fill:none;stroke:black;stroke-width:1"/>
<polygon points="20.742491043610986,18.746661368325075 22.83258146497212,18.23864022942611 17.38892034260602,10.150666782550205" style="fill:none;stroke:black;stroke-width:1"/>
<polygon points="18.91733422949333,21.05208440397534 20.742491043610986,18.746661368325075 17.38892034260602,10.150666782550205" style="fill:none;stroke:black;stroke-width:1"/>
<polygon points="23.63825140344718,19.76493666722265 22.122247160854215,22.501515361167474 17.38892034260602,10.150666782550205" style="fill:none;stroke:black;stroke-width:1"/>
<polygon points="22.122247160854215,22.501515361167474 12.771662750721084,23.250151233209913 17.38892034260602,10.150666782550205" style="fill:none;stroke:black;stroke-width:1"/>
<polygon points="22.119991523877346,12.548959858779849 24.097693752624302,14.851519179387191 19.709333870739812,12.650900100141296" style="fill:none;stroke:black;stroke-width:1"/>
<polygon points="24.097693752624302,14.851519179387191 24.698676939197227,17.47268645396008 19.709333870739812,12.650900100141296" style="fill:none;stroke:black;stroke-width:1"/>
<polygon points="22.159927991339465,24.94661526388292 24.268328847862215,22.716117549434408 19.709333870739812,12.650900100141296" style="fill:none;stroke:black;stroke-width:1"/>
<polygon points="24.268328847862215,22.716117549434408 25.4335310345816,19.82045100626728 19.709333870739812,12.650900100141296" style="fill:none;stroke:black;stroke-width:1"/>
<polygon points="19.32085942808027,11.216352127536188 22.119991523877346,12.548959858779849 19.709333870739812,12.650900100141296" style="fill:none;stroke:black;stroke-width:1"/>
<polygon points="25.4335310345816,19.82045100626728 19.32085942808027,11.216352127536188 19.709333870739812,12.650900100141296" style="fill:none;stroke:black;stroke-width:1"/>
<polygon points="12.828207182436117,7.930940100862531 12.69644714408349,7.771225991186586 19.48966104048654,5.25585678295287" style="fill:none;stroke:black;stroke-width:1"/>
<polygon points="13.097548688989185,8.541388458382446 13.034567289305297,8.320584174536846 19.48966104048654,5.25585678295287" style="fill:none;stroke:black;stroke-width:1"/>
<polygon points="13.034567289305297,8.320584174536846 13.097548688989185,8.541388458382446 12.297936575293935,9.316203432498867" style="fill:none;stroke:black;stroke-width:1"/>
<polygon points="13.070731349433142,8.986758001066054 12.357355597253292,9.364207363872314 12.297936575293935,9.316203432498867" style="fill:none;stroke:black;stroke-width:1"/>
<polygon points="12.357355597253292,9.364207363872314 13.070731349433142,8.986758001066054 12.468319076383823,9.386954573171087" style="fill:none;stroke:black;stroke-width:1"/>
<polygon points="12.357355597253292,9.364207363872314 12.468319076383823,9.386954573171087 17.478325086913728,8.388671893618096" style="fill:none;stroke:black;stroke-width:1"/>
<polygon points="12.357355597253292,9.364207363872314 17.478325086913728,8.388671893618096 15.737926465230078,8.466676334006676" style="fill:none;stroke:black;stroke-width:1"/>
<polygon points="12.297936575293935,9.316203432498867 12.357355597253292,9.364207363872314 15.737926465230078,8.466676334006676" style="fill:none;stroke:black;stroke-width:1"/>
<polygon points="11.731364212361648,7.325605209867312 11.58891532288673,9.045435457084826 11.599282213881214,7.319581602323958" style="fill:none;stroke:black;stroke-width:1"/>
<polygon points="11.58891532288673,9.045435457084826 11.426824687633305,9.031633568840622 11.599282213881214,7.319581602323958" style="fill:none;stroke:black;stroke-width:1"/>
<polygon points="10.684763958659016,7.430149935999204 10.850223900664567,7.3924543419413915 10.813422190063328,8.941953414777641" style="fill:none;stroke:black;stroke-width:1"/>
<polygon points="11.034252949720873,8.980577138356328 10.850223900664567,7.3924543419413915 11.010864203797125,7.362946313865019" style="fill:none;stroke:black;stroke-width:1"/>
<polygon points="10.850223900664567,7.3924543419413915 11.034252949720873,8.980577138356328 10.813422190063328,8.941953414777641" style="fill:none;stroke:black;stroke-width:1"/>
<polygon points="11.010864203797125,7.362946313865019 10.850223900664567,7.3924543419413915 18.336705840947747,3.5002780926803814" style="fill:none;stroke:black;stroke-width:1"/>
<polygon points="10.850223900664567,7.3924543419413915 10.684763958659016,7.430149935999204 18.336705840947747,3.5002780926803814" style="fill:none;stroke:black;stroke-width:1"/>
<polygon points="9.860910409264463,8.367242285728066 9.962838464740914,8.572383407940583 14.869139725421274,4.998578804804087" style="fill:none;stroke:black;stroke-width:1"/>
<polygon points="9.835166996301218,8.137422290785885 9.860910409264463,8.367242285728066 14.869139725421274,4.998578804804087" style="fill:none;stroke:black;stroke-width:1"/>
<polygon points="9.860910409264463,8.367242285728066 9.835166996301218,8.137422290785885 9.962838464740914,8.572383407940583" style="fill:none;stroke:black;stroke-width:1"/>
<polygon points="10.129235942222437,8.734613983318571 10.348275862068965,8.836206896551724 15.737926465230078,8.466676334006676" style="fill:none;stroke:black;stroke-width:1"/>
<polygon points="10.348275862068965,8.836206896551724 12.297936575293935,9.316203432498867 15.737926465230078,8.466676334006676" style="fill:none;stroke:black;stroke-width:1"/>
<polygon points="10.348275862068965,8.836206896551724 10.129235942222437,8.734613983318571 10.001812047522685,7.738032038994557" style="fill:none;stroke:black;stroke-width:1"/>
<polygon points="10.348275862068965,8.836206896551724 11.58891532288673,9.045435457084826 12.297936575293935,9.316203432498867" style="fill:none;stroke:black;stroke-width:1"/>
<polygon points="11.58891532288673,9.045435457084826 10.348275862068965,8.836206896551724 11.426824687633305,9.031633568840622" style="fill:none;stroke:black;stroke-width:1"/>
<polygon points="9.835166996301218,8.137422290785885 9.886739024124157,7.919815158965959 9.962838464740914,8.572383407940583" style="fill:none;stroke:black;stroke-width:1"/>
<polygon points="9.886739024124157,7.919815158965959 10.129235942222437,8.734613983318571 9.962838464740914,8.572383407940583" style="fill:none;stroke:black;stroke-width:1"/>
<polygon points="10.129235942222437,8.734613983318571 9.886739024124157,7.919815158965959 10.001812047522685,7.738032038994557" style="fill:none;stroke:black;stroke-width:1"/>
<polygon points="9.886739024124157,7.919815158965959 9.835166996301218,8.137422290785885 16.523178339203977,3.6885370387090903" style="fill:none;stroke:black;stroke-width:1"/>
<polygon points="16.318417930816018,4.034348442549506 9.886739024124157,7.919815158965959 16.523178339203977,3.6885370387090903" style="fill:none;stroke:black;stroke-width:1"/>
<polygon points="10.001812047522685,7.738032038994557 9.886739024124157,7.919815158965959 16.318417930816018,4.034348442549506" style="fill:none;stroke:black;stroke-width:1"/>
<polygon points="19.15446385173874,20.4432113680784 16.057304860122315,20.41590985352819 19.096873262314276,10.114788038846163" style="fill:none;stroke:black;stroke-width:1"/>
<polygon points="20.157558714320487,15.483374977006322 15.985037689523292,24.46842207133365 19.096873262314276,10.114788038846163" style="fill:none;stroke:black;stroke-width:1"/>
<polygon points="15.985037689523292,24.46842207133365 13.055832822995782,23.306833945224973 19.096873262314276,10.114788038846163" style="fill:none;stroke:black;stroke-width:1"/>
<polygon points="19.531669944281425,23.361414444143534 19.702855862874436,23.443135993743702 16.18791299373362,15.001863922921203" style="fill:none;stroke:black;stroke-width:1"/>
<polygon points="19.28037358656788,23.09007549531525 19.388656544940744,23.241291153658718 16.18791299373362,15.001863922921203" style="fill:none;stroke:black;stroke-width:1"/>
<polygon points="19.388656544940744,23.241291153658718 19.531669944281425,23.361414444143534 16.18791299373362,15.001863922921203" style="fill:none;stroke:black;stroke-width:1"/>
<polygon points="19.531669944281425,23.361414444143534 19.388656544940744,23.241291153658718 19.28926056502607,22.36996260625544" style="fill:none;stroke:black;stroke-width:1"/>
<polygon points="19.222780578604553,22.54020566806792 15.26523254515059,13.081488795176895 19.28926056502607,22.36996260625544" style="fill:none;stroke:black;stroke-width:1"/>
<polygon points="19.222780578604553,22.54020566806792 19.193847949375602,22.726159799518896 15.26523254515059,13.081488795176895" style="fill:none;stroke:black;stroke-width:1"/>
<polygon points="19.193847949375602,22.726159799518896 19.222780578604553,22.54020566806792 19.28037358656788,23.09007549531525" style="fill:none;stroke:black;stroke-width:1"/>
<polygon points="19.388656544940744,23.241291153658718 19.222780578604553,22.54020566806792 19.28926056502607,22.36996260625544" style="fill:none;stroke:black;stroke-width:1"/>
<polygon points="19.222780578604553,22.54020566806792 19.388656544940744,23.241291153658718 19.28037358656788,23.09007549531525" style="fill:none;stroke:black;stroke-width:1"/>
<polygon points="19.21337899087832,22.915076842139136 19.28037358656788,23.09007549531525 15.26523254515059,13.081488795176895" style="fill:none;stroke:black;stroke-width:1"/>
<polygon points="19.193847949375602,22.726159799518896 19.21337899087832,22.915076842139136 15.26523254515059,13.081488795176895" style="fill:none;stroke:black;stroke-width:1"/>
<polygon points="19.21337899087832,22.915076842139136 19.193847949375602,22.726159799518896 19.28037358656788,23.09007549531525" style="fill:none;stroke:black;stroke-width:1"/>
<polygon points="20.60343590737209,21.173935283472268 21.252457969987276,22.9253987235953 20.464095977195846,21.25607722900115" style="fill:none;stroke:black;stroke-width:1"/>
<polygon points="20.758900654626764,21.10392618602878 20.60343590737209,21.173935283472268 9.630263049448342,14.462668264213383" style="fill:none;stroke:black;stroke-width:1"/>
<polygon points="21.360738011961743,22.833579888582378 20.60343590737209,21.173935283472268 20.758900654626764,21.10392618602878" style="fill:none;stroke:black;stroke-width:1"/>
<polygon points="21.252457969987276,22.9253987235953 20.60343590737209,21.173935283472268 21.360738011961743,22.833579888582378" style="fill:none;stroke:black;stroke-width:1"/>
<polygon points="21.577298095910688,22.649942218556532 21.10745820989923,21.008366328252094 21.685578137885155,22.55812338354361" style="fill:none;stroke:black;stroke-width:1"/>
<polygon points="20.92780362134182,21.048064884884212 21.10745820989923,21.008366328252094 21.577298095910688,22.649942218556532" style="fill:none;stroke:black;stroke-width:1"/>
<polygon points="9.164575397622958,20.66006181684417 21.10745820989923,21.008366328252094 8.813645859366313,17.482257505601055" style="fill:none;stroke:black;stroke-width:1"/>
<polygon points="21.10745820989923,21.008366328252094 20.92780362134182,21.048064884884212 8.813645859366313,17.482257505601055" style="fill:none;stroke:black;stroke-width:1"/>
<polygon points="10.646147489411032,23.399909380054183 13.00663464950265,25.40777083974306 21.67530480017321,21.015090738941723" style="fill:none;stroke:black;stroke-width:1"/>
<polygon points="13.00663464950265,25.40777083974306 15.99981128989258,26.438219513936442 21.67530480017321,21.015090738941723" style="fill:none;stroke:black;stroke-width:1"/>
<polygon points="21.846636575108,21.096588207651408 19.30792251270414,26.2675002179525 22.159927991339465,24.94661526388292" style="fill:none;stroke:black;stroke-width:1"/>
<polygon points="15.99981128989258,26.438219513936442 19.30792251270414,26.2675002179525 21.846636575108,21.096588207651408" style="fill:none;stroke:black;stroke-width:1"/>
<polygon points="20.60343590737209,21.173935283472268 11.435313888389253,12.040967238272112 9.630263049448342,14.462668264213383" style="fill:none;stroke:black;stroke-width:1"/>
<polygon points="11.435313888389253,12.040967238272112 20.60343590737209,21.173935283472268 20.464095977195846,21.25607722900115" style="fill:none;stroke:black;stroke-width:1"/>
<polygon points="20.343567461716056,21.348337074401897 11.435313888389253,12.040967238272112 20.464095977195846,21.25607722900115" style="fill:none;stroke:black;stroke-width:1"/>
<polygon points="14.031088197136352,10.462082054692496 11.435313888389253,12.040967238272112 20.343567461716056,21.348337074401897" style="fill:none;stroke:black;stroke-width:1"/>
<polygon points="20.621511309840077,23.356884736610663 20.45341212393457,23.41336221723703 19.910422750295453,21.715678978478753" style="fill:none;stroke:black;stroke-width:1"/>
<polygon points="20.018702792269927,21.623860143465834 20.621511309840077,23.356884736610663 19.910422750295453,21.715678978478753" style="fill:none;stroke:black;stroke-width:1"/>
<polygon points="20.621511309840077,23.356884736610663 20.018702792269927,21.623860143465834 20.776259335406372,23.286015746063953" style="fill:none;stroke:black;stroke-width:1"/>
<polygon points="20.621511309840077,23.356884736610663 20.776259335406372,23.286015746063953 17.987607022499656,15.538619041784166" style="fill:none;stroke:black;stroke-width:1"/>
<polygon points="20.45341212393457,23.41336221723703 20.621511309840077,23.356884736610663 17.987607022499656,15.538619041784166" style="fill:none;stroke:black;stroke-width:1"/>
<polygon points="13.115967956219986,22.491679328310433 15.671687634384622,10.205475605887983 15.792073593043998,9.644815749413013" style="fill:none;stroke:black;stroke-width:1"/>
<polygon points="13.129847068102471,22.55054071205658 13.115967956219986,22.491679328310433 15.792073593043998,9.644815749413013" style="fill:none;stroke:black;stroke-width:1"/>
<polygon points="11.761873296355287,23.100605452808452 11.740148104961769,23.14698544366624 15.26523254515059,13.081488795176895" style="fill:none;stroke:black;stroke-width:1"/>
<polygon points="12.555432056118203,7.638587513767215 12.409321870375953,7.531839964889217 19.48966104048654,5.25585678295287" style="fill:none;stroke:black;stroke-width:1"/>
<polygon points="12.69644714408349,7.771225991186586 12.555432056118203,7.638587513767215 19.48966104048654,5.25585678295287" style="fill:none;stroke:black;stroke-width:1"/>
<polygon points="12.944173866331731,8.115806834526564 12.828207182436117,7.930940100862531 19.48966104048654,5.25585678295287" style="fill:none;stroke:black;stroke-width:1"/>
<polygon points="13.034567289305297,8.320584174536846 12.944173866331731,8.115806834526564 19.48966104048654,5.25585678295287" style="fill:none;stroke:black;stroke-width:1"/>
<polygon points="11.856842527854223,7.337653905677117 11.722610782244956,9.054876835585805 11.731364212361648,7.325605209867312" style="fill:none;stroke:black;stroke-width:1"/>
<polygon points="11.722610782244956,9.054876835585805 11.58891532288673,9.045435457084826 11.731364212361648,7.325605209867312" style="fill:none;stroke:black;stroke-width:1"/>
<polygon points="11.722610782244956,9.054876835585805 11.856842527854223,7.337653905677117 11.982022107949494,7.355095829186874" style="fill:none;stroke:black;stroke-width:1"/>
<polygon points="11.58891532288673,9.045435457084826 11.722610782244956,9.054876835585805 12.297936575293935,9.316203432498867" style="fill:none;stroke:black;stroke-width:1"/>
<polygon points="10.583678016761624,8.893293718117262 10.684763958659016,7.430149935999204 10.813422190063328,8.941953414777641" style="fill:none;stroke:black;stroke-width:1"/>
<polygon points="10.684763958659016,7.430149935999204 10.583678016761624,8.893293718117262 10.514781718466285,7.476393508990953" style="fill:none;stroke:black;stroke-width:1"/>
<polygon points="11.24032883941111,9.01024232615422 10.583678016761624,8.893293718117262 10.813422190063328,8.941953414777641" style="fill:none;stroke:black;stroke-width:1"/>
<polygon points="11.426824687633305,9.031633568840622 10.583678016761624,8.893293718117262 11.24032883941111,9.01024232615422" style="fill:none;stroke:black;stroke-width:1"/>
<polygon points="10.348275862068965,8.836206896551724 10.583678016761624,8.893293718117262 11.426824687633305,9.031633568840622" style="fill:none;stroke:black;stroke-width:1"/>
<polygon points="10.514781718466285,7.476393508990953 10.340574520772183,7.531545473869138 16.318417930816018,4.034348442549506" style="fill:none;stroke:black;stroke-width:1"/>
<polygon points="10.583678016761624,8.893293718117262 10.340574520772183,7.531545473869138 10.514781718466285,7.476393508990953" style="fill:none;stroke:black;stroke-width:1"/>
<polygon points="10.340574520772183,7.531545473869138 10.583678016761624,8.893293718117262 10.348275862068965,8.836206896551724" style="fill:none;stroke:black;stroke-width:1"/>
<polygon points="15.17498526811129,10.691907788281245 20.97406742354984,18.1157636245184 19.096873262314276,10.114788038846163" style="fill:none;stroke:black;stroke-width:1"/>
<polygon points="20.97406742354984,18.1157636245184 19.15446385173874,20.4432113680784 19.096873262314276,10.114788038846163" style="fill:none;stroke:black;stroke-width:1"/>
<polygon points="17.679111622102578,13.939698518720997 20.157558714320487,15.483374977006322 19.096873262314276,10.114788038846163" style="fill:none;stroke:black;stroke-width:1"/>
<polygon points="14.938196427193011,15.065440030918607 17.679111622102578,13.939698518720997 19.096873262314276,10.114788038846163" style="fill:none;stroke:black;stroke-width:1"/>
<polygon points="16.057304860122315,20.41590985352819 14.193199538522862,18.008235750746238 19.096873262314276,10.114788038846163" style="fill:none;stroke:black;stroke-width:1"/>
<polygon points="14.193199538522862,18.008235750746238 14.938196427193011,15.065440030918607 19.096873262314276,10.114788038846163" style="fill:none;stroke:black;stroke-width:1"/>
<polygon points="12.083807398833923,17.8252918179278 13.462284679688457,19.770320367781345 17.637949100301853,9.567306046326713" style="fill:none;stroke:black;stroke-width:1"/>
<polygon points="9.784451755246454,18.216917603025728 12.083807398833923,17.8252918179278 17.637949100301853,9.567306046326713" style="fill:none;stroke:black;stroke-width:1"/>
<polygon points="13.055832822995782,23.306833945224973 10.887105839347756,21.121287896140736 17.637949100301853,9.567306046326713" style="fill:none;stroke:black;stroke-width:1"/>
<polygon points="10.887105839347756,21.121287896140736 9.784451755246454,18.216917603025728 17.637949100301853,9.567306046326713" style="fill:none;stroke:black;stroke-width:1"/>
<polygon points="20.08696618873953,23.475204524930056 19.895756220865774,23.47862068965517 19.585582624372044,21.99113548351752" style="fill:none;stroke:black;stroke-width:1"/>
<polygon points="19.895756220865774,23.47862068965517 19.476110549378276,22.0914840869004 19.585582624372044,21.99113548351752" style="fill:none;stroke:black;stroke-width:1"/>
<polygon points="19.895756220865774,23.47862068965517 20.08696618873953,23.475204524930056 16.18791299373362,15.001863922921203" style="fill:none;stroke:black;stroke-width:1"/>
<polygon points="19.702855862874436,23.443135993743702 19.895756220865774,23.47862068965517 16.18791299373362,15.001863922921203" style="fill:none;stroke:black;stroke-width:1"/>
<polygon points="19.895756220865774,23.47862068965517 19.702855862874436,23.443135993743702 19.531669944281425,23.361414444143534" style="fill:none;stroke:black;stroke-width:1"/>
<polygon points="21.10745820989923,21.008366328252094 21.29517782268096,20.986845464345954 21.685578137885155,22.55812338354361" style="fill:none;stroke:black;stroke-width:1"/>
<polygon points="21.793858179859626,22.466304548530687 21.29517782268096,20.986845464345954 21.488275862068967,20.98551724137931" style="fill:none;stroke:black;stroke-width:1"/>
<polygon points="21.29517782268096,20.986845464345954 21.793858179859626,22.466304548530687 21.685578137885155,22.55812338354361" style="fill:none;stroke:black;stroke-width:1"/>
<polygon points="21.29517782268096,20.986845464345954 9.164575397622958,20.66006181684417 21.488275862068967,20.98551724137931" style="fill:none;stroke:black;stroke-width:1"/>
<polygon points="21.29517782268096,20.986845464345954 21.10745820989923,21.008366328252094 9.164575397622958,20.66006181684417" style="fill:none;stroke:black;stroke-width:1"/>
<polygon points="13.130743117923203,22.605136437800837 13.129847068102471,22.55054071205658 15.792073593043998,9.644815749413013" style="fill:none;stroke:black;stroke-width:1"/>
<polygon points="17.38892034260602,10.150666782550205 13.07757179478499,22.73915931701297 15.792073593043998,9.644815749413013" style="fill:none;stroke:black;stroke-width:1"/>
<polygon points="13.07757179478499,22.73915931701297 13.099296986178508,22.692779326155183 15.792073593043998,9.644815749413013" style="fill:none;stroke:black;stroke-width:1"/>
<polygon points="12.83106252007026,22.23023426357158 12.73382625523342,22.211734310445937 15.671687634384622,10.205475605887983" style="fill:none;stroke:black;stroke-width:1"/>
<polygon points="12.73382625523342,22.211734310445937 12.630512370788963,22.211657179874443 15.671687634384622,10.205475605887983" style="fill:none;stroke:black;stroke-width:1"/>
<polygon points="12.52461470060571,22.23073510819487 12.419504952652233,22.26963319246317 15.671687634384622,10.205475605887983" style="fill:none;stroke:black;stroke-width:1"/>
<polygon points="12.630512370788963,22.211657179874443 12.52461470060571,22.23073510819487 15.671687634384622,10.205475605887983" style="fill:none;stroke:black;stroke-width:1"/>
<polygon points="11.817583965804232,22.98439230443703 11.787361087709609,23.04622953002164 15.26523254515059,13.081488795176895" style="fill:none;stroke:black;stroke-width:1"/>
<polygon points="11.787361087709609,23.04622953002164 11.761873296355287,23.100605452808452 15.26523254515059,13.081488795176895" style="fill:none;stroke:black;stroke-width:1"/>
<polygon points="19.895756220865774,23.47862068965517 19.3753364014908,22.218979960917142 19.476110549378276,22.0914840869004" style="fill:none;stroke:black;stroke-width:1"/>
<polygon points="19.3753364014908,22.218979960917142 19.531669944281425,23.361414444143534 19.28926056502607,22.36996260625544" style="fill:none;stroke:black;stroke-width:1"/>
<polygon points="19.3753364014908,22.218979960917142 19.895756220865774,23.47862068965517 19.531669944281425,23.361414444143534" style="fill:none;stroke:black;stroke-width:1"/>
<polygon points="11.740148104961769,23.14698544366624 11.720257195251994,23.18737875190981 19.28926056502607,22.36996260625544" style="fill:none;stroke:black;stroke-width:1"/>
<polygon points="11.720257195251994,23.18737875190981 19.3753364014908,22.218979960917142 19.28926056502607,22.36996260625544" style="fill:none;stroke:black;stroke-width:1"/>
<polygon points="19.3753364014908,22.218979960917142 11.720257195251994,23.18737875190981 11.70895927986085,23.235223061138953" style="fill:none;stroke:black;stroke-width:1"/>
<polygon points="11.794026220076173,23.46931294663694 19.693862666346515,21.8993166485046 19.585582624372044,21.99113548351752" style="fill:none;stroke:black;stroke-width:1"/>
<polygon points="12.118456758145392,7.391278828630709 11.840401629286227,9.073215190418559 11.982022107949494,7.355095829186874" style="fill:none;stroke:black;stroke-width:1"/>
<polygon points="11.840401629286227,9.073215190418559 11.722610782244956,9.054876835585805 11.982022107949494,7.355095829186874" style="fill:none;stroke:black;stroke-width:1"/>
<polygon points="11.722610782244956,9.054876835585805 11.840401629286227,9.073215190418559 12.297936575293935,9.316203432498867" style="fill:none;stroke:black;stroke-width:1"/>
<polygon points="10.1642073909638,7.606046945439648 10.348275862068965,8.836206896551724 10.001812047522685,7.738032038994557" style="fill:none;stroke:black;stroke-width:1"/>
<polygon points="10.1642073909638,7.606046945439648 10.340574520772183,7.531545473869138 10.348275862068965,8.836206896551724" style="fill:none;stroke:black;stroke-width:1"/>
<polygon points="10.1642073909638,7.606046945439648 10.001812047522685,7.738032038994557 16.318417930816018,4.034348442549506" style="fill:none;stroke:black;stroke-width:1"/>
<polygon points="10.340574520772183,7.531545473869138 10.1642073909638,7.606046945439648 16.318417930816018,4.034348442549506" style="fill:none;stroke:black;stroke-width:1"/>
<polygon points="13.099296986178508,22.692779326155183 13.11919937015481,22.652595469621833 15.792073593043998,9.644815749413013" style="fill:none;stroke:black;stroke-width:1"/>
<polygon points="13.11919937015481,22.652595469621833 13.130743117923203,22.605136437800837 15.792073593043998,9.644815749413013" style="fill:none;stroke:black;stroke-width:1"/>
<polygon points="13.052084003430668,22.793535239799784 17.38892034260602,10.150666782550205 13.021861125336045,22.85537246538439" style="fill:none;stroke:black;stroke-width:1"/>
<polygon points="13.052084003430668,22.793535239799784 13.07757179478499,22.73915931701297 17.38892034260602,10.150666782550205" style="fill:none;stroke:black;stroke-width:1"/>
<polygon points="12.918614583312916,22.266342886611113 12.83106252007026,22.23023426357158 15.671687634384622,10.205475605887983" style="fill:none;stroke:black;stroke-width:1"/>
<polygon points="12.990764572843851,22.31614056832163 12.918614583312916,22.266342886611113 15.671687634384622,10.205475605887983" style="fill:none;stroke:black;stroke-width:1"/>
<polygon points="13.047026371069723,22.371950477348918 12.990764572843851,22.31614056832163 15.671687634384622,10.205475605887983" style="fill:none;stroke:black;stroke-width:1"/>
<polygon points="11.89573739457411,22.841050520276383 11.853439742272158,22.91574607438814 15.204284011886083,11.5413745897801" style="fill:none;stroke:black;stroke-width:1"/>
<polygon points="11.945184307940721,22.76116072395734 11.89573739457411,22.841050520276383 15.204284011886083,11.5413745897801" style="fill:none;stroke:black;stroke-width:1"/>
<polygon points="12.067782340419193,22.58961353661151 12.002375119484869,22.67701368358908 15.204284011886083,11.5413745897801" style="fill:none;stroke:black;stroke-width:1"/>
<polygon points="12.002375119484869,22.67701368358908 11.945184307940721,22.76116072395734 15.204284011886083,11.5413745897801" style="fill:none;stroke:black;stroke-width:1"/>
<polygon points="12.419504952652233,22.26963319246317 12.318425257212784,22.32896522630076 15.204284011886083,11.5413745897801" style="fill:none;stroke:black;stroke-width:1"/>
<polygon points="12.318425257212784,22.32896522630076 12.224482758620688,22.409310344827585 15.204284011886083,11.5413745897801" style="fill:none;stroke:black;stroke-width:1"/>
<polygon points="12.141748904272006,22.500015723899047 12.067782340419193,22.58961353661151 15.204284011886083,11.5413745897801" style="fill:none;stroke:black;stroke-width:1"/>
<polygon points="12.224482758620688,22.409310344827585 12.141748904272006,22.500015723899047 15.204284011886083,11.5413745897801" style="fill:none;stroke:black;stroke-width:1"/>
<polygon points="19.476110549378276,22.0914840869004 11.752106246183558,23.40984878726273 19.585582624372044,21.99113548351752" style="fill:none;stroke:black;stroke-width:1"/>
<polygon points="11.752106246183558,23.40984878726273 11.794026220076173,23.46931294663694 19.585582624372044,21.99113548351752" style="fill:none;stroke:black;stroke-width:1"/>
<polygon points="19.693862666346515,21.8993166485046 11.850717282605716,23.52518954077911 19.802142708320986,21.80749781349168" style="fill:none;stroke:black;stroke-width:1"/>
<polygon points="11.794026220076173,23.46931294663694 11.850717282605716,23.52518954077911 19.693862666346515,21.8993166485046" style="fill:none;stroke:black;stroke-width:1"/>
<polygon points="19.802142708320986,21.80749781349168 11.850717282605716,23.52518954077911 19.910422750295453,21.715678978478753" style="fill:none;stroke:black;stroke-width:1"/>
<polygon points="11.947414194129049,9.099197929646019 12.118456758145392,7.391278828630709 12.262276725002948,7.449798638520936" style="fill:none;stroke:black;stroke-width:1"/>
<polygon points="11.947414194129049,9.099197929646019 11.840401629286227,9.073215190418559 12.118456758145392,7.391278828630709" style="fill:none;stroke:black;stroke-width:1"/>
<polygon points="11.947414194129049,9.099197929646019 12.262276725002948,7.449798638520936 12.409321870375953,7.531839964889217" style="fill:none;stroke:black;stroke-width:1"/>
<polygon points="11.840401629286227,9.073215190418559 11.947414194129049,9.099197929646019 12.297936575293935,9.316203432498867" style="fill:none;stroke:black;stroke-width:1"/>
<polygon points="13.115967956219986,22.491679328310433 13.088553767043951,22.431284233149583 15.671687634384622,10.205475605887983" style="fill:none;stroke:black;stroke-width:1"/>
<polygon points="13.088553767043951,22.431284233149583 13.047026371069723,22.371950477348918 15.671687634384622,10.205475605887983" style="fill:none;stroke:black;stroke-width:1"/>
<polygon points="19.3753364014908,22.218979960917142 11.710137848444118,23.290140345832704 19.476110549378276,22.0914840869004" style="fill:none;stroke:black;stroke-width:1"/>
<polygon points="11.710137848444118,23.290140345832704 19.3753364014908,22.218979960917142 11.70895927986085,23.235223061138953" style="fill:none;stroke:black;stroke-width:1"/>
<polygon points="11.922990217449257,23.575340944691053 20.018702792269927,21.623860143465834 19.910422750295453,21.715678978478753" style="fill:none;stroke:black;stroke-width:1"/>
<polygon points="11.850717282605716,23.52518954077911 11.922990217449257,23.575340944691053 19.910422750295453,21.715678978478753" style="fill:none;stroke:black;stroke-width:1"/>
<polygon points="20.018702792269927,21.623860143465834 11.922990217449257,23.575340944691053 20.126982834244394,21.53204130845291" style="fill:none;stroke:black;stroke-width:1"/>
<polygon points="12.555432056118203,7.638587513767215 12.042995156485638,9.132037225862328 12.409321870375953,7.531839964889217" style="fill:none;stroke:black;stroke-width:1"/>
<polygon points="12.042995156485638,9.132037225862328 11.947414194129049,9.099197929646019 12.409321870375953,7.531839964889217" style="fill:none;stroke:black;stroke-width:1"/>
<polygon points="11.947414194129049,9.099197929646019 12.042995156485638,9.132037225862328 12.297936575293935,9.316203432498867" style="fill:none;stroke:black;stroke-width:1"/>
<polygon points="11.724336165474421,23.34925957006969 11.752106246183558,23.40984878726273 19.476110549378276,22.0914840869004" style="fill:none;stroke:black;stroke-width:1"/>
<polygon points="11.710137848444118,23.290140345832704 11.724336165474421,23.34925957006969 19.476110549378276,22.0914840869004" style="fill:none;stroke:black;stroke-width:1"/>
<polygon points="12.009467915880151,23.612350524872213 20.343567461716056,21.348337074401897 20.235262876218865,21.440222473439984" style="fill:none;stroke:black;stroke-width:1"/>
<polygon points="20.343567461716056,21.348337074401897 12.009467915880151,23.612350524872213 12.105825191721758,23.63109896888019" style="fill:none;stroke:black;stroke-width:1"/>
<polygon points="20.126982834244394,21.53204130845291 12.009467915880151,23.612350524872213 20.235262876218865,21.440222473439984" style="fill:none;stroke:black;stroke-width:1"/>
<polygon points="11.922990217449257,23.575340944691053 12.009467915880151,23.612350524872213 20.126982834244394,21.53204130845291" style="fill:none;stroke:black;stroke-width:1"/>
<polygon points="12.126491196068205,9.170945251661628 12.555432056118203,7.638587513767215 12.69644714408349,7.771225991186586" style="fill:none;stroke:black;stroke-width:1"/>
<polygon points="12.126491196068205,9.170945251661628 12.042995156485638,9.132037225862328 12.555432056118203,7.638587513767215" style="fill:none;stroke:black;stroke-width:1"/>
<polygon points="12.126491196068205,9.170945251661628 12.69644714408349,7.771225991186586 12.828207182436117,7.930940100862531" style="fill:none;stroke:black;stroke-width:1"/>
<polygon points="12.042995156485638,9.132037225862328 12.25461522576014,9.263816182385757 12.297936575293935,9.316203432498867" style="fill:none;stroke:black;stroke-width:1"/>
<polygon points="12.126491196068205,9.170945251661628 12.25461522576014,9.263816182385757 12.042995156485638,9.132037225862328" style="fill:none;stroke:black;stroke-width:1"/>
<polygon points="12.25461522576014,9.263816182385757 13.034567289305297,8.320584174536846 12.297936575293935,9.316203432498867" style="fill:none;stroke:black;stroke-width:1"/>
<polygon points="12.25461522576014,9.263816182385757 12.944173866331731,8.115806834526564 13.034567289305297,8.320584174536846" style="fill:none;stroke:black;stroke-width:1"/>
<polygon points="12.944173866331731,8.115806834526564 12.19724899258897,9.215134179638056 12.828207182436117,7.930940100862531" style="fill:none;stroke:black;stroke-width:1"/>
<polygon points="12.25461522576014,9.263816182385757 12.19724899258897,9.215134179638056 12.944173866331731,8.115806834526564" style="fill:none;stroke:black;stroke-width:1"/>
<polygon points="12.19724899258897,9.215134179638056 12.126491196068205,9.170945251661628 12.828207182436117,7.930940100862531" style="fill:none;stroke:black;stroke-width:1"/>
<polygon points="12.19724899258897,9.215134179638056 12.25461522576014,9.263816182385757 12.126491196068205,9.170945251661628" style="fill:none;stroke:black;stroke-width:1"/>
<polygon points="12.771662750721084,23.250151233209913 22.122247160854215,22.501515361167474 12.69769618686827,23.339749045922375" style="fill:none;stroke:black;stroke-width:1"/>
<polygon points="12.69769618686827,23.339749045922375 22.122247160854215,22.501515361167474 19.673153278347176,24.391502112731132" style="fill:none;stroke:black;stroke-width:1"/>
<polygon points="12.419971072888586,23.571486634624634 22.61698346588812,12.428639521067742 20.19174318729564,10.690698475923398" style="fill:none;stroke:black;stroke-width:1"/>
<polygon points="12.419971072888586,23.571486634624634 20.19174318729564,10.690698475923398 12.314380612077457,23.611220103186213" style="fill:none;stroke:black;stroke-width:1"/>
<polygon points="24.22550100188563,14.940402955806423 12.419971072888586,23.571486634624634 12.52235332870129,23.511263755641156" style="fill:none;stroke:black;stroke-width:1"/>
<polygon points="12.419971072888586,23.571486634624634 24.22550100188563,14.940402955806423 22.61698346588812,12.428639521067742" style="fill:none;stroke:black;stroke-width:1"/>
<polygon points="17.195183955307357,9.970791128158623 12.208584392054727,23.63091771134176 12.314380612077457,23.611220103186213" style="fill:none;stroke:black;stroke-width:1"/>
<polygon points="20.19174318729564,10.690698475923398 17.195183955307357,9.970791128158623 12.314380612077457,23.611220103186213" style="fill:none;stroke:black;stroke-width:1"/>
<polygon points="12.208584392054727,23.63091771134176 17.195183955307357,9.970791128158623 12.105825191721758,23.63109896888019" style="fill:none;stroke:black;stroke-width:1"/>
<polygon points="17.195183955307357,9.970791128158623 14.031088197136352,10.462082054692496 12.105825191721758,23.63109896888019" style="fill:none;stroke:black;stroke-width:1"/>
<polygon points="19.30792251270414,26.2675002179525 24.767931034482757,17.97344827586207 22.159927991339465,24.94661526388292" style="fill:none;stroke:black;stroke-width:1"/>
<polygon points="24.767931034482757,17.97344827586207 8.813645859366313,17.482257505601055 9.630263049448342,14.462668264213383" style="fill:none;stroke:black;stroke-width:1"/>
<polygon points="20.742491043610986,18.746661368325075 24.767931034482757,17.97344827586207 22.83258146497212,18.23864022942611" style="fill:none;stroke:black;stroke-width:1"/>
<polygon points="24.767931034482757,17.97344827586207 9.164575397622958,20.66006181684417 8.813645859366313,17.482257505601055" style="fill:none;stroke:black;stroke-width:1"/>
<polygon points="24.767931034482757,17.97344827586207 20.801950552651483,15.169746227403062 22.24371180395951,17.889685066884866" style="fill:none;stroke:black;stroke-width:1"/>
<polygon points="24.767931034482757,17.97344827586207 24.097693752624302,14.851519179387191 22.119991523877346,12.548959858779849" style="fill:none;stroke:black;stroke-width:1"/>
<polygon points="24.767931034482757,17.97344827586207 15.17498526811129,10.691907788281245 12.626740814681519,12.387926282141944" style="fill:none;stroke:black;stroke-width:1"/>
<polygon points="19.32085942808027,11.216352127536188 24.767931034482757,17.97344827586207 22.119991523877346,12.548959858779849" style="fill:none;stroke:black;stroke-width:1"/>
<polygon points="24.767931034482757,17.97344827586207 17.195183955307357,9.970791128158623 20.19174318729564,10.690698475923398" style="fill:none;stroke:black;stroke-width:1"/>
<polygon points="24.698676939197227,17.47268645396008 24.767931034482757,17.97344827586207 22.24371180395951,17.889685066884866" style="fill:none;stroke:black;stroke-width:1"/>
<polygon points="18.093097816860954,13.773573218190418 24.767931034482757,17.97344827586207 15.163538511324719,14.59788875539635" style="fill:none;stroke:black;stroke-width:1"/>
<polygon points="10.96024718097961,14.991192660939323 24.767931034482757,17.97344827586207 12.626740814681519,12.387926282141944" style="fill:none;stroke:black;stroke-width:1"/>
<polygon points="24.767931034482757,17.97344827586207 13.626783429696598,17.13182910213318 15.163538511324719,14.59788875539635" style="fill:none;stroke:black;stroke-width:1"/>
<polygon points="24.767931034482757,17.97344827586207 15.985037689523292,24.46842207133365 20.157558714320487,15.483374977006322" style="fill:none;stroke:black;stroke-width:1"/>
<polygon points="24.767931034482757,17.97344827586207 13.00663464950265,25.40777083974306 10.646147489411032,23.399909380054183" style="fill:none;stroke:black;stroke-width:1"/>
<polygon points="24.767931034482757,17.97344827586207 15.909040961005264,21.48907487273324 13.462284679688457,19.770320367781345" style="fill:none;stroke:black;stroke-width:1"/>
<polygon points="24.767931034482757,17.97344827586207 23.63825140344718,19.76493666722265 22.83258146497212,18.23864022942611" style="fill:none;stroke:black;stroke-width:1"/>
<polygon points="22.122247160854215,22.501515361167474 24.767931034482757,17.97344827586207 19.673153278347176,24.391502112731132" style="fill:none;stroke:black;stroke-width:1"/>
<polygon points="24.767931034482757,17.97344827586207 24.268328847862215,22.716117549434408 22.159927991339465,24.94661526388292" style="fill:none;stroke:black;stroke-width:1"/>
<polygon points="20.801950552651483,15.169746227403062 24.767931034482757,17.97344827586207 18.093097816860954,13.773573218190418" style="fill:none;stroke:black;stroke-width:1"/>
<polygon points="24.767931034482757,17.97344827586207 10.96024718097961,14.991192660939323 11.051571219825924,17.299202542911083" style="fill:none;stroke:black;stroke-width:1"/>
<polygon points="13.626783429696598,17.13182910213318 24.767931034482757,17.97344827586207 11.051571219825924,17.299202542911083" style="fill:none;stroke:black;stroke-width:1"/>
<polygon points="11.435313888389253,12.040967238272112 24.767931034482757,17.97344827586207 9.630263049448342,14.462668264213383" style="fill:none;stroke:black;stroke-width:1"/>
<polygon points="24.767931034482757,17.97344827586207 20.97406742354984,18.1157636245184 15.17498526811129,10.691907788281245" style="fill:none;stroke:black;stroke-width:1"/>
<polygon points="9.164575397622958,20.66006181684417 24.767931034482757,17.97344827586207 10.646147489411032,23.399909380054183" style="fill:none;stroke:black;stroke-width:1"/>
<polygon points="24.767931034482757,17.97344827586207 14.193199538522862,18.008235750746238 16.057304860122315,20.41590985352819" style="fill:none;stroke:black;stroke-width:1"/>
<polygon points="22.61698346588812,12.428639521067742 24.767931034482757,17.97344827586207 20.19174318729564,10.690698475923398" style="fill:none;stroke:black;stroke-width:1"/>
<polygon points="24.22550100188563,14.940402955806423 24.767931034482757,17.97344827586207 22.61698346588812,12.428639521067742" style="fill:none;stroke:black;stroke-width:1"/>
<polygon points="15.909040961005264,21.48907487273324 24.767931034482757,17.97344827586207 18.91733422949333,21.05208440397534" style="fill:none;stroke:black;stroke-width:1"/>
<polygon points="24.767931034482757,17.97344827586207 20.742491043610986,18.746661368325075 18.91733422949333,21.05208440397534" style="fill:none;stroke:black;stroke-width:1"/>
<polygon points="24.767931034482757,17.97344827586207 22.122247160854215,22.501515361167474 23.63825140344718,19.76493666722265" style="fill:none;stroke:black;stroke-width:1"/>
<polygon points="24.097693752624302,14.851519179387191 24.767931034482757,17.97344827586207 24.698676939197227,17.47268645396008" style="fill:none;stroke:black;stroke-width:1"/>
<polygon points="24.268328847862215,22.716117549434408 24.767931034482757,17.97344827586207 25.4335310345816,19.82045100626728" style="fill:none;stroke:black;stroke-width:1"/>
<polygon points="24.767931034482757,17.97344827586207 19.32085942808027,11.216352127536188 25.4335310345816,19.82045100626728" style="fill:none;stroke:black;stroke-width:1"/>
<polygon points="19.15446385173874,20.4432113680784 24.767931034482757,17.97344827586207 16.057304860122315,20.41590985352819" style="fill:none;stroke:black;stroke-width:1"/>
<polygon points="17.679111622102578,13.939698518720997 24.767931034482757,17.97344827586207 20.157558714320487,15.483374977006322" style="fill:none;stroke:black;stroke-width:1"/>
<polygon points="15.985037689523292,24.46842207133365 24.767931034482757,17.97344827586207 13.055832822995782,23.306833945224973" style="fill:none;stroke:black;stroke-width:1"/>
<polygon points="12.083807398833923,17.8252918179278 24.767931034482757,17.97344827586207 13.462284679688457,19.770320367781345" style="fill:none;stroke:black;stroke-width:1"/>
<polygon points="13.00663464950265,25.40777083974306 24.767931034482757,17.97344827586207 15.99981128989258,26.438219513936442" style="fill:none;stroke:black;stroke-width:1"/>
<polygon points="24.767931034482757,17.97344827586207 19.30792251270414,26.2675002179525 15.99981128989258,26.438219513936442" style="fill:none;stroke:black;stroke-width:1"/>
<polygon points="24.767931034482757,17.97344827586207 10.887105839347756,21.121287896140736 13.055832822995782,23.306833945224973" style="fill:none;stroke:black;stroke-width:1"/>
<polygon points="17.195183955307357,9.970791128158623 24.767931034482757,17.97344827586207 14.031088197136352,10.462082054692496" style="fill:none;stroke:black;stroke-width:1"/>
<polygon points="24.767931034482757,17.97344827586207 11.435313888389253,12.040967238272112 14.031088197136352,10.462082054692496" style="fill:none;stroke:black;stroke-width:1"/>
<polygon points="20.97406742354984,18.1157636245184 24.767931034482757,17.97344827586207 19.15446385173874,20.4432113680784" style="fill:none;stroke:black;stroke-width:1"/>
<polygon points="24.767931034482757,17.97344827586207 17.679111622102578,13.939698518720997 14.938196427193011,15.065440030918607" style="fill:none;stroke:black;stroke-width:1"/>
<polygon points="14.193199538522862,18.008235750746238 24.767931034482757,17.97344827586207 14.938196427193011,15.065440030918607" style="fill:none;stroke:black;stroke-width:1"/>
<polygon points="24.767931034482757,17.97344827586207 12.083807398833923,17.8252918179278 9.784451755246454,18.216917603025728" style="fill:none;stroke:black;stroke-width:1"/>
<polygon points="10.887105839347756,21.121287896140736 24.767931034482757,17.97344827586207 9.784451755246454,18.216917603025728" style="fill:none;stroke:black;stroke-width:1"/>
<polygon points="24.767931034482757,17.97344827586207 12.615158913598416,23.430677808411552 12.69769618686827,23.339749045922375" style="fill:none;stroke:black;stroke-width:1"/>
<polygon points="24.767931034482757,17.97344827586207 12.69769618686827,23.339749045922375 19.673153278347176,24.391502112731132" style="fill:none;stroke:black;stroke-width:1"/>
<polygon points="12.615158913598416,23.430677808411552 24.767931034482757,17.97344827586207 12.52235332870129,23.511263755641156" style="fill:none;stroke:black;stroke-width:1"/>
<polygon points="24.767931034482757,17.97344827586207 24.22550100188563,14.940402955806423 12.52235332870129,23.511263755641156" style="fill:none;stroke:black;stroke-width:1"/>
<polygon points="12.009467915880151,23.612350524872213 13.021861125336045,22.85537246538439 12.986005348868119,22.924018695433283" style="fill:none;stroke:black;stroke-width:1"/>
<polygon points="12.943707696566168,22.998714249545046 12.009467915880151,23.612350524872213 12.986005348868119,22.924018695433283" style="fill:none;stroke:black;stroke-width:1"/>
<polygon points="12.009467915880151,23.612350524872213 12.002375119484869,22.67701368358908 12.067782340419193,22.58961353661151" style="fill:none;stroke:black;stroke-width:1"/>
<polygon points="12.009467915880151,23.612350524872213 12.208584392054727,23.63091771134176 12.105825191721758,23.63109896888019" style="fill:none;stroke:black;stroke-width:1"/>
<polygon points="12.009467915880151,23.612350524872213 12.894260783199556,23.07860404586409 12.83706997165541,23.16275108623234" style="fill:none;stroke:black;stroke-width:1"/>
<polygon points="12.771662750721084,23.250151233209913 12.009467915880151,23.612350524872213 12.83706997165541,23.16275108623234" style="fill:none;stroke:black;stroke-width:1"/>
<polygon points="12.009467915880151,23.612350524872213 13.052084003430668,22.793535239799784 13.021861125336045,22.85537246538439" style="fill:none;stroke:black;stroke-width:1"/>
<polygon points="12.009467915880151,23.612350524872213 12.615158913598416,23.430677808411552 12.52235332870129,23.511263755641156" style="fill:none;stroke:black;stroke-width:1"/>
<polygon points="12.208584392054727,23.63091771134176 12.009467915880151,23.612350524872213 12.314380612077457,23.611220103186213" style="fill:none;stroke:black;stroke-width:1"/>
<polygon points="12.419971072888586,23.571486634624634 12.009467915880151,23.612350524872213 12.52235332870129,23.511263755641156" style="fill:none;stroke:black;stroke-width:1"/>
<polygon points="12.009467915880151,23.612350524872213 11.817583965804232,22.98439230443703 11.853439742272158,22.91574607438814" style="fill:none;stroke:black;stroke-width:1"/>
<polygon points="12.894260783199556,23.07860404586409 12.009467915880151,23.612350524872213 12.943707696566168,22.998714249545046" style="fill:none;stroke:black;stroke-width:1"/>
<polygon points="12.615158913598416,23.430677808411552 12.009467915880151,23.612350524872213 12.69769618686827,23.339749045922375" style="fill:none;stroke:black;stroke-width:1"/>
<polygon points="12.009467915880151,23.612350524872213 12.771662750721084,23.250151233209913 12.69769618686827,23.339749045922375" style="fill:none;stroke:black;stroke-width:1"/>
<polygon points="13.130743117923203,22.605136437800837 12.009467915880151,23.612350524872213 13.129847068102471,22.55054071205658" style="fill:none;stroke:black;stroke-width:1"/>
<polygon points="12.009467915880151,23.612350524872213 13.11919937015481,22.652595469621833 13.099296986178508,22.692779326155183" style="fill:none;stroke:black;stroke-width:1"/>
<polygon points="12.52461470060571,22.23073510819487 12.009467915880151,23.612350524872213 12.419504952652233,22.26963319246317" style="fill:none;stroke:black;stroke-width:1"/>
<polygon points="12.009467915880151,23.612350524872213 12.419971072888586,23.571486634624634 12.314380612077457,23.611220103186213" style="fill:none;stroke:black;stroke-width:1"/>
<polygon points="12.009467915880151,23.612350524872213 11.720257195251994,23.18737875190981 11.740148104961769,23.14698544366624" style="fill:none;stroke:black;stroke-width:1"/>
<polygon points="12.009467915880151,23.612350524872213 13.115967956219986,22.491679328310433 13.129847068102471,22.55054071205658" style="fill:none;stroke:black;stroke-width:1"/>
<polygon points="12.009467915880151,23.612350524872213 12.73382625523342,22.211734310445937 12.83106252007026,22.23023426357158" style="fill:none;stroke:black;stroke-width:1"/>
<polygon points="12.009467915880151,23.612350524872213 11.710137848444118,23.290140345832704 11.70895927986085,23.235223061138953" style="fill:none;stroke:black;stroke-width:1"/>
<polygon points="11.761873296355287,23.100605452808452 12.009467915880151,23.612350524872213 11.740148104961769,23.14698544366624" style="fill:none;stroke:black;stroke-width:1"/>
<polygon points="12.009467915880151,23.612350524872213 11.787361087709609,23.04622953002164 11.817583965804232,22.98439230443703" style="fill:none;stroke:black;stroke-width:1"/>
<polygon points="12.009467915880151,23.612350524872213 13.088553767043951,22.431284233149583 13.115967956219986,22.491679328310433" style="fill:none;stroke:black;stroke-width:1"/>
<polygon points="13.07757179478499,22.73915931701297 12.009467915880151,23.612350524872213 13.099296986178508,22.692779326155183" style="fill:none;stroke:black;stroke-width:1"/>
<polygon points="12.918614583312916,22.266342886611113 12.009467915880151,23.612350524872213 12.83106252007026,22.23023426357158" style="fill:none;stroke:black;stroke-width:1"/>
<polygon points="12.73382625523342,22.211734310445937 12.009467915880151,23.612350524872213 12.630512370788963,22.211657179874443" style="fill:none;stroke:black;stroke-width:1"/>
<polygon points="12.009467915880151,23.612350524872213 12.52461470060571,22.23073510819487 12.630512370788963,22.211657179874443" style="fill:none;stroke:black;stroke-width:1"/>
<polygon points="11.89573739457411,22.841050520276383 12.009467915880151,23.612350524872213 11.853439742272158,22.91574607438814" style="fill:none;stroke:black;stroke-width:1"/>
<polygon points="12.009467915880151,23.612350524872213 12.318425257212784,22.32896522630076 12.419504952652233,22.26963319246317" style="fill:none;stroke:black;stroke-width:1"/>
<polygon points="11.787361087709609,23.04622953002164 12.009467915880151,23.612350524872213 11.761873296355287,23.100605452808452" style="fill:none;stroke:black;stroke-width:1"/>
<polygon points="11.720257195251994,23.18737875190981 12.009467915880151,23.612350524872213 11.70895927986085,23.235223061138953" style="fill:none;stroke:black;stroke-width:1"/>
<polygon points="12.141748904272006,22.500015723899047 12.009467915880151,23.612350524872213 12.067782340419193,22.58961353661151" style="fill:none;stroke:black;stroke-width:1"/>
<polygon points="13.11919937015481,22.652595469621833 12.009467915880151,23.612350524872213 13.130743117923203,22.605136437800837" style="fill:none;stroke:black;stroke-width:1"/>
<polygon points="13.052084003430668,22.793535239799784 12.009467915880151,23.612350524872213 13.07757179478499,22.73915931701297" style="fill:none;stroke:black;stroke-width:1"/>
<polygon points="12.009467915880151,23.612350524872213 12.918614583312916,22.266342886611113 12.990764572843851,22.31614056832163" style="fill:none;stroke:black;stroke-width:1"/>
<polygon points="13.047026371069723,22.371950477348918 12.009467915880151,23.612350524872213 12.990764572843851,22.31614056832163" style="fill:none;stroke:black;stroke-width:1"/>
<polygon points="12.009467915880151,23.612350524872213 11.89573739457411,22.841050520276383 11.945184307940721,22.76116072395734" style="fill:none;stroke:black;stroke-width:1"/>
<polygon points="12.002375119484869,22.67701368358908 12.009467915880151,23.612350524872213 11.945184307940721,22.76116072395734" style="fill:none;stroke:black;stroke-width:1"/>
<polygon points="12.318425257212784,22.32896522630076 12.009467915880151,23.612350524872213 12.224482758620688,22.409310344827585" style="fill:none;stroke:black;stroke-width:1"/>
<polygon points="12.009467915880151,23.612350524872213 12.141748904272006,22.500015723899047 12.224482758620688,22.409310344827585" style="fill:none;stroke:black;stroke-width:1"/>
<polygon points="11.752106246183558,23.40984878726273 12.009467915880151,23.612350524872213 11.794026220076173,23.46931294663694" style="fill:none;stroke:black;stroke-width:1"/>
<polygon points="12.009467915880151,23.612350524872213 11.850717282605716,23.52518954077911 11.794026220076173,23.46931294663694" style="fill:none;stroke:black;stroke-width:1"/>
<polygon points="13.088553767043951,22.431284233149583 12.009467915880151,23.612350524872213 13.047026371069723,22.371950477348918" style="fill:none;stroke:black;stroke-width:1"/>
<polygon points="11.724336165474421,23.34925957006969 12.009467915880151,23.612350524872213 11.752106246183558,23.40984878726273" style="fill:none;stroke:black;stroke-width:1"/>
<polygon points="12.009467915880151,23.612350524872213 11.922990217449257,23.575340944691053 11.850717282605716,23.52518954077911" style="fill:none;stroke:black;stroke-width:1"/>
<polygon points="12.009467915880151,23.612350524872213 11.724336165474421,23.34925957006969 11.710137848444118,23.290140345832704" style="fill:none;stroke:black;stroke-width:1"/>
</svg>
