<?xml version="1.0" encoding="UTF-8" standalone="no"?>
<svg xmlns="http://www.w3.org/2000/svg" version="1.1" width="800" height="800">
<polygon points="18.739419179587653,9.99352050367363 18.895055598912585,7.830409745508039 19.468114940711708,9.984382739826504" style="fill:none;stroke:black;stroke-width:1"/>
<polygon points="17.132831370702007,5.771899608457833 16.609010469926613,5.82648346505803 16.735502562100812,5.565393179991446" style="fill:none;stroke:black;stroke-width:1"/>
<polygon points="19.05832235831096,5.619783246017305 20.53786077014029,5.32754656389055 20.979214331508835,5.837144627121409" style="fill:none;stroke:black;stroke-width:1"/>
<polygon points="18.00798266345364,4.9427160277886015 8.284918498450304,9.124708054475747 19.40138012027711,4.713588269093974" style="fill:none;stroke:black;stroke-width:1"/>
<polygon points="17.239849587865553,6.7885458118718365 17.42103448275862,7.2748275862068965 17.60690810158412,5.417846747448157" style="fill:none;stroke:black;stroke-width:1"/>
<polygon points="16.609010469926613,5.82648346505803 17.42103448275862,7.2748275862068965 16.735502562100812,5.565393179991446" style="fill:none;stroke:black;stroke-width:1"/>
<polygon points="17.42103448275862,7.2748275862068965 17.239849587865553,6.7885458118718365 16.735502562100812,5.565393179991446" style="fill:none;stroke:black;stroke-width:1"/>
<polygon points="17.731540898769655,4.998000399094184 17.16301143019613,6.418429270184501 17.60690810158412,5.417846747448157" style="fill:none;stroke:black;stroke-width:1"/>
<polygon points="17.16301143019613,6.418429270184501 17.239849587865553,6.7885458118718365 17.60690810158412,5.417846747448157" style="fill:none;stroke:black;stroke-width:1"/>
<polygon points="18.237059535858492,4.806807671286278 17.16301143019613,6.418429270184501 17.731540898769655,4.998000399094184" style="fill:none;stroke:black;stroke-width:1"/>
<polygon points="20.064879577930803,9.667494992452198 19.472734234973824,7.7574097637197275 20.43566004172792,8.947416679539492" style="fill:none;stroke:black;stroke-width:1"/>
<polygon points="19.472734234973824,7.7574097637197275 20.064879577930803,9.667494992452198 19.468114940711708,9.984382739826504" style="fill:none;stroke:black;stroke-width:1"/>
<polygon points="18.895055598912585,7.830409745508039 19.472734234973824,7.7574097637197275 19.468114940711708,9.984382739826504" style="fill:none;stroke:black;stroke-width:1"/>
<polygon points="18.71302329698234,6.427620764807506 20.52125927858948,8.407262738167312 20.43566004172792,8.947416679539492" style="fill:none;stroke:black;stroke-width:1"/>
<polygon points="19.472734234973824,7.7574097637197275 18.71302329698234,6.427620764807506 20.43566004172792,8.947416679539492" style="fill:none;stroke:black;stroke-width:1"/>
<polygon points="17.297785016699954,5.71013989380285 17.132831370702007,5.771899608457833 16.735502562100812,5.565393179991446" style="fill:none;stroke:black;stroke-width:1"/>
<polygon points="17.132831370702007,5.771899608457833 17.297785016699954,5.71013989380285 17.766661355904784,5.650790697385488" style="fill:none;stroke:black;stroke-width:1"/>
<polygon points="19.05832235831096,5.619783246017305 18.51493944795007,5.271834435469368 20.53786077014029,5.32754656389055" style="fill:none;stroke:black;stroke-width:1"/>
<polygon points="19.40138012027711,4.713588269093974 17.406202503847695,4.7002245716777615 18.776886741484844,4.673633526807523" style="fill:none;stroke:black;stroke-width:1"/>
<polygon points="16.893785831624356,4.899030265153115 17.16301143019613,6.418429270184501 18.237059535858492,4.806807671286278" style="fill:none;stroke:black;stroke-width:1"/>
<polygon points="17.16301143019613,6.418429270184501 16.893785831624356,4.899030265153115 17.239849587865553,6.7885458118718365" style="fill:none;stroke:black;stroke-width:1"/>
<polygon points="16.893785831624356,4.899030265153115 18.237059535858492,4.806807671286278 18.776886741484844,4.673633526807523" style="fill:none;stroke:black;stroke-width:1"/>
<polygon points="20.97325059012705,6.519664613980885 19.05832235831096,5.619783246017305 20.979214331508835,5.837144627121409" style="fill:none;stroke:black;stroke-width:1"/>
<polygon points="20.52125927858948,8.407262738167312 20.97325059012705,6.519664613980885 20.43566004172792,8.947416679539492" style="fill:none;stroke:black;stroke-width:1"/>
<polygon points="20.97325059012705,6.519664613980885 20.52125927858948,8.407262738167312 20.639248447599574,7.753446358337241" style="fill:none;stroke:black;stroke-width:1"/>
<polygon points="17.52247629745819,7.940747436490759 17.42103448275862,7.2748275862068965 16.609010469926613,5.82648346505803" style="fill:none;stroke:black;stroke-width:1"/>
<polygon points="17.42103448275862,7.2748275862068965 17.52247629745819,7.940747436490759 17.60690810158412,5.417846747448157" style="fill:none;stroke:black;stroke-width:1"/>
<polygon points="18.429094230265385,5.5493369315771774 18.754989124075212,5.662481310697132 17.766661355904784,5.650790697385488" style="fill:none;stroke:black;stroke-width:1"/>
<polygon points="18.71302329698234,6.427620764807506 18.857766730298273,5.944049562686658 20.52125927858948,8.407262738167312" style="fill:none;stroke:black;stroke-width:1"/>
<polygon points="20.52125927858948,8.407262738167312 18.857766730298273,5.944049562686658 20.639248447599574,7.753446358337241" style="fill:none;stroke:black;stroke-width:1"/>
<polygon points="18.857766730298273,5.944049562686658 18.429094230265385,5.5493369315771774 20.639248447599574,7.753446358337241" style="fill:none;stroke:black;stroke-width:1"/>
<polygon points="18.429094230265385,5.5493369315771774 18.857766730298273,5.944049562686658 18.754989124075212,5.662481310697132" style="fill:none;stroke:black;stroke-width:1"/>
<polygon points="24.252862363144366,20.332509383257676 19.472734234973824,7.7574097637197275 18.895055598912585,7.830409745508039" style="fill:none;stroke:black;stroke-width:1"/>
<polygon points="19.472734234973824,7.7574097637197275 24.252862363144366,20.332509383257676 24.296600730332422,20.178064903087268" style="fill:none;stroke:black;stroke-width:1"/>
<polygon points="23.724706748951803,21.759399603224924 23.818669221769348,21.62928090085399 18.895055598912585,7.830409745508039" style="fill:none;stroke:black;stroke-width:1"/>
<polygon points="17.692984162226704,6.749181771885432 17.297785016699954,5.71013989380285 16.735502562100812,5.565393179991446" style="fill:none;stroke:black;stroke-width:1"/>
<polygon points="17.239849587865553,6.7885458118718365 17.692984162226704,6.749181771885432 16.735502562100812,5.565393179991446" style="fill:none;stroke:black;stroke-width:1"/>
<polygon points="16.893785831624356,4.899030265153115 17.692984162226704,6.749181771885432 17.239849587865553,6.7885458118718365" style="fill:none;stroke:black;stroke-width:1"/>
<polygon points="17.297785016699954,5.71013989380285 17.893126097959108,5.850989997509596 17.766661355904784,5.650790697385488" style="fill:none;stroke:black;stroke-width:1"/>
<polygon points="17.893126097959108,5.850989997509596 18.429094230265385,5.5493369315771774 17.766661355904784,5.650790697385488" style="fill:none;stroke:black;stroke-width:1"/>
<polygon points="18.429094230265385,5.5493369315771774 17.893126097959108,5.850989997509596 18.64439499863261,5.0069949514084815" style="fill:none;stroke:black;stroke-width:1"/>
<polygon points="18.51493944795007,5.271834435469368 19.949274755039482,5.105416044424627 20.53786077014029,5.32754656389055" style="fill:none;stroke:black;stroke-width:1"/>
<polygon points="19.949274755039482,5.105416044424627 18.51493944795007,5.271834435469368 18.00798266345364,4.9427160277886015" style="fill:none;stroke:black;stroke-width:1"/>
<polygon points="20.53786077014029,5.32754656389055 19.949274755039482,5.105416044424627 19.40138012027711,4.713588269093974" style="fill:none;stroke:black;stroke-width:1"/>
<polygon points="19.949274755039482,5.105416044424627 18.00798266345364,4.9427160277886015 19.40138012027711,4.713588269093974" style="fill:none;stroke:black;stroke-width:1"/>
<polygon points="19.065145435542863,6.2540720067144 18.51493944795007,5.271834435469368 19.05832235831096,5.619783246017305" style="fill:none;stroke:black;stroke-width:1"/>
<polygon points="20.97325059012705,6.519664613980885 19.065145435542863,6.2540720067144 19.05832235831096,5.619783246017305" style="fill:none;stroke:black;stroke-width:1"/>
<polygon points="20.668308122688966,7.058758214588551 20.97325059012705,6.519664613980885 20.639248447599574,7.753446358337241" style="fill:none;stroke:black;stroke-width:1"/>
<polygon points="18.429094230265385,5.5493369315771774 20.668308122688966,7.058758214588551 20.639248447599574,7.753446358337241" style="fill:none;stroke:black;stroke-width:1"/>
<polygon points="20.668308122688966,7.058758214588551 18.429094230265385,5.5493369315771774 18.64439499863261,5.0069949514084815" style="fill:none;stroke:black;stroke-width:1"/>
<polygon points="19.065145435542863,6.2540720067144 20.668308122688966,7.058758214588551 18.64439499863261,5.0069949514084815" style="fill:none;stroke:black;stroke-width:1"/>
<polygon points="20.668308122688966,7.058758214588551 19.065145435542863,6.2540720067144 20.97325059012705,6.519664613980885" style="fill:none;stroke:black;stroke-width:1"/>
<polygon points="10.904073027232823,20.195418647276956 18.336663181918684,5.7185418477346985 17.766661355904784,5.650790697385488" style="fill:none;stroke:black;stroke-width:1"/>
<polygon points="12.405969265545524,24.963911600989842 18.336663181918684,5.7185418477346985 12.285577291450755,25.010726395470613" style="fill:none;stroke:black;stroke-width:1"/>
<polygon points="18.336663181918684,5.7185418477346985 17.132831370702007,5.771899608457833 17.766661355904784,5.650790697385488" style="fill:none;stroke:black;stroke-width:1"/>
<polygon points="24.252862363144366,20.332509383257676 23.697931034482757,19.00862068965517 24.296600730332422,20.178064903087268" style="fill:none;stroke:black;stroke-width:1"/>
<polygon points="24.158590212855028,19.21718217635983 23.985634999649832,26.999040626648448 18.71302329698234,6.427620764807506" style="fill:none;stroke:black;stroke-width:1"/>
<polygon points="24.37267722568055,19.673248718589832 18.71302329698234,6.427620764807506 19.472734234973824,7.7574097637197275" style="fill:none;stroke:black;stroke-width:1"/>
<polygon points="24.37267722568055,19.673248718589832 24.336961408712376,19.50448432091955 18.71302329698234,6.427620764807506" style="fill:none;stroke:black;stroke-width:1"/>
<polygon points="24.36866235124996,19.848149006983164 24.37267722568055,19.673248718589832 19.472734234973824,7.7574097637197275" style="fill:none;stroke:black;stroke-width:1"/>
<polygon points="18.14614197355137,9.650854404286795 18.27481867334423,7.567373752485687 18.739419179587653,9.99352050367363" style="fill:none;stroke:black;stroke-width:1"/>
<polygon points="18.27481867334423,7.567373752485687 18.895055598912585,7.830409745508039 18.739419179587653,9.99352050367363" style="fill:none;stroke:black;stroke-width:1"/>
<polygon points="17.692984162226704,6.749181771885432 18.162006513719795,6.627299833778276 17.297785016699954,5.71013989380285" style="fill:none;stroke:black;stroke-width:1"/>
<polygon points="18.162006513719795,6.627299833778276 17.893126097959108,5.850989997509596 17.297785016699954,5.71013989380285" style="fill:none;stroke:black;stroke-width:1"/>
<polygon points="8.376314104150543,9.004111336607258 8.284918498450304,9.124708054475747 18.00798266345364,4.9427160277886015" style="fill:none;stroke:black;stroke-width:1"/>
<polygon points="8.466043765160133,8.885812077223829 8.376314104150543,9.004111336607258 18.00798266345364,4.9427160277886015" style="fill:none;stroke:black;stroke-width:1"/>
<polygon points="8.640139295340207,8.655662348739842 8.554015992037282,8.769699380032382 18.00798266345364,4.9427160277886015" style="fill:none;stroke:black;stroke-width:1"/>
<polygon points="8.554015992037282,8.769699380032382 8.466043765160133,8.885812077223829 18.00798266345364,4.9427160277886015" style="fill:none;stroke:black;stroke-width:1"/>
<polygon points="18.857766730298273,5.944049562686658 12.587261347018046,5.7554639712922135 18.754989124075212,5.662481310697132" style="fill:none;stroke:black;stroke-width:1"/>
<polygon points="8.568033431299694,8.325597391953202 12.587261347018046,5.7554639712922135 18.857766730298273,5.944049562686658" style="fill:none;stroke:black;stroke-width:1"/>
<polygon points="18.27481867334423,7.567373752485687 23.140244977381386,22.055007070203217 18.895055598912585,7.830409745508039" style="fill:none;stroke:black;stroke-width:1"/>
<polygon points="17.839193768572006,6.30684666015939 17.924432080139887,6.878608525961384 17.8478165214027,9.062455329337674" style="fill:none;stroke:black;stroke-width:1"/>
<polygon points="17.924432080139887,6.878608525961384 18.14614197355137,9.650854404286795 17.8478165214027,9.062455329337674" style="fill:none;stroke:black;stroke-width:1"/>
<polygon points="17.90383757021037,5.8041806341999775 17.52247629745819,7.940747436490759 16.609010469926613,5.82648346505803" style="fill:none;stroke:black;stroke-width:1"/>
<polygon points="17.132831370702007,5.771899608457833 17.90383757021037,5.8041806341999775 16.609010469926613,5.82648346505803" style="fill:none;stroke:black;stroke-width:1"/>
<polygon points="24.336961408712376,19.50448432091955 24.26417994572513,19.350350304411762 18.71302329698234,6.427620764807506" style="fill:none;stroke:black;stroke-width:1"/>
<polygon points="24.26417994572513,19.350350304411762 24.158590212855028,19.21718217635983 18.71302329698234,6.427620764807506" style="fill:none;stroke:black;stroke-width:1"/>
<polygon points="24.26417994572513,19.350350304411762 24.36866235124996,19.848149006983164 24.158590212855028,19.21718217635983" style="fill:none;stroke:black;stroke-width:1"/>
<polygon points="24.37267722568055,19.673248718589832 24.26417994572513,19.350350304411762 24.336961408712376,19.50448432091955" style="fill:none;stroke:black;stroke-width:1"/>
<polygon points="24.26417994572513,19.350350304411762 24.37267722568055,19.673248718589832 24.36866235124996,19.848149006983164" style="fill:none;stroke:black;stroke-width:1"/>
<polygon points="24.158590212855028,19.21718217635983 24.024567349380426,19.110529218714774 23.985634999649832,26.999040626648448" style="fill:none;stroke:black;stroke-width:1"/>
<polygon points="24.024567349380426,19.110529218714774 23.697931034482757,19.00862068965517 23.86648649457969,19.035940713427625" style="fill:none;stroke:black;stroke-width:1"/>
<polygon points="23.697931034482757,19.00862068965517 24.024567349380426,19.110529218714774 24.296600730332422,20.178064903087268" style="fill:none;stroke:black;stroke-width:1"/>
<polygon points="24.33581654015963,20.016393724048694 19.472734234973824,7.7574097637197275 24.296600730332422,20.178064903087268" style="fill:none;stroke:black;stroke-width:1"/>
<polygon points="24.33581654015963,20.016393724048694 24.36866235124996,19.848149006983164 19.472734234973824,7.7574097637197275" style="fill:none;stroke:black;stroke-width:1"/>
<polygon points="24.36866235124996,19.848149006983164 24.33581654015963,20.016393724048694 24.158590212855028,19.21718217635983" style="fill:none;stroke:black;stroke-width:1"/>
<polygon points="24.024567349380426,19.110529218714774 24.33581654015963,20.016393724048694 24.296600730332422,20.178064903087268" style="fill:none;stroke:black;stroke-width:1"/>
<polygon points="24.33581654015963,20.016393724048694 24.024567349380426,19.110529218714774 24.158590212855028,19.21718217635983" style="fill:none;stroke:black;stroke-width:1"/>
<polygon points="19.065145435542863,6.2540720067144 10.143820304093179,8.70743895876122 18.51493944795007,5.271834435469368" style="fill:none;stroke:black;stroke-width:1"/>
<polygon points="9.737482168271677,9.871113511059708 10.143820304093179,8.70743895876122 10.195091256901224,8.888085991405836" style="fill:none;stroke:black;stroke-width:1"/>
<polygon points="18.63102886521289,6.505417895671118 19.065145435542863,6.2540720067144 18.64439499863261,5.0069949514084815" style="fill:none;stroke:black;stroke-width:1"/>
<polygon points="17.893126097959108,5.850989997509596 18.63102886521289,6.505417895671118 18.64439499863261,5.0069949514084815" style="fill:none;stroke:black;stroke-width:1"/>
<polygon points="18.63102886521289,6.505417895671118 10.143820304093179,8.70743895876122 19.065145435542863,6.2540720067144" style="fill:none;stroke:black;stroke-width:1"/>
<polygon points="10.143820304093179,8.70743895876122 18.63102886521289,6.505417895671118 10.195091256901224,8.888085991405836" style="fill:none;stroke:black;stroke-width:1"/>
<polygon points="18.162006513719795,6.627299833778276 18.63102886521289,6.505417895671118 17.893126097959108,5.850989997509596" style="fill:none;stroke:black;stroke-width:1"/>
<polygon points="8.887835256057897,10.861814913516643 8.376314104150543,9.004111336607258 8.466043765160133,8.885812077223829" style="fill:none;stroke:black;stroke-width:1"/>
<polygon points="8.724322185627116,8.543590087053133 8.640139295340207,8.655662348739842 18.00798266345364,4.9427160277886015" style="fill:none;stroke:black;stroke-width:1"/>
<polygon points="18.51493944795007,5.271834435469368 9.151686633179246,8.180624943847883 18.00798266345364,4.9427160277886015" style="fill:none;stroke:black;stroke-width:1"/>
<polygon points="9.30441225533734,8.154051221759262 9.151686633179246,8.180624943847883 18.51493944795007,5.271834435469368" style="fill:none;stroke:black;stroke-width:1"/>
<polygon points="17.081930303676668,10.05697307650974 12.48794827458313,11.431701250456895 18.857766730298273,5.944049562686658" style="fill:none;stroke:black;stroke-width:1"/>
<polygon points="18.336663181918684,5.7185418477346985 12.163203201714751,25.059402520432272 12.285577291450755,25.010726395470613" style="fill:none;stroke:black;stroke-width:1"/>
<polygon points="22.389993025231355,21.70848711291444 18.27481867334423,7.567373752485687 18.14614197355137,9.650854404286795" style="fill:none;stroke:black;stroke-width:1"/>
<polygon points="17.924432080139887,6.878608525961384 22.389993025231355,21.70848711291444 18.14614197355137,9.650854404286795" style="fill:none;stroke:black;stroke-width:1"/>
<polygon points="17.90383757021037,5.8041806341999775 17.71507123961073,8.546428999841698 17.52247629745819,7.940747436490759" style="fill:none;stroke:black;stroke-width:1"/>
<polygon points="17.71507123961073,8.546428999841698 17.90383757021037,5.8041806341999775 17.839193768572006,6.30684666015939" style="fill:none;stroke:black;stroke-width:1"/>
<polygon points="17.71507123961073,8.546428999841698 17.839193768572006,6.30684666015939 17.8478165214027,9.062455329337674" style="fill:none;stroke:black;stroke-width:1"/>
<polygon points="17.71507123961073,8.546428999841698 17.8478165214027,9.062455329337674 17.60690810158412,5.417846747448157" style="fill:none;stroke:black;stroke-width:1"/>
<polygon points="17.52247629745819,7.940747436490759 17.71507123961073,8.546428999841698 17.60690810158412,5.417846747448157" style="fill:none;stroke:black;stroke-width:1"/>
<polygon points="23.818669221769348,21.62928090085399 23.884109633405604,21.482877123450198 18.895055598912585,7.830409745508039" style="fill:none;stroke:black;stroke-width:1"/>
<polygon points="23.884109633405604,21.482877123450198 23.93016047232696,21.339402435325347 18.895055598912585,7.830409745508039" style="fill:none;stroke:black;stroke-width:1"/>
<polygon points="23.884109633405604,21.482877123450198 23.818669221769348,21.62928090085399 22.725215784285023,19.719097614749977" style="fill:none;stroke:black;stroke-width:1"/>
<polygon points="24.02225621844892,21.052468575909963 24.068304091509898,20.909001646202274 18.895055598912585,7.830409745508039" style="fill:none;stroke:black;stroke-width:1"/>
<polygon points="24.02225621844892,21.052468575909963 23.05084104295084,19.193634665669972 24.068304091509898,20.909001646202274" style="fill:none;stroke:black;stroke-width:1"/>
<polygon points="24.20644771069283,20.478600857079197 24.252862363144366,20.332509383257676 18.895055598912585,7.830409745508039" style="fill:none;stroke:black;stroke-width:1"/>
<polygon points="24.16039983763185,20.62206778678689 24.20644771069283,20.478600857079197 18.895055598912585,7.830409745508039" style="fill:none;stroke:black;stroke-width:1"/>
<polygon points="24.20644771069283,20.478600857079197 23.697931034482757,19.00862068965517 24.252862363144366,20.332509383257676" style="fill:none;stroke:black;stroke-width:1"/>
<polygon points="24.068304091509898,20.909001646202274 24.114351964570876,20.76553471649458 18.895055598912585,7.830409745508039" style="fill:none;stroke:black;stroke-width:1"/>
<polygon points="24.114351964570876,20.76553471649458 24.16039983763185,20.62206778678689 18.895055598912585,7.830409745508039" style="fill:none;stroke:black;stroke-width:1"/>
<polygon points="23.697931034482757,19.00862068965517 6.344383026374622,24.60427179331463 23.86648649457969,19.035940713427625" style="fill:none;stroke:black;stroke-width:1"/>
<polygon points="23.818669221769348,21.62928090085399 22.67916791122405,19.862564544457673 22.725215784285023,19.719097614749977" style="fill:none;stroke:black;stroke-width:1"/>
<polygon points="23.724706748951803,21.759399603224924 22.67916791122405,19.862564544457673 23.818669221769348,21.62928090085399" style="fill:none;stroke:black;stroke-width:1"/>
<polygon points="23.466537366075368,21.958378464432858 22.54102429204111,20.292965333580746 22.58707216510209,20.149498403873054" style="fill:none;stroke:black;stroke-width:1"/>
<polygon points="11.42066368936116,24.081970851856134 17.924432080139887,6.878608525961384 17.839193768572006,6.30684666015939" style="fill:none;stroke:black;stroke-width:1"/>
<polygon points="11.541055663455927,24.03515605737536 11.42066368936116,24.081970851856134 17.839193768572006,6.30684666015939" style="fill:none;stroke:black;stroke-width:1"/>
<polygon points="25.78456167342478,17.547233410581068 27.081016909526394,19.8521761186418 18.336663181918684,5.7185418477346985" style="fill:none;stroke:black;stroke-width:1"/>
<polygon points="18.857766730298273,5.944049562686658 27.515342643325788,15.59841107879448 23.632146559280898,16.32452486490483" style="fill:none;stroke:black;stroke-width:1"/>
<polygon points="27.515342643325788,15.59841107879448 18.857766730298273,5.944049562686658 18.71302329698234,6.427620764807506" style="fill:none;stroke:black;stroke-width:1"/>
<polygon points="9.876992103962117,9.665031734020294 10.152330935998393,9.25095642748379 9.966496486237006,9.546137813033475" style="fill:none;stroke:black;stroke-width:1"/>
<polygon points="18.162006513719795,6.627299833778276 9.876992103962117,9.665031734020294 9.966496486237006,9.546137813033475" style="fill:none;stroke:black;stroke-width:1"/>
<polygon points="18.63102886521289,6.505417895671118 10.197703794161171,9.072596141280595 10.195091256901224,8.888085991405836" style="fill:none;stroke:black;stroke-width:1"/>
<polygon points="10.197703794161171,9.072596141280595 18.63102886521289,6.505417895671118 10.152330935998393,9.25095642748379" style="fill:none;stroke:black;stroke-width:1"/>
<polygon points="9.876992103962117,9.665031734020294 10.197703794161171,9.072596141280595 10.152330935998393,9.25095642748379" style="fill:none;stroke:black;stroke-width:1"/>
<polygon points="10.197703794161171,9.072596141280595 9.737482168271677,9.871113511059708 10.195091256901224,8.888085991405836" style="fill:none;stroke:black;stroke-width:1"/>
<polygon points="10.063604850117635,9.411131993287302 18.63102886521289,6.505417895671118 18.162006513719795,6.627299833778276" style="fill:none;stroke:black;stroke-width:1"/>
<polygon points="18.63102886521289,6.505417895671118 10.063604850117635,9.411131993287302 10.152330935998393,9.25095642748379" style="fill:none;stroke:black;stroke-width:1"/>
<polygon points="10.063604850117635,9.411131993287302 18.162006513719795,6.627299833778276 9.966496486237006,9.546137813033475" style="fill:none;stroke:black;stroke-width:1"/>
<polygon points="10.152330935998393,9.25095642748379 10.063604850117635,9.411131993287302 9.966496486237006,9.546137813033475" style="fill:none;stroke:black;stroke-width:1"/>
<polygon points="8.554015992037282,8.769699380032382 9.039317167022602,10.793010070472185 8.466043765160133,8.885812077223829" style="fill:none;stroke:black;stroke-width:1"/>
<polygon points="9.039317167022602,10.793010070472185 8.887835256057897,10.861814913516643 8.466043765160133,8.885812077223829" style="fill:none;stroke:black;stroke-width:1"/>
<polygon points="9.039317167022602,10.793010070472185 8.554015992037282,8.769699380032382 8.640139295340207,8.655662348739842" style="fill:none;stroke:black;stroke-width:1"/>
<polygon points="8.376314104150543,9.004111336607258 8.71600503642124,10.904145197426622 8.284918498450304,9.124708054475747" style="fill:none;stroke:black;stroke-width:1"/>
<polygon points="8.887835256057897,10.861814913516643 8.71600503642124,10.904145197426622 8.376314104150543,9.004111336607258" style="fill:none;stroke:black;stroke-width:1"/>
<polygon points="8.71600503642124,10.904145197426622 8.887835256057897,10.861814913516643 8.530546047259865,10.917942677392267" style="fill:none;stroke:black;stroke-width:1"/>
<polygon points="8.896816844817561,8.324472150428026 8.806473173456224,8.433371698679178 18.00798266345364,4.9427160277886015" style="fill:none;stroke:black;stroke-width:1"/>
<polygon points="8.806473173456224,8.433371698679178 8.724322185627116,8.543590087053133 18.00798266345364,4.9427160277886015" style="fill:none;stroke:black;stroke-width:1"/>
<polygon points="9.013779126181435,8.238199704110695 8.896816844817561,8.324472150428026 18.00798266345364,4.9427160277886015" style="fill:none;stroke:black;stroke-width:1"/>
<polygon points="9.151686633179246,8.180624943847883 9.013779126181435,8.238199704110695 18.00798266345364,4.9427160277886015" style="fill:none;stroke:black;stroke-width:1"/>
<polygon points="8.097495410745026,9.373237450840211 17.406202503847695,4.7002245716777615 19.40138012027711,4.713588269093974" style="fill:none;stroke:black;stroke-width:1"/>
<polygon points="8.097495410745026,9.373237450840211 8.001650907623564,9.501391921922336 17.406202503847695,4.7002245716777615" style="fill:none;stroke:black;stroke-width:1"/>
<polygon points="7.675134042148176,10.292259293741603 16.893785831624356,4.899030265153115 18.776886741484844,4.673633526807523" style="fill:none;stroke:black;stroke-width:1"/>
<polygon points="7.969203002781556,10.763464692670876 17.692984162226704,6.749181771885432 16.893785831624356,4.899030265153115" style="fill:none;stroke:black;stroke-width:1"/>
<polygon points="7.8271177191016506,10.63332912799949 7.969203002781556,10.763464692670876 16.893785831624356,4.899030265153115" style="fill:none;stroke:black;stroke-width:1"/>
<polygon points="21.34179864687777,12.154515904210871 18.857766730298273,5.944049562686658 23.632146559280898,16.32452486490483" style="fill:none;stroke:black;stroke-width:1"/>
<polygon points="21.34179864687777,12.154515904210871 17.081930303676668,10.05697307650974 18.857766730298273,5.944049562686658" style="fill:none;stroke:black;stroke-width:1"/>
<polygon points="5.936851185112072,12.309223609630482 8.568033431299694,8.325597391953202 18.857766730298273,5.944049562686658" style="fill:none;stroke:black;stroke-width:1"/>
<polygon points="6.0629993816162635,15.828753903148467 5.936851185112072,12.309223609630482 18.857766730298273,5.944049562686658" style="fill:none;stroke:black;stroke-width:1"/>
<polygon points="12.48794827458313,11.431701250456895 10.081224108900937,15.479107972083101 18.857766730298273,5.944049562686658" style="fill:none;stroke:black;stroke-width:1"/>
<polygon points="10.081224108900937,15.479107972083101 6.0629993816162635,15.828753903148467 18.857766730298273,5.944049562686658" style="fill:none;stroke:black;stroke-width:1"/>
<polygon points="18.754989124075212,5.662481310697132 9.936388369974958,25.829290582840148 17.766661355904784,5.650790697385488" style="fill:none;stroke:black;stroke-width:1"/>
<polygon points="11.911672739071399,25.161261148344444 12.038629339343466,25.109676873765405 18.336663181918684,5.7185418477346985" style="fill:none;stroke:black;stroke-width:1"/>
<polygon points="12.038629339343466,25.109676873765405 12.163203201714751,25.059402520432272 18.336663181918684,5.7185418477346985" style="fill:none;stroke:black;stroke-width:1"/>
<polygon points="11.782188012833128,25.213846378803275 11.911672739071399,25.161261148344444 18.336663181918684,5.7185418477346985" style="fill:none;stroke:black;stroke-width:1"/>
<polygon points="23.93016047232696,21.339402435325347 23.97620834538794,21.195935505617655 18.895055598912585,7.830409745508039" style="fill:none;stroke:black;stroke-width:1"/>
<polygon points="23.97620834538794,21.195935505617655 24.02225621844892,21.052468575909963 18.895055598912585,7.830409745508039" style="fill:none;stroke:black;stroke-width:1"/>
<polygon points="22.836488119513294,19.431370670314294 23.97620834538794,21.195935505617655 23.93016047232696,21.339402435325347" style="fill:none;stroke:black;stroke-width:1"/>
<polygon points="23.05084104295084,19.193634665669972 23.19161223591899,19.106351382631583 24.068304091509898,20.909001646202274" style="fill:none;stroke:black;stroke-width:1"/>
<polygon points="23.19161223591899,19.106351382631583 24.114351964570876,20.76553471649458 24.068304091509898,20.909001646202274" style="fill:none;stroke:black;stroke-width:1"/>
<polygon points="3.640574870479472,15.43298427988304 23.19161223591899,19.106351382631583 4.98797475755508,10.766777039006683" style="fill:none;stroke:black;stroke-width:1"/>
<polygon points="23.19161223591899,19.106351382631583 23.05084104295084,19.193634665669972 4.98797475755508,10.766777039006683" style="fill:none;stroke:black;stroke-width:1"/>
<polygon points="22.771302006600255,19.575526678752965 23.884109633405604,21.482877123450198 22.725215784285023,19.719097614749977" style="fill:none;stroke:black;stroke-width:1"/>
<polygon points="23.884109633405604,21.482877123450198 22.771302006600255,19.575526678752965 23.93016047232696,21.339402435325347" style="fill:none;stroke:black;stroke-width:1"/>
<polygon points="22.771302006600255,19.575526678752965 22.836488119513294,19.431370670314294 23.93016047232696,21.339402435325347" style="fill:none;stroke:black;stroke-width:1"/>
<polygon points="4.111525123167564,20.355765067553847 6.344383026374622,24.60427179331463 23.697931034482757,19.00862068965517" style="fill:none;stroke:black;stroke-width:1"/>
<polygon points="14.536354724501205,29.31860544709956 24.024567349380426,19.110529218714774 23.86648649457969,19.035940713427625" style="fill:none;stroke:black;stroke-width:1"/>
<polygon points="11.984915382195434,4.64434170493888 22.771302006600255,19.575526678752965 10.854011787895363,25.22093063335715" style="fill:none;stroke:black;stroke-width:1"/>
<polygon points="22.494976418980134,20.436432263288438 23.140244977381386,22.055007070203217 22.448928545919156,20.579899192996127" style="fill:none;stroke:black;stroke-width:1"/>
<polygon points="22.633120038163067,20.00603147416536 22.67916791122405,19.862564544457673 23.724706748951803,21.759399603224924" style="fill:none;stroke:black;stroke-width:1"/>
<polygon points="23.466537366075368,21.958378464432858 23.309991329167755,22.021036964052158 22.54102429204111,20.292965333580746" style="fill:none;stroke:black;stroke-width:1"/>
<polygon points="22.494976418980134,20.436432263288438 23.309991329167755,22.021036964052158 23.140244977381386,22.055007070203217" style="fill:none;stroke:black;stroke-width:1"/>
<polygon points="23.309991329167755,22.021036964052158 22.494976418980134,20.436432263288438 22.54102429204111,20.292965333580746" style="fill:none;stroke:black;stroke-width:1"/>
<polygon points="23.140244977381386,22.055007070203217 23.309991329167755,22.021036964052158 18.895055598912585,7.830409745508039" style="fill:none;stroke:black;stroke-width:1"/>
<polygon points="23.309991329167755,22.021036964052158 23.466537366075368,21.958378464432858 18.895055598912585,7.830409745508039" style="fill:none;stroke:black;stroke-width:1"/>
<polygon points="17.90383757021037,5.8041806341999775 12.59401152368768,23.681786940136494 17.839193768572006,6.30684666015939" style="fill:none;stroke:black;stroke-width:1"/>
<polygon points="17.924432080139887,6.878608525961384 11.068758988172648,24.20907814270847 22.319559716452353,21.042106326026634" style="fill:none;stroke:black;stroke-width:1"/>
<polygon points="14.798565244362774,22.829071612472422 18.336663181918684,5.7185418477346985 10.904073027232823,20.195418647276956" style="fill:none;stroke:black;stroke-width:1"/>
<polygon points="14.798565244362774,22.829071612472422 19.56339079973901,22.085829065067575 18.336663181918684,5.7185418477346985" style="fill:none;stroke:black;stroke-width:1"/>
<polygon points="22.471482329812044,18.415569893526076 25.78456167342478,17.547233410581068 18.336663181918684,5.7185418477346985" style="fill:none;stroke:black;stroke-width:1"/>
<polygon points="19.56339079973901,22.085829065067575 22.471482329812044,18.415569893526076 18.336663181918684,5.7185418477346985" style="fill:none;stroke:black;stroke-width:1"/>
<polygon points="27.081016909526394,19.8521761186418 24.739546224003277,24.044102828736968 18.336663181918684,5.7185418477346985" style="fill:none;stroke:black;stroke-width:1"/>
<polygon points="24.739546224003277,24.044102828736968 11.782188012833128,25.213846378803275 18.336663181918684,5.7185418477346985" style="fill:none;stroke:black;stroke-width:1"/>
<polygon points="23.60679801326631,7.776607655516788 26.632590422319794,11.434801533936376 18.71302329698234,6.427620764807506" style="fill:none;stroke:black;stroke-width:1"/>
<polygon points="26.632590422319794,11.434801533936376 27.515342643325788,15.59841107879448 18.71302329698234,6.427620764807506" style="fill:none;stroke:black;stroke-width:1"/>
<polygon points="23.985634999649832,26.999040626648448 27.19448625061482,23.535847057971232 18.71302329698234,6.427620764807506" style="fill:none;stroke:black;stroke-width:1"/>
<polygon points="27.19448625061482,23.535847057971232 28.93301617715205,19.043873176027457 18.71302329698234,6.427620764807506" style="fill:none;stroke:black;stroke-width:1"/>
<polygon points="19.304589641155815,5.642507126656691 23.60679801326631,7.776607655516788 18.71302329698234,6.427620764807506" style="fill:none;stroke:black;stroke-width:1"/>
<polygon points="28.93301617715205,19.043873176027457 19.304589641155815,5.642507126656691 18.71302329698234,6.427620764807506" style="fill:none;stroke:black;stroke-width:1"/>
<polygon points="9.790226999146924,8.283369802115788 9.62980940323975,8.203120300583281 18.51493944795007,5.271834435469368" style="fill:none;stroke:black;stroke-width:1"/>
<polygon points="10.143820304093179,8.70743895876122 10.055936429219365,8.542206319878908 18.51493944795007,5.271834435469368" style="fill:none;stroke:black;stroke-width:1"/>
<polygon points="10.055936429219365,8.542206319878908 10.143820304093179,8.70743895876122 9.737482168271677,9.871113511059708" style="fill:none;stroke:black;stroke-width:1"/>
<polygon points="10.197703794161171,9.072596141280595 9.799307219629023,9.771958272089952 9.737482168271677,9.871113511059708" style="fill:none;stroke:black;stroke-width:1"/>
<polygon points="9.799307219629023,9.771958272089952 10.197703794161171,9.072596141280595 9.876992103962117,9.665031734020294" style="fill:none;stroke:black;stroke-width:1"/>
<polygon points="9.799307219629023,9.771958272089952 9.876992103962117,9.665031734020294 18.162006513719795,6.627299833778276" style="fill:none;stroke:black;stroke-width:1"/>
<polygon points="9.799307219629023,9.771958272089952 18.162006513719795,6.627299833778276 17.692984162226704,6.749181771885432" style="fill:none;stroke:black;stroke-width:1"/>
<polygon points="9.737482168271677,9.871113511059708 9.799307219629023,9.771958272089952 17.692984162226704,6.749181771885432" style="fill:none;stroke:black;stroke-width:1"/>
<polygon points="8.724322185627116,8.543590087053133 9.163731230168118,10.699788913103113 8.640139295340207,8.655662348739842" style="fill:none;stroke:black;stroke-width:1"/>
<polygon points="9.163731230168118,10.699788913103113 9.039317167022602,10.793010070472185 8.640139295340207,8.655662348739842" style="fill:none;stroke:black;stroke-width:1"/>
<polygon points="8.097495410745026,9.373237450840211 8.191948437501203,9.247713127122372 8.530546047259865,10.917942677392267" style="fill:none;stroke:black;stroke-width:1"/>
<polygon points="8.71600503642124,10.904145197426622 8.191948437501203,9.247713127122372 8.284918498450304,9.124708054475747" style="fill:none;stroke:black;stroke-width:1"/>
<polygon points="8.191948437501203,9.247713127122372 8.71600503642124,10.904145197426622 8.530546047259865,10.917942677392267" style="fill:none;stroke:black;stroke-width:1"/>
<polygon points="8.284918498450304,9.124708054475747 8.191948437501203,9.247713127122372 19.40138012027711,4.713588269093974" style="fill:none;stroke:black;stroke-width:1"/>
<polygon points="8.191948437501203,9.247713127122372 8.097495410745026,9.373237450840211 19.40138012027711,4.713588269093974" style="fill:none;stroke:black;stroke-width:1"/>
<polygon points="7.7272484418849565,10.47291707951431 7.8271177191016506,10.63332912799949 16.893785831624356,4.899030265153115" style="fill:none;stroke:black;stroke-width:1"/>
<polygon points="7.675134042148176,10.292259293741603 7.7272484418849565,10.47291707951431 16.893785831624356,4.899030265153115" style="fill:none;stroke:black;stroke-width:1"/>
<polygon points="7.7272484418849565,10.47291707951431 7.675134042148176,10.292259293741603 7.8271177191016506,10.63332912799949" style="fill:none;stroke:black;stroke-width:1"/>
<polygon points="7.969203002781556,10.763464692670876 8.14793103448276,10.853448275862068 17.692984162226704,6.749181771885432" style="fill:none;stroke:black;stroke-width:1"/>
<polygon points="8.14793103448276,10.853448275862068 9.737482168271677,9.871113511059708 17.692984162226704,6.749181771885432" style="fill:none;stroke:black;stroke-width:1"/>
<polygon points="8.14793103448276,10.853448275862068 7.969203002781556,10.763464692670876 7.718699841512194,9.929209391780981" style="fill:none;stroke:black;stroke-width:1"/>
<polygon points="8.14793103448276,10.853448275862068 9.163731230168118,10.699788913103113 9.737482168271677,9.871113511059708" style="fill:none;stroke:black;stroke-width:1"/>
<polygon points="9.163731230168118,10.699788913103113 8.14793103448276,10.853448275862068 9.039317167022602,10.793010070472185" style="fill:none;stroke:black;stroke-width:1"/>
<polygon points="7.675134042148176,10.292259293741603 7.673056645604891,10.10712807466826 7.8271177191016506,10.63332912799949" style="fill:none;stroke:black;stroke-width:1"/>
<polygon points="7.673056645604891,10.10712807466826 7.969203002781556,10.763464692670876 7.8271177191016506,10.63332912799949" style="fill:none;stroke:black;stroke-width:1"/>
<polygon points="7.969203002781556,10.763464692670876 7.673056645604891,10.10712807466826 7.718699841512194,9.929209391780981" style="fill:none;stroke:black;stroke-width:1"/>
<polygon points="7.673056645604891,10.10712807466826 7.675134042148176,10.292259293741603 18.776886741484844,4.673633526807523" style="fill:none;stroke:black;stroke-width:1"/>
<polygon points="17.406202503847695,4.7002245716777615 7.673056645604891,10.10712807466826 18.776886741484844,4.673633526807523" style="fill:none;stroke:black;stroke-width:1"/>
<polygon points="7.718699841512194,9.929209391780981 7.673056645604891,10.10712807466826 17.406202503847695,4.7002245716777615" style="fill:none;stroke:black;stroke-width:1"/>
<polygon points="18.9087937021861,21.13446494647861 14.133850101149068,21.152251269964523 18.754989124075212,5.662481310697132" style="fill:none;stroke:black;stroke-width:1"/>
<polygon points="20.85693300430767,13.59406912474099 14.424971805836098,27.644272029884956 18.754989124075212,5.662481310697132" style="fill:none;stroke:black;stroke-width:1"/>
<polygon points="14.424971805836098,27.644272029884956 9.936388369974958,25.829290582840148 18.754989124075212,5.662481310697132" style="fill:none;stroke:black;stroke-width:1"/>
<polygon points="22.629036587165555,21.948849924714814 22.78688954143225,22.023788556393356 18.27481867334423,7.567373752485687" style="fill:none;stroke:black;stroke-width:1"/>
<polygon points="22.389993025231355,21.70848711291444 22.495279368672467,21.841899682904835 18.27481867334423,7.567373752485687" style="fill:none;stroke:black;stroke-width:1"/>
<polygon points="22.495279368672467,21.841899682904835 22.629036587165555,21.948849924714814 18.27481867334423,7.567373752485687" style="fill:none;stroke:black;stroke-width:1"/>
<polygon points="22.629036587165555,21.948849924714814 22.495279368672467,21.841899682904835 22.319559716452353,21.042106326026634" style="fill:none;stroke:black;stroke-width:1"/>
<polygon points="22.28664725467835,21.210272137886456 17.924432080139887,6.878608525961384 22.319559716452353,21.042106326026634" style="fill:none;stroke:black;stroke-width:1"/>
<polygon points="22.28664725467835,21.210272137886456 22.282215757476337,21.385258341538847 17.924432080139887,6.878608525961384" style="fill:none;stroke:black;stroke-width:1"/>
<polygon points="22.282215757476337,21.385258341538847 22.28664725467835,21.210272137886456 22.389993025231355,21.70848711291444" style="fill:none;stroke:black;stroke-width:1"/>
<polygon points="22.495279368672467,21.841899682904835 22.28664725467835,21.210272137886456 22.319559716452353,21.042106326026634" style="fill:none;stroke:black;stroke-width:1"/>
<polygon points="22.28664725467835,21.210272137886456 22.495279368672467,21.841899682904835 22.389993025231355,21.70848711291444" style="fill:none;stroke:black;stroke-width:1"/>
<polygon points="22.317552696120572,21.55416149669466 22.389993025231355,21.70848711291444 17.924432080139887,6.878608525961384" style="fill:none;stroke:black;stroke-width:1"/>
<polygon points="22.282215757476337,21.385258341538847 22.317552696120572,21.55416149669466 17.924432080139887,6.878608525961384" style="fill:none;stroke:black;stroke-width:1"/>
<polygon points="22.317552696120572,21.55416149669466 22.282215757476337,21.385258341538847 22.389993025231355,21.70848711291444" style="fill:none;stroke:black;stroke-width:1"/>
<polygon points="22.93106706788955,19.303023880425418 23.97620834538794,21.195935505617655 22.836488119513294,19.431370670314294" style="fill:none;stroke:black;stroke-width:1"/>
<polygon points="23.05084104295084,19.193634665669972 22.93106706788955,19.303023880425418 4.98797475755508,10.766777039006683" style="fill:none;stroke:black;stroke-width:1"/>
<polygon points="24.02225621844892,21.052468575909963 22.93106706788955,19.303023880425418 23.05084104295084,19.193634665669972" style="fill:none;stroke:black;stroke-width:1"/>
<polygon points="23.97620834538794,21.195935505617655 22.93106706788955,19.303023880425418 24.02225621844892,21.052468575909963" style="fill:none;stroke:black;stroke-width:1"/>
<polygon points="24.114351964570876,20.76553471649458 23.34918283801581,19.0443223878939 24.16039983763185,20.62206778678689" style="fill:none;stroke:black;stroke-width:1"/>
<polygon points="23.19161223591899,19.106351382631583 23.34918283801581,19.0443223878939 24.114351964570876,20.76553471649458" style="fill:none;stroke:black;stroke-width:1"/>
<polygon points="4.111525123167564,20.355765067553847 23.34918283801581,19.0443223878939 3.640574870479472,15.43298427988304" style="fill:none;stroke:black;stroke-width:1"/>
<polygon points="23.34918283801581,19.0443223878939 23.19161223591899,19.106351382631583 3.640574870479472,15.43298427988304" style="fill:none;stroke:black;stroke-width:1"/>
<polygon points="6.344383026374622,24.60427179331463 9.947119126665978,27.71959621392992 23.86648649457969,19.035940713427625" style="fill:none;stroke:black;stroke-width:1"/>
<polygon points="9.947119126665978,27.71959621392992 14.536354724501205,29.31860544709956 23.86648649457969,19.035940713427625" style="fill:none;stroke:black;stroke-width:1"/>
<polygon points="24.024567349380426,19.110529218714774 19.616979342056165,29.05185654712465 23.985634999649832,26.999040626648448" style="fill:none;stroke:black;stroke-width:1"/>
<polygon points="14.536354724501205,29.31860544709956 19.616979342056165,29.05185654712465 24.024567349380426,19.110529218714774" style="fill:none;stroke:black;stroke-width:1"/>
<polygon points="22.93106706788955,19.303023880425418 7.872734016763889,7.043314125944065 4.98797475755508,10.766777039006683" style="fill:none;stroke:black;stroke-width:1"/>
<polygon points="7.872734016763889,7.043314125944065 22.93106706788955,19.303023880425418 22.836488119513294,19.431370670314294" style="fill:none;stroke:black;stroke-width:1"/>
<polygon points="22.771302006600255,19.575526678752965 7.872734016763889,7.043314125944065 22.836488119513294,19.431370670314294" style="fill:none;stroke:black;stroke-width:1"/>
<polygon points="11.984915382195434,4.64434170493888 7.872734016763889,7.043314125944065 22.771302006600255,19.575526678752965" style="fill:none;stroke:black;stroke-width:1"/>
<polygon points="23.606052651528596,21.870132400954162 23.466537366075368,21.958378464432858 22.58707216510209,20.149498403873054" style="fill:none;stroke:black;stroke-width:1"/>
<polygon points="22.633120038163067,20.00603147416536 23.606052651528596,21.870132400954162 22.58707216510209,20.149498403873054" style="fill:none;stroke:black;stroke-width:1"/>
<polygon points="23.606052651528596,21.870132400954162 22.633120038163067,20.00603147416536 23.724706748951803,21.759399603224924" style="fill:none;stroke:black;stroke-width:1"/>
<polygon points="23.606052651528596,21.870132400954162 23.724706748951803,21.759399603224924 18.895055598912585,7.830409745508039" style="fill:none;stroke:black;stroke-width:1"/>
<polygon points="23.466537366075368,21.958378464432858 23.606052651528596,21.870132400954162 18.895055598912585,7.830409745508039" style="fill:none;stroke:black;stroke-width:1"/>
<polygon points="13.132952418411818,24.544544673653665 17.90383757021037,5.8041806341999775 17.132831370702007,5.771899608457833" style="fill:none;stroke:black;stroke-width:1"/>
<polygon points="13.067035627954159,24.647582406014532 13.132952418411818,24.544544673653665 17.132831370702007,5.771899608457833" style="fill:none;stroke:black;stroke-width:1"/>
<polygon points="11.18480308993683,24.169114498748037 11.068758988172648,24.20907814270847 17.924432080139887,6.878608525961384" style="fill:none;stroke:black;stroke-width:1"/>
<polygon points="9.46582888218206,8.160781889964507 9.30441225533734,8.154051221759262 18.51493944795007,5.271834435469368" style="fill:none;stroke:black;stroke-width:1"/>
<polygon points="9.62980940323975,8.203120300583281 9.46582888218206,8.160781889964507 18.51493944795007,5.271834435469368" style="fill:none;stroke:black;stroke-width:1"/>
<polygon points="9.937238673964073,8.39897794308772 9.790226999146924,8.283369802115788 18.51493944795007,5.271834435469368" style="fill:none;stroke:black;stroke-width:1"/>
<polygon points="10.055936429219365,8.542206319878908 9.937238673964073,8.39897794308772 18.51493944795007,5.271834435469368" style="fill:none;stroke:black;stroke-width:1"/>
<polygon points="8.806473173456224,8.433371698679178 9.255662919744553,10.588185083140646 8.724322185627116,8.543590087053133" style="fill:none;stroke:black;stroke-width:1"/>
<polygon points="9.255662919744553,10.588185083140646 9.163731230168118,10.699788913103113 8.724322185627116,8.543590087053133" style="fill:none;stroke:black;stroke-width:1"/>
<polygon points="9.255662919744553,10.588185083140646 8.806473173456224,8.433371698679178 8.896816844817561,8.324472150428026" style="fill:none;stroke:black;stroke-width:1"/>
<polygon points="9.163731230168118,10.699788913103113 9.255662919744553,10.588185083140646 9.737482168271677,9.871113511059708" style="fill:none;stroke:black;stroke-width:1"/>
<polygon points="8.339765772756047,10.90053528574183 8.097495410745026,9.373237450840211 8.530546047259865,10.917942677392267" style="fill:none;stroke:black;stroke-width:1"/>
<polygon points="8.097495410745026,9.373237450840211 8.339765772756047,10.90053528574183 8.001650907623564,9.501391921922336" style="fill:none;stroke:black;stroke-width:1"/>
<polygon points="8.887835256057897,10.861814913516643 8.339765772756047,10.90053528574183 8.530546047259865,10.917942677392267" style="fill:none;stroke:black;stroke-width:1"/>
<polygon points="9.039317167022602,10.793010070472185 8.339765772756047,10.90053528574183 8.887835256057897,10.861814913516643" style="fill:none;stroke:black;stroke-width:1"/>
<polygon points="8.14793103448276,10.853448275862068 8.339765772756047,10.90053528574183 9.039317167022602,10.793010070472185" style="fill:none;stroke:black;stroke-width:1"/>
<polygon points="8.001650907623564,9.501391921922336 7.904506417578601,9.632287436661827 17.406202503847695,4.7002245716777615" style="fill:none;stroke:black;stroke-width:1"/>
<polygon points="8.339765772756047,10.90053528574183 7.904506417578601,9.632287436661827 8.001650907623564,9.501391921922336" style="fill:none;stroke:black;stroke-width:1"/>
<polygon points="7.904506417578601,9.632287436661827 8.339765772756047,10.90053528574183 8.14793103448276,10.853448275862068" style="fill:none;stroke:black;stroke-width:1"/>
<polygon points="12.587261347018046,5.7554639712922135 21.695640275126745,17.429792168828147 18.754989124075212,5.662481310697132" style="fill:none;stroke:black;stroke-width:1"/>
<polygon points="21.695640275126745,17.429792168828147 18.9087937021861,21.13446494647861 18.754989124075212,5.662481310697132" style="fill:none;stroke:black;stroke-width:1"/>
<polygon points="16.898834335365393,11.160115548521587 20.85693300430767,13.59406912474099 18.754989124075212,5.662481310697132" style="fill:none;stroke:black;stroke-width:1"/>
<polygon points="12.53405585310739,12.886581569575492 16.898834335365393,11.160115548521587 18.754989124075212,5.662481310697132" style="fill:none;stroke:black;stroke-width:1"/>
<polygon points="14.133850101149068,21.152251269964523 11.292621063722365,17.4421614331596 18.754989124075212,5.662481310697132" style="fill:none;stroke:black;stroke-width:1"/>
<polygon points="11.292621063722365,17.4421614331596 12.53405585310739,12.886581569575492 18.754989124075212,5.662481310697132" style="fill:none;stroke:black;stroke-width:1"/>
<polygon points="8.672825125059697,17.198849986777358 10.904073027232823,20.195418647276956 17.766661355904784,5.650790697385488" style="fill:none;stroke:black;stroke-width:1"/>
<polygon points="4.9979834417424716,17.843270367747728 8.672825125059697,17.198849986777358 17.766661355904784,5.650790697385488" style="fill:none;stroke:black;stroke-width:1"/>
<polygon points="9.936388369974958,25.829290582840148 6.6353553607989575,22.403308060888513 17.766661355904784,5.650790697385488" style="fill:none;stroke:black;stroke-width:1"/>
<polygon points="6.6353553607989575,22.403308060888513 4.9979834417424716,17.843270367747728 17.766661355904784,5.650790697385488" style="fill:none;stroke:black;stroke-width:1"/>
<polygon points="23.140244977381386,22.055007070203217 22.964619095102776,22.060344827586203 22.448928545919156,20.579899192996127" style="fill:none;stroke:black;stroke-width:1"/>
<polygon points="22.964619095102776,22.060344827586203 22.40251389346762,20.72599066681765 22.448928545919156,20.579899192996127" style="fill:none;stroke:black;stroke-width:1"/>
<polygon points="22.964619095102776,22.060344827586203 23.140244977381386,22.055007070203217 18.27481867334423,7.567373752485687" style="fill:none;stroke:black;stroke-width:1"/>
<polygon points="22.78688954143225,22.023788556393356 22.964619095102776,22.060344827586203 18.27481867334423,7.567373752485687" style="fill:none;stroke:black;stroke-width:1"/>
<polygon points="22.964619095102776,22.060344827586203 22.78688954143225,22.023788556393356 22.629036587165555,21.948849924714814" style="fill:none;stroke:black;stroke-width:1"/>
<polygon points="23.34918283801581,19.0443223878939 23.51935504046313,19.010696038040553 24.16039983763185,20.62206778678689" style="fill:none;stroke:black;stroke-width:1"/>
<polygon points="24.20644771069283,20.478600857079197 23.51935504046313,19.010696038040553 23.697931034482757,19.00862068965517" style="fill:none;stroke:black;stroke-width:1"/>
<polygon points="23.51935504046313,19.010696038040553 24.20644771069283,20.478600857079197 24.16039983763185,20.62206778678689" style="fill:none;stroke:black;stroke-width:1"/>
<polygon points="23.51935504046313,19.010696038040553 4.111525123167564,20.355765067553847 23.697931034482757,19.00862068965517" style="fill:none;stroke:black;stroke-width:1"/>
<polygon points="23.51935504046313,19.010696038040553 23.34918283801581,19.0443223878939 4.111525123167564,20.355765067553847" style="fill:none;stroke:black;stroke-width:1"/>
<polygon points="12.980136537710957,24.732888227489934 13.067035627954159,24.647582406014532 17.132831370702007,5.771899608457833" style="fill:none;stroke:black;stroke-width:1"/>
<polygon points="18.336663181918684,5.7185418477346985 12.641829864969854,24.876767954097936 17.132831370702007,5.771899608457833" style="fill:none;stroke:black;stroke-width:1"/>
<polygon points="12.641829864969854,24.876767954097936 12.757873966734035,24.836804310137502 17.132831370702007,5.771899608457833" style="fill:none;stroke:black;stroke-width:1"/>
<polygon points="13.068591253765462,23.9266882206867 12.972943597972105,23.82974636558992 17.90383757021037,5.8041806341999775" style="fill:none;stroke:black;stroke-width:1"/>
<polygon points="12.972943597972105,23.82974636558992 12.858828713763597,23.755072395656587 17.90383757021037,5.8041806341999775" style="fill:none;stroke:black;stroke-width:1"/>
<polygon points="12.730959561336597,23.7049861826609 12.59401152368768,23.681786940136494 17.90383757021037,5.8041806341999775" style="fill:none;stroke:black;stroke-width:1"/>
<polygon points="12.858828713763597,23.755072395656587 12.730959561336597,23.7049861826609 17.90383757021037,5.8041806341999775" style="fill:none;stroke:black;stroke-width:1"/>
<polygon points="11.42066368936116,24.081970851856134 11.30200491476587,24.12669056804021 17.924432080139887,6.878608525961384" style="fill:none;stroke:black;stroke-width:1"/>
<polygon points="11.30200491476587,24.12669056804021 11.18480308993683,24.169114498748037 17.924432080139887,6.878608525961384" style="fill:none;stroke:black;stroke-width:1"/>
<polygon points="22.964619095102776,22.060344827586203 22.358775526279565,20.88043514698806 22.40251389346762,20.72599066681765" style="fill:none;stroke:black;stroke-width:1"/>
<polygon points="22.358775526279565,20.88043514698806 22.629036587165555,21.948849924714814 22.319559716452353,21.042106326026634" style="fill:none;stroke:black;stroke-width:1"/>
<polygon points="22.358775526279565,20.88043514698806 22.964619095102776,22.060344827586203 22.629036587165555,21.948849924714814" style="fill:none;stroke:black;stroke-width:1"/>
<polygon points="11.068758988172648,24.20907814270847 10.95215435439933,24.25023357669047 22.319559716452353,21.042106326026634" style="fill:none;stroke:black;stroke-width:1"/>
<polygon points="10.95215435439933,24.25023357669047 22.358775526279565,20.88043514698806 22.319559716452353,21.042106326026634" style="fill:none;stroke:black;stroke-width:1"/>
<polygon points="22.358775526279565,20.88043514698806 10.95215435439933,24.25023357669047 10.846898458826628,24.31392348960349" style="fill:none;stroke:black;stroke-width:1"/>
<polygon points="10.636289904487327,24.745219957855046 22.494976418980134,20.436432263288438 22.448928545919156,20.579899192996127" style="fill:none;stroke:black;stroke-width:1"/>
<polygon points="9.013779126181435,8.238199704110695 9.335448532665566,10.47990197446606 8.896816844817561,8.324472150428026" style="fill:none;stroke:black;stroke-width:1"/>
<polygon points="9.335448532665566,10.47990197446606 9.255662919744553,10.588185083140646 8.896816844817561,8.324472150428026" style="fill:none;stroke:black;stroke-width:1"/>
<polygon points="9.255662919744553,10.588185083140646 9.335448532665566,10.47990197446606 9.737482168271677,9.871113511059708" style="fill:none;stroke:black;stroke-width:1"/>
<polygon points="7.8066973330369365,9.769136645768185 8.14793103448276,10.853448275862068 7.718699841512194,9.929209391780981" style="fill:none;stroke:black;stroke-width:1"/>
<polygon points="7.8066973330369365,9.769136645768185 7.904506417578601,9.632287436661827 8.14793103448276,10.853448275862068" style="fill:none;stroke:black;stroke-width:1"/>
<polygon points="7.8066973330369365,9.769136645768185 7.718699841512194,9.929209391780981 17.406202503847695,4.7002245716777615" style="fill:none;stroke:black;stroke-width:1"/>
<polygon points="7.904506417578601,9.632287436661827 7.8066973330369365,9.769136645768185 17.406202503847695,4.7002245716777615" style="fill:none;stroke:black;stroke-width:1"/>
<polygon points="12.757873966734035,24.836804310137502 12.874496529048804,24.795976144452723 17.132831370702007,5.771899608457833" style="fill:none;stroke:black;stroke-width:1"/>
<polygon points="12.874496529048804,24.795976144452723 12.980136537710957,24.732888227489934 17.132831370702007,5.771899608457833" style="fill:none;stroke:black;stroke-width:1"/>
<polygon points="12.524628040140811,24.919191884805766 18.336663181918684,5.7185418477346985 12.405969265545524,24.963911600989842" style="fill:none;stroke:black;stroke-width:1"/>
<polygon points="12.524628040140811,24.919191884805766 12.641829864969854,24.876767954097936 18.336663181918684,5.7185418477346985" style="fill:none;stroke:black;stroke-width:1"/>
<polygon points="13.141024029218476,24.043552884156593 13.068591253765462,23.9266882206867 17.90383757021037,5.8041806341999775" style="fill:none;stroke:black;stroke-width:1"/>
<polygon points="13.182322860288124,24.17326271062115 13.141024029218476,24.043552884156593 17.90383757021037,5.8041806341999775" style="fill:none;stroke:black;stroke-width:1"/>
<polygon points="13.192854769178135,24.30300414212285 13.182322860288124,24.17326271062115 17.90383757021037,5.8041806341999775" style="fill:none;stroke:black;stroke-width:1"/>
<polygon points="11.663429753191933,23.986479932413705 11.541055663455927,24.03515605737536 17.839193768572006,6.30684666015939" style="fill:none;stroke:black;stroke-width:1"/>
<polygon points="11.788003615563216,23.93620557908057 11.663429753191933,23.986479932413705 17.839193768572006,6.30684666015939" style="fill:none;stroke:black;stroke-width:1"/>
<polygon points="12.044444942073556,23.832036074042698 11.914960215835285,23.88462130450153 17.839193768572006,6.30684666015939" style="fill:none;stroke:black;stroke-width:1"/>
<polygon points="11.914960215835285,23.88462130450153 11.788003615563216,23.93620557908057 17.839193768572006,6.30684666015939" style="fill:none;stroke:black;stroke-width:1"/>
<polygon points="12.59401152368768,23.681786940136494 12.452620113756717,23.687758095944833 17.839193768572006,6.30684666015939" style="fill:none;stroke:black;stroke-width:1"/>
<polygon points="12.452620113756717,23.687758095944833 12.311379310344828,23.725172413793103 17.839193768572006,6.30684666015939" style="fill:none;stroke:black;stroke-width:1"/>
<polygon points="12.176563312286751,23.778774638742362 12.044444942073556,23.832036074042698 17.839193768572006,6.30684666015939" style="fill:none;stroke:black;stroke-width:1"/>
<polygon points="12.311379310344828,23.725172413793103 12.176563312286751,23.778774638742362 17.839193768572006,6.30684666015939" style="fill:none;stroke:black;stroke-width:1"/>
<polygon points="22.40251389346762,20.72599066681765 10.652888435491924,24.619802117077988 22.448928545919156,20.579899192996127" style="fill:none;stroke:black;stroke-width:1"/>
<polygon points="10.652888435491924,24.619802117077988 10.636289904487327,24.745219957855046 22.448928545919156,20.579899192996127" style="fill:none;stroke:black;stroke-width:1"/>
<polygon points="22.494976418980134,20.436432263288438 10.647492538851825,24.87506558484876 22.54102429204111,20.292965333580746" style="fill:none;stroke:black;stroke-width:1"/>
<polygon points="10.636289904487327,24.745219957855046 10.647492538851825,24.87506558484876 22.494976418980134,20.436432263288438" style="fill:none;stroke:black;stroke-width:1"/>
<polygon points="22.54102429204111,20.292965333580746 10.647492538851825,24.87506558484876 22.58707216510209,20.149498403873054" style="fill:none;stroke:black;stroke-width:1"/>
<polygon points="9.411917751063982,10.37397098406677 9.013779126181435,8.238199704110695 9.151686633179246,8.180624943847883" style="fill:none;stroke:black;stroke-width:1"/>
<polygon points="9.411917751063982,10.37397098406677 9.335448532665566,10.47990197446606 9.013779126181435,8.238199704110695" style="fill:none;stroke:black;stroke-width:1"/>
<polygon points="9.411917751063982,10.37397098406677 9.151686633179246,8.180624943847883 9.30441225533734,8.154051221759262" style="fill:none;stroke:black;stroke-width:1"/>
<polygon points="9.335448532665566,10.47990197446606 9.411917751063982,10.37397098406677 9.737482168271677,9.871113511059708" style="fill:none;stroke:black;stroke-width:1"/>
<polygon points="13.132952418411818,24.544544673653665 13.17564283517606,24.428218227316258 17.90383757021037,5.8041806341999775" style="fill:none;stroke:black;stroke-width:1"/>
<polygon points="13.17564283517606,24.428218227316258 13.192854769178135,24.30300414212285 17.90383757021037,5.8041806341999775" style="fill:none;stroke:black;stroke-width:1"/>
<polygon points="22.358775526279565,20.88043514698806 10.760440804149887,24.399731746937473 22.40251389346762,20.72599066681765" style="fill:none;stroke:black;stroke-width:1"/>
<polygon points="10.760440804149887,24.399731746937473 22.358775526279565,20.88043514698806 10.846898458826628,24.31392348960349" style="fill:none;stroke:black;stroke-width:1"/>
<polygon points="10.688983471972417,25.005328102253042 22.633120038163067,20.00603147416536 22.58707216510209,20.149498403873054" style="fill:none;stroke:black;stroke-width:1"/>
<polygon points="10.647492538851825,24.87506558484876 10.688983471972417,25.005328102253042 22.58707216510209,20.149498403873054" style="fill:none;stroke:black;stroke-width:1"/>
<polygon points="22.633120038163067,20.00603147416536 10.688983471972417,25.005328102253042 22.67916791122405,19.862564544457673" style="fill:none;stroke:black;stroke-width:1"/>
<polygon points="9.46582888218206,8.160781889964507 9.484869553312786,10.270149703510201 9.30441225533734,8.154051221759262" style="fill:none;stroke:black;stroke-width:1"/>
<polygon points="9.484869553312786,10.270149703510201 9.411917751063982,10.37397098406677 9.30441225533734,8.154051221759262" style="fill:none;stroke:black;stroke-width:1"/>
<polygon points="9.411917751063982,10.37397098406677 9.484869553312786,10.270149703510201 9.737482168271677,9.871113511059708" style="fill:none;stroke:black;stroke-width:1"/>
<polygon points="10.695022771735696,24.503172355065285 10.652888435491924,24.619802117077988 22.40251389346762,20.72599066681765" style="fill:none;stroke:black;stroke-width:1"/>
<polygon points="10.760440804149887,24.399731746937473 10.695022771735696,24.503172355065285 22.40251389346762,20.72599066681765" style="fill:none;stroke:black;stroke-width:1"/>
<polygon points="10.759737552407055,25.123600511256726 22.771302006600255,19.575526678752965 22.725215784285023,19.719097614749977" style="fill:none;stroke:black;stroke-width:1"/>
<polygon points="22.771302006600255,19.575526678752965 10.759737552407055,25.123600511256726 10.854011787895363,25.22093063335715" style="fill:none;stroke:black;stroke-width:1"/>
<polygon points="22.67916791122405,19.862564544457673 10.759737552407055,25.123600511256726 22.725215784285023,19.719097614749977" style="fill:none;stroke:black;stroke-width:1"/>
<polygon points="10.688983471972417,25.005328102253042 10.759737552407055,25.123600511256726 22.67916791122405,19.862564544457673" style="fill:none;stroke:black;stroke-width:1"/>
<polygon points="9.554102917784968,10.168195724363784 9.46582888218206,8.160781889964507 9.62980940323975,8.203120300583281" style="fill:none;stroke:black;stroke-width:1"/>
<polygon points="9.554102917784968,10.168195724363784 9.484869553312786,10.270149703510201 9.46582888218206,8.160781889964507" style="fill:none;stroke:black;stroke-width:1"/>
<polygon points="9.554102917784968,10.168195724363784 9.62980940323975,8.203120300583281 9.790226999146924,8.283369802115788" style="fill:none;stroke:black;stroke-width:1"/>
<polygon points="9.484869553312786,10.270149703510201 9.680610246891424,9.96892003657111 9.737482168271677,9.871113511059708" style="fill:none;stroke:black;stroke-width:1"/>
<polygon points="9.554102917784968,10.168195724363784 9.680610246891424,9.96892003657111 9.484869553312786,10.270149703510201" style="fill:none;stroke:black;stroke-width:1"/>
<polygon points="9.680610246891424,9.96892003657111 10.055936429219365,8.542206319878908 9.737482168271677,9.871113511059708" style="fill:none;stroke:black;stroke-width:1"/>
<polygon points="9.680610246891424,9.96892003657111 9.937238673964073,8.39897794308772 10.055936429219365,8.542206319878908" style="fill:none;stroke:black;stroke-width:1"/>
<polygon points="9.937238673964073,8.39897794308772 9.619416822853518,10.067866638194943 9.790226999146924,8.283369802115788" style="fill:none;stroke:black;stroke-width:1"/>
<polygon points="9.680610246891424,9.96892003657111 9.619416822853518,10.067866638194943 9.937238673964073,8.39897794308772" style="fill:none;stroke:black;stroke-width:1"/>
<polygon points="9.619416822853518,10.067866638194943 9.554102917784968,10.168195724363784 9.790226999146924,8.283369802115788" style="fill:none;stroke:black;stroke-width:1"/>
<polygon points="9.619416822853518,10.067866638194943 9.680610246891424,9.96892003657111 9.554102917784968,10.168195724363784" style="fill:none;stroke:black;stroke-width:1"/>
<polygon points="11.782188012833128,25.213846378803275 24.739546224003277,24.044102828736968 11.650069642619933,25.267107814103614" style="fill:none;stroke:black;stroke-width:1"/>
<polygon points="11.650069642619933,25.267107814103614 24.739546224003277,24.044102828736968 20.929382646779203,26.910471980992295" style="fill:none;stroke:black;stroke-width:1"/>
<polygon points="11.23266976621985,25.3662127896882 25.512571700618757,7.95551417475556 21.695847821789616,5.156003792523899" style="fill:none;stroke:black;stroke-width:1"/>
<polygon points="11.23266976621985,25.3662127896882 21.695847821789616,5.156003792523899 11.094970614730848,25.34431883512204" style="fill:none;stroke:black;stroke-width:1"/>
<polygon points="28.042425964808036,11.966879688597636 11.23266976621985,25.3662127896882 11.376096426734023,25.358849688339408" style="fill:none;stroke:black;stroke-width:1"/>
<polygon points="11.23266976621985,25.3662127896882 28.042425964808036,11.966879688597636 25.512571700618757,7.95551417475556" style="fill:none;stroke:black;stroke-width:1"/>
<polygon points="16.97612806457359,3.9512530856450816 10.96725997817967,25.29520087186873 11.094970614730848,25.34431883512204" style="fill:none;stroke:black;stroke-width:1"/>
<polygon points="21.695847821789616,5.156003792523899 16.97612806457359,3.9512530856450816 11.094970614730848,25.34431883512204" style="fill:none;stroke:black;stroke-width:1"/>
<polygon points="10.96725997817967,25.29520087186873 16.97612806457359,3.9512530856450816 10.854011787895363,25.22093063335715" style="fill:none;stroke:black;stroke-width:1"/>
<polygon points="16.97612806457359,3.9512530856450816 11.984915382195434,4.64434170493888 10.854011787895363,25.22093063335715" style="fill:none;stroke:black;stroke-width:1"/>
<polygon points="19.616979342056165,29.05185654712465 28.89551724137931,16.794137931034484 23.985634999649832,26.999040626648448" style="fill:none;stroke:black;stroke-width:1"/>
<polygon points="28.89551724137931,16.794137931034484 3.640574870479472,15.43298427988304 4.98797475755508,10.766777039006683" style="fill:none;stroke:black;stroke-width:1"/>
<polygon points="22.471482329812044,18.415569893526076 28.89551724137931,16.794137931034484 25.78456167342478,17.547233410581068" style="fill:none;stroke:black;stroke-width:1"/>
<polygon points="28.89551724137931,16.794137931034484 4.111525123167564,20.355765067553847 3.640574870479472,15.43298427988304" style="fill:none;stroke:black;stroke-width:1"/>
<polygon points="28.89551724137931,16.794137931034484 21.34179864687777,12.154515904210871 23.632146559280898,16.32452486490483" style="fill:none;stroke:black;stroke-width:1"/>
<polygon points="28.89551724137931,16.794137931034484 26.632590422319794,11.434801533936376 23.60679801326631,7.776607655516788" style="fill:none;stroke:black;stroke-width:1"/>
<polygon points="28.89551724137931,16.794137931034484 12.587261347018046,5.7554639712922135 8.568033431299694,8.325597391953202" style="fill:none;stroke:black;stroke-width:1"/>
<polygon points="19.304589641155815,5.642507126656691 28.89551724137931,16.794137931034484 23.60679801326631,7.776607655516788" style="fill:none;stroke:black;stroke-width:1"/>
<polygon points="28.89551724137931,16.794137931034484 16.97612806457359,3.9512530856450816 21.695847821789616,5.156003792523899" style="fill:none;stroke:black;stroke-width:1"/>
<polygon points="27.515342643325788,15.59841107879448 28.89551724137931,16.794137931034484 23.632146559280898,16.32452486490483" style="fill:none;stroke:black;stroke-width:1"/>
<polygon points="17.081930303676668,10.05697307650974 28.89551724137931,16.794137931034484 12.48794827458313,11.431701250456895" style="fill:none;stroke:black;stroke-width:1"/>
<polygon points="5.936851185112072,12.309223609630482 28.89551724137931,16.794137931034484 8.568033431299694,8.325597391953202" style="fill:none;stroke:black;stroke-width:1"/>
<polygon points="28.89551724137931,16.794137931034484 10.081224108900937,15.479107972083101 12.48794827458313,11.431701250456895" style="fill:none;stroke:black;stroke-width:1"/>
<polygon points="28.89551724137931,16.794137931034484 14.424971805836098,27.644272029884956 20.85693300430767,13.59406912474099" style="fill:none;stroke:black;stroke-width:1"/>
<polygon points="28.89551724137931,16.794137931034484 9.947119126665978,27.71959621392992 6.344383026374622,24.60427179331463" style="fill:none;stroke:black;stroke-width:1"/>
<polygon points="28.89551724137931,16.794137931034484 14.798565244362774,22.829071612472422 10.904073027232823,20.195418647276956" style="fill:none;stroke:black;stroke-width:1"/>
<polygon points="28.89551724137931,16.794137931034484 27.081016909526394,19.8521761186418 25.78456167342478,17.547233410581068" style="fill:none;stroke:black;stroke-width:1"/>
<polygon points="24.739546224003277,24.044102828736968 28.89551724137931,16.794137931034484 20.929382646779203,26.910471980992295" style="fill:none;stroke:black;stroke-width:1"/>
<polygon points="28.89551724137931,16.794137931034484 27.19448625061482,23.535847057971232 23.985634999649832,26.999040626648448" style="fill:none;stroke:black;stroke-width:1"/>
<polygon points="21.34179864687777,12.154515904210871 28.89551724137931,16.794137931034484 17.081930303676668,10.05697307650974" style="fill:none;stroke:black;stroke-width:1"/>
<polygon points="28.89551724137931,16.794137931034484 5.936851185112072,12.309223609630482 6.0629993816162635,15.828753903148467" style="fill:none;stroke:black;stroke-width:1"/>
<polygon points="10.081224108900937,15.479107972083101 28.89551724137931,16.794137931034484 6.0629993816162635,15.828753903148467" style="fill:none;stroke:black;stroke-width:1"/>
<polygon points="7.872734016763889,7.043314125944065 28.89551724137931,16.794137931034484 4.98797475755508,10.766777039006683" style="fill:none;stroke:black;stroke-width:1"/>
<polygon points="28.89551724137931,16.794137931034484 21.695640275126745,17.429792168828147 12.587261347018046,5.7554639712922135" style="fill:none;stroke:black;stroke-width:1"/>
<polygon points="4.111525123167564,20.355765067553847 28.89551724137931,16.794137931034484 6.344383026374622,24.60427179331463" style="fill:none;stroke:black;stroke-width:1"/>
<polygon points="28.89551724137931,16.794137931034484 11.292621063722365,17.4421614331596 14.133850101149068,21.152251269964523" style="fill:none;stroke:black;stroke-width:1"/>
<polygon points="25.512571700618757,7.95551417475556 28.89551724137931,16.794137931034484 21.695847821789616,5.156003792523899" style="fill:none;stroke:black;stroke-width:1"/>
<polygon points="28.042425964808036,11.966879688597636 28.89551724137931,16.794137931034484 25.512571700618757,7.95551417475556" style="fill:none;stroke:black;stroke-width:1"/>
<polygon points="14.798565244362774,22.829071612472422 28.89551724137931,16.794137931034484 19.56339079973901,22.085829065067575" style="fill:none;stroke:black;stroke-width:1"/>
<polygon points="28.89551724137931,16.794137931034484 22.471482329812044,18.415569893526076 19.56339079973901,22.085829065067575" style="fill:none;stroke:black;stroke-width:1"/>
<polygon points="28.89551724137931,16.794137931034484 24.739546224003277,24.044102828736968 27.081016909526394,19.8521761186418" style="fill:none;stroke:black;stroke-width:1"/>
<polygon points="26.632590422319794,11.434801533936376 28.89551724137931,16.794137931034484 27.515342643325788,15.59841107879448" style="fill:none;stroke:black;stroke-width:1"/>
<polygon points="27.19448625061482,23.535847057971232 28.89551724137931,16.794137931034484 28.93301617715205,19.043873176027457" style="fill:none;stroke:black;stroke-width:1"/>
<polygon points="28.89551724137931,16.794137931034484 19.304589641155815,5.642507126656691 28.93301617715205,19.043873176027457" style="fill:none;stroke:black;stroke-width:1"/>
<polygon points="18.9087937021861,21.13446494647861 28.89551724137931,16.794137931034484 14.133850101149068,21.152251269964523" style="fill:none;stroke:black;stroke-width:1"/>
<polygon points="16.898834335365393,11.160115548521587 28.89551724137931,16.794137931034484 20.85693300430767,13.59406912474099" style="fill:none;stroke:black;stroke-width:1"/>
<polygon points="14.424971805836098,27.644272029884956 28.89551724137931,16.794137931034484 9.936388369974958,25.829290582840148" style="fill:none;stroke:black;stroke-width:1"/>
<polygon points="8.672825125059697,17.198849986777358 28.89551724137931,16.794137931034484 10.904073027232823,20.195418647276956" style="fill:none;stroke:black;stroke-width:1"/>
<polygon points="9.947119126665978,27.71959621392992 28.89551724137931,16.794137931034484 14.536354724501205,29.31860544709956" style="fill:none;stroke:black;stroke-width:1"/>
<polygon points="28.89551724137931,16.794137931034484 19.616979342056165,29.05185654712465 14.536354724501205,29.31860544709956" style="fill:none;stroke:black;stroke-width:1"/>
<polygon points="28.89551724137931,16.794137931034484 6.6353553607989575,22.403308060888513 9.936388369974958,25.829290582840148" style="fill:none;stroke:black;stroke-width:1"/>
<polygon points="16.97612806457359,3.9512530856450816 28.89551724137931,16.794137931034484 11.984915382195434,4.64434170493888" style="fill:none;stroke:black;stroke-width:1"/>
<polygon points="28.89551724137931,16.794137931034484 7.872734016763889,7.043314125944065 11.984915382195434,4.64434170493888" style="fill:none;stroke:black;stroke-width:1"/>
<polygon points="21.695640275126745,17.429792168828147 28.89551724137931,16.794137931034484 18.9087937021861,21.13446494647861" style="fill:none;stroke:black;stroke-width:1"/>
<polygon points="28.89551724137931,16.794137931034484 16.898834335365393,11.160115548521587 12.53405585310739,12.886581569575492" style="fill:none;stroke:black;stroke-width:1"/>
<polygon points="11.292621063722365,17.4421614331596 28.89551724137931,16.794137931034484 12.53405585310739,12.886581569575492" style="fill:none;stroke:black;stroke-width:1"/>
<polygon points="28.89551724137931,16.794137931034484 8.672825125059697,17.198849986777358 4.9979834417424716,17.843270367747728" style="fill:none;stroke:black;stroke-width:1"/>
<polygon points="6.6353553607989575,22.403308060888513 28.89551724137931,16.794137931034484 4.9979834417424716,17.843270367747728" style="fill:none;stroke:black;stroke-width:1"/>
<polygon points="28.89551724137931,16.794137931034484 11.515560802497525,25.32105907564305 11.650069642619933,25.267107814103614" style="fill:none;stroke:black;stroke-width:1"/>
<polygon points="28.89551724137931,16.794137931034484 11.650069642619933,25.267107814103614 20.929382646779203,26.910471980992295" style="fill:none;stroke:black;stroke-width:1"/>
<polygon points="11.515560802497525,25.32105907564305 28.89551724137931,16.794137931034484 11.376096426734023,25.358849688339408" style="fill:none;stroke:black;stroke-width:1"/>
<polygon points="28.89551724137931,16.794137931034484 28.042425964808036,11.966879688597636 11.376096426734023,25.358849688339408" style="fill:none;stroke:black;stroke-width:1"/>
<polygon points="10.759737552407055,25.123600511256726 12.405969265545524,24.963911600989842 12.285577291450755,25.010726395470613" style="fill:none;stroke:black;stroke-width:1"/>
<polygon points="12.163203201714751,25.059402520432272 10.759737552407055,25.123600511256726 12.285577291450755,25.010726395470613" style="fill:none;stroke:black;stroke-width:1"/>
<polygon points="10.759737552407055,25.123600511256726 11.914960215835285,23.88462130450153 12.044444942073556,23.832036074042698" style="fill:none;stroke:black;stroke-width:1"/>
<polygon points="10.759737552407055,25.123600511256726 10.96725997817967,25.29520087186873 10.854011787895363,25.22093063335715" style="fill:none;stroke:black;stroke-width:1"/>
<polygon points="10.759737552407055,25.123600511256726 12.038629339343466,25.109676873765405 11.911672739071399,25.161261148344444" style="fill:none;stroke:black;stroke-width:1"/>
<polygon points="11.782188012833128,25.213846378803275 10.759737552407055,25.123600511256726 11.911672739071399,25.161261148344444" style="fill:none;stroke:black;stroke-width:1"/>
<polygon points="10.759737552407055,25.123600511256726 12.524628040140811,24.919191884805766 12.405969265545524,24.963911600989842" style="fill:none;stroke:black;stroke-width:1"/>
<polygon points="10.759737552407055,25.123600511256726 11.515560802497525,25.32105907564305 11.376096426734023,25.358849688339408" style="fill:none;stroke:black;stroke-width:1"/>
<polygon points="10.96725997817967,25.29520087186873 10.759737552407055,25.123600511256726 11.094970614730848,25.34431883512204" style="fill:none;stroke:black;stroke-width:1"/>
<polygon points="11.23266976621985,25.3662127896882 10.759737552407055,25.123600511256726 11.376096426734023,25.358849688339408" style="fill:none;stroke:black;stroke-width:1"/>
<polygon points="10.759737552407055,25.123600511256726 11.42066368936116,24.081970851856134 11.541055663455927,24.03515605737536" style="fill:none;stroke:black;stroke-width:1"/>
<polygon points="12.038629339343466,25.109676873765405 10.759737552407055,25.123600511256726 12.163203201714751,25.059402520432272" style="fill:none;stroke:black;stroke-width:1"/>
<polygon points="11.515560802497525,25.32105907564305 10.759737552407055,25.123600511256726 11.650069642619933,25.267107814103614" style="fill:none;stroke:black;stroke-width:1"/>
<polygon points="10.759737552407055,25.123600511256726 11.782188012833128,25.213846378803275 11.650069642619933,25.267107814103614" style="fill:none;stroke:black;stroke-width:1"/>
<polygon points="12.980136537710957,24.732888227489934 10.759737552407055,25.123600511256726 13.067035627954159,24.647582406014532" style="fill:none;stroke:black;stroke-width:1"/>
<polygon points="10.759737552407055,25.123600511256726 12.874496529048804,24.795976144452723 12.757873966734035,24.836804310137502" style="fill:none;stroke:black;stroke-width:1"/>
<polygon points="12.730959561336597,23.7049861826609 10.759737552407055,25.123600511256726 12.59401152368768,23.681786940136494" style="fill:none;stroke:black;stroke-width:1"/>
<polygon points="10.759737552407055,25.123600511256726 11.23266976621985,25.3662127896882 11.094970614730848,25.34431883512204" style="fill:none;stroke:black;stroke-width:1"/>
<polygon points="10.759737552407055,25.123600511256726 10.95215435439933,24.25023357669047 11.068758988172648,24.20907814270847" style="fill:none;stroke:black;stroke-width:1"/>
<polygon points="10.759737552407055,25.123600511256726 13.132952418411818,24.544544673653665 13.067035627954159,24.647582406014532" style="fill:none;stroke:black;stroke-width:1"/>
<polygon points="10.759737552407055,25.123600511256726 12.972943597972105,23.82974636558992 13.068591253765462,23.9266882206867" style="fill:none;stroke:black;stroke-width:1"/>
<polygon points="10.759737552407055,25.123600511256726 10.760440804149887,24.399731746937473 10.846898458826628,24.31392348960349" style="fill:none;stroke:black;stroke-width:1"/>
<polygon points="11.18480308993683,24.169114498748037 10.759737552407055,25.123600511256726 11.068758988172648,24.20907814270847" style="fill:none;stroke:black;stroke-width:1"/>
<polygon points="10.759737552407055,25.123600511256726 11.30200491476587,24.12669056804021 11.42066368936116,24.081970851856134" style="fill:none;stroke:black;stroke-width:1"/>
<polygon points="10.759737552407055,25.123600511256726 13.17564283517606,24.428218227316258 13.132952418411818,24.544544673653665" style="fill:none;stroke:black;stroke-width:1"/>
<polygon points="12.641829864969854,24.876767954097936 10.759737552407055,25.123600511256726 12.757873966734035,24.836804310137502" style="fill:none;stroke:black;stroke-width:1"/>
<polygon points="13.141024029218476,24.043552884156593 10.759737552407055,25.123600511256726 13.068591253765462,23.9266882206867" style="fill:none;stroke:black;stroke-width:1"/>
<polygon points="12.972943597972105,23.82974636558992 10.759737552407055,25.123600511256726 12.858828713763597,23.755072395656587" style="fill:none;stroke:black;stroke-width:1"/>
<polygon points="10.759737552407055,25.123600511256726 12.730959561336597,23.7049861826609 12.858828713763597,23.755072395656587" style="fill:none;stroke:black;stroke-width:1"/>
<polygon points="11.663429753191933,23.986479932413705 10.759737552407055,25.123600511256726 11.541055663455927,24.03515605737536" style="fill:none;stroke:black;stroke-width:1"/>
<polygon points="10.759737552407055,25.123600511256726 12.452620113756717,23.687758095944833 12.59401152368768,23.681786940136494" style="fill:none;stroke:black;stroke-width:1"/>
<polygon points="11.30200491476587,24.12669056804021 10.759737552407055,25.123600511256726 11.18480308993683,24.169114498748037" style="fill:none;stroke:black;stroke-width:1"/>
<polygon points="10.95215435439933,24.25023357669047 10.759737552407055,25.123600511256726 10.846898458826628,24.31392348960349" style="fill:none;stroke:black;stroke-width:1"/>
<polygon points="12.176563312286751,23.778774638742362 10.759737552407055,25.123600511256726 12.044444942073556,23.832036074042698" style="fill:none;stroke:black;stroke-width:1"/>
<polygon points="12.874496529048804,24.795976144452723 10.759737552407055,25.123600511256726 12.980136537710957,24.732888227489934" style="fill:none;stroke:black;stroke-width:1"/>
<polygon points="12.524628040140811,24.919191884805766 10.759737552407055,25.123600511256726 12.641829864969854,24.876767954097936" style="fill:none;stroke:black;stroke-width:1"/>
<polygon points="10.759737552407055,25.123600511256726 13.141024029218476,24.043552884156593 13.182322860288124,24.17326271062115" style="fill:none;stroke:black;stroke-width:1"/>
<polygon points="13.192854769178135,24.30300414212285 10.759737552407055,25.123600511256726 13.182322860288124,24.17326271062115" style="fill:none;stroke:black;stroke-width:1"/>
<polygon points="10.759737552407055,25.123600511256726 11.663429753191933,23.986479932413705 11.788003615563216,23.93620557908057" style="fill:none;stroke:black;stroke-width:1"/>
<polygon points="11.914960215835285,23.88462130450153 10.759737552407055,25.123600511256726 11.788003615563216,23.93620557908057" style="fill:none;stroke:black;stroke-width:1"/>
<polygon points="12.452620113756717,23.687758095944833 10.759737552407055,25.123600511256726 12.311379310344828,23.725172413793103" style="fill:none;stroke:black;stroke-width:1"/>
<polygon points="10.759737552407055,25.123600511256726 12.176563312286751,23.778774638742362 12.311379310344828,23.725172413793103" style="fill:none;stroke:black;stroke-width:1"/>
<polygon points="10.652888435491924,24.619802117077988 10.759737552407055,25.123600511256726 10.636289904487327,24.745219957855046" style="fill:none;stroke:black;stroke-width:1"/>
<polygon points="10.759737552407055,25.123600511256726 10.647492538851825,24.87506558484876 10.636289904487327,24.745219957855046" style="fill:none;stroke:black;stroke-width:1"/>
<polygon points="13.17564283517606,24.428218227316258 10.759737552407055,25.123600511256726 13.192854769178135,24.30300414212285" style="fill:none;stroke:black;stroke-width:1"/>
<polygon points="10.695022771735696,24.503172355065285 10.759737552407055,25.123600511256726 10.652888435491924,24.619802117077988" style="fill:none;stroke:black;stroke-width:1"/>
<polygon points="10.759737552407055,25.123600511256726 10.688983471972417,25.005328102253042 10.647492538851825,24.87506558484876" style="fill:none;stroke:black;stroke-width:1"/>
<polygon points="10.759737552407055,25.123600511256726 10.695022771735696,24.503172355065285 10.760440804149887,24.399731746937473" style="fill:none;stroke:black;stroke-width:1"/>
</svg>
