<?xml version="1.0" encoding="UTF-8" standalone="no"?>
<svg xmlns="http://www.w3.org/2000/svg" version="1.1" width="800" height="800">
<polygon points="18.102085461260522,12.440869877073776 18.592572740108277,10.399812844266748 19.254634239084343,12.459371209972637" style="fill:none;stroke:black;stroke-width:1"/>
<polygon points="16.685912111482672,7.062871655442893 15.814729213535418,7.04105118227328 16.054771293869194,6.459945998392472" style="fill:none;stroke:black;stroke-width:1"/>
<polygon points="19.718741412150074,5.769381683602866 20.891279178207157,5.171503987210332 21.597821360436942,5.950135894084785" style="fill:none;stroke:black;stroke-width:1"/>
<polygon points="18.024697599037168,4.796588624009089 9.193567066899243,8.537454140938838 19.04648869383399,4.309151543622777" style="fill:none;stroke:black;stroke-width:1"/>
<polygon points="16.176287431652113,7.284529743082162 16.349310344827586,7.923448275862069 16.194263966896067,5.965753025355503" style="fill:none;stroke:black;stroke-width:1"/>
<polygon points="15.814729213535418,7.04105118227328 16.349310344827586,7.923448275862069 16.054771293869194,6.459945998392472" style="fill:none;stroke:black;stroke-width:1"/>
<polygon points="16.349310344827586,7.923448275862069 16.176287431652113,7.284529743082162 16.054771293869194,6.459945998392472" style="fill:none;stroke:black;stroke-width:1"/>
<polygon points="16.34034603552705,5.124984629582822 15.969795329286917,6.530788508976098 16.194263966896067,5.965753025355503" style="fill:none;stroke:black;stroke-width:1"/>
<polygon points="15.969795329286917,6.530788508976098 16.176287431652113,7.284529743082162 16.194263966896067,5.965753025355503" style="fill:none;stroke:black;stroke-width:1"/>
<polygon points="17.152978323988805,4.684360069765761 15.969795329286917,6.530788508976098 16.34034603552705,5.124984629582822" style="fill:none;stroke:black;stroke-width:1"/>
<polygon points="20.182980041521244,11.969724380421628 19.531485026771744,10.166025589983978 20.73553675609339,10.797797882278772" style="fill:none;stroke:black;stroke-width:1"/>
<polygon points="19.531485026771744,10.166025589983978 20.182980041521244,11.969724380421628 19.254634239084343,12.459371209972637" style="fill:none;stroke:black;stroke-width:1"/>
<polygon points="18.592572740108277,10.399812844266748 19.531485026771744,10.166025589983978 19.254634239084343,12.459371209972637" style="fill:none;stroke:black;stroke-width:1"/>
<polygon points="19.045126821568164,8.50204720991877 20.813908165158743,9.957853133806474 20.73553675609339,10.797797882278772" style="fill:none;stroke:black;stroke-width:1"/>
<polygon points="19.531485026771744,10.166025589983978 19.045126821568164,8.50204720991877 20.73553675609339,10.797797882278772" style="fill:none;stroke:black;stroke-width:1"/>
<polygon points="17.029654626159132,6.587323106546508 16.685912111482672,7.062871655442893 16.054771293869194,6.459945998392472" style="fill:none;stroke:black;stroke-width:1"/>
<polygon points="16.685912111482672,7.062871655442893 17.029654626159132,6.587323106546508 17.723757270703807,6.95629581369923" style="fill:none;stroke:black;stroke-width:1"/>
<polygon points="19.718741412150074,5.769381683602866 18.839846645462227,5.266508551297202 20.891279178207157,5.171503987210332" style="fill:none;stroke:black;stroke-width:1"/>
<polygon points="19.04648869383399,4.309151543622777 17.04360764617047,4.478265861968342 18.02565060739122,4.345268030774712" style="fill:none;stroke:black;stroke-width:1"/>
<polygon points="16.21890379622333,4.932213111703439 15.969795329286917,6.530788508976098 17.152978323988805,4.684360069765761" style="fill:none;stroke:black;stroke-width:1"/>
<polygon points="15.969795329286917,6.530788508976098 16.21890379622333,4.932213111703439 16.176287431652113,7.284529743082162" style="fill:none;stroke:black;stroke-width:1"/>
<polygon points="16.21890379622333,4.932213111703439 17.152978323988805,4.684360069765761 18.02565060739122,4.345268030774712" style="fill:none;stroke:black;stroke-width:1"/>
<polygon points="21.54959347287221,7.021989892188205 19.718741412150074,5.769381683602866 21.597821360436942,5.950135894084785" style="fill:none;stroke:black;stroke-width:1"/>
<polygon points="20.813908165158743,9.957853133806474 21.54959347287221,7.021989892188205 20.73553675609339,10.797797882278772" style="fill:none;stroke:black;stroke-width:1"/>
<polygon points="21.54959347287221,7.021989892188205 20.813908165158743,9.957853133806474 20.974812920021186,8.930990710714816" style="fill:none;stroke:black;stroke-width:1"/>
<polygon points="16.43857914176321,8.98953251635456 16.349310344827586,7.923448275862069 15.814729213535418,7.04105118227328" style="fill:none;stroke:black;stroke-width:1"/>
<polygon points="16.349310344827586,7.923448275862069 16.43857914176321,8.98953251635456 16.194263966896067,5.965753025355503" style="fill:none;stroke:black;stroke-width:1"/>
<polygon points="18.78677297238383,6.867016499787916 18.868950503488232,7.146583553413475 17.723757270703807,6.95629581369923" style="fill:none;stroke:black;stroke-width:1"/>
<polygon points="19.045126821568164,8.50204720991877 19.17243472266248,7.661398461708995 20.813908165158743,9.957853133806474" style="fill:none;stroke:black;stroke-width:1"/>
<polygon points="20.813908165158743,9.957853133806474 19.17243472266248,7.661398461708995 20.974812920021186,8.930990710714816" style="fill:none;stroke:black;stroke-width:1"/>
<polygon points="19.17243472266248,7.661398461708995 18.78677297238383,6.867016499787916 20.974812920021186,8.930990710714816" style="fill:none;stroke:black;stroke-width:1"/>
<polygon points="18.78677297238383,6.867016499787916 19.17243472266248,7.661398461708995 18.868950503488232,7.146583553413475" style="fill:none;stroke:black;stroke-width:1"/>
<polygon points="23.46968499371404,21.01032490388772 19.531485026771744,10.166025589983978 18.592572740108277,10.399812844266748" style="fill:none;stroke:black;stroke-width:1"/>
<polygon points="19.531485026771744,10.166025589983978 23.46968499371404,21.01032490388772 23.532435287801906,20.864863292435203" style="fill:none;stroke:black;stroke-width:1"/>
<polygon points="22.74189094443666,22.26827165083793 22.850847721587915,22.15376719275151 18.592572740108277,10.399812844266748" style="fill:none;stroke:black;stroke-width:1"/>
<polygon points="17.04129826322783,7.32167995925918 17.029654626159132,6.587323106546508 16.054771293869194,6.459945998392472" style="fill:none;stroke:black;stroke-width:1"/>
<polygon points="16.176287431652113,7.284529743082162 17.04129826322783,7.32167995925918 16.054771293869194,6.459945998392472" style="fill:none;stroke:black;stroke-width:1"/>
<polygon points="16.21890379622333,4.932213111703439 17.04129826322783,7.32167995925918 16.176287431652113,7.284529743082162" style="fill:none;stroke:black;stroke-width:1"/>
<polygon points="17.029654626159132,6.587323106546508 18.033629549909882,6.711271197808444 17.723757270703807,6.95629581369923" style="fill:none;stroke:black;stroke-width:1"/>
<polygon points="18.033629549909882,6.711271197808444 18.78677297238383,6.867016499787916 17.723757270703807,6.95629581369923" style="fill:none;stroke:black;stroke-width:1"/>
<polygon points="18.78677297238383,6.867016499787916 18.033629549909882,6.711271197808444 19.048267598796695,5.981710735246481" style="fill:none;stroke:black;stroke-width:1"/>
<polygon points="18.839846645462227,5.266508551297202 19.933278978224443,4.88881286429819 20.891279178207157,5.171503987210332" style="fill:none;stroke:black;stroke-width:1"/>
<polygon points="19.933278978224443,4.88881286429819 18.839846645462227,5.266508551297202 18.024697599037168,4.796588624009089" style="fill:none;stroke:black;stroke-width:1"/>
<polygon points="20.891279178207157,5.171503987210332 19.933278978224443,4.88881286429819 19.04648869383399,4.309151543622777" style="fill:none;stroke:black;stroke-width:1"/>
<polygon points="19.933278978224443,4.88881286429819 18.024697599037168,4.796588624009089 19.04648869383399,4.309151543622777" style="fill:none;stroke:black;stroke-width:1"/>
<polygon points="19.658656470862205,6.773349728669553 18.839846645462227,5.266508551297202 19.718741412150074,5.769381683602866" style="fill:none;stroke:black;stroke-width:1"/>
<polygon points="21.54959347287221,7.021989892188205 19.658656470862205,6.773349728669553 19.718741412150074,5.769381683602866" style="fill:none;stroke:black;stroke-width:1"/>
<polygon points="21.00691114796629,7.839471786654832 21.54959347287221,7.021989892188205 20.974812920021186,8.930990710714816" style="fill:none;stroke:black;stroke-width:1"/>
<polygon points="18.78677297238383,6.867016499787916 21.00691114796629,7.839471786654832 20.974812920021186,8.930990710714816" style="fill:none;stroke:black;stroke-width:1"/>
<polygon points="21.00691114796629,7.839471786654832 18.78677297238383,6.867016499787916 19.048267598796695,5.981710735246481" style="fill:none;stroke:black;stroke-width:1"/>
<polygon points="19.658656470862205,6.773349728669553 21.00691114796629,7.839471786654832 19.048267598796695,5.981710735246481" style="fill:none;stroke:black;stroke-width:1"/>
<polygon points="21.00691114796629,7.839471786654832 19.658656470862205,6.773349728669553 21.54959347287221,7.021989892188205" style="fill:none;stroke:black;stroke-width:1"/>
<polygon points="11.756810244718036,20.05371922077842 18.0207489021478,7.195916826006535 17.723757270703807,6.95629581369923" style="fill:none;stroke:black;stroke-width:1"/>
<polygon points="12.611266552142364,24.26106522245469 18.0207489021478,7.195916826006535 12.519053310589877,24.31515716212484" style="fill:none;stroke:black;stroke-width:1"/>
<polygon points="18.0207489021478,7.195916826006535 16.685912111482672,7.062871655442893 17.723757270703807,6.95629581369923" style="fill:none;stroke:black;stroke-width:1"/>
<polygon points="23.46968499371404,21.01032490388772 22.961379310344824,19.66758620689655 23.532435287801906,20.864863292435203" style="fill:none;stroke:black;stroke-width:1"/>
<polygon points="23.435666804315634,19.883628529663444 23.377065996879708,26.314898839059936 19.045126821568164,8.50204720991877" style="fill:none;stroke:black;stroke-width:1"/>
<polygon points="23.643546003735302,20.359260718714374 19.045126821568164,8.50204720991877 19.531485026771744,10.166025589983978" style="fill:none;stroke:black;stroke-width:1"/>
<polygon points="23.643546003735302,20.359260718714374 23.613144284546507,20.18380837432435 19.045126821568164,8.50204720991877" style="fill:none;stroke:black;stroke-width:1"/>
<polygon points="23.631314090563166,20.537827292871654 23.643546003735302,20.359260718714374 19.531485026771744,10.166025589983978" style="fill:none;stroke:black;stroke-width:1"/>
<polygon points="17.187204001808727,11.835063601870432 17.57918344680736,10.04553714263086 18.102085461260522,12.440869877073776" style="fill:none;stroke:black;stroke-width:1"/>
<polygon points="17.57918344680736,10.04553714263086 18.592572740108277,10.399812844266748 18.102085461260522,12.440869877073776" style="fill:none;stroke:black;stroke-width:1"/>
<polygon points="17.04129826322783,7.32167995925918 17.93411270478444,7.214423853724883 17.029654626159132,6.587323106546508" style="fill:none;stroke:black;stroke-width:1"/>
<polygon points="17.93411270478444,7.214423853724883 18.033629549909882,6.711271197808444 17.029654626159132,6.587323106546508" style="fill:none;stroke:black;stroke-width:1"/>
<polygon points="9.306338578557323,8.449829370677367 9.193567066899243,8.537454140938838 18.024697599037168,4.796588624009089" style="fill:none;stroke:black;stroke-width:1"/>
<polygon points="9.416194687006762,8.366225152764752 9.306338578557323,8.449829370677367 18.024697599037168,4.796588624009089" style="fill:none;stroke:black;stroke-width:1"/>
<polygon points="9.626520268187209,8.210302099934548 9.522975285724433,8.286447418688105 18.024697599037168,4.796588624009089" style="fill:none;stroke:black;stroke-width:1"/>
<polygon points="9.522975285724433,8.286447418688105 9.416194687006762,8.366225152764752 18.024697599037168,4.796588624009089" style="fill:none;stroke:black;stroke-width:1"/>
<polygon points="19.17243472266248,7.661398461708995 13.44983598738246,7.400945243621891 18.868950503488232,7.146583553413475" style="fill:none;stroke:black;stroke-width:1"/>
<polygon points="9.92093589242697,9.679707022016117 13.44983598738246,7.400945243621891 19.17243472266248,7.661398461708995" style="fill:none;stroke:black;stroke-width:1"/>
<polygon points="17.57918344680736,10.04553714263086 22.122485381167436,22.52840622177883 18.592572740108277,10.399812844266748" style="fill:none;stroke:black;stroke-width:1"/>
<polygon points="16.960890516343362,8.051689303366294 17.038032235143454,8.946235282366555 16.788354210574806,10.827570627247415" style="fill:none;stroke:black;stroke-width:1"/>
<polygon points="17.038032235143454,8.946235282366555 17.187204001808727,11.835063601870432 16.788354210574806,10.827570627247415" style="fill:none;stroke:black;stroke-width:1"/>
<polygon points="17.159787591601788,7.27127895809598 16.43857914176321,8.98953251635456 15.814729213535418,7.04105118227328" style="fill:none;stroke:black;stroke-width:1"/>
<polygon points="16.685912111482672,7.062871655442893 17.159787591601788,7.27127895809598 15.814729213535418,7.04105118227328" style="fill:none;stroke:black;stroke-width:1"/>
<polygon points="23.613144284546507,20.18380837432435 23.542219002098175,20.022760353532348 19.045126821568164,8.50204720991877" style="fill:none;stroke:black;stroke-width:1"/>
<polygon points="23.542219002098175,20.022760353532348 23.435666804315634,19.883628529663444 19.045126821568164,8.50204720991877" style="fill:none;stroke:black;stroke-width:1"/>
<polygon points="23.542219002098175,20.022760353532348 23.631314090563166,20.537827292871654 23.435666804315634,19.883628529663444" style="fill:none;stroke:black;stroke-width:1"/>
<polygon points="23.643546003735302,20.359260718714374 23.542219002098175,20.022760353532348 23.613144284546507,20.18380837432435" style="fill:none;stroke:black;stroke-width:1"/>
<polygon points="23.542219002098175,20.022760353532348 23.643546003735302,20.359260718714374 23.631314090563166,20.537827292871654" style="fill:none;stroke:black;stroke-width:1"/>
<polygon points="23.435666804315634,19.883628529663444 23.29859042462295,19.772548881693652 23.377065996879708,26.314898839059936" style="fill:none;stroke:black;stroke-width:1"/>
<polygon points="23.29859042462295,19.772548881693652 22.961379310344824,19.66758620689655 23.136092596444197,19.695657388598992" style="fill:none;stroke:black;stroke-width:1"/>
<polygon points="22.961379310344824,19.66758620689655 23.29859042462295,19.772548881693652 23.532435287801906,20.864863292435203" style="fill:none;stroke:black;stroke-width:1"/>
<polygon points="23.58727110650829,20.706754957963383 19.531485026771744,10.166025589983978 23.532435287801906,20.864863292435203" style="fill:none;stroke:black;stroke-width:1"/>
<polygon points="23.58727110650829,20.706754957963383 23.631314090563166,20.537827292871654 19.531485026771744,10.166025589983978" style="fill:none;stroke:black;stroke-width:1"/>
<polygon points="23.631314090563166,20.537827292871654 23.58727110650829,20.706754957963383 23.435666804315634,19.883628529663444" style="fill:none;stroke:black;stroke-width:1"/>
<polygon points="23.29859042462295,19.772548881693652 23.58727110650829,20.706754957963383 23.532435287801906,20.864863292435203" style="fill:none;stroke:black;stroke-width:1"/>
<polygon points="23.58727110650829,20.706754957963383 23.29859042462295,19.772548881693652 23.435666804315634,19.883628529663444" style="fill:none;stroke:black;stroke-width:1"/>
<polygon points="19.658656470862205,6.773349728669553 11.128396432391849,8.652088791968295 18.839846645462227,5.266508551297202" style="fill:none;stroke:black;stroke-width:1"/>
<polygon points="10.590966970612431,9.686143484872762 11.128396432391849,8.652088791968295 11.170246601336016,8.849114282970621" style="fill:none;stroke:black;stroke-width:1"/>
<polygon points="18.826927146341053,7.107167748190585 19.658656470862205,6.773349728669553 19.048267598796695,5.981710735246481" style="fill:none;stroke:black;stroke-width:1"/>
<polygon points="18.033629549909882,6.711271197808444 18.826927146341053,7.107167748190585 19.048267598796695,5.981710735246481" style="fill:none;stroke:black;stroke-width:1"/>
<polygon points="18.826927146341053,7.107167748190585 11.128396432391849,8.652088791968295 19.658656470862205,6.773349728669553" style="fill:none;stroke:black;stroke-width:1"/>
<polygon points="11.128396432391849,8.652088791968295 18.826927146341053,7.107167748190585 11.170246601336016,8.849114282970621" style="fill:none;stroke:black;stroke-width:1"/>
<polygon points="17.93411270478444,7.214423853724883 18.826927146341053,7.107167748190585 18.033629549909882,6.711271197808444" style="fill:none;stroke:black;stroke-width:1"/>
<polygon points="9.6719997838423,10.244624051062502 9.306338578557323,8.449829370677367 9.416194687006762,8.366225152764752" style="fill:none;stroke:black;stroke-width:1"/>
<polygon points="9.726669527871959,8.137595127991192 9.626520268187209,8.210302099934548 18.024697599037168,4.796588624009089" style="fill:none;stroke:black;stroke-width:1"/>
<polygon points="18.839846645462227,5.266508551297202 10.18854999712048,7.937016175405568 18.024697599037168,4.796588624009089" style="fill:none;stroke:black;stroke-width:1"/>
<polygon points="10.339382127016878,7.946647469469248 10.18854999712048,7.937016175405568 18.839846645462227,5.266508551297202" style="fill:none;stroke:black;stroke-width:1"/>
<polygon points="17.418986141404766,11.2958397904033 13.379811686830326,12.487097085436712 19.17243472266248,7.661398461708995" style="fill:none;stroke:black;stroke-width:1"/>
<polygon points="18.0207489021478,7.195916826006535 12.423371366665222,24.372506430136532 12.519053310589877,24.31515716212484" style="fill:none;stroke:black;stroke-width:1"/>
<polygon points="21.35345321234353,22.169016573714714 17.57918344680736,10.04553714263086 17.187204001808727,11.835063601870432" style="fill:none;stroke:black;stroke-width:1"/>
<polygon points="17.038032235143454,8.946235282366555 21.35345321234353,22.169016573714714 17.187204001808727,11.835063601870432" style="fill:none;stroke:black;stroke-width:1"/>
<polygon points="17.159787591601788,7.27127895809598 16.671662690857442,9.974154886263028 16.43857914176321,8.98953251635456" style="fill:none;stroke:black;stroke-width:1"/>
<polygon points="16.671662690857442,9.974154886263028 17.159787591601788,7.27127895809598 16.960890516343362,8.051689303366294" style="fill:none;stroke:black;stroke-width:1"/>
<polygon points="16.671662690857442,9.974154886263028 16.960890516343362,8.051689303366294 16.788354210574806,10.827570627247415" style="fill:none;stroke:black;stroke-width:1"/>
<polygon points="16.671662690857442,9.974154886263028 16.788354210574806,10.827570627247415 16.194263966896067,5.965753025355503" style="fill:none;stroke:black;stroke-width:1"/>
<polygon points="16.43857914176321,8.98953251635456 16.671662690857442,9.974154886263028 16.194263966896067,5.965753025355503" style="fill:none;stroke:black;stroke-width:1"/>
<polygon points="22.850847721587915,22.15376719275151 22.934705084899633,22.024931868636173 18.592572740108277,10.399812844266748" style="fill:none;stroke:black;stroke-width:1"/>
<polygon points="22.934705084899633,22.024931868636173 23.001499624222244,21.898674143086303 18.592572740108277,10.399812844266748" style="fill:none;stroke:black;stroke-width:1"/>
<polygon points="22.934705084899633,22.024931868636173 22.850847721587915,22.15376719275151 21.895231481596305,20.29280590097998" style="fill:none;stroke:black;stroke-width:1"/>
<polygon points="23.135083482953192,21.646172346800768 23.20187541231867,21.519921448658 18.592572740108277,10.399812844266748" style="fill:none;stroke:black;stroke-width:1"/>
<polygon points="23.135083482953192,21.646172346800768 22.28686091350948,19.830398505789574 23.20187541231867,21.519921448658" style="fill:none;stroke:black;stroke-width:1"/>
<polygon points="23.402251200415094,21.141168754229696 23.46968499371404,21.01032490388772 18.592572740108277,10.399812844266748" style="fill:none;stroke:black;stroke-width:1"/>
<polygon points="23.335459271049622,21.26741965237246 23.402251200415094,21.141168754229696 18.592572740108277,10.399812844266748" style="fill:none;stroke:black;stroke-width:1"/>
<polygon points="23.402251200415094,21.141168754229696 22.961379310344824,19.66758620689655 23.46968499371404,21.01032490388772" style="fill:none;stroke:black;stroke-width:1"/>
<polygon points="23.20187541231867,21.519921448658 23.268667341684143,21.393670550515232 18.592572740108277,10.399812844266748" style="fill:none;stroke:black;stroke-width:1"/>
<polygon points="23.268667341684143,21.393670550515232 23.335459271049622,21.26741965237246 18.592572740108277,10.399812844266748" style="fill:none;stroke:black;stroke-width:1"/>
<polygon points="22.961379310344824,19.66758620689655 7.778304514053424,24.202817655561148 23.136092596444197,19.695657388598992" style="fill:none;stroke:black;stroke-width:1"/>
<polygon points="22.850847721587915,22.15376719275151 21.828439552230833,20.41905679912275 21.895231481596305,20.29280590097998" style="fill:none;stroke:black;stroke-width:1"/>
<polygon points="22.74189094443666,22.26827165083793 21.828439552230833,20.41905679912275 22.850847721587915,22.15376719275151" style="fill:none;stroke:black;stroke-width:1"/>
<polygon points="22.462162285361767,22.443373048700913 21.628063764134403,20.797809493551057 21.69485569349988,20.671558595408285" style="fill:none;stroke:black;stroke-width:1"/>
<polygon points="11.552970448175516,23.71611133604977 17.038032235143454,8.946235282366555 16.960890516343362,8.051689303366294" style="fill:none;stroke:black;stroke-width:1"/>
<polygon points="11.645183689728004,23.66201939637962 11.552970448175516,23.71611133604977 16.960890516343362,8.051689303366294" style="fill:none;stroke:black;stroke-width:1"/>
<polygon points="24.800568270607226,17.77770235019608 25.93342840749999,19.823096301502083 18.0207489021478,7.195916826006535" style="fill:none;stroke:black;stroke-width:1"/>
<polygon points="19.17243472266248,7.661398461708995 26.576454075282935,16.223169537183015 23.169334974173765,16.84624493223151" style="fill:none;stroke:black;stroke-width:1"/>
<polygon points="26.576454075282935,16.223169537183015 19.17243472266248,7.661398461708995 19.045126821568164,8.50204720991877" style="fill:none;stroke:black;stroke-width:1"/>
<polygon points="10.74076776143602,9.572339347070558 11.087068721457399,9.223962927474181 10.850229632099733,9.487694471352011" style="fill:none;stroke:black;stroke-width:1"/>
<polygon points="17.93411270478444,7.214423853724883 10.74076776143602,9.572339347070558 10.850229632099733,9.487694471352011" style="fill:none;stroke:black;stroke-width:1"/>
<polygon points="18.826927146341053,7.107167748190585 11.155379645918494,9.043983427875748 11.170246601336016,8.849114282970621" style="fill:none;stroke:black;stroke-width:1"/>
<polygon points="11.155379645918494,9.043983427875748 18.826927146341053,7.107167748190585 11.087068721457399,9.223962927474181" style="fill:none;stroke:black;stroke-width:1"/>
<polygon points="10.74076776143602,9.572339347070558 11.155379645918494,9.043983427875748 11.087068721457399,9.223962927474181" style="fill:none;stroke:black;stroke-width:1"/>
<polygon points="11.155379645918494,9.043983427875748 10.590966970612431,9.686143484872762 11.170246601336016,8.849114282970621" style="fill:none;stroke:black;stroke-width:1"/>
<polygon points="10.972998470573494,9.374853772804592 18.826927146341053,7.107167748190585 17.93411270478444,7.214423853724883" style="fill:none;stroke:black;stroke-width:1"/>
<polygon points="18.826927146341053,7.107167748190585 10.972998470573494,9.374853772804592 11.087068721457399,9.223962927474181" style="fill:none;stroke:black;stroke-width:1"/>
<polygon points="10.972998470573494,9.374853772804592 17.93411270478444,7.214423853724883 10.850229632099733,9.487694471352011" style="fill:none;stroke:black;stroke-width:1"/>
<polygon points="11.087068721457399,9.223962927474181 10.972998470573494,9.374853772804592 10.850229632099733,9.487694471352011" style="fill:none;stroke:black;stroke-width:1"/>
<polygon points="9.522975285724433,8.286447418688105 9.83515300722617,10.20588456992833 9.416194687006762,8.366225152764752" style="fill:none;stroke:black;stroke-width:1"/>
<polygon points="9.83515300722617,10.20588456992833 9.6719997838423,10.244624051062502 9.416194687006762,8.366225152764752" style="fill:none;stroke:black;stroke-width:1"/>
<polygon points="9.83515300722617,10.20588456992833 9.522975285724433,8.286447418688105 9.626520268187209,8.210302099934548" style="fill:none;stroke:black;stroke-width:1"/>
<polygon points="9.306338578557323,8.449829370677367 9.488754340854452,10.26295584440319 9.193567066899243,8.537454140938838" style="fill:none;stroke:black;stroke-width:1"/>
<polygon points="9.6719997838423,10.244624051062502 9.488754340854452,10.26295584440319 9.306338578557323,8.449829370677367" style="fill:none;stroke:black;stroke-width:1"/>
<polygon points="9.488754340854452,10.26295584440319 9.6719997838423,10.244624051062502 9.291504761527685,10.259279589854058" style="fill:none;stroke:black;stroke-width:1"/>
<polygon points="9.92521859919487,8.001346710014309 9.823262958255558,8.068132434345157 18.024697599037168,4.796588624009089" style="fill:none;stroke:black;stroke-width:1"/>
<polygon points="9.823262958255558,8.068132434345157 9.726669527871959,8.137595127991192 18.024697599037168,4.796588624009089" style="fill:none;stroke:black;stroke-width:1"/>
<polygon points="10.048671670169421,7.9558927456173665 9.92521859919487,8.001346710014309 18.024697599037168,4.796588624009089" style="fill:none;stroke:black;stroke-width:1"/>
<polygon points="10.18854999712048,7.937016175405568 10.048671670169421,7.9558927456173665 18.024697599037168,4.796588624009089" style="fill:none;stroke:black;stroke-width:1"/>
<polygon points="8.959918260049688,8.725541612559875 17.04360764617047,4.478265861968342 19.04648869383399,4.309151543622777" style="fill:none;stroke:black;stroke-width:1"/>
<polygon points="8.959918260049688,8.725541612559875 8.83936117790447,8.826392450945207 17.04360764617047,4.478265861968342" style="fill:none;stroke:black;stroke-width:1"/>
<polygon points="8.395145026865858,9.573980292756364 16.21890379622333,4.932213111703439 18.02565060739122,4.345268030774712" style="fill:none;stroke:black;stroke-width:1"/>
<polygon points="8.689213982595183,10.087181122886776 17.04129826322783,7.32167995925918 16.21890379622333,4.932213111703439" style="fill:none;stroke:black;stroke-width:1"/>
<polygon points="8.539024634314739,9.94634722131319 8.689213982595183,10.087181122886776 16.21890379622333,4.932213111703439" style="fill:none;stroke:black;stroke-width:1"/>
<polygon points="21.161849282135677,13.159592678608268 19.17243472266248,7.661398461708995 23.169334974173765,16.84624493223151" style="fill:none;stroke:black;stroke-width:1"/>
<polygon points="21.161849282135677,13.159592678608268 17.418986141404766,11.2958397904033 19.17243472266248,7.661398461708995" style="fill:none;stroke:black;stroke-width:1"/>
<polygon points="7.611316517067919,13.203213293400097 9.92093589242697,9.679707022016117 19.17243472266248,7.661398461708995" style="fill:none;stroke:black;stroke-width:1"/>
<polygon points="7.725856661019483,16.318903449736005 7.611316517067919,13.203213293400097 19.17243472266248,7.661398461708995" style="fill:none;stroke:black;stroke-width:1"/>
<polygon points="13.379811686830326,12.487097085436712 11.263077215832823,16.03001501543313 19.17243472266248,7.661398461708995" style="fill:none;stroke:black;stroke-width:1"/>
<polygon points="11.263077215832823,16.03001501543313 7.725856661019483,16.318903449736005 19.17243472266248,7.661398461708995" style="fill:none;stroke:black;stroke-width:1"/>
<polygon points="18.868950503488232,7.146583553413475 10.976203187648567,24.98847170363509 17.723757270703807,6.95629581369923" style="fill:none;stroke:black;stroke-width:1"/>
<polygon points="12.22013848326607,24.495091127640407 12.32383982062883,24.432652597798295 18.0207489021478,7.195916826006535" style="fill:none;stroke:black;stroke-width:1"/>
<polygon points="12.32383982062883,24.432652597798295 12.423371366665222,24.372506430136532 18.0207489021478,7.195916826006535" style="fill:none;stroke:black;stroke-width:1"/>
<polygon points="12.112012925462448,24.559281330272157 12.22013848326607,24.495091127640407 18.0207489021478,7.195916826006535" style="fill:none;stroke:black;stroke-width:1"/>
<polygon points="23.001499624222244,21.898674143086303 23.06829155358772,21.772423244943536 18.592572740108277,10.399812844266748" style="fill:none;stroke:black;stroke-width:1"/>
<polygon points="23.06829155358772,21.772423244943536 23.135083482953192,21.646172346800768 18.592572740108277,10.399812844266748" style="fill:none;stroke:black;stroke-width:1"/>
<polygon points="22.04569073874081,20.03960618987658 23.06829155358772,21.772423244943536 23.001499624222244,21.898674143086303" style="fill:none;stroke:black;stroke-width:1"/>
<polygon points="22.28686091350948,19.830398505789574 22.437009364393262,19.753589216715792 23.20187541231867,21.519921448658" style="fill:none;stroke:black;stroke-width:1"/>
<polygon points="22.437009364393262,19.753589216715792 23.268667341684143,21.393670550515232 23.20187541231867,21.519921448658" style="fill:none;stroke:black;stroke-width:1"/>
<polygon points="5.364931866775086,16.116075355122376 22.437009364393262,19.753589216715792 6.535404188186167,11.99874078074225" style="fill:none;stroke:black;stroke-width:1"/>
<polygon points="22.437009364393262,19.753589216715792 22.28686091350948,19.830398505789574 6.535404188186167,11.99874078074225" style="fill:none;stroke:black;stroke-width:1"/>
<polygon points="21.96205715830552,20.16646347730261 22.934705084899633,22.024931868636173 21.895231481596305,20.29280590097998" style="fill:none;stroke:black;stroke-width:1"/>
<polygon points="22.934705084899633,22.024931868636173 21.96205715830552,20.16646347730261 23.001499624222244,21.898674143086303" style="fill:none;stroke:black;stroke-width:1"/>
<polygon points="21.96205715830552,20.16646347730261 22.04569073874081,20.03960618987658 23.001499624222244,21.898674143086303" style="fill:none;stroke:black;stroke-width:1"/>
<polygon points="5.795875214652695,20.457197317317288 7.778304514053424,24.202817655561148 22.961379310344824,19.66758620689655" style="fill:none;stroke:black;stroke-width:1"/>
<polygon points="15.024173579631665,28.358476802711856 23.29859042462295,19.772548881693652 23.136092596444197,19.695657388598992" style="fill:none;stroke:black;stroke-width:1"/>
<polygon points="12.66697298717574,6.583588488190086 21.96205715830552,20.16646347730261 11.27128292250416,24.69098674519816" style="fill:none;stroke:black;stroke-width:1"/>
<polygon points="21.561271834768927,20.924060391693825 22.122485381167436,22.52840622177883 21.494479905403452,21.050311289836593" style="fill:none;stroke:black;stroke-width:1"/>
<polygon points="21.761647622865354,20.545307697265518 21.828439552230833,20.41905679912275 22.74189094443666,22.26827165083793" style="fill:none;stroke:black;stroke-width:1"/>
<polygon points="22.462162285361767,22.443373048700913 22.29813197181125,22.4985125283659 21.628063764134403,20.797809493551057" style="fill:none;stroke:black;stroke-width:1"/>
<polygon points="21.561271834768927,20.924060391693825 22.29813197181125,22.4985125283659 22.122485381167436,22.52840622177883" style="fill:none;stroke:black;stroke-width:1"/>
<polygon points="22.29813197181125,22.4985125283659 21.561271834768927,20.924060391693825 21.628063764134403,20.797809493551057" style="fill:none;stroke:black;stroke-width:1"/>
<polygon points="22.122485381167436,22.52840622177883 22.29813197181125,22.4985125283659 18.592572740108277,10.399812844266748" style="fill:none;stroke:black;stroke-width:1"/>
<polygon points="22.29813197181125,22.4985125283659 22.462162285361767,22.443373048700913 18.592572740108277,10.399812844266748" style="fill:none;stroke:black;stroke-width:1"/>
<polygon points="17.159787591601788,7.27127895809598 12.535842666675865,23.211069024245383 16.960890516343362,8.051689303366294" style="fill:none;stroke:black;stroke-width:1"/>
<polygon points="17.038032235143454,8.946235282366555 11.292555360435689,23.85504724302773 21.30945999931026,21.4847250861029" style="fill:none;stroke:black;stroke-width:1"/>
<polygon points="15.168723816576938,22.38240603255936 18.0207489021478,7.195916826006535 11.756810244718036,20.05371922077842" style="fill:none;stroke:black;stroke-width:1"/>
<polygon points="15.168723816576938,22.38240603255936 19.348038609657117,21.74124751137016 18.0207489021478,7.195916826006535" style="fill:none;stroke:black;stroke-width:1"/>
<polygon points="21.89515190107836,18.525933718459076 24.800568270607226,17.77770235019608 18.0207489021478,7.195916826006535" style="fill:none;stroke:black;stroke-width:1"/>
<polygon points="19.348038609657117,21.74124751137016 21.89515190107836,18.525933718459076 18.0207489021478,7.195916826006535" style="fill:none;stroke:black;stroke-width:1"/>
<polygon points="25.93342840749999,19.823096301502083 23.86711320295359,23.529907006213804 18.0207489021478,7.195916826006535" style="fill:none;stroke:black;stroke-width:1"/>
<polygon points="23.86711320295359,23.529907006213804 12.112012925462448,24.559281330272157 18.0207489021478,7.195916826006535" style="fill:none;stroke:black;stroke-width:1"/>
<polygon points="23.111195850136657,9.367391723271142 25.78762486575463,12.573707415753315 19.045126821568164,8.50204720991877" style="fill:none;stroke:black;stroke-width:1"/>
<polygon points="25.78762486575463,12.573707415753315 26.576454075282935,16.223169537183015 19.045126821568164,8.50204720991877" style="fill:none;stroke:black;stroke-width:1"/>
<polygon points="23.377065996879708,26.314898839059936 26.219100449697287,23.26260388845896 19.045126821568164,8.50204720991877" style="fill:none;stroke:black;stroke-width:1"/>
<polygon points="26.219100449697287,23.26260388845896 27.766521129628565,19.302732452774066 19.045126821568164,8.50204720991877" style="fill:none;stroke:black;stroke-width:1"/>
<polygon points="19.310012903463964,7.50045546028319 23.111195850136657,9.367391723271142 19.045126821568164,8.50204720991877" style="fill:none;stroke:black;stroke-width:1"/>
<polygon points="27.766521129628565,19.302732452774066 19.310012903463964,7.50045546028319 19.045126821568164,8.50204720991877" style="fill:none;stroke:black;stroke-width:1"/>
<polygon points="10.802887060243322,8.165893235031369 10.652021983520997,8.059155530784384 18.839846645462227,5.266508551297202" style="fill:none;stroke:black;stroke-width:1"/>
<polygon points="11.128396432391849,8.652088791968295 11.048813382581343,8.468332271431553 18.839846645462227,5.266508551297202" style="fill:none;stroke:black;stroke-width:1"/>
<polygon points="11.048813382581343,8.468332271431553 11.128396432391849,8.652088791968295 10.590966970612431,9.686143484872762" style="fill:none;stroke:black;stroke-width:1"/>
<polygon points="11.155379645918494,9.043983427875748 10.651990012170446,9.636041302684072 10.590966970612431,9.686143484872762" style="fill:none;stroke:black;stroke-width:1"/>
<polygon points="10.651990012170446,9.636041302684072 11.155379645918494,9.043983427875748 10.74076776143602,9.572339347070558" style="fill:none;stroke:black;stroke-width:1"/>
<polygon points="10.651990012170446,9.636041302684072 10.74076776143602,9.572339347070558 17.93411270478444,7.214423853724883" style="fill:none;stroke:black;stroke-width:1"/>
<polygon points="10.651990012170446,9.636041302684072 17.93411270478444,7.214423853724883 17.04129826322783,7.32167995925918" style="fill:none;stroke:black;stroke-width:1"/>
<polygon points="10.590966970612431,9.686143484872762 10.651990012170446,9.636041302684072 17.04129826322783,7.32167995925918" style="fill:none;stroke:black;stroke-width:1"/>
<polygon points="9.726669527871959,8.137595127991192 9.972125927740988,10.148337761097018 9.626520268187209,8.210302099934548" style="fill:none;stroke:black;stroke-width:1"/>
<polygon points="9.972125927740988,10.148337761097018 9.83515300722617,10.20588456992833 9.626520268187209,8.210302099934548" style="fill:none;stroke:black;stroke-width:1"/>
<polygon points="8.959918260049688,8.725541612559875 9.078040258555657,8.629293532062047 9.291504761527685,10.259279589854058" style="fill:none;stroke:black;stroke-width:1"/>
<polygon points="9.488754340854452,10.26295584440319 9.078040258555657,8.629293532062047 9.193567066899243,8.537454140938838" style="fill:none;stroke:black;stroke-width:1"/>
<polygon points="9.078040258555657,8.629293532062047 9.488754340854452,10.26295584440319 9.291504761527685,10.259279589854058" style="fill:none;stroke:black;stroke-width:1"/>
<polygon points="9.193567066899243,8.537454140938838 9.078040258555657,8.629293532062047 19.04648869383399,4.309151543622777" style="fill:none;stroke:black;stroke-width:1"/>
<polygon points="9.078040258555657,8.629293532062047 8.959918260049688,8.725541612559875 19.04648869383399,4.309151543622777" style="fill:none;stroke:black;stroke-width:1"/>
<polygon points="8.438469097678126,9.771025481585564 8.539024634314739,9.94634722131319 16.21890379622333,4.932213111703439" style="fill:none;stroke:black;stroke-width:1"/>
<polygon points="8.395145026865858,9.573980292756364 8.438469097678126,9.771025481585564 16.21890379622333,4.932213111703439" style="fill:none;stroke:black;stroke-width:1"/>
<polygon points="8.438469097678126,9.771025481585564 8.395145026865858,9.573980292756364 8.539024634314739,9.94634722131319" style="fill:none;stroke:black;stroke-width:1"/>
<polygon points="8.689213982595183,10.087181122886776 8.881379310344828,10.181034482758621 17.04129826322783,7.32167995925918" style="fill:none;stroke:black;stroke-width:1"/>
<polygon points="8.881379310344828,10.181034482758621 10.590966970612431,9.686143484872762 17.04129826322783,7.32167995925918" style="fill:none;stroke:black;stroke-width:1"/>
<polygon points="8.881379310344828,10.181034482758621 8.689213982595183,10.087181122886776 8.479737243515691,9.198816940852172" style="fill:none;stroke:black;stroke-width:1"/>
<polygon points="8.881379310344828,10.181034482758621 9.972125927740988,10.148337761097018 10.590966970612431,9.686143484872762" style="fill:none;stroke:black;stroke-width:1"/>
<polygon points="9.972125927740988,10.148337761097018 8.881379310344828,10.181034482758621 9.83515300722617,10.20588456992833" style="fill:none;stroke:black;stroke-width:1"/>
<polygon points="8.395145026865858,9.573980292756364 8.41095077177798,9.378023769434161 8.539024634314739,9.94634722131319" style="fill:none;stroke:black;stroke-width:1"/>
<polygon points="8.41095077177798,9.378023769434161 8.689213982595183,10.087181122886776 8.539024634314739,9.94634722131319" style="fill:none;stroke:black;stroke-width:1"/>
<polygon points="8.689213982595183,10.087181122886776 8.41095077177798,9.378023769434161 8.479737243515691,9.198816940852172" style="fill:none;stroke:black;stroke-width:1"/>
<polygon points="8.41095077177798,9.378023769434161 8.395145026865858,9.573980292756364 18.02565060739122,4.345268030774712" style="fill:none;stroke:black;stroke-width:1"/>
<polygon points="17.04360764617047,4.478265861968342 8.41095077177798,9.378023769434161 18.02565060739122,4.345268030774712" style="fill:none;stroke:black;stroke-width:1"/>
<polygon points="8.479737243515691,9.198816940852172 8.41095077177798,9.378023769434161 17.04360764617047,4.478265861968342" style="fill:none;stroke:black;stroke-width:1"/>
<polygon points="18.99068375203698,20.904047087011875 14.775001687473484,20.90680413115241 18.868950503488232,7.146583553413475" style="fill:none;stroke:black;stroke-width:1"/>
<polygon points="20.62380824097861,14.223837742162768 14.944993767065164,26.58565537703452 18.868950503488232,7.146583553413475" style="fill:none;stroke:black;stroke-width:1"/>
<polygon points="14.944993767065164,26.58565537703452 10.976203187648567,24.98847170363509 18.868950503488232,7.146583553413475" style="fill:none;stroke:black;stroke-width:1"/>
<polygon points="21.59658103953751,22.419704764524386 21.758878315246314,22.496904368843474 17.57918344680736,10.04553714263086" style="fill:none;stroke:black;stroke-width:1"/>
<polygon points="21.35345321234353,22.169016573714714 21.45973842742856,22.308363506489464 17.57918344680736,10.04553714263086" style="fill:none;stroke:black;stroke-width:1"/>
<polygon points="21.45973842742856,22.308363506489464 21.59658103953751,22.419704764524386 17.57918344680736,10.04553714263086" style="fill:none;stroke:black;stroke-width:1"/>
<polygon points="21.59658103953751,22.419704764524386 21.45973842742856,22.308363506489464 21.30945999931026,21.4847250861029" style="fill:none;stroke:black;stroke-width:1"/>
<polygon points="21.265358362653746,21.65358331461361 17.038032235143454,8.946235282366555 21.30945999931026,21.4847250861029" style="fill:none;stroke:black;stroke-width:1"/>
<polygon points="21.265358362653746,21.65358331461361 21.25275982144276,21.832225494198866 17.038032235143454,8.946235282366555" style="fill:none;stroke:black;stroke-width:1"/>
<polygon points="21.25275982144276,21.832225494198866 21.265358362653746,21.65358331461361 21.35345321234353,22.169016573714714" style="fill:none;stroke:black;stroke-width:1"/>
<polygon points="21.45973842742856,22.308363506489464 21.265358362653746,21.65358331461361 21.30945999931026,21.4847250861029" style="fill:none;stroke:black;stroke-width:1"/>
<polygon points="21.265358362653746,21.65358331461361 21.45973842742856,22.308363506489464 21.35345321234353,22.169016573714714" style="fill:none;stroke:black;stroke-width:1"/>
<polygon points="21.282828127706487,22.007799945176153 21.35345321234353,22.169016573714714 17.038032235143454,8.946235282366555" style="fill:none;stroke:black;stroke-width:1"/>
<polygon points="21.25275982144276,21.832225494198866 21.282828127706487,22.007799945176153 17.038032235143454,8.946235282366555" style="fill:none;stroke:black;stroke-width:1"/>
<polygon points="21.282828127706487,22.007799945176153 21.25275982144276,21.832225494198866 21.35345321234353,22.169016573714714" style="fill:none;stroke:black;stroke-width:1"/>
<polygon points="22.15519001438373,19.926661014774368 23.06829155358772,21.772423244943536 22.04569073874081,20.03960618987658" style="fill:none;stroke:black;stroke-width:1"/>
<polygon points="22.28686091350948,19.830398505789574 22.15519001438373,19.926661014774368 6.535404188186167,11.99874078074225" style="fill:none;stroke:black;stroke-width:1"/>
<polygon points="23.135083482953192,21.646172346800768 22.15519001438373,19.926661014774368 22.28686091350948,19.830398505789574" style="fill:none;stroke:black;stroke-width:1"/>
<polygon points="23.06829155358772,21.772423244943536 22.15519001438373,19.926661014774368 23.135083482953192,21.646172346800768" style="fill:none;stroke:black;stroke-width:1"/>
<polygon points="23.268667341684143,21.393670550515232 22.601941295310283,19.69900370134663 23.335459271049622,21.26741965237246" style="fill:none;stroke:black;stroke-width:1"/>
<polygon points="22.437009364393262,19.753589216715792 22.601941295310283,19.69900370134663 23.268667341684143,21.393670550515232" style="fill:none;stroke:black;stroke-width:1"/>
<polygon points="5.795875214652695,20.457197317317288 22.601941295310283,19.69900370134663 5.364931866775086,16.116075355122376" style="fill:none;stroke:black;stroke-width:1"/>
<polygon points="22.601941295310283,19.69900370134663 22.437009364393262,19.753589216715792 5.364931866775086,16.116075355122376" style="fill:none;stroke:black;stroke-width:1"/>
<polygon points="7.778304514053424,24.202817655561148 10.966957634278202,26.948987755867634 23.136092596444197,19.695657388598992" style="fill:none;stroke:black;stroke-width:1"/>
<polygon points="10.966957634278202,26.948987755867634 15.024173579631665,28.358476802711856 23.136092596444197,19.695657388598992" style="fill:none;stroke:black;stroke-width:1"/>
<polygon points="23.29859042462295,19.772548881693652 19.51396039893882,28.123737770733932 23.377065996879708,26.314898839059936" style="fill:none;stroke:black;stroke-width:1"/>
<polygon points="15.024173579631665,28.358476802711856 19.51396039893882,28.123737770733932 23.29859042462295,19.772548881693652" style="fill:none;stroke:black;stroke-width:1"/>
<polygon points="22.15519001438373,19.926661014774368 9.06026064063901,8.70919849672008 6.535404188186167,11.99874078074225" style="fill:none;stroke:black;stroke-width:1"/>
<polygon points="9.06026064063901,8.70919849672008 22.15519001438373,19.926661014774368 22.04569073874081,20.03960618987658" style="fill:none;stroke:black;stroke-width:1"/>
<polygon points="21.96205715830552,20.16646347730261 9.06026064063901,8.70919849672008 22.04569073874081,20.03960618987658" style="fill:none;stroke:black;stroke-width:1"/>
<polygon points="12.66697298717574,6.583588488190086 9.06026064063901,8.70919849672008 21.96205715830552,20.16646347730261" style="fill:none;stroke:black;stroke-width:1"/>
<polygon points="22.611205537632426,22.36571651283966 22.462162285361767,22.443373048700913 21.69485569349988,20.671558595408285" style="fill:none;stroke:black;stroke-width:1"/>
<polygon points="21.761647622865354,20.545307697265518 22.611205537632426,22.36571651283966 21.69485569349988,20.671558595408285" style="fill:none;stroke:black;stroke-width:1"/>
<polygon points="22.611205537632426,22.36571651283966 21.761647622865354,20.545307697265518 22.74189094443666,22.26827165083793" style="fill:none;stroke:black;stroke-width:1"/>
<polygon points="22.611205537632426,22.36571651283966 22.74189094443666,22.26827165083793 18.592572740108277,10.399812844266748" style="fill:none;stroke:black;stroke-width:1"/>
<polygon points="22.462162285361767,22.443373048700913 22.611205537632426,22.36571651283966 18.592572740108277,10.399812844266748" style="fill:none;stroke:black;stroke-width:1"/>
<polygon points="13.12729093101454,23.86025622520592 17.159787591601788,7.27127895809598 16.685912111482672,7.062871655442893" style="fill:none;stroke:black;stroke-width:1"/>
<polygon points="13.087972774670263,23.948568508028547 13.12729093101454,23.86025622520592 16.685912111482672,7.062871655442893" style="fill:none;stroke:black;stroke-width:1"/>
<polygon points="11.377159825409649,23.812944816768173 11.292555360435689,23.85504724302773 17.038032235143454,8.946235282366555" style="fill:none;stroke:black;stroke-width:1"/>
<polygon points="10.495696606827442,7.986717097898742 10.339382127016878,7.946647469469248 18.839846645462227,5.266508551297202" style="fill:none;stroke:black;stroke-width:1"/>
<polygon points="10.652021983520997,8.059155530784384 10.495696606827442,7.986717097898742 18.839846645462227,5.266508551297202" style="fill:none;stroke:black;stroke-width:1"/>
<polygon points="10.939550404753291,8.304587573567336 10.802887060243322,8.165893235031369 18.839846645462227,5.266508551297202" style="fill:none;stroke:black;stroke-width:1"/>
<polygon points="11.048813382581343,8.468332271431553 10.939550404753291,8.304587573567336 18.839846645462227,5.266508551297202" style="fill:none;stroke:black;stroke-width:1"/>
<polygon points="9.823262958255558,8.068132434345157 10.077978873911354,10.077082333955698 9.726669527871959,8.137595127991192" style="fill:none;stroke:black;stroke-width:1"/>
<polygon points="10.077978873911354,10.077082333955698 9.972125927740988,10.148337761097018 9.726669527871959,8.137595127991192" style="fill:none;stroke:black;stroke-width:1"/>
<polygon points="10.077978873911354,10.077082333955698 9.823262958255558,8.068132434345157 9.92521859919487,8.001346710014309" style="fill:none;stroke:black;stroke-width:1"/>
<polygon points="9.972125927740988,10.148337761097018 10.077978873911354,10.077082333955698 10.590966970612431,9.686143484872762" style="fill:none;stroke:black;stroke-width:1"/>
<polygon points="9.087736520757906,10.231454763200308 8.959918260049688,8.725541612559875 9.291504761527685,10.259279589854058" style="fill:none;stroke:black;stroke-width:1"/>
<polygon points="8.959918260049688,8.725541612559875 9.087736520757906,10.231454763200308 8.83936117790447,8.826392450945207" style="fill:none;stroke:black;stroke-width:1"/>
<polygon points="9.6719997838423,10.244624051062502 9.087736520757906,10.231454763200308 9.291504761527685,10.259279589854058" style="fill:none;stroke:black;stroke-width:1"/>
<polygon points="9.83515300722617,10.20588456992833 9.087736520757906,10.231454763200308 9.6719997838423,10.244624051062502" style="fill:none;stroke:black;stroke-width:1"/>
<polygon points="8.881379310344828,10.181034482758621 9.087736520757906,10.231454763200308 9.83515300722617,10.20588456992833" style="fill:none;stroke:black;stroke-width:1"/>
<polygon points="8.83936117790447,8.826392450945207 8.716529118643129,8.932040115730931 17.04360764617047,4.478265861968342" style="fill:none;stroke:black;stroke-width:1"/>
<polygon points="9.087736520757906,10.231454763200308 8.716529118643129,8.932040115730931 8.83936117790447,8.826392450945207" style="fill:none;stroke:black;stroke-width:1"/>
<polygon points="8.716529118643129,8.932040115730931 9.087736520757906,10.231454763200308 8.881379310344828,10.181034482758621" style="fill:none;stroke:black;stroke-width:1"/>
<polygon points="13.44983598738246,7.400945243621891 21.45511599126778,17.6584493207249 18.868950503488232,7.146583553413475" style="fill:none;stroke:black;stroke-width:1"/>
<polygon points="21.45511599126778,17.6584493207249 18.99068375203698,20.904047087011875 18.868950503488232,7.146583553413475" style="fill:none;stroke:black;stroke-width:1"/>
<polygon points="17.15892676427779,12.086643205254724 20.62380824097861,14.223837742162768 18.868950503488232,7.146583553413475" style="fill:none;stroke:black;stroke-width:1"/>
<polygon points="13.335436044469263,13.612867723356532 17.15892676427779,12.086643205254724 18.868950503488232,7.146583553413475" style="fill:none;stroke:black;stroke-width:1"/>
<polygon points="14.775001687473484,20.90680413115241 12.259480555322533,17.630852872355145 18.868950503488232,7.146583553413475" style="fill:none;stroke:black;stroke-width:1"/>
<polygon points="12.259480555322533,17.630852872355145 13.335436044469263,13.612867723356532 18.868950503488232,7.146583553413475" style="fill:none;stroke:black;stroke-width:1"/>
<polygon points="9.809819216317774,17.407663930494174 11.756810244718036,20.05371922077842 17.723757270703807,6.95629581369923" style="fill:none;stroke:black;stroke-width:1"/>
<polygon points="6.593472879577132,17.967819446173728 9.809819216317774,17.407663930494174 17.723757270703807,6.95629581369923" style="fill:none;stroke:black;stroke-width:1"/>
<polygon points="10.976203187648567,24.98847170363509 8.052605520315224,21.975968005972586 17.723757270703807,6.95629581369923" style="fill:none;stroke:black;stroke-width:1"/>
<polygon points="8.052605520315224,21.975968005972586 6.593472879577132,17.967819446173728 17.723757270703807,6.95629581369923" style="fill:none;stroke:black;stroke-width:1"/>
<polygon points="22.122485381167436,22.52840622177883 21.941664803690443,22.53310344827586 21.494479905403452,21.050311289836593" style="fill:none;stroke:black;stroke-width:1"/>
<polygon points="21.941664803690443,22.53310344827586 21.427046112104506,21.181155140178568 21.494479905403452,21.050311289836593" style="fill:none;stroke:black;stroke-width:1"/>
<polygon points="21.941664803690443,22.53310344827586 22.122485381167436,22.52840622177883 17.57918344680736,10.04553714263086" style="fill:none;stroke:black;stroke-width:1"/>
<polygon points="21.758878315246314,22.496904368843474 21.941664803690443,22.53310344827586 17.57918344680736,10.04553714263086" style="fill:none;stroke:black;stroke-width:1"/>
<polygon points="21.941664803690443,22.53310344827586 21.758878315246314,22.496904368843474 21.59658103953751,22.419704764524386" style="fill:none;stroke:black;stroke-width:1"/>
<polygon points="22.601941295310283,19.69900370134663 22.777962634535736,19.669412513475685 23.335459271049622,21.26741965237246" style="fill:none;stroke:black;stroke-width:1"/>
<polygon points="23.402251200415094,21.141168754229696 22.777962634535736,19.669412513475685 22.961379310344824,19.66758620689655" style="fill:none;stroke:black;stroke-width:1"/>
<polygon points="22.777962634535736,19.669412513475685 23.402251200415094,21.141168754229696 23.335459271049622,21.26741965237246" style="fill:none;stroke:black;stroke-width:1"/>
<polygon points="22.777962634535736,19.669412513475685 5.795875214652695,20.457197317317288 22.961379310344824,19.66758620689655" style="fill:none;stroke:black;stroke-width:1"/>
<polygon points="22.777962634535736,19.669412513475685 22.601941295310283,19.69900370134663 5.795875214652695,20.457197317317288" style="fill:none;stroke:black;stroke-width:1"/>
<polygon points="13.03033873111504,24.023637630926903 13.087972774670263,23.948568508028547 16.685912111482672,7.062871655442893" style="fill:none;stroke:black;stroke-width:1"/>
<polygon points="18.0207489021478,7.195916826006535 12.787077174908232,24.16423174173628 16.685912111482672,7.062871655442893" style="fill:none;stroke:black;stroke-width:1"/>
<polygon points="12.787077174908232,24.16423174173628 12.871681639882192,24.12212931547673 16.685912111482672,7.062871655442893" style="fill:none;stroke:black;stroke-width:1"/>
<polygon points="12.989415009200393,23.361203568315 12.893237817059209,23.290409013875255 17.159787591601788,7.27127895809598" style="fill:none;stroke:black;stroke-width:1"/>
<polygon points="12.893237817059209,23.290409013875255 12.782723266105387,23.240600657062537 17.159787591601788,7.27127895809598" style="fill:none;stroke:black;stroke-width:1"/>
<polygon points="12.662177941092967,23.21356915783889 12.535842666675865,23.211069024245383 17.159787591601788,7.27127895809598" style="fill:none;stroke:black;stroke-width:1"/>
<polygon points="12.782723266105387,23.240600657062537 12.662177941092967,23.21356915783889 17.159787591601788,7.27127895809598" style="fill:none;stroke:black;stroke-width:1"/>
<polygon points="11.552970448175516,23.71611133604977 11.463790305747116,23.766536888700685 17.038032235143454,8.946235282366555" style="fill:none;stroke:black;stroke-width:1"/>
<polygon points="11.463790305747116,23.766536888700685 11.377159825409649,23.812944816768173 17.038032235143454,8.946235282366555" style="fill:none;stroke:black;stroke-width:1"/>
<polygon points="21.941664803690443,22.53310344827586 21.364295818016643,21.326616751631086 21.427046112104506,21.181155140178568" style="fill:none;stroke:black;stroke-width:1"/>
<polygon points="21.364295818016643,21.326616751631086 21.59658103953751,22.419704764524386 21.30945999931026,21.4847250861029" style="fill:none;stroke:black;stroke-width:1"/>
<polygon points="21.364295818016643,21.326616751631086 21.941664803690443,22.53310344827586 21.59658103953751,22.419704764524386" style="fill:none;stroke:black;stroke-width:1"/>
<polygon points="11.292555360435689,23.85504724302773 11.20818863468355,23.895948635096914 21.30945999931026,21.4847250861029" style="fill:none;stroke:black;stroke-width:1"/>
<polygon points="11.20818863468355,23.895948635096914 21.364295818016643,21.326616751631086 21.30945999931026,21.4847250861029" style="fill:none;stroke:black;stroke-width:1"/>
<polygon points="21.364295818016643,21.326616751631086 11.20818863468355,23.895948635096914 11.134252065838034,23.95435668011531" style="fill:none;stroke:black;stroke-width:1"/>
<polygon points="11.02220200968361,24.31991762078235 21.561271834768927,20.924060391693825 21.494479905403452,21.050311289836593" style="fill:none;stroke:black;stroke-width:1"/>
<polygon points="10.048671670169421,7.9558927456173665 10.170432898205787,10.011006379783561 9.92521859919487,8.001346710014309" style="fill:none;stroke:black;stroke-width:1"/>
<polygon points="10.170432898205787,10.011006379783561 10.077978873911354,10.077082333955698 9.92521859919487,8.001346710014309" style="fill:none;stroke:black;stroke-width:1"/>
<polygon points="10.077978873911354,10.077082333955698 10.170432898205787,10.011006379783561 10.590966970612431,9.686143484872762" style="fill:none;stroke:black;stroke-width:1"/>
<polygon points="8.592534019012557,9.048106745658673 8.881379310344828,10.181034482758621 8.479737243515691,9.198816940852172" style="fill:none;stroke:black;stroke-width:1"/>
<polygon points="8.592534019012557,9.048106745658673 8.716529118643129,8.932040115730931 8.881379310344828,10.181034482758621" style="fill:none;stroke:black;stroke-width:1"/>
<polygon points="8.592534019012557,9.048106745658673 8.479737243515691,9.198816940852172 17.04360764617047,4.478265861968342" style="fill:none;stroke:black;stroke-width:1"/>
<polygon points="8.716529118643129,8.932040115730931 8.592534019012557,9.048106745658673 17.04360764617047,4.478265861968342" style="fill:none;stroke:black;stroke-width:1"/>
<polygon points="12.871681639882192,24.12212931547673 12.956064142750805,24.081515919509094 16.685912111482672,7.062871655442893" style="fill:none;stroke:black;stroke-width:1"/>
<polygon points="12.956064142750805,24.081515919509094 13.03033873111504,24.023637630926903 16.685912111482672,7.062871655442893" style="fill:none;stroke:black;stroke-width:1"/>
<polygon points="12.700446694570763,24.210639669803772 18.0207489021478,7.195916826006535 12.611266552142364,24.26106522245469" style="fill:none;stroke:black;stroke-width:1"/>
<polygon points="12.700446694570763,24.210639669803772 12.787077174908232,24.16423174173628 18.0207489021478,7.195916826006535" style="fill:none;stroke:black;stroke-width:1"/>
<polygon points="13.066887547249957,23.451149551641432 12.989415009200393,23.361203568315 17.159787591601788,7.27127895809598" style="fill:none;stroke:black;stroke-width:1"/>
<polygon points="13.1184700978067,23.55422199652131 13.066887547249957,23.451149551641432 17.159787591601788,7.27127895809598" style="fill:none;stroke:black;stroke-width:1"/>
<polygon points="13.144245303141997,23.659319587198205 13.1184700978067,23.55422199652131 17.159787591601788,7.27127895809598" style="fill:none;stroke:black;stroke-width:1"/>
<polygon points="11.740865633652659,23.60467012836793 11.645183689728004,23.66201939637962 16.960890516343362,8.051689303366294" style="fill:none;stroke:black;stroke-width:1"/>
<polygon points="11.840397179689052,23.544523960706158 11.740865633652659,23.60467012836793 16.960890516343362,8.051689303366294" style="fill:none;stroke:black;stroke-width:1"/>
<polygon points="12.052224074855436,23.4178952282323 11.944098517051811,23.48208543086405 16.960890516343362,8.051689303366294" style="fill:none;stroke:black;stroke-width:1"/>
<polygon points="11.944098517051811,23.48208543086405 11.840397179689052,23.544523960706158 16.960890516343362,8.051689303366294" style="fill:none;stroke:black;stroke-width:1"/>
<polygon points="12.535842666675865,23.211069024245383 12.407888494908741,23.23482713939681 16.960890516343362,8.051689303366294" style="fill:none;stroke:black;stroke-width:1"/>
<polygon points="12.407888494908741,23.23482713939681 12.282413793103448,23.28655172413793 16.960890516343362,8.051689303366294" style="fill:none;stroke:black;stroke-width:1"/>
<polygon points="12.16495850961517,23.352521667127924 12.052224074855436,23.4178952282323 16.960890516343362,8.051689303366294" style="fill:none;stroke:black;stroke-width:1"/>
<polygon points="12.282413793103448,23.28655172413793 12.16495850961517,23.352521667127924 16.960890516343362,8.051689303366294" style="fill:none;stroke:black;stroke-width:1"/>
<polygon points="21.427046112104506,21.181155140178568 11.019294372389137,24.216484340472903 21.494479905403452,21.050311289836593" style="fill:none;stroke:black;stroke-width:1"/>
<polygon points="11.019294372389137,24.216484340472903 11.02220200968361,24.31991762078235 21.494479905403452,21.050311289836593" style="fill:none;stroke:black;stroke-width:1"/>
<polygon points="21.561271834768927,20.924060391693825 11.048567453436457,24.42510690349221 21.628063764134403,20.797809493551057" style="fill:none;stroke:black;stroke-width:1"/>
<polygon points="11.02220200968361,24.31991762078235 11.048567453436457,24.42510690349221 21.561271834768927,20.924060391693825" style="fill:none;stroke:black;stroke-width:1"/>
<polygon points="21.628063764134403,20.797809493551057 11.048567453436457,24.42510690349221 21.69485569349988,20.671558595408285" style="fill:none;stroke:black;stroke-width:1"/>
<polygon points="10.257083232085671,9.949046632593186 10.048671670169421,7.9558927456173665 10.18854999712048,7.937016175405568" style="fill:none;stroke:black;stroke-width:1"/>
<polygon points="10.257083232085671,9.949046632593186 10.170432898205787,10.011006379783561 10.048671670169421,7.9558927456173665" style="fill:none;stroke:black;stroke-width:1"/>
<polygon points="10.257083232085671,9.949046632593186 10.18854999712048,7.937016175405568 10.339382127016878,7.946647469469248" style="fill:none;stroke:black;stroke-width:1"/>
<polygon points="10.170432898205787,10.011006379783561 10.257083232085671,9.949046632593186 10.590966970612431,9.686143484872762" style="fill:none;stroke:black;stroke-width:1"/>
<polygon points="13.12729093101454,23.86025622520592 13.146613145798689,23.762573562594035 17.159787591601788,7.27127895809598" style="fill:none;stroke:black;stroke-width:1"/>
<polygon points="13.146613145798689,23.762573562594035 13.144245303141997,23.659319587198205 17.159787591601788,7.27127895809598" style="fill:none;stroke:black;stroke-width:1"/>
<polygon points="21.364295818016643,21.326616751631086 11.077006485581297,24.02986794656922 21.427046112104506,21.181155140178568" style="fill:none;stroke:black;stroke-width:1"/>
<polygon points="11.077006485581297,24.02986794656922 21.364295818016643,21.326616751631086 11.134252065838034,23.95435668011531" style="fill:none;stroke:black;stroke-width:1"/>
<polygon points="11.10031905379803,24.528665716399047 21.761647622865354,20.545307697265518 21.69485569349988,20.671558595408285" style="fill:none;stroke:black;stroke-width:1"/>
<polygon points="11.048567453436457,24.42510690349221 11.10031905379803,24.528665716399047 21.69485569349988,20.671558595408285" style="fill:none;stroke:black;stroke-width:1"/>
<polygon points="21.761647622865354,20.545307697265518 11.10031905379803,24.528665716399047 21.828439552230833,20.41905679912275" style="fill:none;stroke:black;stroke-width:1"/>
<polygon points="10.495696606827442,7.986717097898742 10.337578087703736,9.890778877627577 10.339382127016878,7.946647469469248" style="fill:none;stroke:black;stroke-width:1"/>
<polygon points="10.337578087703736,9.890778877627577 10.257083232085671,9.949046632593186 10.339382127016878,7.946647469469248" style="fill:none;stroke:black;stroke-width:1"/>
<polygon points="10.257083232085671,9.949046632593186 10.337578087703736,9.890778877627577 10.590966970612431,9.686143484872762" style="fill:none;stroke:black;stroke-width:1"/>
<polygon points="11.038127236315269,24.11853476006676 11.019294372389137,24.216484340472903 21.427046112104506,21.181155140178568" style="fill:none;stroke:black;stroke-width:1"/>
<polygon points="11.077006485581297,24.02986794656922 11.038127236315269,24.11853476006676 21.427046112104506,21.181155140178568" style="fill:none;stroke:black;stroke-width:1"/>
<polygon points="11.176314340231421,24.61985051579522 21.96205715830552,20.16646347730261 21.895231481596305,20.29280590097998" style="fill:none;stroke:black;stroke-width:1"/>
<polygon points="21.96205715830552,20.16646347730261 11.176314340231421,24.61985051579522 11.27128292250416,24.69098674519816" style="fill:none;stroke:black;stroke-width:1"/>
<polygon points="21.828439552230833,20.41905679912275 11.176314340231421,24.61985051579522 21.895231481596305,20.29280590097998" style="fill:none;stroke:black;stroke-width:1"/>
<polygon points="11.10031905379803,24.528665716399047 11.176314340231421,24.61985051579522 21.828439552230833,20.41905679912275" style="fill:none;stroke:black;stroke-width:1"/>
<polygon points="10.411565677212714,9.83577890012973 10.495696606827442,7.986717097898742 10.652021983520997,8.059155530784384" style="fill:none;stroke:black;stroke-width:1"/>
<polygon points="10.411565677212714,9.83577890012973 10.337578087703736,9.890778877627577 10.495696606827442,7.986717097898742" style="fill:none;stroke:black;stroke-width:1"/>
<polygon points="10.411565677212714,9.83577890012973 10.652021983520997,8.059155530784384 10.802887060243322,8.165893235031369" style="fill:none;stroke:black;stroke-width:1"/>
<polygon points="10.337578087703736,9.890778877627577 10.53861190651433,9.733885418509324 10.590966970612431,9.686143484872762" style="fill:none;stroke:black;stroke-width:1"/>
<polygon points="10.411565677212714,9.83577890012973 10.53861190651433,9.733885418509324 10.337578087703736,9.890778877627577" style="fill:none;stroke:black;stroke-width:1"/>
<polygon points="10.53861190651433,9.733885418509324 11.048813382581343,8.468332271431553 10.590966970612431,9.686143484872762" style="fill:none;stroke:black;stroke-width:1"/>
<polygon points="10.53861190651433,9.733885418509324 10.939550404753291,8.304587573567336 11.048813382581343,8.468332271431553" style="fill:none;stroke:black;stroke-width:1"/>
<polygon points="10.939550404753291,8.304587573567336 10.478694212765335,9.783622485342647 10.802887060243322,8.165893235031369" style="fill:none;stroke:black;stroke-width:1"/>
<polygon points="10.53861190651433,9.733885418509324 10.478694212765335,9.783622485342647 10.939550404753291,8.304587573567336" style="fill:none;stroke:black;stroke-width:1"/>
<polygon points="10.478694212765335,9.783622485342647 10.411565677212714,9.83577890012973 10.802887060243322,8.165893235031369" style="fill:none;stroke:black;stroke-width:1"/>
<polygon points="10.478694212765335,9.783622485342647 10.53861190651433,9.733885418509324 10.411565677212714,9.83577890012973" style="fill:none;stroke:black;stroke-width:1"/>
<polygon points="12.112012925462448,24.559281330272157 23.86711320295359,23.529907006213804 11.99927849070271,24.624654891376533" style="fill:none;stroke:black;stroke-width:1"/>
<polygon points="11.99927849070271,24.624654891376533 23.86711320295359,23.529907006213804 20.51063952396853,26.070815358238573" style="fill:none;stroke:black;stroke-width:1"/>
<polygon points="11.628436868442762,24.767970738000344 24.54737562237521,9.446555956859623 21.194479610291623,7.000902020323732" style="fill:none;stroke:black;stroke-width:1"/>
<polygon points="11.628436868442762,24.767970738000344 21.194479610291623,7.000902020323732 11.501440613846384,24.7666192578101" style="fill:none;stroke:black;stroke-width:1"/>
<polygon points="26.770117643833903,12.958054111000566 11.628436868442762,24.767970738000344 11.758182060723112,24.74298771077332" style="fill:none;stroke:black;stroke-width:1"/>
<polygon points="11.628436868442762,24.767970738000344 26.770117643833903,12.958054111000566 24.54737562237521,9.446555956859623" style="fill:none;stroke:black;stroke-width:1"/>
<polygon points="17.04914669481818,5.957765766482929 11.381034782804688,24.74043981835974 11.501440613846384,24.7666192578101" style="fill:none;stroke:black;stroke-width:1"/>
<polygon points="21.194479610291623,7.000902020323732 17.04914669481818,5.957765766482929 11.501440613846384,24.7666192578101" style="fill:none;stroke:black;stroke-width:1"/>
<polygon points="11.381034782804688,24.74043981835974 17.04914669481818,5.957765766482929 11.27128292250416,24.69098674519816" style="fill:none;stroke:black;stroke-width:1"/>
<polygon points="17.04914669481818,5.957765766482929 12.66697298717574,6.583588488190086 11.27128292250416,24.69098674519816" style="fill:none;stroke:black;stroke-width:1"/>
<polygon points="19.51396039893882,28.123737770733932 27.519655172413795,17.187241379310343 23.377065996879708,26.314898839059936" style="fill:none;stroke:black;stroke-width:1"/>
<polygon points="27.519655172413795,17.187241379310343 5.364931866775086,16.116075355122376 6.535404188186167,11.99874078074225" style="fill:none;stroke:black;stroke-width:1"/>
<polygon points="21.89515190107836,18.525933718459076 27.519655172413795,17.187241379310343 24.800568270607226,17.77770235019608" style="fill:none;stroke:black;stroke-width:1"/>
<polygon points="27.519655172413795,17.187241379310343 5.795875214652695,20.457197317317288 5.364931866775086,16.116075355122376" style="fill:none;stroke:black;stroke-width:1"/>
<polygon points="27.519655172413795,17.187241379310343 21.161849282135677,13.159592678608268 23.169334974173765,16.84624493223151" style="fill:none;stroke:black;stroke-width:1"/>
<polygon points="27.519655172413795,17.187241379310343 25.78762486575463,12.573707415753315 23.111195850136657,9.367391723271142" style="fill:none;stroke:black;stroke-width:1"/>
<polygon points="27.519655172413795,17.187241379310343 13.44983598738246,7.400945243621891 9.92093589242697,9.679707022016117" style="fill:none;stroke:black;stroke-width:1"/>
<polygon points="19.310012903463964,7.50045546028319 27.519655172413795,17.187241379310343 23.111195850136657,9.367391723271142" style="fill:none;stroke:black;stroke-width:1"/>
<polygon points="27.519655172413795,17.187241379310343 17.04914669481818,5.957765766482929 21.194479610291623,7.000902020323732" style="fill:none;stroke:black;stroke-width:1"/>
<polygon points="26.576454075282935,16.223169537183015 27.519655172413795,17.187241379310343 23.169334974173765,16.84624493223151" style="fill:none;stroke:black;stroke-width:1"/>
<polygon points="17.418986141404766,11.2958397904033 27.519655172413795,17.187241379310343 13.379811686830326,12.487097085436712" style="fill:none;stroke:black;stroke-width:1"/>
<polygon points="7.611316517067919,13.203213293400097 27.519655172413795,17.187241379310343 9.92093589242697,9.679707022016117" style="fill:none;stroke:black;stroke-width:1"/>
<polygon points="27.519655172413795,17.187241379310343 11.263077215832823,16.03001501543313 13.379811686830326,12.487097085436712" style="fill:none;stroke:black;stroke-width:1"/>
<polygon points="27.519655172413795,17.187241379310343 14.944993767065164,26.58565537703452 20.62380824097861,14.223837742162768" style="fill:none;stroke:black;stroke-width:1"/>
<polygon points="27.519655172413795,17.187241379310343 10.966957634278202,26.948987755867634 7.778304514053424,24.202817655561148" style="fill:none;stroke:black;stroke-width:1"/>
<polygon points="27.519655172413795,17.187241379310343 15.168723816576938,22.38240603255936 11.756810244718036,20.05371922077842" style="fill:none;stroke:black;stroke-width:1"/>
<polygon points="27.519655172413795,17.187241379310343 25.93342840749999,19.823096301502083 24.800568270607226,17.77770235019608" style="fill:none;stroke:black;stroke-width:1"/>
<polygon points="23.86711320295359,23.529907006213804 27.519655172413795,17.187241379310343 20.51063952396853,26.070815358238573" style="fill:none;stroke:black;stroke-width:1"/>
<polygon points="27.519655172413795,17.187241379310343 26.219100449697287,23.26260388845896 23.377065996879708,26.314898839059936" style="fill:none;stroke:black;stroke-width:1"/>
<polygon points="21.161849282135677,13.159592678608268 27.519655172413795,17.187241379310343 17.418986141404766,11.2958397904033" style="fill:none;stroke:black;stroke-width:1"/>
<polygon points="27.519655172413795,17.187241379310343 7.611316517067919,13.203213293400097 7.725856661019483,16.318903449736005" style="fill:none;stroke:black;stroke-width:1"/>
<polygon points="11.263077215832823,16.03001501543313 27.519655172413795,17.187241379310343 7.725856661019483,16.318903449736005" style="fill:none;stroke:black;stroke-width:1"/>
<polygon points="9.06026064063901,8.70919849672008 27.519655172413795,17.187241379310343 6.535404188186167,11.99874078074225" style="fill:none;stroke:black;stroke-width:1"/>
<polygon points="27.519655172413795,17.187241379310343 21.45511599126778,17.6584493207249 13.44983598738246,7.400945243621891" style="fill:none;stroke:black;stroke-width:1"/>
<polygon points="5.795875214652695,20.457197317317288 27.519655172413795,17.187241379310343 7.778304514053424,24.202817655561148" style="fill:none;stroke:black;stroke-width:1"/>
<polygon points="27.519655172413795,17.187241379310343 12.259480555322533,17.630852872355145 14.775001687473484,20.90680413115241" style="fill:none;stroke:black;stroke-width:1"/>
<polygon points="24.54737562237521,9.446555956859623 27.519655172413795,17.187241379310343 21.194479610291623,7.000902020323732" style="fill:none;stroke:black;stroke-width:1"/>
<polygon points="26.770117643833903,12.958054111000566 27.519655172413795,17.187241379310343 24.54737562237521,9.446555956859623" style="fill:none;stroke:black;stroke-width:1"/>
<polygon points="15.168723816576938,22.38240603255936 27.519655172413795,17.187241379310343 19.348038609657117,21.74124751137016" style="fill:none;stroke:black;stroke-width:1"/>
<polygon points="27.519655172413795,17.187241379310343 21.89515190107836,18.525933718459076 19.348038609657117,21.74124751137016" style="fill:none;stroke:black;stroke-width:1"/>
<polygon points="27.519655172413795,17.187241379310343 23.86711320295359,23.529907006213804 25.93342840749999,19.823096301502083" style="fill:none;stroke:black;stroke-width:1"/>
<polygon points="25.78762486575463,12.573707415753315 27.519655172413795,17.187241379310343 26.576454075282935,16.223169537183015" style="fill:none;stroke:black;stroke-width:1"/>
<polygon points="26.219100449697287,23.26260388845896 27.519655172413795,17.187241379310343 27.766521129628565,19.302732452774066" style="fill:none;stroke:black;stroke-width:1"/>
<polygon points="27.519655172413795,17.187241379310343 19.310012903463964,7.50045546028319 27.766521129628565,19.302732452774066" style="fill:none;stroke:black;stroke-width:1"/>
<polygon points="18.99068375203698,20.904047087011875 27.519655172413795,17.187241379310343 14.775001687473484,20.90680413115241" style="fill:none;stroke:black;stroke-width:1"/>
<polygon points="17.15892676427779,12.086643205254724 27.519655172413795,17.187241379310343 20.62380824097861,14.223837742162768" style="fill:none;stroke:black;stroke-width:1"/>
<polygon points="14.944993767065164,26.58565537703452 27.519655172413795,17.187241379310343 10.976203187648567,24.98847170363509" style="fill:none;stroke:black;stroke-width:1"/>
<polygon points="9.809819216317774,17.407663930494174 27.519655172413795,17.187241379310343 11.756810244718036,20.05371922077842" style="fill:none;stroke:black;stroke-width:1"/>
<polygon points="10.966957634278202,26.948987755867634 27.519655172413795,17.187241379310343 15.024173579631665,28.358476802711856" style="fill:none;stroke:black;stroke-width:1"/>
<polygon points="27.519655172413795,17.187241379310343 19.51396039893882,28.123737770733932 15.024173579631665,28.358476802711856" style="fill:none;stroke:black;stroke-width:1"/>
<polygon points="27.519655172413795,17.187241379310343 8.052605520315224,21.975968005972586 10.976203187648567,24.98847170363509" style="fill:none;stroke:black;stroke-width:1"/>
<polygon points="17.04914669481818,5.957765766482929 27.519655172413795,17.187241379310343 12.66697298717574,6.583588488190086" style="fill:none;stroke:black;stroke-width:1"/>
<polygon points="27.519655172413795,17.187241379310343 9.06026064063901,8.70919849672008 12.66697298717574,6.583588488190086" style="fill:none;stroke:black;stroke-width:1"/>
<polygon points="21.45511599126778,17.6584493207249 27.519655172413795,17.187241379310343 18.99068375203698,20.904047087011875" style="fill:none;stroke:black;stroke-width:1"/>
<polygon points="27.519655172413795,17.187241379310343 17.15892676427779,12.086643205254724 13.335436044469263,13.612867723356532" style="fill:none;stroke:black;stroke-width:1"/>
<polygon points="12.259480555322533,17.630852872355145 27.519655172413795,17.187241379310343 13.335436044469263,13.612867723356532" style="fill:none;stroke:black;stroke-width:1"/>
<polygon points="27.519655172413795,17.187241379310343 9.809819216317774,17.407663930494174 6.593472879577132,17.967819446173728" style="fill:none;stroke:black;stroke-width:1"/>
<polygon points="8.052605520315224,21.975968005972586 27.519655172413795,17.187241379310343 6.593472879577132,17.967819446173728" style="fill:none;stroke:black;stroke-width:1"/>
<polygon points="27.519655172413795,17.187241379310343 11.882093506197823,24.690931986565886 11.99927849070271,24.624654891376533" style="fill:none;stroke:black;stroke-width:1"/>
<polygon points="27.519655172413795,17.187241379310343 11.99927849070271,24.624654891376533 20.51063952396853,26.070815358238573" style="fill:none;stroke:black;stroke-width:1"/>
<polygon points="11.882093506197823,24.690931986565886 27.519655172413795,17.187241379310343 11.758182060723112,24.74298771077332" style="fill:none;stroke:black;stroke-width:1"/>
<polygon points="27.519655172413795,17.187241379310343 26.770117643833903,12.958054111000566 11.758182060723112,24.74298771077332" style="fill:none;stroke:black;stroke-width:1"/>
<polygon points="11.176314340231421,24.61985051579522 12.611266552142364,24.26106522245469 12.519053310589877,24.31515716212484" style="fill:none;stroke:black;stroke-width:1"/>
<polygon points="12.423371366665222,24.372506430136532 11.176314340231421,24.61985051579522 12.519053310589877,24.31515716212484" style="fill:none;stroke:black;stroke-width:1"/>
<polygon points="11.176314340231421,24.61985051579522 11.944098517051811,23.48208543086405 12.052224074855436,23.4178952282323" style="fill:none;stroke:black;stroke-width:1"/>
<polygon points="11.176314340231421,24.61985051579522 11.381034782804688,24.74043981835974 11.27128292250416,24.69098674519816" style="fill:none;stroke:black;stroke-width:1"/>
<polygon points="11.176314340231421,24.61985051579522 12.32383982062883,24.432652597798295 12.22013848326607,24.495091127640407" style="fill:none;stroke:black;stroke-width:1"/>
<polygon points="12.112012925462448,24.559281330272157 11.176314340231421,24.61985051579522 12.22013848326607,24.495091127640407" style="fill:none;stroke:black;stroke-width:1"/>
<polygon points="11.176314340231421,24.61985051579522 12.700446694570763,24.210639669803772 12.611266552142364,24.26106522245469" style="fill:none;stroke:black;stroke-width:1"/>
<polygon points="11.176314340231421,24.61985051579522 11.882093506197823,24.690931986565886 11.758182060723112,24.74298771077332" style="fill:none;stroke:black;stroke-width:1"/>
<polygon points="11.381034782804688,24.74043981835974 11.176314340231421,24.61985051579522 11.501440613846384,24.7666192578101" style="fill:none;stroke:black;stroke-width:1"/>
<polygon points="11.628436868442762,24.767970738000344 11.176314340231421,24.61985051579522 11.758182060723112,24.74298771077332" style="fill:none;stroke:black;stroke-width:1"/>
<polygon points="11.176314340231421,24.61985051579522 11.552970448175516,23.71611133604977 11.645183689728004,23.66201939637962" style="fill:none;stroke:black;stroke-width:1"/>
<polygon points="12.32383982062883,24.432652597798295 11.176314340231421,24.61985051579522 12.423371366665222,24.372506430136532" style="fill:none;stroke:black;stroke-width:1"/>
<polygon points="11.882093506197823,24.690931986565886 11.176314340231421,24.61985051579522 11.99927849070271,24.624654891376533" style="fill:none;stroke:black;stroke-width:1"/>
<polygon points="11.176314340231421,24.61985051579522 12.112012925462448,24.559281330272157 11.99927849070271,24.624654891376533" style="fill:none;stroke:black;stroke-width:1"/>
<polygon points="13.03033873111504,24.023637630926903 11.176314340231421,24.61985051579522 13.087972774670263,23.948568508028547" style="fill:none;stroke:black;stroke-width:1"/>
<polygon points="11.176314340231421,24.61985051579522 12.956064142750805,24.081515919509094 12.871681639882192,24.12212931547673" style="fill:none;stroke:black;stroke-width:1"/>
<polygon points="12.662177941092967,23.21356915783889 11.176314340231421,24.61985051579522 12.535842666675865,23.211069024245383" style="fill:none;stroke:black;stroke-width:1"/>
<polygon points="11.176314340231421,24.61985051579522 11.628436868442762,24.767970738000344 11.501440613846384,24.7666192578101" style="fill:none;stroke:black;stroke-width:1"/>
<polygon points="11.176314340231421,24.61985051579522 11.20818863468355,23.895948635096914 11.292555360435689,23.85504724302773" style="fill:none;stroke:black;stroke-width:1"/>
<polygon points="11.176314340231421,24.61985051579522 13.12729093101454,23.86025622520592 13.087972774670263,23.948568508028547" style="fill:none;stroke:black;stroke-width:1"/>
<polygon points="11.176314340231421,24.61985051579522 12.893237817059209,23.290409013875255 12.989415009200393,23.361203568315" style="fill:none;stroke:black;stroke-width:1"/>
<polygon points="11.176314340231421,24.61985051579522 11.077006485581297,24.02986794656922 11.134252065838034,23.95435668011531" style="fill:none;stroke:black;stroke-width:1"/>
<polygon points="11.377159825409649,23.812944816768173 11.176314340231421,24.61985051579522 11.292555360435689,23.85504724302773" style="fill:none;stroke:black;stroke-width:1"/>
<polygon points="11.176314340231421,24.61985051579522 11.463790305747116,23.766536888700685 11.552970448175516,23.71611133604977" style="fill:none;stroke:black;stroke-width:1"/>
<polygon points="11.176314340231421,24.61985051579522 13.146613145798689,23.762573562594035 13.12729093101454,23.86025622520592" style="fill:none;stroke:black;stroke-width:1"/>
<polygon points="12.787077174908232,24.16423174173628 11.176314340231421,24.61985051579522 12.871681639882192,24.12212931547673" style="fill:none;stroke:black;stroke-width:1"/>
<polygon points="13.066887547249957,23.451149551641432 11.176314340231421,24.61985051579522 12.989415009200393,23.361203568315" style="fill:none;stroke:black;stroke-width:1"/>
<polygon points="12.893237817059209,23.290409013875255 11.176314340231421,24.61985051579522 12.782723266105387,23.240600657062537" style="fill:none;stroke:black;stroke-width:1"/>
<polygon points="11.176314340231421,24.61985051579522 12.662177941092967,23.21356915783889 12.782723266105387,23.240600657062537" style="fill:none;stroke:black;stroke-width:1"/>
<polygon points="11.740865633652659,23.60467012836793 11.176314340231421,24.61985051579522 11.645183689728004,23.66201939637962" style="fill:none;stroke:black;stroke-width:1"/>
<polygon points="11.176314340231421,24.61985051579522 12.407888494908741,23.23482713939681 12.535842666675865,23.211069024245383" style="fill:none;stroke:black;stroke-width:1"/>
<polygon points="11.463790305747116,23.766536888700685 11.176314340231421,24.61985051579522 11.377159825409649,23.812944816768173" style="fill:none;stroke:black;stroke-width:1"/>
<polygon points="11.20818863468355,23.895948635096914 11.176314340231421,24.61985051579522 11.134252065838034,23.95435668011531" style="fill:none;stroke:black;stroke-width:1"/>
<polygon points="12.16495850961517,23.352521667127924 11.176314340231421,24.61985051579522 12.052224074855436,23.4178952282323" style="fill:none;stroke:black;stroke-width:1"/>
<polygon points="12.956064142750805,24.081515919509094 11.176314340231421,24.61985051579522 13.03033873111504,24.023637630926903" style="fill:none;stroke:black;stroke-width:1"/>
<polygon points="12.700446694570763,24.210639669803772 11.176314340231421,24.61985051579522 12.787077174908232,24.16423174173628" style="fill:none;stroke:black;stroke-width:1"/>
<polygon points="11.176314340231421,24.61985051579522 13.066887547249957,23.451149551641432 13.1184700978067,23.55422199652131" style="fill:none;stroke:black;stroke-width:1"/>
<polygon points="13.144245303141997,23.659319587198205 11.176314340231421,24.61985051579522 13.1184700978067,23.55422199652131" style="fill:none;stroke:black;stroke-width:1"/>
<polygon points="11.176314340231421,24.61985051579522 11.740865633652659,23.60467012836793 11.840397179689052,23.544523960706158" style="fill:none;stroke:black;stroke-width:1"/>
<polygon points="11.944098517051811,23.48208543086405 11.176314340231421,24.61985051579522 11.840397179689052,23.544523960706158" style="fill:none;stroke:black;stroke-width:1"/>
<polygon points="12.407888494908741,23.23482713939681 11.176314340231421,24.61985051579522 12.282413793103448,23.28655172413793" style="fill:none;stroke:black;stroke-width:1"/>
<polygon points="11.176314340231421,24.61985051579522 12.16495850961517,23.352521667127924 12.282413793103448,23.28655172413793" style="fill:none;stroke:black;stroke-width:1"/>
<polygon points="11.019294372389137,24.216484340472903 11.176314340231421,24.61985051579522 11.02220200968361,24.31991762078235" style="fill:none;stroke:black;stroke-width:1"/>
<polygon points="11.176314340231421,24.61985051579522 11.048567453436457,24.42510690349221 11.02220200968361,24.31991762078235" style="fill:none;stroke:black;stroke-width:1"/>
<polygon points="13.146613145798689,23.762573562594035 11.176314340231421,24.61985051579522 13.144245303141997,23.659319587198205" style="fill:none;stroke:black;stroke-width:1"/>
<polygon points="11.038127236315269,24.11853476006676 11.176314340231421,24.61985051579522 11.019294372389137,24.216484340472903" style="fill:none;stroke:black;stroke-width:1"/>
<polygon points="11.176314340231421,24.61985051579522 11.10031905379803,24.528665716399047 11.048567453436457,24.42510690349221" style="fill:none;stroke:black;stroke-width:1"/>
<polygon points="11.176314340231421,24.61985051579522 11.038127236315269,24.11853476006676 11.077006485581297,24.02986794656922" style="fill:none;stroke:black;stroke-width:1"/>
</svg>
