<?xml version="1.0" encoding="UTF-8" standalone="no"?>
<svg xmlns="http://www.w3.org/2000/svg" version="1.1" width="800" height="800">
<polygon points="14.065638578522023,27.940749241941372 16.676847967680985,26.672699136405242 17.90258979544437,28.134298187564823" style="fill:none;stroke:black;stroke-width:1"/>
<polygon points="13.855423469760208,15.239027953014942 10.784281256391193,14.733313391303199 11.743473261735618,12.125447181598975" style="fill:none;stroke:black;stroke-width:1"/>
<polygon points="23.901395419797822,6.716838454978078 23.129595762630625,4.183234334902279 25.515665876981643,6.665747251519501" style="fill:none;stroke:black;stroke-width:1"/>
<polygon points="18.130558857732854,3.8711150667388345 14.948341333742533,4.818179355205078 16.798842993027556,1.7477189489718579" style="fill:none;stroke:black;stroke-width:1"/>
<polygon points="9.440393775633662,10.425761307414223 9.561724137931035,12.031379310344828 7.247517780538367,9.435826118768693" style="fill:none;stroke:black;stroke-width:1"/>
<polygon points="10.784281256391193,14.733313391303199 9.561724137931035,12.031379310344828 11.743473261735618,12.125447181598975" style="fill:none;stroke:black;stroke-width:1"/>
<polygon points="9.561724137931035,12.031379310344828 9.440393775633662,10.425761307414223 11.743473261735618,12.125447181598975" style="fill:none;stroke:black;stroke-width:1"/>
<polygon points="7.529445234990529,5.929218089344201 8.41276002352857,7.242397021322882 7.247517780538367,9.435826118768693" style="fill:none;stroke:black;stroke-width:1"/>
<polygon points="8.41276002352857,7.242397021322882 9.440393775633662,10.425761307414223 7.247517780538367,9.435826118768693" style="fill:none;stroke:black;stroke-width:1"/>
<polygon points="10.287130648814136,3.908858593469152 8.41276002352857,7.242397021322882 7.529445234990529,5.929218089344201" style="fill:none;stroke:black;stroke-width:1"/>
<polygon points="20.930949644260682,26.55051050422802 19.903573374825246,25.420592489657558 22.63475594707468,22.516878832960877" style="fill:none;stroke:black;stroke-width:1"/>
<polygon points="19.903573374825246,25.420592489657558 20.930949644260682,26.55051050422802 17.90258979544437,28.134298187564823" style="fill:none;stroke:black;stroke-width:1"/>
<polygon points="16.676847967680985,26.672699136405242 19.903573374825246,25.420592489657558 17.90258979544437,28.134298187564823" style="fill:none;stroke:black;stroke-width:1"/>
<polygon points="21.148449143945054,21.640081362290108 22.667351113430737,19.77825897285451 22.63475594707468,22.516878832960877" style="fill:none;stroke:black;stroke-width:1"/>
<polygon points="19.903573374825246,25.420592489657558 21.148449143945054,21.640081362290108 22.63475594707468,22.516878832960877" style="fill:none;stroke:black;stroke-width:1"/>
<polygon points="15.331495486067263,12.142816787256344 13.855423469760208,15.239027953014942 11.743473261735618,12.125447181598975" style="fill:none;stroke:black;stroke-width:1"/>
<polygon points="13.855423469760208,15.239027953014942 15.331495486067263,12.142816787256344 17.452031397764287,15.22449488368626" style="fill:none;stroke:black;stroke-width:1"/>
<polygon points="23.901395419797822,6.716838454978078 20.897592229705875,5.23277795154015 23.129595762630625,4.183234334902279" style="fill:none;stroke:black;stroke-width:1"/>
<polygon points="16.798842993027556,1.7477189489718579 14.747173547548043,3.0725273671420252 13.267821758131618,2.265619889233578" style="fill:none;stroke:black;stroke-width:1"/>
<polygon points="11.944650905350152,5.1423711398554905 8.41276002352857,7.242397021322882 10.287130648814136,3.908858593469152" style="fill:none;stroke:black;stroke-width:1"/>
<polygon points="8.41276002352857,7.242397021322882 11.944650905350152,5.1423711398554905 9.440393775633662,10.425761307414223" style="fill:none;stroke:black;stroke-width:1"/>
<polygon points="11.944650905350152,5.1423711398554905 10.287130648814136,3.908858593469152 13.267821758131618,2.265619889233578" style="fill:none;stroke:black;stroke-width:1"/>
<polygon points="25.19976506359158,10.203383320834565 23.901395419797822,6.716838454978078 25.515665876981643,6.665747251519501" style="fill:none;stroke:black;stroke-width:1"/>
<polygon points="22.667351113430737,19.77825897285451 25.19976506359158,10.203383320834565 22.63475594707468,22.516878832960877" style="fill:none;stroke:black;stroke-width:1"/>
<polygon points="25.19976506359158,10.203383320834565 22.667351113430737,19.77825897285451 23.10005457869142,16.388771609106133" style="fill:none;stroke:black;stroke-width:1"/>
<polygon points="9.573897155694983,15.631838022158636 9.561724137931035,12.031379310344828 10.784281256391193,14.733313391303199" style="fill:none;stroke:black;stroke-width:1"/>
<polygon points="9.561724137931035,12.031379310344828 9.573897155694983,15.631838022158636 7.247517780538367,9.435826118768693" style="fill:none;stroke:black;stroke-width:1"/>
<polygon points="21.052071672467306,15.212320431789264 19.590705906437368,16.54589775728365 17.452031397764287,15.22449488368626" style="fill:none;stroke:black;stroke-width:1"/>
<polygon points="21.148449143945054,21.640081362290108 21.165332007635794,18.537941488850468 22.667351113430737,19.77825897285451" style="fill:none;stroke:black;stroke-width:1"/>
<polygon points="22.667351113430737,19.77825897285451 21.165332007635794,18.537941488850468 23.10005457869142,16.388771609106133" style="fill:none;stroke:black;stroke-width:1"/>
<polygon points="21.165332007635794,18.537941488850468 21.052071672467306,15.212320431789264 23.10005457869142,16.388771609106133" style="fill:none;stroke:black;stroke-width:1"/>
<polygon points="21.052071672467306,15.212320431789264 21.165332007635794,18.537941488850468 19.590705906437368,16.54589775728365" style="fill:none;stroke:black;stroke-width:1"/>
<polygon points="18.509561653988655,25.30315653454467 19.903573374825246,25.420592489657558 16.676847967680985,26.672699136405242" style="fill:none;stroke:black;stroke-width:1"/>
<polygon points="19.903573374825246,25.420592489657558 18.509561653988655,25.30315653454467 18.69272081844197,25.214586424972104" style="fill:none;stroke:black;stroke-width:1"/>
<polygon points="16.517390849174085,25.49112795238699 16.721311553772164,25.47551370810248 16.676847967680985,26.672699136405242" style="fill:none;stroke:black;stroke-width:1"/>
<polygon points="12.91395423623495,10.947501812626253 15.331495486067263,12.142816787256344 11.743473261735618,12.125447181598975" style="fill:none;stroke:black;stroke-width:1"/>
<polygon points="9.440393775633662,10.425761307414223 12.91395423623495,10.947501812626253 11.743473261735618,12.125447181598975" style="fill:none;stroke:black;stroke-width:1"/>
<polygon points="11.944650905350152,5.1423711398554905 12.91395423623495,10.947501812626253 9.440393775633662,10.425761307414223" style="fill:none;stroke:black;stroke-width:1"/>
<polygon points="15.331495486067263,12.142816787256344 18.92348474559811,12.159718799701153 17.452031397764287,15.22449488368626" style="fill:none;stroke:black;stroke-width:1"/>
<polygon points="18.92348474559811,12.159718799701153 21.052071672467306,15.212320431789264 17.452031397764287,15.22449488368626" style="fill:none;stroke:black;stroke-width:1"/>
<polygon points="21.052071672467306,15.212320431789264 18.92348474559811,12.159718799701153 21.60612739983591,12.154910699553817" style="fill:none;stroke:black;stroke-width:1"/>
<polygon points="20.897592229705875,5.23277795154015 19.831972391729167,3.516992723497429 23.129595762630625,4.183234334902279" style="fill:none;stroke:black;stroke-width:1"/>
<polygon points="19.831972391729167,3.516992723497429 20.897592229705875,5.23277795154015 18.130558857732854,3.8711150667388345" style="fill:none;stroke:black;stroke-width:1"/>
<polygon points="23.129595762630625,4.183234334902279 19.831972391729167,3.516992723497429 16.798842993027556,1.7477189489718579" style="fill:none;stroke:black;stroke-width:1"/>
<polygon points="19.831972391729167,3.516992723497429 18.130558857732854,3.8711150667388345 16.798842993027556,1.7477189489718579" style="fill:none;stroke:black;stroke-width:1"/>
<polygon points="23.417559694551382,10.062108634385526 20.897592229705875,5.23277795154015 23.901395419797822,6.716838454978078" style="fill:none;stroke:black;stroke-width:1"/>
<polygon points="25.19976506359158,10.203383320834565 23.417559694551382,10.062108634385526 23.901395419797822,6.716838454978078" style="fill:none;stroke:black;stroke-width:1"/>
<polygon points="23.151396974722672,12.783991076407947 25.19976506359158,10.203383320834565 23.10005457869142,16.388771609106133" style="fill:none;stroke:black;stroke-width:1"/>
<polygon points="21.052071672467306,15.212320431789264 23.151396974722672,12.783991076407947 23.10005457869142,16.388771609106133" style="fill:none;stroke:black;stroke-width:1"/>
<polygon points="23.151396974722672,12.783991076407947 21.052071672467306,15.212320431789264 21.60612739983591,12.154910699553817" style="fill:none;stroke:black;stroke-width:1"/>
<polygon points="23.417559694551382,10.062108634385526 23.151396974722672,12.783991076407947 21.60612739983591,12.154910699553817" style="fill:none;stroke:black;stroke-width:1"/>
<polygon points="23.151396974722672,12.783991076407947 23.417559694551382,10.062108634385526 25.19976506359158,10.203383320834565" style="fill:none;stroke:black;stroke-width:1"/>
<polygon points="17.15747928879104,19.156289519621023 16.01995846359884,16.55262502172816 17.452031397764287,15.22449488368626" style="fill:none;stroke:black;stroke-width:1"/>
<polygon points="13.911482700589023,19.809704825065413 16.01995846359884,16.55262502172816 13.997734765137645,19.909885350934918" style="fill:none;stroke:black;stroke-width:1"/>
<polygon points="16.01995846359884,16.55262502172816 13.855423469760208,15.239027953014942 17.452031397764287,15.22449488368626" style="fill:none;stroke:black;stroke-width:1"/>
<polygon points="18.509561653988655,25.30315653454467 18.29655172413793,23.84103448275862 18.69272081844197,25.214586424972104" style="fill:none;stroke:black;stroke-width:1"/>
<polygon points="18.857151883566157,24.104455433919657 19.522795646002276,21.982000850999373 21.148449143945054,21.640081362290108" style="fill:none;stroke:black;stroke-width:1"/>
<polygon points="19.025714931415393,24.704003386169802 21.148449143945054,21.640081362290108 19.903573374825246,25.420592489657558" style="fill:none;stroke:black;stroke-width:1"/>
<polygon points="19.025714931415393,24.704003386169802 19.02896916482933,24.48619404588811 21.148449143945054,21.640081362290108" style="fill:none;stroke:black;stroke-width:1"/>
<polygon points="18.961441772880104,24.905789770165427 19.025714931415393,24.704003386169802 19.903573374825246,25.420592489657558" style="fill:none;stroke:black;stroke-width:1"/>
<polygon points="11.11393018077198,25.668388519900144 13.173493678740511,25.740571946883616 14.065638578522023,27.940749241941372" style="fill:none;stroke:black;stroke-width:1"/>
<polygon points="13.173493678740511,25.740571946883616 16.676847967680985,26.672699136405242 14.065638578522023,27.940749241941372" style="fill:none;stroke:black;stroke-width:1"/>
<polygon points="12.91395423623495,10.947501812626253 16.490785248193845,10.932875980053394 15.331495486067263,12.142816787256344" style="fill:none;stroke:black;stroke-width:1"/>
<polygon points="16.490785248193845,10.932875980053394 18.92348474559811,12.159718799701153 15.331495486067263,12.142816787256344" style="fill:none;stroke:black;stroke-width:1"/>
<polygon points="15.196493583133588,4.939376919788062 14.948341333742533,4.818179355205078 18.130558857732854,3.8711150667388345" style="fill:none;stroke:black;stroke-width:1"/>
<polygon points="15.433817192035411,5.075507964523933 15.196493583133588,4.939376919788062 18.130558857732854,3.8711150667388345" style="fill:none;stroke:black;stroke-width:1"/>
<polygon points="15.87359976288489,5.389687190834349 15.659717479076388,5.225851663507694 18.130558857732854,3.8711150667388345" style="fill:none;stroke:black;stroke-width:1"/>
<polygon points="15.659717479076388,5.225851663507694 15.433817192035411,5.075507964523933 18.130558857732854,3.8711150667388345" style="fill:none;stroke:black;stroke-width:1"/>
<polygon points="21.165332007635794,18.537941488850468 18.912808709690417,17.82232663504318 19.590705906437368,16.54589775728365" style="fill:none;stroke:black;stroke-width:1"/>
<polygon points="18.48931814623304,18.255734679081236 18.912808709690417,17.82232663504318 21.165332007635794,18.537941488850468" style="fill:none;stroke:black;stroke-width:1"/>
<polygon points="13.173493678740511,25.740571946883616 15.67667460514574,25.526600848424387 16.676847967680985,26.672699136405242" style="fill:none;stroke:black;stroke-width:1"/>
<polygon points="11.39830325222864,19.102359377010014 11.424166550166051,22.041204739599305 10.078426241998141,22.006634180675775" style="fill:none;stroke:black;stroke-width:1"/>
<polygon points="11.424166550166051,22.041204739599305 11.11393018077198,25.668388519900144 10.078426241998141,22.006634180675775" style="fill:none;stroke:black;stroke-width:1"/>
<polygon points="12.447471060414099,16.562901676103994 9.573897155694983,15.631838022158636 10.784281256391193,14.733313391303199" style="fill:none;stroke:black;stroke-width:1"/>
<polygon points="13.855423469760208,15.239027953014942 12.447471060414099,16.562901676103994 10.784281256391193,14.733313391303199" style="fill:none;stroke:black;stroke-width:1"/>
<polygon points="19.02896916482933,24.48619404588811 18.969799692460803,24.281357331296046 21.148449143945054,21.640081362290108" style="fill:none;stroke:black;stroke-width:1"/>
<polygon points="18.969799692460803,24.281357331296046 18.857151883566157,24.104455433919657 21.148449143945054,21.640081362290108" style="fill:none;stroke:black;stroke-width:1"/>
<polygon points="18.969799692460803,24.281357331296046 18.961441772880104,24.905789770165427 18.857151883566157,24.104455433919657" style="fill:none;stroke:black;stroke-width:1"/>
<polygon points="19.025714931415393,24.704003386169802 18.969799692460803,24.281357331296046 19.02896916482933,24.48619404588811" style="fill:none;stroke:black;stroke-width:1"/>
<polygon points="18.969799692460803,24.281357331296046 19.025714931415393,24.704003386169802 18.961441772880104,24.905789770165427" style="fill:none;stroke:black;stroke-width:1"/>
<polygon points="18.857151883566157,24.104455433919657 18.700736567825615,23.965340080559873 19.522795646002276,21.982000850999373" style="fill:none;stroke:black;stroke-width:1"/>
<polygon points="18.700736567825615,23.965340080559873 18.29655172413793,23.84103448275862 18.510264574919404,23.873862998017646" style="fill:none;stroke:black;stroke-width:1"/>
<polygon points="18.29655172413793,23.84103448275862 18.700736567825615,23.965340080559873 18.69272081844197,25.214586424972104" style="fill:none;stroke:black;stroke-width:1"/>
<polygon points="18.84648336004977,25.079042772756438 19.903573374825246,25.420592489657558 18.69272081844197,25.214586424972104" style="fill:none;stroke:black;stroke-width:1"/>
<polygon points="18.84648336004977,25.079042772756438 18.961441772880104,24.905789770165427 19.903573374825246,25.420592489657558" style="fill:none;stroke:black;stroke-width:1"/>
<polygon points="18.961441772880104,24.905789770165427 18.84648336004977,25.079042772756438 18.857151883566157,24.104455433919657" style="fill:none;stroke:black;stroke-width:1"/>
<polygon points="18.700736567825615,23.965340080559873 18.84648336004977,25.079042772756438 18.69272081844197,25.214586424972104" style="fill:none;stroke:black;stroke-width:1"/>
<polygon points="18.84648336004977,25.079042772756438 18.700736567825615,23.965340080559873 18.857151883566157,24.104455433919657" style="fill:none;stroke:black;stroke-width:1"/>
<polygon points="23.417559694551382,10.062108634385526 17.364045244950084,8.301537735613106 20.897592229705875,5.23277795154015" style="fill:none;stroke:black;stroke-width:1"/>
<polygon points="15.996370718770534,8.51466665235543 17.364045244950084,8.301537735613106 17.34623044942304,8.602293462880935" style="fill:none;stroke:black;stroke-width:1"/>
<polygon points="20.06761626015276,10.918250147480535 23.417559694551382,10.062108634385526 21.60612739983591,12.154910699553817" style="fill:none;stroke:black;stroke-width:1"/>
<polygon points="18.92348474559811,12.159718799701153 20.06761626015276,10.918250147480535 21.60612739983591,12.154910699553817" style="fill:none;stroke:black;stroke-width:1"/>
<polygon points="20.06761626015276,10.918250147480535 17.364045244950084,8.301537735613106 23.417559694551382,10.062108634385526" style="fill:none;stroke:black;stroke-width:1"/>
<polygon points="17.364045244950084,8.301537735613106 20.06761626015276,10.918250147480535 17.34623044942304,8.602293462880935" style="fill:none;stroke:black;stroke-width:1"/>
<polygon points="16.490785248193845,10.932875980053394 20.06761626015276,10.918250147480535 18.92348474559811,12.159718799701153" style="fill:none;stroke:black;stroke-width:1"/>
<polygon points="14.63837512647686,6.335748588852945 15.196493583133588,4.939376919788062 15.433817192035411,5.075507964523933" style="fill:none;stroke:black;stroke-width:1"/>
<polygon points="16.074869362089302,5.566293720598905 15.87359976288489,5.389687190834349 18.130558857732854,3.8711150667388345" style="fill:none;stroke:black;stroke-width:1"/>
<polygon points="20.897592229705875,5.23277795154015 16.75535130208163,6.394160641937568 18.130558857732854,3.8711150667388345" style="fill:none;stroke:black;stroke-width:1"/>
<polygon points="16.89419131432062,6.633090371632485 16.75535130208163,6.394160641937568 20.897592229705875,5.23277795154015" style="fill:none;stroke:black;stroke-width:1"/>
<polygon points="19.553673113682695,19.141995645062508 19.028279964395903,19.171270706975562 21.165332007635794,18.537941488850468" style="fill:none;stroke:black;stroke-width:1"/>
<polygon points="16.01995846359884,16.55262502172816 14.071103078018213,20.022164524930155 13.997734765137645,19.909885350934918" style="fill:none;stroke:black;stroke-width:1"/>
<polygon points="14.788701064053969,25.08570315878309 13.173493678740511,25.740571946883616 11.11393018077198,25.668388519900144" style="fill:none;stroke:black;stroke-width:1"/>
<polygon points="11.424166550166051,22.041204739599305 14.788701064053969,25.08570315878309 11.11393018077198,25.668388519900144" style="fill:none;stroke:black;stroke-width:1"/>
<polygon points="12.447471060414099,16.562901676103994 10.063408548753287,19.016418833598117 9.573897155694983,15.631838022158636" style="fill:none;stroke:black;stroke-width:1"/>
<polygon points="10.063408548753287,19.016418833598117 12.447471060414099,16.562901676103994 11.39830325222864,19.102359377010014" style="fill:none;stroke:black;stroke-width:1"/>
<polygon points="10.063408548753287,19.016418833598117 11.39830325222864,19.102359377010014 10.078426241998141,22.006634180675775" style="fill:none;stroke:black;stroke-width:1"/>
<polygon points="10.063408548753287,19.016418833598117 10.078426241998141,22.006634180675775 7.247517780538367,9.435826118768693" style="fill:none;stroke:black;stroke-width:1"/>
<polygon points="9.573897155694983,15.631838022158636 10.063408548753287,19.016418833598117 7.247517780538367,9.435826118768693" style="fill:none;stroke:black;stroke-width:1"/>
<polygon points="16.721311553772164,25.47551370810248 16.92180961102849,25.457945254814025 16.676847967680985,26.672699136405242" style="fill:none;stroke:black;stroke-width:1"/>
<polygon points="16.92180961102849,25.457945254814025 17.119980919559026,25.44072829223904 16.676847967680985,26.672699136405242" style="fill:none;stroke:black;stroke-width:1"/>
<polygon points="16.92180961102849,25.457945254814025 16.721311553772164,25.47551370810248 16.638664231234408,23.926291713769995" style="fill:none;stroke:black;stroke-width:1"/>
<polygon points="17.516322824813606,25.406296229109195 17.7144937774409,25.389080197544274 16.676847967680985,26.672699136405242" style="fill:none;stroke:black;stroke-width:1"/>
<polygon points="17.516322824813606,25.406296229109195 17.448320093714205,23.863236159880394 17.7144937774409,25.389080197544274" style="fill:none;stroke:black;stroke-width:1"/>
<polygon points="18.309006635322774,25.337432102849505 18.509561653988655,25.30315653454467 16.676847967680985,26.672699136405242" style="fill:none;stroke:black;stroke-width:1"/>
<polygon points="18.11083568269548,25.354648134414425 18.309006635322774,25.337432102849505 16.676847967680985,26.672699136405242" style="fill:none;stroke:black;stroke-width:1"/>
<polygon points="18.309006635322774,25.337432102849505 18.29655172413793,23.84103448275862 18.509561653988655,25.30315653454467" style="fill:none;stroke:black;stroke-width:1"/>
<polygon points="17.7144937774409,25.389080197544274 17.91266473006819,25.37186416597935 16.676847967680985,26.672699136405242" style="fill:none;stroke:black;stroke-width:1"/>
<polygon points="17.91266473006819,25.37186416597935 18.11083568269548,25.354648134414425 16.676847967680985,26.672699136405242" style="fill:none;stroke:black;stroke-width:1"/>
<polygon points="18.29655172413793,23.84103448275862 16.859807269352512,21.660274783122425 18.510264574919404,23.873862998017646" style="fill:none;stroke:black;stroke-width:1"/>
<polygon points="16.721311553772164,25.47551370810248 16.44049327860712,23.94350774533492 16.638664231234408,23.926291713769995" style="fill:none;stroke:black;stroke-width:1"/>
<polygon points="16.517390849174085,25.49112795238699 16.44049327860712,23.94350774533492 16.721311553772164,25.47551370810248" style="fill:none;stroke:black;stroke-width:1"/>
<polygon points="16.101120107508965,25.51500541573194 15.845980420725246,23.99515584002969 16.044151373352538,23.977939808464765" style="fill:none;stroke:black;stroke-width:1"/>
<polygon points="12.390913253999782,21.399001069276107 11.424166550166051,22.041204739599305 11.39830325222864,19.102359377010014" style="fill:none;stroke:black;stroke-width:1"/>
<polygon points="12.304661189451158,21.2988205434066 12.390913253999782,21.399001069276107 11.39830325222864,19.102359377010014" style="fill:none;stroke:black;stroke-width:1"/>
<polygon points="18.568610052762722,19.23733896775784 18.66536789466609,19.638924126283868 16.01995846359884,16.55262502172816" style="fill:none;stroke:black;stroke-width:1"/>
<polygon points="21.165332007635794,18.537941488850468 20.630159811011538,20.179973106977062 20.238194935161957,20.15047202530047" style="fill:none;stroke:black;stroke-width:1"/>
<polygon points="20.630159811011538,20.179973106977062 21.165332007635794,18.537941488850468 21.148449143945054,21.640081362290108" style="fill:none;stroke:black;stroke-width:1"/>
<polygon points="16.2113469254374,8.985287563055564 17.007074696031104,9.053004094080002 16.44720622256367,9.117553307369406" style="fill:none;stroke:black;stroke-width:1"/>
<polygon points="16.490785248193845,10.932875980053394 16.2113469254374,8.985287563055564 16.44720622256367,9.117553307369406" style="fill:none;stroke:black;stroke-width:1"/>
<polygon points="20.06761626015276,10.918250147480535 17.220660040381546,8.862769576311718 17.34623044942304,8.602293462880935" style="fill:none;stroke:black;stroke-width:1"/>
<polygon points="17.220660040381546,8.862769576311718 20.06761626015276,10.918250147480535 17.007074696031104,9.053004094080002" style="fill:none;stroke:black;stroke-width:1"/>
<polygon points="16.2113469254374,8.985287563055564 17.220660040381546,8.862769576311718 17.007074696031104,9.053004094080002" style="fill:none;stroke:black;stroke-width:1"/>
<polygon points="17.220660040381546,8.862769576311718 15.996370718770534,8.51466665235543 17.34623044942304,8.602293462880935" style="fill:none;stroke:black;stroke-width:1"/>
<polygon points="16.732491400127255,9.145091709747433 20.06761626015276,10.918250147480535 16.490785248193845,10.932875980053394" style="fill:none;stroke:black;stroke-width:1"/>
<polygon points="20.06761626015276,10.918250147480535 16.732491400127255,9.145091709747433 17.007074696031104,9.053004094080002" style="fill:none;stroke:black;stroke-width:1"/>
<polygon points="16.732491400127255,9.145091709747433 16.490785248193845,10.932875980053394 16.44720622256367,9.117553307369406" style="fill:none;stroke:black;stroke-width:1"/>
<polygon points="17.007074696031104,9.053004094080002 16.732491400127255,9.145091709747433 16.44720622256367,9.117553307369406" style="fill:none;stroke:black;stroke-width:1"/>
<polygon points="15.659717479076388,5.225851663507694 14.875446661848763,6.487423066483918 15.433817192035411,5.075507964523933" style="fill:none;stroke:black;stroke-width:1"/>
<polygon points="14.875446661848763,6.487423066483918 14.63837512647686,6.335748588852945 15.433817192035411,5.075507964523933" style="fill:none;stroke:black;stroke-width:1"/>
<polygon points="14.875446661848763,6.487423066483918 15.659717479076388,5.225851663507694 15.87359976288489,5.389687190834349" style="fill:none;stroke:black;stroke-width:1"/>
<polygon points="15.196493583133588,4.939376919788062 14.382833268931453,6.202089941921454 14.948341333742533,4.818179355205078" style="fill:none;stroke:black;stroke-width:1"/>
<polygon points="14.63837512647686,6.335748588852945 14.382833268931453,6.202089941921454 15.196493583133588,4.939376919788062" style="fill:none;stroke:black;stroke-width:1"/>
<polygon points="14.382833268931453,6.202089941921454 14.63837512647686,6.335748588852945 14.11090995189055,6.08774670211207" style="fill:none;stroke:black;stroke-width:1"/>
<polygon points="16.438429710251174,5.9548855873941005 16.262931595317998,5.754950426896361 18.130558857732854,3.8711150667388345" style="fill:none;stroke:black;stroke-width:1"/>
<polygon points="16.262931595317998,5.754950426896361 16.074869362089302,5.566293720598905 18.130558857732854,3.8711150667388345" style="fill:none;stroke:black;stroke-width:1"/>
<polygon points="16.602991115426665,6.167948675159618 16.438429710251174,5.9548855873941005 18.130558857732854,3.8711150667388345" style="fill:none;stroke:black;stroke-width:1"/>
<polygon points="16.75535130208163,6.394160641937568 16.602991115426665,6.167948675159618 18.130558857732854,3.8711150667388345" style="fill:none;stroke:black;stroke-width:1"/>
<polygon points="14.421929638979226,4.62346797011775 14.747173547548043,3.0725273671420252 16.798842993027556,1.7477189489718579" style="fill:none;stroke:black;stroke-width:1"/>
<polygon points="14.421929638979226,4.62346797011775 14.14485955635022,4.551395801423402 14.747173547548043,3.0725273671420252" style="fill:none;stroke:black;stroke-width:1"/>
<polygon points="12.9552145967445,5.0248799531831825 11.944650905350152,5.1423711398554905 13.267821758131618,2.265619889233578" style="fill:none;stroke:black;stroke-width:1"/>
<polygon points="13.249283521414819,5.804051847587459 12.91395423623495,10.947501812626253 11.944650905350152,5.1423711398554905" style="fill:none;stroke:black;stroke-width:1"/>
<polygon points="13.047768430664295,5.595461812299939 13.249283521414819,5.804051847587459 11.944650905350152,5.1423711398554905" style="fill:none;stroke:black;stroke-width:1"/>
<polygon points="20.022169972102407,19.525078916458448 21.165332007635794,18.537941488850468 20.238194935161957,20.15047202530047" style="fill:none;stroke:black;stroke-width:1"/>
<polygon points="20.022169972102407,19.525078916458448 19.553673113682695,19.141995645062508 21.165332007635794,18.537941488850468" style="fill:none;stroke:black;stroke-width:1"/>
<polygon points="18.216263619454942,18.865147957274317 18.48931814623304,18.255734679081236 21.165332007635794,18.537941488850468" style="fill:none;stroke:black;stroke-width:1"/>
<polygon points="18.257286097239877,19.42318391145708 18.216263619454942,18.865147957274317 21.165332007635794,18.537941488850468" style="fill:none;stroke:black;stroke-width:1"/>
<polygon points="19.028279964395903,19.171270706975562 18.748146893068114,19.51909295664997 21.165332007635794,18.537941488850468" style="fill:none;stroke:black;stroke-width:1"/>
<polygon points="18.748146893068114,19.51909295664997 18.257286097239877,19.42318391145708 21.165332007635794,18.537941488850468" style="fill:none;stroke:black;stroke-width:1"/>
<polygon points="19.590705906437368,16.54589775728365 17.56169703291475,19.66328546866972 17.452031397764287,15.22449488368626" style="fill:none;stroke:black;stroke-width:1"/>
<polygon points="14.173754863165644,20.276014329848188 14.130172868769467,20.144832183339965 16.01995846359884,16.55262502172816" style="fill:none;stroke:black;stroke-width:1"/>
<polygon points="14.130172868769467,20.144832183339965 14.071103078018213,20.022164524930155 16.01995846359884,16.55262502172816" style="fill:none;stroke:black;stroke-width:1"/>
<polygon points="14.20090403878147,20.413702689575054 14.173754863165644,20.276014329848188 16.01995846359884,16.55262502172816" style="fill:none;stroke:black;stroke-width:1"/>
<polygon points="17.119980919559026,25.44072829223904 17.31815187218632,25.42351226067412 16.676847967680985,26.672699136405242" style="fill:none;stroke:black;stroke-width:1"/>
<polygon points="17.31815187218632,25.42351226067412 17.516322824813606,25.406296229109195 16.676847967680985,26.672699136405242" style="fill:none;stroke:black;stroke-width:1"/>
<polygon points="17.03730732718175,23.891764480437715 17.31815187218632,25.42351226067412 17.119980919559026,25.44072829223904" style="fill:none;stroke:black;stroke-width:1"/>
<polygon points="17.448320093714205,23.863236159880394 17.657857844730355,23.852762165915788 17.7144937774409,25.389080197544274" style="fill:none;stroke:black;stroke-width:1"/>
<polygon points="17.657857844730355,23.852762165915788 17.91266473006819,25.37186416597935 17.7144937774409,25.389080197544274" style="fill:none;stroke:black;stroke-width:1"/>
<polygon points="16.28585950998064,20.442318831638183 17.657857844730355,23.852762165915788 16.33579058218305,19.80117781173417" style="fill:none;stroke:black;stroke-width:1"/>
<polygon points="17.657857844730355,23.852762165915788 17.448320093714205,23.863236159880394 16.33579058218305,19.80117781173417" style="fill:none;stroke:black;stroke-width:1"/>
<polygon points="16.836839785772213,23.909063201450355 16.92180961102849,25.457945254814025 16.638664231234408,23.926291713769995" style="fill:none;stroke:black;stroke-width:1"/>
<polygon points="16.92180961102849,25.457945254814025 16.836839785772213,23.909063201450355 17.119980919559026,25.44072829223904" style="fill:none;stroke:black;stroke-width:1"/>
<polygon points="16.836839785772213,23.909063201450355 17.03730732718175,23.891764480437715 17.119980919559026,25.44072829223904" style="fill:none;stroke:black;stroke-width:1"/>
<polygon points="16.463425794058526,21.099601565819082 16.859807269352512,21.660274783122425 18.29655172413793,23.84103448275862" style="fill:none;stroke:black;stroke-width:1"/>
<polygon points="18.1136929954579,22.277662054923045 18.700736567825615,23.965340080559873 18.510264574919404,23.873862998017646" style="fill:none;stroke:black;stroke-width:1"/>
<polygon points="16.986671152051013,18.86548478211439 16.836839785772213,23.909063201450355 13.914000108359886,21.334675453524582" style="fill:none;stroke:black;stroke-width:1"/>
<polygon points="15.647809468097954,24.01237187159461 15.67667460514574,25.526600848424387 15.449638515470664,24.029587903159534" style="fill:none;stroke:black;stroke-width:1"/>
<polygon points="16.242322325979828,23.960723776899844 16.44049327860712,23.94350774533492 16.517390849174085,25.49112795238699" style="fill:none;stroke:black;stroke-width:1"/>
<polygon points="16.101120107508965,25.51500541573194 15.889689375220078,25.522524435686258 15.845980420725246,23.99515584002969" style="fill:none;stroke:black;stroke-width:1"/>
<polygon points="15.647809468097954,24.01237187159461 15.889689375220078,25.522524435686258 15.67667460514574,25.526600848424387" style="fill:none;stroke:black;stroke-width:1"/>
<polygon points="15.889689375220078,25.522524435686258 15.647809468097954,24.01237187159461 15.845980420725246,23.99515584002969" style="fill:none;stroke:black;stroke-width:1"/>
<polygon points="15.67667460514574,25.526600848424387 15.889689375220078,25.522524435686258 16.676847967680985,26.672699136405242" style="fill:none;stroke:black;stroke-width:1"/>
<polygon points="15.889689375220078,25.522524435686258 16.101120107508965,25.51500541573194 16.676847967680985,26.672699136405242" style="fill:none;stroke:black;stroke-width:1"/>
<polygon points="12.447471060414099,16.562901676103994 12.167439905601027,20.22985555693504 11.39830325222864,19.102359377010014" style="fill:none;stroke:black;stroke-width:1"/>
<polygon points="11.424166550166051,22.041204739599305 12.709932384768276,21.612851545049686 14.912161790743665,24.287977233252604" style="fill:none;stroke:black;stroke-width:1"/>
<polygon points="17.513061440599973,19.55352402644332 16.01995846359884,16.55262502172816 17.15747928879104,19.156289519621023" style="fill:none;stroke:black;stroke-width:1"/>
<polygon points="17.513061440599973,19.55352402644332 17.984141405805126,19.55889767128655 16.01995846359884,16.55262502172816" style="fill:none;stroke:black;stroke-width:1"/>
<polygon points="18.245059185765005,19.224904609701408 18.568610052762722,19.23733896775784 16.01995846359884,16.55262502172816" style="fill:none;stroke:black;stroke-width:1"/>
<polygon points="17.984141405805126,19.55889767128655 18.245059185765005,19.224904609701408 16.01995846359884,16.55262502172816" style="fill:none;stroke:black;stroke-width:1"/>
<polygon points="18.66536789466609,19.638924126283868 18.3417040696389,20.273333463567095 16.01995846359884,16.55262502172816" style="fill:none;stroke:black;stroke-width:1"/>
<polygon points="18.3417040696389,20.273333463567095 14.20090403878147,20.413702689575054 16.01995846359884,16.55262502172816" style="fill:none;stroke:black;stroke-width:1"/>
<polygon points="19.972382150315514,19.442357485715384 20.43617634084193,19.786778000593923 21.148449143945054,21.640081362290108" style="fill:none;stroke:black;stroke-width:1"/>
<polygon points="20.43617634084193,19.786778000593923 20.630159811011538,20.179973106977062 21.148449143945054,21.640081362290108" style="fill:none;stroke:black;stroke-width:1"/>
<polygon points="19.522795646002276,21.982000850999373 20.04165704388622,21.532063814881216 21.148449143945054,21.640081362290108" style="fill:none;stroke:black;stroke-width:1"/>
<polygon points="20.04165704388622,21.532063814881216 20.378719161979827,20.942174538835918 21.148449143945054,21.640081362290108" style="fill:none;stroke:black;stroke-width:1"/>
<polygon points="19.344360231415592,19.26746157325102 19.972382150315514,19.442357485715384 21.148449143945054,21.640081362290108" style="fill:none;stroke:black;stroke-width:1"/>
<polygon points="20.378719161979827,20.942174538835918 19.344360231415592,19.26746157325102 21.148449143945054,21.640081362290108" style="fill:none;stroke:black;stroke-width:1"/>
<polygon points="17.21640078052051,7.4218749768300505 17.12603499196889,7.147378655391361 20.897592229705875,5.23277795154015" style="fill:none;stroke:black;stroke-width:1"/>
<polygon points="17.364045244950084,8.301537735613106 17.337034087207197,8.000463297931647 20.897592229705875,5.23277795154015" style="fill:none;stroke:black;stroke-width:1"/>
<polygon points="17.337034087207197,8.000463297931647 17.364045244950084,8.301537735613106 15.996370718770534,8.51466665235543" style="fill:none;stroke:black;stroke-width:1"/>
<polygon points="17.220660040381546,8.862769576311718 16.05231436493279,8.775233829780168 15.996370718770534,8.51466665235543" style="fill:none;stroke:black;stroke-width:1"/>
<polygon points="16.05231436493279,8.775233829780168 17.220660040381546,8.862769576311718 16.2113469254374,8.985287563055564" style="fill:none;stroke:black;stroke-width:1"/>
<polygon points="16.05231436493279,8.775233829780168 16.2113469254374,8.985287563055564 16.490785248193845,10.932875980053394" style="fill:none;stroke:black;stroke-width:1"/>
<polygon points="16.05231436493279,8.775233829780168 16.490785248193845,10.932875980053394 12.91395423623495,10.947501812626253" style="fill:none;stroke:black;stroke-width:1"/>
<polygon points="15.996370718770534,8.51466665235543 16.05231436493279,8.775233829780168 12.91395423623495,10.947501812626253" style="fill:none;stroke:black;stroke-width:1"/>
<polygon points="16.074869362089302,5.566293720598905 15.09195901236917,6.655813798391746 15.87359976288489,5.389687190834349" style="fill:none;stroke:black;stroke-width:1"/>
<polygon points="15.09195901236917,6.655813798391746 14.875446661848763,6.487423066483918 15.87359976288489,5.389687190834349" style="fill:none;stroke:black;stroke-width:1"/>
<polygon points="14.421929638979226,4.62346797011775 14.689955125233872,4.712636096679974 14.11090995189055,6.08774670211207" style="fill:none;stroke:black;stroke-width:1"/>
<polygon points="14.382833268931453,6.202089941921454 14.689955125233872,4.712636096679974 14.948341333742533,4.818179355205078" style="fill:none;stroke:black;stroke-width:1"/>
<polygon points="14.689955125233872,4.712636096679974 14.382833268931453,6.202089941921454 14.11090995189055,6.08774670211207" style="fill:none;stroke:black;stroke-width:1"/>
<polygon points="14.948341333742533,4.818179355205078 14.689955125233872,4.712636096679974 16.798842993027556,1.7477189489718579" style="fill:none;stroke:black;stroke-width:1"/>
<polygon points="14.689955125233872,4.712636096679974 14.421929638979226,4.62346797011775 16.798842993027556,1.7477189489718579" style="fill:none;stroke:black;stroke-width:1"/>
<polygon points="12.942866584368197,5.325712028036824 13.047768430664295,5.595461812299939 11.944650905350152,5.1423711398554905" style="fill:none;stroke:black;stroke-width:1"/>
<polygon points="12.9552145967445,5.0248799531831825 12.942866584368197,5.325712028036824 11.944650905350152,5.1423711398554905" style="fill:none;stroke:black;stroke-width:1"/>
<polygon points="12.942866584368197,5.325712028036824 12.9552145967445,5.0248799531831825 13.047768430664295,5.595461812299939" style="fill:none;stroke:black;stroke-width:1"/>
<polygon points="13.249283521414819,5.804051847587459 13.526551724137931,5.922413793103448 12.91395423623495,10.947501812626253" style="fill:none;stroke:black;stroke-width:1"/>
<polygon points="13.526551724137931,5.922413793103448 15.996370718770534,8.51466665235543 12.91395423623495,10.947501812626253" style="fill:none;stroke:black;stroke-width:1"/>
<polygon points="13.526551724137931,5.922413793103448 13.249283521414819,5.804051847587459 13.299640789537841,4.572998084969721" style="fill:none;stroke:black;stroke-width:1"/>
<polygon points="13.526551724137931,5.922413793103448 15.09195901236917,6.655813798391746 15.996370718770534,8.51466665235543" style="fill:none;stroke:black;stroke-width:1"/>
<polygon points="15.09195901236917,6.655813798391746 13.526551724137931,5.922413793103448 14.875446661848763,6.487423066483918" style="fill:none;stroke:black;stroke-width:1"/>
<polygon points="12.9552145967445,5.0248799531831825 13.084280237540877,4.76036316961819 13.047768430664295,5.595461812299939" style="fill:none;stroke:black;stroke-width:1"/>
<polygon points="13.084280237540877,4.76036316961819 13.249283521414819,5.804051847587459 13.047768430664295,5.595461812299939" style="fill:none;stroke:black;stroke-width:1"/>
<polygon points="13.249283521414819,5.804051847587459 13.084280237540877,4.76036316961819 13.299640789537841,4.572998084969721" style="fill:none;stroke:black;stroke-width:1"/>
<polygon points="13.084280237540877,4.76036316961819 12.9552145967445,5.0248799531831825 13.267821758131618,2.265619889233578" style="fill:none;stroke:black;stroke-width:1"/>
<polygon points="14.747173547548043,3.0725273671420252 13.084280237540877,4.76036316961819 13.267821758131618,2.265619889233578" style="fill:none;stroke:black;stroke-width:1"/>
<polygon points="13.299640789537841,4.572998084969721 13.084280237540877,4.76036316961819 14.747173547548043,3.0725273671420252" style="fill:none;stroke:black;stroke-width:1"/>
<polygon points="19.509320734425884,19.444733977055876 18.835628400861445,19.352305585342375 19.590705906437368,16.54589775728365" style="fill:none;stroke:black;stroke-width:1"/>
<polygon points="19.147351406561217,18.21237231916736 18.238466188182578,19.881083242315096 19.590705906437368,16.54589775728365" style="fill:none;stroke:black;stroke-width:1"/>
<polygon points="18.238466188182578,19.881083242315096 17.56169703291475,19.66328546866972 19.590705906437368,16.54589775728365" style="fill:none;stroke:black;stroke-width:1"/>
<polygon points="15.057695904559907,25.40178541665168 15.248140549402036,25.493304514360872 13.173493678740511,25.740571946883616" style="fill:none;stroke:black;stroke-width:1"/>
<polygon points="14.788701064053969,25.08570315878309 14.90131246621714,25.262634389192105 13.173493678740511,25.740571946883616" style="fill:none;stroke:black;stroke-width:1"/>
<polygon points="14.90131246621714,25.262634389192105 15.057695904559907,25.40178541665168 13.173493678740511,25.740571946883616" style="fill:none;stroke:black;stroke-width:1"/>
<polygon points="15.057695904559907,25.40178541665168 14.90131246621714,25.262634389192105 14.912161790743665,24.287977233252604" style="fill:none;stroke:black;stroke-width:1"/>
<polygon points="14.797195379831294,24.46122076721893 11.424166550166051,22.041204739599305 14.912161790743665,24.287977233252604" style="fill:none;stroke:black;stroke-width:1"/>
<polygon points="14.797195379831294,24.46122076721893 14.73287222656343,24.663017461045634 11.424166550166051,22.041204739599305" style="fill:none;stroke:black;stroke-width:1"/>
<polygon points="14.73287222656343,24.663017461045634 14.797195379831294,24.46122076721893 14.788701064053969,25.08570315878309" style="fill:none;stroke:black;stroke-width:1"/>
<polygon points="14.90131246621714,25.262634389192105 14.797195379831294,24.46122076721893 14.912161790743665,24.287977233252604" style="fill:none;stroke:black;stroke-width:1"/>
<polygon points="14.797195379831294,24.46122076721893 14.90131246621714,25.262634389192105 14.788701064053969,25.08570315878309" style="fill:none;stroke:black;stroke-width:1"/>
<polygon points="14.72957252775062,24.880843452225598 14.788701064053969,25.08570315878309 11.424166550166051,22.041204739599305" style="fill:none;stroke:black;stroke-width:1"/>
<polygon points="14.73287222656343,24.663017461045634 14.72957252775062,24.880843452225598 11.424166550166051,22.041204739599305" style="fill:none;stroke:black;stroke-width:1"/>
<polygon points="14.72957252775062,24.880843452225598 14.73287222656343,24.663017461045634 14.788701064053969,25.08570315878309" style="fill:none;stroke:black;stroke-width:1"/>
<polygon points="17.241302008846876,23.87636286565105 17.31815187218632,25.42351226067412 17.03730732718175,23.891764480437715" style="fill:none;stroke:black;stroke-width:1"/>
<polygon points="17.448320093714205,23.863236159880394 17.241302008846876,23.87636286565105 16.33579058218305,19.80117781173417" style="fill:none;stroke:black;stroke-width:1"/>
<polygon points="17.516322824813606,25.406296229109195 17.241302008846876,23.87636286565105 17.448320093714205,23.863236159880394" style="fill:none;stroke:black;stroke-width:1"/>
<polygon points="17.31815187218632,25.42351226067412 17.241302008846876,23.87636286565105 17.516322824813606,25.406296229109195" style="fill:none;stroke:black;stroke-width:1"/>
<polygon points="17.91266473006819,25.37186416597935 17.86941152484195,23.845318686547266 18.11083568269548,25.354648134414425" style="fill:none;stroke:black;stroke-width:1"/>
<polygon points="17.657857844730355,23.852762165915788 17.86941152484195,23.845318686547266 17.91266473006819,25.37186416597935" style="fill:none;stroke:black;stroke-width:1"/>
<polygon points="16.463425794058526,21.099601565819082 17.86941152484195,23.845318686547266 16.28585950998064,20.442318831638183" style="fill:none;stroke:black;stroke-width:1"/>
<polygon points="17.86941152484195,23.845318686547266 17.657857844730355,23.852762165915788 16.28585950998064,20.442318831638183" style="fill:none;stroke:black;stroke-width:1"/>
<polygon points="16.859807269352512,21.660274783122425 17.42593484915562,22.06846752147315 18.510264574919404,23.873862998017646" style="fill:none;stroke:black;stroke-width:1"/>
<polygon points="17.42593484915562,22.06846752147315 18.1136929954579,22.277662054923045 18.510264574919404,23.873862998017646" style="fill:none;stroke:black;stroke-width:1"/>
<polygon points="18.700736567825615,23.965340080559873 18.861507092528985,22.24565218692606 19.522795646002276,21.982000850999373" style="fill:none;stroke:black;stroke-width:1"/>
<polygon points="18.1136929954579,22.277662054923045 18.861507092528985,22.24565218692606 18.700736567825615,23.965340080559873" style="fill:none;stroke:black;stroke-width:1"/>
<polygon points="17.241302008846876,23.87636286565105 16.581262591848112,19.259799511634846 16.33579058218305,19.80117781173417" style="fill:none;stroke:black;stroke-width:1"/>
<polygon points="16.581262591848112,19.259799511634846 17.241302008846876,23.87636286565105 17.03730732718175,23.891764480437715" style="fill:none;stroke:black;stroke-width:1"/>
<polygon points="16.836839785772213,23.909063201450355 16.581262591848112,19.259799511634846 17.03730732718175,23.891764480437715" style="fill:none;stroke:black;stroke-width:1"/>
<polygon points="16.986671152051013,18.86548478211439 16.581262591848112,19.259799511634846 16.836839785772213,23.909063201450355" style="fill:none;stroke:black;stroke-width:1"/>
<polygon points="16.310507149623326,25.5044158881145 16.101120107508965,25.51500541573194 16.044151373352538,23.977939808464765" style="fill:none;stroke:black;stroke-width:1"/>
<polygon points="16.242322325979828,23.960723776899844 16.310507149623326,25.5044158881145 16.044151373352538,23.977939808464765" style="fill:none;stroke:black;stroke-width:1"/>
<polygon points="16.310507149623326,25.5044158881145 16.242322325979828,23.960723776899844 16.517390849174085,25.49112795238699" style="fill:none;stroke:black;stroke-width:1"/>
<polygon points="16.310507149623326,25.5044158881145 16.517390849174085,25.49112795238699 16.676847967680985,26.672699136405242" style="fill:none;stroke:black;stroke-width:1"/>
<polygon points="16.101120107508965,25.51500541573194 16.310507149623326,25.5044158881145 16.676847967680985,26.672699136405242" style="fill:none;stroke:black;stroke-width:1"/>
<polygon points="13.091434844165121,19.52642938503688 12.447471060414099,16.562901676103994 13.855423469760208,15.239027953014942" style="fill:none;stroke:black;stroke-width:1"/>
<polygon points="13.220574703872256,19.521480487450646 13.091434844165121,19.52642938503688 13.855423469760208,15.239027953014942" style="fill:none;stroke:black;stroke-width:1"/>
<polygon points="12.595419150070839,21.557203497562387 12.709932384768276,21.612851545049686 11.424166550166051,22.041204739599305" style="fill:none;stroke:black;stroke-width:1"/>
<polygon points="17.018192196248187,6.884306748148906 16.89419131432062,6.633090371632485 20.897592229705875,5.23277795154015" style="fill:none;stroke:black;stroke-width:1"/>
<polygon points="17.12603499196889,7.147378655391361 17.018192196248187,6.884306748148906 20.897592229705875,5.23277795154015" style="fill:none;stroke:black;stroke-width:1"/>
<polygon points="17.287524699751685,7.706781899938227 17.21640078052051,7.4218749768300505 20.897592229705875,5.23277795154015" style="fill:none;stroke:black;stroke-width:1"/>
<polygon points="17.337034087207197,8.000463297931647 17.287524699751685,7.706781899938227 20.897592229705875,5.23277795154015" style="fill:none;stroke:black;stroke-width:1"/>
<polygon points="16.262931595317998,5.754950426896361 15.28597991696776,6.8400982557843655 16.074869362089302,5.566293720598905" style="fill:none;stroke:black;stroke-width:1"/>
<polygon points="15.28597991696776,6.8400982557843655 15.09195901236917,6.655813798391746 16.074869362089302,5.566293720598905" style="fill:none;stroke:black;stroke-width:1"/>
<polygon points="15.28597991696776,6.8400982557843655 16.262931595317998,5.754950426896361 16.438429710251174,5.9548855873941005" style="fill:none;stroke:black;stroke-width:1"/>
<polygon points="15.09195901236917,6.655813798391746 15.28597991696776,6.8400982557843655 15.996370718770534,8.51466665235543" style="fill:none;stroke:black;stroke-width:1"/>
<polygon points="13.824884591436346,5.993944787103994 14.421929638979226,4.62346797011775 14.11090995189055,6.08774670211207" style="fill:none;stroke:black;stroke-width:1"/>
<polygon points="14.421929638979226,4.62346797011775 13.824884591436346,5.993944787103994 14.14485955635022,4.551395801423402" style="fill:none;stroke:black;stroke-width:1"/>
<polygon points="14.63837512647686,6.335748588852945 13.824884591436346,5.993944787103994 14.11090995189055,6.08774670211207" style="fill:none;stroke:black;stroke-width:1"/>
<polygon points="14.875446661848763,6.487423066483918 13.824884591436346,5.993944787103994 14.63837512647686,6.335748588852945" style="fill:none;stroke:black;stroke-width:1"/>
<polygon points="13.526551724137931,5.922413793103448 13.824884591436346,5.993944787103994 14.875446661848763,6.487423066483918" style="fill:none;stroke:black;stroke-width:1"/>
<polygon points="14.14485955635022,4.551395801423402 13.859339558718471,4.497140416501923 14.747173547548043,3.0725273671420252" style="fill:none;stroke:black;stroke-width:1"/>
<polygon points="13.824884591436346,5.993944787103994 13.859339558718471,4.497140416501923 14.14485955635022,4.551395801423402" style="fill:none;stroke:black;stroke-width:1"/>
<polygon points="13.859339558718471,4.497140416501923 13.824884591436346,5.993944787103994 13.526551724137931,5.922413793103448" style="fill:none;stroke:black;stroke-width:1"/>
<polygon points="18.912808709690417,17.82232663504318 19.931795526827653,19.106611282737656 19.590705906437368,16.54589775728365" style="fill:none;stroke:black;stroke-width:1"/>
<polygon points="19.931795526827653,19.106611282737656 19.509320734425884,19.444733977055876 19.590705906437368,16.54589775728365" style="fill:none;stroke:black;stroke-width:1"/>
<polygon points="18.806178814056288,17.954651697897923 19.147351406561217,18.21237231916736 19.590705906437368,16.54589775728365" style="fill:none;stroke:black;stroke-width:1"/>
<polygon points="18.41084392309447,18.212680030636438 18.806178814056288,17.954651697897923 19.590705906437368,16.54589775728365" style="fill:none;stroke:black;stroke-width:1"/>
<polygon points="18.835628400861445,19.352305585342375 18.38292400212358,18.825898653926938 19.590705906437368,16.54589775728365" style="fill:none;stroke:black;stroke-width:1"/>
<polygon points="18.38292400212358,18.825898653926938 18.41084392309447,18.212680030636438 19.590705906437368,16.54589775728365" style="fill:none;stroke:black;stroke-width:1"/>
<polygon points="17.01078179428558,18.73015224070066 17.15747928879104,19.156289519621023 17.452031397764287,15.22449488368626" style="fill:none;stroke:black;stroke-width:1"/>
<polygon points="16.698239319196652,18.75663027620506 17.01078179428558,18.73015224070066 17.452031397764287,15.22449488368626" style="fill:none;stroke:black;stroke-width:1"/>
<polygon points="17.56169703291475,19.66328546866972 17.028523197251577,19.269480991505063 17.452031397764287,15.22449488368626" style="fill:none;stroke:black;stroke-width:1"/>
<polygon points="17.028523197251577,19.269480991505063 16.698239319196652,18.75663027620506 17.452031397764287,15.22449488368626" style="fill:none;stroke:black;stroke-width:1"/>
<polygon points="15.67667460514574,25.526600848424387 15.462954291412332,25.527241379310343 15.449638515470664,24.029587903159534" style="fill:none;stroke:black;stroke-width:1"/>
<polygon points="15.462954291412332,25.527241379310343 15.24908349680478,24.06386347146437 15.449638515470664,24.029587903159534" style="fill:none;stroke:black;stroke-width:1"/>
<polygon points="15.462954291412332,25.527241379310343 15.67667460514574,25.526600848424387 13.173493678740511,25.740571946883616" style="fill:none;stroke:black;stroke-width:1"/>
<polygon points="15.248140549402036,25.493304514360872 15.462954291412332,25.527241379310343 13.173493678740511,25.740571946883616" style="fill:none;stroke:black;stroke-width:1"/>
<polygon points="15.462954291412332,25.527241379310343 15.248140549402036,25.493304514360872 15.057695904559907,25.40178541665168" style="fill:none;stroke:black;stroke-width:1"/>
<polygon points="17.86941152484195,23.845318686547266 18.0824773969956,23.841283524564865 18.11083568269548,25.354648134414425" style="fill:none;stroke:black;stroke-width:1"/>
<polygon points="18.309006635322774,25.337432102849505 18.0824773969956,23.841283524564865 18.29655172413793,23.84103448275862" style="fill:none;stroke:black;stroke-width:1"/>
<polygon points="18.0824773969956,23.841283524564865 18.309006635322774,25.337432102849505 18.11083568269548,25.354648134414425" style="fill:none;stroke:black;stroke-width:1"/>
<polygon points="18.0824773969956,23.841283524564865 16.463425794058526,21.099601565819082 18.29655172413793,23.84103448275862" style="fill:none;stroke:black;stroke-width:1"/>
<polygon points="18.0824773969956,23.841283524564865 17.86941152484195,23.845318686547266 16.463425794058526,21.099601565819082" style="fill:none;stroke:black;stroke-width:1"/>
<polygon points="13.34828595600756,19.531717186027695 13.220574703872256,19.521480487450646 13.855423469760208,15.239027953014942" style="fill:none;stroke:black;stroke-width:1"/>
<polygon points="16.01995846359884,16.55262502172816 13.706976804517963,19.65150239677913 13.855423469760208,15.239027953014942" style="fill:none;stroke:black;stroke-width:1"/>
<polygon points="13.706976804517963,19.65150239677913 13.592463569820527,19.595854349291834 13.855423469760208,15.239027953014942" style="fill:none;stroke:black;stroke-width:1"/>
<polygon points="12.487965460288303,19.779800769960847 12.38843453794421,19.874605786349072 12.447471060414099,16.562901676103994" style="fill:none;stroke:black;stroke-width:1"/>
<polygon points="12.38843453794421,19.874605786349072 12.300722097603384,19.9822796459669 12.447471060414099,16.562901676103994" style="fill:none;stroke:black;stroke-width:1"/>
<polygon points="12.226561012883316,20.10126133396616 12.167439905601027,20.22985555693504 12.447471060414099,16.562901676103994" style="fill:none;stroke:black;stroke-width:1"/>
<polygon points="12.300722097603384,19.9822796459669 12.226561012883316,20.10126133396616 12.447471060414099,16.562901676103994" style="fill:none;stroke:black;stroke-width:1"/>
<polygon points="12.390913253999782,21.399001069276107 12.488431115295008,21.48556358621704 11.424166550166051,22.041204739599305" style="fill:none;stroke:black;stroke-width:1"/>
<polygon points="12.488431115295008,21.48556358621704 12.595419150070839,21.557203497562387 11.424166550166051,22.041204739599305" style="fill:none;stroke:black;stroke-width:1"/>
<polygon points="15.462954291412332,25.527241379310343 15.065924332351466,24.15243358103693 15.24908349680478,24.06386347146437" style="fill:none;stroke:black;stroke-width:1"/>
<polygon points="15.065924332351466,24.15243358103693 15.057695904559907,25.40178541665168 14.912161790743665,24.287977233252604" style="fill:none;stroke:black;stroke-width:1"/>
<polygon points="15.065924332351466,24.15243358103693 15.462954291412332,25.527241379310343 15.057695904559907,25.40178541665168" style="fill:none;stroke:black;stroke-width:1"/>
<polygon points="12.709932384768276,21.612851545049686 12.829739076483623,21.652144005004416 14.912161790743665,24.287977233252604" style="fill:none;stroke:black;stroke-width:1"/>
<polygon points="12.829739076483623,21.652144005004416 15.065924332351466,24.15243358103693 14.912161790743665,24.287977233252604" style="fill:none;stroke:black;stroke-width:1"/>
<polygon points="15.065924332351466,24.15243358103693 12.829739076483623,21.652144005004416 12.95415824357695,21.67710022002352" style="fill:none;stroke:black;stroke-width:1"/>
<polygon points="13.46631200926006,21.626336152655227 15.647809468097954,24.01237187159461 15.449638515470664,24.029587903159534" style="fill:none;stroke:black;stroke-width:1"/>
<polygon points="16.602991115426665,6.167948675159618 15.458667213293847,7.04133428012772 16.438429710251174,5.9548855873941005" style="fill:none;stroke:black;stroke-width:1"/>
<polygon points="15.458667213293847,7.04133428012772 15.28597991696776,6.8400982557843655 16.438429710251174,5.9548855873941005" style="fill:none;stroke:black;stroke-width:1"/>
<polygon points="15.28597991696776,6.8400982557843655 15.458667213293847,7.04133428012772 15.996370718770534,8.51466665235543" style="fill:none;stroke:black;stroke-width:1"/>
<polygon points="13.569499696858157,4.4815840449650945 13.526551724137931,5.922413793103448 13.299640789537841,4.572998084969721" style="fill:none;stroke:black;stroke-width:1"/>
<polygon points="13.569499696858157,4.4815840449650945 13.859339558718471,4.497140416501923 13.526551724137931,5.922413793103448" style="fill:none;stroke:black;stroke-width:1"/>
<polygon points="13.569499696858157,4.4815840449650945 13.299640789537841,4.572998084969721 14.747173547548043,3.0725273671420252" style="fill:none;stroke:black;stroke-width:1"/>
<polygon points="13.859339558718471,4.497140416501923 13.569499696858157,4.4815840449650945 14.747173547548043,3.0725273671420252" style="fill:none;stroke:black;stroke-width:1"/>
<polygon points="13.592463569820527,19.595854349291834 13.472659029530156,19.556601161532768 13.855423469760208,15.239027953014942" style="fill:none;stroke:black;stroke-width:1"/>
<polygon points="13.472659029530156,19.556601161532768 13.34828595600756,19.531717186027695 13.855423469760208,15.239027953014942" style="fill:none;stroke:black;stroke-width:1"/>
<polygon points="13.813964839293792,19.72314230812448 16.01995846359884,16.55262502172816 13.911482700589023,19.809704825065413" style="fill:none;stroke:black;stroke-width:1"/>
<polygon points="13.813964839293792,19.72314230812448 13.706976804517963,19.65150239677913 16.01995846359884,16.55262502172816" style="fill:none;stroke:black;stroke-width:1"/>
<polygon points="12.59735649478266,19.699261779045422 12.487965460288303,19.779800769960847 12.447471060414099,16.562901676103994" style="fill:none;stroke:black;stroke-width:1"/>
<polygon points="12.71406926875768,19.633630807222325 12.59735649478266,19.699261779045422 12.447471060414099,16.562901676103994" style="fill:none;stroke:black;stroke-width:1"/>
<polygon points="12.836385351579796,19.58265073934212 12.71406926875768,19.633630807222325 12.447471060414099,16.562901676103994" style="fill:none;stroke:black;stroke-width:1"/>
<polygon points="12.23129287657059,21.186541369411366 12.304661189451158,21.2988205434066 11.39830325222864,19.102359377010014" style="fill:none;stroke:black;stroke-width:1"/>
<polygon points="12.172223085819336,21.063873711001555 12.23129287657059,21.186541369411366 11.39830325222864,19.102359377010014" style="fill:none;stroke:black;stroke-width:1"/>
<polygon points="12.101491915807332,20.795003204766466 12.128641091423159,20.932691564493325 11.39830325222864,19.102359377010014" style="fill:none;stroke:black;stroke-width:1"/>
<polygon points="12.128641091423159,20.932691564493325 12.172223085819336,21.063873711001555 11.39830325222864,19.102359377010014" style="fill:none;stroke:black;stroke-width:1"/>
<polygon points="12.167439905601027,20.22985555693504 12.124588242204881,20.366264414592646 11.39830325222864,19.102359377010014" style="fill:none;stroke:black;stroke-width:1"/>
<polygon points="12.124588242204881,20.366264414592646 12.098965517241378,20.50862068965517 11.39830325222864,19.102359377010014" style="fill:none;stroke:black;stroke-width:1"/>
<polygon points="12.091461426028484,20.65291951356982 12.101491915807332,20.795003204766466 11.39830325222864,19.102359377010014" style="fill:none;stroke:black;stroke-width:1"/>
<polygon points="12.098965517241378,20.50862068965517 12.091461426028484,20.65291951356982 11.39830325222864,19.102359377010014" style="fill:none;stroke:black;stroke-width:1"/>
<polygon points="15.24908349680478,24.06386347146437 13.339865306071474,21.662138421974028 15.449638515470664,24.029587903159534" style="fill:none;stroke:black;stroke-width:1"/>
<polygon points="13.339865306071474,21.662138421974028 13.46631200926006,21.626336152655227 15.449638515470664,24.029587903159534" style="fill:none;stroke:black;stroke-width:1"/>
<polygon points="15.647809468097954,24.01237187159461 13.588708579139116,21.575368588234067 15.845980420725246,23.99515584002969" style="fill:none;stroke:black;stroke-width:1"/>
<polygon points="13.46631200926006,21.626336152655227 13.588708579139116,21.575368588234067 15.647809468097954,24.01237187159461" style="fill:none;stroke:black;stroke-width:1"/>
<polygon points="15.845980420725246,23.99515584002969 13.588708579139116,21.575368588234067 16.044151373352538,23.977939808464765" style="fill:none;stroke:black;stroke-width:1"/>
<polygon points="15.609797945223038,7.257859073260491 16.602991115426665,6.167948675159618 16.75535130208163,6.394160641937568" style="fill:none;stroke:black;stroke-width:1"/>
<polygon points="15.609797945223038,7.257859073260491 15.458667213293847,7.04133428012772 16.602991115426665,6.167948675159618" style="fill:none;stroke:black;stroke-width:1"/>
<polygon points="15.609797945223038,7.257859073260491 16.75535130208163,6.394160641937568 16.89419131432062,6.633090371632485" style="fill:none;stroke:black;stroke-width:1"/>
<polygon points="15.458667213293847,7.04133428012772 15.609797945223038,7.257859073260491 15.996370718770534,8.51466665235543" style="fill:none;stroke:black;stroke-width:1"/>
<polygon points="13.091434844165121,19.52642938503688 12.962758446408685,19.546824019353284 12.447471060414099,16.562901676103994" style="fill:none;stroke:black;stroke-width:1"/>
<polygon points="12.962758446408685,19.546824019353284 12.836385351579796,19.58265073934212 12.447471060414099,16.562901676103994" style="fill:none;stroke:black;stroke-width:1"/>
<polygon points="15.065924332351466,24.15243358103693 13.081922467980231,21.687397210903594 15.24908349680478,24.06386347146437" style="fill:none;stroke:black;stroke-width:1"/>
<polygon points="13.081922467980231,21.687397210903594 15.065924332351466,24.15243358103693 12.95415824357695,21.67710022002352" style="fill:none;stroke:black;stroke-width:1"/>
<polygon points="13.70544440536025,21.509803939323735 16.242322325979828,23.960723776899844 16.044151373352538,23.977939808464765" style="fill:none;stroke:black;stroke-width:1"/>
<polygon points="13.588708579139116,21.575368588234067 13.70544440536025,21.509803939323735 16.044151373352538,23.977939808464765" style="fill:none;stroke:black;stroke-width:1"/>
<polygon points="16.242322325979828,23.960723776899844 13.70544440536025,21.509803939323735 16.44049327860712,23.94350774533492" style="fill:none;stroke:black;stroke-width:1"/>
<polygon points="17.018192196248187,6.884306748148906 15.738065472179757,7.488096980370958 16.89419131432062,6.633090371632485" style="fill:none;stroke:black;stroke-width:1"/>
<polygon points="15.738065472179757,7.488096980370958 15.609797945223038,7.257859073260491 16.89419131432062,6.633090371632485" style="fill:none;stroke:black;stroke-width:1"/>
<polygon points="15.609797945223038,7.257859073260491 15.738065472179757,7.488096980370958 15.996370718770534,8.51466665235543" style="fill:none;stroke:black;stroke-width:1"/>
<polygon points="13.211122178652582,21.68249665840939 13.339865306071474,21.662138421974028 15.24908349680478,24.06386347146437" style="fill:none;stroke:black;stroke-width:1"/>
<polygon points="13.081922467980231,21.687397210903594 13.211122178652582,21.68249665840939 15.24908349680478,24.06386347146437" style="fill:none;stroke:black;stroke-width:1"/>
<polygon points="13.8146339964524,21.429433877872363 16.836839785772213,23.909063201450355 16.638664231234408,23.926291713769995" style="fill:none;stroke:black;stroke-width:1"/>
<polygon points="16.836839785772213,23.909063201450355 13.8146339964524,21.429433877872363 13.914000108359886,21.334675453524582" style="fill:none;stroke:black;stroke-width:1"/>
<polygon points="16.44049327860712,23.94350774533492 13.8146339964524,21.429433877872363 16.638664231234408,23.926291713769995" style="fill:none;stroke:black;stroke-width:1"/>
<polygon points="13.70544440536025,21.509803939323735 13.8146339964524,21.429433877872363 16.44049327860712,23.94350774533492" style="fill:none;stroke:black;stroke-width:1"/>
<polygon points="15.842163153588439,7.730472346647404 17.018192196248187,6.884306748148906 17.12603499196889,7.147378655391361" style="fill:none;stroke:black;stroke-width:1"/>
<polygon points="15.842163153588439,7.730472346647404 15.738065472179757,7.488096980370958 17.018192196248187,6.884306748148906" style="fill:none;stroke:black;stroke-width:1"/>
<polygon points="15.842163153588439,7.730472346647404 17.12603499196889,7.147378655391361 17.21640078052051,7.4218749768300505" style="fill:none;stroke:black;stroke-width:1"/>
<polygon points="15.738065472179757,7.488096980370958 15.9726224174594,8.24533283745136 15.996370718770534,8.51466665235543" style="fill:none;stroke:black;stroke-width:1"/>
<polygon points="15.842163153588439,7.730472346647404 15.9726224174594,8.24533283745136 15.738065472179757,7.488096980370958" style="fill:none;stroke:black;stroke-width:1"/>
<polygon points="15.9726224174594,8.24533283745136 17.337034087207197,8.000463297931647 15.996370718770534,8.51466665235543" style="fill:none;stroke:black;stroke-width:1"/>
<polygon points="15.9726224174594,8.24533283745136 17.287524699751685,7.706781899938227 17.337034087207197,8.000463297931647" style="fill:none;stroke:black;stroke-width:1"/>
<polygon points="17.287524699751685,7.706781899938227 15.920784348873513,7.98340951727811 17.21640078052051,7.4218749768300505" style="fill:none;stroke:black;stroke-width:1"/>
<polygon points="15.9726224174594,8.24533283745136 15.920784348873513,7.98340951727811 17.287524699751685,7.706781899938227" style="fill:none;stroke:black;stroke-width:1"/>
<polygon points="15.920784348873513,7.98340951727811 15.842163153588439,7.730472346647404 17.21640078052051,7.4218749768300505" style="fill:none;stroke:black;stroke-width:1"/>
<polygon points="15.920784348873513,7.98340951727811 15.9726224174594,8.24533283745136 15.842163153588439,7.730472346647404" style="fill:none;stroke:black;stroke-width:1"/>
<polygon points="14.20090403878147,20.413702689575054 18.3417040696389,20.273333463567095 14.210934528560317,20.5557863807717" style="fill:none;stroke:black;stroke-width:1"/>
<polygon points="14.210934528560317,20.5557863807717 18.3417040696389,20.273333463567095 17.85859974616758,20.75299008079834" style="fill:none;stroke:black;stroke-width:1"/>
<polygon points="14.134961849187876,20.979104410643924 18.434467126832757,18.889820576852006 18.01914760413768,18.68525746305601" style="fill:none;stroke:black;stroke-width:1"/>
<polygon points="14.134961849187876,20.979104410643924 18.01914760413768,18.68525746305601 14.075750608244778,21.10785526816779" style="fill:none;stroke:black;stroke-width:1"/>
<polygon points="18.71216494433104,19.23549211955245 14.134961849187876,20.979104410643924 14.178057742654008,20.842528519521466" style="fill:none;stroke:black;stroke-width:1"/>
<polygon points="14.134961849187876,20.979104410643924 18.71216494433104,19.23549211955245 18.434467126832757,18.889820576852006" style="fill:none;stroke:black;stroke-width:1"/>
<polygon points="17.511598019700582,18.6656794117893 14.00160854542981,21.226953146136136 14.075750608244778,21.10785526816779" style="fill:none;stroke:black;stroke-width:1"/>
<polygon points="18.01914760413768,18.68525746305601 17.511598019700582,18.6656794117893 14.075750608244778,21.10785526816779" style="fill:none;stroke:black;stroke-width:1"/>
<polygon points="14.00160854542981,21.226953146136136 17.511598019700582,18.6656794117893 13.914000108359886,21.334675453524582" style="fill:none;stroke:black;stroke-width:1"/>
<polygon points="17.511598019700582,18.6656794117893 16.986671152051013,18.86548478211439 13.914000108359886,21.334675453524582" style="fill:none;stroke:black;stroke-width:1"/>
<polygon points="18.861507092528985,22.24565218692606 18.805862068965517,19.676896551724138 19.522795646002276,21.982000850999373" style="fill:none;stroke:black;stroke-width:1"/>
<polygon points="18.805862068965517,19.676896551724138 16.28585950998064,20.442318831638183 16.33579058218305,19.80117781173417" style="fill:none;stroke:black;stroke-width:1"/>
<polygon points="18.245059185765005,19.224904609701408 18.805862068965517,19.676896551724138 18.568610052762722,19.23733896775784" style="fill:none;stroke:black;stroke-width:1"/>
<polygon points="18.805862068965517,19.676896551724138 16.463425794058526,21.099601565819082 16.28585950998064,20.442318831638183" style="fill:none;stroke:black;stroke-width:1"/>
<polygon points="18.805862068965517,19.676896551724138 20.022169972102407,19.525078916458448 20.238194935161957,20.15047202530047" style="fill:none;stroke:black;stroke-width:1"/>
<polygon points="18.805862068965517,19.676896551724138 20.43617634084193,19.786778000593923 19.972382150315514,19.442357485715384" style="fill:none;stroke:black;stroke-width:1"/>
<polygon points="18.805862068965517,19.676896551724138 18.912808709690417,17.82232663504318 18.48931814623304,18.255734679081236" style="fill:none;stroke:black;stroke-width:1"/>
<polygon points="19.344360231415592,19.26746157325102 18.805862068965517,19.676896551724138 19.972382150315514,19.442357485715384" style="fill:none;stroke:black;stroke-width:1"/>
<polygon points="18.805862068965517,19.676896551724138 17.511598019700582,18.6656794117893 18.01914760413768,18.68525746305601" style="fill:none;stroke:black;stroke-width:1"/>
<polygon points="20.630159811011538,20.179973106977062 18.805862068965517,19.676896551724138 20.238194935161957,20.15047202530047" style="fill:none;stroke:black;stroke-width:1"/>
<polygon points="19.553673113682695,19.141995645062508 18.805862068965517,19.676896551724138 19.028279964395903,19.171270706975562" style="fill:none;stroke:black;stroke-width:1"/>
<polygon points="18.216263619454942,18.865147957274317 18.805862068965517,19.676896551724138 18.48931814623304,18.255734679081236" style="fill:none;stroke:black;stroke-width:1"/>
<polygon points="18.805862068965517,19.676896551724138 18.748146893068114,19.51909295664997 19.028279964395903,19.171270706975562" style="fill:none;stroke:black;stroke-width:1"/>
<polygon points="18.805862068965517,19.676896551724138 18.238466188182578,19.881083242315096 19.147351406561217,18.21237231916736" style="fill:none;stroke:black;stroke-width:1"/>
<polygon points="18.805862068965517,19.676896551724138 17.42593484915562,22.06846752147315 16.859807269352512,21.660274783122425" style="fill:none;stroke:black;stroke-width:1"/>
<polygon points="18.805862068965517,19.676896551724138 17.513061440599973,19.55352402644332 17.15747928879104,19.156289519621023" style="fill:none;stroke:black;stroke-width:1"/>
<polygon points="18.805862068965517,19.676896551724138 18.66536789466609,19.638924126283868 18.568610052762722,19.23733896775784" style="fill:none;stroke:black;stroke-width:1"/>
<polygon points="18.3417040696389,20.273333463567095 18.805862068965517,19.676896551724138 17.85859974616758,20.75299008079834" style="fill:none;stroke:black;stroke-width:1"/>
<polygon points="18.805862068965517,19.676896551724138 20.04165704388622,21.532063814881216 19.522795646002276,21.982000850999373" style="fill:none;stroke:black;stroke-width:1"/>
<polygon points="20.022169972102407,19.525078916458448 18.805862068965517,19.676896551724138 19.553673113682695,19.141995645062508" style="fill:none;stroke:black;stroke-width:1"/>
<polygon points="18.805862068965517,19.676896551724138 18.216263619454942,18.865147957274317 18.257286097239877,19.42318391145708" style="fill:none;stroke:black;stroke-width:1"/>
<polygon points="18.748146893068114,19.51909295664997 18.805862068965517,19.676896551724138 18.257286097239877,19.42318391145708" style="fill:none;stroke:black;stroke-width:1"/>
<polygon points="16.581262591848112,19.259799511634846 18.805862068965517,19.676896551724138 16.33579058218305,19.80117781173417" style="fill:none;stroke:black;stroke-width:1"/>
<polygon points="18.805862068965517,19.676896551724138 19.931795526827653,19.106611282737656 18.912808709690417,17.82232663504318" style="fill:none;stroke:black;stroke-width:1"/>
<polygon points="16.463425794058526,21.099601565819082 18.805862068965517,19.676896551724138 16.859807269352512,21.660274783122425" style="fill:none;stroke:black;stroke-width:1"/>
<polygon points="18.805862068965517,19.676896551724138 18.38292400212358,18.825898653926938 18.835628400861445,19.352305585342375" style="fill:none;stroke:black;stroke-width:1"/>
<polygon points="18.434467126832757,18.889820576852006 18.805862068965517,19.676896551724138 18.01914760413768,18.68525746305601" style="fill:none;stroke:black;stroke-width:1"/>
<polygon points="18.71216494433104,19.23549211955245 18.805862068965517,19.676896551724138 18.434467126832757,18.889820576852006" style="fill:none;stroke:black;stroke-width:1"/>
<polygon points="17.513061440599973,19.55352402644332 18.805862068965517,19.676896551724138 17.984141405805126,19.55889767128655" style="fill:none;stroke:black;stroke-width:1"/>
<polygon points="18.805862068965517,19.676896551724138 18.245059185765005,19.224904609701408 17.984141405805126,19.55889767128655" style="fill:none;stroke:black;stroke-width:1"/>
<polygon points="18.805862068965517,19.676896551724138 18.3417040696389,20.273333463567095 18.66536789466609,19.638924126283868" style="fill:none;stroke:black;stroke-width:1"/>
<polygon points="20.43617634084193,19.786778000593923 18.805862068965517,19.676896551724138 20.630159811011538,20.179973106977062" style="fill:none;stroke:black;stroke-width:1"/>
<polygon points="20.04165704388622,21.532063814881216 18.805862068965517,19.676896551724138 20.378719161979827,20.942174538835918" style="fill:none;stroke:black;stroke-width:1"/>
<polygon points="18.805862068965517,19.676896551724138 19.344360231415592,19.26746157325102 20.378719161979827,20.942174538835918" style="fill:none;stroke:black;stroke-width:1"/>
<polygon points="19.509320734425884,19.444733977055876 18.805862068965517,19.676896551724138 18.835628400861445,19.352305585342375" style="fill:none;stroke:black;stroke-width:1"/>
<polygon points="18.806178814056288,17.954651697897923 18.805862068965517,19.676896551724138 19.147351406561217,18.21237231916736" style="fill:none;stroke:black;stroke-width:1"/>
<polygon points="18.238466188182578,19.881083242315096 18.805862068965517,19.676896551724138 17.56169703291475,19.66328546866972" style="fill:none;stroke:black;stroke-width:1"/>
<polygon points="17.01078179428558,18.73015224070066 18.805862068965517,19.676896551724138 17.15747928879104,19.156289519621023" style="fill:none;stroke:black;stroke-width:1"/>
<polygon points="17.42593484915562,22.06846752147315 18.805862068965517,19.676896551724138 18.1136929954579,22.277662054923045" style="fill:none;stroke:black;stroke-width:1"/>
<polygon points="18.805862068965517,19.676896551724138 18.861507092528985,22.24565218692606 18.1136929954579,22.277662054923045" style="fill:none;stroke:black;stroke-width:1"/>
<polygon points="18.805862068965517,19.676896551724138 17.028523197251577,19.269480991505063 17.56169703291475,19.66328546866972" style="fill:none;stroke:black;stroke-width:1"/>
<polygon points="17.511598019700582,18.6656794117893 18.805862068965517,19.676896551724138 16.986671152051013,18.86548478211439" style="fill:none;stroke:black;stroke-width:1"/>
<polygon points="18.805862068965517,19.676896551724138 16.581262591848112,19.259799511634846 16.986671152051013,18.86548478211439" style="fill:none;stroke:black;stroke-width:1"/>
<polygon points="19.931795526827653,19.106611282737656 18.805862068965517,19.676896551724138 19.509320734425884,19.444733977055876" style="fill:none;stroke:black;stroke-width:1"/>
<polygon points="18.805862068965517,19.676896551724138 18.806178814056288,17.954651697897923 18.41084392309447,18.212680030636438" style="fill:none;stroke:black;stroke-width:1"/>
<polygon points="18.38292400212358,18.825898653926938 18.805862068965517,19.676896551724138 18.41084392309447,18.212680030636438" style="fill:none;stroke:black;stroke-width:1"/>
<polygon points="18.805862068965517,19.676896551724138 17.01078179428558,18.73015224070066 16.698239319196652,18.75663027620506" style="fill:none;stroke:black;stroke-width:1"/>
<polygon points="17.028523197251577,19.269480991505063 18.805862068965517,19.676896551724138 16.698239319196652,18.75663027620506" style="fill:none;stroke:black;stroke-width:1"/>
<polygon points="18.805862068965517,19.676896551724138 14.203467296299703,20.700127089077167 14.210934528560317,20.5557863807717" style="fill:none;stroke:black;stroke-width:1"/>
<polygon points="18.805862068965517,19.676896551724138 14.210934528560317,20.5557863807717 17.85859974616758,20.75299008079834" style="fill:none;stroke:black;stroke-width:1"/>
<polygon points="14.203467296299703,20.700127089077167 18.805862068965517,19.676896551724138 14.178057742654008,20.842528519521466" style="fill:none;stroke:black;stroke-width:1"/>
<polygon points="18.805862068965517,19.676896551724138 18.71216494433104,19.23549211955245 14.178057742654008,20.842528519521466" style="fill:none;stroke:black;stroke-width:1"/>
<polygon points="13.8146339964524,21.429433877872363 13.911482700589023,19.809704825065413 13.997734765137645,19.909885350934918" style="fill:none;stroke:black;stroke-width:1"/>
<polygon points="14.071103078018213,20.022164524930155 13.8146339964524,21.429433877872363 13.997734765137645,19.909885350934918" style="fill:none;stroke:black;stroke-width:1"/>
<polygon points="13.8146339964524,21.429433877872363 12.128641091423159,20.932691564493325 12.101491915807332,20.795003204766466" style="fill:none;stroke:black;stroke-width:1"/>
<polygon points="13.8146339964524,21.429433877872363 14.00160854542981,21.226953146136136 13.914000108359886,21.334675453524582" style="fill:none;stroke:black;stroke-width:1"/>
<polygon points="13.8146339964524,21.429433877872363 14.130172868769467,20.144832183339965 14.173754863165644,20.276014329848188" style="fill:none;stroke:black;stroke-width:1"/>
<polygon points="14.20090403878147,20.413702689575054 13.8146339964524,21.429433877872363 14.173754863165644,20.276014329848188" style="fill:none;stroke:black;stroke-width:1"/>
<polygon points="13.8146339964524,21.429433877872363 13.813964839293792,19.72314230812448 13.911482700589023,19.809704825065413" style="fill:none;stroke:black;stroke-width:1"/>
<polygon points="13.8146339964524,21.429433877872363 14.203467296299703,20.700127089077167 14.178057742654008,20.842528519521466" style="fill:none;stroke:black;stroke-width:1"/>
<polygon points="14.00160854542981,21.226953146136136 13.8146339964524,21.429433877872363 14.075750608244778,21.10785526816779" style="fill:none;stroke:black;stroke-width:1"/>
<polygon points="14.134961849187876,20.979104410643924 13.8146339964524,21.429433877872363 14.178057742654008,20.842528519521466" style="fill:none;stroke:black;stroke-width:1"/>
<polygon points="13.8146339964524,21.429433877872363 12.390913253999782,21.399001069276107 12.304661189451158,21.2988205434066" style="fill:none;stroke:black;stroke-width:1"/>
<polygon points="14.130172868769467,20.144832183339965 13.8146339964524,21.429433877872363 14.071103078018213,20.022164524930155" style="fill:none;stroke:black;stroke-width:1"/>
<polygon points="14.203467296299703,20.700127089077167 13.8146339964524,21.429433877872363 14.210934528560317,20.5557863807717" style="fill:none;stroke:black;stroke-width:1"/>
<polygon points="13.8146339964524,21.429433877872363 14.20090403878147,20.413702689575054 14.210934528560317,20.5557863807717" style="fill:none;stroke:black;stroke-width:1"/>
<polygon points="13.34828595600756,19.531717186027695 13.8146339964524,21.429433877872363 13.220574703872256,19.521480487450646" style="fill:none;stroke:black;stroke-width:1"/>
<polygon points="13.8146339964524,21.429433877872363 13.472659029530156,19.556601161532768 13.592463569820527,19.595854349291834" style="fill:none;stroke:black;stroke-width:1"/>
<polygon points="12.226561012883316,20.10126133396616 13.8146339964524,21.429433877872363 12.167439905601027,20.22985555693504" style="fill:none;stroke:black;stroke-width:1"/>
<polygon points="13.8146339964524,21.429433877872363 14.134961849187876,20.979104410643924 14.075750608244778,21.10785526816779" style="fill:none;stroke:black;stroke-width:1"/>
<polygon points="13.8146339964524,21.429433877872363 12.829739076483623,21.652144005004416 12.709932384768276,21.612851545049686" style="fill:none;stroke:black;stroke-width:1"/>
<polygon points="13.8146339964524,21.429433877872363 13.091434844165121,19.52642938503688 13.220574703872256,19.521480487450646" style="fill:none;stroke:black;stroke-width:1"/>
<polygon points="13.8146339964524,21.429433877872363 12.38843453794421,19.874605786349072 12.487965460288303,19.779800769960847" style="fill:none;stroke:black;stroke-width:1"/>
<polygon points="13.8146339964524,21.429433877872363 13.081922467980231,21.687397210903594 12.95415824357695,21.67710022002352" style="fill:none;stroke:black;stroke-width:1"/>
<polygon points="12.595419150070839,21.557203497562387 13.8146339964524,21.429433877872363 12.709932384768276,21.612851545049686" style="fill:none;stroke:black;stroke-width:1"/>
<polygon points="13.8146339964524,21.429433877872363 12.488431115295008,21.48556358621704 12.390913253999782,21.399001069276107" style="fill:none;stroke:black;stroke-width:1"/>
<polygon points="13.8146339964524,21.429433877872363 12.962758446408685,19.546824019353284 13.091434844165121,19.52642938503688" style="fill:none;stroke:black;stroke-width:1"/>
<polygon points="13.706976804517963,19.65150239677913 13.8146339964524,21.429433877872363 13.592463569820527,19.595854349291834" style="fill:none;stroke:black;stroke-width:1"/>
<polygon points="12.59735649478266,19.699261779045422 13.8146339964524,21.429433877872363 12.487965460288303,19.779800769960847" style="fill:none;stroke:black;stroke-width:1"/>
<polygon points="12.38843453794421,19.874605786349072 13.8146339964524,21.429433877872363 12.300722097603384,19.9822796459669" style="fill:none;stroke:black;stroke-width:1"/>
<polygon points="13.8146339964524,21.429433877872363 12.226561012883316,20.10126133396616 12.300722097603384,19.9822796459669" style="fill:none;stroke:black;stroke-width:1"/>
<polygon points="12.23129287657059,21.186541369411366 13.8146339964524,21.429433877872363 12.304661189451158,21.2988205434066" style="fill:none;stroke:black;stroke-width:1"/>
<polygon points="13.8146339964524,21.429433877872363 12.124588242204881,20.366264414592646 12.167439905601027,20.22985555693504" style="fill:none;stroke:black;stroke-width:1"/>
<polygon points="12.488431115295008,21.48556358621704 13.8146339964524,21.429433877872363 12.595419150070839,21.557203497562387" style="fill:none;stroke:black;stroke-width:1"/>
<polygon points="12.829739076483623,21.652144005004416 13.8146339964524,21.429433877872363 12.95415824357695,21.67710022002352" style="fill:none;stroke:black;stroke-width:1"/>
<polygon points="12.091461426028484,20.65291951356982 13.8146339964524,21.429433877872363 12.101491915807332,20.795003204766466" style="fill:none;stroke:black;stroke-width:1"/>
<polygon points="13.472659029530156,19.556601161532768 13.8146339964524,21.429433877872363 13.34828595600756,19.531717186027695" style="fill:none;stroke:black;stroke-width:1"/>
<polygon points="13.813964839293792,19.72314230812448 13.8146339964524,21.429433877872363 13.706976804517963,19.65150239677913" style="fill:none;stroke:black;stroke-width:1"/>
<polygon points="13.8146339964524,21.429433877872363 12.59735649478266,19.699261779045422 12.71406926875768,19.633630807222325" style="fill:none;stroke:black;stroke-width:1"/>
<polygon points="12.836385351579796,19.58265073934212 13.8146339964524,21.429433877872363 12.71406926875768,19.633630807222325" style="fill:none;stroke:black;stroke-width:1"/>
<polygon points="13.8146339964524,21.429433877872363 12.23129287657059,21.186541369411366 12.172223085819336,21.063873711001555" style="fill:none;stroke:black;stroke-width:1"/>
<polygon points="12.128641091423159,20.932691564493325 13.8146339964524,21.429433877872363 12.172223085819336,21.063873711001555" style="fill:none;stroke:black;stroke-width:1"/>
<polygon points="12.124588242204881,20.366264414592646 13.8146339964524,21.429433877872363 12.098965517241378,20.50862068965517" style="fill:none;stroke:black;stroke-width:1"/>
<polygon points="13.8146339964524,21.429433877872363 12.091461426028484,20.65291951356982 12.098965517241378,20.50862068965517" style="fill:none;stroke:black;stroke-width:1"/>
<polygon points="13.339865306071474,21.662138421974028 13.8146339964524,21.429433877872363 13.46631200926006,21.626336152655227" style="fill:none;stroke:black;stroke-width:1"/>
<polygon points="13.8146339964524,21.429433877872363 13.588708579139116,21.575368588234067 13.46631200926006,21.626336152655227" style="fill:none;stroke:black;stroke-width:1"/>
<polygon points="12.962758446408685,19.546824019353284 13.8146339964524,21.429433877872363 12.836385351579796,19.58265073934212" style="fill:none;stroke:black;stroke-width:1"/>
<polygon points="13.211122178652582,21.68249665840939 13.8146339964524,21.429433877872363 13.339865306071474,21.662138421974028" style="fill:none;stroke:black;stroke-width:1"/>
<polygon points="13.8146339964524,21.429433877872363 13.70544440536025,21.509803939323735 13.588708579139116,21.575368588234067" style="fill:none;stroke:black;stroke-width:1"/>
<polygon points="13.8146339964524,21.429433877872363 13.211122178652582,21.68249665840939 13.081922467980231,21.687397210903594" style="fill:none;stroke:black;stroke-width:1"/>
</svg>
