<?xml version="1.0" encoding="UTF-8" standalone="no"?>
<svg xmlns="http://www.w3.org/2000/svg" version="1.1" width="800" height="800">
<polygon points="19.376752897914784,7.546171130273483 19.19753845771689,5.26100664674933 19.681595642339072,7.509394269680369" style="fill:none;stroke:black;stroke-width:1"/>
<polygon points="17.579750629921342,4.480927561472773 17.403291726317804,4.6119157478427795 17.41623383033243,4.67084036159042" style="fill:none;stroke:black;stroke-width:1"/>
<polygon points="18.39790330447184,5.470184808431746 20.18444236207343,5.48358914057077 20.36060730258072,5.7241533601580326" style="fill:none;stroke:black;stroke-width:1"/>
<polygon points="17.991267727870106,5.088843431568115 7.376269930001364,9.711961968012657 19.75627154672023,5.118024994565173" style="fill:none;stroke:black;stroke-width:1"/>
<polygon points="18.303411744078996,6.292561880661512 18.492758620689656,6.626206896551725 19.019552236272183,4.869940469540811" style="fill:none;stroke:black;stroke-width:1"/>
<polygon points="17.403291726317804,4.6119157478427795 18.492758620689656,6.626206896551725 17.41623383033243,4.67084036159042" style="fill:none;stroke:black;stroke-width:1"/>
<polygon points="18.492758620689656,6.626206896551725 18.303411744078996,6.292561880661512 17.41623383033243,4.67084036159042" style="fill:none;stroke:black;stroke-width:1"/>
<polygon points="19.122735762012265,4.871016168605545 18.356227531105343,6.3060700313929035 19.019552236272183,4.869940469540811" style="fill:none;stroke:black;stroke-width:1"/>
<polygon points="18.356227531105343,6.3060700313929035 18.303411744078996,6.292561880661512 19.019552236272183,4.869940469540811" style="fill:none;stroke:black;stroke-width:1"/>
<polygon points="19.321140747728176,4.929255272806795 18.356227531105343,6.3060700313929035 19.122735762012265,4.871016168605545" style="fill:none;stroke:black;stroke-width:1"/>
<polygon points="19.94677911434037,7.365265604482769 19.413983443175905,5.348793937455479 20.135783327362454,7.0970354768002135" style="fill:none;stroke:black;stroke-width:1"/>
<polygon points="19.413983443175905,5.348793937455479 19.94677911434037,7.365265604482769 19.681595642339072,7.509394269680369" style="fill:none;stroke:black;stroke-width:1"/>
<polygon points="19.19753845771689,5.26100664674933 19.413983443175905,5.348793937455479 19.681595642339072,7.509394269680369" style="fill:none;stroke:black;stroke-width:1"/>
<polygon points="18.380919772396517,4.353194319696243 20.22861039202022,6.856672342528149 20.135783327362454,7.0970354768002135" style="fill:none;stroke:black;stroke-width:1"/>
<polygon points="19.413983443175905,5.348793937455479 18.380919772396517,4.353194319696243 20.135783327362454,7.0970354768002135" style="fill:none;stroke:black;stroke-width:1"/>
<polygon points="17.565915407240777,4.832956681059192 17.579750629921342,4.480927561472773 17.41623383033243,4.67084036159042" style="fill:none;stroke:black;stroke-width:1"/>
<polygon points="17.579750629921342,4.480927561472773 17.565915407240777,4.832956681059192 17.809565441105757,4.345285581071746" style="fill:none;stroke:black;stroke-width:1"/>
<polygon points="18.39790330447184,5.470184808431746 18.190032250437916,5.277160319641534 20.18444236207343,5.48358914057077" style="fill:none;stroke:black;stroke-width:1"/>
<polygon points="19.75627154672023,5.118024994565173 17.76879736152492,4.922183281387179 19.528122875578465,5.001999022840333" style="fill:none;stroke:black;stroke-width:1"/>
<polygon points="17.568667867025386,4.865847418602791 18.356227531105343,6.3060700313929035 19.321140747728176,4.929255272806795" style="fill:none;stroke:black;stroke-width:1"/>
<polygon points="18.356227531105343,6.3060700313929035 17.568667867025386,4.865847418602791 18.303411744078996,6.292561880661512" style="fill:none;stroke:black;stroke-width:1"/>
<polygon points="17.568667867025386,4.865847418602791 19.321140747728176,4.929255272806795 19.528122875578465,5.001999022840333" style="fill:none;stroke:black;stroke-width:1"/>
<polygon points="20.396907707381885,6.017339335773565 18.39790330447184,5.470184808431746 20.36060730258072,5.7241533601580326" style="fill:none;stroke:black;stroke-width:1"/>
<polygon points="20.22861039202022,6.856672342528149 20.396907707381885,6.017339335773565 20.135783327362454,7.0970354768002135" style="fill:none;stroke:black;stroke-width:1"/>
<polygon points="20.396907707381885,6.017339335773565 20.22861039202022,6.856672342528149 20.303683975177957,6.575902005959665" style="fill:none;stroke:black;stroke-width:1"/>
<polygon points="18.606373453153175,6.891962356626958 18.492758620689656,6.626206896551725 17.403291726317804,4.6119157478427795" style="fill:none;stroke:black;stroke-width:1"/>
<polygon points="18.492758620689656,6.626206896551725 18.606373453153175,6.891962356626958 19.019552236272183,4.869940469540811" style="fill:none;stroke:black;stroke-width:1"/>
<polygon points="18.071415488146943,4.2316573633664385 18.64102774466219,4.178379067980788 17.809565441105757,4.345285581071746" style="fill:none;stroke:black;stroke-width:1"/>
<polygon points="18.380919772396517,4.353194319696243 18.543098737934066,4.22670066366432 20.22861039202022,6.856672342528149" style="fill:none;stroke:black;stroke-width:1"/>
<polygon points="20.22861039202022,6.856672342528149 18.543098737934066,4.22670066366432 20.303683975177957,6.575902005959665" style="fill:none;stroke:black;stroke-width:1"/>
<polygon points="18.543098737934066,4.22670066366432 18.071415488146943,4.2316573633664385 20.303683975177957,6.575902005959665" style="fill:none;stroke:black;stroke-width:1"/>
<polygon points="18.071415488146943,4.2316573633664385 18.543098737934066,4.22670066366432 18.64102774466219,4.178379067980788" style="fill:none;stroke:black;stroke-width:1"/>
<polygon points="25.03603973257469,19.65469386262763 19.413983443175905,5.348793937455479 19.19753845771689,5.26100664674933" style="fill:none;stroke:black;stroke-width:1"/>
<polygon points="19.413983443175905,5.348793937455479 25.03603973257469,19.65469386262763 25.060766172862937,19.491266513739337" style="fill:none;stroke:black;stroke-width:1"/>
<polygon points="24.707522553466944,21.250527555611914 24.786490721950784,21.104794608956468 19.19753845771689,5.26100664674933" style="fill:none;stroke:black;stroke-width:1"/>
<polygon points="18.34467006122558,6.176683584511683 17.565915407240777,4.832956681059192 17.41623383033243,4.67084036159042" style="fill:none;stroke:black;stroke-width:1"/>
<polygon points="18.303411744078996,6.292561880661512 18.34467006122558,6.176683584511683 17.41623383033243,4.67084036159042" style="fill:none;stroke:black;stroke-width:1"/>
<polygon points="17.568667867025386,4.865847418602791 18.34467006122558,6.176683584511683 18.303411744078996,6.292561880661512" style="fill:none;stroke:black;stroke-width:1"/>
<polygon points="17.565915407240777,4.832956681059192 17.752622646008337,4.990708797210747 17.809565441105757,4.345285581071746" style="fill:none;stroke:black;stroke-width:1"/>
<polygon points="17.752622646008337,4.990708797210747 18.071415488146943,4.2316573633664385 17.809565441105757,4.345285581071746" style="fill:none;stroke:black;stroke-width:1"/>
<polygon points="18.071415488146943,4.2316573633664385 17.752622646008337,4.990708797210747 18.240522398468524,4.03227916757048" style="fill:none;stroke:black;stroke-width:1"/>
<polygon points="18.190032250437916,5.277160319641534 19.965270531854525,5.322019224551061 20.18444236207343,5.48358914057077" style="fill:none;stroke:black;stroke-width:1"/>
<polygon points="19.965270531854525,5.322019224551061 18.190032250437916,5.277160319641534 17.991267727870106,5.088843431568115" style="fill:none;stroke:black;stroke-width:1"/>
<polygon points="20.18444236207343,5.48358914057077 19.965270531854525,5.322019224551061 19.75627154672023,5.118024994565173" style="fill:none;stroke:black;stroke-width:1"/>
<polygon points="19.965270531854525,5.322019224551061 17.991267727870106,5.088843431568115 19.75627154672023,5.118024994565173" style="fill:none;stroke:black;stroke-width:1"/>
<polygon points="18.471634400223518,5.734794284759246 18.190032250437916,5.277160319641534 18.39790330447184,5.470184808431746" style="fill:none;stroke:black;stroke-width:1"/>
<polygon points="20.396907707381885,6.017339335773565 18.471634400223518,5.734794284759246 18.39790330447184,5.470184808431746" style="fill:none;stroke:black;stroke-width:1"/>
<polygon points="20.32970509741164,6.27804464252227 20.396907707381885,6.017339335773565 20.303683975177957,6.575902005959665" style="fill:none;stroke:black;stroke-width:1"/>
<polygon points="18.071415488146943,4.2316573633664385 20.32970509741164,6.27804464252227 20.303683975177957,6.575902005959665" style="fill:none;stroke:black;stroke-width:1"/>
<polygon points="20.32970509741164,6.27804464252227 18.071415488146943,4.2316573633664385 18.240522398468524,4.03227916757048" style="fill:none;stroke:black;stroke-width:1"/>
<polygon points="18.471634400223518,5.734794284759246 20.32970509741164,6.27804464252227 18.240522398468524,4.03227916757048" style="fill:none;stroke:black;stroke-width:1"/>
<polygon points="20.32970509741164,6.27804464252227 18.471634400223518,5.734794284759246 20.396907707381885,6.017339335773565" style="fill:none;stroke:black;stroke-width:1"/>
<polygon points="10.051335809747611,20.337118073775496 18.652577461689578,4.241166869462863 17.809565441105757,4.345285581071746" style="fill:none;stroke:black;stroke-width:1"/>
<polygon points="12.200671978948682,25.666757979524988 18.652577461689578,4.241166869462863 12.052101272311635,25.70629562881639" style="fill:none;stroke:black;stroke-width:1"/>
<polygon points="18.652577461689578,4.241166869462863 17.579750629921342,4.480927561472773 17.809565441105757,4.345285581071746" style="fill:none;stroke:black;stroke-width:1"/>
<polygon points="25.03603973257469,19.65469386262763 24.43448275862069,18.34965517241379 25.060766172862937,19.491266513739337" style="fill:none;stroke:black;stroke-width:1"/>
<polygon points="24.88151362139442,18.55073582305622 24.594204002419954,27.68318241423696 18.380919772396517,4.353194319696243" style="fill:none;stroke:black;stroke-width:1"/>
<polygon points="25.101808447625803,18.987236718465294 18.380919772396517,4.353194319696243 19.413983443175905,5.348793937455479" style="fill:none;stroke:black;stroke-width:1"/>
<polygon points="25.101808447625803,18.987236718465294 25.06077853287825,18.825160267514747 18.380919772396517,4.353194319696243" style="fill:none;stroke:black;stroke-width:1"/>
<polygon points="25.10601061193676,19.158470721094673 25.101808447625803,18.987236718465294 19.413983443175905,5.348793937455479" style="fill:none;stroke:black;stroke-width:1"/>
<polygon points="19.105079945294015,7.466645206703157 18.970453899881104,5.0892103623405145 19.376752897914784,7.546171130273483" style="fill:none;stroke:black;stroke-width:1"/>
<polygon points="18.970453899881104,5.0892103623405145 19.19753845771689,5.26100664674933 19.376752897914784,7.546171130273483" style="fill:none;stroke:black;stroke-width:1"/>
<polygon points="18.34467006122558,6.176683584511683 18.389900322655155,6.040175813831668 17.565915407240777,4.832956681059192" style="fill:none;stroke:black;stroke-width:1"/>
<polygon points="18.389900322655155,6.040175813831668 17.752622646008337,4.990708797210747 17.565915407240777,4.832956681059192" style="fill:none;stroke:black;stroke-width:1"/>
<polygon points="7.446289629743765,9.558393302537148 7.376269930001364,9.711961968012657 17.991267727870106,5.088843431568115" style="fill:none;stroke:black;stroke-width:1"/>
<polygon points="7.515892843313504,9.405399001682905 7.446289629743765,9.558393302537148 17.991267727870106,5.088843431568115" style="fill:none;stroke:black;stroke-width:1"/>
<polygon points="7.653758322493204,9.101022597545137 7.585056698350132,9.252951341376656 17.991267727870106,5.088843431568115" style="fill:none;stroke:black;stroke-width:1"/>
<polygon points="7.585056698350132,9.252951341376656 7.515892843313504,9.405399001682905 17.991267727870106,5.088843431568115" style="fill:none;stroke:black;stroke-width:1"/>
<polygon points="18.543098737934066,4.22670066366432 11.724686706653632,4.109982698962536 18.64102774466219,4.178379067980788" style="fill:none;stroke:black;stroke-width:1"/>
<polygon points="7.215130970172421,6.971487761890289 11.724686706653632,4.109982698962536 18.543098737934066,4.22670066366432" style="fill:none;stroke:black;stroke-width:1"/>
<polygon points="18.970453899881104,5.0892103623405145 24.158004573595342,21.5816079186276 19.19753845771689,5.26100664674933" style="fill:none;stroke:black;stroke-width:1"/>
<polygon points="18.717497020800646,4.5620040169524865 18.810831925136316,4.8109817695562125 18.907278832230592,7.2973400314279315" style="fill:none;stroke:black;stroke-width:1"/>
<polygon points="18.810831925136316,4.8109817695562125 19.105079945294015,7.466645206703157 18.907278832230592,7.2973400314279315" style="fill:none;stroke:black;stroke-width:1"/>
<polygon points="18.647887548818954,4.337082310303975 18.606373453153175,6.891962356626958 17.403291726317804,4.6119157478427795" style="fill:none;stroke:black;stroke-width:1"/>
<polygon points="17.579750629921342,4.480927561472773 18.647887548818954,4.337082310303975 17.403291726317804,4.6119157478427795" style="fill:none;stroke:black;stroke-width:1"/>
<polygon points="25.06077853287825,18.825160267514747 24.98614088935208,18.677940255291176 18.380919772396517,4.353194319696243" style="fill:none;stroke:black;stroke-width:1"/>
<polygon points="24.98614088935208,18.677940255291176 24.88151362139442,18.55073582305622 18.380919772396517,4.353194319696243" style="fill:none;stroke:black;stroke-width:1"/>
<polygon points="24.98614088935208,18.677940255291176 25.10601061193676,19.158470721094673 24.88151362139442,18.55073582305622" style="fill:none;stroke:black;stroke-width:1"/>
<polygon points="25.101808447625803,18.987236718465294 24.98614088935208,18.677940255291176 25.06077853287825,18.825160267514747" style="fill:none;stroke:black;stroke-width:1"/>
<polygon points="24.98614088935208,18.677940255291176 25.101808447625803,18.987236718465294 25.10601061193676,19.158470721094673" style="fill:none;stroke:black;stroke-width:1"/>
<polygon points="24.88151362139442,18.55073582305622 24.7505442741379,18.4485095557359 24.594204002419954,27.68318241423696" style="fill:none;stroke:black;stroke-width:1"/>
<polygon points="24.7505442741379,18.4485095557359 24.43448275862069,18.34965517241379 24.596880392715185,18.37622403825626" style="fill:none;stroke:black;stroke-width:1"/>
<polygon points="24.43448275862069,18.34965517241379 24.7505442741379,18.4485095557359 25.060766172862937,19.491266513739337" style="fill:none;stroke:black;stroke-width:1"/>
<polygon points="25.084361973810978,19.326032490133997 19.413983443175905,5.348793937455479 25.060766172862937,19.491266513739337" style="fill:none;stroke:black;stroke-width:1"/>
<polygon points="25.084361973810978,19.326032490133997 25.10601061193676,19.158470721094673 19.413983443175905,5.348793937455479" style="fill:none;stroke:black;stroke-width:1"/>
<polygon points="25.10601061193676,19.158470721094673 25.084361973810978,19.326032490133997 24.88151362139442,18.55073582305622" style="fill:none;stroke:black;stroke-width:1"/>
<polygon points="24.7505442741379,18.4485095557359 25.084361973810978,19.326032490133997 25.060766172862937,19.491266513739337" style="fill:none;stroke:black;stroke-width:1"/>
<polygon points="25.084361973810978,19.326032490133997 24.7505442741379,18.4485095557359 24.88151362139442,18.55073582305622" style="fill:none;stroke:black;stroke-width:1"/>
<polygon points="18.471634400223518,5.734794284759246 9.15924417579451,8.762789125554145 18.190032250437916,5.277160319641534" style="fill:none;stroke:black;stroke-width:1"/>
<polygon points="8.883997365930924,10.056083537246655 9.15924417579451,8.762789125554145 9.219935912466429,8.92705769984105" style="fill:none;stroke:black;stroke-width:1"/>
<polygon points="18.435130584084725,5.903668043151653 18.471634400223518,5.734794284759246 18.240522398468524,4.03227916757048" style="fill:none;stroke:black;stroke-width:1"/>
<polygon points="17.752622646008337,4.990708797210747 18.435130584084725,5.903668043151653 18.240522398468524,4.03227916757048" style="fill:none;stroke:black;stroke-width:1"/>
<polygon points="18.435130584084725,5.903668043151653 9.15924417579451,8.762789125554145 18.471634400223518,5.734794284759246" style="fill:none;stroke:black;stroke-width:1"/>
<polygon points="9.15924417579451,8.762789125554145 18.435130584084725,5.903668043151653 9.219935912466429,8.92705769984105" style="fill:none;stroke:black;stroke-width:1"/>
<polygon points="18.389900322655155,6.040175813831668 18.435130584084725,5.903668043151653 17.752622646008337,4.990708797210747" style="fill:none;stroke:black;stroke-width:1"/>
<polygon points="8.103670728273494,11.479005775970782 7.446289629743765,9.558393302537148 7.515892843313504,9.405399001682905" style="fill:none;stroke:black;stroke-width:1"/>
<polygon points="7.721974843382274,8.949585046115073 7.653758322493204,9.101022597545137 17.991267727870106,5.088843431568115" style="fill:none;stroke:black;stroke-width:1"/>
<polygon points="18.190032250437916,5.277160319641534 8.114823269238013,8.4242337122902 17.991267727870106,5.088843431568115" style="fill:none;stroke:black;stroke-width:1"/>
<polygon points="8.269442383657802,8.361454974049279 8.114823269238013,8.4242337122902 18.190032250437916,5.277160319641534" style="fill:none;stroke:black;stroke-width:1"/>
<polygon points="16.744874465948577,8.81810636261618 11.596084862335935,10.376305415477077 18.543098737934066,4.22670066366432" style="fill:none;stroke:black;stroke-width:1"/>
<polygon points="18.652577461689578,4.241166869462863 11.903035036764278,25.74629861072802 12.052101272311635,25.70629562881639" style="fill:none;stroke:black;stroke-width:1"/>
<polygon points="23.426532838119183,21.247957652114167 18.970453899881104,5.0892103623405145 19.105079945294015,7.466645206703157" style="fill:none;stroke:black;stroke-width:1"/>
<polygon points="18.810831925136316,4.8109817695562125 23.426532838119183,21.247957652114167 19.105079945294015,7.466645206703157" style="fill:none;stroke:black;stroke-width:1"/>
<polygon points="18.647887548818954,4.337082310303975 18.758479788364017,7.118703113420369 18.606373453153175,6.891962356626958" style="fill:none;stroke:black;stroke-width:1"/>
<polygon points="18.758479788364017,7.118703113420369 18.647887548818954,4.337082310303975 18.717497020800646,4.5620040169524865" style="fill:none;stroke:black;stroke-width:1"/>
<polygon points="18.758479788364017,7.118703113420369 18.717497020800646,4.5620040169524865 18.907278832230592,7.2973400314279315" style="fill:none;stroke:black;stroke-width:1"/>
<polygon points="18.758479788364017,7.118703113420369 18.907278832230592,7.2973400314279315 19.019552236272183,4.869940469540811" style="fill:none;stroke:black;stroke-width:1"/>
<polygon points="18.606373453153175,6.891962356626958 18.758479788364017,7.118703113420369 19.019552236272183,4.869940469540811" style="fill:none;stroke:black;stroke-width:1"/>
<polygon points="24.786490721950784,21.104794608956468 24.833514181911575,20.940822378264222 19.19753845771689,5.26100664674933" style="fill:none;stroke:black;stroke-width:1"/>
<polygon points="24.833514181911575,20.940822378264222 24.85882132043168,20.780130727564387 19.19753845771689,5.26100664674933" style="fill:none;stroke:black;stroke-width:1"/>
<polygon points="24.833514181911575,20.940822378264222 24.786490721950784,21.104794608956468 23.555200086973745,19.145389328519972" style="fill:none;stroke:black;stroke-width:1"/>
<polygon points="24.909428953944644,20.458764805019158 24.934732770701128,20.298081843746544 19.19753845771689,5.26100664674933" style="fill:none;stroke:black;stroke-width:1"/>
<polygon points="24.909428953944644,20.458764805019158 23.8148211723922,18.556870825550366 24.934732770701128,20.298081843746544" style="fill:none;stroke:black;stroke-width:1"/>
<polygon points="25.010644220970565,19.8160329599287 25.03603973257469,19.65469386262763 19.19753845771689,5.26100664674933" style="fill:none;stroke:black;stroke-width:1"/>
<polygon points="24.985340404214085,19.976715921201315 25.010644220970565,19.8160329599287 19.19753845771689,5.26100664674933" style="fill:none;stroke:black;stroke-width:1"/>
<polygon points="25.010644220970565,19.8160329599287 24.43448275862069,18.34965517241379 25.03603973257469,19.65469386262763" style="fill:none;stroke:black;stroke-width:1"/>
<polygon points="24.934732770701128,20.298081843746544 24.96003658745761,20.13739888247393 19.19753845771689,5.26100664674933" style="fill:none;stroke:black;stroke-width:1"/>
<polygon points="24.96003658745761,20.13739888247393 24.985340404214085,19.976715921201315 19.19753845771689,5.26100664674933" style="fill:none;stroke:black;stroke-width:1"/>
<polygon points="24.43448275862069,18.34965517241379 4.910461538695818,25.005725931068113 24.596880392715185,18.37622403825626" style="fill:none;stroke:black;stroke-width:1"/>
<polygon points="24.786490721950784,21.104794608956468 23.529896270217264,19.306072289792592 23.555200086973745,19.145389328519972" style="fill:none;stroke:black;stroke-width:1"/>
<polygon points="24.707522553466944,21.250527555611914 23.529896270217264,19.306072289792592 24.786490721950784,21.104794608956468" style="fill:none;stroke:black;stroke-width:1"/>
<polygon points="24.47091244678897,21.4733838801648 23.45398481994782,19.788121173610435 23.4792886367043,19.627438212337818" style="fill:none;stroke:black;stroke-width:1"/>
<polygon points="11.288356930546804,24.447830367662505 18.810831925136316,4.8109817695562125 18.717497020800646,4.5620040169524865" style="fill:none;stroke:black;stroke-width:1"/>
<polygon points="11.43692763718385,24.408292718371097 11.288356930546804,24.447830367662505 18.717497020800646,4.5620040169524865" style="fill:none;stroke:black;stroke-width:1"/>
<polygon points="26.76855507624233,17.316764470966053 28.2286054115528,19.881255935781518 18.652577461689578,4.241166869462863" style="fill:none;stroke:black;stroke-width:1"/>
<polygon points="18.543098737934066,4.22670066366432 28.45423121136864,14.973652620405947 24.094958144388023,15.802804797578155" style="fill:none;stroke:black;stroke-width:1"/>
<polygon points="28.45423121136864,14.973652620405947 18.543098737934066,4.22670066366432 18.380919772396517,4.353194319696243" style="fill:none;stroke:black;stroke-width:1"/>
<polygon points="9.013216446488217,9.75772412097003 9.217593150539386,9.277949927493395 9.082763340374278,9.60458115471494" style="fill:none;stroke:black;stroke-width:1"/>
<polygon points="18.389900322655155,6.040175813831668 9.013216446488217,9.75772412097003 9.082763340374278,9.60458115471494" style="fill:none;stroke:black;stroke-width:1"/>
<polygon points="18.435130584084725,5.903668043151653 9.240027942403849,9.101208854685442 9.219935912466429,8.92705769984105" style="fill:none;stroke:black;stroke-width:1"/>
<polygon points="9.240027942403849,9.101208854685442 18.435130584084725,5.903668043151653 9.217593150539386,9.277949927493395" style="fill:none;stroke:black;stroke-width:1"/>
<polygon points="9.013216446488217,9.75772412097003 9.240027942403849,9.101208854685442 9.217593150539386,9.277949927493395" style="fill:none;stroke:black;stroke-width:1"/>
<polygon points="9.240027942403849,9.101208854685442 8.883997365930924,10.056083537246655 9.219935912466429,8.92705769984105" style="fill:none;stroke:black;stroke-width:1"/>
<polygon points="9.154211229661778,9.447410213770011 18.435130584084725,5.903668043151653 18.389900322655155,6.040175813831668" style="fill:none;stroke:black;stroke-width:1"/>
<polygon points="18.435130584084725,5.903668043151653 9.154211229661778,9.447410213770011 9.217593150539386,9.277949927493395" style="fill:none;stroke:black;stroke-width:1"/>
<polygon points="9.154211229661778,9.447410213770011 18.389900322655155,6.040175813831668 9.082763340374278,9.60458115471494" style="fill:none;stroke:black;stroke-width:1"/>
<polygon points="9.217593150539386,9.277949927493395 9.154211229661778,9.447410213770011 9.082763340374278,9.60458115471494" style="fill:none;stroke:black;stroke-width:1"/>
<polygon points="7.585056698350132,9.252951341376656 8.243481326819037,11.38013557101604 7.515892843313504,9.405399001682905" style="fill:none;stroke:black;stroke-width:1"/>
<polygon points="8.243481326819037,11.38013557101604 8.103670728273494,11.479005775970782 7.515892843313504,9.405399001682905" style="fill:none;stroke:black;stroke-width:1"/>
<polygon points="8.243481326819037,11.38013557101604 7.585056698350132,9.252951341376656 7.653758322493204,9.101022597545137" style="fill:none;stroke:black;stroke-width:1"/>
<polygon points="7.446289629743765,9.558393302537148 7.94325573198803,11.545334550450056 7.376269930001364,9.711961968012657" style="fill:none;stroke:black;stroke-width:1"/>
<polygon points="8.103670728273494,11.479005775970782 7.94325573198803,11.545334550450056 7.446289629743765,9.558393302537148" style="fill:none;stroke:black;stroke-width:1"/>
<polygon points="7.94325573198803,11.545334550450056 8.103670728273494,11.479005775970782 7.769587332992044,11.576605764930475" style="fill:none;stroke:black;stroke-width:1"/>
<polygon points="7.868415090440251,8.647597590841743 7.789683388656891,8.798610963013196 17.991267727870106,5.088843431568115" style="fill:none;stroke:black;stroke-width:1"/>
<polygon points="7.789683388656891,8.798610963013196 7.721974843382274,8.949585046115073 17.991267727870106,5.088843431568115" style="fill:none;stroke:black;stroke-width:1"/>
<polygon points="7.978886582193448,8.520506662604022 7.868415090440251,8.647597590841743 17.991267727870106,5.088843431568115" style="fill:none;stroke:black;stroke-width:1"/>
<polygon points="8.114823269238013,8.4242337122902 7.978886582193448,8.520506662604022 17.991267727870106,5.088843431568115" style="fill:none;stroke:black;stroke-width:1"/>
<polygon points="7.2350725614403615,10.020933289120546 17.76879736152492,4.922183281387179 19.75627154672023,5.118024994565173" style="fill:none;stroke:black;stroke-width:1"/>
<polygon points="7.2350725614403615,10.020933289120546 7.163940637342655,10.176391392899461 17.76879736152492,4.922183281387179" style="fill:none;stroke:black;stroke-width:1"/>
<polygon points="6.955123057430496,11.010538294726842 17.568667867025386,4.865847418602791 19.528122875578465,5.001999022840333" style="fill:none;stroke:black;stroke-width:1"/>
<polygon points="7.249192022967929,11.43974826245498 18.34467006122558,6.176683584511683 17.568667867025386,4.865847418602791" style="fill:none;stroke:black;stroke-width:1"/>
<polygon points="7.115210803888562,11.320311034685792 7.249192022967929,11.43974826245498 17.568667867025386,4.865847418602791" style="fill:none;stroke:black;stroke-width:1"/>
<polygon points="21.521748011619863,11.149439129813477 18.543098737934066,4.22670066366432 24.094958144388023,15.802804797578155" style="fill:none;stroke:black;stroke-width:1"/>
<polygon points="21.521748011619863,11.149439129813477 16.744874465948577,8.81810636261618 18.543098737934066,4.22670066366432" style="fill:none;stroke:black;stroke-width:1"/>
<polygon points="4.262385853156227,11.41523392586087 7.215130970172421,6.971487761890289 18.543098737934066,4.22670066366432" style="fill:none;stroke:black;stroke-width:1"/>
<polygon points="4.400142102213043,15.338604356560928 4.262385853156227,11.41523392586087 18.543098737934066,4.22670066366432" style="fill:none;stroke:black;stroke-width:1"/>
<polygon points="11.596084862335935,10.376305415477077 8.89937100196905,14.928200928733071 18.543098737934066,4.22670066366432" style="fill:none;stroke:black;stroke-width:1"/>
<polygon points="8.89937100196905,14.928200928733071 4.400142102213043,15.338604356560928 18.543098737934066,4.22670066366432" style="fill:none;stroke:black;stroke-width:1"/>
<polygon points="18.64102774466219,4.178379067980788 8.89657355230135,26.670109462045204 17.809565441105757,4.345285581071746" style="fill:none;stroke:black;stroke-width:1"/>
<polygon points="11.60320699487673,25.82743116904848 11.753418858058101,25.786701149732508 18.652577461689578,4.241166869462863" style="fill:none;stroke:black;stroke-width:1"/>
<polygon points="11.753418858058101,25.786701149732508 11.903035036764278,25.74629861072802 18.652577461689578,4.241166869462863" style="fill:none;stroke:black;stroke-width:1"/>
<polygon points="11.452363100203808,25.868411427334397 11.60320699487673,25.82743116904848 18.652577461689578,4.241166869462863" style="fill:none;stroke:black;stroke-width:1"/>
<polygon points="24.85882132043168,20.780130727564387 24.88412513718816,20.61944776629177 19.19753845771689,5.26100664674933" style="fill:none;stroke:black;stroke-width:1"/>
<polygon points="24.88412513718816,20.61944776629177 24.909428953944644,20.458764805019158 19.19753845771689,5.26100664674933" style="fill:none;stroke:black;stroke-width:1"/>
<polygon points="23.627285500285776,18.82313515075201 24.88412513718816,20.61944776629177 24.85882132043168,20.780130727564387" style="fill:none;stroke:black;stroke-width:1"/>
<polygon points="23.8148211723922,18.556870825550366 23.94621510744471,18.45911354854737 24.934732770701128,20.298081843746544" style="fill:none;stroke:black;stroke-width:1"/>
<polygon points="23.94621510744471,18.45911354854737 24.96003658745761,20.13739888247393 24.934732770701128,20.298081843746544" style="fill:none;stroke:black;stroke-width:1"/>
<polygon points="1.9162178741838582,14.749893204643703 23.94621510744471,18.45911354854737 3.440545326923994,9.534813297271118" style="fill:none;stroke:black;stroke-width:1"/>
<polygon points="23.94621510744471,18.45911354854737 23.8148211723922,18.556870825550366 3.440545326923994,9.534813297271118" style="fill:none;stroke:black;stroke-width:1"/>
<polygon points="23.580546854894987,18.98458988020332 24.833514181911575,20.940822378264222 23.555200086973745,19.145389328519972" style="fill:none;stroke:black;stroke-width:1"/>
<polygon points="24.833514181911575,20.940822378264222 23.580546854894987,18.98458988020332 24.85882132043168,20.780130727564387" style="fill:none;stroke:black;stroke-width:1"/>
<polygon points="23.580546854894987,18.98458988020332 23.627285500285776,18.82313515075201 24.85882132043168,20.780130727564387" style="fill:none;stroke:black;stroke-width:1"/>
<polygon points="2.4271750316824323,20.25433281779041 4.910461538695818,25.005725931068113 24.43448275862069,18.34965517241379" style="fill:none;stroke:black;stroke-width:1"/>
<polygon points="14.048535869370747,30.278734091487266 24.7505442741379,18.4485095557359 24.596880392715185,18.37622403825626" style="fill:none;stroke:black;stroke-width:1"/>
<polygon points="11.302857777215127,2.7050949216876754 23.580546854894987,18.98458988020332 10.436740653286563,25.75087452151614" style="fill:none;stroke:black;stroke-width:1"/>
<polygon points="23.428681003191343,19.948804134883048 24.158004573595342,21.5816079186276 23.40337718643486,20.10948709615566" style="fill:none;stroke:black;stroke-width:1"/>
<polygon points="23.504592453460784,19.466755251065205 23.529896270217264,19.306072289792592 24.707522553466944,21.250527555611914" style="fill:none;stroke:black;stroke-width:1"/>
<polygon points="24.47091244678897,21.4733838801648 24.321850686524254,21.543561399738415 23.45398481994782,19.788121173610435" style="fill:none;stroke:black;stroke-width:1"/>
<polygon points="23.428681003191343,19.948804134883048 24.321850686524254,21.543561399738415 24.158004573595342,21.5816079186276" style="fill:none;stroke:black;stroke-width:1"/>
<polygon points="24.321850686524254,21.543561399738415 23.428681003191343,19.948804134883048 23.45398481994782,19.788121173610435" style="fill:none;stroke:black;stroke-width:1"/>
<polygon points="24.158004573595342,21.5816079186276 24.321850686524254,21.543561399738415 19.19753845771689,5.26100664674933" style="fill:none;stroke:black;stroke-width:1"/>
<polygon points="24.321850686524254,21.543561399738415 24.47091244678897,21.4733838801648 19.19753845771689,5.26100664674933" style="fill:none;stroke:black;stroke-width:1"/>
<polygon points="18.647887548818954,4.337082310303975 12.652180380699498,24.1525048560276 18.717497020800646,4.5620040169524865" style="fill:none;stroke:black;stroke-width:1"/>
<polygon points="18.810831925136316,4.8109817695562125 10.844962615909608,24.563109042389218 23.329659433594443,20.599487565950366" style="fill:none;stroke:black;stroke-width:1"/>
<polygon points="14.42840667214861,23.275737192385478 18.652577461689578,4.241166869462863 10.051335809747611,20.337118073775496" style="fill:none;stroke:black;stroke-width:1"/>
<polygon points="14.42840667214861,23.275737192385478 19.778742989820906,22.430410618764988 18.652577461689578,4.241166869462863" style="fill:none;stroke:black;stroke-width:1"/>
<polygon points="23.047812758545735,18.305206068593076 26.76855507624233,17.316764470966053 18.652577461689578,4.241166869462863" style="fill:none;stroke:black;stroke-width:1"/>
<polygon points="19.778742989820906,22.430410618764988 23.047812758545735,18.305206068593076 18.652577461689578,4.241166869462863" style="fill:none;stroke:black;stroke-width:1"/>
<polygon points="28.2286054115528,19.881255935781518 25.611979245052964,24.55829865126013 18.652577461689578,4.241166869462863" style="fill:none;stroke:black;stroke-width:1"/>
<polygon points="25.611979245052964,24.55829865126013 11.452363100203808,25.868411427334397 18.652577461689578,4.241166869462863" style="fill:none;stroke:black;stroke-width:1"/>
<polygon points="24.102400176395964,6.185823587762435 27.477555978884954,10.29589565211944 18.380919772396517,4.353194319696243" style="fill:none;stroke:black;stroke-width:1"/>
<polygon points="27.477555978884954,10.29589565211944 28.45423121136864,14.973652620405947 18.380919772396517,4.353194319696243" style="fill:none;stroke:black;stroke-width:1"/>
<polygon points="24.594204002419954,27.68318241423696 28.16987205153236,23.80909022748351 18.380919772396517,4.353194319696243" style="fill:none;stroke:black;stroke-width:1"/>
<polygon points="28.16987205153236,23.80909022748351 30.099511224675535,18.785013899280848 18.380919772396517,4.353194319696243" style="fill:none;stroke:black;stroke-width:1"/>
<polygon points="19.29916637884766,3.784558793030191 24.102400176395964,6.185823587762435 18.380919772396517,4.353194319696243" style="fill:none;stroke:black;stroke-width:1"/>
<polygon points="30.099511224675535,18.785013899280848 19.29916637884766,3.784558793030191 18.380919772396517,4.353194319696243" style="fill:none;stroke:black;stroke-width:1"/>
<polygon points="8.777566938050526,8.400846369200206 8.607596822958504,8.347085070382178 18.190032250437916,5.277160319641534" style="fill:none;stroke:black;stroke-width:1"/>
<polygon points="9.15924417579451,8.762789125554145 9.063059475857388,8.61608036832626 18.190032250437916,5.277160319641534" style="fill:none;stroke:black;stroke-width:1"/>
<polygon points="9.063059475857388,8.61608036832626 9.15924417579451,8.762789125554145 8.883997365930924,10.056083537246655" style="fill:none;stroke:black;stroke-width:1"/>
<polygon points="9.240027942403849,9.101208854685442 8.9466244270876,9.90787524149583 8.883997365930924,10.056083537246655" style="fill:none;stroke:black;stroke-width:1"/>
<polygon points="8.9466244270876,9.90787524149583 9.240027942403849,9.101208854685442 9.013216446488217,9.75772412097003" style="fill:none;stroke:black;stroke-width:1"/>
<polygon points="8.9466244270876,9.90787524149583 9.013216446488217,9.75772412097003 18.389900322655155,6.040175813831668" style="fill:none;stroke:black;stroke-width:1"/>
<polygon points="8.9466244270876,9.90787524149583 18.389900322655155,6.040175813831668 18.34467006122558,6.176683584511683" style="fill:none;stroke:black;stroke-width:1"/>
<polygon points="8.883997365930924,10.056083537246655 8.9466244270876,9.90787524149583 18.34467006122558,6.176683584511683" style="fill:none;stroke:black;stroke-width:1"/>
<polygon points="7.721974843382274,8.949585046115073 8.355336532595247,11.251240065109208 7.653758322493204,9.101022597545137" style="fill:none;stroke:black;stroke-width:1"/>
<polygon points="8.355336532595247,11.251240065109208 8.243481326819037,11.38013557101604 7.653758322493204,9.101022597545137" style="fill:none;stroke:black;stroke-width:1"/>
<polygon points="7.2350725614403615,10.020933289120546 7.305856616446747,9.8661327221827 7.769587332992044,11.576605764930475" style="fill:none;stroke:black;stroke-width:1"/>
<polygon points="7.94325573198803,11.545334550450056 7.305856616446747,9.8661327221827 7.376269930001364,9.711961968012657" style="fill:none;stroke:black;stroke-width:1"/>
<polygon points="7.305856616446747,9.8661327221827 7.94325573198803,11.545334550450056 7.769587332992044,11.576605764930475" style="fill:none;stroke:black;stroke-width:1"/>
<polygon points="7.376269930001364,9.711961968012657 7.305856616446747,9.8661327221827 19.75627154672023,5.118024994565173" style="fill:none;stroke:black;stroke-width:1"/>
<polygon points="7.305856616446747,9.8661327221827 7.2350725614403615,10.020933289120546 19.75627154672023,5.118024994565173" style="fill:none;stroke:black;stroke-width:1"/>
<polygon points="7.0160277860917875,11.174808677443059 7.115210803888562,11.320311034685792 17.568667867025386,4.865847418602791" style="fill:none;stroke:black;stroke-width:1"/>
<polygon points="6.955123057430496,11.010538294726842 7.0160277860917875,11.174808677443059 17.568667867025386,4.865847418602791" style="fill:none;stroke:black;stroke-width:1"/>
<polygon points="7.0160277860917875,11.174808677443059 6.955123057430496,11.010538294726842 7.115210803888562,11.320311034685792" style="fill:none;stroke:black;stroke-width:1"/>
<polygon points="7.249192022967929,11.43974826245498 7.414482758620689,11.525862068965516 18.34467006122558,6.176683584511683" style="fill:none;stroke:black;stroke-width:1"/>
<polygon points="7.414482758620689,11.525862068965516 8.883997365930924,10.056083537246655 18.34467006122558,6.176683584511683" style="fill:none;stroke:black;stroke-width:1"/>
<polygon points="7.414482758620689,11.525862068965516 7.249192022967929,11.43974826245498 6.957662439508697,10.65960184270979" style="fill:none;stroke:black;stroke-width:1"/>
<polygon points="7.414482758620689,11.525862068965516 8.355336532595247,11.251240065109208 8.883997365930924,10.056083537246655" style="fill:none;stroke:black;stroke-width:1"/>
<polygon points="8.355336532595247,11.251240065109208 7.414482758620689,11.525862068965516 8.243481326819037,11.38013557101604" style="fill:none;stroke:black;stroke-width:1"/>
<polygon points="6.955123057430496,11.010538294726842 6.9351625194318025,10.836232379902361 7.115210803888562,11.320311034685792" style="fill:none;stroke:black;stroke-width:1"/>
<polygon points="6.9351625194318025,10.836232379902361 7.249192022967929,11.43974826245498 7.115210803888562,11.320311034685792" style="fill:none;stroke:black;stroke-width:1"/>
<polygon points="7.249192022967929,11.43974826245498 6.9351625194318025,10.836232379902361 6.957662439508697,10.65960184270979" style="fill:none;stroke:black;stroke-width:1"/>
<polygon points="6.9351625194318025,10.836232379902361 6.955123057430496,11.010538294726842 19.528122875578465,5.001999022840333" style="fill:none;stroke:black;stroke-width:1"/>
<polygon points="17.76879736152492,4.922183281387179 6.9351625194318025,10.836232379902361 19.528122875578465,5.001999022840333" style="fill:none;stroke:black;stroke-width:1"/>
<polygon points="6.957662439508697,10.65960184270979 6.9351625194318025,10.836232379902361 17.76879736152492,4.922183281387179" style="fill:none;stroke:black;stroke-width:1"/>
<polygon points="18.82690365233522,21.364882805945346 13.492698514824657,21.397698408776634 18.64102774466219,4.178379067980788" style="fill:none;stroke:black;stroke-width:1"/>
<polygon points="21.090057767636733,12.96430050731921 13.904949844607032,28.70288868273539 18.64102774466219,4.178379067980788" style="fill:none;stroke:black;stroke-width:1"/>
<polygon points="13.904949844607032,28.70288868273539 8.89657355230135,26.670109462045204 18.64102774466219,4.178379067980788" style="fill:none;stroke:black;stroke-width:1"/>
<polygon points="23.661492134793594,21.477995084905242 23.81490076761819,21.55067274394324 18.970453899881104,5.0892103623405145" style="fill:none;stroke:black;stroke-width:1"/>
<polygon points="23.426532838119183,21.247957652114167 23.530820309916376,21.375435859320206 18.970453899881104,5.0892103623405145" style="fill:none;stroke:black;stroke-width:1"/>
<polygon points="23.530820309916376,21.375435859320206 23.661492134793594,21.477995084905242 18.970453899881104,5.0892103623405145" style="fill:none;stroke:black;stroke-width:1"/>
<polygon points="23.661492134793594,21.477995084905242 23.530820309916376,21.375435859320206 23.329659433594443,20.599487565950366" style="fill:none;stroke:black;stroke-width:1"/>
<polygon points="23.307936146702946,20.7669609611593 18.810831925136316,4.8109817695562125 23.329659433594443,20.599487565950366" style="fill:none;stroke:black;stroke-width:1"/>
<polygon points="23.307936146702946,20.7669609611593 23.311671693509915,20.938291188878832 18.810831925136316,4.8109817695562125" style="fill:none;stroke:black;stroke-width:1"/>
<polygon points="23.311671693509915,20.938291188878832 23.307936146702946,20.7669609611593 23.426532838119183,21.247957652114167" style="fill:none;stroke:black;stroke-width:1"/>
<polygon points="23.530820309916376,21.375435859320206 23.307936146702946,20.7669609611593 23.329659433594443,20.599487565950366" style="fill:none;stroke:black;stroke-width:1"/>
<polygon points="23.307936146702946,20.7669609611593 23.530820309916376,21.375435859320206 23.426532838119183,21.247957652114167" style="fill:none;stroke:black;stroke-width:1"/>
<polygon points="23.352277264534653,21.100523048213173 23.426532838119183,21.247957652114167 18.810831925136316,4.8109817695562125" style="fill:none;stroke:black;stroke-width:1"/>
<polygon points="23.311671693509915,20.938291188878832 23.352277264534653,21.100523048213173 18.810831925136316,4.8109817695562125" style="fill:none;stroke:black;stroke-width:1"/>
<polygon points="23.352277264534653,21.100523048213173 23.311671693509915,20.938291188878832 23.426532838119183,21.247957652114167" style="fill:none;stroke:black;stroke-width:1"/>
<polygon points="23.70694412139537,18.679386746076464 24.88412513718816,20.61944776629177 23.627285500285776,18.82313515075201" style="fill:none;stroke:black;stroke-width:1"/>
<polygon points="23.8148211723922,18.556870825550366 23.70694412139537,18.679386746076464 3.440545326923994,9.534813297271118" style="fill:none;stroke:black;stroke-width:1"/>
<polygon points="24.909428953944644,20.458764805019158 23.70694412139537,18.679386746076464 23.8148211723922,18.556870825550366" style="fill:none;stroke:black;stroke-width:1"/>
<polygon points="24.88412513718816,20.61944776629177 23.70694412139537,18.679386746076464 24.909428953944644,20.458764805019158" style="fill:none;stroke:black;stroke-width:1"/>
<polygon points="24.96003658745761,20.13739888247393 24.096424380721338,18.389641074441165 24.985340404214085,19.976715921201315" style="fill:none;stroke:black;stroke-width:1"/>
<polygon points="23.94621510744471,18.45911354854737 24.096424380721338,18.389641074441165 24.96003658745761,20.13739888247393" style="fill:none;stroke:black;stroke-width:1"/>
<polygon points="2.4271750316824323,20.25433281779041 24.096424380721338,18.389641074441165 1.9162178741838582,14.749893204643703" style="fill:none;stroke:black;stroke-width:1"/>
<polygon points="24.096424380721338,18.389641074441165 23.94621510744471,18.45911354854737 1.9162178741838582,14.749893204643703" style="fill:none;stroke:black;stroke-width:1"/>
<polygon points="4.910461538695818,25.005725931068113 8.927280619053755,28.490204671992206 24.596880392715185,18.37622403825626" style="fill:none;stroke:black;stroke-width:1"/>
<polygon points="8.927280619053755,28.490204671992206 14.048535869370747,30.278734091487266 24.596880392715185,18.37622403825626" style="fill:none;stroke:black;stroke-width:1"/>
<polygon points="24.7505442741379,18.4485095557359 19.71999828517351,29.979975323515365 24.594204002419954,27.68318241423696" style="fill:none;stroke:black;stroke-width:1"/>
<polygon points="14.048535869370747,30.278734091487266 19.71999828517351,29.979975323515365 24.7505442741379,18.4485095557359" style="fill:none;stroke:black;stroke-width:1"/>
<polygon points="23.70694412139537,18.679386746076464 6.685207392888767,5.377429755168049 3.440545326923994,9.534813297271118" style="fill:none;stroke:black;stroke-width:1"/>
<polygon points="6.685207392888767,5.377429755168049 23.70694412139537,18.679386746076464 23.627285500285776,18.82313515075201" style="fill:none;stroke:black;stroke-width:1"/>
<polygon points="23.580546854894987,18.98458988020332 6.685207392888767,5.377429755168049 23.627285500285776,18.82313515075201" style="fill:none;stroke:black;stroke-width:1"/>
<polygon points="11.302857777215127,2.7050949216876754 6.685207392888767,5.377429755168049 23.580546854894987,18.98458988020332" style="fill:none;stroke:black;stroke-width:1"/>
<polygon points="24.600899765424767,21.374548289068663 24.47091244678897,21.4733838801648 23.4792886367043,19.627438212337818" style="fill:none;stroke:black;stroke-width:1"/>
<polygon points="23.504592453460784,19.466755251065205 24.600899765424767,21.374548289068663 23.4792886367043,19.627438212337818" style="fill:none;stroke:black;stroke-width:1"/>
<polygon points="24.600899765424767,21.374548289068663 23.504592453460784,19.466755251065205 24.707522553466944,21.250527555611914" style="fill:none;stroke:black;stroke-width:1"/>
<polygon points="24.600899765424767,21.374548289068663 24.707522553466944,21.250527555611914 19.19753845771689,5.26100664674933" style="fill:none;stroke:black;stroke-width:1"/>
<polygon points="24.47091244678897,21.4733838801648 24.600899765424767,21.374548289068663 19.19753845771689,5.26100664674933" style="fill:none;stroke:black;stroke-width:1"/>
<polygon points="13.138613905809095,25.228833122101406 18.647887548818954,4.337082310303975 17.579750629921342,4.480927561472773" style="fill:none;stroke:black;stroke-width:1"/>
<polygon points="13.046098481238054,25.346596304000517 13.138613905809095,25.228833122101406 17.579750629921342,4.480927561472773" style="fill:none;stroke:black;stroke-width:1"/>
<polygon points="10.99244635446401,24.525284180727898 10.844962615909608,24.563109042389218 18.810831925136316,4.8109817695562125" style="fill:none;stroke:black;stroke-width:1"/>
<polygon points="8.435961157536681,8.33484668203027 8.269442383657802,8.361454974049279 18.190032250437916,5.277160319641534" style="fill:none;stroke:black;stroke-width:1"/>
<polygon points="8.607596822958504,8.347085070382178 8.435961157536681,8.33484668203027 18.190032250437916,5.277160319641534" style="fill:none;stroke:black;stroke-width:1"/>
<polygon points="8.934926943174851,8.493368312608105 8.777566938050526,8.400846369200206 18.190032250437916,5.277160319641534" style="fill:none;stroke:black;stroke-width:1"/>
<polygon points="9.063059475857388,8.61608036832626 8.934926943174851,8.493368312608105 18.190032250437916,5.277160319641534" style="fill:none;stroke:black;stroke-width:1"/>
<polygon points="7.789683388656891,8.798610963013196 8.433346965577751,11.099287832325594 7.721974843382274,8.949585046115073" style="fill:none;stroke:black;stroke-width:1"/>
<polygon points="8.433346965577751,11.099287832325594 8.355336532595247,11.251240065109208 7.721974843382274,8.949585046115073" style="fill:none;stroke:black;stroke-width:1"/>
<polygon points="8.433346965577751,11.099287832325594 7.789683388656891,8.798610963013196 7.868415090440251,8.647597590841743" style="fill:none;stroke:black;stroke-width:1"/>
<polygon points="8.355336532595247,11.251240065109208 8.433346965577751,11.099287832325594 8.883997365930924,10.056083537246655" style="fill:none;stroke:black;stroke-width:1"/>
<polygon points="7.591795024754188,11.569615808283352 7.2350725614403615,10.020933289120546 7.769587332992044,11.576605764930475" style="fill:none;stroke:black;stroke-width:1"/>
<polygon points="7.2350725614403615,10.020933289120546 7.591795024754188,11.569615808283352 7.163940637342655,10.176391392899461" style="fill:none;stroke:black;stroke-width:1"/>
<polygon points="8.103670728273494,11.479005775970782 7.591795024754188,11.569615808283352 7.769587332992044,11.576605764930475" style="fill:none;stroke:black;stroke-width:1"/>
<polygon points="8.243481326819037,11.38013557101604 7.591795024754188,11.569615808283352 8.103670728273494,11.479005775970782" style="fill:none;stroke:black;stroke-width:1"/>
<polygon points="7.414482758620689,11.525862068965516 7.591795024754188,11.569615808283352 8.243481326819037,11.38013557101604" style="fill:none;stroke:black;stroke-width:1"/>
<polygon points="7.163940637342655,10.176391392899461 7.092483716514073,10.332534757592722 17.76879736152492,4.922183281387179" style="fill:none;stroke:black;stroke-width:1"/>
<polygon points="7.591795024754188,11.569615808283352 7.092483716514073,10.332534757592722 7.163940637342655,10.176391392899461" style="fill:none;stroke:black;stroke-width:1"/>
<polygon points="7.092483716514073,10.332534757592722 7.591795024754188,11.569615808283352 7.414482758620689,11.525862068965516" style="fill:none;stroke:black;stroke-width:1"/>
<polygon points="11.724686706653632,4.109982698962536 21.936164558985713,17.201135016931396 18.64102774466219,4.178379067980788" style="fill:none;stroke:black;stroke-width:1"/>
<polygon points="21.936164558985713,17.201135016931396 18.82690365233522,21.364882805945346 18.64102774466219,4.178379067980788" style="fill:none;stroke:black;stroke-width:1"/>
<polygon points="16.638741906453,10.233587891788451 21.090057767636733,12.96430050731921 18.64102774466219,4.178379067980788" style="fill:none;stroke:black;stroke-width:1"/>
<polygon points="11.732675661745514,12.160295415794454 16.638741906453,10.233587891788451 18.64102774466219,4.178379067980788" style="fill:none;stroke:black;stroke-width:1"/>
<polygon points="13.492698514824657,21.397698408776634 10.3257615721222,17.253469993964057 18.64102774466219,4.178379067980788" style="fill:none;stroke:black;stroke-width:1"/>
<polygon points="10.3257615721222,17.253469993964057 11.732675661745514,12.160295415794454 18.64102774466219,4.178379067980788" style="fill:none;stroke:black;stroke-width:1"/>
<polygon points="7.535831033801621,16.99003604306054 10.051335809747611,20.337118073775496 17.809565441105757,4.345285581071746" style="fill:none;stroke:black;stroke-width:1"/>
<polygon points="3.40249400390781,17.718721289321728 7.535831033801621,16.99003604306054 17.809565441105757,4.345285581071746" style="fill:none;stroke:black;stroke-width:1"/>
<polygon points="8.89657355230135,26.670109462045204 5.2181052012826905,22.830648115804436 17.809565441105757,4.345285581071746" style="fill:none;stroke:black;stroke-width:1"/>
<polygon points="5.2181052012826905,22.830648115804436 3.40249400390781,17.718721289321728 17.809565441105757,4.345285581071746" style="fill:none;stroke:black;stroke-width:1"/>
<polygon points="24.158004573595342,21.5816079186276 23.98757338651511,21.58758620689655 23.40337718643486,20.10948709615566" style="fill:none;stroke:black;stroke-width:1"/>
<polygon points="23.98757338651511,21.58758620689655 23.377981674830735,20.270826193456735 23.40337718643486,20.10948709615566" style="fill:none;stroke:black;stroke-width:1"/>
<polygon points="23.98757338651511,21.58758620689655 24.158004573595342,21.5816079186276 18.970453899881104,5.0892103623405145" style="fill:none;stroke:black;stroke-width:1"/>
<polygon points="23.81490076761819,21.55067274394324 23.98757338651511,21.58758620689655 18.970453899881104,5.0892103623405145" style="fill:none;stroke:black;stroke-width:1"/>
<polygon points="23.98757338651511,21.58758620689655 23.81490076761819,21.55067274394324 23.661492134793594,21.477995084905242" style="fill:none;stroke:black;stroke-width:1"/>
<polygon points="24.096424380721338,18.389641074441165 24.260747446390514,18.35197956260542 24.985340404214085,19.976715921201315" style="fill:none;stroke:black;stroke-width:1"/>
<polygon points="25.010644220970565,19.8160329599287 24.260747446390514,18.35197956260542 24.43448275862069,18.34965517241379" style="fill:none;stroke:black;stroke-width:1"/>
<polygon points="24.260747446390514,18.35197956260542 25.010644220970565,19.8160329599287 24.985340404214085,19.976715921201315" style="fill:none;stroke:black;stroke-width:1"/>
<polygon points="24.260747446390514,18.35197956260542 2.4271750316824323,20.25433281779041 24.43448275862069,18.34965517241379" style="fill:none;stroke:black;stroke-width:1"/>
<polygon points="24.260747446390514,18.35197956260542 24.096424380721338,18.389641074441165 2.4271750316824323,20.25433281779041" style="fill:none;stroke:black;stroke-width:1"/>
<polygon points="12.929934344306874,25.442138824052968 13.046098481238054,25.346596304000517 17.579750629921342,4.480927561472773" style="fill:none;stroke:black;stroke-width:1"/>
<polygon points="18.652577461689578,4.241166869462863 12.496582555031477,25.58930416645959 17.579750629921342,4.480927561472773" style="fill:none;stroke:black;stroke-width:1"/>
<polygon points="12.496582555031477,25.58930416645959 12.644066293585876,25.55147930479827 17.579750629921342,4.480927561472773" style="fill:none;stroke:black;stroke-width:1"/>
<polygon points="13.147767498330529,24.492172873058408 13.052649378884999,24.369083717304584 18.647887548818954,4.337082310303975" style="fill:none;stroke:black;stroke-width:1"/>
<polygon points="13.052649378884999,24.369083717304584 12.934934161421808,24.269544134250634 18.647887548818954,4.337082310303975" style="fill:none;stroke:black;stroke-width:1"/>
<polygon points="12.799741181580226,24.19640320748291 12.652180380699498,24.1525048560276 18.647887548818954,4.337082310303975" style="fill:none;stroke:black;stroke-width:1"/>
<polygon points="12.934934161421808,24.269544134250634 12.799741181580226,24.19640320748291 18.647887548818954,4.337082310303975" style="fill:none;stroke:black;stroke-width:1"/>
<polygon points="11.288356930546804,24.447830367662505 11.140219523784625,24.48684424737973 18.810831925136316,4.8109817695562125" style="fill:none;stroke:black;stroke-width:1"/>
<polygon points="11.140219523784625,24.48684424737973 10.99244635446401,24.525284180727898 18.810831925136316,4.8109817695562125" style="fill:none;stroke:black;stroke-width:1"/>
<polygon points="23.98757338651511,21.58758620689655 23.353255234542488,20.43425354234503 23.377981674830735,20.270826193456735" style="fill:none;stroke:black;stroke-width:1"/>
<polygon points="23.353255234542488,20.43425354234503 23.661492134793594,21.477995084905242 23.329659433594443,20.599487565950366" style="fill:none;stroke:black;stroke-width:1"/>
<polygon points="23.353255234542488,20.43425354234503 23.98757338651511,21.58758620689655 23.661492134793594,21.477995084905242" style="fill:none;stroke:black;stroke-width:1"/>
<polygon points="10.844962615909608,24.563109042389218 10.696120074115107,24.60451851828402 23.329659433594443,20.599487565950366" style="fill:none;stroke:black;stroke-width:1"/>
<polygon points="10.696120074115107,24.60451851828402 23.353255234542488,20.43425354234503 23.329659433594443,20.599487565950366" style="fill:none;stroke:black;stroke-width:1"/>
<polygon points="23.353255234542488,20.43425354234503 10.696120074115107,24.60451851828402 10.55954485181522,24.673490299091664" style="fill:none;stroke:black;stroke-width:1"/>
<polygon points="10.250377799291048,25.17052229492775 23.428681003191343,19.948804134883048 23.40337718643486,20.10948709615566" style="fill:none;stroke:black;stroke-width:1"/>
<polygon points="7.978886582193448,8.520506662604022 8.500464167125347,10.948797569148562 7.868415090440251,8.647597590841743" style="fill:none;stroke:black;stroke-width:1"/>
<polygon points="8.500464167125347,10.948797569148562 8.433346965577751,11.099287832325594 7.868415090440251,8.647597590841743" style="fill:none;stroke:black;stroke-width:1"/>
<polygon points="8.433346965577751,11.099287832325594 8.500464167125347,10.948797569148562 8.883997365930924,10.056083537246655" style="fill:none;stroke:black;stroke-width:1"/>
<polygon points="7.0208606470613155,10.490166545877699 7.414482758620689,11.525862068965516 6.957662439508697,10.65960184270979" style="fill:none;stroke:black;stroke-width:1"/>
<polygon points="7.0208606470613155,10.490166545877699 7.092483716514073,10.332534757592722 7.414482758620689,11.525862068965516" style="fill:none;stroke:black;stroke-width:1"/>
<polygon points="7.0208606470613155,10.490166545877699 6.957662439508697,10.65960184270979 17.76879736152492,4.922183281387179" style="fill:none;stroke:black;stroke-width:1"/>
<polygon points="7.092483716514073,10.332534757592722 7.0208606470613155,10.490166545877699 17.76879736152492,4.922183281387179" style="fill:none;stroke:black;stroke-width:1"/>
<polygon points="12.644066293585876,25.55147930479827 12.792928915346799,25.510436369396352 17.579750629921342,4.480927561472773" style="fill:none;stroke:black;stroke-width:1"/>
<polygon points="12.792928915346799,25.510436369396352 12.929934344306874,25.442138824052968 17.579750629921342,4.480927561472773" style="fill:none;stroke:black;stroke-width:1"/>
<polygon points="12.34880938571086,25.62774409980776 18.652577461689578,4.241166869462863 12.200671978948682,25.666757979524988" style="fill:none;stroke:black;stroke-width:1"/>
<polygon points="12.34880938571086,25.62774409980776 12.496582555031477,25.58930416645959 18.652577461689578,4.241166869462863" style="fill:none;stroke:black;stroke-width:1"/>
<polygon points="13.215160511186998,24.63595621667175 13.147767498330529,24.492172873058408 18.647887548818954,4.337082310303975" style="fill:none;stroke:black;stroke-width:1"/>
<polygon points="13.246175622769547,24.79230342472099 13.215160511186998,24.63595621667175 18.647887548818954,4.337082310303975" style="fill:none;stroke:black;stroke-width:1"/>
<polygon points="13.241464235214272,24.946688697047495 13.246175622769547,24.79230342472099 18.647887548818954,4.337082310303975" style="fill:none;stroke:black;stroke-width:1"/>
<polygon points="11.585993872731207,24.368289736459477 11.43692763718385,24.408292718371097 18.717497020800646,4.5620040169524865" style="fill:none;stroke:black;stroke-width:1"/>
<polygon points="11.735610051437382,24.32788719745498 11.585993872731207,24.368289736459477 18.717497020800646,4.5620040169524865" style="fill:none;stroke:black;stroke-width:1"/>
<polygon points="12.036665809291678,24.24617691985309 11.885821914618754,24.28715717813901 18.717497020800646,4.5620040169524865" style="fill:none;stroke:black;stroke-width:1"/>
<polygon points="11.885821914618754,24.28715717813901 11.735610051437382,24.32788719745498 18.717497020800646,4.5620040169524865" style="fill:none;stroke:black;stroke-width:1"/>
<polygon points="12.652180380699498,24.1525048560276 12.497351732604695,24.14068905249286 18.717497020800646,4.5620040169524865" style="fill:none;stroke:black;stroke-width:1"/>
<polygon points="12.497351732604695,24.14068905249286 12.340344827586206,24.163793103448274 18.717497020800646,4.5620040169524865" style="fill:none;stroke:black;stroke-width:1"/>
<polygon points="12.188168114958332,24.2050276103568 12.036665809291678,24.24617691985309 18.717497020800646,4.5620040169524865" style="fill:none;stroke:black;stroke-width:1"/>
<polygon points="12.340344827586206,24.163793103448274 12.188168114958332,24.2050276103568 18.717497020800646,4.5620040169524865" style="fill:none;stroke:black;stroke-width:1"/>
<polygon points="23.377981674830735,20.270826193456735 10.286482498594713,25.023119893683074 23.40337718643486,20.10948709615566" style="fill:none;stroke:black;stroke-width:1"/>
<polygon points="10.286482498594713,25.023119893683074 10.250377799291048,25.17052229492775 23.40337718643486,20.10948709615566" style="fill:none;stroke:black;stroke-width:1"/>
<polygon points="23.428681003191343,19.948804134883048 10.246417624267195,25.325024266205304 23.45398481994782,19.788121173610435" style="fill:none;stroke:black;stroke-width:1"/>
<polygon points="10.250377799291048,25.17052229492775 10.246417624267195,25.325024266205304 23.428681003191343,19.948804134883048" style="fill:none;stroke:black;stroke-width:1"/>
<polygon points="23.45398481994782,19.788121173610435 10.246417624267195,25.325024266205304 23.4792886367043,19.627438212337818" style="fill:none;stroke:black;stroke-width:1"/>
<polygon points="8.566752270042292,10.798895335540353 7.978886582193448,8.520506662604022 8.114823269238013,8.4242337122902" style="fill:none;stroke:black;stroke-width:1"/>
<polygon points="8.566752270042292,10.798895335540353 8.500464167125347,10.948797569148562 7.978886582193448,8.520506662604022" style="fill:none;stroke:black;stroke-width:1"/>
<polygon points="8.566752270042292,10.798895335540353 8.114823269238013,8.4242337122902 8.269442383657802,8.361454974049279" style="fill:none;stroke:black;stroke-width:1"/>
<polygon points="8.500464167125347,10.948797569148562 8.566752270042292,10.798895335540353 8.883997365930924,10.056083537246655" style="fill:none;stroke:black;stroke-width:1"/>
<polygon points="13.138613905809095,25.228833122101406 13.204672524553427,25.09386289203848 18.647887548818954,4.337082310303975" style="fill:none;stroke:black;stroke-width:1"/>
<polygon points="13.204672524553427,25.09386289203848 13.241464235214272,24.946688697047495 18.647887548818954,4.337082310303975" style="fill:none;stroke:black;stroke-width:1"/>
<polygon points="23.353255234542488,20.43425354234503 10.443875122718476,24.769595547305727 23.377981674830735,20.270826193456735" style="fill:none;stroke:black;stroke-width:1"/>
<polygon points="10.443875122718476,24.769595547305727 23.353255234542488,20.43425354234503 10.55954485181522,24.673490299091664" style="fill:none;stroke:black;stroke-width:1"/>
<polygon points="10.277647890146802,25.481990488107037 23.504592453460784,19.466755251065205 23.4792886367043,19.627438212337818" style="fill:none;stroke:black;stroke-width:1"/>
<polygon points="10.246417624267195,25.325024266205304 10.277647890146802,25.481990488107037 23.4792886367043,19.627438212337818" style="fill:none;stroke:black;stroke-width:1"/>
<polygon points="23.504592453460784,19.466755251065205 10.277647890146802,25.481990488107037 23.529896270217264,19.306072289792592" style="fill:none;stroke:black;stroke-width:1"/>
<polygon points="8.435961157536681,8.33484668203027 8.632161018921835,10.649520529392824 8.269442383657802,8.361454974049279" style="fill:none;stroke:black;stroke-width:1"/>
<polygon points="8.632161018921835,10.649520529392824 8.566752270042292,10.798895335540353 8.269442383657802,8.361454974049279" style="fill:none;stroke:black;stroke-width:1"/>
<polygon points="8.566752270042292,10.798895335540353 8.632161018921835,10.649520529392824 8.883997365930924,10.056083537246655" style="fill:none;stroke:black;stroke-width:1"/>
<polygon points="10.351918307156119,24.887809950063815 10.286482498594713,25.023119893683074 23.377981674830735,20.270826193456735" style="fill:none;stroke:black;stroke-width:1"/>
<polygon points="10.443875122718476,24.769595547305727 10.351918307156119,24.887809950063815 23.377981674830735,20.270826193456735" style="fill:none;stroke:black;stroke-width:1"/>
<polygon points="10.343160764582692,25.627350506718226 23.580546854894987,18.98458988020332 23.555200086973745,19.145389328519972" style="fill:none;stroke:black;stroke-width:1"/>
<polygon points="23.580546854894987,18.98458988020332 10.343160764582692,25.627350506718226 10.436740653286563,25.75087452151614" style="fill:none;stroke:black;stroke-width:1"/>
<polygon points="23.529896270217264,19.306072289792592 10.343160764582692,25.627350506718226 23.555200086973745,19.145389328519972" style="fill:none;stroke:black;stroke-width:1"/>
<polygon points="10.277647890146802,25.481990488107037 10.343160764582692,25.627350506718226 23.529896270217264,19.306072289792592" style="fill:none;stroke:black;stroke-width:1"/>
<polygon points="8.696640158357223,10.500612548597834 8.435961157536681,8.33484668203027 8.607596822958504,8.347085070382178" style="fill:none;stroke:black;stroke-width:1"/>
<polygon points="8.696640158357223,10.500612548597834 8.632161018921835,10.649520529392824 8.435961157536681,8.33484668203027" style="fill:none;stroke:black;stroke-width:1"/>
<polygon points="8.696640158357223,10.500612548597834 8.607596822958504,8.347085070382178 8.777566938050526,8.400846369200206" style="fill:none;stroke:black;stroke-width:1"/>
<polygon points="8.632161018921835,10.649520529392824 8.822608587268519,10.203954654632893 8.883997365930924,10.056083537246655" style="fill:none;stroke:black;stroke-width:1"/>
<polygon points="8.696640158357223,10.500612548597834 8.822608587268519,10.203954654632893 8.632161018921835,10.649520529392824" style="fill:none;stroke:black;stroke-width:1"/>
<polygon points="8.822608587268519,10.203954654632893 9.063059475857388,8.61608036832626 8.883997365930924,10.056083537246655" style="fill:none;stroke:black;stroke-width:1"/>
<polygon points="8.822608587268519,10.203954654632893 8.934926943174851,8.493368312608105 9.063059475857388,8.61608036832626" style="fill:none;stroke:black;stroke-width:1"/>
<polygon points="8.934926943174851,8.493368312608105 8.7601394329417,10.352110791047238 8.777566938050526,8.400846369200206" style="fill:none;stroke:black;stroke-width:1"/>
<polygon points="8.822608587268519,10.203954654632893 8.7601394329417,10.352110791047238 8.934926943174851,8.493368312608105" style="fill:none;stroke:black;stroke-width:1"/>
<polygon points="8.7601394329417,10.352110791047238 8.696640158357223,10.500612548597834 8.777566938050526,8.400846369200206" style="fill:none;stroke:black;stroke-width:1"/>
<polygon points="8.7601394329417,10.352110791047238 8.822608587268519,10.203954654632893 8.696640158357223,10.500612548597834" style="fill:none;stroke:black;stroke-width:1"/>
<polygon points="11.452363100203808,25.868411427334397 25.611979245052964,24.55829865126013 11.300860794537153,25.90956073683069" style="fill:none;stroke:black;stroke-width:1"/>
<polygon points="11.300860794537153,25.90956073683069 25.611979245052964,24.55829865126013 21.348125769589878,27.750128603746013" style="fill:none;stroke:black;stroke-width:1"/>
<polygon points="10.836902663996936,25.964454841376053 26.4777677788623,6.4644723926514995 22.197216033287607,3.3111055647240653" style="fill:none;stroke:black;stroke-width:1"/>
<polygon points="10.836902663996936,25.964454841376053 22.197216033287607,3.3111055647240653 10.688500615615313,25.922018412433985" style="fill:none;stroke:black;stroke-width:1"/>
<polygon points="29.314734285782173,10.975705266194707 10.836902663996936,25.964454841376053 10.994010792744934,25.974711665905488" style="fill:none;stroke:black;stroke-width:1"/>
<polygon points="10.836902663996936,25.964454841376053 29.314734285782173,10.975705266194707 26.4777677788623,6.4644723926514995" style="fill:none;stroke:black;stroke-width:1"/>
<polygon points="16.903109434329,1.944740404807234 10.55348517355465,25.84996192537772 10.688500615615313,25.922018412433985" style="fill:none;stroke:black;stroke-width:1"/>
<polygon points="22.197216033287607,3.3111055647240653 16.903109434329,1.944740404807234 10.688500615615313,25.922018412433985" style="fill:none;stroke:black;stroke-width:1"/>
<polygon points="10.55348517355465,25.84996192537772 16.903109434329,1.944740404807234 10.436740653286563,25.75087452151614" style="fill:none;stroke:black;stroke-width:1"/>
<polygon points="16.903109434329,1.944740404807234 11.302857777215127,2.7050949216876754 10.436740653286563,25.75087452151614" style="fill:none;stroke:black;stroke-width:1"/>
<polygon points="19.71999828517351,29.979975323515365 30.271379310344827,16.40103448275862 24.594204002419954,27.68318241423696" style="fill:none;stroke:black;stroke-width:1"/>
<polygon points="30.271379310344827,16.40103448275862 1.9162178741838582,14.749893204643703 3.440545326923994,9.534813297271118" style="fill:none;stroke:black;stroke-width:1"/>
<polygon points="23.047812758545735,18.305206068593076 30.271379310344827,16.40103448275862 26.76855507624233,17.316764470966053" style="fill:none;stroke:black;stroke-width:1"/>
<polygon points="30.271379310344827,16.40103448275862 2.4271750316824323,20.25433281779041 1.9162178741838582,14.749893204643703" style="fill:none;stroke:black;stroke-width:1"/>
<polygon points="30.271379310344827,16.40103448275862 21.521748011619863,11.149439129813477 24.094958144388023,15.802804797578155" style="fill:none;stroke:black;stroke-width:1"/>
<polygon points="30.271379310344827,16.40103448275862 27.477555978884954,10.29589565211944 24.102400176395964,6.185823587762435" style="fill:none;stroke:black;stroke-width:1"/>
<polygon points="30.271379310344827,16.40103448275862 11.724686706653632,4.109982698962536 7.215130970172421,6.971487761890289" style="fill:none;stroke:black;stroke-width:1"/>
<polygon points="19.29916637884766,3.784558793030191 30.271379310344827,16.40103448275862 24.102400176395964,6.185823587762435" style="fill:none;stroke:black;stroke-width:1"/>
<polygon points="30.271379310344827,16.40103448275862 16.903109434329,1.944740404807234 22.197216033287607,3.3111055647240653" style="fill:none;stroke:black;stroke-width:1"/>
<polygon points="28.45423121136864,14.973652620405947 30.271379310344827,16.40103448275862 24.094958144388023,15.802804797578155" style="fill:none;stroke:black;stroke-width:1"/>
<polygon points="16.744874465948577,8.81810636261618 30.271379310344827,16.40103448275862 11.596084862335935,10.376305415477077" style="fill:none;stroke:black;stroke-width:1"/>
<polygon points="4.262385853156227,11.41523392586087 30.271379310344827,16.40103448275862 7.215130970172421,6.971487761890289" style="fill:none;stroke:black;stroke-width:1"/>
<polygon points="30.271379310344827,16.40103448275862 8.89937100196905,14.928200928733071 11.596084862335935,10.376305415477077" style="fill:none;stroke:black;stroke-width:1"/>
<polygon points="30.271379310344827,16.40103448275862 13.904949844607032,28.70288868273539 21.090057767636733,12.96430050731921" style="fill:none;stroke:black;stroke-width:1"/>
<polygon points="30.271379310344827,16.40103448275862 8.927280619053755,28.490204671992206 4.910461538695818,25.005725931068113" style="fill:none;stroke:black;stroke-width:1"/>
<polygon points="30.271379310344827,16.40103448275862 14.42840667214861,23.275737192385478 10.051335809747611,20.337118073775496" style="fill:none;stroke:black;stroke-width:1"/>
<polygon points="30.271379310344827,16.40103448275862 28.2286054115528,19.881255935781518 26.76855507624233,17.316764470966053" style="fill:none;stroke:black;stroke-width:1"/>
<polygon points="25.611979245052964,24.55829865126013 30.271379310344827,16.40103448275862 21.348125769589878,27.750128603746013" style="fill:none;stroke:black;stroke-width:1"/>
<polygon points="30.271379310344827,16.40103448275862 28.16987205153236,23.80909022748351 24.594204002419954,27.68318241423696" style="fill:none;stroke:black;stroke-width:1"/>
<polygon points="21.521748011619863,11.149439129813477 30.271379310344827,16.40103448275862 16.744874465948577,8.81810636261618" style="fill:none;stroke:black;stroke-width:1"/>
<polygon points="30.271379310344827,16.40103448275862 4.262385853156227,11.41523392586087 4.400142102213043,15.338604356560928" style="fill:none;stroke:black;stroke-width:1"/>
<polygon points="8.89937100196905,14.928200928733071 30.271379310344827,16.40103448275862 4.400142102213043,15.338604356560928" style="fill:none;stroke:black;stroke-width:1"/>
<polygon points="6.685207392888767,5.377429755168049 30.271379310344827,16.40103448275862 3.440545326923994,9.534813297271118" style="fill:none;stroke:black;stroke-width:1"/>
<polygon points="30.271379310344827,16.40103448275862 21.936164558985713,17.201135016931396 11.724686706653632,4.109982698962536" style="fill:none;stroke:black;stroke-width:1"/>
<polygon points="2.4271750316824323,20.25433281779041 30.271379310344827,16.40103448275862 4.910461538695818,25.005725931068113" style="fill:none;stroke:black;stroke-width:1"/>
<polygon points="30.271379310344827,16.40103448275862 10.3257615721222,17.253469993964057 13.492698514824657,21.397698408776634" style="fill:none;stroke:black;stroke-width:1"/>
<polygon points="26.4777677788623,6.4644723926514995 30.271379310344827,16.40103448275862 22.197216033287607,3.3111055647240653" style="fill:none;stroke:black;stroke-width:1"/>
<polygon points="29.314734285782173,10.975705266194707 30.271379310344827,16.40103448275862 26.4777677788623,6.4644723926514995" style="fill:none;stroke:black;stroke-width:1"/>
<polygon points="14.42840667214861,23.275737192385478 30.271379310344827,16.40103448275862 19.778742989820906,22.430410618764988" style="fill:none;stroke:black;stroke-width:1"/>
<polygon points="30.271379310344827,16.40103448275862 23.047812758545735,18.305206068593076 19.778742989820906,22.430410618764988" style="fill:none;stroke:black;stroke-width:1"/>
<polygon points="30.271379310344827,16.40103448275862 25.611979245052964,24.55829865126013 28.2286054115528,19.881255935781518" style="fill:none;stroke:black;stroke-width:1"/>
<polygon points="27.477555978884954,10.29589565211944 30.271379310344827,16.40103448275862 28.45423121136864,14.973652620405947" style="fill:none;stroke:black;stroke-width:1"/>
<polygon points="28.16987205153236,23.80909022748351 30.271379310344827,16.40103448275862 30.099511224675535,18.785013899280848" style="fill:none;stroke:black;stroke-width:1"/>
<polygon points="30.271379310344827,16.40103448275862 19.29916637884766,3.784558793030191 30.099511224675535,18.785013899280848" style="fill:none;stroke:black;stroke-width:1"/>
<polygon points="18.82690365233522,21.364882805945346 30.271379310344827,16.40103448275862 13.492698514824657,21.397698408776634" style="fill:none;stroke:black;stroke-width:1"/>
<polygon points="16.638741906453,10.233587891788451 30.271379310344827,16.40103448275862 21.090057767636733,12.96430050731921" style="fill:none;stroke:black;stroke-width:1"/>
<polygon points="13.904949844607032,28.70288868273539 30.271379310344827,16.40103448275862 8.89657355230135,26.670109462045204" style="fill:none;stroke:black;stroke-width:1"/>
<polygon points="7.535831033801621,16.99003604306054 30.271379310344827,16.40103448275862 10.051335809747611,20.337118073775496" style="fill:none;stroke:black;stroke-width:1"/>
<polygon points="8.927280619053755,28.490204671992206 30.271379310344827,16.40103448275862 14.048535869370747,30.278734091487266" style="fill:none;stroke:black;stroke-width:1"/>
<polygon points="30.271379310344827,16.40103448275862 19.71999828517351,29.979975323515365 14.048535869370747,30.278734091487266" style="fill:none;stroke:black;stroke-width:1"/>
<polygon points="30.271379310344827,16.40103448275862 5.2181052012826905,22.830648115804436 8.89657355230135,26.670109462045204" style="fill:none;stroke:black;stroke-width:1"/>
<polygon points="16.903109434329,1.944740404807234 30.271379310344827,16.40103448275862 11.302857777215127,2.7050949216876754" style="fill:none;stroke:black;stroke-width:1"/>
<polygon points="30.271379310344827,16.40103448275862 6.685207392888767,5.377429755168049 11.302857777215127,2.7050949216876754" style="fill:none;stroke:black;stroke-width:1"/>
<polygon points="21.936164558985713,17.201135016931396 30.271379310344827,16.40103448275862 18.82690365233522,21.364882805945346" style="fill:none;stroke:black;stroke-width:1"/>
<polygon points="30.271379310344827,16.40103448275862 16.638741906453,10.233587891788451 11.732675661745514,12.160295415794454" style="fill:none;stroke:black;stroke-width:1"/>
<polygon points="10.3257615721222,17.253469993964057 30.271379310344827,16.40103448275862 11.732675661745514,12.160295415794454" style="fill:none;stroke:black;stroke-width:1"/>
<polygon points="30.271379310344827,16.40103448275862 7.535831033801621,16.99003604306054 3.40249400390781,17.718721289321728" style="fill:none;stroke:black;stroke-width:1"/>
<polygon points="5.2181052012826905,22.830648115804436 30.271379310344827,16.40103448275862 3.40249400390781,17.718721289321728" style="fill:none;stroke:black;stroke-width:1"/>
<polygon points="30.271379310344827,16.40103448275862 11.149028098797228,25.95118616472022 11.300860794537153,25.90956073683069" style="fill:none;stroke:black;stroke-width:1"/>
<polygon points="30.271379310344827,16.40103448275862 11.300860794537153,25.90956073683069 21.348125769589878,27.750128603746013" style="fill:none;stroke:black;stroke-width:1"/>
<polygon points="11.149028098797228,25.95118616472022 30.271379310344827,16.40103448275862 10.994010792744934,25.974711665905488" style="fill:none;stroke:black;stroke-width:1"/>
<polygon points="30.271379310344827,16.40103448275862 29.314734285782173,10.975705266194707 10.994010792744934,25.974711665905488" style="fill:none;stroke:black;stroke-width:1"/>
<polygon points="10.343160764582692,25.627350506718226 12.200671978948682,25.666757979524988 12.052101272311635,25.70629562881639" style="fill:none;stroke:black;stroke-width:1"/>
<polygon points="11.903035036764278,25.74629861072802 10.343160764582692,25.627350506718226 12.052101272311635,25.70629562881639" style="fill:none;stroke:black;stroke-width:1"/>
<polygon points="10.343160764582692,25.627350506718226 11.885821914618754,24.28715717813901 12.036665809291678,24.24617691985309" style="fill:none;stroke:black;stroke-width:1"/>
<polygon points="10.343160764582692,25.627350506718226 10.55348517355465,25.84996192537772 10.436740653286563,25.75087452151614" style="fill:none;stroke:black;stroke-width:1"/>
<polygon points="10.343160764582692,25.627350506718226 11.753418858058101,25.786701149732508 11.60320699487673,25.82743116904848" style="fill:none;stroke:black;stroke-width:1"/>
<polygon points="11.452363100203808,25.868411427334397 10.343160764582692,25.627350506718226 11.60320699487673,25.82743116904848" style="fill:none;stroke:black;stroke-width:1"/>
<polygon points="10.343160764582692,25.627350506718226 12.34880938571086,25.62774409980776 12.200671978948682,25.666757979524988" style="fill:none;stroke:black;stroke-width:1"/>
<polygon points="10.343160764582692,25.627350506718226 11.149028098797228,25.95118616472022 10.994010792744934,25.974711665905488" style="fill:none;stroke:black;stroke-width:1"/>
<polygon points="10.55348517355465,25.84996192537772 10.343160764582692,25.627350506718226 10.688500615615313,25.922018412433985" style="fill:none;stroke:black;stroke-width:1"/>
<polygon points="10.836902663996936,25.964454841376053 10.343160764582692,25.627350506718226 10.994010792744934,25.974711665905488" style="fill:none;stroke:black;stroke-width:1"/>
<polygon points="10.343160764582692,25.627350506718226 11.288356930546804,24.447830367662505 11.43692763718385,24.408292718371097" style="fill:none;stroke:black;stroke-width:1"/>
<polygon points="11.753418858058101,25.786701149732508 10.343160764582692,25.627350506718226 11.903035036764278,25.74629861072802" style="fill:none;stroke:black;stroke-width:1"/>
<polygon points="11.149028098797228,25.95118616472022 10.343160764582692,25.627350506718226 11.300860794537153,25.90956073683069" style="fill:none;stroke:black;stroke-width:1"/>
<polygon points="10.343160764582692,25.627350506718226 11.452363100203808,25.868411427334397 11.300860794537153,25.90956073683069" style="fill:none;stroke:black;stroke-width:1"/>
<polygon points="12.929934344306874,25.442138824052968 10.343160764582692,25.627350506718226 13.046098481238054,25.346596304000517" style="fill:none;stroke:black;stroke-width:1"/>
<polygon points="10.343160764582692,25.627350506718226 12.792928915346799,25.510436369396352 12.644066293585876,25.55147930479827" style="fill:none;stroke:black;stroke-width:1"/>
<polygon points="12.799741181580226,24.19640320748291 10.343160764582692,25.627350506718226 12.652180380699498,24.1525048560276" style="fill:none;stroke:black;stroke-width:1"/>
<polygon points="10.343160764582692,25.627350506718226 10.836902663996936,25.964454841376053 10.688500615615313,25.922018412433985" style="fill:none;stroke:black;stroke-width:1"/>
<polygon points="10.343160764582692,25.627350506718226 10.696120074115107,24.60451851828402 10.844962615909608,24.563109042389218" style="fill:none;stroke:black;stroke-width:1"/>
<polygon points="10.343160764582692,25.627350506718226 13.138613905809095,25.228833122101406 13.046098481238054,25.346596304000517" style="fill:none;stroke:black;stroke-width:1"/>
<polygon points="10.343160764582692,25.627350506718226 13.052649378884999,24.369083717304584 13.147767498330529,24.492172873058408" style="fill:none;stroke:black;stroke-width:1"/>
<polygon points="10.343160764582692,25.627350506718226 10.443875122718476,24.769595547305727 10.55954485181522,24.673490299091664" style="fill:none;stroke:black;stroke-width:1"/>
<polygon points="10.99244635446401,24.525284180727898 10.343160764582692,25.627350506718226 10.844962615909608,24.563109042389218" style="fill:none;stroke:black;stroke-width:1"/>
<polygon points="10.343160764582692,25.627350506718226 11.140219523784625,24.48684424737973 11.288356930546804,24.447830367662505" style="fill:none;stroke:black;stroke-width:1"/>
<polygon points="10.343160764582692,25.627350506718226 13.204672524553427,25.09386289203848 13.138613905809095,25.228833122101406" style="fill:none;stroke:black;stroke-width:1"/>
<polygon points="12.496582555031477,25.58930416645959 10.343160764582692,25.627350506718226 12.644066293585876,25.55147930479827" style="fill:none;stroke:black;stroke-width:1"/>
<polygon points="13.215160511186998,24.63595621667175 10.343160764582692,25.627350506718226 13.147767498330529,24.492172873058408" style="fill:none;stroke:black;stroke-width:1"/>
<polygon points="13.052649378884999,24.369083717304584 10.343160764582692,25.627350506718226 12.934934161421808,24.269544134250634" style="fill:none;stroke:black;stroke-width:1"/>
<polygon points="10.343160764582692,25.627350506718226 12.799741181580226,24.19640320748291 12.934934161421808,24.269544134250634" style="fill:none;stroke:black;stroke-width:1"/>
<polygon points="11.585993872731207,24.368289736459477 10.343160764582692,25.627350506718226 11.43692763718385,24.408292718371097" style="fill:none;stroke:black;stroke-width:1"/>
<polygon points="10.343160764582692,25.627350506718226 12.497351732604695,24.14068905249286 12.652180380699498,24.1525048560276" style="fill:none;stroke:black;stroke-width:1"/>
<polygon points="11.140219523784625,24.48684424737973 10.343160764582692,25.627350506718226 10.99244635446401,24.525284180727898" style="fill:none;stroke:black;stroke-width:1"/>
<polygon points="10.696120074115107,24.60451851828402 10.343160764582692,25.627350506718226 10.55954485181522,24.673490299091664" style="fill:none;stroke:black;stroke-width:1"/>
<polygon points="12.188168114958332,24.2050276103568 10.343160764582692,25.627350506718226 12.036665809291678,24.24617691985309" style="fill:none;stroke:black;stroke-width:1"/>
<polygon points="12.792928915346799,25.510436369396352 10.343160764582692,25.627350506718226 12.929934344306874,25.442138824052968" style="fill:none;stroke:black;stroke-width:1"/>
<polygon points="12.34880938571086,25.62774409980776 10.343160764582692,25.627350506718226 12.496582555031477,25.58930416645959" style="fill:none;stroke:black;stroke-width:1"/>
<polygon points="10.343160764582692,25.627350506718226 13.215160511186998,24.63595621667175 13.246175622769547,24.79230342472099" style="fill:none;stroke:black;stroke-width:1"/>
<polygon points="13.241464235214272,24.946688697047495 10.343160764582692,25.627350506718226 13.246175622769547,24.79230342472099" style="fill:none;stroke:black;stroke-width:1"/>
<polygon points="10.343160764582692,25.627350506718226 11.585993872731207,24.368289736459477 11.735610051437382,24.32788719745498" style="fill:none;stroke:black;stroke-width:1"/>
<polygon points="11.885821914618754,24.28715717813901 10.343160764582692,25.627350506718226 11.735610051437382,24.32788719745498" style="fill:none;stroke:black;stroke-width:1"/>
<polygon points="12.497351732604695,24.14068905249286 10.343160764582692,25.627350506718226 12.340344827586206,24.163793103448274" style="fill:none;stroke:black;stroke-width:1"/>
<polygon points="10.343160764582692,25.627350506718226 12.188168114958332,24.2050276103568 12.340344827586206,24.163793103448274" style="fill:none;stroke:black;stroke-width:1"/>
<polygon points="10.286482498594713,25.023119893683074 10.343160764582692,25.627350506718226 10.250377799291048,25.17052229492775" style="fill:none;stroke:black;stroke-width:1"/>
<polygon points="10.343160764582692,25.627350506718226 10.246417624267195,25.325024266205304 10.250377799291048,25.17052229492775" style="fill:none;stroke:black;stroke-width:1"/>
<polygon points="13.204672524553427,25.09386289203848 10.343160764582692,25.627350506718226 13.241464235214272,24.946688697047495" style="fill:none;stroke:black;stroke-width:1"/>
<polygon points="10.351918307156119,24.887809950063815 10.343160764582692,25.627350506718226 10.286482498594713,25.023119893683074" style="fill:none;stroke:black;stroke-width:1"/>
<polygon points="10.343160764582692,25.627350506718226 10.277647890146802,25.481990488107037 10.246417624267195,25.325024266205304" style="fill:none;stroke:black;stroke-width:1"/>
<polygon points="10.343160764582692,25.627350506718226 10.351918307156119,24.887809950063815 10.443875122718476,24.769595547305727" style="fill:none;stroke:black;stroke-width:1"/>
</svg>
