<?xml version="1.0" encoding="UTF-8" standalone="no"?>
<svg xmlns="http://www.w3.org/2000/svg" version="1.1" width="800" height="800">
<polygon points="13.853194005746312,28.756532366408088 16.576020348079545,27.52916683599148 17.831429561568584,28.9592943442802" style="fill:none;stroke:black;stroke-width:1"/>
<polygon points="13.706450383353761,15.669351968676628 10.51952083759413,15.138169297041618 11.516562838991744,12.423631454399317" style="fill:none;stroke:black;stroke-width:1"/>
<polygon points="24.12153510441086,6.7667046008399305 23.24740189865291,4.131220142675539 25.721868219957678,6.703411007173959" style="fill:none;stroke:black;stroke-width:1"/>
<polygon points="18.136130502927365,3.8224059321456636 15.251224189892177,4.622428050692775 16.68054585087985,1.6129067071481253" style="fill:none;stroke:black;stroke-width:1"/>
<polygon points="9.08587305689585,10.59108928448433 9.20448275862069,12.247586206896552 6.776636402309013,9.618461544737807" style="fill:none;stroke:black;stroke-width:1"/>
<polygon points="10.51952083759413,15.138169297041618 9.20448275862069,12.247586206896552 11.516562838991744,12.423631454399317" style="fill:none;stroke:black;stroke-width:1"/>
<polygon points="9.20448275862069,12.247586206896552 9.08587305689585,10.59108928448433 11.516562838991744,12.423631454399317" style="fill:none;stroke:black;stroke-width:1"/>
<polygon points="7.065713613909658,5.971546166173747 8.015021323225499,7.279850100920081 6.776636402309013,9.618461544737807" style="fill:none;stroke:black;stroke-width:1"/>
<polygon points="8.015021323225499,7.279850100920081 9.08587305689585,10.59108928448433 6.776636402309013,9.618461544737807" style="fill:none;stroke:black;stroke-width:1"/>
<polygon points="9.925770244857574,3.868042726295646 8.015021323225499,7.279850100920081 7.065713613909658,5.971546166173747" style="fill:none;stroke:black;stroke-width:1"/>
<polygon points="20.970316465457493,27.31792030021783 19.923156972091217,26.22346443174564 22.734714851863167,23.133672567207302" style="fill:none;stroke:black;stroke-width:1"/>
<polygon points="19.923156972091217,26.22346443174564 20.970316465457493,27.31792030021783 17.831429561568584,28.9592943442802" style="fill:none;stroke:black;stroke-width:1"/>
<polygon points="16.576020348079545,27.52916683599148 19.923156972091217,26.22346443174564 17.831429561568584,28.9592943442802" style="fill:none;stroke:black;stroke-width:1"/>
<polygon points="21.259150318806995,22.33155684399386 22.764900742287157,20.295122438067562 22.734714851863167,23.133672567207302" style="fill:none;stroke:black;stroke-width:1"/>
<polygon points="19.923156972091217,26.22346443174564 21.259150318806995,22.33155684399386 22.734714851863167,23.133672567207302" style="fill:none;stroke:black;stroke-width:1"/>
<polygon points="15.242118689220323,12.435211191504228 13.706450383353761,15.669351968676628 11.516562838991744,12.423631454399317" style="fill:none;stroke:black;stroke-width:1"/>
<polygon points="13.706450383353761,15.669351968676628 15.242118689220323,12.435211191504228 17.43773003603063,15.65966325579084" style="fill:none;stroke:black;stroke-width:1"/>
<polygon points="24.12153510441086,6.7667046008399305 21.00589462887659,5.231002656816094 23.24740189865291,4.131220142675539" style="fill:none;stroke:black;stroke-width:1"/>
<polygon points="16.68054585087985,1.6129067071481253 14.626308594988966,2.9985411305722187 13.017409713433743,2.1561647238893076" style="fill:none;stroke:black;stroke-width:1"/>
<polygon points="11.719690226883142,5.153432088705599 8.015021323225499,7.279850100920081 9.925770244857574,3.868042726295646" style="fill:none;stroke:black;stroke-width:1"/>
<polygon points="8.015021323225499,7.279850100920081 11.719690226883142,5.153432088705599 9.08587305689585,10.59108928448433" style="fill:none;stroke:black;stroke-width:1"/>
<polygon points="11.719690226883142,5.153432088705599 9.925770244857574,3.868042726295646 13.017409713433743,2.1561647238893076" style="fill:none;stroke:black;stroke-width:1"/>
<polygon points="25.39187935783997,10.370825080237005 24.12153510441086,6.7667046008399305 25.721868219957678,6.703411007173959" style="fill:none;stroke:black;stroke-width:1"/>
<polygon points="22.764900742287157,20.295122438067562 25.39187935783997,10.370825080237005 22.734714851863167,23.133672567207302" style="fill:none;stroke:black;stroke-width:1"/>
<polygon points="25.39187935783997,10.370825080237005 22.764900742287157,20.295122438067562 23.21190940283196,16.78128639323199" style="fill:none;stroke:black;stroke-width:1"/>
<polygon points="9.212598103796655,15.981433048779904 9.20448275862069,12.247586206896552 10.51952083759413,15.138169297041618" style="fill:none;stroke:black;stroke-width:1"/>
<polygon points="9.20448275862069,12.247586206896552 9.212598103796655,15.981433048779904 6.776636402309013,9.618461544737807" style="fill:none;stroke:black;stroke-width:1"/>
<polygon points="21.17129791984012,15.651546954526175 19.628693032908373,17.04059850485577 17.43773003603063,15.65966325579084" style="fill:none;stroke:black;stroke-width:1"/>
<polygon points="21.259150318806995,22.33155684399386 21.270221338423863,19.110391121857912 22.764900742287157,20.295122438067562" style="fill:none;stroke:black;stroke-width:1"/>
<polygon points="22.764900742287157,20.295122438067562 21.270221338423863,19.110391121857912 23.21190940283196,16.78128639323199" style="fill:none;stroke:black;stroke-width:1"/>
<polygon points="21.270221338423863,19.110391121857912 21.17129791984012,15.651546954526175 23.21190940283196,16.78128639323199" style="fill:none;stroke:black;stroke-width:1"/>
<polygon points="21.17129791984012,15.651546954526175 21.270221338423863,19.110391121857912 19.628693032908373,17.04059850485577" style="fill:none;stroke:black;stroke-width:1"/>
<polygon points="18.24850253084521,25.52909504142135 19.923156972091217,26.22346443174564 16.576020348079545,27.52916683599148" style="fill:none;stroke:black;stroke-width:1"/>
<polygon points="19.923156972091217,26.22346443174564 18.24850253084521,25.52909504142135 18.43799900426513,25.443519221421415" style="fill:none;stroke:black;stroke-width:1"/>
<polygon points="16.18978558100237,25.660751968257994 16.39870438704502,25.65034247206832 16.576020348079545,27.52916683599148" style="fill:none;stroke:black;stroke-width:1"/>
<polygon points="12.696725603235324,11.138334541750835 15.242118689220323,12.435211191504228 11.516562838991744,12.423631454399317" style="fill:none;stroke:black;stroke-width:1"/>
<polygon points="9.08587305689585,10.59108928448433 12.696725603235324,11.138334541750835 11.516562838991744,12.423631454399317" style="fill:none;stroke:black;stroke-width:1"/>
<polygon points="11.719690226883142,5.153432088705599 12.696725603235324,11.138334541750835 9.08587305689585,10.59108928448433" style="fill:none;stroke:black;stroke-width:1"/>
<polygon points="15.242118689220323,12.435211191504228 18.970319229581698,12.446479199800768 17.43773003603063,15.65966325579084" style="fill:none;stroke:black;stroke-width:1"/>
<polygon points="18.970319229581698,12.446479199800768 21.17129791984012,15.651546954526175 17.43773003603063,15.65966325579084" style="fill:none;stroke:black;stroke-width:1"/>
<polygon points="21.17129791984012,15.651546954526175 18.970319229581698,12.446479199800768 21.740751599890604,12.47981596083315" style="fill:none;stroke:black;stroke-width:1"/>
<polygon points="21.00589462887659,5.231002656816094 19.826640466124154,3.444791663455284 23.24740189865291,4.131220142675539" style="fill:none;stroke:black;stroke-width:1"/>
<polygon points="19.826640466124154,3.444791663455284 21.00589462887659,5.231002656816094 18.136130502927365,3.8224059321456636" style="fill:none;stroke:black;stroke-width:1"/>
<polygon points="23.24740189865291,4.131220142675539 19.826640466124154,3.444791663455284 16.68054585087985,1.6129067071481253" style="fill:none;stroke:black;stroke-width:1"/>
<polygon points="19.826640466124154,3.444791663455284 18.136130502927365,3.8224059321456636 16.68054585087985,1.6129067071481253" style="fill:none;stroke:black;stroke-width:1"/>
<polygon points="23.615396706324496,10.235201208370576 21.00589462887659,5.231002656816094 24.12153510441086,6.7667046008399305" style="fill:none;stroke:black;stroke-width:1"/>
<polygon points="25.39187935783997,10.370825080237005 23.615396706324496,10.235201208370576 24.12153510441086,6.7667046008399305" style="fill:none;stroke:black;stroke-width:1"/>
<polygon points="23.264264649815114,13.044228933763373 25.39187935783997,10.370825080237005 23.21190940283196,16.78128639323199" style="fill:none;stroke:black;stroke-width:1"/>
<polygon points="21.17129791984012,15.651546954526175 23.264264649815114,13.044228933763373 23.21190940283196,16.78128639323199" style="fill:none;stroke:black;stroke-width:1"/>
<polygon points="23.264264649815114,13.044228933763373 21.17129791984012,15.651546954526175 21.740751599890604,12.47981596083315" style="fill:none;stroke:black;stroke-width:1"/>
<polygon points="23.615396706324496,10.235201208370576 23.264264649815114,13.044228933763373 21.740751599890604,12.47981596083315" style="fill:none;stroke:black;stroke-width:1"/>
<polygon points="23.264264649815114,13.044228933763373 23.615396706324496,10.235201208370576 25.39187935783997,10.370825080237005" style="fill:none;stroke:black;stroke-width:1"/>
<polygon points="17.441725027952778,19.10905637745484 15.91465370367521,17.045083347818775 17.43773003603063,15.65966325579084" style="fill:none;stroke:black;stroke-width:1"/>
<polygon points="13.979915129454636,19.575422698887028 15.91465370367521,17.045083347818775 14.075560104850684,19.678028939819658" style="fill:none;stroke:black;stroke-width:1"/>
<polygon points="15.91465370367521,17.045083347818775 13.706450383353761,15.669351968676628 17.43773003603063,15.65966325579084" style="fill:none;stroke:black;stroke-width:1"/>
<polygon points="18.24850253084521,25.52909504142135 18.05103448275862,24.060689655172414 18.43799900426513,25.443519221421415" style="fill:none;stroke:black;stroke-width:1"/>
<polygon points="18.616177414053027,24.32660421835419 19.319939311745568,21.753953588469866 21.259150318806995,22.33155684399386" style="fill:none;stroke:black;stroke-width:1"/>
<polygon points="18.782671190766976,24.93267405287798 21.259150318806995,22.33155684399386 19.923156972091217,26.22346443174564" style="fill:none;stroke:black;stroke-width:1"/>
<polygon points="18.782671190766976,24.93267405287798 18.787696790107372,24.712635397023043 21.259150318806995,22.33155684399386" style="fill:none;stroke:black;stroke-width:1"/>
<polygon points="18.715659019317833,25.135682532128257 18.782671190766976,24.93267405287798 19.923156972091217,26.22346443174564" style="fill:none;stroke:black;stroke-width:1"/>
<polygon points="10.7942841901911,26.396458252428022 12.941615269894887,26.56662641026534 13.853194005746312,28.756532366408088" style="fill:none;stroke:black;stroke-width:1"/>
<polygon points="12.941615269894887,26.56662641026534 16.576020348079545,27.52916683599148 13.853194005746312,28.756532366408088" style="fill:none;stroke:black;stroke-width:1"/>
<polygon points="12.696725603235324,11.138334541750835 16.414820645215393,11.128583986702262 15.242118689220323,12.435211191504228" style="fill:none;stroke:black;stroke-width:1"/>
<polygon points="16.414820645215393,11.128583986702262 18.970319229581698,12.446479199800768 15.242118689220323,12.435211191504228" style="fill:none;stroke:black;stroke-width:1"/>
<polygon points="15.50650174126918,4.754616264478098 15.251224189892177,4.622428050692775 18.136130502927365,3.8224059321456636" style="fill:none;stroke:black;stroke-width:1"/>
<polygon points="15.750534165984288,4.902312323037573 15.50650174126918,4.754616264478098 18.136130502927365,3.8224059321456636" style="fill:none;stroke:black;stroke-width:1"/>
<polygon points="16.202393420500556,5.2412337745659165 15.982703910305437,5.064767676392935 18.136130502927365,3.8224059321456636" style="fill:none;stroke:black;stroke-width:1"/>
<polygon points="15.982703910305437,5.064767676392935 15.750534165984288,4.902312323037573 18.136130502927365,3.8224059321456636" style="fill:none;stroke:black;stroke-width:1"/>
<polygon points="21.270221338423863,19.110391121857912 19.20033358981189,18.370820392486408 19.628693032908373,17.04059850485577" style="fill:none;stroke:black;stroke-width:1"/>
<polygon points="18.940285633275465,18.707104555768876 19.20033358981189,18.370820392486408 21.270221338423863,19.110391121857912" style="fill:none;stroke:black;stroke-width:1"/>
<polygon points="12.941615269894887,26.56662641026534 15.337421406407755,25.684400565616258 16.576020348079545,27.52916683599148" style="fill:none;stroke:black;stroke-width:1"/>
<polygon points="11.10553550148576,19.683973591412315 11.12869993516724,22.730413658401027 9.725272138388842,22.59500594664569" style="fill:none;stroke:black;stroke-width:1"/>
<polygon points="11.12869993516724,22.730413658401027 10.7942841901911,26.396458252428022 9.725272138388842,22.59500594664569" style="fill:none;stroke:black;stroke-width:1"/>
<polygon points="12.199454400877904,17.051934450735995 9.212598103796655,15.981433048779904 10.51952083759413,15.138169297041618" style="fill:none;stroke:black;stroke-width:1"/>
<polygon points="13.706450383353761,15.669351968676628 12.199454400877904,17.051934450735995 10.51952083759413,15.138169297041618" style="fill:none;stroke:black;stroke-width:1"/>
<polygon points="18.787696790107372,24.712635397023043 18.729146044585153,24.505494014336243 21.259150318806995,22.33155684399386" style="fill:none;stroke:black;stroke-width:1"/>
<polygon points="18.729146044585153,24.505494014336243 18.616177414053027,24.32660421835419 21.259150318806995,22.33155684399386" style="fill:none;stroke:black;stroke-width:1"/>
<polygon points="18.729146044585153,24.505494014336243 18.715659019317833,25.135682532128257 18.616177414053027,24.32660421835419" style="fill:none;stroke:black;stroke-width:1"/>
<polygon points="18.782671190766976,24.93267405287798 18.729146044585153,24.505494014336243 18.787696790107372,24.712635397023043" style="fill:none;stroke:black;stroke-width:1"/>
<polygon points="18.729146044585153,24.505494014336243 18.782671190766976,24.93267405287798 18.715659019317833,25.135682532128257" style="fill:none;stroke:black;stroke-width:1"/>
<polygon points="18.616177414053027,24.32660421835419 18.458744259573123,24.18601330155283 19.319939311745568,21.753953588469866" style="fill:none;stroke:black;stroke-width:1"/>
<polygon points="18.458744259573123,24.18601330155283 18.05103448275862,24.060689655172414 18.26679994220757,24.093768556408104" style="fill:none;stroke:black;stroke-width:1"/>
<polygon points="18.05103448275862,24.060689655172414 18.458744259573123,24.18601330155283 18.43799900426513,25.443519221421415" style="fill:none;stroke:black;stroke-width:1"/>
<polygon points="18.59696821549932,25.309163184061333 19.923156972091217,26.22346443174564 18.43799900426513,25.443519221421415" style="fill:none;stroke:black;stroke-width:1"/>
<polygon points="18.59696821549932,25.309163184061333 18.715659019317833,25.135682532128257 19.923156972091217,26.22346443174564" style="fill:none;stroke:black;stroke-width:1"/>
<polygon points="18.715659019317833,25.135682532128257 18.59696821549932,25.309163184061333 18.616177414053027,24.32660421835419" style="fill:none;stroke:black;stroke-width:1"/>
<polygon points="18.458744259573123,24.18601330155283 18.59696821549932,25.309163184061333 18.43799900426513,25.443519221421415" style="fill:none;stroke:black;stroke-width:1"/>
<polygon points="18.59696821549932,25.309163184061333 18.458744259573123,24.18601330155283 18.616177414053027,24.32660421835419" style="fill:none;stroke:black;stroke-width:1"/>
<polygon points="23.615396706324496,10.235201208370576 17.692237287716306,8.283087680015464 21.00589462887659,5.231002656816094" style="fill:none;stroke:black;stroke-width:1"/>
<polygon points="16.280865652884117,8.45300997695978 17.692237287716306,8.283087680015464 17.6712822309013,8.589302893402529" style="fill:none;stroke:black;stroke-width:1"/>
<polygon points="20.13291568719548,11.118833431653691 23.615396706324496,10.235201208370576 21.740751599890604,12.47981596083315" style="fill:none;stroke:black;stroke-width:1"/>
<polygon points="18.970319229581698,12.446479199800768 20.13291568719548,11.118833431653691 21.740751599890604,12.47981596083315" style="fill:none;stroke:black;stroke-width:1"/>
<polygon points="20.13291568719548,11.118833431653691 17.692237287716306,8.283087680015464 23.615396706324496,10.235201208370576" style="fill:none;stroke:black;stroke-width:1"/>
<polygon points="17.692237287716306,8.283087680015464 20.13291568719548,11.118833431653691 17.6712822309013,8.589302893402529" style="fill:none;stroke:black;stroke-width:1"/>
<polygon points="16.414820645215393,11.128583986702262 20.13291568719548,11.118833431653691 18.970319229581698,12.446479199800768" style="fill:none;stroke:black;stroke-width:1"/>
<polygon points="14.89976330240499,6.130018301368231 15.50650174126918,4.754616264478098 15.750534165984288,4.902312323037573" style="fill:none;stroke:black;stroke-width:1"/>
<polygon points="16.408985142837583,5.430962067578258 16.202393420500556,5.2412337745659165 18.136130502927365,3.8224059321456636" style="fill:none;stroke:black;stroke-width:1"/>
<polygon points="21.00589462887659,5.231002656816094 17.100972423395373,6.312957719123463 18.136130502927365,3.8224059321456636" style="fill:none;stroke:black;stroke-width:1"/>
<polygon points="17.239181271547128,6.5639557875358125 17.100972423395373,6.312957719123463 21.00589462887659,5.231002656816094" style="fill:none;stroke:black;stroke-width:1"/>
<polygon points="19.66602505959206,19.55495121636036 19.325567768478297,19.523069318635503 21.270221338423863,19.110391121857912" style="fill:none;stroke:black;stroke-width:1"/>
<polygon points="15.91465370367521,17.045083347818775 14.15782579966837,19.793199161498237 14.075560104850684,19.678028939819658" style="fill:none;stroke:black;stroke-width:1"/>
<polygon points="14.44318779309136,25.23921297904985 12.941615269894887,26.56662641026534 10.7942841901911,26.396458252428022" style="fill:none;stroke:black;stroke-width:1"/>
<polygon points="11.12869993516724,22.730413658401027 14.44318779309136,25.23921297904985 10.7942841901911,26.396458252428022" style="fill:none;stroke:black;stroke-width:1"/>
<polygon points="12.199454400877904,17.051934450735995 9.715605699168858,19.492327462405225 9.212598103796655,15.981433048779904" style="fill:none;stroke:black;stroke-width:1"/>
<polygon points="9.715605699168858,19.492327462405225 12.199454400877904,17.051934450735995 11.10553550148576,19.683973591412315" style="fill:none;stroke:black;stroke-width:1"/>
<polygon points="9.715605699168858,19.492327462405225 11.10553550148576,19.683973591412315 9.725272138388842,22.59500594664569" style="fill:none;stroke:black;stroke-width:1"/>
<polygon points="9.715605699168858,19.492327462405225 9.725272138388842,22.59500594664569 6.776636402309013,9.618461544737807" style="fill:none;stroke:black;stroke-width:1"/>
<polygon points="9.212598103796655,15.981433048779904 9.715605699168858,19.492327462405225 6.776636402309013,9.618461544737807" style="fill:none;stroke:black;stroke-width:1"/>
<polygon points="16.39870438704502,25.65034247206832 16.605341428193164,25.638630169876016 16.576020348079545,27.52916683599148" style="fill:none;stroke:black;stroke-width:1"/>
<polygon points="16.605341428193164,25.638630169876016 16.81042730352412,25.627152194826028 16.576020348079545,27.52916683599148" style="fill:none;stroke:black;stroke-width:1"/>
<polygon points="16.605341428193164,25.638630169876016 16.39870438704502,25.65034247206832 16.362002797004838,24.117527809179997" style="fill:none;stroke:black;stroke-width:1"/>
<polygon points="17.220598579648364,25.6041974860728 17.42568421771049,25.592720131696183 16.576020348079545,27.52916683599148" style="fill:none;stroke:black;stroke-width:1"/>
<polygon points="17.220598579648364,25.6041974860728 17.193660050567082,24.0754907732536 17.42568421771049,25.592720131696183" style="fill:none;stroke:black;stroke-width:1"/>
<polygon points="18.040941131896865,25.558288068566338 18.24850253084521,25.52909504142135 16.576020348079545,27.52916683599148" style="fill:none;stroke:black;stroke-width:1"/>
<polygon points="17.83585549383474,25.56976542294295 18.040941131896865,25.558288068566338 16.576020348079545,27.52916683599148" style="fill:none;stroke:black;stroke-width:1"/>
<polygon points="18.040941131896865,25.558288068566338 18.05103448275862,24.060689655172414 18.24850253084521,25.52909504142135" style="fill:none;stroke:black;stroke-width:1"/>
<polygon points="17.42568421771049,25.592720131696183 17.630769855772613,25.581242777319567 16.576020348079545,27.52916683599148" style="fill:none;stroke:black;stroke-width:1"/>
<polygon points="17.630769855772613,25.581242777319567 17.83585549383474,25.56976542294295 16.576020348079545,27.52916683599148" style="fill:none;stroke:black;stroke-width:1"/>
<polygon points="18.05103448275862,24.060689655172414 17.33778109857878,21.526456737204597 18.26679994220757,24.093768556408104" style="fill:none;stroke:black;stroke-width:1"/>
<polygon points="16.39870438704502,25.65034247206832 16.15691715894271,24.129005163556613 16.362002797004838,24.117527809179997" style="fill:none;stroke:black;stroke-width:1"/>
<polygon points="16.18978558100237,25.660751968257994 16.15691715894271,24.129005163556613 16.39870438704502,25.65034247206832" style="fill:none;stroke:black;stroke-width:1"/>
<polygon points="15.766328413937766,25.676670277154628 15.541660244756343,24.163437226686458 15.746745882818464,24.151959872309845" style="fill:none;stroke:black;stroke-width:1"/>
<polygon points="12.435015506937901,21.277047897340648 11.12869993516724,22.730413658401027 11.10553550148576,19.683973591412315" style="fill:none;stroke:black;stroke-width:1"/>
<polygon points="12.339370531541851,21.17444165640802 12.435015506937901,21.277047897340648 11.10553550148576,19.683973591412315" style="fill:none;stroke:black;stroke-width:1"/>
<polygon points="18.240612251823535,19.31416194762951 18.28283839399062,19.629230853903962 15.91465370367521,17.045083347818775" style="fill:none;stroke:black;stroke-width:1"/>
<polygon points="21.270221338423863,19.110391121857912 20.317196954997254,20.388225926439905 20.083924406792914,20.32437871440936" style="fill:none;stroke:black;stroke-width:1"/>
<polygon points="20.317196954997254,20.388225926439905 21.270221338423863,19.110391121857912 21.259150318806995,22.33155684399386" style="fill:none;stroke:black;stroke-width:1"/>
<polygon points="16.499272144595366,8.954390100738985 17.318653957850774,9.044006260743465 16.741783937851245,9.098072193475584" style="fill:none;stroke:black;stroke-width:1"/>
<polygon points="16.414820645215393,11.128583986702262 16.499272144595366,8.954390100738985 16.741783937851245,9.098072193475584" style="fill:none;stroke:black;stroke-width:1"/>
<polygon points="20.13291568719548,11.118833431653691 17.539885324300652,8.85323200517677 17.6712822309013,8.589302893402529" style="fill:none;stroke:black;stroke-width:1"/>
<polygon points="17.539885324300652,8.85323200517677 20.13291568719548,11.118833431653691 17.318653957850774,9.044006260743465" style="fill:none;stroke:black;stroke-width:1"/>
<polygon points="16.499272144595366,8.954390100738985 17.539885324300652,8.85323200517677 17.318653957850774,9.044006260743465" style="fill:none;stroke:black;stroke-width:1"/>
<polygon points="17.539885324300652,8.85323200517677 16.280865652884117,8.45300997695978 17.6712822309013,8.589302893402529" style="fill:none;stroke:black;stroke-width:1"/>
<polygon points="17.035622606945875,9.13299896958653 20.13291568719548,11.118833431653691 16.414820645215393,11.128583986702262" style="fill:none;stroke:black;stroke-width:1"/>
<polygon points="20.13291568719548,11.118833431653691 17.035622606945875,9.13299896958653 17.318653957850774,9.044006260743465" style="fill:none;stroke:black;stroke-width:1"/>
<polygon points="17.035622606945875,9.13299896958653 16.414820645215393,11.128583986702262 16.741783937851245,9.098072193475584" style="fill:none;stroke:black;stroke-width:1"/>
<polygon points="17.318653957850774,9.044006260743465 17.035622606945875,9.13299896958653 16.741783937851245,9.098072193475584" style="fill:none;stroke:black;stroke-width:1"/>
<polygon points="15.982703910305437,5.064767676392935 15.140725275249952,6.291714566302633 15.750534165984288,4.902312323037573" style="fill:none;stroke:black;stroke-width:1"/>
<polygon points="15.140725275249952,6.291714566302633 14.89976330240499,6.130018301368231 15.750534165984288,4.902312323037573" style="fill:none;stroke:black;stroke-width:1"/>
<polygon points="15.140725275249952,6.291714566302633 15.982703910305437,5.064767676392935 16.202393420500556,5.2412337745659165" style="fill:none;stroke:black;stroke-width:1"/>
<polygon points="15.50650174126918,4.754616264478098 14.640416370409191,5.98836015758031 15.251224189892177,4.622428050692775" style="fill:none;stroke:black;stroke-width:1"/>
<polygon points="14.89976330240499,6.130018301368231 14.640416370409191,5.98836015758031 15.50650174126918,4.754616264478098" style="fill:none;stroke:black;stroke-width:1"/>
<polygon points="14.640416370409191,5.98836015758031 14.89976330240499,6.130018301368231 14.36456285664649,5.868192339599334" style="fill:none;stroke:black;stroke-width:1"/>
<polygon points="16.78123029504361,5.847177107256194 16.60186152358444,5.633204005451687 18.136130502927365,3.8224059321456636" style="fill:none;stroke:black;stroke-width:1"/>
<polygon points="16.60186152358444,5.633204005451687 16.408985142837583,5.430962067578258 18.136130502927365,3.8224059321456636" style="fill:none;stroke:black;stroke-width:1"/>
<polygon points="16.947955296755993,6.073846355661841 16.78123029504361,5.847177107256194 18.136130502927365,3.8224059321456636" style="fill:none;stroke:black;stroke-width:1"/>
<polygon points="17.100972423395373,6.312957719123463 16.947955296755993,6.073846355661841 18.136130502927365,3.8224059321456636" style="fill:none;stroke:black;stroke-width:1"/>
<polygon points="14.709403922080782,4.407569357357638 14.626308594988966,2.9985411305722187 16.68054585087985,1.6129067071481253" style="fill:none;stroke:black;stroke-width:1"/>
<polygon points="14.709403922080782,4.407569357357638 14.424096313110523,4.326395977764358 14.626308594988966,2.9985411305722187" style="fill:none;stroke:black;stroke-width:1"/>
<polygon points="13.19521825831706,4.785453619521436 11.719690226883142,5.153432088705599 13.017409713433743,2.1561647238893076" style="fill:none;stroke:black;stroke-width:1"/>
<polygon points="13.489287181352692,5.5786239909927575 12.696725603235324,11.138334541750835 11.719690226883142,5.153432088705599" style="fill:none;stroke:black;stroke-width:1"/>
<polygon points="13.285070735735323,5.366467843404504 13.489287181352692,5.5786239909927575 11.719690226883142,5.153432088705599" style="fill:none;stroke:black;stroke-width:1"/>
<polygon points="19.96218685052171,19.860104507924248 21.270221338423863,19.110391121857912 20.083924406792914,20.32437871440936" style="fill:none;stroke:black;stroke-width:1"/>
<polygon points="19.96218685052171,19.860104507924248 19.66602505959206,19.55495121636036 21.270221338423863,19.110391121857912" style="fill:none;stroke:black;stroke-width:1"/>
<polygon points="18.77441873010689,19.163144518530856 18.940285633275465,18.707104555768876 21.270221338423863,19.110391121857912" style="fill:none;stroke:black;stroke-width:1"/>
<polygon points="18.81157185704095,19.586567093652924 18.77441873010689,19.163144518530856 21.270221338423863,19.110391121857912" style="fill:none;stroke:black;stroke-width:1"/>
<polygon points="19.325567768478297,19.523069318635503 19.142097928712072,19.702728637766647 21.270221338423863,19.110391121857912" style="fill:none;stroke:black;stroke-width:1"/>
<polygon points="19.142097928712072,19.702728637766647 18.81157185704095,19.586567093652924 21.270221338423863,19.110391121857912" style="fill:none;stroke:black;stroke-width:1"/>
<polygon points="19.628693032908373,17.04059850485577 17.908301972139284,19.383012508934698 17.43773003603063,15.65966325579084" style="fill:none;stroke:black;stroke-width:1"/>
<polygon points="14.276576777897201,20.053957656280176 14.22524302919792,19.91915742468426 15.91465370367521,17.045083347818775" style="fill:none;stroke:black;stroke-width:1"/>
<polygon points="14.22524302919792,19.91915742468426 14.15782579966837,19.793199161498237 15.91465370367521,17.045083347818775" style="fill:none;stroke:black;stroke-width:1"/>
<polygon points="14.310845676324577,20.19551434006468 14.276576777897201,20.053957656280176 15.91465370367521,17.045083347818775" style="fill:none;stroke:black;stroke-width:1"/>
<polygon points="16.81042730352412,25.627152194826028 17.015512941586245,25.61567484044941 16.576020348079545,27.52916683599148" style="fill:none;stroke:black;stroke-width:1"/>
<polygon points="17.015512941586245,25.61567484044941 17.220598579648364,25.6041974860728 16.576020348079545,27.52916683599148" style="fill:none;stroke:black;stroke-width:1"/>
<polygon points="16.77370820025759,24.094509653625142 17.015512941586245,25.61567484044941 16.81042730352412,25.627152194826028" style="fill:none;stroke:black;stroke-width:1"/>
<polygon points="17.193660050567082,24.0754907732536 17.406323554221782,24.068508110610527 17.42568421771049,25.592720131696183" style="fill:none;stroke:black;stroke-width:1"/>
<polygon points="17.406323554221782,24.068508110610527 17.630769855772613,25.581242777319567 17.42568421771049,25.592720131696183" style="fill:none;stroke:black;stroke-width:1"/>
<polygon points="16.86064517541251,20.67001585671796 17.406323554221782,24.068508110610527 16.851600392393415,20.21183239231269" style="fill:none;stroke:black;stroke-width:1"/>
<polygon points="17.406323554221782,24.068508110610527 17.193660050567082,24.0754907732536 16.851600392393415,20.21183239231269" style="fill:none;stroke:black;stroke-width:1"/>
<polygon points="16.567091503007298,24.106042134300235 16.605341428193164,25.638630169876016 16.362002797004838,24.117527809179997" style="fill:none;stroke:black;stroke-width:1"/>
<polygon points="16.605341428193164,25.638630169876016 16.567091503007298,24.106042134300235 16.81042730352412,25.627152194826028" style="fill:none;stroke:black;stroke-width:1"/>
<polygon points="16.567091503007298,24.106042134300235 16.77370820025759,24.094509653625142 16.81042730352412,25.627152194826028" style="fill:none;stroke:black;stroke-width:1"/>
<polygon points="17.02487582455357,21.133412315740227 17.33778109857878,21.526456737204597 18.05103448275862,24.060689655172414" style="fill:none;stroke:black;stroke-width:1"/>
<polygon points="18.276299280501384,21.95761917346048 18.458744259573123,24.18601330155283 18.26679994220757,24.093768556408104" style="fill:none;stroke:black;stroke-width:1"/>
<polygon points="17.214023687044445,19.511900376531457 16.567091503007298,24.106042134300235 14.053090486562818,21.15802749080492" style="fill:none;stroke:black;stroke-width:1"/>
<polygon points="15.336574606694219,24.174914581063074 15.337421406407755,25.684400565616258 15.131488968632095,24.18639193543969" style="fill:none;stroke:black;stroke-width:1"/>
<polygon points="15.95183152088059,24.14048251793323 16.15691715894271,24.129005163556613 16.18978558100237,25.660751968257994" style="fill:none;stroke:black;stroke-width:1"/>
<polygon points="15.766328413937766,25.676670277154628 15.55240292276791,25.681682957124174 15.541660244756343,24.163437226686458" style="fill:none;stroke:black;stroke-width:1"/>
<polygon points="15.336574606694219,24.174914581063074 15.55240292276791,25.681682957124174 15.337421406407755,25.684400565616258" style="fill:none;stroke:black;stroke-width:1"/>
<polygon points="15.55240292276791,25.681682957124174 15.336574606694219,24.174914581063074 15.541660244756343,24.163437226686458" style="fill:none;stroke:black;stroke-width:1"/>
<polygon points="15.337421406407755,25.684400565616258 15.55240292276791,25.681682957124174 16.576020348079545,27.52916683599148" style="fill:none;stroke:black;stroke-width:1"/>
<polygon points="15.55240292276791,25.681682957124174 15.766328413937766,25.676670277154628 16.576020348079545,27.52916683599148" style="fill:none;stroke:black;stroke-width:1"/>
<polygon points="12.199454400877904,17.051934450735995 12.148050286597087,20.072949584971337 11.10553550148576,19.683973591412315" style="fill:none;stroke:black;stroke-width:1"/>
<polygon points="11.12869993516724,22.730413658401027 12.784531175522622,21.494841245156106 14.575461885029634,24.43551681994469" style="fill:none;stroke:black;stroke-width:1"/>
<polygon points="17.63644763133803,19.404635499805636 15.91465370367521,17.045083347818775 17.441725027952778,19.10905637745484" style="fill:none;stroke:black;stroke-width:1"/>
<polygon points="17.63644763133803,19.404635499805636 17.912357342444494,19.444037153387413 15.91465370367521,17.045083347818775" style="fill:none;stroke:black;stroke-width:1"/>
<polygon points="18.052949042853776,19.261692551345742 18.240612251823535,19.31416194762951 15.91465370367521,17.045083347818775" style="fill:none;stroke:black;stroke-width:1"/>
<polygon points="17.912357342444494,19.444037153387413 18.052949042853776,19.261692551345742 15.91465370367521,17.045083347818775" style="fill:none;stroke:black;stroke-width:1"/>
<polygon points="18.28283839399062,19.629230853903962 18.050893062622336,20.101934856059376 15.91465370367521,17.045083347818775" style="fill:none;stroke:black;stroke-width:1"/>
<polygon points="18.050893062622336,20.101934856059376 14.310845676324577,20.19551434006468 15.91465370367521,17.045083347818775" style="fill:none;stroke:black;stroke-width:1"/>
<polygon points="19.807181429272294,19.972618841633498 20.154521155320207,20.166413294532905 21.259150318806995,22.33155684399386" style="fill:none;stroke:black;stroke-width:1"/>
<polygon points="20.154521155320207,20.166413294532905 20.317196954997254,20.388225926439905 21.259150318806995,22.33155684399386" style="fill:none;stroke:black;stroke-width:1"/>
<polygon points="19.319939311745568,21.753953588469866 19.716528443580376,21.440982758377125 21.259150318806995,22.33155684399386" style="fill:none;stroke:black;stroke-width:1"/>
<polygon points="19.716528443580376,21.440982758377125 19.989887479472,21.028460964418116 21.259150318806995,22.33155684399386" style="fill:none;stroke:black;stroke-width:1"/>
<polygon points="19.34616798551831,19.88677768445985 19.807181429272294,19.972618841633498 21.259150318806995,22.33155684399386" style="fill:none;stroke:black;stroke-width:1"/>
<polygon points="19.989887479472,21.028460964418116 19.34616798551831,19.88677768445985 21.259150318806995,22.33155684399386" style="fill:none;stroke:black;stroke-width:1"/>
<polygon points="17.553954134219307,7.382716121135244 17.466772518729307,7.099390398791728 21.00589462887659,5.231002656816094" style="fill:none;stroke:black;stroke-width:1"/>
<polygon points="17.692237287716306,8.283087680015464 17.66799307166119,7.975838615115862 21.00589462887659,5.231002656816094" style="fill:none;stroke:black;stroke-width:1"/>
<polygon points="17.66799307166119,7.975838615115862 17.692237287716306,8.283087680015464 16.280865652884117,8.45300997695978" style="fill:none;stroke:black;stroke-width:1"/>
<polygon points="17.539885324300652,8.85323200517677 16.336541962446596,8.729928173311542 16.280865652884117,8.45300997695978" style="fill:none;stroke:black;stroke-width:1"/>
<polygon points="16.336541962446596,8.729928173311542 17.539885324300652,8.85323200517677 16.499272144595366,8.954390100738985" style="fill:none;stroke:black;stroke-width:1"/>
<polygon points="16.336541962446596,8.729928173311542 16.499272144595366,8.954390100738985 16.414820645215393,11.128583986702262" style="fill:none;stroke:black;stroke-width:1"/>
<polygon points="16.336541962446596,8.729928173311542 16.414820645215393,11.128583986702262 12.696725603235324,11.138334541750835" style="fill:none;stroke:black;stroke-width:1"/>
<polygon points="16.280865652884117,8.45300997695978 16.336541962446596,8.729928173311542 12.696725603235324,11.138334541750835" style="fill:none;stroke:black;stroke-width:1"/>
<polygon points="16.408985142837583,5.430962067578258 15.361423911560125,6.471996747723047 16.202393420500556,5.2412337745659165" style="fill:none;stroke:black;stroke-width:1"/>
<polygon points="15.361423911560125,6.471996747723047 15.140725275249952,6.291714566302633 16.202393420500556,5.2412337745659165" style="fill:none;stroke:black;stroke-width:1"/>
<polygon points="14.709403922080782,4.407569357357638 14.985319065585355,4.506496231659866 14.36456285664649,5.868192339599334" style="fill:none;stroke:black;stroke-width:1"/>
<polygon points="14.640416370409191,5.98836015758031 14.985319065585355,4.506496231659866 15.251224189892177,4.622428050692775" style="fill:none;stroke:black;stroke-width:1"/>
<polygon points="14.985319065585355,4.506496231659866 14.640416370409191,5.98836015758031 14.36456285664649,5.868192339599334" style="fill:none;stroke:black;stroke-width:1"/>
<polygon points="15.251224189892177,4.622428050692775 14.985319065585355,4.506496231659866 16.68054585087985,1.6129067071481253" style="fill:none;stroke:black;stroke-width:1"/>
<polygon points="14.985319065585355,4.506496231659866 14.709403922080782,4.407569357357638 16.68054585087985,1.6129067071481253" style="fill:none;stroke:black;stroke-width:1"/>
<polygon points="13.179940136299253,5.091748162060575 13.285070735735323,5.366467843404504 11.719690226883142,5.153432088705599" style="fill:none;stroke:black;stroke-width:1"/>
<polygon points="13.19521825831706,4.785453619521436 13.179940136299253,5.091748162060575 11.719690226883142,5.153432088705599" style="fill:none;stroke:black;stroke-width:1"/>
<polygon points="13.179940136299253,5.091748162060575 13.19521825831706,4.785453619521436 13.285070735735323,5.366467843404504" style="fill:none;stroke:black;stroke-width:1"/>
<polygon points="13.489287181352692,5.5786239909927575 13.771034482758619,5.698275862068966 12.696725603235324,11.138334541750835" style="fill:none;stroke:black;stroke-width:1"/>
<polygon points="13.771034482758619,5.698275862068966 16.280865652884117,8.45300997695978 12.696725603235324,11.138334541750835" style="fill:none;stroke:black;stroke-width:1"/>
<polygon points="13.771034482758619,5.698275862068966 13.489287181352692,5.5786239909927575 13.553319923539005,4.329533934660119" style="fill:none;stroke:black;stroke-width:1"/>
<polygon points="13.771034482758619,5.698275862068966 15.361423911560125,6.471996747723047 16.280865652884117,8.45300997695978" style="fill:none;stroke:black;stroke-width:1"/>
<polygon points="15.361423911560125,6.471996747723047 13.771034482758619,5.698275862068966 15.140725275249952,6.291714566302633" style="fill:none;stroke:black;stroke-width:1"/>
<polygon points="13.19521825831706,4.785453619521436 13.330244946265239,4.517328401206822 13.285070735735323,5.366467843404504" style="fill:none;stroke:black;stroke-width:1"/>
<polygon points="13.330244946265239,4.517328401206822 13.489287181352692,5.5786239909927575 13.285070735735323,5.366467843404504" style="fill:none;stroke:black;stroke-width:1"/>
<polygon points="13.489287181352692,5.5786239909927575 13.330244946265239,4.517328401206822 13.553319923539005,4.329533934660119" style="fill:none;stroke:black;stroke-width:1"/>
<polygon points="13.330244946265239,4.517328401206822 13.19521825831706,4.785453619521436 13.017409713433743,2.1561647238893076" style="fill:none;stroke:black;stroke-width:1"/>
<polygon points="14.626308594988966,2.9985411305722187 13.330244946265239,4.517328401206822 13.017409713433743,2.1561647238893076" style="fill:none;stroke:black;stroke-width:1"/>
<polygon points="13.553319923539005,4.329533934660119 13.330244946265239,4.517328401206822 14.626308594988966,2.9985411305722187" style="fill:none;stroke:black;stroke-width:1"/>
<polygon points="19.53661741770951,19.367928023900298 19.049345596302917,19.270489872405005 19.628693032908373,17.04059850485577" style="fill:none;stroke:black;stroke-width:1"/>
<polygon points="19.069643152118196,18.422295191641286 18.411806841925596,19.528211024698283 19.628693032908373,17.04059850485577" style="fill:none;stroke:black;stroke-width:1"/>
<polygon points="18.411806841925596,19.528211024698283 17.908301972139284,19.383012508934698 19.628693032908373,17.04059850485577" style="fill:none;stroke:black;stroke-width:1"/>
<polygon points="14.713544055350559,25.558737029921538 14.905470140673389,25.651009785177575 12.941615269894887,26.56662641026534" style="fill:none;stroke:black;stroke-width:1"/>
<polygon points="14.44318779309136,25.23921297904985 14.556132152469171,25.41812233038698 12.941615269894887,26.56662641026534" style="fill:none;stroke:black;stroke-width:1"/>
<polygon points="14.556132152469171,25.41812233038698 14.713544055350559,25.558737029921538 12.941615269894887,26.56662641026534" style="fill:none;stroke:black;stroke-width:1"/>
<polygon points="14.713544055350559,25.558737029921538 14.556132152469171,25.41812233038698 14.575461885029634,24.43551681994469" style="fill:none;stroke:black;stroke-width:1"/>
<polygon points="14.456765749156427,24.608991159461315 11.12869993516724,22.730413658401027 14.575461885029634,24.43551681994469" style="fill:none;stroke:black;stroke-width:1"/>
<polygon points="14.456765749156427,24.608991159461315 14.389720247885569,24.812006511932307 11.12869993516724,22.730413658401027" style="fill:none;stroke:black;stroke-width:1"/>
<polygon points="14.389720247885569,24.812006511932307 14.456765749156427,24.608991159461315 14.44318779309136,25.23921297904985" style="fill:none;stroke:black;stroke-width:1"/>
<polygon points="14.556132152469171,25.41812233038698 14.456765749156427,24.608991159461315 14.575461885029634,24.43551681994469" style="fill:none;stroke:black;stroke-width:1"/>
<polygon points="14.456765749156427,24.608991159461315 14.556132152469171,25.41812233038698 14.44318779309136,25.23921297904985" style="fill:none;stroke:black;stroke-width:1"/>
<polygon points="14.384664338279256,25.032056268386093 14.44318779309136,25.23921297904985 11.12869993516724,22.730413658401027" style="fill:none;stroke:black;stroke-width:1"/>
<polygon points="14.389720247885569,24.812006511932307 14.384664338279256,25.032056268386093 11.12869993516724,22.730413658401027" style="fill:none;stroke:black;stroke-width:1"/>
<polygon points="14.384664338279256,25.032056268386093 14.389720247885569,24.812006511932307 14.44318779309136,25.23921297904985" style="fill:none;stroke:black;stroke-width:1"/>
<polygon points="16.982676324344936,24.084241910434034 17.015512941586245,25.61567484044941 16.77370820025759,24.094509653625142" style="fill:none;stroke:black;stroke-width:1"/>
<polygon points="17.193660050567082,24.0754907732536 16.982676324344936,24.084241910434034 16.851600392393415,20.21183239231269" style="fill:none;stroke:black;stroke-width:1"/>
<polygon points="17.220598579648364,25.6041974860728 16.982676324344936,24.084241910434034 17.193660050567082,24.0754907732536" style="fill:none;stroke:black;stroke-width:1"/>
<polygon points="17.015512941586245,25.61567484044941 16.982676324344936,24.084241910434034 17.220598579648364,25.6041974860728" style="fill:none;stroke:black;stroke-width:1"/>
<polygon points="17.630769855772613,25.581242777319567 17.620331010606773,24.063545791031512 17.83585549383474,25.56976542294295" style="fill:none;stroke:black;stroke-width:1"/>
<polygon points="17.406323554221782,24.068508110610527 17.620331010606773,24.063545791031512 17.630769855772613,25.581242777319567" style="fill:none;stroke:black;stroke-width:1"/>
<polygon points="17.02487582455357,21.133412315740227 17.620331010606773,24.063545791031512 16.86064517541251,20.67001585671796" style="fill:none;stroke:black;stroke-width:1"/>
<polygon points="17.620331010606773,24.063545791031512 17.406323554221782,24.068508110610527 16.86064517541251,20.67001585671796" style="fill:none;stroke:black;stroke-width:1"/>
<polygon points="17.33778109857878,21.526456737204597 17.765881018359696,21.811598035452384 18.26679994220757,24.093768556408104" style="fill:none;stroke:black;stroke-width:1"/>
<polygon points="17.765881018359696,21.811598035452384 18.276299280501384,21.95761917346048 18.26679994220757,24.093768556408104" style="fill:none;stroke:black;stroke-width:1"/>
<polygon points="18.458744259573123,24.18601330155283 18.827167444823203,21.936279261462484 19.319939311745568,21.753953588469866" style="fill:none;stroke:black;stroke-width:1"/>
<polygon points="18.276299280501384,21.95761917346048 18.827167444823203,21.936279261462484 18.458744259573123,24.18601330155283" style="fill:none;stroke:black;stroke-width:1"/>
<polygon points="16.982676324344936,24.084241910434034 16.977104799806487,19.81509430189352 16.851600392393415,20.21183239231269" style="fill:none;stroke:black;stroke-width:1"/>
<polygon points="16.977104799806487,19.81509430189352 16.982676324344936,24.084241910434034 16.77370820025759,24.094509653625142" style="fill:none;stroke:black;stroke-width:1"/>
<polygon points="16.567091503007298,24.106042134300235 16.977104799806487,19.81509430189352 16.77370820025759,24.094509653625142" style="fill:none;stroke:black;stroke-width:1"/>
<polygon points="17.214023687044445,19.511900376531457 16.977104799806487,19.81509430189352 16.567091503007298,24.106042134300235" style="fill:none;stroke:black;stroke-width:1"/>
<polygon points="15.978891444991268,25.669610592076335 15.766328413937766,25.676670277154628 15.746745882818464,24.151959872309845" style="fill:none;stroke:black;stroke-width:1"/>
<polygon points="15.95183152088059,24.14048251793323 15.978891444991268,25.669610592076335 15.746745882818464,24.151959872309845" style="fill:none;stroke:black;stroke-width:1"/>
<polygon points="15.978891444991268,25.669610592076335 15.95183152088059,24.14048251793323 16.18978558100237,25.660751968257994" style="fill:none;stroke:black;stroke-width:1"/>
<polygon points="15.978891444991268,25.669610592076335 16.18978558100237,25.660751968257994 16.576020348079545,27.52916683599148" style="fill:none;stroke:black;stroke-width:1"/>
<polygon points="15.766328413937766,25.676670277154628 15.978891444991268,25.669610592076335 16.576020348079545,27.52916683599148" style="fill:none;stroke:black;stroke-width:1"/>
<polygon points="13.089547681699363,19.2983332355543 12.199454400877904,17.051934450735995 13.706450383353761,15.669351968676628" style="fill:none;stroke:black;stroke-width:1"/>
<polygon points="13.227553752777622,19.28847585478865 13.089547681699363,19.2983332355543 13.706450383353761,15.669351968676628" style="fill:none;stroke:black;stroke-width:1"/>
<polygon points="12.659538061895113,21.43848027023576 12.784531175522622,21.494841245156106 11.12869993516724,22.730413658401027" style="fill:none;stroke:black;stroke-width:1"/>
<polygon points="17.361481437796648,6.826285150793652 17.239181271547128,6.5639557875358125 21.00589462887659,5.231002656816094" style="fill:none;stroke:black;stroke-width:1"/>
<polygon points="17.466772518729307,7.099390398791728 17.361481437796648,6.826285150793652 21.00589462887659,5.231002656816094" style="fill:none;stroke:black;stroke-width:1"/>
<polygon points="17.621628610014756,7.675318443431433 17.553954134219307,7.382716121135244 21.00589462887659,5.231002656816094" style="fill:none;stroke:black;stroke-width:1"/>
<polygon points="17.66799307166119,7.975838615115862 17.621628610014756,7.675318443431433 21.00589462887659,5.231002656816094" style="fill:none;stroke:black;stroke-width:1"/>
<polygon points="16.60186152358444,5.633204005451687 15.560085235023362,6.669730672722716 16.408985142837583,5.430962067578258" style="fill:none;stroke:black;stroke-width:1"/>
<polygon points="15.560085235023362,6.669730672722716 15.361423911560125,6.471996747723047 16.408985142837583,5.430962067578258" style="fill:none;stroke:black;stroke-width:1"/>
<polygon points="15.560085235023362,6.669730672722716 16.60186152358444,5.633204005451687 16.78123029504361,5.847177107256194" style="fill:none;stroke:black;stroke-width:1"/>
<polygon points="15.361423911560125,6.471996747723047 15.560085235023362,6.669730672722716 16.280865652884117,8.45300997695978" style="fill:none;stroke:black;stroke-width:1"/>
<polygon points="14.074208174103632,5.770917946256819 14.709403922080782,4.407569357357638 14.36456285664649,5.868192339599334" style="fill:none;stroke:black;stroke-width:1"/>
<polygon points="14.709403922080782,4.407569357357638 14.074208174103632,5.770917946256819 14.424096313110523,4.326395977764358" style="fill:none;stroke:black;stroke-width:1"/>
<polygon points="14.89976330240499,6.130018301368231 14.074208174103632,5.770917946256819 14.36456285664649,5.868192339599334" style="fill:none;stroke:black;stroke-width:1"/>
<polygon points="15.140725275249952,6.291714566302633 14.074208174103632,5.770917946256819 14.89976330240499,6.130018301368231" style="fill:none;stroke:black;stroke-width:1"/>
<polygon points="13.771034482758619,5.698275862068966 14.074208174103632,5.770917946256819 15.140725275249952,6.291714566302633" style="fill:none;stroke:black;stroke-width:1"/>
<polygon points="14.424096313110523,4.326395977764358 14.130013792406647,4.26372464285829 14.626308594988966,2.9985411305722187" style="fill:none;stroke:black;stroke-width:1"/>
<polygon points="14.074208174103632,5.770917946256819 14.130013792406647,4.26372464285829 14.424096313110523,4.326395977764358" style="fill:none;stroke:black;stroke-width:1"/>
<polygon points="14.130013792406647,4.26372464285829 14.074208174103632,5.770917946256819 13.771034482758619,5.698275862068966" style="fill:none;stroke:black;stroke-width:1"/>
<polygon points="19.20033358981189,18.370820392486408 19.85162076554133,19.182830333369907 19.628693032908373,17.04059850485577" style="fill:none;stroke:black;stroke-width:1"/>
<polygon points="19.85162076554133,19.182830333369907 19.53661741770951,19.367928023900298 19.628693032908373,17.04059850485577" style="fill:none;stroke:black;stroke-width:1"/>
<polygon points="18.89287629036042,18.2634942501423 19.069643152118196,18.422295191641286 19.628693032908373,17.04059850485577" style="fill:none;stroke:black;stroke-width:1"/>
<polygon points="18.677970653548424,18.454775415230113 18.89287629036042,18.2634942501423 19.628693032908373,17.04059850485577" style="fill:none;stroke:black;stroke-width:1"/>
<polygon points="19.049345596302917,19.270489872405005 18.705210499323634,18.88879580032545 19.628693032908373,17.04059850485577" style="fill:none;stroke:black;stroke-width:1"/>
<polygon points="18.705210499323634,18.88879580032545 18.677970653548424,18.454775415230113 19.628693032908373,17.04059850485577" style="fill:none;stroke:black;stroke-width:1"/>
<polygon points="17.38977982470494,18.799756888606264 17.441725027952778,19.10905637745484 17.43773003603063,15.65966325579084" style="fill:none;stroke:black;stroke-width:1"/>
<polygon points="17.230069131808207,18.798146635680393 17.38977982470494,18.799756888606264 17.43773003603063,15.65966325579084" style="fill:none;stroke:black;stroke-width:1"/>
<polygon points="17.908301972139284,19.383012508934698 17.500939917090335,19.127034306533087 17.43773003603063,15.65966325579084" style="fill:none;stroke:black;stroke-width:1"/>
<polygon points="17.500939917090335,19.127034306533087 17.230069131808207,18.798146635680393 17.43773003603063,15.65966325579084" style="fill:none;stroke:black;stroke-width:1"/>
<polygon points="15.337421406407755,25.684400565616258 15.12196952760822,25.684827586206897 15.131488968632095,24.18639193543969" style="fill:none;stroke:black;stroke-width:1"/>
<polygon points="15.12196952760822,25.684827586206897 14.923927569683741,24.21558496258467 15.131488968632095,24.18639193543969" style="fill:none;stroke:black;stroke-width:1"/>
<polygon points="15.12196952760822,25.684827586206897 15.337421406407755,25.684400565616258 12.941615269894887,26.56662641026534" style="fill:none;stroke:black;stroke-width:1"/>
<polygon points="14.905470140673389,25.651009785177575 15.12196952760822,25.684827586206897 12.941615269894887,26.56662641026534" style="fill:none;stroke:black;stroke-width:1"/>
<polygon points="15.12196952760822,25.684827586206897 14.905470140673389,25.651009785177575 14.713544055350559,25.558737029921538" style="fill:none;stroke:black;stroke-width:1"/>
<polygon points="17.620331010606773,24.063545791031512 17.835346595019807,24.060855683043243 17.83585549383474,25.56976542294295" style="fill:none;stroke:black;stroke-width:1"/>
<polygon points="18.040941131896865,25.558288068566338 17.835346595019807,24.060855683043243 18.05103448275862,24.060689655172414" style="fill:none;stroke:black;stroke-width:1"/>
<polygon points="17.835346595019807,24.060855683043243 18.040941131896865,25.558288068566338 17.83585549383474,25.56976542294295" style="fill:none;stroke:black;stroke-width:1"/>
<polygon points="17.835346595019807,24.060855683043243 17.02487582455357,21.133412315740227 18.05103448275862,24.060689655172414" style="fill:none;stroke:black;stroke-width:1"/>
<polygon points="17.835346595019807,24.060855683043243 17.620331010606773,24.063545791031512 17.02487582455357,21.133412315740227" style="fill:none;stroke:black;stroke-width:1"/>
<polygon points="13.365020020475587,19.295300320506684 13.227553752777622,19.28847585478865 13.706450383353761,15.669351968676628" style="fill:none;stroke:black;stroke-width:1"/>
<polygon points="15.91465370367521,17.045083347818775 13.75539257449742,19.41399032599191 13.706450383353761,15.669351968676628" style="fill:none;stroke:black;stroke-width:1"/>
<polygon points="13.75539257449742,19.41399032599191 13.630399460869912,19.357629351071573 13.706450383353761,15.669351968676628" style="fill:none;stroke:black;stroke-width:1"/>
<polygon points="12.461573378766614,19.591305885836945 12.36186594430658,19.69482666911085 12.199454400877904,17.051934450735995" style="fill:none;stroke:black;stroke-width:1"/>
<polygon points="12.36186594430658,19.69482666911085 12.275353615050644,19.810789066435554 12.199454400877904,17.051934450735995" style="fill:none;stroke:black;stroke-width:1"/>
<polygon points="12.203633806135437,19.937455659025492 12.148050286597087,20.072949584971337 12.199454400877904,17.051934450735995" style="fill:none;stroke:black;stroke-width:1"/>
<polygon points="12.275353615050644,19.810789066435554 12.203633806135437,19.937455659025492 12.199454400877904,17.051934450735995" style="fill:none;stroke:black;stroke-width:1"/>
<polygon points="12.435015506937901,21.277047897340648 12.542359578955425,21.365512359770534 11.12869993516724,22.730413658401027" style="fill:none;stroke:black;stroke-width:1"/>
<polygon points="12.542359578955425,21.365512359770534 12.659538061895113,21.43848027023576 11.12869993516724,22.730413658401027" style="fill:none;stroke:black;stroke-width:1"/>
<polygon points="15.12196952760822,25.684827586206897 14.734431096263823,24.301160782584606 14.923927569683741,24.21558496258467" style="fill:none;stroke:black;stroke-width:1"/>
<polygon points="14.734431096263823,24.301160782584606 14.713544055350559,25.558737029921538 14.575461885029634,24.43551681994469" style="fill:none;stroke:black;stroke-width:1"/>
<polygon points="14.734431096263823,24.301160782584606 15.12196952760822,25.684827586206897 14.713544055350559,25.558737029921538" style="fill:none;stroke:black;stroke-width:1"/>
<polygon points="12.784531175522622,21.494841245156106 12.915083836578365,21.534049024473227 14.575461885029634,24.43551681994469" style="fill:none;stroke:black;stroke-width:1"/>
<polygon points="12.915083836578365,21.534049024473227 14.734431096263823,24.301160782584606 14.575461885029634,24.43551681994469" style="fill:none;stroke:black;stroke-width:1"/>
<polygon points="14.734431096263823,24.301160782584606 12.915083836578365,21.534049024473227 13.04994277924742,21.557244616860793" style="fill:none;stroke:black;stroke-width:1"/>
<polygon points="13.59494937765882,21.484568706964325 15.336574606694219,24.174914581063074 15.131488968632095,24.18639193543969" style="fill:none;stroke:black;stroke-width:1"/>
<polygon points="16.947955296755993,6.073846355661841 15.736995335140586,6.885035748566886 16.78123029504361,5.847177107256194" style="fill:none;stroke:black;stroke-width:1"/>
<polygon points="15.736995335140586,6.885035748566886 15.560085235023362,6.669730672722716 16.78123029504361,5.847177107256194" style="fill:none;stroke:black;stroke-width:1"/>
<polygon points="15.560085235023362,6.669730672722716 15.736995335140586,6.885035748566886 16.280865652884117,8.45300997695978" style="fill:none;stroke:black;stroke-width:1"/>
<polygon points="13.83144525885003,4.24124074492859 13.771034482758619,5.698275862068966 13.553319923539005,4.329533934660119" style="fill:none;stroke:black;stroke-width:1"/>
<polygon points="13.83144525885003,4.24124074492859 14.130013792406647,4.26372464285829 13.771034482758619,5.698275862068966" style="fill:none;stroke:black;stroke-width:1"/>
<polygon points="13.83144525885003,4.24124074492859 13.553319923539005,4.329533934660119 14.626308594988966,2.9985411305722187" style="fill:none;stroke:black;stroke-width:1"/>
<polygon points="14.130013792406647,4.26372464285829 13.83144525885003,4.24124074492859 14.626308594988966,2.9985411305722187" style="fill:none;stroke:black;stroke-width:1"/>
<polygon points="13.630399460869912,19.357629351071573 13.499848234097488,19.318447753218226 13.706450383353761,15.669351968676628" style="fill:none;stroke:black;stroke-width:1"/>
<polygon points="13.499848234097488,19.318447753218226 13.365020020475587,19.295300320506684 13.706450383353761,15.669351968676628" style="fill:none;stroke:black;stroke-width:1"/>
<polygon points="13.87257105743711,19.486958236457145 15.91465370367521,17.045083347818775 13.979915129454636,19.575422698887028" style="fill:none;stroke:black;stroke-width:1"/>
<polygon points="13.87257105743711,19.486958236457145 13.75539257449742,19.41399032599191 15.91465370367521,17.045083347818775" style="fill:none;stroke:black;stroke-width:1"/>
<polygon points="12.572644334126487,19.501794001540368 12.461573378766614,19.591305885836945 12.199454400877904,17.051934450735995" style="fill:none;stroke:black;stroke-width:1"/>
<polygon points="12.692785014597204,19.427283902522376 12.572644334126487,19.501794001540368 12.199454400877904,17.051934450735995" style="fill:none;stroke:black;stroke-width:1"/>
<polygon points="12.820182196234418,19.3680892210339 12.692785014597204,19.427283902522376 12.199454400877904,17.051934450735995" style="fill:none;stroke:black;stroke-width:1"/>
<polygon points="12.257104836724166,21.059271434729443 12.339370531541851,21.17444165640802 11.10553550148576,19.683973591412315" style="fill:none;stroke:black;stroke-width:1"/>
<polygon points="12.189687607194614,20.93331317154342 12.257104836724166,21.059271434729443 11.10553550148576,19.683973591412315" style="fill:none;stroke:black;stroke-width:1"/>
<polygon points="12.104084960067958,20.656956256163 12.138353858495332,20.7985129399475 11.10553550148576,19.683973591412315" style="fill:none;stroke:black;stroke-width:1"/>
<polygon points="12.138353858495332,20.7985129399475 12.189687607194614,20.93331317154342 11.10553550148576,19.683973591412315" style="fill:none;stroke:black;stroke-width:1"/>
<polygon points="12.148050286597087,20.072949584971337 12.109677702588888,20.215287429076636 11.10553550148576,19.683973591412315" style="fill:none;stroke:black;stroke-width:1"/>
<polygon points="12.109677702588888,20.215287429076636 12.089310344827586,20.362413793103446 11.10553550148576,19.683973591412315" style="fill:none;stroke:black;stroke-width:1"/>
<polygon points="12.087593158471291,20.51083518969834 12.104084960067958,20.656956256163 11.10553550148576,19.683973591412315" style="fill:none;stroke:black;stroke-width:1"/>
<polygon points="12.089310344827586,20.362413793103446 12.087593158471291,20.51083518969834 11.10553550148576,19.683973591412315" style="fill:none;stroke:black;stroke-width:1"/>
<polygon points="14.923927569683741,24.21558496258467 13.462000618370544,21.527699163105666 15.131488968632095,24.18639193543969" style="fill:none;stroke:black;stroke-width:1"/>
<polygon points="13.462000618370544,21.527699163105666 13.59494937765882,21.484568706964325 15.131488968632095,24.18639193543969" style="fill:none;stroke:black;stroke-width:1"/>
<polygon points="15.336574606694219,24.174914581063074 13.722400217333991,21.42538236111522 15.541660244756343,24.163437226686458" style="fill:none;stroke:black;stroke-width:1"/>
<polygon points="13.59494937765882,21.484568706964325 13.722400217333991,21.42538236111522 15.336574606694219,24.174914581063074" style="fill:none;stroke:black;stroke-width:1"/>
<polygon points="15.541660244756343,24.163437226686458 13.722400217333991,21.42538236111522 15.746745882818464,24.151959872309845" style="fill:none;stroke:black;stroke-width:1"/>
<polygon points="15.891519772230268,7.116217622769296 16.947955296755993,6.073846355661841 17.100972423395373,6.312957719123463" style="fill:none;stroke:black;stroke-width:1"/>
<polygon points="15.891519772230268,7.116217622769296 15.736995335140586,6.885035748566886 16.947955296755993,6.073846355661841" style="fill:none;stroke:black;stroke-width:1"/>
<polygon points="15.891519772230268,7.116217622769296 17.100972423395373,6.312957719123463 17.239181271547128,6.5639557875358125" style="fill:none;stroke:black;stroke-width:1"/>
<polygon points="15.736995335140586,6.885035748566886 15.891519772230268,7.116217622769296 16.280865652884117,8.45300997695978" style="fill:none;stroke:black;stroke-width:1"/>
<polygon points="13.089547681699363,19.2983332355543 12.953081883282895,19.324942464445876 12.199454400877904,17.051934450735995" style="fill:none;stroke:black;stroke-width:1"/>
<polygon points="12.953081883282895,19.324942464445876 12.820182196234418,19.3680892210339 12.199454400877904,17.051934450735995" style="fill:none;stroke:black;stroke-width:1"/>
<polygon points="14.734431096263823,24.301160782584606 13.187444361790702,21.56410927744751 14.923927569683741,24.21558496258467" style="fill:none;stroke:black;stroke-width:1"/>
<polygon points="13.187444361790702,21.56410927744751 14.734431096263823,24.301160782584606 13.04994277924742,21.557244616860793" style="fill:none;stroke:black;stroke-width:1"/>
<polygon points="13.842556265968787,21.3509164773724 15.95183152088059,24.14048251793323 15.746745882818464,24.151959872309845" style="fill:none;stroke:black;stroke-width:1"/>
<polygon points="13.722400217333991,21.42538236111522 13.842556265968787,21.3509164773724 15.746745882818464,24.151959872309845" style="fill:none;stroke:black;stroke-width:1"/>
<polygon points="15.95183152088059,24.14048251793323 13.842556265968787,21.3509164773724 16.15691715894271,24.129005163556613" style="fill:none;stroke:black;stroke-width:1"/>
<polygon points="17.361481437796648,6.826285150793652 16.022301650310073,7.361640038410083 17.239181271547128,6.5639557875358125" style="fill:none;stroke:black;stroke-width:1"/>
<polygon points="16.022301650310073,7.361640038410083 15.891519772230268,7.116217622769296 17.239181271547128,6.5639557875358125" style="fill:none;stroke:black;stroke-width:1"/>
<polygon points="15.891519772230268,7.116217622769296 16.022301650310073,7.361640038410083 16.280865652884117,8.45300997695978" style="fill:none;stroke:black;stroke-width:1"/>
<polygon points="13.32549033351244,21.554284126743212 13.462000618370544,21.527699163105666 14.923927569683741,24.21558496258467" style="fill:none;stroke:black;stroke-width:1"/>
<polygon points="13.187444361790702,21.56410927744751 13.32549033351244,21.554284126743212 14.923927569683741,24.21558496258467" style="fill:none;stroke:black;stroke-width:1"/>
<polygon points="13.953492925727188,21.26151721271853 16.567091503007298,24.106042134300235 16.362002797004838,24.117527809179997" style="fill:none;stroke:black;stroke-width:1"/>
<polygon points="16.567091503007298,24.106042134300235 13.953492925727188,21.26151721271853 14.053090486562818,21.15802749080492" style="fill:none;stroke:black;stroke-width:1"/>
<polygon points="16.15691715894271,24.129005163556613 13.953492925727188,21.26151721271853 16.362002797004838,24.117527809179997" style="fill:none;stroke:black;stroke-width:1"/>
<polygon points="13.842556265968787,21.3509164773724 13.953492925727188,21.26151721271853 16.15691715894271,24.129005163556613" style="fill:none;stroke:black;stroke-width:1"/>
<polygon points="16.127984073397688,7.619666738569387 17.361481437796648,6.826285150793652 17.466772518729307,7.099390398791728" style="fill:none;stroke:black;stroke-width:1"/>
<polygon points="16.127984073397688,7.619666738569387 16.022301650310073,7.361640038410083 17.361481437796648,6.826285150793652" style="fill:none;stroke:black;stroke-width:1"/>
<polygon points="16.127984073397688,7.619666738569387 17.466772518729307,7.099390398791728 17.553954134219307,7.382716121135244" style="fill:none;stroke:black;stroke-width:1"/>
<polygon points="16.022301650310073,7.361640038410083 16.258622970667034,8.166987964764099 16.280865652884117,8.45300997695978" style="fill:none;stroke:black;stroke-width:1"/>
<polygon points="16.127984073397688,7.619666738569387 16.258622970667034,8.166987964764099 16.022301650310073,7.361640038410083" style="fill:none;stroke:black;stroke-width:1"/>
<polygon points="16.258622970667034,8.166987964764099 17.66799307166119,7.975838615115862 16.280865652884117,8.45300997695978" style="fill:none;stroke:black;stroke-width:1"/>
<polygon points="16.258622970667034,8.166987964764099 17.621628610014756,7.675318443431433 17.66799307166119,7.975838615115862" style="fill:none;stroke:black;stroke-width:1"/>
<polygon points="17.621628610014756,7.675318443431433 16.207210145510782,7.888661466327345 17.553954134219307,7.382716121135244" style="fill:none;stroke:black;stroke-width:1"/>
<polygon points="16.258622970667034,8.166987964764099 16.207210145510782,7.888661466327345 17.621628610014756,7.675318443431433" style="fill:none;stroke:black;stroke-width:1"/>
<polygon points="16.207210145510782,7.888661466327345 16.127984073397688,7.619666738569387 17.553954134219307,7.382716121135244" style="fill:none;stroke:black;stroke-width:1"/>
<polygon points="16.207210145510782,7.888661466327345 16.258622970667034,8.166987964764099 16.127984073397688,7.619666738569387" style="fill:none;stroke:black;stroke-width:1"/>
<polygon points="14.310845676324577,20.19551434006468 18.050893062622336,20.101934856059376 14.327337477921244,20.341635406529335" style="fill:none;stroke:black;stroke-width:1"/>
<polygon points="14.327337477921244,20.341635406529335 18.050893062622336,20.101934856059376 17.719018705230685,20.47310453988043" style="fill:none;stroke:black;stroke-width:1"/>
<polygon points="14.266884216595516,20.77969039341464 18.112735100751575,19.38683450422003 17.85202486697168,19.30022353898929" style="fill:none;stroke:black;stroke-width:1"/>
<polygon points="14.266884216595516,20.77969039341464 17.85202486697168,19.30022353898929 14.211240607949957,20.91528874239714" style="fill:none;stroke:black;stroke-width:1"/>
<polygon points="18.288062170672994,19.56588359368676 14.266884216595516,20.77969039341464 14.30541962065037,20.637241193666103" style="fill:none;stroke:black;stroke-width:1"/>
<polygon points="14.266884216595516,20.77969039341464 18.288062170672994,19.56588359368676 18.112735100751575,19.38683450422003" style="fill:none;stroke:black;stroke-width:1"/>
<polygon points="17.535937563115443,19.33451697206858 14.139533480304816,21.042032794966474 14.211240607949957,20.91528874239714" style="fill:none;stroke:black;stroke-width:1"/>
<polygon points="17.85202486697168,19.30022353898929 17.535937563115443,19.33451697206858 14.211240607949957,20.91528874239714" style="fill:none;stroke:black;stroke-width:1"/>
<polygon points="14.139533480304816,21.042032794966474 17.535937563115443,19.33451697206858 14.053090486562818,21.15802749080492" style="fill:none;stroke:black;stroke-width:1"/>
<polygon points="17.535937563115443,19.33451697206858 17.214023687044445,19.511900376531457 14.053090486562818,21.15802749080492" style="fill:none;stroke:black;stroke-width:1"/>
<polygon points="18.827167444823203,21.936279261462484 18.347241379310343,19.807931034482756 19.319939311745568,21.753953588469866" style="fill:none;stroke:black;stroke-width:1"/>
<polygon points="18.347241379310343,19.807931034482756 16.86064517541251,20.67001585671796 16.851600392393415,20.21183239231269" style="fill:none;stroke:black;stroke-width:1"/>
<polygon points="18.052949042853776,19.261692551345742 18.347241379310343,19.807931034482756 18.240612251823535,19.31416194762951" style="fill:none;stroke:black;stroke-width:1"/>
<polygon points="18.347241379310343,19.807931034482756 17.02487582455357,21.133412315740227 16.86064517541251,20.67001585671796" style="fill:none;stroke:black;stroke-width:1"/>
<polygon points="18.347241379310343,19.807931034482756 19.96218685052171,19.860104507924248 20.083924406792914,20.32437871440936" style="fill:none;stroke:black;stroke-width:1"/>
<polygon points="18.347241379310343,19.807931034482756 20.154521155320207,20.166413294532905 19.807181429272294,19.972618841633498" style="fill:none;stroke:black;stroke-width:1"/>
<polygon points="18.347241379310343,19.807931034482756 19.20033358981189,18.370820392486408 18.940285633275465,18.707104555768876" style="fill:none;stroke:black;stroke-width:1"/>
<polygon points="19.34616798551831,19.88677768445985 18.347241379310343,19.807931034482756 19.807181429272294,19.972618841633498" style="fill:none;stroke:black;stroke-width:1"/>
<polygon points="18.347241379310343,19.807931034482756 17.535937563115443,19.33451697206858 17.85202486697168,19.30022353898929" style="fill:none;stroke:black;stroke-width:1"/>
<polygon points="20.317196954997254,20.388225926439905 18.347241379310343,19.807931034482756 20.083924406792914,20.32437871440936" style="fill:none;stroke:black;stroke-width:1"/>
<polygon points="19.66602505959206,19.55495121636036 18.347241379310343,19.807931034482756 19.325567768478297,19.523069318635503" style="fill:none;stroke:black;stroke-width:1"/>
<polygon points="18.77441873010689,19.163144518530856 18.347241379310343,19.807931034482756 18.940285633275465,18.707104555768876" style="fill:none;stroke:black;stroke-width:1"/>
<polygon points="18.347241379310343,19.807931034482756 19.142097928712072,19.702728637766647 19.325567768478297,19.523069318635503" style="fill:none;stroke:black;stroke-width:1"/>
<polygon points="18.347241379310343,19.807931034482756 18.411806841925596,19.528211024698283 19.069643152118196,18.422295191641286" style="fill:none;stroke:black;stroke-width:1"/>
<polygon points="18.347241379310343,19.807931034482756 17.765881018359696,21.811598035452384 17.33778109857878,21.526456737204597" style="fill:none;stroke:black;stroke-width:1"/>
<polygon points="18.347241379310343,19.807931034482756 17.63644763133803,19.404635499805636 17.441725027952778,19.10905637745484" style="fill:none;stroke:black;stroke-width:1"/>
<polygon points="18.347241379310343,19.807931034482756 18.28283839399062,19.629230853903962 18.240612251823535,19.31416194762951" style="fill:none;stroke:black;stroke-width:1"/>
<polygon points="18.050893062622336,20.101934856059376 18.347241379310343,19.807931034482756 17.719018705230685,20.47310453988043" style="fill:none;stroke:black;stroke-width:1"/>
<polygon points="18.347241379310343,19.807931034482756 19.716528443580376,21.440982758377125 19.319939311745568,21.753953588469866" style="fill:none;stroke:black;stroke-width:1"/>
<polygon points="19.96218685052171,19.860104507924248 18.347241379310343,19.807931034482756 19.66602505959206,19.55495121636036" style="fill:none;stroke:black;stroke-width:1"/>
<polygon points="18.347241379310343,19.807931034482756 18.77441873010689,19.163144518530856 18.81157185704095,19.586567093652924" style="fill:none;stroke:black;stroke-width:1"/>
<polygon points="19.142097928712072,19.702728637766647 18.347241379310343,19.807931034482756 18.81157185704095,19.586567093652924" style="fill:none;stroke:black;stroke-width:1"/>
<polygon points="16.977104799806487,19.81509430189352 18.347241379310343,19.807931034482756 16.851600392393415,20.21183239231269" style="fill:none;stroke:black;stroke-width:1"/>
<polygon points="18.347241379310343,19.807931034482756 19.85162076554133,19.182830333369907 19.20033358981189,18.370820392486408" style="fill:none;stroke:black;stroke-width:1"/>
<polygon points="17.02487582455357,21.133412315740227 18.347241379310343,19.807931034482756 17.33778109857878,21.526456737204597" style="fill:none;stroke:black;stroke-width:1"/>
<polygon points="18.347241379310343,19.807931034482756 18.705210499323634,18.88879580032545 19.049345596302917,19.270489872405005" style="fill:none;stroke:black;stroke-width:1"/>
<polygon points="18.112735100751575,19.38683450422003 18.347241379310343,19.807931034482756 17.85202486697168,19.30022353898929" style="fill:none;stroke:black;stroke-width:1"/>
<polygon points="18.288062170672994,19.56588359368676 18.347241379310343,19.807931034482756 18.112735100751575,19.38683450422003" style="fill:none;stroke:black;stroke-width:1"/>
<polygon points="17.63644763133803,19.404635499805636 18.347241379310343,19.807931034482756 17.912357342444494,19.444037153387413" style="fill:none;stroke:black;stroke-width:1"/>
<polygon points="18.347241379310343,19.807931034482756 18.052949042853776,19.261692551345742 17.912357342444494,19.444037153387413" style="fill:none;stroke:black;stroke-width:1"/>
<polygon points="18.347241379310343,19.807931034482756 18.050893062622336,20.101934856059376 18.28283839399062,19.629230853903962" style="fill:none;stroke:black;stroke-width:1"/>
<polygon points="20.154521155320207,20.166413294532905 18.347241379310343,19.807931034482756 20.317196954997254,20.388225926439905" style="fill:none;stroke:black;stroke-width:1"/>
<polygon points="19.716528443580376,21.440982758377125 18.347241379310343,19.807931034482756 19.989887479472,21.028460964418116" style="fill:none;stroke:black;stroke-width:1"/>
<polygon points="18.347241379310343,19.807931034482756 19.34616798551831,19.88677768445985 19.989887479472,21.028460964418116" style="fill:none;stroke:black;stroke-width:1"/>
<polygon points="19.53661741770951,19.367928023900298 18.347241379310343,19.807931034482756 19.049345596302917,19.270489872405005" style="fill:none;stroke:black;stroke-width:1"/>
<polygon points="18.89287629036042,18.2634942501423 18.347241379310343,19.807931034482756 19.069643152118196,18.422295191641286" style="fill:none;stroke:black;stroke-width:1"/>
<polygon points="18.411806841925596,19.528211024698283 18.347241379310343,19.807931034482756 17.908301972139284,19.383012508934698" style="fill:none;stroke:black;stroke-width:1"/>
<polygon points="17.38977982470494,18.799756888606264 18.347241379310343,19.807931034482756 17.441725027952778,19.10905637745484" style="fill:none;stroke:black;stroke-width:1"/>
<polygon points="17.765881018359696,21.811598035452384 18.347241379310343,19.807931034482756 18.276299280501384,21.95761917346048" style="fill:none;stroke:black;stroke-width:1"/>
<polygon points="18.347241379310343,19.807931034482756 18.827167444823203,21.936279261462484 18.276299280501384,21.95761917346048" style="fill:none;stroke:black;stroke-width:1"/>
<polygon points="18.347241379310343,19.807931034482756 17.500939917090335,19.127034306533087 17.908301972139284,19.383012508934698" style="fill:none;stroke:black;stroke-width:1"/>
<polygon points="17.535937563115443,19.33451697206858 18.347241379310343,19.807931034482756 17.214023687044445,19.511900376531457" style="fill:none;stroke:black;stroke-width:1"/>
<polygon points="18.347241379310343,19.807931034482756 16.977104799806487,19.81509430189352 17.214023687044445,19.511900376531457" style="fill:none;stroke:black;stroke-width:1"/>
<polygon points="19.85162076554133,19.182830333369907 18.347241379310343,19.807931034482756 19.53661741770951,19.367928023900298" style="fill:none;stroke:black;stroke-width:1"/>
<polygon points="18.347241379310343,19.807931034482756 18.89287629036042,18.2634942501423 18.677970653548424,18.454775415230113" style="fill:none;stroke:black;stroke-width:1"/>
<polygon points="18.705210499323634,18.88879580032545 18.347241379310343,19.807931034482756 18.677970653548424,18.454775415230113" style="fill:none;stroke:black;stroke-width:1"/>
<polygon points="18.347241379310343,19.807931034482756 17.38977982470494,18.799756888606264 17.230069131808207,18.798146635680393" style="fill:none;stroke:black;stroke-width:1"/>
<polygon points="17.500939917090335,19.127034306533087 18.347241379310343,19.807931034482756 17.230069131808207,18.798146635680393" style="fill:none;stroke:black;stroke-width:1"/>
<polygon points="18.347241379310343,19.807931034482756 14.325644864199802,20.490084726051442 14.327337477921244,20.341635406529335" style="fill:none;stroke:black;stroke-width:1"/>
<polygon points="18.347241379310343,19.807931034482756 14.327337477921244,20.341635406529335 17.719018705230685,20.47310453988043" style="fill:none;stroke:black;stroke-width:1"/>
<polygon points="14.325644864199802,20.490084726051442 18.347241379310343,19.807931034482756 14.30541962065037,20.637241193666103" style="fill:none;stroke:black;stroke-width:1"/>
<polygon points="18.347241379310343,19.807931034482756 18.288062170672994,19.56588359368676 14.30541962065037,20.637241193666103" style="fill:none;stroke:black;stroke-width:1"/>
<polygon points="13.953492925727188,21.26151721271853 13.979915129454636,19.575422698887028 14.075560104850684,19.678028939819658" style="fill:none;stroke:black;stroke-width:1"/>
<polygon points="14.15782579966837,19.793199161498237 13.953492925727188,21.26151721271853 14.075560104850684,19.678028939819658" style="fill:none;stroke:black;stroke-width:1"/>
<polygon points="13.953492925727188,21.26151721271853 12.138353858495332,20.7985129399475 12.104084960067958,20.656956256163" style="fill:none;stroke:black;stroke-width:1"/>
<polygon points="13.953492925727188,21.26151721271853 14.139533480304816,21.042032794966474 14.053090486562818,21.15802749080492" style="fill:none;stroke:black;stroke-width:1"/>
<polygon points="13.953492925727188,21.26151721271853 14.22524302919792,19.91915742468426 14.276576777897201,20.053957656280176" style="fill:none;stroke:black;stroke-width:1"/>
<polygon points="14.310845676324577,20.19551434006468 13.953492925727188,21.26151721271853 14.276576777897201,20.053957656280176" style="fill:none;stroke:black;stroke-width:1"/>
<polygon points="13.953492925727188,21.26151721271853 13.87257105743711,19.486958236457145 13.979915129454636,19.575422698887028" style="fill:none;stroke:black;stroke-width:1"/>
<polygon points="13.953492925727188,21.26151721271853 14.325644864199802,20.490084726051442 14.30541962065037,20.637241193666103" style="fill:none;stroke:black;stroke-width:1"/>
<polygon points="14.139533480304816,21.042032794966474 13.953492925727188,21.26151721271853 14.211240607949957,20.91528874239714" style="fill:none;stroke:black;stroke-width:1"/>
<polygon points="14.266884216595516,20.77969039341464 13.953492925727188,21.26151721271853 14.30541962065037,20.637241193666103" style="fill:none;stroke:black;stroke-width:1"/>
<polygon points="13.953492925727188,21.26151721271853 12.435015506937901,21.277047897340648 12.339370531541851,21.17444165640802" style="fill:none;stroke:black;stroke-width:1"/>
<polygon points="14.22524302919792,19.91915742468426 13.953492925727188,21.26151721271853 14.15782579966837,19.793199161498237" style="fill:none;stroke:black;stroke-width:1"/>
<polygon points="14.325644864199802,20.490084726051442 13.953492925727188,21.26151721271853 14.327337477921244,20.341635406529335" style="fill:none;stroke:black;stroke-width:1"/>
<polygon points="13.953492925727188,21.26151721271853 14.310845676324577,20.19551434006468 14.327337477921244,20.341635406529335" style="fill:none;stroke:black;stroke-width:1"/>
<polygon points="13.365020020475587,19.295300320506684 13.953492925727188,21.26151721271853 13.227553752777622,19.28847585478865" style="fill:none;stroke:black;stroke-width:1"/>
<polygon points="13.953492925727188,21.26151721271853 13.499848234097488,19.318447753218226 13.630399460869912,19.357629351071573" style="fill:none;stroke:black;stroke-width:1"/>
<polygon points="12.203633806135437,19.937455659025492 13.953492925727188,21.26151721271853 12.148050286597087,20.072949584971337" style="fill:none;stroke:black;stroke-width:1"/>
<polygon points="13.953492925727188,21.26151721271853 14.266884216595516,20.77969039341464 14.211240607949957,20.91528874239714" style="fill:none;stroke:black;stroke-width:1"/>
<polygon points="13.953492925727188,21.26151721271853 12.915083836578365,21.534049024473227 12.784531175522622,21.494841245156106" style="fill:none;stroke:black;stroke-width:1"/>
<polygon points="13.953492925727188,21.26151721271853 13.089547681699363,19.2983332355543 13.227553752777622,19.28847585478865" style="fill:none;stroke:black;stroke-width:1"/>
<polygon points="13.953492925727188,21.26151721271853 12.36186594430658,19.69482666911085 12.461573378766614,19.591305885836945" style="fill:none;stroke:black;stroke-width:1"/>
<polygon points="13.953492925727188,21.26151721271853 13.187444361790702,21.56410927744751 13.04994277924742,21.557244616860793" style="fill:none;stroke:black;stroke-width:1"/>
<polygon points="12.659538061895113,21.43848027023576 13.953492925727188,21.26151721271853 12.784531175522622,21.494841245156106" style="fill:none;stroke:black;stroke-width:1"/>
<polygon points="13.953492925727188,21.26151721271853 12.542359578955425,21.365512359770534 12.435015506937901,21.277047897340648" style="fill:none;stroke:black;stroke-width:1"/>
<polygon points="13.953492925727188,21.26151721271853 12.953081883282895,19.324942464445876 13.089547681699363,19.2983332355543" style="fill:none;stroke:black;stroke-width:1"/>
<polygon points="13.75539257449742,19.41399032599191 13.953492925727188,21.26151721271853 13.630399460869912,19.357629351071573" style="fill:none;stroke:black;stroke-width:1"/>
<polygon points="12.572644334126487,19.501794001540368 13.953492925727188,21.26151721271853 12.461573378766614,19.591305885836945" style="fill:none;stroke:black;stroke-width:1"/>
<polygon points="12.36186594430658,19.69482666911085 13.953492925727188,21.26151721271853 12.275353615050644,19.810789066435554" style="fill:none;stroke:black;stroke-width:1"/>
<polygon points="13.953492925727188,21.26151721271853 12.203633806135437,19.937455659025492 12.275353615050644,19.810789066435554" style="fill:none;stroke:black;stroke-width:1"/>
<polygon points="12.257104836724166,21.059271434729443 13.953492925727188,21.26151721271853 12.339370531541851,21.17444165640802" style="fill:none;stroke:black;stroke-width:1"/>
<polygon points="13.953492925727188,21.26151721271853 12.109677702588888,20.215287429076636 12.148050286597087,20.072949584971337" style="fill:none;stroke:black;stroke-width:1"/>
<polygon points="12.542359578955425,21.365512359770534 13.953492925727188,21.26151721271853 12.659538061895113,21.43848027023576" style="fill:none;stroke:black;stroke-width:1"/>
<polygon points="12.915083836578365,21.534049024473227 13.953492925727188,21.26151721271853 13.04994277924742,21.557244616860793" style="fill:none;stroke:black;stroke-width:1"/>
<polygon points="12.087593158471291,20.51083518969834 13.953492925727188,21.26151721271853 12.104084960067958,20.656956256163" style="fill:none;stroke:black;stroke-width:1"/>
<polygon points="13.499848234097488,19.318447753218226 13.953492925727188,21.26151721271853 13.365020020475587,19.295300320506684" style="fill:none;stroke:black;stroke-width:1"/>
<polygon points="13.87257105743711,19.486958236457145 13.953492925727188,21.26151721271853 13.75539257449742,19.41399032599191" style="fill:none;stroke:black;stroke-width:1"/>
<polygon points="13.953492925727188,21.26151721271853 12.572644334126487,19.501794001540368 12.692785014597204,19.427283902522376" style="fill:none;stroke:black;stroke-width:1"/>
<polygon points="12.820182196234418,19.3680892210339 13.953492925727188,21.26151721271853 12.692785014597204,19.427283902522376" style="fill:none;stroke:black;stroke-width:1"/>
<polygon points="13.953492925727188,21.26151721271853 12.257104836724166,21.059271434729443 12.189687607194614,20.93331317154342" style="fill:none;stroke:black;stroke-width:1"/>
<polygon points="12.138353858495332,20.7985129399475 13.953492925727188,21.26151721271853 12.189687607194614,20.93331317154342" style="fill:none;stroke:black;stroke-width:1"/>
<polygon points="12.109677702588888,20.215287429076636 13.953492925727188,21.26151721271853 12.089310344827586,20.362413793103446" style="fill:none;stroke:black;stroke-width:1"/>
<polygon points="13.953492925727188,21.26151721271853 12.087593158471291,20.51083518969834 12.089310344827586,20.362413793103446" style="fill:none;stroke:black;stroke-width:1"/>
<polygon points="13.462000618370544,21.527699163105666 13.953492925727188,21.26151721271853 13.59494937765882,21.484568706964325" style="fill:none;stroke:black;stroke-width:1"/>
<polygon points="13.953492925727188,21.26151721271853 13.722400217333991,21.42538236111522 13.59494937765882,21.484568706964325" style="fill:none;stroke:black;stroke-width:1"/>
<polygon points="12.953081883282895,19.324942464445876 13.953492925727188,21.26151721271853 12.820182196234418,19.3680892210339" style="fill:none;stroke:black;stroke-width:1"/>
<polygon points="13.32549033351244,21.554284126743212 13.953492925727188,21.26151721271853 13.462000618370544,21.527699163105666" style="fill:none;stroke:black;stroke-width:1"/>
<polygon points="13.953492925727188,21.26151721271853 13.842556265968787,21.3509164773724 13.722400217333991,21.42538236111522" style="fill:none;stroke:black;stroke-width:1"/>
<polygon points="13.953492925727188,21.26151721271853 13.32549033351244,21.554284126743212 13.187444361790702,21.56410927744751" style="fill:none;stroke:black;stroke-width:1"/>
</svg>
