<?xml version="1.0" encoding="UTF-8" standalone="no"?>
<svg xmlns="http://www.w3.org/2000/svg" version="1.1" width="800" height="800">
<polygon points="15.340306015176285,23.046050495141078 17.281813685289602,21.533892938887824 18.3295511986991,23.184321247272553" style="fill:none;stroke:black;stroke-width:1"/>
<polygon points="14.749261988198882,12.657083859044821 12.372843769173581,12.3041779568727 13.104935798198852,10.336341544796923" style="fill:none;stroke:black;stroke-width:1"/>
<polygon points="22.580557312119588,6.417641579806959 22.4227589464969,4.495319488262717 24.278451819125422,6.439764717592748" style="fill:none;stroke:black;stroke-width:1"/>
<polygon points="18.097128986565796,4.163369874297862 13.131044196844652,5.992687182278896 17.508625845913798,2.5565923999142535" style="fill:none;stroke:black;stroke-width:1"/>
<polygon points="11.567518088060543,9.433793444993572 11.705172413793104,10.734137931034484 10.072806049914483,8.340013562954" style="fill:none;stroke:black;stroke-width:1"/>
<polygon points="12.372843769173581,12.3041779568727 11.705172413793104,10.734137931034484 13.104935798198852,10.336341544796923" style="fill:none;stroke:black;stroke-width:1"/>
<polygon points="11.705172413793104,10.734137931034484 11.567518088060543,9.433793444993572 13.104935798198852,10.336341544796923" style="fill:none;stroke:black;stroke-width:1"/>
<polygon points="10.311834961475746,5.675249628366924 10.799192225346996,7.017678543739688 10.072806049914483,8.340013562954" style="fill:none;stroke:black;stroke-width:1"/>
<polygon points="10.799192225346996,7.017678543739688 11.567518088060543,9.433793444993572 10.072806049914483,8.340013562954" style="fill:none;stroke:black;stroke-width:1"/>
<polygon points="12.455293072553506,4.153753796510187 10.799192225346996,7.017678543739688 10.311834961475746,5.675249628366924" style="fill:none;stroke:black;stroke-width:1"/>
<polygon points="20.694748717079808,21.94605172828916 19.786071791229404,20.60336083712906 22.035002518343745,18.81611642748232" style="fill:none;stroke:black;stroke-width:1"/>
<polygon points="19.786071791229404,20.60336083712906 20.694748717079808,21.94605172828916 18.3295511986991,23.184321247272553" style="fill:none;stroke:black;stroke-width:1"/>
<polygon points="17.281813685289602,21.533892938887824 19.786071791229404,20.60336083712906 18.3295511986991,23.184321247272553" style="fill:none;stroke:black;stroke-width:1"/>
<polygon points="20.484242094773407,17.49122847206758 22.082053340292212,16.677078181576185 22.035002518343745,18.81611642748232" style="fill:none;stroke:black;stroke-width:1"/>
<polygon points="19.786071791229404,20.60336083712906 20.484242094773407,17.49122847206758 22.035002518343745,18.81611642748232" style="fill:none;stroke:black;stroke-width:1"/>
<polygon points="15.867756267148907,10.388450361769028 14.749261988198882,12.657083859044821 13.104935798198852,10.336341544796923" style="fill:none;stroke:black;stroke-width:1"/>
<polygon points="14.749261988198882,12.657083859044821 15.867756267148907,10.388450361769028 17.53783956816624,12.613484651058778" style="fill:none;stroke:black;stroke-width:1"/>
<polygon points="22.580557312119588,6.417641579806959 20.247777834681564,5.243429719884483 22.4227589464969,4.495319488262717" style="fill:none;stroke:black;stroke-width:1"/>
<polygon points="17.508625845913798,2.5565923999142535 15.472363262902494,3.5164447865608626 14.770294026318862,2.9223508812991996" style="fill:none;stroke:black;stroke-width:1"/>
<polygon points="13.294414976152208,5.076005446754843 10.799192225346996,7.017678543739688 12.455293072553506,4.153753796510187" style="fill:none;stroke:black;stroke-width:1"/>
<polygon points="10.799192225346996,7.017678543739688 13.294414976152208,5.076005446754843 11.567518088060543,9.433793444993572" style="fill:none;stroke:black;stroke-width:1"/>
<polygon points="13.294414976152208,5.076005446754843 12.455293072553506,4.153753796510187 14.770294026318862,2.9223508812991996" style="fill:none;stroke:black;stroke-width:1"/>
<polygon points="24.047079298101256,9.198732764419924 22.580557312119588,6.417641579806959 24.278451819125422,6.439764717592748" style="fill:none;stroke:black;stroke-width:1"/>
<polygon points="22.082053340292212,16.677078181576185 24.047079298101256,9.198732764419924 22.035002518343745,18.81611642748232" style="fill:none;stroke:black;stroke-width:1"/>
<polygon points="24.047079298101256,9.198732764419924 22.082053340292212,16.677078181576185 22.428925633848188,14.033682904350982" style="fill:none;stroke:black;stroke-width:1"/>
<polygon points="11.741691467084951,13.534267862431033 11.705172413793104,10.734137931034484 12.372843769173581,12.3041779568727" style="fill:none;stroke:black;stroke-width:1"/>
<polygon points="11.705172413793104,10.734137931034484 11.741691467084951,13.534267862431033 10.072806049914483,8.340013562954" style="fill:none;stroke:black;stroke-width:1"/>
<polygon points="20.33671418823042,12.576961295367786 19.362783147611324,13.577693271850967 17.53783956816624,12.613484651058778" style="fill:none;stroke:black;stroke-width:1"/>
<polygon points="20.484242094773407,17.49122847206758 20.53599602290738,15.103243690805792 22.082053340292212,16.677078181576185" style="fill:none;stroke:black;stroke-width:1"/>
<polygon points="22.082053340292212,16.677078181576185 20.53599602290738,15.103243690805792 22.428925633848188,14.033682904350982" style="fill:none;stroke:black;stroke-width:1"/>
<polygon points="20.53599602290738,15.103243690805792 20.33671418823042,12.576961295367786 22.428925633848188,14.033682904350982" style="fill:none;stroke:black;stroke-width:1"/>
<polygon points="20.33671418823042,12.576961295367786 20.53599602290738,15.103243690805792 19.362783147611324,13.577693271850967" style="fill:none;stroke:black;stroke-width:1"/>
<polygon points="20.075916392849305,23.94752549328458 19.786071791229404,20.60336083712906 17.281813685289602,21.533892938887824" style="fill:none;stroke:black;stroke-width:1"/>
<polygon points="19.786071791229404,20.60336083712906 20.075916392849305,23.94752549328458 20.221051703503004,23.840989646276242" style="fill:none;stroke:black;stroke-width:1"/>
<polygon points="18.483022458204374,24.473383857160975 18.656954554135034,24.426541124307438 17.281813685289602,21.533892938887824" style="fill:none;stroke:black;stroke-width:1"/>
<polygon points="14.217326034232702,9.802505437878757 15.867756267148907,10.388450361769028 13.104935798198852,10.336341544796923" style="fill:none;stroke:black;stroke-width:1"/>
<polygon points="11.567518088060543,9.433793444993572 14.217326034232702,9.802505437878757 13.104935798198852,10.336341544796923" style="fill:none;stroke:black;stroke-width:1"/>
<polygon points="13.294414976152208,5.076005446754843 14.217326034232702,9.802505437878757 11.567518088060543,9.433793444993572" style="fill:none;stroke:black;stroke-width:1"/>
<polygon points="15.867756267148907,10.388450361769028 18.642477841696564,10.439156399103457 17.53783956816624,12.613484651058778" style="fill:none;stroke:black;stroke-width:1"/>
<polygon points="18.642477841696564,10.439156399103457 20.33671418823042,12.576961295367786 17.53783956816624,12.613484651058778" style="fill:none;stroke:black;stroke-width:1"/>
<polygon points="20.33671418823042,12.576961295367786 18.642477841696564,10.439156399103457 20.79838219950774,10.205479131877818" style="fill:none;stroke:black;stroke-width:1"/>
<polygon points="20.247777834681564,5.243429719884483 19.863963945359256,3.9501990837503014 22.4227589464969,4.495319488262717" style="fill:none;stroke:black;stroke-width:1"/>
<polygon points="19.863963945359256,3.9501990837503014 20.247777834681564,5.243429719884483 18.097128986565796,4.163369874297862" style="fill:none;stroke:black;stroke-width:1"/>
<polygon points="22.4227589464969,4.495319488262717 19.863963945359256,3.9501990837503014 17.508625845913798,2.5565923999142535" style="fill:none;stroke:black;stroke-width:1"/>
<polygon points="19.863963945359256,3.9501990837503014 18.097128986565796,4.163369874297862 17.508625845913798,2.5565923999142535" style="fill:none;stroke:black;stroke-width:1"/>
<polygon points="22.230537623912696,9.023553190475218 20.247777834681564,5.243429719884483 22.580557312119588,6.417641579806959" style="fill:none;stroke:black;stroke-width:1"/>
<polygon points="24.047079298101256,9.198732764419924 22.230537623912696,9.023553190475218 22.580557312119588,6.417641579806959" style="fill:none;stroke:black;stroke-width:1"/>
<polygon points="22.474190924168028,11.222563932275385 24.047079298101256,9.198732764419924 22.428925633848188,14.033682904350982" style="fill:none;stroke:black;stroke-width:1"/>
<polygon points="20.33671418823042,12.576961295367786 22.474190924168028,11.222563932275385 22.428925633848188,14.033682904350982" style="fill:none;stroke:black;stroke-width:1"/>
<polygon points="22.474190924168028,11.222563932275385 20.33671418823042,12.576961295367786 20.79838219950774,10.205479131877818" style="fill:none;stroke:black;stroke-width:1"/>
<polygon points="22.230537623912696,9.023553190475218 22.474190924168028,11.222563932275385 20.79838219950774,10.205479131877818" style="fill:none;stroke:black;stroke-width:1"/>
<polygon points="22.474190924168028,11.222563932275385 22.230537623912696,9.023553190475218 24.047079298101256,9.198732764419924" style="fill:none;stroke:black;stroke-width:1"/>
<polygon points="15.45200485382062,19.439688372618093 16.651787023140617,13.59787506518449 17.53783956816624,12.613484651058778" style="fill:none;stroke:black;stroke-width:1"/>
<polygon points="13.500888127395342,21.215397582135715 16.651787023140617,13.59787506518449 13.530782726859403,21.301023817626472" style="fill:none;stroke:black;stroke-width:1"/>
<polygon points="16.651787023140617,13.59787506518449 14.749261988198882,12.657083859044821 17.53783956816624,12.613484651058778" style="fill:none;stroke:black;stroke-width:1"/>
<polygon points="20.075916392849305,23.94752549328458 19.769655172413792,22.52310344827586 20.221051703503004,23.840989646276242" style="fill:none;stroke:black;stroke-width:1"/>
<polygon points="20.30299870064494,22.771562727312432 20.73993365154252,23.350284426176394 20.484242094773407,17.49122847206758" style="fill:none;stroke:black;stroke-width:1"/>
<polygon points="20.483977375305894,23.33197938592072 20.484242094773407,17.49122847206758 19.786071791229404,20.60336083712906" style="fill:none;stroke:black;stroke-width:1"/>
<polygon points="20.483977375305894,23.33197938592072 20.476603413161072,23.1275459390785 20.484242094773407,17.49122847206758" style="fill:none;stroke:black;stroke-width:1"/>
<polygon points="20.436138294253702,23.52643319838845 20.483977375305894,23.33197938592072 19.786071791229404,20.60336083712906" style="fill:none;stroke:black;stroke-width:1"/>
<polygon points="13.031806124257269,21.29997012473287 14.564764131814254,20.784245166593276 15.340306015176285,23.046050495141078" style="fill:none;stroke:black;stroke-width:1"/>
<polygon points="14.564764131814254,20.784245166593276 17.281813685289602,21.533892938887824 15.340306015176285,23.046050495141078" style="fill:none;stroke:black;stroke-width:1"/>
<polygon points="14.217326034232702,9.802505437878757 16.94657286606456,9.758627940160181 15.867756267148907,10.388450361769028" style="fill:none;stroke:black;stroke-width:1"/>
<polygon points="16.94657286606456,9.758627940160181 18.642477841696564,10.439156399103457 15.867756267148907,10.388450361769028" style="fill:none;stroke:black;stroke-width:1"/>
<polygon points="13.33644463432003,6.047940851647843 13.131044196844652,5.992687182278896 18.097128986565796,4.163369874297862" style="fill:none;stroke:black;stroke-width:1"/>
<polygon points="13.533515348342155,6.114681813442086 13.33644463432003,6.047940851647843 18.097128986565796,4.163369874297862" style="fill:none;stroke:black;stroke-width:1"/>
<polygon points="13.900837817190885,6.280407688444939 13.721798891702086,6.192355586196245 18.097128986565796,4.163369874297862" style="fill:none;stroke:black;stroke-width:1"/>
<polygon points="13.721798891702086,6.192355586196245 13.533515348342155,6.114681813442086 18.097128986565796,4.163369874297862" style="fill:none;stroke:black;stroke-width:1"/>
<polygon points="20.53599602290738,15.103243690805792 17.187659428961588,14.531364090383827 19.362783147611324,13.577693271850967" style="fill:none;stroke:black;stroke-width:1"/>
<polygon points="15.783513223978492,15.54751541895541 17.187659428961588,14.531364090383827 20.53599602290738,15.103243690805792" style="fill:none;stroke:black;stroke-width:1"/>
<polygon points="14.564764131814254,20.784245166593276 17.712193797573644,24.57980254527316 17.281813685289602,21.533892938887824" style="fill:none;stroke:black;stroke-width:1"/>
<polygon points="13.154909756685921,15.612674090596208 13.196966240158917,17.90595122678896 12.19735086365393,18.476403584856293" style="fill:none;stroke:black;stroke-width:1"/>
<polygon points="13.196966240158917,17.90595122678896 13.031806124257269,21.29997012473287 12.19735086365393,18.476403584856293" style="fill:none;stroke:black;stroke-width:1"/>
<polygon points="13.935571017631265,13.628705028311991 11.741691467084951,13.534267862431033 12.372843769173581,12.3041779568727" style="fill:none;stroke:black;stroke-width:1"/>
<polygon points="14.749261988198882,12.657083859044821 13.935571017631265,13.628705028311991 12.372843769173581,12.3041779568727" style="fill:none;stroke:black;stroke-width:1"/>
<polygon points="20.476603413161072,23.1275459390785 20.413721579714714,22.93653723305488 20.484242094773407,17.49122847206758" style="fill:none;stroke:black;stroke-width:1"/>
<polygon points="20.413721579714714,22.93653723305488 20.30299870064494,22.771562727312432 20.484242094773407,17.49122847206758" style="fill:none;stroke:black;stroke-width:1"/>
<polygon points="20.413721579714714,22.93653723305488 20.436138294253702,23.52643319838845 20.30299870064494,22.771562727312432" style="fill:none;stroke:black;stroke-width:1"/>
<polygon points="20.483977375305894,23.33197938592072 20.413721579714714,22.93653723305488 20.476603413161072,23.1275459390785" style="fill:none;stroke:black;stroke-width:1"/>
<polygon points="20.413721579714714,22.93653723305488 20.483977375305894,23.33197938592072 20.436138294253702,23.52643319838845" style="fill:none;stroke:black;stroke-width:1"/>
<polygon points="20.30299870064494,22.771562727312432 20.152690417340565,22.641300754602117 20.73993365154252,23.350284426176394" style="fill:none;stroke:black;stroke-width:1"/>
<polygon points="20.152690417340565,22.641300754602117 19.769655172413792,22.52310344827586 19.971052371190392,22.554429647674915" style="fill:none;stroke:black;stroke-width:1"/>
<polygon points="19.769655172413792,22.52310344827586 20.152690417340565,22.641300754602117 20.221051703503004,23.840989646276242" style="fill:none;stroke:black;stroke-width:1"/>
<polygon points="20.34357422735246,23.69832030492705 19.786071791229404,20.60336083712906 20.221051703503004,23.840989646276242" style="fill:none;stroke:black;stroke-width:1"/>
<polygon points="20.34357422735246,23.69832030492705 20.436138294253702,23.52643319838845 19.786071791229404,20.60336083712906" style="fill:none;stroke:black;stroke-width:1"/>
<polygon points="20.436138294253702,23.52643319838845 20.34357422735246,23.69832030492705 20.30299870064494,22.771562727312432" style="fill:none;stroke:black;stroke-width:1"/>
<polygon points="20.152690417340565,22.641300754602117 20.34357422735246,23.69832030492705 20.221051703503004,23.840989646276242" style="fill:none;stroke:black;stroke-width:1"/>
<polygon points="20.34357422735246,23.69832030492705 20.152690417340565,22.641300754602117 20.30299870064494,22.771562727312432" style="fill:none;stroke:black;stroke-width:1"/>
<polygon points="22.230537623912696,9.023553190475218 15.394892988352748,8.412238069198956 20.247777834681564,5.243429719884483" style="fill:none;stroke:black;stroke-width:1"/>
<polygon points="14.289401114089028,8.884606704729324 15.394892988352748,8.412238069198956 15.395919760553454,8.680236879751362" style="fill:none;stroke:black;stroke-width:1"/>
<polygon points="19.675819697896436,9.714750442441604 22.230537623912696,9.023553190475218 20.79838219950774,10.205479131877818" style="fill:none;stroke:black;stroke-width:1"/>
<polygon points="18.642477841696564,10.439156399103457 19.675819697896436,9.714750442441604 20.79838219950774,10.205479131877818" style="fill:none;stroke:black;stroke-width:1"/>
<polygon points="19.675819697896436,9.714750442441604 15.394892988352748,8.412238069198956 22.230537623912696,9.023553190475218" style="fill:none;stroke:black;stroke-width:1"/>
<polygon points="15.394892988352748,8.412238069198956 19.675819697896436,9.714750442441604 15.395919760553454,8.680236879751362" style="fill:none;stroke:black;stroke-width:1"/>
<polygon points="16.94657286606456,9.758627940160181 19.675819697896436,9.714750442441604 18.642477841696564,10.439156399103457" style="fill:none;stroke:black;stroke-width:1"/>
<polygon points="13.070046070908052,7.570130313761226 13.33644463432003,6.047940851647843 13.533515348342155,6.114681813442086" style="fill:none;stroke:black;stroke-width:1"/>
<polygon points="14.070174677599615,6.378283638722785 13.900837817190885,6.280407688444939 18.097128986565796,4.163369874297862" style="fill:none;stroke:black;stroke-width:1"/>
<polygon points="20.247777834681564,5.243429719884483 14.68162457419916,6.8813781788222 18.097128986565796,4.163369874297862" style="fill:none;stroke:black;stroke-width:1"/>
<polygon points="14.824251570961541,7.047897876212515 14.68162457419916,6.8813781788222 20.247777834681564,5.243429719884483" style="fill:none;stroke:black;stroke-width:1"/>
<polygon points="18.87956143822651,16.664262217275393 17.24455313990151,17.060479037015927 20.53599602290738,15.103243690805792" style="fill:none;stroke:black;stroke-width:1"/>
<polygon points="16.651787023140617,13.59787506518449 13.550766748117269,21.39595670552164 13.530782726859403,21.301023817626472" style="fill:none;stroke:black;stroke-width:1"/>
<polygon points="16.861780689829622,24.16464423718255 14.564764131814254,20.784245166593276 13.031806124257269,21.29997012473287" style="fill:none;stroke:black;stroke-width:1"/>
<polygon points="13.196966240158917,17.90595122678896 16.861780689829622,24.16464423718255 13.031806124257269,21.29997012473287" style="fill:none;stroke:black;stroke-width:1"/>
<polygon points="13.935571017631265,13.628705028311991 12.150225646259862,16.160967060755457 11.741691467084951,13.534267862431033" style="fill:none;stroke:black;stroke-width:1"/>
<polygon points="12.150225646259862,16.160967060755457 13.935571017631265,13.628705028311991 13.154909756685921,15.612674090596208" style="fill:none;stroke:black;stroke-width:1"/>
<polygon points="12.150225646259862,16.160967060755457 13.154909756685921,15.612674090596208 12.19735086365393,18.476403584856293" style="fill:none;stroke:black;stroke-width:1"/>
<polygon points="12.150225646259862,16.160967060755457 12.19735086365393,18.476403584856293 10.072806049914483,8.340013562954" style="fill:none;stroke:black;stroke-width:1"/>
<polygon points="11.741691467084951,13.534267862431033 12.150225646259862,16.160967060755457 10.072806049914483,8.340013562954" style="fill:none;stroke:black;stroke-width:1"/>
<polygon points="18.656954554135034,24.426541124307438 18.82061870804043,24.373835764442074 17.281813685289602,21.533892938887824" style="fill:none;stroke:black;stroke-width:1"/>
<polygon points="18.82061870804043,24.373835764442074 18.977302615768462,24.322184876717127 17.281813685289602,21.533892938887824" style="fill:none;stroke:black;stroke-width:1"/>
<polygon points="18.82061870804043,24.373835764442074 18.656954554135034,24.426541124307438 18.29863283661185,22.778875141309992" style="fill:none;stroke:black;stroke-width:1"/>
<polygon points="19.290668295805055,24.21888868732759 19.447351135823354,24.167240592632822 17.281813685289602,21.533892938887824" style="fill:none;stroke:black;stroke-width:1"/>
<polygon points="19.290668295805055,24.21888868732759 18.976280352596923,22.58970847964119 19.447351135823354,24.167240592632822" style="fill:none;stroke:black;stroke-width:1"/>
<polygon points="19.917399655878246,24.012296308548514 20.075916392849305,23.94752549328458 17.281813685289602,21.533892938887824" style="fill:none;stroke:black;stroke-width:1"/>
<polygon points="19.760716815859947,24.063944403243283 19.917399655878246,24.012296308548514 17.281813685289602,21.533892938887824" style="fill:none;stroke:black;stroke-width:1"/>
<polygon points="19.917399655878246,24.012296308548514 19.769655172413792,22.52310344827586 20.075916392849305,23.94752549328458" style="fill:none;stroke:black;stroke-width:1"/>
<polygon points="19.447351135823354,24.167240592632822 19.604033975841652,24.115592497938053 17.281813685289602,21.533892938887824" style="fill:none;stroke:black;stroke-width:1"/>
<polygon points="19.604033975841652,24.115592497938053 19.760716815859947,24.063944403243283 17.281813685289602,21.533892938887824" style="fill:none;stroke:black;stroke-width:1"/>
<polygon points="19.769655172413792,22.52310344827586 13.991964293994906,22.46318305862939 19.971052371190392,22.554429647674915" style="fill:none;stroke:black;stroke-width:1"/>
<polygon points="18.656954554135034,24.426541124307438 18.141949996593553,22.830523236004762 18.29863283661185,22.778875141309992" style="fill:none;stroke:black;stroke-width:1"/>
<polygon points="18.483022458204374,24.473383857160975 18.141949996593553,22.830523236004762 18.656954554135034,24.426541124307438" style="fill:none;stroke:black;stroke-width:1"/>
<polygon points="18.109870268936167,24.545016247195832 17.671901476538665,22.98546752008907 17.828584316556963,22.9338194253943" style="fill:none;stroke:black;stroke-width:1"/>
<polygon points="12.126299736371067,22.13072010088884 13.196966240158917,17.90595122678896 13.154909756685921,15.612674090596208" style="fill:none;stroke:black;stroke-width:1"/>
<polygon points="12.096405136907006,22.04509386539808 12.126299736371067,22.13072010088884 13.154909756685921,15.612674090596208" style="fill:none;stroke:black;stroke-width:1"/>
<polygon points="20.53659685839783,18.776401088527813 20.9605448987189,19.697083760563306 16.651787023140617,13.59787506518449" style="fill:none;stroke:black;stroke-width:1"/>
<polygon points="20.53599602290738,15.103243690805792 22.507936947097242,18.930456190199994 21.16381810537621,19.107031890647114" style="fill:none;stroke:black;stroke-width:1"/>
<polygon points="22.507936947097242,18.930456190199994 20.53599602290738,15.103243690805792 20.484242094773407,17.49122847206758" style="fill:none;stroke:black;stroke-width:1"/>
<polygon points="14.483795610489596,9.170672336955036 15.137599125113093,9.106991094099216 14.679739930838217,9.234439990732334" style="fill:none;stroke:black;stroke-width:1"/>
<polygon points="16.94657286606456,9.758627940160181 14.483795610489596,9.170672336955036 14.679739930838217,9.234439990732334" style="fill:none;stroke:black;stroke-width:1"/>
<polygon points="19.675819697896436,9.714750442441604 15.305308336866897,8.919995003121413 15.395919760553454,8.680236879751362" style="fill:none;stroke:black;stroke-width:1"/>
<polygon points="15.305308336866897,8.919995003121413 19.675819697896436,9.714750442441604 15.137599125113093,9.106991094099216" style="fill:none;stroke:black;stroke-width:1"/>
<polygon points="14.483795610489596,9.170672336955036 15.305308336866897,8.919995003121413 15.137599125113093,9.106991094099216" style="fill:none;stroke:black;stroke-width:1"/>
<polygon points="15.305308336866897,8.919995003121413 14.289401114089028,8.884606704729324 15.395919760553454,8.680236879751362" style="fill:none;stroke:black;stroke-width:1"/>
<polygon points="14.913704159215543,9.217648150712852 19.675819697896436,9.714750442441604 16.94657286606456,9.758627940160181" style="fill:none;stroke:black;stroke-width:1"/>
<polygon points="19.675819697896436,9.714750442441604 14.913704159215543,9.217648150712852 15.137599125113093,9.106991094099216" style="fill:none;stroke:black;stroke-width:1"/>
<polygon points="14.913704159215543,9.217648150712852 16.94657286606456,9.758627940160181 14.679739930838217,9.234439990732334" style="fill:none;stroke:black;stroke-width:1"/>
<polygon points="15.137599125113093,9.106991094099216 14.913704159215543,9.217648150712852 14.679739930838217,9.234439990732334" style="fill:none;stroke:black;stroke-width:1"/>
<polygon points="13.721798891702086,6.192355586196245 13.28377498144163,7.661674067571628 13.533515348342155,6.114681813442086" style="fill:none;stroke:black;stroke-width:1"/>
<polygon points="13.28377498144163,7.661674067571628 13.070046070908052,7.570130313761226 13.533515348342155,6.114681813442086" style="fill:none;stroke:black;stroke-width:1"/>
<polygon points="13.28377498144163,7.661674067571628 13.721798891702086,6.192355586196245 13.900837817190885,6.280407688444939" style="fill:none;stroke:black;stroke-width:1"/>
<polygon points="13.33644463432003,6.047940851647843 12.837334660065032,7.484468647968319 13.131044196844652,5.992687182278896" style="fill:none;stroke:black;stroke-width:1"/>
<polygon points="13.070046070908052,7.570130313761226 12.837334660065032,7.484468647968319 13.33644463432003,6.047940851647843" style="fill:none;stroke:black;stroke-width:1"/>
<polygon points="12.837334660065032,7.484468647968319 13.070046070908052,7.570130313761226 12.588992523354909,7.405072877188488" style="fill:none;stroke:black;stroke-width:1"/>
<polygon points="14.381626201496552,6.601136468221535 14.229352025719333,6.4854289555644025 18.097128986565796,4.163369874297862" style="fill:none;stroke:black;stroke-width:1"/>
<polygon points="14.229352025719333,6.4854289555644025 14.070174677599615,6.378283638722785 18.097128986565796,4.163369874297862" style="fill:none;stroke:black;stroke-width:1"/>
<polygon points="14.533206027450694,6.732562592146275 14.381626201496552,6.601136468221535 18.097128986565796,4.163369874297862" style="fill:none;stroke:black;stroke-width:1"/>
<polygon points="14.68162457419916,6.8813781788222 14.533206027450694,6.732562592146275 18.097128986565796,4.163369874297862" style="fill:none;stroke:black;stroke-width:1"/>
<polygon points="12.697083940369899,5.918859646678422 15.472363262902494,3.5164447865608626 17.508625845913798,2.5565923999142535" style="fill:none;stroke:black;stroke-width:1"/>
<polygon points="12.697083940369899,5.918859646678422 12.469439015788405,5.901394743377656 15.472363262902494,3.5164447865608626" style="fill:none;stroke:black;stroke-width:1"/>
<polygon points="11.51519262730914,6.461437955153661 13.294414976152208,5.076005446754843 14.770294026318862,2.9223508812991996" style="fill:none;stroke:black;stroke-width:1"/>
<polygon points="11.809261561787565,7.156618987155664 14.217326034232702,9.802505437878757 13.294414976152208,5.076005446754843" style="fill:none;stroke:black;stroke-width:1"/>
<polygon points="11.623954600238118,6.969425625672544 11.809261561787565,7.156618987155664 13.294414976152208,5.076005446754843" style="fill:none;stroke:black;stroke-width:1"/>
<polygon points="20.382068701586597,17.514925367663658 20.53599602290738,15.103243690805792 21.16381810537621,19.107031890647114" style="fill:none;stroke:black;stroke-width:1"/>
<polygon points="20.382068701586597,17.514925367663658 18.87956143822651,16.664262217275393 20.53599602290738,15.103243690805792" style="fill:none;stroke:black;stroke-width:1"/>
<polygon points="14.867332955543253,17.07716858973509 15.783513223978492,15.54751541895541 20.53599602290738,15.103243690805792" style="fill:none;stroke:black;stroke-width:1"/>
<polygon points="14.931571538433436,18.442884818282003 14.867332955543253,17.07716858973509 20.53599602290738,15.103243690805792" style="fill:none;stroke:black;stroke-width:1"/>
<polygon points="17.24455313990151,17.060479037015927 16.38444067920434,18.417278869949918 20.53599602290738,15.103243690805792" style="fill:none;stroke:black;stroke-width:1"/>
<polygon points="16.38444067920434,18.417278869949918 14.931571538433436,18.442884818282003 20.53599602290738,15.103243690805792" style="fill:none;stroke:black;stroke-width:1"/>
<polygon points="19.362783147611324,13.577693271850967 15.482067397567537,21.344923227079835 17.53783956816624,12.613484651058778" style="fill:none;stroke:black;stroke-width:1"/>
<polygon points="13.556823374776306,21.608354371256258 13.559751906198738,21.498880735274177 16.651787023140617,13.59787506518449" style="fill:none;stroke:black;stroke-width:1"/>
<polygon points="13.559751906198738,21.498880735274177 13.550766748117269,21.39595670552164 16.651787023140617,13.59787506518449" style="fill:none;stroke:black;stroke-width:1"/>
<polygon points="13.541254213522832,21.722832786637298 13.556823374776306,21.608354371256258 16.651787023140617,13.59787506518449" style="fill:none;stroke:black;stroke-width:1"/>
<polygon points="18.977302615768462,24.322184876717127 19.133985455786764,24.270536782022358 17.281813685289602,21.533892938887824" style="fill:none;stroke:black;stroke-width:1"/>
<polygon points="19.133985455786764,24.270536782022358 19.290668295805055,24.21888868732759 17.281813685289602,21.533892938887824" style="fill:none;stroke:black;stroke-width:1"/>
<polygon points="18.61890208872672,22.675293441313148 19.133985455786764,24.270536782022358 18.977302615768462,24.322184876717127" style="fill:none;stroke:black;stroke-width:1"/>
<polygon points="18.976280352596923,22.58970847964119 19.1670635877818,22.55828649774737 19.447351135823354,24.167240592632822" style="fill:none;stroke:black;stroke-width:1"/>
<polygon points="19.1670635877818,22.55828649774737 19.604033975841652,24.115592497938053 19.447351135823354,24.167240592632822" style="fill:none;stroke:black;stroke-width:1"/>
<polygon points="12.837145517389413,19.076136681159507 19.1670635877818,22.55828649774737 13.240931720920878,17.33725032826304" style="fill:none;stroke:black;stroke-width:1"/>
<polygon points="19.1670635877818,22.55828649774737 18.976280352596923,22.58970847964119 13.240931720920878,17.33725032826304" style="fill:none;stroke:black;stroke-width:1"/>
<polygon points="18.455329482361677,22.727189604351068 18.82061870804043,24.373835764442074 18.29863283661185,22.778875141309992" style="fill:none;stroke:black;stroke-width:1"/>
<polygon points="18.82061870804043,24.373835764442074 18.455329482361677,22.727189604351068 18.977302615768462,24.322184876717127" style="fill:none;stroke:black;stroke-width:1"/>
<polygon points="18.455329482361677,22.727189604351068 18.61890208872672,22.675293441313148 18.977302615768462,24.322184876717127" style="fill:none;stroke:black;stroke-width:1"/>
<polygon points="13.094725611088265,20.896737066292204 13.991964293994906,22.46318305862939 19.769655172413792,22.52310344827586" style="fill:none;stroke:black;stroke-width:1"/>
<polygon points="17.138055285196984,24.19791934369846 20.152690417340565,22.641300754602117 19.971052371190392,22.554429647674915" style="fill:none;stroke:black;stroke-width:1"/>
<polygon points="15.6225559420904,14.986991215611978 18.455329482361677,22.727189604351068 13.07945783914229,22.394563229842554" style="fill:none;stroke:black;stroke-width:1"/>
<polygon points="17.515218636520366,23.03711561478384 17.712193797573644,24.57980254527316 17.35853579650207,23.088763709478606" style="fill:none;stroke:black;stroke-width:1"/>
<polygon points="17.985267156575258,22.88217133069953 18.141949996593553,22.830523236004762 18.483022458204374,24.473383857160975" style="fill:none;stroke:black;stroke-width:1"/>
<polygon points="18.109870268936167,24.545016247195832 17.913408089933082,24.56757330705878 17.671901476538665,22.98546752008907" style="fill:none;stroke:black;stroke-width:1"/>
<polygon points="17.515218636520366,23.03711561478384 17.913408089933082,24.56757330705878 17.712193797573644,24.57980254527316" style="fill:none;stroke:black;stroke-width:1"/>
<polygon points="17.913408089933082,24.56757330705878 17.515218636520366,23.03711561478384 17.671901476538665,22.98546752008907" style="fill:none;stroke:black;stroke-width:1"/>
<polygon points="17.712193797573644,24.57980254527316 17.913408089933082,24.56757330705878 17.281813685289602,21.533892938887824" style="fill:none;stroke:black;stroke-width:1"/>
<polygon points="17.913408089933082,24.56757330705878 18.109870268936167,24.545016247195832 17.281813685289602,21.533892938887824" style="fill:none;stroke:black;stroke-width:1"/>
<polygon points="13.935571017631265,13.628705028311991 12.28377761962466,21.171291388717254 13.154909756685921,15.612674090596208" style="fill:none;stroke:black;stroke-width:1"/>
<polygon points="13.196966240158917,17.90595122678896 12.262339640242198,22.320913344411174 16.932361225027854,23.40273971310007" style="fill:none;stroke:black;stroke-width:1"/>
<polygon points="16.77274429617165,20.446855186269442 16.651787023140617,13.59787506518449 15.45200485382062,19.439688372618093" style="fill:none;stroke:black;stroke-width:1"/>
<polygon points="16.77274429617165,20.446855186269442 18.414845785968915,20.248060778681378 16.651787023140617,13.59787506518449" style="fill:none;stroke:black;stroke-width:1"/>
<polygon points="19.397720043232383,19.00417695983541 20.53659685839783,18.776401088527813 16.651787023140617,13.59787506518449" style="fill:none;stroke:black;stroke-width:1"/>
<polygon points="18.414845785968915,20.248060778681378 19.397720043232383,19.00417695983541 16.651787023140617,13.59787506518449" style="fill:none;stroke:black;stroke-width:1"/>
<polygon points="20.9605448987189,19.697083760563306 20.086570111738276,21.301725108613425 16.651787023140617,13.59787506518449" style="fill:none;stroke:black;stroke-width:1"/>
<polygon points="20.086570111738276,21.301725108613425 13.541254213522832,21.722832786637298 16.651787023140617,13.59787506518449" style="fill:none;stroke:black;stroke-width:1"/>
<polygon points="20.963586476574825,16.260789350206675 22.126107453972256,17.50896623696005 20.484242094773407,17.49122847206758" style="fill:none;stroke:black;stroke-width:1"/>
<polygon points="22.126107453972256,17.50896623696005 22.507936947097242,18.930456190199994 20.484242094773407,17.49122847206758" style="fill:none;stroke:black;stroke-width:1"/>
<polygon points="20.73993365154252,23.350284426176394 21.992428645721297,22.07855015390577 20.484242094773407,17.49122847206758" style="fill:none;stroke:black;stroke-width:1"/>
<polygon points="21.992428645721297,22.07855015390577 22.711709257026797,20.4244559853427 20.484242094773407,17.49122847206758" style="fill:none;stroke:black;stroke-width:1"/>
<polygon points="19.33351370679929,15.55156490599802 20.963586476574825,16.260789350206675 20.484242094773407,17.49122847206758" style="fill:none;stroke:black;stroke-width:1"/>
<polygon points="22.711709257026797,20.4244559853427 19.33351370679929,15.55156490599802 20.484242094773407,17.49122847206758" style="fill:none;stroke:black;stroke-width:1"/>
<polygon points="15.191080658327714,7.656828110998889 15.0816098314064,7.435308194989158 20.247777834681564,5.243429719884483" style="fill:none;stroke:black;stroke-width:1"/>
<polygon points="15.394892988352748,8.412238069198956 15.351280180483243,8.148211394826355 20.247777834681564,5.243429719884483" style="fill:none;stroke:black;stroke-width:1"/>
<polygon points="15.351280180483243,8.148211394826355 15.394892988352748,8.412238069198956 14.289401114089028,8.884606704729324" style="fill:none;stroke:black;stroke-width:1"/>
<polygon points="15.305308336866897,8.919995003121413 14.346948779849946,9.047067768591928 14.289401114089028,8.884606704729324" style="fill:none;stroke:black;stroke-width:1"/>
<polygon points="14.346948779849946,9.047067768591928 15.305308336866897,8.919995003121413 14.483795610489596,9.170672336955036" style="fill:none;stroke:black;stroke-width:1"/>
<polygon points="14.346948779849946,9.047067768591928 14.483795610489596,9.170672336955036 16.94657286606456,9.758627940160181" style="fill:none;stroke:black;stroke-width:1"/>
<polygon points="14.346948779849946,9.047067768591928 16.94657286606456,9.758627940160181 14.217326034232702,9.802505437878757" style="fill:none;stroke:black;stroke-width:1"/>
<polygon points="14.289401114089028,8.884606704729324 14.346948779849946,9.047067768591928 14.217326034232702,9.802505437878757" style="fill:none;stroke:black;stroke-width:1"/>
<polygon points="14.070174677599615,6.378283638722785 13.475169617223429,7.7587161024039375 13.900837817190885,6.280407688444939" style="fill:none;stroke:black;stroke-width:1"/>
<polygon points="13.475169617223429,7.7587161024039375 13.28377498144163,7.661674067571628 13.900837817190885,6.280407688444939" style="fill:none;stroke:black;stroke-width:1"/>
<polygon points="12.697083940369899,5.918859646678422 12.917771483124962,5.949475286800629 12.588992523354909,7.405072877188488" style="fill:none;stroke:black;stroke-width:1"/>
<polygon points="12.837334660065032,7.484468647968319 12.917771483124962,5.949475286800629 13.131044196844652,5.992687182278896" style="fill:none;stroke:black;stroke-width:1"/>
<polygon points="12.917771483124962,5.949475286800629 12.837334660065032,7.484468647968319 12.588992523354909,7.405072877188488" style="fill:none;stroke:black;stroke-width:1"/>
<polygon points="13.131044196844652,5.992687182278896 12.917771483124962,5.949475286800629 17.508625845913798,2.5565923999142535" style="fill:none;stroke:black;stroke-width:1"/>
<polygon points="12.917771483124962,5.949475286800629 12.697083940369899,5.918859646678422 17.508625845913798,2.5565923999142535" style="fill:none;stroke:black;stroke-width:1"/>
<polygon points="11.520425272781859,6.72949522389432 11.623954600238118,6.969425625672544 13.294414976152208,5.076005446754843" style="fill:none;stroke:black;stroke-width:1"/>
<polygon points="11.51519262730914,6.461437955153661 11.520425272781859,6.72949522389432 13.294414976152208,5.076005446754843" style="fill:none;stroke:black;stroke-width:1"/>
<polygon points="11.520425272781859,6.72949522389432 11.51519262730914,6.461437955153661 11.623954600238118,6.969425625672544" style="fill:none;stroke:black;stroke-width:1"/>
<polygon points="11.809261561787565,7.156618987155664 12.059655172413793,7.267241379310345 14.217326034232702,9.802505437878757" style="fill:none;stroke:black;stroke-width:1"/>
<polygon points="12.059655172413793,7.267241379310345 14.289401114089028,8.884606704729324 14.217326034232702,9.802505437878757" style="fill:none;stroke:black;stroke-width:1"/>
<polygon points="12.059655172413793,7.267241379310345 11.809261561787565,7.156618987155664 11.777565985530847,6.0337829868273385" style="fill:none;stroke:black;stroke-width:1"/>
<polygon points="12.059655172413793,7.267241379310345 13.475169617223429,7.7587161024039375 14.289401114089028,8.884606704729324" style="fill:none;stroke:black;stroke-width:1"/>
<polygon points="13.475169617223429,7.7587161024039375 12.059655172413793,7.267241379310345 13.28377498144163,7.661674067571628" style="fill:none;stroke:black;stroke-width:1"/>
<polygon points="11.51519262730914,6.461437955153661 11.6084919851947,6.218571780086391 11.623954600238118,6.969425625672544" style="fill:none;stroke:black;stroke-width:1"/>
<polygon points="11.6084919851947,6.218571780086391 11.809261561787565,7.156618987155664 11.623954600238118,6.969425625672544" style="fill:none;stroke:black;stroke-width:1"/>
<polygon points="11.809261561787565,7.156618987155664 11.6084919851947,6.218571780086391 11.777565985530847,6.0337829868273385" style="fill:none;stroke:black;stroke-width:1"/>
<polygon points="11.6084919851947,6.218571780086391 11.51519262730914,6.461437955153661 14.770294026318862,2.9223508812991996" style="fill:none;stroke:black;stroke-width:1"/>
<polygon points="15.472363262902494,3.5164447865608626 11.6084919851947,6.218571780086391 14.770294026318862,2.9223508812991996" style="fill:none;stroke:black;stroke-width:1"/>
<polygon points="11.777565985530847,6.0337829868273385 11.6084919851947,6.218571780086391 15.472363262902494,3.5164447865608626" style="fill:none;stroke:black;stroke-width:1"/>
<polygon points="19.345540634724124,19.90556969598935 17.553325228212618,19.8431998629666 19.362783147611324,13.577693271850967" style="fill:none;stroke:black;stroke-width:1"/>
<polygon points="19.61360093321934,16.952835084323805 17.198422265724446,21.998316548015968 19.362783147611324,13.577693271850967" style="fill:none;stroke:black;stroke-width:1"/>
<polygon points="17.198422265724446,21.998316548015968 15.482067397567537,21.344923227079835 19.362783147611324,13.577693271850967" style="fill:none;stroke:black;stroke-width:1"/>
<polygon points="17.122606999815993,24.46007573703254 17.30416300177391,24.54707288946064 14.564764131814254,20.784245166593276" style="fill:none;stroke:black;stroke-width:1"/>
<polygon points="16.861780689829622,24.16464423718255 16.972394348704956,24.32970674202285 14.564764131814254,20.784245166593276" style="fill:none;stroke:black;stroke-width:1"/>
<polygon points="16.972394348704956,24.32970674202285 17.122606999815993,24.46007573703254 14.564764131814254,20.784245166593276" style="fill:none;stroke:black;stroke-width:1"/>
<polygon points="17.122606999815993,24.46007573703254 16.972394348704956,24.32970674202285 16.932361225027854,23.40273971310007" style="fill:none;stroke:black;stroke-width:1"/>
<polygon points="16.83977316388049,23.57459841376462 13.196966240158917,17.90595122678896 16.932361225027854,23.40273971310007" style="fill:none;stroke:black;stroke-width:1"/>
<polygon points="16.83977316388049,23.57459841376462 16.791784098630586,23.769083155725603 13.196966240158917,17.90595122678896" style="fill:none;stroke:black;stroke-width:1"/>
<polygon points="16.791784098630586,23.769083155725603 16.83977316388049,23.57459841376462 16.861780689829622,24.16464423718255" style="fill:none;stroke:black;stroke-width:1"/>
<polygon points="16.972394348704956,24.32970674202285 16.83977316388049,23.57459841376462 16.932361225027854,23.40273971310007" style="fill:none;stroke:black;stroke-width:1"/>
<polygon points="16.83977316388049,23.57459841376462 16.972394348704956,24.32970674202285 16.861780689829622,24.16464423718255" style="fill:none;stroke:black;stroke-width:1"/>
<polygon points="16.799021664578788,23.973566555262614 16.861780689829622,24.16464423718255 13.196966240158917,17.90595122678896" style="fill:none;stroke:black;stroke-width:1"/>
<polygon points="16.791784098630586,23.769083155725603 16.799021664578788,23.973566555262614 13.196966240158917,17.90595122678896" style="fill:none;stroke:black;stroke-width:1"/>
<polygon points="16.799021664578788,23.973566555262614 16.791784098630586,23.769083155725603 16.861780689829622,24.16464423718255" style="fill:none;stroke:black;stroke-width:1"/>
<polygon points="18.793056115858516,22.629088596953153 19.133985455786764,24.270536782022358 18.61890208872672,22.675293441313148" style="fill:none;stroke:black;stroke-width:1"/>
<polygon points="18.976280352596923,22.58970847964119 18.793056115858516,22.629088596953153 13.240931720920878,17.33725032826304" style="fill:none;stroke:black;stroke-width:1"/>
<polygon points="19.290668295805055,24.21888868732759 18.793056115858516,22.629088596953153 18.976280352596923,22.58970847964119" style="fill:none;stroke:black;stroke-width:1"/>
<polygon points="19.133985455786764,24.270536782022358 18.793056115858516,22.629088596953153 19.290668295805055,24.21888868732759" style="fill:none;stroke:black;stroke-width:1"/>
<polygon points="19.604033975841652,24.115592497938053 19.363894610253006,22.535956059641805 19.760716815859947,24.063944403243283" style="fill:none;stroke:black;stroke-width:1"/>
<polygon points="19.1670635877818,22.55828649774737 19.363894610253006,22.535956059641805 19.604033975841652,24.115592497938053" style="fill:none;stroke:black;stroke-width:1"/>
<polygon points="13.094725611088265,20.896737066292204 19.363894610253006,22.535956059641805 12.837145517389413,19.076136681159507" style="fill:none;stroke:black;stroke-width:1"/>
<polygon points="19.363894610253006,22.535956059641805 19.1670635877818,22.55828649774737 12.837145517389413,19.076136681159507" style="fill:none;stroke:black;stroke-width:1"/>
<polygon points="13.991964293994906,22.46318305862939 15.386257833931172,23.609684437597725 19.971052371190392,22.554429647674915" style="fill:none;stroke:black;stroke-width:1"/>
<polygon points="15.386257833931172,23.609684437597725 17.138055285196984,24.19791934369846 19.971052371190392,22.554429647674915" style="fill:none;stroke:black;stroke-width:1"/>
<polygon points="20.152690417340565,22.641300754602117 19.06754497876367,24.10188973970749 20.73993365154252,23.350284426176394" style="fill:none;stroke:black;stroke-width:1"/>
<polygon points="17.138055285196984,24.19791934369846 19.06754497876367,24.10188973970749 20.152690417340565,22.641300754602117" style="fill:none;stroke:black;stroke-width:1"/>
<polygon points="18.793056115858516,22.629088596953153 14.20620934409787,15.928030770082817 13.240931720920878,17.33725032826304" style="fill:none;stroke:black;stroke-width:1"/>
<polygon points="14.20620934409787,15.928030770082817 18.793056115858516,22.629088596953153 18.61890208872672,22.675293441313148" style="fill:none;stroke:black;stroke-width:1"/>
<polygon points="18.455329482361677,22.727189604351068 14.20620934409787,15.928030770082817 18.61890208872672,22.675293441313148" style="fill:none;stroke:black;stroke-width:1"/>
<polygon points="15.6225559420904,14.986991215611978 14.20620934409787,15.928030770082817 18.455329482361677,22.727189604351068" style="fill:none;stroke:black;stroke-width:1"/>
<polygon points="18.300201377415675,24.513247664343503 18.109870268936167,24.545016247195832 17.828584316556963,22.9338194253943" style="fill:none;stroke:black;stroke-width:1"/>
<polygon points="17.985267156575258,22.88217133069953 18.300201377415675,24.513247664343503 17.828584316556963,22.9338194253943" style="fill:none;stroke:black;stroke-width:1"/>
<polygon points="18.300201377415675,24.513247664343503 17.985267156575258,22.88217133069953 18.483022458204374,24.473383857160975" style="fill:none;stroke:black;stroke-width:1"/>
<polygon points="18.300201377415675,24.513247664343503 18.483022458204374,24.473383857160975 17.281813685289602,21.533892938887824" style="fill:none;stroke:black;stroke-width:1"/>
<polygon points="18.109870268936167,24.545016247195832 18.300201377415675,24.513247664343503 17.281813685289602,21.533892938887824" style="fill:none;stroke:black;stroke-width:1"/>
<polygon points="13.102757818959677,20.895006281932368 13.935571017631265,13.628705028311991 14.749261988198882,12.657083859044821" style="fill:none;stroke:black;stroke-width:1"/>
<polygon points="13.178700410440047,20.919508283422616 13.102757818959677,20.895006281932368 14.749261988198882,12.657083859044821" style="fill:none;stroke:black;stroke-width:1"/>
<polygon points="12.210705679125201,22.269542861522112 12.262339640242198,22.320913344411174 13.196966240158917,17.90595122678896" style="fill:none;stroke:black;stroke-width:1"/>
<polygon points="14.958456746957426,7.232436332280434 14.824251570961541,7.047897876212515 20.247777834681564,5.243429719884483" style="fill:none;stroke:black;stroke-width:1"/>
<polygon points="15.0816098314064,7.435308194989158 14.958456746957426,7.232436332280434 20.247777834681564,5.243429719884483" style="fill:none;stroke:black;stroke-width:1"/>
<polygon points="15.282901238173245,7.895562638978999 15.191080658327714,7.656828110998889 20.247777834681564,5.243429719884483" style="fill:none;stroke:black;stroke-width:1"/>
<polygon points="15.351280180483243,8.148211394826355 15.282901238173245,7.895562638978999 20.247777834681564,5.243429719884483" style="fill:none;stroke:black;stroke-width:1"/>
<polygon points="14.229352025719333,6.4854289555644025 13.641348008634159,7.86230375415426 14.070174677599615,6.378283638722785" style="fill:none;stroke:black;stroke-width:1"/>
<polygon points="13.641348008634159,7.86230375415426 13.475169617223429,7.7587161024039375 14.070174677599615,6.378283638722785" style="fill:none;stroke:black;stroke-width:1"/>
<polygon points="13.641348008634159,7.86230375415426 14.229352025719333,6.4854289555644025 14.381626201496552,6.601136468221535" style="fill:none;stroke:black;stroke-width:1"/>
<polygon points="13.475169617223429,7.7587161024039375 13.641348008634159,7.86230375415426 14.289401114089028,8.884606704729324" style="fill:none;stroke:black;stroke-width:1"/>
<polygon points="12.328943095432628,7.332105832187041 12.697083940369899,5.918859646678422 12.588992523354909,7.405072877188488" style="fill:none;stroke:black;stroke-width:1"/>
<polygon points="12.697083940369899,5.918859646678422 12.328943095432628,7.332105832187041 12.469439015788405,5.901394743377656" style="fill:none;stroke:black;stroke-width:1"/>
<polygon points="13.070046070908052,7.570130313761226 12.328943095432628,7.332105832187041 12.588992523354909,7.405072877188488" style="fill:none;stroke:black;stroke-width:1"/>
<polygon points="13.28377498144163,7.661674067571628 12.328943095432628,7.332105832187041 13.070046070908052,7.570130313761226" style="fill:none;stroke:black;stroke-width:1"/>
<polygon points="12.059655172413793,7.267241379310345 12.328943095432628,7.332105832187041 13.28377498144163,7.661674067571628" style="fill:none;stroke:black;stroke-width:1"/>
<polygon points="12.469439015788405,5.901394743377656 12.235294156589417,5.897635058363714 15.472363262902494,3.5164447865608626" style="fill:none;stroke:black;stroke-width:1"/>
<polygon points="12.328943095432628,7.332105832187041 12.235294156589417,5.897635058363714 12.469439015788405,5.901394743377656" style="fill:none;stroke:black;stroke-width:1"/>
<polygon points="12.235294156589417,5.897635058363714 12.328943095432628,7.332105832187041 12.059655172413793,7.267241379310345" style="fill:none;stroke:black;stroke-width:1"/>
<polygon points="17.187659428961588,14.531364090383827 20.412844094545587,18.649296978944157 19.362783147611324,13.577693271850967" style="fill:none;stroke:black;stroke-width:1"/>
<polygon points="20.412844094545587,18.649296978944157 19.345540634724124,19.90556969598935 19.362783147611324,13.577693271850967" style="fill:none;stroke:black;stroke-width:1"/>
<polygon points="18.2859939562315,16.101596384431648 19.61360093321934,16.952835084323805 19.362783147611324,13.577693271850967" style="fill:none;stroke:black;stroke-width:1"/>
<polygon points="16.80808354037072,16.760107723074363 18.2859939562315,16.101596384431648 19.362783147611324,13.577693271850967" style="fill:none;stroke:black;stroke-width:1"/>
<polygon points="17.553325228212618,19.8431998629666 16.44920501892325,18.448515775535846 19.362783147611324,13.577693271850967" style="fill:none;stroke:black;stroke-width:1"/>
<polygon points="16.44920501892325,18.448515775535846 16.80808354037072,16.760107723074363 19.362783147611324,13.577693271850967" style="fill:none;stroke:black;stroke-width:1"/>
<polygon points="14.736793611769432,18.312524353267033 15.45200485382062,19.439688372618093 17.53783956816624,12.613484651058778" style="fill:none;stroke:black;stroke-width:1"/>
<polygon points="13.507260443527331,18.50753211935306 14.736793611769432,18.312524353267033 17.53783956816624,12.613484651058778" style="fill:none;stroke:black;stroke-width:1"/>
<polygon points="15.482067397567537,21.344923227079835 14.194022878219045,20.124161101336917 17.53783956816624,12.613484651058778" style="fill:none;stroke:black;stroke-width:1"/>
<polygon points="14.194022878219045,20.124161101336917 13.507260443527331,18.50753211935306 17.53783956816624,12.613484651058778" style="fill:none;stroke:black;stroke-width:1"/>
<polygon points="17.712193797573644,24.57980254527316 17.508862874236996,24.581724137931037 17.35853579650207,23.088763709478606" style="fill:none;stroke:black;stroke-width:1"/>
<polygon points="17.508862874236996,24.581724137931037 17.200019059531012,23.153534524742536 17.35853579650207,23.088763709478606" style="fill:none;stroke:black;stroke-width:1"/>
<polygon points="17.508862874236996,24.581724137931037 17.712193797573644,24.57980254527316 14.564764131814254,20.784245166593276" style="fill:none;stroke:black;stroke-width:1"/>
<polygon points="17.30416300177391,24.54707288946064 17.508862874236996,24.581724137931037 14.564764131814254,20.784245166593276" style="fill:none;stroke:black;stroke-width:1"/>
<polygon points="17.508862874236996,24.581724137931037 17.30416300177391,24.54707288946064 17.122606999815993,24.46007573703254" style="fill:none;stroke:black;stroke-width:1"/>
<polygon points="19.363894610253006,22.535956059641805 19.56526220885038,22.5238505736946 19.760716815859947,24.063944403243283" style="fill:none;stroke:black;stroke-width:1"/>
<polygon points="19.917399655878246,24.012296308548514 19.56526220885038,22.5238505736946 19.769655172413792,22.52310344827586" style="fill:none;stroke:black;stroke-width:1"/>
<polygon points="19.56526220885038,22.5238505736946 19.917399655878246,24.012296308548514 19.760716815859947,24.063944403243283" style="fill:none;stroke:black;stroke-width:1"/>
<polygon points="19.56526220885038,22.5238505736946 13.094725611088265,20.896737066292204 19.769655172413792,22.52310344827586" style="fill:none;stroke:black;stroke-width:1"/>
<polygon points="19.56526220885038,22.5238505736946 19.363894610253006,22.535956059641805 13.094725611088265,20.896737066292204" style="fill:none;stroke:black;stroke-width:1"/>
<polygon points="13.247881569199397,20.95021837915376 13.178700410440047,20.919508283422616 14.749261988198882,12.657083859044821" style="fill:none;stroke:black;stroke-width:1"/>
<polygon points="16.651787023140617,13.59787506518449 13.416482184641207,21.07657482150244 14.749261988198882,12.657083859044821" style="fill:none;stroke:black;stroke-width:1"/>
<polygon points="13.416482184641207,21.07657482150244 13.364848223524211,21.025204338613378 14.749261988198882,12.657083859044821" style="fill:none;stroke:black;stroke-width:1"/>
<polygon points="12.646317949418439,20.910770074704264 12.547846099770002,20.953280489778393 13.935571017631265,13.628705028311991" style="fill:none;stroke:black;stroke-width:1"/>
<polygon points="12.547846099770002,20.953280489778393 12.452932992919806,21.011223123155 13.935571017631265,13.628705028311991" style="fill:none;stroke:black;stroke-width:1"/>
<polygon points="12.364124253370575,21.084095383610183 12.28377761962466,21.171291388717254 13.935571017631265,13.628705028311991" style="fill:none;stroke:black;stroke-width:1"/>
<polygon points="12.452932992919806,21.011223123155 12.364124253370575,21.084095383610183 13.935571017631265,13.628705028311991" style="fill:none;stroke:black;stroke-width:1"/>
<polygon points="12.126299736371067,22.13072010088884 12.164860333332516,22.205870944896088 13.196966240158917,17.90595122678896" style="fill:none;stroke:black;stroke-width:1"/>
<polygon points="12.164860333332516,22.205870944896088 12.210705679125201,22.269542861522112 13.196966240158917,17.90595122678896" style="fill:none;stroke:black;stroke-width:1"/>
<polygon points="17.508862874236996,24.581724137931037 17.054883748877312,23.260070371750878 17.200019059531012,23.153534524742536" style="fill:none;stroke:black;stroke-width:1"/>
<polygon points="17.054883748877312,23.260070371750878 17.122606999815993,24.46007573703254 16.932361225027854,23.40273971310007" style="fill:none;stroke:black;stroke-width:1"/>
<polygon points="17.054883748877312,23.260070371750878 17.508862874236996,24.581724137931037 17.122606999815993,24.46007573703254" style="fill:none;stroke:black;stroke-width:1"/>
<polygon points="12.262339640242198,22.320913344411174 12.31767051591518,22.360713888191523 16.932361225027854,23.40273971310007" style="fill:none;stroke:black;stroke-width:1"/>
<polygon points="12.31767051591518,22.360713888191523 17.054883748877312,23.260070371750878 16.932361225027854,23.40273971310007" style="fill:none;stroke:black;stroke-width:1"/>
<polygon points="17.054883748877312,23.260070371750878 12.31767051591518,22.360713888191523 12.379451029554135,22.396233838999873" style="fill:none;stroke:black;stroke-width:1"/>
<polygon points="12.694487798867497,22.476940826800632 17.515218636520366,23.03711561478384 17.35853579650207,23.088763709478606" style="fill:none;stroke:black;stroke-width:1"/>
<polygon points="14.533206027450694,6.732562592146275 13.788698482213407,7.979125469492722 14.381626201496552,6.601136468221535" style="fill:none;stroke:black;stroke-width:1"/>
<polygon points="13.788698482213407,7.979125469492722 13.641348008634159,7.86230375415426 14.381626201496552,6.601136468221535" style="fill:none;stroke:black;stroke-width:1"/>
<polygon points="13.641348008634159,7.86230375415426 13.788698482213407,7.979125469492722 14.289401114089028,8.884606704729324" style="fill:none;stroke:black;stroke-width:1"/>
<polygon points="11.997826324906915,5.92364384518412 12.059655172413793,7.267241379310345 11.777565985530847,6.0337829868273385" style="fill:none;stroke:black;stroke-width:1"/>
<polygon points="11.997826324906915,5.92364384518412 12.235294156589417,5.897635058363714 12.059655172413793,7.267241379310345" style="fill:none;stroke:black;stroke-width:1"/>
<polygon points="11.997826324906915,5.92364384518412 11.777565985530847,6.0337829868273385 15.472363262902494,3.5164447865608626" style="fill:none;stroke:black;stroke-width:1"/>
<polygon points="12.235294156589417,5.897635058363714 11.997826324906915,5.92364384518412 15.472363262902494,3.5164447865608626" style="fill:none;stroke:black;stroke-width:1"/>
<polygon points="13.364848223524211,21.025204338613378 13.30952380212615,20.98552161142003 14.749261988198882,12.657083859044821" style="fill:none;stroke:black;stroke-width:1"/>
<polygon points="13.30952380212615,20.98552161142003 13.247881569199397,20.95021837915376 14.749261988198882,12.657083859044821" style="fill:none;stroke:black;stroke-width:1"/>
<polygon points="13.46232753043389,21.140246738128464 16.651787023140617,13.59787506518449 13.500888127395342,21.215397582135715" style="fill:none;stroke:black;stroke-width:1"/>
<polygon points="13.46232753043389,21.140246738128464 13.416482184641207,21.07657482150244 16.651787023140617,13.59787506518449" style="fill:none;stroke:black;stroke-width:1"/>
<polygon points="12.745629458719701,20.884068444075744 12.646317949418439,20.910770074704264 13.935571017631265,13.628705028311991" style="fill:none;stroke:black;stroke-width:1"/>
<polygon points="12.841774793720528,20.871712235422002 12.745629458719701,20.884068444075744 13.935571017631265,13.628705028311991" style="fill:none;stroke:black;stroke-width:1"/>
<polygon points="12.93360428365207,20.87001984919141 12.841774793720528,20.871712235422002 13.935571017631265,13.628705028311991" style="fill:none;stroke:black;stroke-width:1"/>
<polygon points="12.07642111564914,21.950160977502915 12.096405136907006,22.04509386539808 13.154909756685921,15.612674090596208" style="fill:none;stroke:black;stroke-width:1"/>
<polygon points="12.067435957567668,21.847236947750382 12.07642111564914,21.950160977502915 13.154909756685921,15.612674090596208" style="fill:none;stroke:black;stroke-width:1"/>
<polygon points="12.085933650243575,21.623284896387258 12.070364488990101,21.737763311768294 13.154909756685921,15.612674090596208" style="fill:none;stroke:black;stroke-width:1"/>
<polygon points="12.070364488990101,21.737763311768294 12.067435957567668,21.847236947750382 13.154909756685921,15.612674090596208" style="fill:none;stroke:black;stroke-width:1"/>
<polygon points="12.28377761962466,21.171291388717254 12.214051479900837,21.272126327688696 13.154909756685921,15.612674090596208" style="fill:none;stroke:black;stroke-width:1"/>
<polygon points="12.214051479900837,21.272126327688696 12.156896551724138,21.38586206896552 13.154909756685921,15.612674090596208" style="fill:none;stroke:black;stroke-width:1"/>
<polygon points="12.11467103137165,21.505425456798697 12.085933650243575,21.623284896387258 13.154909756685921,15.612674090596208" style="fill:none;stroke:black;stroke-width:1"/>
<polygon points="12.156896551724138,21.38586206896552 12.11467103137165,21.505425456798697 13.154909756685921,15.612674090596208" style="fill:none;stroke:black;stroke-width:1"/>
<polygon points="17.200019059531012,23.153534524742536 12.607053432277052,22.4687739751842 17.35853579650207,23.088763709478606" style="fill:none;stroke:black;stroke-width:1"/>
<polygon points="12.607053432277052,22.4687739751842 12.694487798867497,22.476940826800632 17.35853579650207,23.088763709478606" style="fill:none;stroke:black;stroke-width:1"/>
<polygon points="17.515218636520366,23.03711561478384 12.786558749969856,22.475285950947168 17.671901476538665,22.98546752008907" style="fill:none;stroke:black;stroke-width:1"/>
<polygon points="12.694487798867497,22.476940826800632 12.786558749969856,22.475285950947168 17.515218636520366,23.03711561478384" style="fill:none;stroke:black;stroke-width:1"/>
<polygon points="17.671901476538665,22.98546752008907 12.786558749969856,22.475285950947168 17.828584316556963,22.9338194253943" style="fill:none;stroke:black;stroke-width:1"/>
<polygon points="13.91946698317966,8.107707776207658 14.533206027450694,6.732562592146275 14.68162457419916,6.8813781788222" style="fill:none;stroke:black;stroke-width:1"/>
<polygon points="13.91946698317966,8.107707776207658 13.788698482213407,7.979125469492722 14.533206027450694,6.732562592146275" style="fill:none;stroke:black;stroke-width:1"/>
<polygon points="13.91946698317966,8.107707776207658 14.68162457419916,6.8813781788222 14.824251570961541,7.047897876212515" style="fill:none;stroke:black;stroke-width:1"/>
<polygon points="13.788698482213407,7.979125469492722 13.91946698317966,8.107707776207658 14.289401114089028,8.884606704729324" style="fill:none;stroke:black;stroke-width:1"/>
<polygon points="13.102757818959677,20.895006281932368 13.020817825163425,20.87811334879773 13.935571017631265,13.628705028311991" style="fill:none;stroke:black;stroke-width:1"/>
<polygon points="13.020817825163425,20.87811334879773 12.93360428365207,20.87001984919141 13.935571017631265,13.628705028311991" style="fill:none;stroke:black;stroke-width:1"/>
<polygon points="17.054883748877312,23.260070371750878 12.448791105117412,22.42712481164011 17.200019059531012,23.153534524742536" style="fill:none;stroke:black;stroke-width:1"/>
<polygon points="12.448791105117412,22.42712481164011 17.054883748877312,23.260070371750878 12.379451029554135,22.396233838999873" style="fill:none;stroke:black;stroke-width:1"/>
<polygon points="12.882773241709023,22.46312871103173 17.985267156575258,22.88217133069953 17.828584316556963,22.9338194253943" style="fill:none;stroke:black;stroke-width:1"/>
<polygon points="12.786558749969856,22.475285950947168 12.882773241709023,22.46312871103173 17.828584316556963,22.9338194253943" style="fill:none;stroke:black;stroke-width:1"/>
<polygon points="17.985267156575258,22.88217133069953 12.882773241709023,22.46312871103173 18.141949996593553,22.830523236004762" style="fill:none;stroke:black;stroke-width:1"/>
<polygon points="14.958456746957426,7.232436332280434 14.032648403397856,8.246838632136207 14.824251570961541,7.047897876212515" style="fill:none;stroke:black;stroke-width:1"/>
<polygon points="14.032648403397856,8.246838632136207 13.91946698317966,8.107707776207658 14.824251570961541,7.047897876212515" style="fill:none;stroke:black;stroke-width:1"/>
<polygon points="13.91946698317966,8.107707776207658 14.032648403397856,8.246838632136207 14.289401114089028,8.884606704729324" style="fill:none;stroke:black;stroke-width:1"/>
<polygon points="12.52491324949343,22.451771848406455 12.607053432277052,22.4687739751842 17.200019059531012,23.153534524742536" style="fill:none;stroke:black;stroke-width:1"/>
<polygon points="12.448791105117412,22.42712481164011 12.52491324949343,22.451771848406455 17.200019059531012,23.153534524742536" style="fill:none;stroke:black;stroke-width:1"/>
<polygon points="12.98148042080367,22.43693386879537 18.455329482361677,22.727189604351068 18.29863283661185,22.778875141309992" style="fill:none;stroke:black;stroke-width:1"/>
<polygon points="18.455329482361677,22.727189604351068 12.98148042080367,22.43693386879537 13.07945783914229,22.394563229842554" style="fill:none;stroke:black;stroke-width:1"/>
<polygon points="18.141949996593553,22.830523236004762 12.98148042080367,22.43693386879537 18.29863283661185,22.778875141309992" style="fill:none;stroke:black;stroke-width:1"/>
<polygon points="12.882773241709023,22.46312871103173 12.98148042080367,22.43693386879537 18.141949996593553,22.830523236004762" style="fill:none;stroke:black;stroke-width:1"/>
<polygon points="14.127237634732948,8.395305995115507 14.958456746957426,7.232436332280434 15.0816098314064,7.435308194989158" style="fill:none;stroke:black;stroke-width:1"/>
<polygon points="14.127237634732948,8.395305995115507 14.032648403397856,8.246838632136207 14.958456746957426,7.232436332280434" style="fill:none;stroke:black;stroke-width:1"/>
<polygon points="14.127237634732948,8.395305995115507 15.0816098314064,7.435308194989158 15.191080658327714,7.656828110998889" style="fill:none;stroke:black;stroke-width:1"/>
<polygon points="14.032648403397856,8.246838632136207 14.25661909821359,8.715402073574928 14.289401114089028,8.884606704729324" style="fill:none;stroke:black;stroke-width:1"/>
<polygon points="14.127237634732948,8.395305995115507 14.25661909821359,8.715402073574928 14.032648403397856,8.246838632136207" style="fill:none;stroke:black;stroke-width:1"/>
<polygon points="14.25661909821359,8.715402073574928 15.351280180483243,8.148211394826355 14.289401114089028,8.884606704729324" style="fill:none;stroke:black;stroke-width:1"/>
<polygon points="14.25661909821359,8.715402073574928 15.282901238173245,7.895562638978999 15.351280180483243,8.148211394826355" style="fill:none;stroke:black;stroke-width:1"/>
<polygon points="15.282901238173245,7.895562638978999 14.202229569049878,8.551897822982701 15.191080658327714,7.656828110998889" style="fill:none;stroke:black;stroke-width:1"/>
<polygon points="14.25661909821359,8.715402073574928 14.202229569049878,8.551897822982701 15.282901238173245,7.895562638978999" style="fill:none;stroke:black;stroke-width:1"/>
<polygon points="14.202229569049878,8.551897822982701 14.127237634732948,8.395305995115507 15.191080658327714,7.656828110998889" style="fill:none;stroke:black;stroke-width:1"/>
<polygon points="14.202229569049878,8.551897822982701 14.25661909821359,8.715402073574928 14.127237634732948,8.395305995115507" style="fill:none;stroke:black;stroke-width:1"/>
<polygon points="13.541254213522832,21.722832786637298 20.086570111738276,21.301725108613425 13.512516832394759,21.840692226225855" style="fill:none;stroke:black;stroke-width:1"/>
<polygon points="13.512516832394759,21.840692226225855 20.086570111738276,21.301725108613425 18.696085991788934,22.432303326305785" style="fill:none;stroke:black;stroke-width:1"/>
<polygon points="13.343427644742052,22.175588514019637 20.364859283319845,15.907737012643887 19.021884027133662,14.995461007456345" style="fill:none;stroke:black;stroke-width:1"/>
<polygon points="13.343427644742052,22.175588514019637 19.021884027133662,14.995461007456345 13.262810610013707,22.26325442279168" style="fill:none;stroke:black;stroke-width:1"/>
<polygon points="21.256781586279313,17.25314327474659 13.343427644742052,22.175588514019637 13.41388647467583,22.074252474653633" style="fill:none;stroke:black;stroke-width:1"/>
<polygon points="13.343427644742052,22.175588514019637 21.256781586279313,17.25314327474659 20.364859283319845,15.907737012643887" style="fill:none;stroke:black;stroke-width:1"/>
<polygon points="17.3655607592114,14.652654050113604 13.174058936179772,22.33647525315412 13.262810610013707,22.26325442279168" style="fill:none;stroke:black;stroke-width:1"/>
<polygon points="19.021884027133662,14.995461007456345 17.3655607592114,14.652654050113604 13.262810610013707,22.26325442279168" style="fill:none;stroke:black;stroke-width:1"/>
<polygon points="13.174058936179772,22.33647525315412 17.3655607592114,14.652654050113604 13.07945783914229,22.394563229842554" style="fill:none;stroke:black;stroke-width:1"/>
<polygon points="17.3655607592114,14.652654050113604 15.6225559420904,14.986991215611978 13.07945783914229,22.394563229842554" style="fill:none;stroke:black;stroke-width:1"/>
<polygon points="19.06754497876367,24.10188973970749 21.557586206896552,18.890689655172416 20.73993365154252,23.350284426176394" style="fill:none;stroke:black;stroke-width:1"/>
<polygon points="21.557586206896552,18.890689655172416 12.837145517389413,19.076136681159507 13.240931720920878,17.33725032826304" style="fill:none;stroke:black;stroke-width:1"/>
<polygon points="19.397720043232383,19.00417695983541 21.557586206896552,18.890689655172416 20.53659685839783,18.776401088527813" style="fill:none;stroke:black;stroke-width:1"/>
<polygon points="21.557586206896552,18.890689655172416 13.094725611088265,20.896737066292204 12.837145517389413,19.076136681159507" style="fill:none;stroke:black;stroke-width:1"/>
<polygon points="21.557586206896552,18.890689655172416 20.382068701586597,17.514925367663658 21.16381810537621,19.107031890647114" style="fill:none;stroke:black;stroke-width:1"/>
<polygon points="21.557586206896552,18.890689655172416 22.126107453972256,17.50896623696005 20.963586476574825,16.260789350206675" style="fill:none;stroke:black;stroke-width:1"/>
<polygon points="21.557586206896552,18.890689655172416 17.187659428961588,14.531364090383827 15.783513223978492,15.54751541895541" style="fill:none;stroke:black;stroke-width:1"/>
<polygon points="19.33351370679929,15.55156490599802 21.557586206896552,18.890689655172416 20.963586476574825,16.260789350206675" style="fill:none;stroke:black;stroke-width:1"/>
<polygon points="21.557586206896552,18.890689655172416 17.3655607592114,14.652654050113604 19.021884027133662,14.995461007456345" style="fill:none;stroke:black;stroke-width:1"/>
<polygon points="22.507936947097242,18.930456190199994 21.557586206896552,18.890689655172416 21.16381810537621,19.107031890647114" style="fill:none;stroke:black;stroke-width:1"/>
<polygon points="18.87956143822651,16.664262217275393 21.557586206896552,18.890689655172416 17.24455313990151,17.060479037015927" style="fill:none;stroke:black;stroke-width:1"/>
<polygon points="14.867332955543253,17.07716858973509 21.557586206896552,18.890689655172416 15.783513223978492,15.54751541895541" style="fill:none;stroke:black;stroke-width:1"/>
<polygon points="21.557586206896552,18.890689655172416 16.38444067920434,18.417278869949918 17.24455313990151,17.060479037015927" style="fill:none;stroke:black;stroke-width:1"/>
<polygon points="21.557586206896552,18.890689655172416 17.198422265724446,21.998316548015968 19.61360093321934,16.952835084323805" style="fill:none;stroke:black;stroke-width:1"/>
<polygon points="21.557586206896552,18.890689655172416 15.386257833931172,23.609684437597725 13.991964293994906,22.46318305862939" style="fill:none;stroke:black;stroke-width:1"/>
<polygon points="21.557586206896552,18.890689655172416 16.77274429617165,20.446855186269442 15.45200485382062,19.439688372618093" style="fill:none;stroke:black;stroke-width:1"/>
<polygon points="21.557586206896552,18.890689655172416 20.9605448987189,19.697083760563306 20.53659685839783,18.776401088527813" style="fill:none;stroke:black;stroke-width:1"/>
<polygon points="20.086570111738276,21.301725108613425 21.557586206896552,18.890689655172416 18.696085991788934,22.432303326305785" style="fill:none;stroke:black;stroke-width:1"/>
<polygon points="21.557586206896552,18.890689655172416 21.992428645721297,22.07855015390577 20.73993365154252,23.350284426176394" style="fill:none;stroke:black;stroke-width:1"/>
<polygon points="20.382068701586597,17.514925367663658 21.557586206896552,18.890689655172416 18.87956143822651,16.664262217275393" style="fill:none;stroke:black;stroke-width:1"/>
<polygon points="21.557586206896552,18.890689655172416 14.867332955543253,17.07716858973509 14.931571538433436,18.442884818282003" style="fill:none;stroke:black;stroke-width:1"/>
<polygon points="16.38444067920434,18.417278869949918 21.557586206896552,18.890689655172416 14.931571538433436,18.442884818282003" style="fill:none;stroke:black;stroke-width:1"/>
<polygon points="14.20620934409787,15.928030770082817 21.557586206896552,18.890689655172416 13.240931720920878,17.33725032826304" style="fill:none;stroke:black;stroke-width:1"/>
<polygon points="21.557586206896552,18.890689655172416 20.412844094545587,18.649296978944157 17.187659428961588,14.531364090383827" style="fill:none;stroke:black;stroke-width:1"/>
<polygon points="13.094725611088265,20.896737066292204 21.557586206896552,18.890689655172416 13.991964293994906,22.46318305862939" style="fill:none;stroke:black;stroke-width:1"/>
<polygon points="21.557586206896552,18.890689655172416 16.44920501892325,18.448515775535846 17.553325228212618,19.8431998629666" style="fill:none;stroke:black;stroke-width:1"/>
<polygon points="20.364859283319845,15.907737012643887 21.557586206896552,18.890689655172416 19.021884027133662,14.995461007456345" style="fill:none;stroke:black;stroke-width:1"/>
<polygon points="21.256781586279313,17.25314327474659 21.557586206896552,18.890689655172416 20.364859283319845,15.907737012643887" style="fill:none;stroke:black;stroke-width:1"/>
<polygon points="16.77274429617165,20.446855186269442 21.557586206896552,18.890689655172416 18.414845785968915,20.248060778681378" style="fill:none;stroke:black;stroke-width:1"/>
<polygon points="21.557586206896552,18.890689655172416 19.397720043232383,19.00417695983541 18.414845785968915,20.248060778681378" style="fill:none;stroke:black;stroke-width:1"/>
<polygon points="21.557586206896552,18.890689655172416 20.086570111738276,21.301725108613425 20.9605448987189,19.697083760563306" style="fill:none;stroke:black;stroke-width:1"/>
<polygon points="22.126107453972256,17.50896623696005 21.557586206896552,18.890689655172416 22.507936947097242,18.930456190199994" style="fill:none;stroke:black;stroke-width:1"/>
<polygon points="21.992428645721297,22.07855015390577 21.557586206896552,18.890689655172416 22.711709257026797,20.4244559853427" style="fill:none;stroke:black;stroke-width:1"/>
<polygon points="21.557586206896552,18.890689655172416 19.33351370679929,15.55156490599802 22.711709257026797,20.4244559853427" style="fill:none;stroke:black;stroke-width:1"/>
<polygon points="19.345540634724124,19.90556969598935 21.557586206896552,18.890689655172416 17.553325228212618,19.8431998629666" style="fill:none;stroke:black;stroke-width:1"/>
<polygon points="18.2859939562315,16.101596384431648 21.557586206896552,18.890689655172416 19.61360093321934,16.952835084323805" style="fill:none;stroke:black;stroke-width:1"/>
<polygon points="17.198422265724446,21.998316548015968 21.557586206896552,18.890689655172416 15.482067397567537,21.344923227079835" style="fill:none;stroke:black;stroke-width:1"/>
<polygon points="14.736793611769432,18.312524353267033 21.557586206896552,18.890689655172416 15.45200485382062,19.439688372618093" style="fill:none;stroke:black;stroke-width:1"/>
<polygon points="15.386257833931172,23.609684437597725 21.557586206896552,18.890689655172416 17.138055285196984,24.19791934369846" style="fill:none;stroke:black;stroke-width:1"/>
<polygon points="21.557586206896552,18.890689655172416 19.06754497876367,24.10188973970749 17.138055285196984,24.19791934369846" style="fill:none;stroke:black;stroke-width:1"/>
<polygon points="21.557586206896552,18.890689655172416 14.194022878219045,20.124161101336917 15.482067397567537,21.344923227079835" style="fill:none;stroke:black;stroke-width:1"/>
<polygon points="17.3655607592114,14.652654050113604 21.557586206896552,18.890689655172416 15.6225559420904,14.986991215611978" style="fill:none;stroke:black;stroke-width:1"/>
<polygon points="21.557586206896552,18.890689655172416 14.20620934409787,15.928030770082817 15.6225559420904,14.986991215611978" style="fill:none;stroke:black;stroke-width:1"/>
<polygon points="20.412844094545587,18.649296978944157 21.557586206896552,18.890689655172416 19.345540634724124,19.90556969598935" style="fill:none;stroke:black;stroke-width:1"/>
<polygon points="21.557586206896552,18.890689655172416 18.2859939562315,16.101596384431648 16.80808354037072,16.760107723074363" style="fill:none;stroke:black;stroke-width:1"/>
<polygon points="16.44920501892325,18.448515775535846 21.557586206896552,18.890689655172416 16.80808354037072,16.760107723074363" style="fill:none;stroke:black;stroke-width:1"/>
<polygon points="21.557586206896552,18.890689655172416 14.736793611769432,18.312524353267033 13.507260443527331,18.50753211935306" style="fill:none;stroke:black;stroke-width:1"/>
<polygon points="14.194022878219045,20.124161101336917 21.557586206896552,18.890689655172416 13.507260443527331,18.50753211935306" style="fill:none;stroke:black;stroke-width:1"/>
<polygon points="21.557586206896552,18.890689655172416 13.47040188889911,21.9603812672315 13.512516832394759,21.840692226225855" style="fill:none;stroke:black;stroke-width:1"/>
<polygon points="21.557586206896552,18.890689655172416 13.512516832394759,21.840692226225855 18.696085991788934,22.432303326305785" style="fill:none;stroke:black;stroke-width:1"/>
<polygon points="13.47040188889911,21.9603812672315 21.557586206896552,18.890689655172416 13.41388647467583,22.074252474653633" style="fill:none;stroke:black;stroke-width:1"/>
<polygon points="21.557586206896552,18.890689655172416 21.256781586279313,17.25314327474659 13.41388647467583,22.074252474653633" style="fill:none;stroke:black;stroke-width:1"/>
<polygon points="12.98148042080367,22.43693386879537 13.500888127395342,21.215397582135715 13.530782726859403,21.301023817626472" style="fill:none;stroke:black;stroke-width:1"/>
<polygon points="13.550766748117269,21.39595670552164 12.98148042080367,22.43693386879537 13.530782726859403,21.301023817626472" style="fill:none;stroke:black;stroke-width:1"/>
<polygon points="12.98148042080367,22.43693386879537 12.070364488990101,21.737763311768294 12.085933650243575,21.623284896387258" style="fill:none;stroke:black;stroke-width:1"/>
<polygon points="12.98148042080367,22.43693386879537 13.174058936179772,22.33647525315412 13.07945783914229,22.394563229842554" style="fill:none;stroke:black;stroke-width:1"/>
<polygon points="12.98148042080367,22.43693386879537 13.559751906198738,21.498880735274177 13.556823374776306,21.608354371256258" style="fill:none;stroke:black;stroke-width:1"/>
<polygon points="13.541254213522832,21.722832786637298 12.98148042080367,22.43693386879537 13.556823374776306,21.608354371256258" style="fill:none;stroke:black;stroke-width:1"/>
<polygon points="12.98148042080367,22.43693386879537 13.46232753043389,21.140246738128464 13.500888127395342,21.215397582135715" style="fill:none;stroke:black;stroke-width:1"/>
<polygon points="12.98148042080367,22.43693386879537 13.47040188889911,21.9603812672315 13.41388647467583,22.074252474653633" style="fill:none;stroke:black;stroke-width:1"/>
<polygon points="13.174058936179772,22.33647525315412 12.98148042080367,22.43693386879537 13.262810610013707,22.26325442279168" style="fill:none;stroke:black;stroke-width:1"/>
<polygon points="13.343427644742052,22.175588514019637 12.98148042080367,22.43693386879537 13.41388647467583,22.074252474653633" style="fill:none;stroke:black;stroke-width:1"/>
<polygon points="12.98148042080367,22.43693386879537 12.126299736371067,22.13072010088884 12.096405136907006,22.04509386539808" style="fill:none;stroke:black;stroke-width:1"/>
<polygon points="13.559751906198738,21.498880735274177 12.98148042080367,22.43693386879537 13.550766748117269,21.39595670552164" style="fill:none;stroke:black;stroke-width:1"/>
<polygon points="13.47040188889911,21.9603812672315 12.98148042080367,22.43693386879537 13.512516832394759,21.840692226225855" style="fill:none;stroke:black;stroke-width:1"/>
<polygon points="12.98148042080367,22.43693386879537 13.541254213522832,21.722832786637298 13.512516832394759,21.840692226225855" style="fill:none;stroke:black;stroke-width:1"/>
<polygon points="13.247881569199397,20.95021837915376 12.98148042080367,22.43693386879537 13.178700410440047,20.919508283422616" style="fill:none;stroke:black;stroke-width:1"/>
<polygon points="12.98148042080367,22.43693386879537 13.30952380212615,20.98552161142003 13.364848223524211,21.025204338613378" style="fill:none;stroke:black;stroke-width:1"/>
<polygon points="12.364124253370575,21.084095383610183 12.98148042080367,22.43693386879537 12.28377761962466,21.171291388717254" style="fill:none;stroke:black;stroke-width:1"/>
<polygon points="12.98148042080367,22.43693386879537 13.343427644742052,22.175588514019637 13.262810610013707,22.26325442279168" style="fill:none;stroke:black;stroke-width:1"/>
<polygon points="12.98148042080367,22.43693386879537 12.31767051591518,22.360713888191523 12.262339640242198,22.320913344411174" style="fill:none;stroke:black;stroke-width:1"/>
<polygon points="12.98148042080367,22.43693386879537 13.102757818959677,20.895006281932368 13.178700410440047,20.919508283422616" style="fill:none;stroke:black;stroke-width:1"/>
<polygon points="12.98148042080367,22.43693386879537 12.547846099770002,20.953280489778393 12.646317949418439,20.910770074704264" style="fill:none;stroke:black;stroke-width:1"/>
<polygon points="12.98148042080367,22.43693386879537 12.448791105117412,22.42712481164011 12.379451029554135,22.396233838999873" style="fill:none;stroke:black;stroke-width:1"/>
<polygon points="12.210705679125201,22.269542861522112 12.98148042080367,22.43693386879537 12.262339640242198,22.320913344411174" style="fill:none;stroke:black;stroke-width:1"/>
<polygon points="12.98148042080367,22.43693386879537 12.164860333332516,22.205870944896088 12.126299736371067,22.13072010088884" style="fill:none;stroke:black;stroke-width:1"/>
<polygon points="12.98148042080367,22.43693386879537 13.020817825163425,20.87811334879773 13.102757818959677,20.895006281932368" style="fill:none;stroke:black;stroke-width:1"/>
<polygon points="13.416482184641207,21.07657482150244 12.98148042080367,22.43693386879537 13.364848223524211,21.025204338613378" style="fill:none;stroke:black;stroke-width:1"/>
<polygon points="12.745629458719701,20.884068444075744 12.98148042080367,22.43693386879537 12.646317949418439,20.910770074704264" style="fill:none;stroke:black;stroke-width:1"/>
<polygon points="12.547846099770002,20.953280489778393 12.98148042080367,22.43693386879537 12.452932992919806,21.011223123155" style="fill:none;stroke:black;stroke-width:1"/>
<polygon points="12.98148042080367,22.43693386879537 12.364124253370575,21.084095383610183 12.452932992919806,21.011223123155" style="fill:none;stroke:black;stroke-width:1"/>
<polygon points="12.07642111564914,21.950160977502915 12.98148042080367,22.43693386879537 12.096405136907006,22.04509386539808" style="fill:none;stroke:black;stroke-width:1"/>
<polygon points="12.98148042080367,22.43693386879537 12.214051479900837,21.272126327688696 12.28377761962466,21.171291388717254" style="fill:none;stroke:black;stroke-width:1"/>
<polygon points="12.164860333332516,22.205870944896088 12.98148042080367,22.43693386879537 12.210705679125201,22.269542861522112" style="fill:none;stroke:black;stroke-width:1"/>
<polygon points="12.31767051591518,22.360713888191523 12.98148042080367,22.43693386879537 12.379451029554135,22.396233838999873" style="fill:none;stroke:black;stroke-width:1"/>
<polygon points="12.11467103137165,21.505425456798697 12.98148042080367,22.43693386879537 12.085933650243575,21.623284896387258" style="fill:none;stroke:black;stroke-width:1"/>
<polygon points="13.30952380212615,20.98552161142003 12.98148042080367,22.43693386879537 13.247881569199397,20.95021837915376" style="fill:none;stroke:black;stroke-width:1"/>
<polygon points="13.46232753043389,21.140246738128464 12.98148042080367,22.43693386879537 13.416482184641207,21.07657482150244" style="fill:none;stroke:black;stroke-width:1"/>
<polygon points="12.98148042080367,22.43693386879537 12.745629458719701,20.884068444075744 12.841774793720528,20.871712235422002" style="fill:none;stroke:black;stroke-width:1"/>
<polygon points="12.93360428365207,20.87001984919141 12.98148042080367,22.43693386879537 12.841774793720528,20.871712235422002" style="fill:none;stroke:black;stroke-width:1"/>
<polygon points="12.98148042080367,22.43693386879537 12.07642111564914,21.950160977502915 12.067435957567668,21.847236947750382" style="fill:none;stroke:black;stroke-width:1"/>
<polygon points="12.070364488990101,21.737763311768294 12.98148042080367,22.43693386879537 12.067435957567668,21.847236947750382" style="fill:none;stroke:black;stroke-width:1"/>
<polygon points="12.214051479900837,21.272126327688696 12.98148042080367,22.43693386879537 12.156896551724138,21.38586206896552" style="fill:none;stroke:black;stroke-width:1"/>
<polygon points="12.98148042080367,22.43693386879537 12.11467103137165,21.505425456798697 12.156896551724138,21.38586206896552" style="fill:none;stroke:black;stroke-width:1"/>
<polygon points="12.607053432277052,22.4687739751842 12.98148042080367,22.43693386879537 12.694487798867497,22.476940826800632" style="fill:none;stroke:black;stroke-width:1"/>
<polygon points="12.98148042080367,22.43693386879537 12.786558749969856,22.475285950947168 12.694487798867497,22.476940826800632" style="fill:none;stroke:black;stroke-width:1"/>
<polygon points="13.020817825163425,20.87811334879773 12.98148042080367,22.43693386879537 12.93360428365207,20.87001984919141" style="fill:none;stroke:black;stroke-width:1"/>
<polygon points="12.52491324949343,22.451771848406455 12.98148042080367,22.43693386879537 12.607053432277052,22.4687739751842" style="fill:none;stroke:black;stroke-width:1"/>
<polygon points="12.98148042080367,22.43693386879537 12.882773241709023,22.46312871103173 12.786558749969856,22.475285950947168" style="fill:none;stroke:black;stroke-width:1"/>
<polygon points="12.98148042080367,22.43693386879537 12.52491324949343,22.451771848406455 12.448791105117412,22.42712481164011" style="fill:none;stroke:black;stroke-width:1"/>
</svg>
