<?xml version="1.0" encoding="UTF-8" standalone="no"?>
<svg xmlns="http://www.w3.org/2000/svg" version="1.1" width="800" height="800">
<polygon points="17.6771963157091,14.072436126007204 18.390917500905402,12.11274824343922 19.112313771332765,14.109363523403392" style="fill:none;stroke:black;stroke-width:1"/>
<polygon points="16.38796593866978,7.923519686766266 15.285208375941291,7.850762993750113 15.600950448381452,7.056314543993157" style="fill:none;stroke:black;stroke-width:1"/>
<polygon points="20.159020781376153,5.869113975326572 21.126891450251733,5.067475602756852 22.010226046389015,6.025463405393703" style="fill:none;stroke:black;stroke-width:1"/>
<polygon points="18.035840889426186,4.699170354822746 9.799332779198537,8.145951531914232 18.809894409538575,4.039527059975312" style="fill:none;stroke:black;stroke-width:1"/>
<polygon points="15.46724599417649,7.615185697222379 15.634827586206898,8.355862068965518 15.25250121043736,6.331023877293733" style="fill:none;stroke:black;stroke-width:1"/>
<polygon points="15.285208375941291,7.850762993750113 15.634827586206898,8.355862068965518 15.600950448381452,7.056314543993157" style="fill:none;stroke:black;stroke-width:1"/>
<polygon points="15.634827586206898,8.355862068965518 15.46724599417649,7.615185697222379 15.600950448381452,7.056314543993157" style="fill:none;stroke:black;stroke-width:1"/>
<polygon points="15.412882793365313,5.209640783241914 15.174317928680775,6.605694668170496 15.25250121043736,6.331023877293733" style="fill:none;stroke:black;stroke-width:1"/>
<polygon points="15.174317928680775,6.605694668170496 15.46724599417649,7.615185697222379 15.25250121043736,6.331023877293733" style="fill:none;stroke:black;stroke-width:1"/>
<polygon points="16.430257516075685,4.60272833541875 15.174317928680775,6.605694668170496 15.412882793365313,5.209640783241914" style="fill:none;stroke:black;stroke-width:1"/>
<polygon points="20.261713683914866,13.504543972401246 19.570652221303693,11.771769474160141 20.935454565670366,12.031385350771624" style="fill:none;stroke:black;stroke-width:1"/>
<polygon points="19.570652221303693,11.771769474160141 20.261713683914866,13.504543972401246 19.112313771332765,14.109363523403392" style="fill:none;stroke:black;stroke-width:1"/>
<polygon points="18.390917500905402,12.11274824343922 19.570652221303693,11.771769474160141 19.112313771332765,14.109363523403392" style="fill:none;stroke:black;stroke-width:1"/>
<polygon points="19.26652917129205,9.884998173326277 21.009007422871584,10.991580064232583 20.935454565670366,12.031385350771624" style="fill:none;stroke:black;stroke-width:1"/>
<polygon points="19.570652221303693,11.771769474160141 19.26652917129205,9.884998173326277 20.935454565670366,12.031385350771624" style="fill:none;stroke:black;stroke-width:1"/>
<polygon points="16.850901032465252,7.172111915042279 16.38796593866978,7.923519686766266 15.600950448381452,7.056314543993157" style="fill:none;stroke:black;stroke-width:1"/>
<polygon points="16.38796593866978,7.923519686766266 16.850901032465252,7.172111915042279 17.695154547236488,7.82663255790839" style="fill:none;stroke:black;stroke-width:1"/>
<polygon points="20.159020781376153,5.869113975326572 19.056451443803663,5.262957961849091 21.126891450251733,5.067475602756852" style="fill:none;stroke:black;stroke-width:1"/>
<polygon points="18.809894409538575,4.039527059975312 16.801877741052323,4.33029338882873 17.524826517995475,4.126357700086172" style="fill:none;stroke:black;stroke-width:1"/>
<polygon points="15.768982439289312,4.954335009403655 15.174317928680775,6.605694668170496 16.430257516075685,4.60272833541875" style="fill:none;stroke:black;stroke-width:1"/>
<polygon points="15.174317928680775,6.605694668170496 15.768982439289312,4.954335009403655 15.46724599417649,7.615185697222379" style="fill:none;stroke:black;stroke-width:1"/>
<polygon points="15.768982439289312,4.954335009403655 16.430257516075685,4.60272833541875 17.524826517995475,4.126357700086172" style="fill:none;stroke:black;stroke-width:1"/>
<polygon points="21.933822061368986,7.356873410993085 20.159020781376153,5.869113975326572 22.010226046389015,6.025463405393703" style="fill:none;stroke:black;stroke-width:1"/>
<polygon points="21.009007422871584,10.991580064232583 21.933822061368986,7.356873410993085 20.935454565670366,12.031385350771624" style="fill:none;stroke:black;stroke-width:1"/>
<polygon points="21.933822061368986,7.356873410993085 21.009007422871584,10.991580064232583 21.198522568302266,9.716020278966534" style="fill:none;stroke:black;stroke-width:1"/>
<polygon points="15.715981037966554,9.688722569597093 15.634827586206898,8.355862068965518 15.285208375941291,7.850762993750113" style="fill:none;stroke:black;stroke-width:1"/>
<polygon points="15.634827586206898,8.355862068965518 15.715981037966554,9.688722569597093 15.25250121043736,6.331023877293733" style="fill:none;stroke:black;stroke-width:1"/>
<polygon points="19.02522546712946,7.7454695452617415 18.944924756430247,8.135985048557703 17.695154547236488,7.82663255790839" style="fill:none;stroke:black;stroke-width:1"/>
<polygon points="19.26652917129205,9.884998173326277 19.382213384238618,8.806297727723885 21.009007422871584,10.991580064232583" style="fill:none;stroke:black;stroke-width:1"/>
<polygon points="21.009007422871584,10.991580064232583 19.382213384238618,8.806297727723885 21.198522568302266,9.716020278966534" style="fill:none;stroke:black;stroke-width:1"/>
<polygon points="19.382213384238618,8.806297727723885 19.02522546712946,7.7454695452617415 21.198522568302266,9.716020278966534" style="fill:none;stroke:black;stroke-width:1"/>
<polygon points="19.02522546712946,7.7454695452617415 19.382213384238618,8.806297727723885 18.944924756430247,8.135985048557703" style="fill:none;stroke:black;stroke-width:1"/>
<polygon points="22.94756674742716,21.46220191764108 19.570652221303693,11.771769474160141 18.390917500905402,12.11274824343922" style="fill:none;stroke:black;stroke-width:1"/>
<polygon points="19.570652221303693,11.771769474160141 22.94756674742716,21.46220191764108 23.022991659448227,21.322728885333824" style="fill:none;stroke:black;stroke-width:1"/>
<polygon points="22.08668040809323,22.60751968257994 22.205633388133627,22.50342472068319 18.390917500905402,12.11274824343922" style="fill:none;stroke:black;stroke-width:1"/>
<polygon points="16.60684099722858,7.703345417508345 16.850901032465252,7.172111915042279 15.600950448381452,7.056314543993157" style="fill:none;stroke:black;stroke-width:1"/>
<polygon points="15.46724599417649,7.615185697222379 16.60684099722858,7.703345417508345 15.600950448381452,7.056314543993157" style="fill:none;stroke:black;stroke-width:1"/>
<polygon points="15.768982439289312,4.954335009403655 16.60684099722858,7.703345417508345 15.46724599417649,7.615185697222379" style="fill:none;stroke:black;stroke-width:1"/>
<polygon points="16.850901032465252,7.172111915042279 18.127298517877065,7.284791998007676 17.695154547236488,7.82663255790839" style="fill:none;stroke:black;stroke-width:1"/>
<polygon points="18.127298517877065,7.284791998007676 19.02522546712946,7.7454695452617415 17.695154547236488,7.82663255790839" style="fill:none;stroke:black;stroke-width:1"/>
<polygon points="19.02522546712946,7.7454695452617415 18.127298517877065,7.284791998007676 19.317515998906085,6.631521257805147" style="fill:none;stroke:black;stroke-width:1"/>
<polygon points="19.056451443803663,5.262957961849091 19.92261512701441,4.7444107442139 21.126891450251733,5.067475602756852" style="fill:none;stroke:black;stroke-width:1"/>
<polygon points="19.92261512701441,4.7444107442139 19.056451443803663,5.262957961849091 18.035840889426186,4.699170354822746" style="fill:none;stroke:black;stroke-width:1"/>
<polygon points="21.126891450251733,5.067475602756852 19.92261512701441,4.7444107442139 18.809894409538575,4.039527059975312" style="fill:none;stroke:black;stroke-width:1"/>
<polygon points="19.92261512701441,4.7444107442139 18.035840889426186,4.699170354822746 18.809894409538575,4.039527059975312" style="fill:none;stroke:black;stroke-width:1"/>
<polygon points="20.054330494408433,7.119534876639655 19.056451443803663,5.262957961849091 20.159020781376153,5.869113975326572" style="fill:none;stroke:black;stroke-width:1"/>
<polygon points="21.933822061368986,7.356873410993085 20.054330494408433,7.119534876639655 20.159020781376153,5.869113975326572" style="fill:none;stroke:black;stroke-width:1"/>
<polygon points="21.23264649815117,8.359947501365685 21.933822061368986,7.356873410993085 21.198522568302266,9.716020278966534" style="fill:none;stroke:black;stroke-width:1"/>
<polygon points="19.02522546712946,7.7454695452617415 21.23264649815117,8.359947501365685 21.198522568302266,9.716020278966534" style="fill:none;stroke:black;stroke-width:1"/>
<polygon points="21.23264649815117,8.359947501365685 19.02522546712946,7.7454695452617415 19.317515998906085,6.631521257805147" style="fill:none;stroke:black;stroke-width:1"/>
<polygon points="20.054330494408433,7.119534876639655 21.23264649815117,8.359947501365685 19.317515998906085,6.631521257805147" style="fill:none;stroke:black;stroke-width:1"/>
<polygon points="21.23264649815117,8.359947501365685 20.054330494408433,7.119534876639655 21.933822061368986,7.356873410993085" style="fill:none;stroke:black;stroke-width:1"/>
<polygon points="12.325301723041509,19.959252936446063 17.81013938230054,8.180833478187758 17.695154547236488,7.82663255790839" style="fill:none;stroke:black;stroke-width:1"/>
<polygon points="12.74813140987359,23.792500970097926 17.81013938230054,8.180833478187758 12.674703990015956,23.85144433989432" style="fill:none;stroke:black;stroke-width:1"/>
<polygon points="17.81013938230054,8.180833478187758 16.38796593866978,7.923519686766266 17.695154547236488,7.82663255790839" style="fill:none;stroke:black;stroke-width:1"/>
<polygon points="22.94756674742716,21.46220191764108 22.470344827586207,20.106896551724137 23.022991659448227,21.322728885333824" style="fill:none;stroke:black;stroke-width:1"/>
<polygon points="22.953717865289377,20.327926098532515 22.971353328366295,25.858804314000935 19.26652917129205,9.884998173326277" style="fill:none;stroke:black;stroke-width:1"/>
<polygon points="23.15745852243847,20.816602052130733 19.26652917129205,9.884998173326277 19.570652221303693,11.771769474160141" style="fill:none;stroke:black;stroke-width:1"/>
<polygon points="23.15745852243847,20.816602052130733 23.130599535102593,20.636691076594218 19.26652917129205,9.884998173326277" style="fill:none;stroke:black;stroke-width:1"/>
<polygon points="23.13974858343863,20.997612816797314 23.15745852243847,20.816602052130733 19.570652221303693,11.771769474160141" style="fill:none;stroke:black;stroke-width:1"/>
<polygon points="16.547912020646965,13.29120306692619 17.115426629116115,11.697646069394306 17.6771963157091,14.072436126007204" style="fill:none;stroke:black;stroke-width:1"/>
<polygon points="17.115426629116115,11.697646069394306 18.390917500905402,12.11274824343922 17.6771963157091,14.072436126007204" style="fill:none;stroke:black;stroke-width:1"/>
<polygon points="16.60684099722858,7.703345417508345 17.782183498827536,7.6058398670226195 16.850901032465252,7.172111915042279" style="fill:none;stroke:black;stroke-width:1"/>
<polygon points="17.782183498827536,7.6058398670226195 18.127298517877065,7.284791998007676 16.850901032465252,7.172111915042279" style="fill:none;stroke:black;stroke-width:1"/>
<polygon points="9.926354894828506,8.08030806005744 9.799332779198537,8.145951531914232 18.035840889426186,4.699170354822746" style="fill:none;stroke:black;stroke-width:1"/>
<polygon points="10.049628634904513,8.019833869792034 9.926354894828506,8.08030806005744 18.035840889426186,4.699170354822746" style="fill:none;stroke:black;stroke-width:1"/>
<polygon points="10.284107583418542,7.913395267397685 10.168948148182533,7.964279444458589 18.035840889426186,4.699170354822746" style="fill:none;stroke:black;stroke-width:1"/>
<polygon points="10.168948148182533,7.964279444458589 10.049628634904513,8.019833869792034 18.035840889426186,4.699170354822746" style="fill:none;stroke:black;stroke-width:1"/>
<polygon points="19.382213384238618,8.806297727723885 14.024885747625403,8.497932758508341 18.944924756430247,8.135985048557703" style="fill:none;stroke:black;stroke-width:1"/>
<polygon points="10.822870866511817,10.582446775391391 14.024885747625403,8.497932758508341 19.382213384238618,8.806297727723885" style="fill:none;stroke:black;stroke-width:1"/>
<polygon points="17.115426629116115,11.697646069394306 21.44397898369147,22.844005656162572 18.390917500905402,12.11274824343922" style="fill:none;stroke:black;stroke-width:1"/>
<polygon points="16.375355014857604,9.214917732170894 16.447099005145834,10.32465311997 16.082046003356208,12.00431415918724" style="fill:none;stroke:black;stroke-width:1"/>
<polygon points="16.447099005145834,10.32465311997 16.547912020646965,13.29120306692619 16.082046003356208,12.00431415918724" style="fill:none;stroke:black;stroke-width:1"/>
<polygon points="16.6637542725294,8.24934450735998 15.715981037966554,9.688722569597093 15.285208375941291,7.850762993750113" style="fill:none;stroke:black;stroke-width:1"/>
<polygon points="16.38796593866978,7.923519686766266 16.6637542725294,8.24934450735998 15.285208375941291,7.850762993750113" style="fill:none;stroke:black;stroke-width:1"/>
<polygon points="23.130599535102593,20.636691076594218 23.06091170634687,20.471033719612734 19.26652917129205,9.884998173326277" style="fill:none;stroke:black;stroke-width:1"/>
<polygon points="23.06091170634687,20.471033719612734 22.953717865289377,20.327926098532515 19.26652917129205,9.884998173326277" style="fill:none;stroke:black;stroke-width:1"/>
<polygon points="23.06091170634687,20.471033719612734 23.13974858343863,20.997612816797314 22.953717865289377,20.327926098532515" style="fill:none;stroke:black;stroke-width:1"/>
<polygon points="23.15745852243847,20.816602052130733 23.06091170634687,20.471033719612734 23.130599535102593,20.636691076594218" style="fill:none;stroke:black;stroke-width:1"/>
<polygon points="23.06091170634687,20.471033719612734 23.15745852243847,20.816602052130733 23.13974858343863,20.997612816797314" style="fill:none;stroke:black;stroke-width:1"/>
<polygon points="22.953717865289377,20.327926098532515 22.81460580811797,20.21389532367957 22.971353328366295,25.858804314000935" style="fill:none;stroke:black;stroke-width:1"/>
<polygon points="22.81460580811797,20.21389532367957 22.470344827586207,20.106896551724137 22.649163331020535,20.1354685053799" style="fill:none;stroke:black;stroke-width:1"/>
<polygon points="22.470344827586207,20.106896551724137 22.81460580811797,20.21389532367957 23.022991659448227,21.322728885333824" style="fill:none;stroke:black;stroke-width:1"/>
<polygon points="23.08824081740739,21.166995780573178 19.570652221303693,11.771769474160141 23.022991659448227,21.322728885333824" style="fill:none;stroke:black;stroke-width:1"/>
<polygon points="23.08824081740739,21.166995780573178 23.13974858343863,20.997612816797314 19.570652221303693,11.771769474160141" style="fill:none;stroke:black;stroke-width:1"/>
<polygon points="23.13974858343863,20.997612816797314 23.08824081740739,21.166995780573178 22.953717865289377,20.327926098532515" style="fill:none;stroke:black;stroke-width:1"/>
<polygon points="22.81460580811797,20.21389532367957 23.08824081740739,21.166995780573178 23.022991659448227,21.322728885333824" style="fill:none;stroke:black;stroke-width:1"/>
<polygon points="23.08824081740739,21.166995780573178 22.81460580811797,20.21389532367957 22.953717865289377,20.327926098532515" style="fill:none;stroke:black;stroke-width:1"/>
<polygon points="20.054330494408433,7.119534876639655 11.784780517924293,8.615188680773013 19.056451443803663,5.262957961849091" style="fill:none;stroke:black;stroke-width:1"/>
<polygon points="11.159956838839598,9.562830134081464 11.784780517924293,8.615188680773013 11.820350164292545,8.823133144013813" style="fill:none;stroke:black;stroke-width:1"/>
<polygon points="18.957526000426498,7.508334316536894 20.054330494408433,7.119534876639655 19.317515998906085,6.631521257805147" style="fill:none;stroke:black;stroke-width:1"/>
<polygon points="18.127298517877065,7.284791998007676 18.957526000426498,7.508334316536894 19.317515998906085,6.631521257805147" style="fill:none;stroke:black;stroke-width:1"/>
<polygon points="18.957526000426498,7.508334316536894 11.784780517924293,8.615188680773013 20.054330494408433,7.119534876639655" style="fill:none;stroke:black;stroke-width:1"/>
<polygon points="11.784780517924293,8.615188680773013 18.957526000426498,7.508334316536894 11.820350164292545,8.823133144013813" style="fill:none;stroke:black;stroke-width:1"/>
<polygon points="17.782183498827536,7.6058398670226195 18.957526000426498,7.508334316536894 18.127298517877065,7.284791998007676" style="fill:none;stroke:black;stroke-width:1"/>
<polygon points="10.19477613569857,9.833163476093075 9.926354894828506,8.08030806005744 10.049628634904513,8.019833869792034" style="fill:none;stroke:black;stroke-width:1"/>
<polygon points="10.39490108936852,7.866931821949899 10.284107583418542,7.913395267397685 18.035840889426186,4.699170354822746" style="fill:none;stroke:black;stroke-width:1"/>
<polygon points="19.056451443803663,5.262957961849091 10.87979223974797,7.774610329777357 18.035840889426186,4.699170354822746" style="fill:none;stroke:black;stroke-width:1"/>
<polygon points="11.029362041469902,7.808378301275905 10.87979223974797,7.774610329777357 19.056451443803663,5.262957961849091" style="fill:none;stroke:black;stroke-width:1"/>
<polygon points="17.643690033223493,12.121750932999005 13.974387294995124,13.19069430875659 19.382213384238618,8.806297727723885" style="fill:none;stroke:black;stroke-width:1"/>
<polygon points="17.81013938230054,8.180833478187758 12.596816809965539,23.9145757032727 12.674703990015956,23.85144433989432" style="fill:none;stroke:black;stroke-width:1"/>
<polygon points="20.662426670418316,22.476036214248225 17.115426629116115,11.697646069394306 16.547912020646965,13.29120306692619" style="fill:none;stroke:black;stroke-width:1"/>
<polygon points="16.447099005145834,10.32465311997 20.662426670418316,22.476036214248225 16.547912020646965,13.29120306692619" style="fill:none;stroke:black;stroke-width:1"/>
<polygon points="16.6637542725294,8.24934450735998 15.976056991688584,10.925972143877246 15.715981037966554,9.688722569597093" style="fill:none;stroke:black;stroke-width:1"/>
<polygon points="15.976056991688584,10.925972143877246 16.6637542725294,8.24934450735998 16.375355014857604,9.214917732170894" style="fill:none;stroke:black;stroke-width:1"/>
<polygon points="15.976056991688584,10.925972143877246 16.375355014857604,9.214917732170894 16.082046003356208,12.00431415918724" style="fill:none;stroke:black;stroke-width:1"/>
<polygon points="15.976056991688584,10.925972143877246 16.082046003356208,12.00431415918724 15.25250121043736,6.331023877293733" style="fill:none;stroke:black;stroke-width:1"/>
<polygon points="15.715981037966554,9.688722569597093 15.976056991688584,10.925972143877246 15.25250121043736,6.331023877293733" style="fill:none;stroke:black;stroke-width:1"/>
<polygon points="22.205633388133627,22.50342472068319 22.30176871922899,22.386301698760157 18.390917500905402,12.11274824343922" style="fill:none;stroke:black;stroke-width:1"/>
<polygon points="22.30176871922899,22.386301698760157 22.382392392152433,22.27152194826028 18.390917500905402,12.11274824343922" style="fill:none;stroke:black;stroke-width:1"/>
<polygon points="22.30176871922899,22.386301698760157 22.205633388133627,22.50342472068319 21.341908613137157,20.67527809179998" style="fill:none;stroke:black;stroke-width:1"/>
<polygon points="22.54363499262271,22.04197486072797 22.624256292857854,21.927201316961817 18.390917500905402,12.11274824343922" style="fill:none;stroke:black;stroke-width:1"/>
<polygon points="22.54363499262271,22.04197486072797 21.77754082721524,20.254907732535976 22.624256292857854,21.927201316961817" style="fill:none;stroke:black;stroke-width:1"/>
<polygon points="22.866120193563273,21.582880685663355 22.94756674742716,21.46220191764108 18.390917500905402,12.11274824343922" style="fill:none;stroke:black;stroke-width:1"/>
<polygon points="22.785498893328132,21.69765422942951 22.866120193563273,21.582880685663355 18.390917500905402,12.11274824343922" style="fill:none;stroke:black;stroke-width:1"/>
<polygon points="22.866120193563273,21.582880685663355 22.470344827586207,20.106896551724137 22.94756674742716,21.46220191764108" style="fill:none;stroke:black;stroke-width:1"/>
<polygon points="22.624256292857854,21.927201316961817 22.70487759309299,21.812427773195665 18.390917500905402,12.11274824343922" style="fill:none;stroke:black;stroke-width:1"/>
<polygon points="22.70487759309299,21.812427773195665 22.785498893328132,21.69765422942951 18.390917500905402,12.11274824343922" style="fill:none;stroke:black;stroke-width:1"/>
<polygon points="22.470344827586207,20.106896551724137 8.73425217250596,23.935181563725493 22.649163331020535,20.1354685053799" style="fill:none;stroke:black;stroke-width:1"/>
<polygon points="22.205633388133627,22.50342472068319 21.26128731290202,20.790051635566137 21.341908613137157,20.67527809179998" style="fill:none;stroke:black;stroke-width:1"/>
<polygon points="22.08668040809323,22.60751968257994 21.26128731290202,20.790051635566137 22.205633388133627,22.50342472068319" style="fill:none;stroke:black;stroke-width:1"/>
<polygon points="21.792578898219368,22.766702771546285 21.019423412196595,21.134372266864595 21.10004471243174,21.01959872309844" style="fill:none;stroke:black;stroke-width:1"/>
<polygon points="11.641174954051756,23.47220499217886 16.447099005145834,10.32465311997 16.375355014857604,9.214917732170894" style="fill:none;stroke:black;stroke-width:1"/>
<polygon points="11.714602373909388,23.41326162238246 11.641174954051756,23.47220499217886 16.375355014857604,9.214917732170894" style="fill:none;stroke:black;stroke-width:1"/>
<polygon points="24.144572668728856,17.931348309939423 25.16836940614905,19.803709756742272 17.81013938230054,8.180833478187758" style="fill:none;stroke:black;stroke-width:1"/>
<polygon points="19.382213384238618,8.806297727723885 25.95052836325437,16.639675176108703 22.860793917435682,17.194058310449293" style="fill:none;stroke:black;stroke-width:1"/>
<polygon points="25.95052836325437,16.639675176108703 19.382213384238618,8.806297727723885 19.26652917129205,9.884998173326277" style="fill:none;stroke:black;stroke-width:1"/>
<polygon points="11.316618199751954,9.510544422437402 11.710227245096736,9.20596726080111 11.439385062674884,9.448732243564368" style="fill:none;stroke:black;stroke-width:1"/>
<polygon points="17.782183498827536,7.6058398670226195 11.316618199751954,9.510544422437402 11.439385062674884,9.448732243564368" style="fill:none;stroke:black;stroke-width:1"/>
<polygon points="18.957526000426498,7.508334316536894 11.79383021375671,9.02490828560585 11.820350164292545,8.823133144013813" style="fill:none;stroke:black;stroke-width:1"/>
<polygon points="11.79383021375671,9.02490828560585 18.957526000426498,7.508334316536894 11.710227245096736,9.20596726080111" style="fill:none;stroke:black;stroke-width:1"/>
<polygon points="11.316618199751954,9.510544422437402 11.79383021375671,9.02490828560585 11.710227245096736,9.20596726080111" style="fill:none;stroke:black;stroke-width:1"/>
<polygon points="11.79383021375671,9.02490828560585 11.159956838839598,9.562830134081464 11.820350164292545,8.823133144013813" style="fill:none;stroke:black;stroke-width:1"/>
<polygon points="11.57926088421073,9.350668292482785 18.957526000426498,7.508334316536894 17.782183498827536,7.6058398670226195" style="fill:none;stroke:black;stroke-width:1"/>
<polygon points="18.957526000426498,7.508334316536894 11.57926088421073,9.350668292482785 11.710227245096736,9.20596726080111" style="fill:none;stroke:black;stroke-width:1"/>
<polygon points="11.57926088421073,9.350668292482785 17.782183498827536,7.6058398670226195 11.439385062674884,9.448732243564368" style="fill:none;stroke:black;stroke-width:1"/>
<polygon points="11.710227245096736,9.20596726080111 11.57926088421073,9.350668292482785 11.439385062674884,9.448732243564368" style="fill:none;stroke:black;stroke-width:1"/>
<polygon points="10.168948148182533,7.964279444458589 10.365710234028548,9.814467569565762 10.049628634904513,8.019833869792034" style="fill:none;stroke:black;stroke-width:1"/>
<polygon points="10.365710234028548,9.814467569565762 10.19477613569857,9.833163476093075 10.049628634904513,8.019833869792034" style="fill:none;stroke:black;stroke-width:1"/>
<polygon points="10.365710234028548,9.814467569565762 10.168948148182533,7.964279444458589 10.284107583418542,7.913395267397685" style="fill:none;stroke:black;stroke-width:1"/>
<polygon points="9.926354894828506,8.08030806005744 10.003920543809926,9.835496275720903 9.799332779198537,8.145951531914232" style="fill:none;stroke:black;stroke-width:1"/>
<polygon points="10.19477613569857,9.833163476093075 10.003920543809926,9.835496275720903 9.926354894828506,8.08030806005744" style="fill:none;stroke:black;stroke-width:1"/>
<polygon points="10.003920543809926,9.835496275720903 10.19477613569857,9.833163476093075 9.798810571039565,9.820170864828585" style="fill:none;stroke:black;stroke-width:1"/>
<polygon points="10.610819768779745,7.785929749738497 10.501122814788445,7.82463959145581 18.035840889426186,4.699170354822746" style="fill:none;stroke:black;stroke-width:1"/>
<polygon points="10.501122814788445,7.82463959145581 10.39490108936852,7.866931821949899 18.035840889426186,4.699170354822746" style="fill:none;stroke:black;stroke-width:1"/>
<polygon points="10.738600032828078,7.767688106621813 10.610819768779745,7.785929749738497 18.035840889426186,4.699170354822746" style="fill:none;stroke:black;stroke-width:1"/>
<polygon points="10.87979223974797,7.774610329777357 10.738600032828078,7.767688106621813 18.035840889426186,4.699170354822746" style="fill:none;stroke:black;stroke-width:1"/>
<polygon points="9.534866826252799,8.293744387039652 16.801877741052323,4.33029338882873 18.809894409538575,4.039527059975312" style="fill:none;stroke:black;stroke-width:1"/>
<polygon points="9.534866826252799,8.293744387039652 9.397834691425075,8.376392803627123 16.801877741052323,4.33029338882873" style="fill:none;stroke:black;stroke-width:1"/>
<polygon points="8.875152350010978,9.095127625432871 15.768982439289312,4.954335009403655 17.524826517995475,4.126357700086172" style="fill:none;stroke:black;stroke-width:1"/>
<polygon points="9.169221302470934,9.636325409697374 16.60684099722858,7.703345417508345 15.768982439289312,4.954335009403655" style="fill:none;stroke:black;stroke-width:1"/>
<polygon points="9.013629244456796,9.488359283522321 9.169221302470934,9.636325409697374 15.768982439289312,4.954335009403655" style="fill:none;stroke:black;stroke-width:1"/>
<polygon points="21.041883038974277,13.829643861539866 19.382213384238618,8.806297727723885 22.860793917435682,17.194058310449293" style="fill:none;stroke:black;stroke-width:1"/>
<polygon points="21.041883038974277,13.829643861539866 17.643690033223493,12.121750932999005 19.382213384238618,8.806297727723885" style="fill:none;stroke:black;stroke-width:1"/>
<polygon points="8.727626738371814,13.799206415913172 10.822870866511817,10.582446775391391 19.382213384238618,8.806297727723885" style="fill:none;stroke:black;stroke-width:1"/>
<polygon points="8.834428180621629,16.645669814127697 8.727626738371814,13.799206415913172 19.382213384238618,8.806297727723885" style="fill:none;stroke:black;stroke-width:1"/>
<polygon points="13.974387294995124,13.19069430875659 12.050979287120748,16.397286377666482 19.382213384238618,8.806297727723885" style="fill:none;stroke:black;stroke-width:1"/>
<polygon points="12.050979287120748,16.397286377666482 8.834428180621629,16.645669814127697 19.382213384238618,8.806297727723885" style="fill:none;stroke:black;stroke-width:1"/>
<polygon points="18.944924756430247,8.135985048557703 11.669413066097636,24.42792578416505 17.695154547236488,7.82663255790839" style="fill:none;stroke:black;stroke-width:1"/>
<polygon points="12.425782312729183,24.050977780504386 12.513980141485739,23.981303080486892 17.81013938230054,8.180833478187758" style="fill:none;stroke:black;stroke-width:1"/>
<polygon points="12.513980141485739,23.981303080486892 12.596816809965539,23.9145757032727 17.81013938230054,8.180833478187758" style="fill:none;stroke:black;stroke-width:1"/>
<polygon points="12.331896200548659,24.122904631251405 12.425782312729183,24.050977780504386 17.81013938230054,8.180833478187758" style="fill:none;stroke:black;stroke-width:1"/>
<polygon points="22.382392392152433,22.27152194826028 22.463013692387573,22.156748404494124 18.390917500905402,12.11274824343922" style="fill:none;stroke:black;stroke-width:1"/>
<polygon points="22.463013692387573,22.156748404494124 22.54363499262271,22.04197486072797 18.390917500905402,12.11274824343922" style="fill:none;stroke:black;stroke-width:1"/>
<polygon points="21.51849248489249,20.445096536251434 22.463013692387573,22.156748404494124 22.382392392152433,22.27152194826028" style="fill:none;stroke:black;stroke-width:1"/>
<polygon points="21.77754082721524,20.254907732535976 21.933940783376116,20.185081106105265 22.624256292857854,21.927201316961817" style="fill:none;stroke:black;stroke-width:1"/>
<polygon points="21.933940783376116,20.185081106105265 22.70487759309299,21.812427773195665 22.624256292857854,21.927201316961817" style="fill:none;stroke:black;stroke-width:1"/>
<polygon points="6.5145031976388275,16.571469405281935 21.933940783376116,20.185081106105265 7.567023808606891,12.820049941899292" style="fill:none;stroke:black;stroke-width:1"/>
<polygon points="21.933940783376116,20.185081106105265 21.77754082721524,20.254907732535976 7.567023808606891,12.820049941899292" style="fill:none;stroke:black;stroke-width:1"/>
<polygon points="21.4225605927757,20.56042134300237 22.30176871922899,22.386301698760157 21.341908613137157,20.67527809179998" style="fill:none;stroke:black;stroke-width:1"/>
<polygon points="22.30176871922899,22.386301698760157 21.4225605927757,20.56042134300237 22.382392392152433,22.27152194826028" style="fill:none;stroke:black;stroke-width:1"/>
<polygon points="21.4225605927757,20.56042134300237 21.51849248489249,20.445096536251434 22.382392392152433,22.27152194826028" style="fill:none;stroke:black;stroke-width:1"/>
<polygon points="6.918775275642782,20.524818817159584 8.73425217250596,23.935181563725493 22.470344827586207,20.106896551724137" style="fill:none;stroke:black;stroke-width:1"/>
<polygon points="15.349386149718637,27.718391039786717 22.81460580811797,20.21389532367957 22.649163331020535,20.1354685053799" style="fill:none;stroke:black;stroke-width:1"/>
<polygon points="13.12167805716261,7.876419677024222 21.4225605927757,20.56042134300237 11.549463678910026,24.337690819758837" style="fill:none;stroke:black;stroke-width:1"/>
<polygon points="20.938802111961458,21.24914581063075 21.44397898369147,22.844005656162572 20.858180811726314,21.363919354396902" style="fill:none;stroke:black;stroke-width:1"/>
<polygon points="21.18066601266688,20.90482517933229 21.26128731290202,20.790051635566137 22.08668040809323,22.60751968257994" style="fill:none;stroke:black;stroke-width:1"/>
<polygon points="21.792578898219368,22.766702771546285 21.623559066906918,22.816829571241726 21.019423412196595,21.134372266864595" style="fill:none;stroke:black;stroke-width:1"/>
<polygon points="20.938802111961458,21.24914581063075 21.623559066906918,22.816829571241726 21.44397898369147,22.844005656162572" style="fill:none;stroke:black;stroke-width:1"/>
<polygon points="21.623559066906918,22.816829571241726 20.938802111961458,21.24914581063075 21.019423412196595,21.134372266864595" style="fill:none;stroke:black;stroke-width:1"/>
<polygon points="21.44397898369147,22.844005656162572 21.623559066906918,22.816829571241726 18.390917500905402,12.11274824343922" style="fill:none;stroke:black;stroke-width:1"/>
<polygon points="21.623559066906918,22.816829571241726 21.792578898219368,22.766702771546285 18.390917500905402,12.11274824343922" style="fill:none;stroke:black;stroke-width:1"/>
<polygon points="16.6637542725294,8.24934450735998 12.497063428667985,22.89725708031798 16.375355014857604,9.214917732170894" style="fill:none;stroke:black;stroke-width:1"/>
<polygon points="16.447099005145834,10.32465311997 11.441752941944381,23.61902664324057 20.636060187882197,21.779804259487083" style="fill:none;stroke:black;stroke-width:1"/>
<polygon points="15.415496198053047,22.08462897928399 17.81013938230054,8.180833478187758 12.325301723041509,19.959252936446063" style="fill:none;stroke:black;stroke-width:1"/>
<polygon points="15.415496198053047,22.08462897928399 19.204470482935857,21.51152647557189 17.81013938230054,8.180833478187758" style="fill:none;stroke:black;stroke-width:1"/>
<polygon points="21.5109316152559,18.59950960174774 24.144572668728856,17.931348309939423 17.81013938230054,8.180833478187758" style="fill:none;stroke:black;stroke-width:1"/>
<polygon points="19.204470482935857,21.51152647557189 21.5109316152559,18.59950960174774 17.81013938230054,8.180833478187758" style="fill:none;stroke:black;stroke-width:1"/>
<polygon points="25.16836940614905,19.803709756742272 23.285491188920467,23.18710979119836 17.81013938230054,8.180833478187758" style="fill:none;stroke:black;stroke-width:1"/>
<polygon points="23.285491188920467,23.18710979119836 12.331896200548659,24.122904631251405 17.81013938230054,8.180833478187758" style="fill:none;stroke:black;stroke-width:1"/>
<polygon points="22.78079440805022,10.427914435107377 25.224314494711187,13.332978003631272 19.26652917129205,9.884998173326277" style="fill:none;stroke:black;stroke-width:1"/>
<polygon points="25.224314494711187,13.332978003631272 25.95052836325437,16.639675176108703 19.26652917129205,9.884998173326277" style="fill:none;stroke:black;stroke-width:1"/>
<polygon points="22.971353328366295,25.858804314000935 25.568843249085596,23.080441775450776 19.26652917129205,9.884998173326277" style="fill:none;stroke:black;stroke-width:1"/>
<polygon points="25.568843249085596,23.080441775450776 26.988857764612913,19.47530530393847 19.26652917129205,9.884998173326277" style="fill:none;stroke:black;stroke-width:1"/>
<polygon points="19.3136284116694,8.739087682700855 22.78079440805022,10.427914435107377 19.26652917129205,9.884998173326277" style="fill:none;stroke:black;stroke-width:1"/>
<polygon points="26.988857764612913,19.47530530393847 19.3136284116694,8.739087682700855 19.26652917129205,9.884998173326277" style="fill:none;stroke:black;stroke-width:1"/>
<polygon points="11.47799376764092,8.087575523641757 11.333497037041827,7.963179017585118 19.056451443803663,5.262957961849091" style="fill:none;stroke:black;stroke-width:1"/>
<polygon points="11.784780517924293,8.615188680773013 11.710731351489326,8.419082905799984 19.056451443803663,5.262957961849091" style="fill:none;stroke:black;stroke-width:1"/>
<polygon points="11.710731351489326,8.419082905799984 11.784780517924293,8.615188680773013 11.159956838839598,9.562830134081464" style="fill:none;stroke:black;stroke-width:1"/>
<polygon points="11.79383021375671,9.02490828560585 11.220445207198061,9.54542998974682 11.159956838839598,9.562830134081464" style="fill:none;stroke:black;stroke-width:1"/>
<polygon points="11.220445207198061,9.54542998974682 11.79383021375671,9.02490828560585 11.316618199751954,9.510544422437402" style="fill:none;stroke:black;stroke-width:1"/>
<polygon points="11.220445207198061,9.54542998974682 11.316618199751954,9.510544422437402 17.782183498827536,7.6058398670226195" style="fill:none;stroke:black;stroke-width:1"/>
<polygon points="11.220445207198061,9.54542998974682 17.782183498827536,7.6058398670226195 16.60684099722858,7.703345417508345" style="fill:none;stroke:black;stroke-width:1"/>
<polygon points="11.159956838839598,9.562830134081464 11.220445207198061,9.54542998974682 16.60684099722858,7.703345417508345" style="fill:none;stroke:black;stroke-width:1"/>
<polygon points="10.39490108936852,7.866931821949899 10.511055726122901,9.78070365975962 10.284107583418542,7.913395267397685" style="fill:none;stroke:black;stroke-width:1"/>
<polygon points="10.511055726122901,9.78070365975962 10.365710234028548,9.814467569565762 10.284107583418542,7.913395267397685" style="fill:none;stroke:black;stroke-width:1"/>
<polygon points="9.534866826252799,8.293744387039652 9.668768139258626,8.217013802021828 9.798810571039565,9.820170864828585" style="fill:none;stroke:black;stroke-width:1"/>
<polygon points="10.003920543809926,9.835496275720903 9.668768139258626,8.217013802021828 9.799332779198537,8.145951531914232" style="fill:none;stroke:black;stroke-width:1"/>
<polygon points="9.668768139258626,8.217013802021828 10.003920543809926,9.835496275720903 9.798810571039565,9.820170864828585" style="fill:none;stroke:black;stroke-width:1"/>
<polygon points="9.799332779198537,8.145951531914232 9.668768139258626,8.217013802021828 18.809894409538575,4.039527059975312" style="fill:none;stroke:black;stroke-width:1"/>
<polygon points="9.668768139258626,8.217013802021828 9.534866826252799,8.293744387039652 18.809894409538575,4.039527059975312" style="fill:none;stroke:black;stroke-width:1"/>
<polygon points="8.912616201540239,9.303097749633064 9.013629244456796,9.488359283522321 15.768982439289312,4.954335009403655" style="fill:none;stroke:black;stroke-width:1"/>
<polygon points="8.875152350010978,9.095127625432871 8.912616201540239,9.303097749633064 15.768982439289312,4.954335009403655" style="fill:none;stroke:black;stroke-width:1"/>
<polygon points="8.912616201540239,9.303097749633064 8.875152350010978,9.095127625432871 9.013629244456796,9.488359283522321" style="fill:none;stroke:black;stroke-width:1"/>
<polygon points="9.169221302470934,9.636325409697374 9.370344827586205,9.732758620689655 16.60684099722858,7.703345417508345" style="fill:none;stroke:black;stroke-width:1"/>
<polygon points="9.370344827586205,9.732758620689655 11.159956838839598,9.562830134081464 16.60684099722858,7.703345417508345" style="fill:none;stroke:black;stroke-width:1"/>
<polygon points="9.370344827586205,9.732758620689655 9.169221302470934,9.636325409697374 8.987095511518023,8.711888640232969" style="fill:none;stroke:black;stroke-width:1"/>
<polygon points="9.370344827586205,9.732758620689655 10.511055726122901,9.78070365975962 11.159956838839598,9.562830134081464" style="fill:none;stroke:black;stroke-width:1"/>
<polygon points="10.511055726122901,9.78070365975962 9.370344827586205,9.732758620689655 10.365710234028548,9.814467569565762" style="fill:none;stroke:black;stroke-width:1"/>
<polygon points="8.875152350010978,9.095127625432871 8.902880189226705,8.891954232611427 9.013629244456796,9.488359283522321" style="fill:none;stroke:black;stroke-width:1"/>
<polygon points="8.902880189226705,8.891954232611427 9.169221302470934,9.636325409697374 9.013629244456796,9.488359283522321" style="fill:none;stroke:black;stroke-width:1"/>
<polygon points="9.169221302470934,9.636325409697374 8.902880189226705,8.891954232611427 8.987095511518023,8.711888640232969" style="fill:none;stroke:black;stroke-width:1"/>
<polygon points="8.902880189226705,8.891954232611427 8.875152350010978,9.095127625432871 17.524826517995475,4.126357700086172" style="fill:none;stroke:black;stroke-width:1"/>
<polygon points="16.801877741052323,4.33029338882873 8.902880189226705,8.891954232611427 17.524826517995475,4.126357700086172" style="fill:none;stroke:black;stroke-width:1"/>
<polygon points="8.987095511518023,8.711888640232969 8.902880189226705,8.891954232611427 16.801877741052323,4.33029338882873" style="fill:none;stroke:black;stroke-width:1"/>
<polygon points="19.045277118604233,20.750435180700716 15.202436078356428,20.743172705277672 18.944924756430247,8.135985048557703" style="fill:none;stroke:black;stroke-width:1"/>
<polygon points="20.468391732092567,14.64368348711062 15.291675074551206,25.879910941800897 18.944924756430247,8.135985048557703" style="fill:none;stroke:black;stroke-width:1"/>
<polygon points="15.291675074551206,25.879910941800897 11.669413066097636,24.42792578416505 18.944924756430247,8.135985048557703" style="fill:none;stroke:black;stroke-width:1"/>
<polygon points="20.90827734111882,22.733607991064105 21.073537497789022,22.812314910476882 17.115426629116115,11.697646069394306" style="fill:none;stroke:black;stroke-width:1"/>
<polygon points="20.662426670418316,22.476036214248225 20.76937779993262,22.619339388879215 17.115426629116115,11.697646069394306" style="fill:none;stroke:black;stroke-width:1"/>
<polygon points="20.76937779993262,22.619339388879215 20.90827734111882,22.733607991064105 17.115426629116115,11.697646069394306" style="fill:none;stroke:black;stroke-width:1"/>
<polygon points="20.90827734111882,22.733607991064105 20.76937779993262,22.619339388879215 20.636060187882197,21.779804259487083" style="fill:none;stroke:black;stroke-width:1"/>
<polygon points="20.584499101304015,21.94912409909838 16.447099005145834,10.32465311997 20.636060187882197,21.779804259487083" style="fill:none;stroke:black;stroke-width:1"/>
<polygon points="20.584499101304015,21.94912409909838 20.56645586408704,22.13020359597221 16.447099005145834,10.32465311997" style="fill:none;stroke:black;stroke-width:1"/>
<polygon points="20.56645586408704,22.13020359597221 20.584499101304015,21.94912409909838 20.662426670418316,22.476036214248225" style="fill:none;stroke:black;stroke-width:1"/>
<polygon points="20.76937779993262,22.619339388879215 20.584499101304015,21.94912409909838 20.636060187882197,21.779804259487083" style="fill:none;stroke:black;stroke-width:1"/>
<polygon points="20.584499101304015,21.94912409909838 20.76937779993262,22.619339388879215 20.662426670418316,22.476036214248225" style="fill:none;stroke:black;stroke-width:1"/>
<polygon points="20.593011748763765,22.310225577497146 20.662426670418316,22.476036214248225 16.447099005145834,10.32465311997" style="fill:none;stroke:black;stroke-width:1"/>
<polygon points="20.56645586408704,22.13020359597221 20.593011748763765,22.310225577497146 16.447099005145834,10.32465311997" style="fill:none;stroke:black;stroke-width:1"/>
<polygon points="20.593011748763765,22.310225577497146 20.56645586408704,22.13020359597221 20.662426670418316,22.476036214248225" style="fill:none;stroke:black;stroke-width:1"/>
<polygon points="21.637938645379855,20.342419104340333 22.463013692387573,22.156748404494124 21.51849248489249,20.445096536251434" style="fill:none;stroke:black;stroke-width:1"/>
<polygon points="21.77754082721524,20.254907732535976 21.637938645379855,20.342419104340333 7.567023808606891,12.820049941899292" style="fill:none;stroke:black;stroke-width:1"/>
<polygon points="22.54363499262271,22.04197486072797 21.637938645379855,20.342419104340333 21.77754082721524,20.254907732535976" style="fill:none;stroke:black;stroke-width:1"/>
<polygon points="22.463013692387573,22.156748404494124 21.637938645379855,20.342419104340333 22.54363499262271,22.04197486072797" style="fill:none;stroke:black;stroke-width:1"/>
<polygon points="22.70487759309299,21.812427773195665 22.103780266839934,20.135457910315118 22.785498893328132,21.69765422942951" style="fill:none;stroke:black;stroke-width:1"/>
<polygon points="21.933940783376116,20.185081106105265 22.103780266839934,20.135457910315118 22.70487759309299,21.812427773195665" style="fill:none;stroke:black;stroke-width:1"/>
<polygon points="6.918775275642782,20.524818817159584 22.103780266839934,20.135457910315118 6.5145031976388275,16.571469405281935" style="fill:none;stroke:black;stroke-width:1"/>
<polygon points="22.103780266839934,20.135457910315118 21.933940783376116,20.185081106105265 6.5145031976388275,16.571469405281935" style="fill:none;stroke:black;stroke-width:1"/>
<polygon points="8.73425217250596,23.935181563725493 11.64684997268635,26.43524878382611 22.649163331020535,20.1354685053799" style="fill:none;stroke:black;stroke-width:1"/>
<polygon points="11.64684997268635,26.43524878382611 15.349386149718637,27.718391039786717 22.649163331020535,20.1354685053799" style="fill:none;stroke:black;stroke-width:1"/>
<polygon points="22.81460580811797,20.21389532367957 19.445281103527257,27.504991919806788 22.971353328366295,25.858804314000935" style="fill:none;stroke:black;stroke-width:1"/>
<polygon points="15.349386149718637,27.718391039786717 19.445281103527257,27.504991919806788 22.81460580811797,20.21389532367957" style="fill:none;stroke:black;stroke-width:1"/>
<polygon points="21.637938645379855,20.342419104340333 9.851945056555756,9.819788077237423 7.567023808606891,12.820049941899292" style="fill:none;stroke:black;stroke-width:1"/>
<polygon points="9.851945056555756,9.819788077237423 21.637938645379855,20.342419104340333 21.51849248489249,20.445096536251434" style="fill:none;stroke:black;stroke-width:1"/>
<polygon points="21.4225605927757,20.56042134300237 9.851945056555756,9.819788077237423 21.51849248489249,20.445096536251434" style="fill:none;stroke:black;stroke-width:1"/>
<polygon points="13.12167805716261,7.876419677024222 9.851945056555756,9.819788077237423 21.4225605927757,20.56042134300237" style="fill:none;stroke:black;stroke-width:1"/>
<polygon points="21.94797412836831,22.69610592076333 21.792578898219368,22.766702771546285 21.10004471243174,21.01959872309844" style="fill:none;stroke:black;stroke-width:1"/>
<polygon points="21.18066601266688,20.90482517933229 21.94797412836831,22.69610592076333 21.10004471243174,21.01959872309844" style="fill:none;stroke:black;stroke-width:1"/>
<polygon points="21.94797412836831,22.69610592076333 21.18066601266688,20.90482517933229 22.08668040809323,22.60751968257994" style="fill:none;stroke:black;stroke-width:1"/>
<polygon points="21.94797412836831,22.69610592076333 22.08668040809323,22.60751968257994 18.390917500905402,12.11274824343922" style="fill:none;stroke:black;stroke-width:1"/>
<polygon points="21.792578898219368,22.766702771546285 21.94797412836831,22.69610592076333 18.390917500905402,12.11274824343922" style="fill:none;stroke:black;stroke-width:1"/>
<polygon points="13.123516606083022,23.40406392624076 16.6637542725294,8.24934450735998 16.38796593866978,7.923519686766266" style="fill:none;stroke:black;stroke-width:1"/>
<polygon points="13.101930872480999,23.48255924270456 13.123516606083022,23.40406392624076 16.38796593866978,7.923519686766266" style="fill:none;stroke:black;stroke-width:1"/>
<polygon points="11.505397649058196,23.575498362114935 11.441752941944381,23.61902664324057 16.447099005145834,10.32465311997" style="fill:none;stroke:black;stroke-width:1"/>
<polygon points="11.18227508992436,7.870673903188234 11.029362041469902,7.808378301275905 19.056451443803663,5.262957961849091" style="fill:none;stroke:black;stroke-width:1"/>
<polygon points="11.333497037041827,7.963179017585118 11.18227508992436,7.870673903188234 19.056451443803663,5.262957961849091" style="fill:none;stroke:black;stroke-width:1"/>
<polygon points="11.607758225279436,8.241660660553745 11.47799376764092,8.087575523641757 19.056451443803663,5.262957961849091" style="fill:none;stroke:black;stroke-width:1"/>
<polygon points="11.710731351489326,8.419082905799984 11.607758225279436,8.241660660553745 19.056451443803663,5.262957961849091" style="fill:none;stroke:black;stroke-width:1"/>
<polygon points="10.501122814788445,7.82463959145581 10.626189510022554,9.7363471678324 10.39490108936852,7.866931821949899" style="fill:none;stroke:black;stroke-width:1"/>
<polygon points="10.626189510022554,9.7363471678324 10.511055726122901,9.78070365975962 10.39490108936852,7.866931821949899" style="fill:none;stroke:black;stroke-width:1"/>
<polygon points="10.626189510022554,9.7363471678324 10.501122814788445,7.82463959145581 10.610819768779745,7.785929749738497" style="fill:none;stroke:black;stroke-width:1"/>
<polygon points="10.511055726122901,9.78070365975962 10.626189510022554,9.7363471678324 11.159956838839598,9.562830134081464" style="fill:none;stroke:black;stroke-width:1"/>
<polygon points="9.586383686092478,9.78540108150596 9.534866826252799,8.293744387039652 9.798810571039565,9.820170864828585" style="fill:none;stroke:black;stroke-width:1"/>
<polygon points="9.534866826252799,8.293744387039652 9.586383686092478,9.78540108150596 9.397834691425075,8.376392803627123" style="fill:none;stroke:black;stroke-width:1"/>
<polygon points="10.19477613569857,9.833163476093075 9.586383686092478,9.78540108150596 9.798810571039565,9.820170864828585" style="fill:none;stroke:black;stroke-width:1"/>
<polygon points="10.365710234028548,9.814467569565762 9.586383686092478,9.78540108150596 10.19477613569857,9.833163476093075" style="fill:none;stroke:black;stroke-width:1"/>
<polygon points="9.370344827586205,9.732758620689655 9.586383686092478,9.78540108150596 10.365710234028548,9.814467569565762" style="fill:none;stroke:black;stroke-width:1"/>
<polygon points="9.397834691425075,8.376392803627123 9.257877586019479,8.465208568443666 16.801877741052323,4.33029338882873" style="fill:none;stroke:black;stroke-width:1"/>
<polygon points="9.586383686092478,9.78540108150596 9.257877586019479,8.465208568443666 9.397834691425075,8.376392803627123" style="fill:none;stroke:black;stroke-width:1"/>
<polygon points="9.257877586019479,8.465208568443666 9.586383686092478,9.78540108150596 9.370344827586205,9.732758620689655" style="fill:none;stroke:black;stroke-width:1"/>
<polygon points="14.024885747625403,8.497932758508341 21.294766468695133,17.8108874219894 18.944924756430247,8.135985048557703" style="fill:none;stroke:black;stroke-width:1"/>
<polygon points="21.294766468695133,17.8108874219894 19.045277118604233,20.750435180700716 18.944924756430247,8.135985048557703" style="fill:none;stroke:black;stroke-width:1"/>
<polygon points="17.332321716886053,12.704328309743481 20.468391732092567,14.64368348711062 18.944924756430247,8.135985048557703" style="fill:none;stroke:black;stroke-width:1"/>
<polygon points="13.869689505377178,14.09705849254389 17.332321716886053,12.704328309743481 18.944924756430247,8.135985048557703" style="fill:none;stroke:black;stroke-width:1"/>
<polygon points="15.202436078356428,20.743172705277672 12.90405354972264,17.756647165152177 18.944924756430247,8.135985048557703" style="fill:none;stroke:black;stroke-width:1"/>
<polygon points="12.90405354972264,17.756647165152177 13.869689505377178,14.09705849254389 18.944924756430247,8.135985048557703" style="fill:none;stroke:black;stroke-width:1"/>
<polygon points="10.567815277156487,17.54687322630538 12.325301723041509,19.959252936446063 17.695154547236488,7.82663255790839" style="fill:none;stroke:black;stroke-width:1"/>
<polygon points="7.657132504800238,18.050852165124397 10.567815277156487,17.54687322630538 17.695154547236488,7.82663255790839" style="fill:none;stroke:black;stroke-width:1"/>
<polygon points="11.669413066097636,24.42792578416505 8.997438959992733,21.691074636028638 17.695154547236488,7.82663255790839" style="fill:none;stroke:black;stroke-width:1"/>
<polygon points="8.997438959992733,21.691074636028638 7.657132504800238,18.050852165124397 17.695154547236488,7.82663255790839" style="fill:none;stroke:black;stroke-width:1"/>
<polygon points="21.44397898369147,22.844005656162572 21.25969527608222,22.84827586206896 20.858180811726314,21.363919354396902" style="fill:none;stroke:black;stroke-width:1"/>
<polygon points="21.25969527608222,22.84827586206896 20.776734257862433,21.48459812241918 20.858180811726314,21.363919354396902" style="fill:none;stroke:black;stroke-width:1"/>
<polygon points="21.25969527608222,22.84827586206896 21.44397898369147,22.844005656162572 17.115426629116115,11.697646069394306" style="fill:none;stroke:black;stroke-width:1"/>
<polygon points="21.073537497789022,22.812314910476882 21.25969527608222,22.84827586206896 17.115426629116115,11.697646069394306" style="fill:none;stroke:black;stroke-width:1"/>
<polygon points="21.25969527608222,22.84827586206896 21.073537497789022,22.812314910476882 20.90827734111882,22.733607991064105" style="fill:none;stroke:black;stroke-width:1"/>
<polygon points="22.103780266839934,20.135457910315118 22.283701030584144,20.10855683043244 22.785498893328132,21.69765422942951" style="fill:none;stroke:black;stroke-width:1"/>
<polygon points="22.866120193563273,21.582880685663355 22.283701030584144,20.10855683043244 22.470344827586207,20.106896551724137" style="fill:none;stroke:black;stroke-width:1"/>
<polygon points="22.283701030584144,20.10855683043244 22.866120193563273,21.582880685663355 22.785498893328132,21.69765422942951" style="fill:none;stroke:black;stroke-width:1"/>
<polygon points="22.283701030584144,20.10855683043244 6.918775275642782,20.524818817159584 22.470344827586207,20.106896551724137" style="fill:none;stroke:black;stroke-width:1"/>
<polygon points="22.283701030584144,20.10855683043244 22.103780266839934,20.135457910315118 6.918775275642782,20.524818817159584" style="fill:none;stroke:black;stroke-width:1"/>
<polygon points="13.063806860051093,23.550803899884883 13.101930872480999,23.48255924270456 16.38796593866978,7.923519686766266" style="fill:none;stroke:black;stroke-width:1"/>
<polygon points="17.81013938230054,8.180833478187758 12.883908714867152,23.689207600161843 16.38796593866978,7.923519686766266" style="fill:none;stroke:black;stroke-width:1"/>
<polygon points="12.883908714867152,23.689207600161843 12.947553421980963,23.645679319036212 16.38796593866978,7.923519686766266" style="fill:none;stroke:black;stroke-width:1"/>
<polygon points="12.936630846157016,22.98421380006719 12.840100629783946,22.930850779398817 16.6637542725294,8.24934450735998" style="fill:none;stroke:black;stroke-width:1"/>
<polygon points="12.840100629783946,22.930850779398817 12.731986300999912,22.89761949799984 16.6637542725294,8.24934450735998" style="fill:none;stroke:black;stroke-width:1"/>
<polygon points="12.616323527597213,22.885957807957553 12.497063428667985,22.89725708031798 16.6637542725294,8.24934450735998" style="fill:none;stroke:black;stroke-width:1"/>
<polygon points="12.731986300999912,22.89761949799984 12.616323527597213,22.885957807957553 16.6637542725294,8.24934450735998" style="fill:none;stroke:black;stroke-width:1"/>
<polygon points="11.641174954051756,23.47220499217886 11.571647233067948,23.526434435807673 16.447099005145834,10.32465311997" style="fill:none;stroke:black;stroke-width:1"/>
<polygon points="11.571647233067948,23.526434435807673 11.505397649058196,23.575498362114935 16.447099005145834,10.32465311997" style="fill:none;stroke:black;stroke-width:1"/>
<polygon points="21.25969527608222,22.84827586206896 20.70130934584136,21.624071154726437 20.776734257862433,21.48459812241918" style="fill:none;stroke:black;stroke-width:1"/>
<polygon points="20.70130934584136,21.624071154726437 20.90827734111882,22.733607991064105 20.636060187882197,21.779804259487083" style="fill:none;stroke:black;stroke-width:1"/>
<polygon points="20.70130934584136,21.624071154726437 21.25969527608222,22.84827586206896 20.90827734111882,22.733607991064105" style="fill:none;stroke:black;stroke-width:1"/>
<polygon points="11.441752941944381,23.61902664324057 11.378878154873032,23.65975867403455 20.636060187882197,21.779804259487083" style="fill:none;stroke:black;stroke-width:1"/>
<polygon points="11.378878154873032,23.65975867403455 20.70130934584136,21.624071154726437 20.636060187882197,21.779804259487083" style="fill:none;stroke:black;stroke-width:1"/>
<polygon points="20.70130934584136,21.624071154726437 11.378878154873032,23.65975867403455 11.325821137178973,23.714645473789858" style="fill:none;stroke:black;stroke-width:1"/>
<polygon points="11.27947674648113,24.036382729400543 20.938802111961458,21.24914581063075 20.858180811726314,21.363919354396902" style="fill:none;stroke:black;stroke-width:1"/>
<polygon points="10.738600032828078,7.767688106621813 10.727089141899267,9.698409316661893 10.610819768779745,7.785929749738497" style="fill:none;stroke:black;stroke-width:1"/>
<polygon points="10.727089141899267,9.698409316661893 10.626189510022554,9.7363471678324 10.610819768779745,7.785929749738497" style="fill:none;stroke:black;stroke-width:1"/>
<polygon points="10.626189510022554,9.7363471678324 10.727089141899267,9.698409316661893 11.159956838839598,9.562830134081464" style="fill:none;stroke:black;stroke-width:1"/>
<polygon points="9.116425142996304,8.567420145585666 9.370344827586205,9.732758620689655 8.987095511518023,8.711888640232969" style="fill:none;stroke:black;stroke-width:1"/>
<polygon points="9.116425142996304,8.567420145585666 9.257877586019479,8.465208568443666 9.370344827586205,9.732758620689655" style="fill:none;stroke:black;stroke-width:1"/>
<polygon points="9.116425142996304,8.567420145585666 8.987095511518023,8.711888640232969 16.801877741052323,4.33029338882873" style="fill:none;stroke:black;stroke-width:1"/>
<polygon points="9.257877586019479,8.465208568443666 9.116425142996304,8.567420145585666 16.801877741052323,4.33029338882873" style="fill:none;stroke:black;stroke-width:1"/>
<polygon points="12.947553421980963,23.645679319036212 13.010442551885474,23.60520910288001 16.38796593866978,7.923519686766266" style="fill:none;stroke:black;stroke-width:1"/>
<polygon points="13.010442551885474,23.60520910288001 13.063806860051093,23.550803899884883 16.38796593866978,7.923519686766266" style="fill:none;stroke:black;stroke-width:1"/>
<polygon points="12.817659130857399,23.738271526469113 17.81013938230054,8.180833478187758 12.74813140987359,23.792500970097926" style="fill:none;stroke:black;stroke-width:1"/>
<polygon points="12.817659130857399,23.738271526469113 12.883908714867152,23.689207600161843 17.81013938230054,8.180833478187758" style="fill:none;stroke:black;stroke-width:1"/>
<polygon points="13.017463225937611,23.056213996631328 12.936630846157016,22.98421380006719 16.6637542725294,8.24934450735998" style="fill:none;stroke:black;stroke-width:1"/>
<polygon points="13.07590158948575,23.141528187121416 13.017463225937611,23.056213996631328 16.6637542725294,8.24934450735998" style="fill:none;stroke:black;stroke-width:1"/>
<polygon points="13.11183899245124,23.230196550581773 13.07590158948575,23.141528187121416 16.6637542725294,8.24934450735998" style="fill:none;stroke:black;stroke-width:1"/>
<polygon points="11.79248955395981,23.350130259004082 11.714602373909388,23.41326162238246 16.375355014857604,9.214917732170894" style="fill:none;stroke:black;stroke-width:1"/>
<polygon points="11.875326222439607,23.283402881789886 11.79248955395981,23.350130259004082 16.375355014857604,9.214917732170894" style="fill:none;stroke:black;stroke-width:1"/>
<polygon points="12.057410163376687,23.141801331025373 11.963524051196163,23.213728181772396 16.375355014857604,9.214917732170894" style="fill:none;stroke:black;stroke-width:1"/>
<polygon points="11.963524051196163,23.213728181772396 11.875326222439607,23.283402881789886 16.375355014857604,9.214917732170894" style="fill:none;stroke:black;stroke-width:1"/>
<polygon points="12.497063428667985,22.89725708031798 12.378067415676755,22.932873168364793 16.375355014857604,9.214917732170894" style="fill:none;stroke:black;stroke-width:1"/>
<polygon points="12.378067415676755,22.932873168364793 12.263103448275862,22.99413793103448 16.375355014857604,9.214917732170894" style="fill:none;stroke:black;stroke-width:1"/>
<polygon points="12.157221974500782,23.06835301938497 12.057410163376687,23.141801331025373 16.375355014857604,9.214917732170894" style="fill:none;stroke:black;stroke-width:1"/>
<polygon points="12.263103448275862,22.99413793103448 12.157221974500782,23.06835301938497 16.375355014857604,9.214917732170894" style="fill:none;stroke:black;stroke-width:1"/>
<polygon points="20.776734257862433,21.48459812241918 11.263564996987277,23.94760582273618 20.858180811726314,21.363919354396902" style="fill:none;stroke:black;stroke-width:1"/>
<polygon points="11.263564996987277,23.94760582273618 11.27947674648113,24.036382729400543 20.858180811726314,21.363919354396902" style="fill:none;stroke:black;stroke-width:1"/>
<polygon points="20.938802111961458,21.24914581063075 11.31595072982621,24.12513444925451 21.019423412196595,21.134372266864595" style="fill:none;stroke:black;stroke-width:1"/>
<polygon points="11.27947674648113,24.036382729400543 11.31595072982621,24.12513444925451 20.938802111961458,21.24914581063075" style="fill:none;stroke:black;stroke-width:1"/>
<polygon points="21.019423412196595,21.134372266864595 11.31595072982621,24.12513444925451 21.10004471243174,21.01959872309844" style="fill:none;stroke:black;stroke-width:1"/>
<polygon points="10.82052688610013,9.665763731610797 10.738600032828078,7.767688106621813 10.87979223974797,7.774610329777357" style="fill:none;stroke:black;stroke-width:1"/>
<polygon points="10.82052688610013,9.665763731610797 10.727089141899267,9.698409316661893 10.738600032828078,7.767688106621813" style="fill:none;stroke:black;stroke-width:1"/>
<polygon points="10.82052688610013,9.665763731610797 10.87979223974797,7.774610329777357 11.029362041469902,7.808378301275905" style="fill:none;stroke:black;stroke-width:1"/>
<polygon points="10.727089141899267,9.698409316661893 10.82052688610013,9.665763731610797 11.159956838839598,9.562830134081464" style="fill:none;stroke:black;stroke-width:1"/>
<polygon points="13.123516606083022,23.40406392624076 13.127260019547109,23.318810452779218 16.6637542725294,8.24934450735998" style="fill:none;stroke:black;stroke-width:1"/>
<polygon points="13.127260019547109,23.318810452779218 13.11183899245124,23.230196550581773 16.6637542725294,8.24934450735998" style="fill:none;stroke:black;stroke-width:1"/>
<polygon points="20.70130934584136,21.624071154726437 11.288050273202238,23.783292079657045 20.776734257862433,21.48459812241918" style="fill:none;stroke:black;stroke-width:1"/>
<polygon points="11.288050273202238,23.783292079657045 20.70130934584136,21.624071154726437 11.325821137178973,23.714645473789858" style="fill:none;stroke:black;stroke-width:1"/>
<polygon points="11.374542775015104,24.21089079249638 21.18066601266688,20.90482517933229 21.10004471243174,21.01959872309844" style="fill:none;stroke:black;stroke-width:1"/>
<polygon points="11.31595072982621,24.12513444925451 11.374542775015104,24.21089079249638 21.10004471243174,21.01959872309844" style="fill:none;stroke:black;stroke-width:1"/>
<polygon points="21.18066601266688,20.90482517933229 11.374542775015104,24.21089079249638 21.26128731290202,20.790051635566137" style="fill:none;stroke:black;stroke-width:1"/>
<polygon points="11.18227508992436,7.870673903188234 10.906050443964368,9.637864993705827 11.029362041469902,7.808378301275905" style="fill:none;stroke:black;stroke-width:1"/>
<polygon points="10.906050443964368,9.637864993705827 10.82052688610013,9.665763731610797 11.029362041469902,7.808378301275905" style="fill:none;stroke:black;stroke-width:1"/>
<polygon points="10.82052688610013,9.665763731610797 10.906050443964368,9.637864993705827 11.159956838839598,9.562830134081464" style="fill:none;stroke:black;stroke-width:1"/>
<polygon points="11.266863546034987,23.8621096967344 11.263564996987277,23.94760582273618 20.776734257862433,21.48459812241918" style="fill:none;stroke:black;stroke-width:1"/>
<polygon points="11.288050273202238,23.783292079657045 11.266863546034987,23.8621096967344 20.776734257862433,21.48459812241918" style="fill:none;stroke:black;stroke-width:1"/>
<polygon points="11.454032198780997,24.284017185487553 21.4225605927757,20.56042134300237 21.341908613137157,20.67527809179998" style="fill:none;stroke:black;stroke-width:1"/>
<polygon points="21.4225605927757,20.56042134300237 11.454032198780997,24.284017185487553 11.549463678910026,24.337690819758837" style="fill:none;stroke:black;stroke-width:1"/>
<polygon points="21.26128731290202,20.790051635566137 11.454032198780997,24.284017185487553 21.341908613137157,20.67527809179998" style="fill:none;stroke:black;stroke-width:1"/>
<polygon points="11.374542775015104,24.21089079249638 11.454032198780997,24.284017185487553 21.26128731290202,20.790051635566137" style="fill:none;stroke:black;stroke-width:1"/>
<polygon points="10.98320751683121,9.614167683973697 11.18227508992436,7.870673903188234 11.333497037041827,7.963179017585118" style="fill:none;stroke:black;stroke-width:1"/>
<polygon points="10.98320751683121,9.614167683973697 10.906050443964368,9.637864993705827 11.18227508992436,7.870673903188234" style="fill:none;stroke:black;stroke-width:1"/>
<polygon points="10.98320751683121,9.614167683973697 11.333497037041827,7.963179017585118 11.47799376764092,8.087575523641757" style="fill:none;stroke:black;stroke-width:1"/>
<polygon points="10.906050443964368,9.637864993705827 11.110613012929601,9.577195673134803 11.159956838839598,9.562830134081464" style="fill:none;stroke:black;stroke-width:1"/>
<polygon points="10.98320751683121,9.614167683973697 11.110613012929601,9.577195673134803 10.906050443964368,9.637864993705827" style="fill:none;stroke:black;stroke-width:1"/>
<polygon points="11.110613012929601,9.577195673134803 11.710731351489326,8.419082905799984 11.159956838839598,9.562830134081464" style="fill:none;stroke:black;stroke-width:1"/>
<polygon points="11.110613012929601,9.577195673134803 11.607758225279436,8.241660660553745 11.710731351489326,8.419082905799984" style="fill:none;stroke:black;stroke-width:1"/>
<polygon points="11.607758225279436,8.241660660553745 11.05154580603988,9.594126383441118 11.47799376764092,8.087575523641757" style="fill:none;stroke:black;stroke-width:1"/>
<polygon points="11.110613012929601,9.577195673134803 11.05154580603988,9.594126383441118 11.607758225279436,8.241660660553745" style="fill:none;stroke:black;stroke-width:1"/>
<polygon points="11.05154580603988,9.594126383441118 10.98320751683121,9.614167683973697 11.47799376764092,8.087575523641757" style="fill:none;stroke:black;stroke-width:1"/>
<polygon points="11.05154580603988,9.594126383441118 11.110613012929601,9.577195673134803 10.98320751683121,9.614167683973697" style="fill:none;stroke:black;stroke-width:1"/>
<polygon points="12.331896200548659,24.122904631251405 23.285491188920467,23.18710979119836 12.232084389424564,24.196352942891814" style="fill:none;stroke:black;stroke-width:1"/>
<polygon points="12.232084389424564,24.196352942891814 23.285491188920467,23.18710979119836 20.231477442094743,25.51104427640276" style="fill:none;stroke:black;stroke-width:1"/>
<polygon points="11.892281603258036,24.369142703541776 23.90391157021285,10.440583811595662 20.86023413595963,8.230834172190287" style="fill:none;stroke:black;stroke-width:1"/>
<polygon points="11.892281603258036,24.369142703541776 20.86023413595963,8.230834172190287 11.772420613256742,24.381486206268804" style="fill:none;stroke:black;stroke-width:1"/>
<polygon points="25.92191209651781,13.618837059269183 11.892281603258036,24.369142703541776 12.012905816715838,24.332413059062603" style="fill:none;stroke:black;stroke-width:1"/>
<polygon points="11.892281603258036,24.369142703541776 25.92191209651781,13.618837059269183 23.90391157021285,10.440583811595662" style="fill:none;stroke:black;stroke-width:1"/>
<polygon points="17.097825781647906,7.295440887041493 11.6568846525547,24.370599116020415 11.772420613256742,24.381486206268804" style="fill:none;stroke:black;stroke-width:1"/>
<polygon points="20.86023413595963,8.230834172190287 17.097825781647906,7.295440887041493 11.772420613256742,24.381486206268804" style="fill:none;stroke:black;stroke-width:1"/>
<polygon points="11.6568846525547,24.370599116020415 17.097825781647906,7.295440887041493 11.549463678910026,24.337690819758837" style="fill:none;stroke:black;stroke-width:1"/>
<polygon points="17.097825781647906,7.295440887041493 13.12167805716261,7.876419677024222 11.549463678910026,24.337690819758837" style="fill:none;stroke:black;stroke-width:1"/>
<polygon points="19.445281103527257,27.504991919806788 26.602413793103448,17.449310344827587 22.971353328366295,25.858804314000935" style="fill:none;stroke:black;stroke-width:1"/>
<polygon points="26.602413793103448,17.449310344827587 6.5145031976388275,16.571469405281935 7.567023808606891,12.820049941899292" style="fill:none;stroke:black;stroke-width:1"/>
<polygon points="21.5109316152559,18.59950960174774 26.602413793103448,17.449310344827587 24.144572668728856,17.931348309939423" style="fill:none;stroke:black;stroke-width:1"/>
<polygon points="26.602413793103448,17.449310344827587 6.918775275642782,20.524818817159584 6.5145031976388275,16.571469405281935" style="fill:none;stroke:black;stroke-width:1"/>
<polygon points="26.602413793103448,17.449310344827587 21.041883038974277,13.829643861539866 22.860793917435682,17.194058310449293" style="fill:none;stroke:black;stroke-width:1"/>
<polygon points="26.602413793103448,17.449310344827587 25.224314494711187,13.332978003631272 22.78079440805022,10.427914435107377" style="fill:none;stroke:black;stroke-width:1"/>
<polygon points="26.602413793103448,17.449310344827587 14.024885747625403,8.497932758508341 10.822870866511817,10.582446775391391" style="fill:none;stroke:black;stroke-width:1"/>
<polygon points="19.3136284116694,8.739087682700855 26.602413793103448,17.449310344827587 22.78079440805022,10.427914435107377" style="fill:none;stroke:black;stroke-width:1"/>
<polygon points="26.602413793103448,17.449310344827587 17.097825781647906,7.295440887041493 20.86023413595963,8.230834172190287" style="fill:none;stroke:black;stroke-width:1"/>
<polygon points="25.95052836325437,16.639675176108703 26.602413793103448,17.449310344827587 22.860793917435682,17.194058310449293" style="fill:none;stroke:black;stroke-width:1"/>
<polygon points="17.643690033223493,12.121750932999005 26.602413793103448,17.449310344827587 13.974387294995124,13.19069430875659" style="fill:none;stroke:black;stroke-width:1"/>
<polygon points="8.727626738371814,13.799206415913172 26.602413793103448,17.449310344827587 10.822870866511817,10.582446775391391" style="fill:none;stroke:black;stroke-width:1"/>
<polygon points="26.602413793103448,17.449310344827587 12.050979287120748,16.397286377666482 13.974387294995124,13.19069430875659" style="fill:none;stroke:black;stroke-width:1"/>
<polygon points="26.602413793103448,17.449310344827587 15.291675074551206,25.879910941800897 20.468391732092567,14.64368348711062" style="fill:none;stroke:black;stroke-width:1"/>
<polygon points="26.602413793103448,17.449310344827587 11.64684997268635,26.43524878382611 8.73425217250596,23.935181563725493" style="fill:none;stroke:black;stroke-width:1"/>
<polygon points="26.602413793103448,17.449310344827587 15.415496198053047,22.08462897928399 12.325301723041509,19.959252936446063" style="fill:none;stroke:black;stroke-width:1"/>
<polygon points="26.602413793103448,17.449310344827587 25.16836940614905,19.803709756742272 24.144572668728856,17.931348309939423" style="fill:none;stroke:black;stroke-width:1"/>
<polygon points="23.285491188920467,23.18710979119836 26.602413793103448,17.449310344827587 20.231477442094743,25.51104427640276" style="fill:none;stroke:black;stroke-width:1"/>
<polygon points="26.602413793103448,17.449310344827587 25.568843249085596,23.080441775450776 22.971353328366295,25.858804314000935" style="fill:none;stroke:black;stroke-width:1"/>
<polygon points="21.041883038974277,13.829643861539866 26.602413793103448,17.449310344827587 17.643690033223493,12.121750932999005" style="fill:none;stroke:black;stroke-width:1"/>
<polygon points="26.602413793103448,17.449310344827587 8.727626738371814,13.799206415913172 8.834428180621629,16.645669814127697" style="fill:none;stroke:black;stroke-width:1"/>
<polygon points="12.050979287120748,16.397286377666482 26.602413793103448,17.449310344827587 8.834428180621629,16.645669814127697" style="fill:none;stroke:black;stroke-width:1"/>
<polygon points="9.851945056555756,9.819788077237423 26.602413793103448,17.449310344827587 7.567023808606891,12.820049941899292" style="fill:none;stroke:black;stroke-width:1"/>
<polygon points="26.602413793103448,17.449310344827587 21.294766468695133,17.8108874219894 14.024885747625403,8.497932758508341" style="fill:none;stroke:black;stroke-width:1"/>
<polygon points="6.918775275642782,20.524818817159584 26.602413793103448,17.449310344827587 8.73425217250596,23.935181563725493" style="fill:none;stroke:black;stroke-width:1"/>
<polygon points="26.602413793103448,17.449310344827587 12.90405354972264,17.756647165152177 15.202436078356428,20.743172705277672" style="fill:none;stroke:black;stroke-width:1"/>
<polygon points="23.90391157021285,10.440583811595662 26.602413793103448,17.449310344827587 20.86023413595963,8.230834172190287" style="fill:none;stroke:black;stroke-width:1"/>
<polygon points="25.92191209651781,13.618837059269183 26.602413793103448,17.449310344827587 23.90391157021285,10.440583811595662" style="fill:none;stroke:black;stroke-width:1"/>
<polygon points="15.415496198053047,22.08462897928399 26.602413793103448,17.449310344827587 19.204470482935857,21.51152647557189" style="fill:none;stroke:black;stroke-width:1"/>
<polygon points="26.602413793103448,17.449310344827587 21.5109316152559,18.59950960174774 19.204470482935857,21.51152647557189" style="fill:none;stroke:black;stroke-width:1"/>
<polygon points="26.602413793103448,17.449310344827587 23.285491188920467,23.18710979119836 25.16836940614905,19.803709756742272" style="fill:none;stroke:black;stroke-width:1"/>
<polygon points="25.224314494711187,13.332978003631272 26.602413793103448,17.449310344827587 25.95052836325437,16.639675176108703" style="fill:none;stroke:black;stroke-width:1"/>
<polygon points="25.568843249085596,23.080441775450776 26.602413793103448,17.449310344827587 26.988857764612913,19.47530530393847" style="fill:none;stroke:black;stroke-width:1"/>
<polygon points="26.602413793103448,17.449310344827587 19.3136284116694,8.739087682700855 26.988857764612913,19.47530530393847" style="fill:none;stroke:black;stroke-width:1"/>
<polygon points="19.045277118604233,20.750435180700716 26.602413793103448,17.449310344827587 15.202436078356428,20.743172705277672" style="fill:none;stroke:black;stroke-width:1"/>
<polygon points="17.332321716886053,12.704328309743481 26.602413793103448,17.449310344827587 20.468391732092567,14.64368348711062" style="fill:none;stroke:black;stroke-width:1"/>
<polygon points="15.291675074551206,25.879910941800897 26.602413793103448,17.449310344827587 11.669413066097636,24.42792578416505" style="fill:none;stroke:black;stroke-width:1"/>
<polygon points="10.567815277156487,17.54687322630538 26.602413793103448,17.449310344827587 12.325301723041509,19.959252936446063" style="fill:none;stroke:black;stroke-width:1"/>
<polygon points="11.64684997268635,26.43524878382611 26.602413793103448,17.449310344827587 15.349386149718637,27.718391039786717" style="fill:none;stroke:black;stroke-width:1"/>
<polygon points="26.602413793103448,17.449310344827587 19.445281103527257,27.504991919806788 15.349386149718637,27.718391039786717" style="fill:none;stroke:black;stroke-width:1"/>
<polygon points="26.602413793103448,17.449310344827587 8.997438959992733,21.691074636028638 11.669413066097636,24.42792578416505" style="fill:none;stroke:black;stroke-width:1"/>
<polygon points="17.097825781647906,7.295440887041493 26.602413793103448,17.449310344827587 13.12167805716261,7.876419677024222" style="fill:none;stroke:black;stroke-width:1"/>
<polygon points="26.602413793103448,17.449310344827587 9.851945056555756,9.819788077237423 13.12167805716261,7.876419677024222" style="fill:none;stroke:black;stroke-width:1"/>
<polygon points="21.294766468695133,17.8108874219894 26.602413793103448,17.449310344827587 19.045277118604233,20.750435180700716" style="fill:none;stroke:black;stroke-width:1"/>
<polygon points="26.602413793103448,17.449310344827587 17.332321716886053,12.704328309743481 13.869689505377178,14.09705849254389" style="fill:none;stroke:black;stroke-width:1"/>
<polygon points="12.90405354972264,17.756647165152177 26.602413793103448,17.449310344827587 13.869689505377178,14.09705849254389" style="fill:none;stroke:black;stroke-width:1"/>
<polygon points="26.602413793103448,17.449310344827587 10.567815277156487,17.54687322630538 7.657132504800238,18.050852165124397" style="fill:none;stroke:black;stroke-width:1"/>
<polygon points="8.997438959992733,21.691074636028638 26.602413793103448,17.449310344827587 7.657132504800238,18.050852165124397" style="fill:none;stroke:black;stroke-width:1"/>
<polygon points="26.602413793103448,17.449310344827587 12.126448641998019,24.270847260514444 12.232084389424564,24.196352942891814" style="fill:none;stroke:black;stroke-width:1"/>
<polygon points="26.602413793103448,17.449310344827587 12.232084389424564,24.196352942891814 20.231477442094743,25.51104427640276" style="fill:none;stroke:black;stroke-width:1"/>
<polygon points="12.126448641998019,24.270847260514444 26.602413793103448,17.449310344827587 12.012905816715838,24.332413059062603" style="fill:none;stroke:black;stroke-width:1"/>
<polygon points="26.602413793103448,17.449310344827587 25.92191209651781,13.618837059269183 12.012905816715838,24.332413059062603" style="fill:none;stroke:black;stroke-width:1"/>
<polygon points="11.454032198780997,24.284017185487553 12.74813140987359,23.792500970097926 12.674703990015956,23.85144433989432" style="fill:none;stroke:black;stroke-width:1"/>
<polygon points="12.596816809965539,23.9145757032727 11.454032198780997,24.284017185487553 12.674703990015956,23.85144433989432" style="fill:none;stroke:black;stroke-width:1"/>
<polygon points="11.454032198780997,24.284017185487553 11.963524051196163,23.213728181772396 12.057410163376687,23.141801331025373" style="fill:none;stroke:black;stroke-width:1"/>
<polygon points="11.454032198780997,24.284017185487553 11.6568846525547,24.370599116020415 11.549463678910026,24.337690819758837" style="fill:none;stroke:black;stroke-width:1"/>
<polygon points="11.454032198780997,24.284017185487553 12.513980141485739,23.981303080486892 12.425782312729183,24.050977780504386" style="fill:none;stroke:black;stroke-width:1"/>
<polygon points="12.331896200548659,24.122904631251405 11.454032198780997,24.284017185487553 12.425782312729183,24.050977780504386" style="fill:none;stroke:black;stroke-width:1"/>
<polygon points="11.454032198780997,24.284017185487553 12.817659130857399,23.738271526469113 12.74813140987359,23.792500970097926" style="fill:none;stroke:black;stroke-width:1"/>
<polygon points="11.454032198780997,24.284017185487553 12.126448641998019,24.270847260514444 12.012905816715838,24.332413059062603" style="fill:none;stroke:black;stroke-width:1"/>
<polygon points="11.6568846525547,24.370599116020415 11.454032198780997,24.284017185487553 11.772420613256742,24.381486206268804" style="fill:none;stroke:black;stroke-width:1"/>
<polygon points="11.892281603258036,24.369142703541776 11.454032198780997,24.284017185487553 12.012905816715838,24.332413059062603" style="fill:none;stroke:black;stroke-width:1"/>
<polygon points="11.454032198780997,24.284017185487553 11.641174954051756,23.47220499217886 11.714602373909388,23.41326162238246" style="fill:none;stroke:black;stroke-width:1"/>
<polygon points="12.513980141485739,23.981303080486892 11.454032198780997,24.284017185487553 12.596816809965539,23.9145757032727" style="fill:none;stroke:black;stroke-width:1"/>
<polygon points="12.126448641998019,24.270847260514444 11.454032198780997,24.284017185487553 12.232084389424564,24.196352942891814" style="fill:none;stroke:black;stroke-width:1"/>
<polygon points="11.454032198780997,24.284017185487553 12.331896200548659,24.122904631251405 12.232084389424564,24.196352942891814" style="fill:none;stroke:black;stroke-width:1"/>
<polygon points="13.063806860051093,23.550803899884883 11.454032198780997,24.284017185487553 13.101930872480999,23.48255924270456" style="fill:none;stroke:black;stroke-width:1"/>
<polygon points="11.454032198780997,24.284017185487553 13.010442551885474,23.60520910288001 12.947553421980963,23.645679319036212" style="fill:none;stroke:black;stroke-width:1"/>
<polygon points="12.616323527597213,22.885957807957553 11.454032198780997,24.284017185487553 12.497063428667985,22.89725708031798" style="fill:none;stroke:black;stroke-width:1"/>
<polygon points="11.454032198780997,24.284017185487553 11.892281603258036,24.369142703541776 11.772420613256742,24.381486206268804" style="fill:none;stroke:black;stroke-width:1"/>
<polygon points="11.454032198780997,24.284017185487553 11.378878154873032,23.65975867403455 11.441752941944381,23.61902664324057" style="fill:none;stroke:black;stroke-width:1"/>
<polygon points="11.454032198780997,24.284017185487553 13.123516606083022,23.40406392624076 13.101930872480999,23.48255924270456" style="fill:none;stroke:black;stroke-width:1"/>
<polygon points="11.454032198780997,24.284017185487553 12.840100629783946,22.930850779398817 12.936630846157016,22.98421380006719" style="fill:none;stroke:black;stroke-width:1"/>
<polygon points="11.454032198780997,24.284017185487553 11.288050273202238,23.783292079657045 11.325821137178973,23.714645473789858" style="fill:none;stroke:black;stroke-width:1"/>
<polygon points="11.505397649058196,23.575498362114935 11.454032198780997,24.284017185487553 11.441752941944381,23.61902664324057" style="fill:none;stroke:black;stroke-width:1"/>
<polygon points="11.454032198780997,24.284017185487553 11.571647233067948,23.526434435807673 11.641174954051756,23.47220499217886" style="fill:none;stroke:black;stroke-width:1"/>
<polygon points="11.454032198780997,24.284017185487553 13.127260019547109,23.318810452779218 13.123516606083022,23.40406392624076" style="fill:none;stroke:black;stroke-width:1"/>
<polygon points="12.883908714867152,23.689207600161843 11.454032198780997,24.284017185487553 12.947553421980963,23.645679319036212" style="fill:none;stroke:black;stroke-width:1"/>
<polygon points="13.017463225937611,23.056213996631328 11.454032198780997,24.284017185487553 12.936630846157016,22.98421380006719" style="fill:none;stroke:black;stroke-width:1"/>
<polygon points="12.840100629783946,22.930850779398817 11.454032198780997,24.284017185487553 12.731986300999912,22.89761949799984" style="fill:none;stroke:black;stroke-width:1"/>
<polygon points="11.454032198780997,24.284017185487553 12.616323527597213,22.885957807957553 12.731986300999912,22.89761949799984" style="fill:none;stroke:black;stroke-width:1"/>
<polygon points="11.79248955395981,23.350130259004082 11.454032198780997,24.284017185487553 11.714602373909388,23.41326162238246" style="fill:none;stroke:black;stroke-width:1"/>
<polygon points="11.454032198780997,24.284017185487553 12.378067415676755,22.932873168364793 12.497063428667985,22.89725708031798" style="fill:none;stroke:black;stroke-width:1"/>
<polygon points="11.571647233067948,23.526434435807673 11.454032198780997,24.284017185487553 11.505397649058196,23.575498362114935" style="fill:none;stroke:black;stroke-width:1"/>
<polygon points="11.378878154873032,23.65975867403455 11.454032198780997,24.284017185487553 11.325821137178973,23.714645473789858" style="fill:none;stroke:black;stroke-width:1"/>
<polygon points="12.157221974500782,23.06835301938497 11.454032198780997,24.284017185487553 12.057410163376687,23.141801331025373" style="fill:none;stroke:black;stroke-width:1"/>
<polygon points="13.010442551885474,23.60520910288001 11.454032198780997,24.284017185487553 13.063806860051093,23.550803899884883" style="fill:none;stroke:black;stroke-width:1"/>
<polygon points="12.817659130857399,23.738271526469113 11.454032198780997,24.284017185487553 12.883908714867152,23.689207600161843" style="fill:none;stroke:black;stroke-width:1"/>
<polygon points="11.454032198780997,24.284017185487553 13.017463225937611,23.056213996631328 13.07590158948575,23.141528187121416" style="fill:none;stroke:black;stroke-width:1"/>
<polygon points="13.11183899245124,23.230196550581773 11.454032198780997,24.284017185487553 13.07590158948575,23.141528187121416" style="fill:none;stroke:black;stroke-width:1"/>
<polygon points="11.454032198780997,24.284017185487553 11.79248955395981,23.350130259004082 11.875326222439607,23.283402881789886" style="fill:none;stroke:black;stroke-width:1"/>
<polygon points="11.963524051196163,23.213728181772396 11.454032198780997,24.284017185487553 11.875326222439607,23.283402881789886" style="fill:none;stroke:black;stroke-width:1"/>
<polygon points="12.378067415676755,22.932873168364793 11.454032198780997,24.284017185487553 12.263103448275862,22.99413793103448" style="fill:none;stroke:black;stroke-width:1"/>
<polygon points="11.454032198780997,24.284017185487553 12.157221974500782,23.06835301938497 12.263103448275862,22.99413793103448" style="fill:none;stroke:black;stroke-width:1"/>
<polygon points="11.263564996987277,23.94760582273618 11.454032198780997,24.284017185487553 11.27947674648113,24.036382729400543" style="fill:none;stroke:black;stroke-width:1"/>
<polygon points="11.454032198780997,24.284017185487553 11.31595072982621,24.12513444925451 11.27947674648113,24.036382729400543" style="fill:none;stroke:black;stroke-width:1"/>
<polygon points="13.127260019547109,23.318810452779218 11.454032198780997,24.284017185487553 13.11183899245124,23.230196550581773" style="fill:none;stroke:black;stroke-width:1"/>
<polygon points="11.266863546034987,23.8621096967344 11.454032198780997,24.284017185487553 11.263564996987277,23.94760582273618" style="fill:none;stroke:black;stroke-width:1"/>
<polygon points="11.454032198780997,24.284017185487553 11.374542775015104,24.21089079249638 11.31595072982621,24.12513444925451" style="fill:none;stroke:black;stroke-width:1"/>
<polygon points="11.454032198780997,24.284017185487553 11.266863546034987,23.8621096967344 11.288050273202238,23.783292079657045" style="fill:none;stroke:black;stroke-width:1"/>
</svg>
