<?xml version="1.0" encoding="UTF-8" standalone="no"?>
<svg xmlns="http://www.w3.org/2000/svg" version="1.1" width="800" height="800">
<polygon points="16.614973451830547,18.151351748340783 17.88677940289822,16.395086741370402 18.756512601953826,18.234344306980283" style="fill:none;stroke:black;stroke-width:1"/>
<polygon points="15.643100506637552,10.075139765074699 13.961406281955968,9.875042522442197 14.466398334662088,8.547235907994867" style="fill:none;stroke:black;stroke-width:1"/>
<polygon points="21.259719204441353,6.118444704635838 21.715922130363168,4.807404641623155 23.0412377612692,6.213782183665996" style="fill:none;stroke:black;stroke-width:1"/>
<polygon points="18.063699115398737,4.45562468185689 11.31374705994677,7.1671950093527155 18.21840869880004,3.3654658508566495" style="fill:none;stroke:black;stroke-width:1"/>
<polygon points="13.694642400487425,8.441825582572921 13.848620689655174,9.436896551724137 12.898094319290596,7.244201007139309" style="fill:none;stroke:black;stroke-width:1"/>
<polygon points="13.961406281955968,9.875042522442197 13.848620689655174,9.436896551724137 14.466398334662088,8.547235907994867" style="fill:none;stroke:black;stroke-width:1"/>
<polygon points="13.848620689655174,9.436896551724137 13.694642400487425,8.441825582572921 14.466398334662088,8.547235907994867" style="fill:none;stroke:black;stroke-width:1"/>
<polygon points="13.094224687960963,5.421281167389646 13.18562442716542,6.792960066156493 12.898094319290596,7.244201007139309" style="fill:none;stroke:black;stroke-width:1"/>
<polygon points="13.18562442716542,6.792960066156493 13.694642400487425,8.441825582572921 12.898094319290596,7.244201007139309" style="fill:none;stroke:black;stroke-width:1"/>
<polygon points="14.623455496292873,4.39864899955122 13.18562442716542,6.792960066156493 13.094224687960963,5.421281167389646" style="fill:none;stroke:black;stroke-width:1"/>
<polygon points="20.45854778989893,17.341592952350297 19.66857020763356,15.786129184600558 21.43524908961281,15.115354022003757" style="fill:none;stroke:black;stroke-width:1"/>
<polygon points="19.66857020763356,15.786129184600558 20.45854778989893,17.341592952350297 18.756512601953826,18.234344306980283" style="fill:none;stroke:black;stroke-width:1"/>
<polygon points="17.88677940289822,16.395086741370402 19.66857020763356,15.786129184600558 18.756512601953826,18.234344306980283" style="fill:none;stroke:black;stroke-width:1"/>
<polygon points="19.820035045601756,13.342375581845051 21.496755567153684,13.575897390297856 21.43524908961281,15.115354022003757" style="fill:none;stroke:black;stroke-width:1"/>
<polygon points="19.66857020763356,15.786129184600558 19.820035045601756,13.342375581845051 21.43524908961281,15.115354022003757" style="fill:none;stroke:black;stroke-width:1"/>
<polygon points="16.40401704823055,8.63408393628171 15.643100506637552,10.075139765074699 14.466398334662088,8.547235907994867" style="fill:none;stroke:black;stroke-width:1"/>
<polygon points="15.643100506637552,10.075139765074699 16.40401704823055,8.63408393628171 17.623647738568195,10.00247441843129" style="fill:none;stroke:black;stroke-width:1"/>
<polygon points="21.259719204441353,6.118444704635838 19.597963439657256,5.254081488228814 21.715922130363168,4.807404641623155" style="fill:none;stroke:black;stroke-width:1"/>
<polygon points="18.21840869880004,3.3654658508566495 16.197552978256944,3.9603622059796995 16.272766294506106,3.5790818733648204" style="fill:none;stroke:black;stroke-width:1"/>
<polygon points="14.644179046954264,5.009639753654195 13.18562442716542,6.792960066156493 14.623455496292873,4.39864899955122" style="fill:none;stroke:black;stroke-width:1"/>
<polygon points="13.18562442716542,6.792960066156493 14.644179046954264,5.009639753654195 13.694642400487425,8.441825582572921" style="fill:none;stroke:black;stroke-width:1"/>
<polygon points="14.644179046954264,5.009639753654195 14.623455496292873,4.39864899955122 16.272766294506106,3.5790818733648204" style="fill:none;stroke:black;stroke-width:1"/>
<polygon points="22.894393532610927,8.194082208005284 21.259719204441353,6.118444704635838 23.0412377612692,6.213782183665996" style="fill:none;stroke:black;stroke-width:1"/>
<polygon points="21.496755567153684,13.575897390297856 22.894393532610927,8.194082208005284 21.43524908961281,15.115354022003757" style="fill:none;stroke:black;stroke-width:1"/>
<polygon points="22.894393532610927,8.194082208005284 21.496755567153684,13.575897390297856 21.757796689004955,11.678594199595828" style="fill:none;stroke:black;stroke-width:1"/>
<polygon points="13.909485778474917,11.436697702703428 13.848620689655174,9.436896551724137 13.961406281955968,9.875042522442197" style="fill:none;stroke:black;stroke-width:1"/>
<polygon points="13.848620689655174,9.436896551724137 13.909485778474917,11.436697702703428 12.898094319290596,7.244201007139309" style="fill:none;stroke:black;stroke-width:1"/>
<polygon points="19.621356703993534,9.941602158946306 19.134860388785285,10.609488786418277 17.623647738568195,10.00247441843129" style="fill:none;stroke:black;stroke-width:1"/>
<polygon points="19.820035045601756,13.342375581845051 19.906660038178963,11.668545892761115 21.496755567153684,13.575897390297856" style="fill:none;stroke:black;stroke-width:1"/>
<polygon points="21.496755567153684,13.575897390297856 19.906660038178963,11.668545892761115 21.757796689004955,11.678594199595828" style="fill:none;stroke:black;stroke-width:1"/>
<polygon points="19.906660038178963,11.668545892761115 19.621356703993534,9.941602158946306 21.757796689004955,11.678594199595828" style="fill:none;stroke:black;stroke-width:1"/>
<polygon points="19.621356703993534,9.941602158946306 19.906660038178963,11.668545892761115 19.134860388785285,10.609488786418277" style="fill:none;stroke:black;stroke-width:1"/>
<polygon points="21.64227113170995,22.59189445202449 19.66857020763356,15.786129184600558 17.88677940289822,16.395086741370402" style="fill:none;stroke:black;stroke-width:1"/>
<polygon points="19.66857020763356,15.786129184600558 21.64227113170995,22.59189445202449 21.749382588564036,22.46739286758038" style="fill:none;stroke:black;stroke-width:1"/>
<polygon points="20.44865406723466,23.455639761934954 20.592597554497903,23.377568540512392 17.88677940289822,16.395086741370402" style="fill:none;stroke:black;stroke-width:1"/>
<polygon points="15.520697832230454,8.65750906313126 16.40401704823055,8.63408393628171 14.466398334662088,8.547235907994867" style="fill:none;stroke:black;stroke-width:1"/>
<polygon points="13.694642400487425,8.441825582572921 15.520697832230454,8.65750906313126 14.466398334662088,8.547235907994867" style="fill:none;stroke:black;stroke-width:1"/>
<polygon points="14.644179046954264,5.009639753654195 15.520697832230454,8.65750906313126 13.694642400487425,8.441825582572921" style="fill:none;stroke:black;stroke-width:1"/>
<polygon points="16.40401704823055,8.63408393628171 18.36147093779502,8.718593998505757 17.623647738568195,10.00247441843129" style="fill:none;stroke:black;stroke-width:1"/>
<polygon points="18.36147093779502,8.718593998505757 19.621356703993534,9.941602158946306 17.623647738568195,10.00247441843129" style="fill:none;stroke:black;stroke-width:1"/>
<polygon points="19.621356703993534,9.941602158946306 18.36147093779502,8.718593998505757 19.990636999179564,8.256047564201815" style="fill:none;stroke:black;stroke-width:1"/>
<polygon points="19.597963439657256,5.254081488228814 19.89595549898934,4.383405444003174 21.715922130363168,4.807404641623155" style="fill:none;stroke:black;stroke-width:1"/>
<polygon points="19.89595549898934,4.383405444003174 19.597963439657256,5.254081488228814 18.063699115398737,4.45562468185689" style="fill:none;stroke:black;stroke-width:1"/>
<polygon points="21.715922130363168,4.807404641623155 19.89595549898934,4.383405444003174 18.21840869880004,3.3654658508566495" style="fill:none;stroke:black;stroke-width:1"/>
<polygon points="19.89595549898934,4.383405444003174 18.063699115398737,4.45562468185689 18.21840869880004,3.3654658508566495" style="fill:none;stroke:black;stroke-width:1"/>
<polygon points="21.04351555327401,7.98499774656491 19.597963439657256,5.254081488228814 21.259719204441353,6.118444704635838" style="fill:none;stroke:black;stroke-width:1"/>
<polygon points="22.894393532610927,8.194082208005284 21.04351555327401,7.98499774656491 21.259719204441353,6.118444704635838" style="fill:none;stroke:black;stroke-width:1"/>
<polygon points="21.796984873613376,9.66113678814282 22.894393532610927,8.194082208005284 21.757796689004955,11.678594199595828" style="fill:none;stroke:black;stroke-width:1"/>
<polygon points="19.621356703993534,9.941602158946306 21.796984873613376,9.66113678814282 21.757796689004955,11.678594199595828" style="fill:none;stroke:black;stroke-width:1"/>
<polygon points="21.796984873613376,9.66113678814282 19.621356703993534,9.941602158946306 19.990636999179564,8.256047564201815" style="fill:none;stroke:black;stroke-width:1"/>
<polygon points="21.04351555327401,7.98499774656491 21.796984873613376,9.66113678814282 19.990636999179564,8.256047564201815" style="fill:none;stroke:black;stroke-width:1"/>
<polygon points="21.796984873613376,9.66113678814282 21.04351555327401,7.98499774656491 22.894393532610927,8.194082208005284" style="fill:none;stroke:black;stroke-width:1"/>
<polygon points="13.746530418850194,19.723087225615167 17.283615582682394,10.643125108640817 17.623647738568195,10.00247441843129" style="fill:none;stroke:black;stroke-width:1"/>
<polygon points="13.09029355420166,22.621090339206013 17.283615582682394,10.643125108640817 13.06383068858116,22.692162284318023" style="fill:none;stroke:black;stroke-width:1"/>
<polygon points="17.283615582682394,10.643125108640817 15.643100506637552,10.075139765074699 17.623647738568195,10.00247441843129" style="fill:none;stroke:black;stroke-width:1"/>
<polygon points="21.64227113170995,22.59189445202449 21.242758620689656,21.205172413793104 21.749382588564036,22.46739286758038" style="fill:none;stroke:black;stroke-width:1"/>
<polygon points="21.748845517723723,21.438670020705203 21.957071657082757,24.718568001353415 19.820035045601756,13.342375581845051" style="fill:none;stroke:black;stroke-width:1"/>
<polygon points="21.942239819196388,21.959955385671634 19.820035045601756,13.342375581845051 19.66857020763356,15.786129184600558" style="fill:none;stroke:black;stroke-width:1"/>
<polygon points="21.942239819196388,21.959955385671634 21.92423766149281,21.76889783226889 19.820035045601756,13.342375581845051" style="fill:none;stroke:black;stroke-width:1"/>
<polygon points="21.910834815627297,22.147076626611465 21.942239819196388,21.959955385671634 19.66857020763356,15.786129184600558" style="fill:none;stroke:black;stroke-width:1"/>
<polygon points="14.949682067742557,16.931551729565587 15.956034584887995,15.827918386302926 16.614973451830547,18.151351748340783" style="fill:none;stroke:black;stroke-width:1"/>
<polygon points="15.956034584887995,15.827918386302926 17.88677940289822,16.395086741370402 16.614973451830547,18.151351748340783" style="fill:none;stroke:black;stroke-width:1"/>
<polygon points="15.520697832230454,8.65750906313126 17.402360483935276,8.584379900266965 16.40401704823055,8.63408393628171" style="fill:none;stroke:black;stroke-width:1"/>
<polygon points="17.402360483935276,8.584379900266965 18.36147093779502,8.718593998505757 16.40401704823055,8.63408393628171" style="fill:none;stroke:black;stroke-width:1"/>
<polygon points="11.476395685506473,7.156504783507623 11.31374705994677,7.1671950093527155 18.063699115398737,4.45562468185689" style="fill:none;stroke:black;stroke-width:1"/>
<polygon points="11.633213504648895,7.15385566236024 11.476395685506473,7.156504783507623 18.063699115398737,4.45562468185689" style="fill:none;stroke:black;stroke-width:1"/>
<polygon points="11.92807587149688,7.171128186055527 11.783880304327784,7.158859508884797 18.063699115398737,4.45562468185689" style="fill:none;stroke:black;stroke-width:1"/>
<polygon points="11.783880304327784,7.158859508884797 11.633213504648895,7.15385566236024 18.063699115398737,4.45562468185689" style="fill:none;stroke:black;stroke-width:1"/>
<polygon points="19.906660038178963,11.668545892761115 15.46251014823276,11.24040154572447 19.134860388785285,10.609488786418277" style="fill:none;stroke:black;stroke-width:1"/>
<polygon points="13.077708301723943,12.839296158829582 15.46251014823276,11.24040154572447 19.906660038178963,11.668545892761115" style="fill:none;stroke:black;stroke-width:1"/>
<polygon points="15.956034584887995,15.827918386302926 19.747712990001546,23.633004242121928 17.88677940289822,16.395086741370402" style="fill:none;stroke:black;stroke-width:1"/>
<polygon points="14.911516261143202,12.1229888041824 14.96976593015178,13.770697713978619 14.316275485309717,14.94617298903681" style="fill:none;stroke:black;stroke-width:1"/>
<polygon points="14.96976593015178,13.770697713978619 14.949682067742557,16.931551729565587 14.316275485309717,14.94617298903681" style="fill:none;stroke:black;stroke-width:1"/>
<polygon points="15.42367097484843,10.694508380519984 13.909485778474917,11.436697702703428 13.961406281955968,9.875042522442197" style="fill:none;stroke:black;stroke-width:1"/>
<polygon points="15.643100506637552,10.075139765074699 15.42367097484843,10.694508380519984 13.961406281955968,9.875042522442197" style="fill:none;stroke:black;stroke-width:1"/>
<polygon points="21.92423766149281,21.76889783226889 21.857643466968618,21.591717134813713 19.820035045601756,13.342375581845051" style="fill:none;stroke:black;stroke-width:1"/>
<polygon points="21.857643466968618,21.591717134813713 21.748845517723723,21.438670020705203 19.820035045601756,13.342375581845051" style="fill:none;stroke:black;stroke-width:1"/>
<polygon points="21.857643466968618,21.591717134813713 21.910834815627297,22.147076626611465 21.748845517723723,21.438670020705203" style="fill:none;stroke:black;stroke-width:1"/>
<polygon points="21.942239819196388,21.959955385671634 21.857643466968618,21.591717134813713 21.92423766149281,21.76889783226889" style="fill:none;stroke:black;stroke-width:1"/>
<polygon points="21.857643466968618,21.591717134813713 21.942239819196388,21.959955385671634 21.910834815627297,22.147076626611465" style="fill:none;stroke:black;stroke-width:1"/>
<polygon points="21.748845517723723,21.438670020705203 21.604644266855512,21.317261428644365 21.957071657082757,24.718568001353415" style="fill:none;stroke:black;stroke-width:1"/>
<polygon points="21.604644266855512,21.317261428644365 21.242758620689656,21.205172413793104 21.431840167461377,21.23499629733218" style="fill:none;stroke:black;stroke-width:1"/>
<polygon points="21.242758620689656,21.205172413793104 21.604644266855512,21.317261428644365 21.749382588564036,22.46739286758038" style="fill:none;stroke:black;stroke-width:1"/>
<polygon points="21.840665094655147,22.317597837097665 19.66857020763356,15.786129184600558 21.749382588564036,22.46739286758038" style="fill:none;stroke:black;stroke-width:1"/>
<polygon points="21.840665094655147,22.317597837097665 21.910834815627297,22.147076626611465 19.66857020763356,15.786129184600558" style="fill:none;stroke:black;stroke-width:1"/>
<polygon points="21.910834815627297,22.147076626611465 21.840665094655147,22.317597837097665 21.748845517723723,21.438670020705203" style="fill:none;stroke:black;stroke-width:1"/>
<polygon points="21.604644266855512,21.317261428644365 21.840665094655147,22.317597837097665 21.749382588564036,22.46739286758038" style="fill:none;stroke:black;stroke-width:1"/>
<polygon points="21.840665094655147,22.317597837097665 21.604644266855512,21.317261428644365 21.748845517723723,21.438670020705203" style="fill:none;stroke:black;stroke-width:1"/>
<polygon points="21.04351555327401,7.98499774656491 13.425740731755408,8.522938402784805 19.597963439657256,5.254081488228814" style="fill:none;stroke:black;stroke-width:1"/>
<polygon points="12.58243150940752,9.254546757103219 13.425740731755408,8.522938402784805 13.445609071683865,8.75818029662179" style="fill:none;stroke:black;stroke-width:1"/>
<polygon points="19.284023135640105,8.511250737402671 21.04351555327401,7.98499774656491 19.990636999179564,8.256047564201815" style="fill:none;stroke:black;stroke-width:1"/>
<polygon points="18.36147093779502,8.718593998505757 19.284023135640105,8.511250737402671 19.990636999179564,8.256047564201815" style="fill:none;stroke:black;stroke-width:1"/>
<polygon points="19.284023135640105,8.511250737402671 13.425740731755408,8.522938402784805 21.04351555327401,7.98499774656491" style="fill:none;stroke:black;stroke-width:1"/>
<polygon points="13.425740731755408,8.522938402784805 19.284023135640105,8.511250737402671 13.445609071683865,8.75818029662179" style="fill:none;stroke:black;stroke-width:1"/>
<polygon points="17.402360483935276,8.584379900266965 19.284023135640105,8.511250737402671 18.36147093779502,8.718593998505757" style="fill:none;stroke:black;stroke-width:1"/>
<polygon points="11.501717015339242,8.804512038669507 11.476395685506473,7.156504783507623 11.633213504648895,7.15385566236024" style="fill:none;stroke:black;stroke-width:1"/>
<polygon points="12.065479993109927,7.190273556846665 11.92807587149688,7.171128186055527 18.063699115398737,4.45562468185689" style="fill:none;stroke:black;stroke-width:1"/>
<polygon points="19.597963439657256,5.254081488228814 12.607897846316693,7.368595715706832 18.063699115398737,4.45562468185689" style="fill:none;stroke:black;stroke-width:1"/>
<polygon points="12.754311827602464,7.462705380792546 12.607897846316693,7.368595715706832 19.597963439657256,5.254081488228814" style="fill:none;stroke:black;stroke-width:1"/>
<polygon points="18.205449762770314,14.186528789488271 15.460826315407116,14.949687367056288 19.906660038178963,11.668545892761115" style="fill:none;stroke:black;stroke-width:1"/>
<polygon points="17.283615582682394,10.643125108640817 13.030430418216325,22.769748886113128 13.06383068858116,22.692162284318023" style="fill:none;stroke:black;stroke-width:1"/>
<polygon points="18.934860315605274,23.24358531558201 15.956034584887995,15.827918386302926 14.949682067742557,16.931551729565587" style="fill:none;stroke:black;stroke-width:1"/>
<polygon points="14.96976593015178,13.770697713978619 18.934860315605274,23.24358531558201 14.949682067742557,16.931551729565587" style="fill:none;stroke:black;stroke-width:1"/>
<polygon points="15.42367097484843,10.694508380519984 14.237042743766438,13.305515287912796 13.909485778474917,11.436697702703428" style="fill:none;stroke:black;stroke-width:1"/>
<polygon points="14.237042743766438,13.305515287912796 15.42367097484843,10.694508380519984 14.911516261143202,12.1229888041824" style="fill:none;stroke:black;stroke-width:1"/>
<polygon points="14.237042743766438,13.305515287912796 14.911516261143202,12.1229888041824 14.316275485309717,14.94617298903681" style="fill:none;stroke:black;stroke-width:1"/>
<polygon points="14.237042743766438,13.305515287912796 14.316275485309717,14.94617298903681 12.898094319290596,7.244201007139309" style="fill:none;stroke:black;stroke-width:1"/>
<polygon points="13.909485778474917,11.436697702703428 14.237042743766438,13.305515287912796 12.898094319290596,7.244201007139309" style="fill:none;stroke:black;stroke-width:1"/>
<polygon points="20.592597554497903,23.377568540512392 20.71942780505237,23.28972627407012 17.88677940289822,16.395086741370402" style="fill:none;stroke:black;stroke-width:1"/>
<polygon points="20.71942780505237,23.28972627407012 20.8346243119779,23.20364146119521 17.88677940289822,16.395086741370402" style="fill:none;stroke:black;stroke-width:1"/>
<polygon points="20.71942780505237,23.28972627407012 20.592597554497903,23.377568540512392 19.95860144198929,21.631458568849986" style="fill:none;stroke:black;stroke-width:1"/>
<polygon points="21.065013766796504,23.03148114554598 21.180208494205807,22.945400987721364 17.88677940289822,16.395086741370402" style="fill:none;stroke:black;stroke-width:1"/>
<polygon points="21.065013766796504,23.03148114554598 20.50424061147964,21.316180799401984 21.180208494205807,22.945400987721364" style="fill:none;stroke:black;stroke-width:1"/>
<polygon points="21.525792676433717,22.687160514247516 21.64227113170995,22.59189445202449 17.88677940289822,16.395086741370402" style="fill:none;stroke:black;stroke-width:1"/>
<polygon points="21.410597949024414,22.773240672072134 21.525792676433717,22.687160514247516 17.88677940289822,16.395086741370402" style="fill:none;stroke:black;stroke-width:1"/>
<polygon points="21.525792676433717,22.687160514247516 21.242758620689656,21.205172413793104 21.64227113170995,22.59189445202449" style="fill:none;stroke:black;stroke-width:1"/>
<polygon points="21.180208494205807,22.945400987721364 21.29540322161511,22.85932082989675 17.88677940289822,16.395086741370402" style="fill:none;stroke:black;stroke-width:1"/>
<polygon points="21.29540322161511,22.85932082989675 21.410597949024414,22.773240672072134 17.88677940289822,16.395086741370402" style="fill:none;stroke:black;stroke-width:1"/>
<polygon points="21.242758620689656,21.205172413793104 11.124121318637298,23.266091334136355 21.431840167461377,21.23499629733218" style="fill:none;stroke:black;stroke-width:1"/>
<polygon points="20.592597554497903,23.377568540512392 19.84340671457999,21.717538726674604 19.95860144198929,21.631458568849986" style="fill:none;stroke:black;stroke-width:1"/>
<polygon points="20.44865406723466,23.455639761934954 19.84340671457999,21.717538726674604 20.592597554497903,23.377568540512392" style="fill:none;stroke:black;stroke-width:1"/>
<polygon points="20.118620430363368,23.575027078659716 19.49782253235208,21.975779200148448 19.613017259761385,21.889699042323834" style="fill:none;stroke:black;stroke-width:1"/>
<polygon points="11.861686218742353,22.862439132501578 14.96976593015178,13.770697713978619 14.911516261143202,12.1229888041824" style="fill:none;stroke:black;stroke-width:1"/>
<polygon points="11.88814908436285,22.79136718738956 11.861686218742353,22.862439132501578 14.911516261143202,12.1229888041824" style="fill:none;stroke:black;stroke-width:1"/>
<polygon points="22.504583664032936,18.315463209297782 23.25572190277171,19.755243394842743 17.283615582682394,10.643125108640817" style="fill:none;stroke:black;stroke-width:1"/>
<polygon points="19.906660038178963,11.668545892761115 24.385714083182947,17.680939273422926 22.089441275590467,18.06359175599376" style="fill:none;stroke:black;stroke-width:1"/>
<polygon points="24.385714083182947,17.680939273422926 19.906660038178963,11.668545892761115 19.820035045601756,13.342375581845051" style="fill:none;stroke:black;stroke-width:1"/>
<polygon points="12.75624429554179,9.356057110854508 13.268123554195078,9.16097809411843 12.912273639112762,9.351326674095262" style="fill:none;stroke:black;stroke-width:1"/>
<polygon points="17.402360483935276,8.584379900266965 12.75624429554179,9.356057110854508 12.912273639112762,9.351326674095262" style="fill:none;stroke:black;stroke-width:1"/>
<polygon points="19.284023135640105,8.511250737402671 13.389956633352249,8.977220429931105 13.445609071683865,8.75818029662179" style="fill:none;stroke:black;stroke-width:1"/>
<polygon points="13.389956633352249,8.977220429931105 19.284023135640105,8.511250737402671 13.268123554195078,9.16097809411843" style="fill:none;stroke:black;stroke-width:1"/>
<polygon points="12.75624429554179,9.356057110854508 13.389956633352249,8.977220429931105 13.268123554195078,9.16097809411843" style="fill:none;stroke:black;stroke-width:1"/>
<polygon points="13.389956633352249,8.977220429931105 12.58243150940752,9.254546757103219 13.445609071683865,8.75818029662179" style="fill:none;stroke:black;stroke-width:1"/>
<polygon points="13.094916918303827,9.29020459167827 19.284023135640105,8.511250737402671 17.402360483935276,8.584379900266965" style="fill:none;stroke:black;stroke-width:1"/>
<polygon points="19.284023135640105,8.511250737402671 13.094916918303827,9.29020459167827 13.268123554195078,9.16097809411843" style="fill:none;stroke:black;stroke-width:1"/>
<polygon points="13.094916918303827,9.29020459167827 17.402360483935276,8.584379900266965 12.912273639112762,9.351326674095262" style="fill:none;stroke:black;stroke-width:1"/>
<polygon points="13.268123554195078,9.16097809411843 13.094916918303827,9.29020459167827 12.912273639112762,9.351326674095262" style="fill:none;stroke:black;stroke-width:1"/>
<polygon points="11.783880304327784,7.158859508884797 11.692103301034493,8.835925068659337 11.633213504648895,7.15385566236024" style="fill:none;stroke:black;stroke-width:1"/>
<polygon points="11.692103301034493,8.835925068659337 11.501717015339242,8.804512038669507 11.633213504648895,7.15385566236024" style="fill:none;stroke:black;stroke-width:1"/>
<polygon points="11.692103301034493,8.835925068659337 11.783880304327784,7.158859508884797 11.92807587149688,7.171128186055527" style="fill:none;stroke:black;stroke-width:1"/>
<polygon points="11.476395685506473,7.156504783507623 11.29183605119861,8.766847354015182 11.31374705994677,7.1671950093527155" style="fill:none;stroke:black;stroke-width:1"/>
<polygon points="11.501717015339242,8.804512038669507 11.29183605119861,8.766847354015182 11.476395685506473,7.156504783507623" style="fill:none;stroke:black;stroke-width:1"/>
<polygon points="11.29183605119861,8.766847354015182 11.501717015339242,8.804512038669507 11.067075094819266,8.722399052264905" style="fill:none;stroke:black;stroke-width:1"/>
<polygon points="12.324822692741929,7.247387349048969 12.195772456120665,7.215907484232443 18.063699115398737,4.45562468185689" style="fill:none;stroke:black;stroke-width:1"/>
<polygon points="12.195772456120665,7.215907484232443 12.065479993109927,7.190273556846665 18.063699115398737,4.45562468185689" style="fill:none;stroke:black;stroke-width:1"/>
<polygon points="12.46342093947472,7.297176509132932 12.324822692741929,7.247387349048969 18.063699115398737,4.45562468185689" style="fill:none;stroke:black;stroke-width:1"/>
<polygon points="12.607897846316693,7.368595715706832 12.46342093947472,7.297176509132932 18.063699115398737,4.45562468185689" style="fill:none;stroke:black;stroke-width:1"/>
<polygon points="10.97223824176057,7.214251323239092 16.197552978256944,3.9603622059796995 18.21840869880004,3.3654658508566495" style="fill:none;stroke:black;stroke-width:1"/>
<polygon points="10.97223824176057,7.214251323239092 10.794018475226588,7.2513936853319105 16.197552978256944,3.9603622059796995" style="fill:none;stroke:black;stroke-width:1"/>
<polygon points="10.075170657873777,7.897995957124139 14.644179046954264,5.009639753654195 16.272766294506106,3.5790818733648204" style="fill:none;stroke:black;stroke-width:1"/>
<polygon points="10.369239602160311,8.509186126723868 15.520697832230454,8.65750906313126 14.644179046954264,5.009639753654195" style="fill:none;stroke:black;stroke-width:1"/>
<polygon points="10.200140769811942,8.343389439045149 10.369239602160311,8.509186126723868 14.644179046954264,5.009639753654195" style="fill:none;stroke:black;stroke-width:1"/>
<polygon points="20.74196743107079,15.50477181886886 19.906660038178963,11.668545892761115 22.089441275590467,18.06359175599376" style="fill:none;stroke:black;stroke-width:1"/>
<polygon points="20.74196743107079,15.50477181886886 18.205449762770314,14.186528789488271 19.906660038178963,11.668545892761115" style="fill:none;stroke:black;stroke-width:1"/>
<polygon points="11.518402291631558,15.289189222195862 13.077708301723943,12.839296158829582 19.906660038178963,11.668545892761115" style="fill:none;stroke:black;stroke-width:1"/>
<polygon points="11.605856979626996,17.462585725106926 11.518402291631558,15.289189222195862 19.906660038178963,11.668545892761115" style="fill:none;stroke:black;stroke-width:1"/>
<polygon points="15.460826315407116,14.949687367056288 14.02073446534056,17.31546478324986 19.906660038178963,11.668545892761115" style="fill:none;stroke:black;stroke-width:1"/>
<polygon points="14.02073446534056,17.31546478324986 11.605856979626996,17.462585725106926 19.906660038178963,11.668545892761115" style="fill:none;stroke:black;stroke-width:1"/>
<polygon points="19.134860388785285,10.609488786418277 13.402437762220318,23.026560985489954 17.623647738568195,10.00247441843129" style="fill:none;stroke:black;stroke-width:1"/>
<polygon points="12.939891886386967,22.940694412664328 12.989330943628012,22.852929287208386 17.283615582682394,10.643125108640817" style="fill:none;stroke:black;stroke-width:1"/>
<polygon points="12.989330943628012,22.852929287208386 13.030430418216325,22.769748886113128 17.283615582682394,10.643125108640817" style="fill:none;stroke:black;stroke-width:1"/>
<polygon points="12.881604388264192,23.03196288369954 12.939891886386967,22.940694412664328 17.283615582682394,10.643125108640817" style="fill:none;stroke:black;stroke-width:1"/>
<polygon points="20.8346243119779,23.20364146119521 20.949819039387204,23.117561303370593 17.88677940289822,16.395086741370402" style="fill:none;stroke:black;stroke-width:1"/>
<polygon points="20.949819039387204,23.117561303370593 21.065013766796504,23.03148114554598 17.88677940289822,16.395086741370402" style="fill:none;stroke:black;stroke-width:1"/>
<polygon points="20.200496850271684,21.458822402188577 20.949819039387204,23.117561303370593 20.8346243119779,23.20364146119521" style="fill:none;stroke:black;stroke-width:1"/>
<polygon points="20.50424061147964,21.316180799401984 20.676269330833243,21.26381082957895 21.180208494205807,22.945400987721364" style="fill:none;stroke:black;stroke-width:1"/>
<polygon points="20.676269330833243,21.26381082957895 21.29540322161511,22.85932082989675 21.180208494205807,22.945400987721364" style="fill:none;stroke:black;stroke-width:1"/>
<polygon points="9.388431524798182,17.709954530680832 20.676269330833243,21.26381082957895 10.146072859658704,14.873322844791904" style="fill:none;stroke:black;stroke-width:1"/>
<polygon points="20.676269330833243,21.26381082957895 20.50424061147964,21.316180799401984 10.146072859658704,14.873322844791904" style="fill:none;stroke:black;stroke-width:1"/>
<polygon points="20.073819178951144,21.545316007251778 20.71942780505237,23.28972627407012 19.95860144198929,21.631458568849986" style="fill:none;stroke:black;stroke-width:1"/>
<polygon points="20.71942780505237,23.28972627407012 20.073819178951144,21.545316007251778 20.8346243119779,23.20364146119521" style="fill:none;stroke:black;stroke-width:1"/>
<polygon points="20.073819178951144,21.545316007251778 20.200496850271684,21.458822402188577 20.8346243119779,23.20364146119521" style="fill:none;stroke:black;stroke-width:1"/>
<polygon points="9.726025428118,20.693872566765318 11.124121318637298,23.266091334136355 21.242758620689656,21.205172413793104" style="fill:none;stroke:black;stroke-width:1"/>
<polygon points="16.162417574936065,26.118176632473872 21.604644266855512,21.317261428644365 21.431840167461377,21.23499629733218" style="fill:none;stroke:black;stroke-width:1"/>
<polygon points="14.258440732129786,11.108497649109564 20.073819178951144,21.545316007251778 12.24491556992469,23.454451006160525" style="fill:none;stroke:black;stroke-width:1"/>
<polygon points="19.38262780494278,22.061859357973063 19.747712990001546,23.633004242121928 19.267433077533475,22.147939515797678" style="fill:none;stroke:black;stroke-width:1"/>
<polygon points="19.72821198717069,21.803618884499215 19.84340671457999,21.717538726674604 20.44865406723466,23.455639761934954" style="fill:none;stroke:black;stroke-width:1"/>
<polygon points="20.118620430363368,23.575027078659716 19.937126804646084,23.612622178431295 19.49782253235208,21.975779200148448" style="fill:none;stroke:black;stroke-width:1"/>
<polygon points="19.38262780494278,22.061859357973063 19.937126804646084,23.612622178431295 19.747712990001546,23.633004242121928" style="fill:none;stroke:black;stroke-width:1"/>
<polygon points="19.937126804646084,23.612622178431295 19.38262780494278,22.061859357973063 19.49782253235208,21.975779200148448" style="fill:none;stroke:black;stroke-width:1"/>
<polygon points="19.747712990001546,23.633004242121928 19.937126804646084,23.612622178431295 17.88677940289822,16.395086741370402" style="fill:none;stroke:black;stroke-width:1"/>
<polygon points="19.937126804646084,23.612622178431295 20.118620430363368,23.575027078659716 17.88677940289822,16.395086741370402" style="fill:none;stroke:black;stroke-width:1"/>
<polygon points="15.42367097484843,10.694508380519984 12.400115333648293,22.11272722049947 14.911516261143202,12.1229888041824" style="fill:none;stroke:black;stroke-width:1"/>
<polygon points="14.96976593015178,13.770697713978619 11.814746895716116,23.028975143772662 18.95256065931204,22.51750219294753" style="fill:none;stroke:black;stroke-width:1"/>
<polygon points="16.03242715174332,21.340186346095557 17.283615582682394,10.643125108640817 13.746530418850194,19.723087225615167" style="fill:none;stroke:black;stroke-width:1"/>
<polygon points="16.03242715174332,21.340186346095557 18.845550166132703,20.937223886076204 17.283615582682394,10.643125108640817" style="fill:none;stroke:black;stroke-width:1"/>
<polygon points="20.550380900699757,18.783449309969406 22.504583664032936,18.315463209297782 17.283615582682394,10.643125108640817" style="fill:none;stroke:black;stroke-width:1"/>
<polygon points="18.845550166132703,20.937223886076204 20.550380900699757,18.783449309969406 17.283615582682394,10.643125108640817" style="fill:none;stroke:black;stroke-width:1"/>
<polygon points="23.25572190277171,19.755243394842743 21.83143615383765,22.330116753659752 17.283615582682394,10.643125108640817" style="fill:none;stroke:black;stroke-width:1"/>
<polygon points="21.83143615383765,22.330116753659752 12.881604388264192,23.03196288369954 17.283615582682394,10.643125108640817" style="fill:none;stroke:black;stroke-width:1"/>
<polygon points="21.95479080283413,13.079221214697967 23.816038567102584,15.231154473326171 19.820035045601756,13.342375581845051" style="fill:none;stroke:black;stroke-width:1"/>
<polygon points="23.816038567102584,15.231154473326171 24.385714083182947,17.680939273422926 19.820035045601756,13.342375581845051" style="fill:none;stroke:black;stroke-width:1"/>
<polygon points="21.957071657082757,24.718568001353415 23.94320024755637,22.625036492930317 19.820035045601756,13.342375581845051" style="fill:none;stroke:black;stroke-width:1"/>
<polygon points="23.94320024755637,22.625036492930317 25.04469935207377,19.906737431849486 19.820035045601756,13.342375581845051" style="fill:none;stroke:black;stroke-width:1"/>
<polygon points="19.32266718218299,11.835668238745018 21.95479080283413,13.079221214697967 19.820035045601756,13.342375581845051" style="fill:none;stroke:black;stroke-width:1"/>
<polygon points="25.04469935207377,19.906737431849486 19.32266718218299,11.835668238745018 19.820035045601756,13.342375581845051" style="fill:none;stroke:black;stroke-width:1"/>
<polygon points="13.165760536134915,7.891781245167724 13.037184670843907,7.723237734586954 19.597963439657256,5.254081488228814" style="fill:none;stroke:black;stroke-width:1"/>
<polygon points="13.425740731755408,8.522938402784805 13.365526273759288,8.295959491721062 19.597963439657256,5.254081488228814" style="fill:none;stroke:black;stroke-width:1"/>
<polygon points="13.365526273759288,8.295959491721062 13.425740731755408,8.522938402784805 12.58243150940752,9.254546757103219" style="fill:none;stroke:black;stroke-width:1"/>
<polygon points="13.389956633352249,8.977220429931105 12.6415831947671,9.318901707403686 12.58243150940752,9.254546757103219" style="fill:none;stroke:black;stroke-width:1"/>
<polygon points="12.6415831947671,9.318901707403686 13.389956633352249,8.977220429931105 12.75624429554179,9.356057110854508" style="fill:none;stroke:black;stroke-width:1"/>
<polygon points="12.6415831947671,9.318901707403686 12.75624429554179,9.356057110854508 17.402360483935276,8.584379900266965" style="fill:none;stroke:black;stroke-width:1"/>
<polygon points="12.6415831947671,9.318901707403686 17.402360483935276,8.584379900266965 15.520697832230454,8.65750906313126" style="fill:none;stroke:black;stroke-width:1"/>
<polygon points="12.58243150940752,9.254546757103219 12.6415831947671,9.318901707403686 15.520697832230454,8.65750906313126" style="fill:none;stroke:black;stroke-width:1"/>
<polygon points="12.065479993109927,7.190273556846665 11.858380222077686,8.861618406416127 11.92807587149688,7.171128186055527" style="fill:none;stroke:black;stroke-width:1"/>
<polygon points="11.858380222077686,8.861618406416127 11.692103301034493,8.835925068659337 11.92807587149688,7.171128186055527" style="fill:none;stroke:black;stroke-width:1"/>
<polygon points="10.97223824176057,7.214251323239092 11.145587841016052,7.186314476921282 11.067075094819266,8.722399052264905" style="fill:none;stroke:black;stroke-width:1"/>
<polygon points="11.29183605119861,8.766847354015182 11.145587841016052,7.186314476921282 11.31374705994677,7.1671950093527155" style="fill:none;stroke:black;stroke-width:1"/>
<polygon points="11.145587841016052,7.186314476921282 11.29183605119861,8.766847354015182 11.067075094819266,8.722399052264905" style="fill:none;stroke:black;stroke-width:1"/>
<polygon points="11.31374705994677,7.1671950093527155 11.145587841016052,7.186314476921282 18.21840869880004,3.3654658508566495" style="fill:none;stroke:black;stroke-width:1"/>
<polygon points="11.145587841016052,7.186314476921282 10.97223824176057,7.214251323239092 18.21840869880004,3.3654658508566495" style="fill:none;stroke:black;stroke-width:1"/>
<polygon points="10.097983961195519,8.133278419751818 10.200140769811942,8.343389439045149 14.644179046954264,5.009639753654195" style="fill:none;stroke:black;stroke-width:1"/>
<polygon points="10.075170657873777,7.897995957124139 10.097983961195519,8.133278419751818 14.644179046954264,5.009639753654195" style="fill:none;stroke:black;stroke-width:1"/>
<polygon points="10.097983961195519,8.133278419751818 10.075170657873777,7.897995957124139 10.200140769811942,8.343389439045149" style="fill:none;stroke:black;stroke-width:1"/>
<polygon points="10.369239602160311,8.509186126723868 10.592758620689654,8.612068965517242 15.520697832230454,8.65750906313126" style="fill:none;stroke:black;stroke-width:1"/>
<polygon points="10.592758620689654,8.612068965517242 12.58243150940752,9.254546757103219 15.520697832230454,8.65750906313126" style="fill:none;stroke:black;stroke-width:1"/>
<polygon points="10.592758620689654,8.612068965517242 10.369239602160311,8.509186126723868 10.255491181523851,7.494567888684954" style="fill:none;stroke:black;stroke-width:1"/>
<polygon points="10.592758620689654,8.612068965517242 11.858380222077686,8.861618406416127 12.58243150940752,9.254546757103219" style="fill:none;stroke:black;stroke-width:1"/>
<polygon points="11.858380222077686,8.861618406416127 10.592758620689654,8.612068965517242 11.692103301034493,8.835925068659337" style="fill:none;stroke:black;stroke-width:1"/>
<polygon points="10.075170657873777,7.897995957124139 10.13270373284852,7.676780390554592 10.200140769811942,8.343389439045149" style="fill:none;stroke:black;stroke-width:1"/>
<polygon points="10.13270373284852,7.676780390554592 10.369239602160311,8.509186126723868 10.200140769811942,8.343389439045149" style="fill:none;stroke:black;stroke-width:1"/>
<polygon points="10.369239602160311,8.509186126723868 10.13270373284852,7.676780390554592 10.255491181523851,7.494567888684954" style="fill:none;stroke:black;stroke-width:1"/>
<polygon points="10.13270373284852,7.676780390554592 10.075170657873777,7.897995957124139 16.272766294506106,3.5790818733648204" style="fill:none;stroke:black;stroke-width:1"/>
<polygon points="16.197552978256944,3.9603622059796995 10.13270373284852,7.676780390554592 16.272766294506106,3.5790818733648204" style="fill:none;stroke:black;stroke-width:1"/>
<polygon points="10.255491181523851,7.494567888684954 10.13270373284852,7.676780390554592 16.197552978256944,3.9603622059796995" style="fill:none;stroke:black;stroke-width:1"/>
<polygon points="19.181760535022363,20.366405414922824 16.271022055563783,20.33409414059082 19.134860388785285,10.609488786418277" style="fill:none;stroke:black;stroke-width:1"/>
<polygon points="20.079850459877463,15.693297849480249 16.158378343266314,24.11554985371684 19.134860388785285,10.609488786418277" style="fill:none;stroke:black;stroke-width:1"/>
<polygon points="16.158378343266314,24.11554985371684 13.402437762220318,23.026560985489954 19.134860388785285,10.609488786418277" style="fill:none;stroke:black;stroke-width:1"/>
<polygon points="19.18751809507208,23.518366057413388 19.36018545414579,23.600841264560408 15.956034584887995,15.827918386302926" style="fill:none;stroke:black;stroke-width:1"/>
<polygon points="18.934860315605274,23.24358531558201 19.043476231192773,23.396779094853596 15.956034584887995,15.827918386302926" style="fill:none;stroke:black;stroke-width:1"/>
<polygon points="19.043476231192773,23.396779094853596 19.18751809507208,23.518366057413388 15.956034584887995,15.827918386302926" style="fill:none;stroke:black;stroke-width:1"/>
<polygon points="19.18751809507208,23.518366057413388 19.043476231192773,23.396779094853596 18.95256065931204,22.51750219294753" style="fill:none;stroke:black;stroke-width:1"/>
<polygon points="18.882350947929687,22.687976060310305 14.96976593015178,13.770697713978619 18.95256065931204,22.51750219294753" style="fill:none;stroke:black;stroke-width:1"/>
<polygon points="18.882350947929687,22.687976060310305 18.850695970697743,22.87514885040557 14.96976593015178,13.770697713978619" style="fill:none;stroke:black;stroke-width:1"/>
<polygon points="18.850695970697743,22.87514885040557 18.882350947929687,22.687976060310305 18.934860315605274,23.24358531558201" style="fill:none;stroke:black;stroke-width:1"/>
<polygon points="19.043476231192773,23.396779094853596 18.882350947929687,22.687976060310305 18.95256065931204,22.51750219294753" style="fill:none;stroke:black;stroke-width:1"/>
<polygon points="18.882350947929687,22.687976060310305 19.043476231192773,23.396779094853596 18.934860315605274,23.24358531558201" style="fill:none;stroke:black;stroke-width:1"/>
<polygon points="18.868470801406957,23.06628965829963 18.934860315605274,23.24358531558201 14.96976593015178,13.770697713978619" style="fill:none;stroke:black;stroke-width:1"/>
<polygon points="18.850695970697743,22.87514885040557 18.868470801406957,23.06628965829963 14.96976593015178,13.770697713978619" style="fill:none;stroke:black;stroke-width:1"/>
<polygon points="18.868470801406957,23.06628965829963 18.850695970697743,22.87514885040557 18.934860315605274,23.24358531558201" style="fill:none;stroke:black;stroke-width:1"/>
<polygon points="20.34481022287015,21.381814328255253 20.949819039387204,23.117561303370593 20.200496850271684,21.458822402188577" style="fill:none;stroke:black;stroke-width:1"/>
<polygon points="20.50424061147964,21.316180799401984 20.34481022287015,21.381814328255253 10.146072859658704,14.873322844791904" style="fill:none;stroke:black;stroke-width:1"/>
<polygon points="21.065013766796504,23.03148114554598 20.34481022287015,21.381814328255253 20.50424061147964,21.316180799401984" style="fill:none;stroke:black;stroke-width:1"/>
<polygon points="20.949819039387204,23.117561303370593 20.34481022287015,21.381814328255253 21.065013766796504,23.03148114554598" style="fill:none;stroke:black;stroke-width:1"/>
<polygon points="21.29540322161511,22.85932082989675 20.858377695664053,21.22659343273634 21.410597949024414,22.773240672072134" style="fill:none;stroke:black;stroke-width:1"/>
<polygon points="20.676269330833243,21.26381082957895 20.858377695664053,21.22659343273634 21.29540322161511,22.85932082989675" style="fill:none;stroke:black;stroke-width:1"/>
<polygon points="9.726025428118,20.693872566765318 20.858377695664053,21.22659343273634 9.388431524798182,17.709954530680832" style="fill:none;stroke:black;stroke-width:1"/>
<polygon points="20.858377695664053,21.22659343273634 20.676269330833243,21.26381082957895 9.388431524798182,17.709954530680832" style="fill:none;stroke:black;stroke-width:1"/>
<polygon points="11.124121318637298,23.266091334136355 13.346580818706725,25.150901353722297 21.431840167461377,21.23499629733218" style="fill:none;stroke:black;stroke-width:1"/>
<polygon points="13.346580818706725,25.150901353722297 16.162417574936065,26.118176632473872 21.431840167461377,21.23499629733218" style="fill:none;stroke:black;stroke-width:1"/>
<polygon points="21.604644266855512,21.317261428644365 19.273582864998353,25.958127292488925 21.957071657082757,24.718568001353415" style="fill:none;stroke:black;stroke-width:1"/>
<polygon points="16.162417574936065,26.118176632473872 19.273582864998353,25.958127292488925 21.604644266855512,21.317261428644365" style="fill:none;stroke:black;stroke-width:1"/>
<polygon points="20.34481022287015,21.381814328255253 11.831156096347627,12.596262028530782 10.146072859658704,14.873322844791904" style="fill:none;stroke:black;stroke-width:1"/>
<polygon points="11.831156096347627,12.596262028530782 20.34481022287015,21.381814328255253 20.200496850271684,21.458822402188577" style="fill:none;stroke:black;stroke-width:1"/>
<polygon points="20.073819178951144,21.545316007251778 11.831156096347627,12.596262028530782 20.200496850271684,21.458822402188577" style="fill:none;stroke:black;stroke-width:1"/>
<polygon points="14.258440732129786,11.108497649109564 11.831156096347627,12.596262028530782 20.073819178951144,21.545316007251778" style="fill:none;stroke:black;stroke-width:1"/>
<polygon points="20.28989560520802,23.522079440572497 20.118620430363368,23.575027078659716 19.613017259761385,21.889699042323834" style="fill:none;stroke:black;stroke-width:1"/>
<polygon points="19.72821198717069,21.803618884499215 20.28989560520802,23.522079440572497 19.613017259761385,21.889699042323834" style="fill:none;stroke:black;stroke-width:1"/>
<polygon points="20.28989560520802,23.522079440572497 19.72821198717069,21.803618884499215 20.44865406723466,23.455639761934954" style="fill:none;stroke:black;stroke-width:1"/>
<polygon points="20.28989560520802,23.522079440572497 20.44865406723466,23.455639761934954 17.88677940289822,16.395086741370402" style="fill:none;stroke:black;stroke-width:1"/>
<polygon points="20.118620430363368,23.575027078659716 20.28989560520802,23.522079440572497 17.88677940289822,16.395086741370402" style="fill:none;stroke:black;stroke-width:1"/>
<polygon points="13.114080793754228,22.263583178827854 15.42367097484843,10.694508380519984 15.643100506637552,10.075139765074699" style="fill:none;stroke:black;stroke-width:1"/>
<polygon points="13.136826117007839,22.317536079394586 13.114080793754228,22.263583178827854 15.643100506637552,10.075139765074699" style="fill:none;stroke:black;stroke-width:1"/>
<polygon points="11.82599220817956,22.981882225481833 11.814746895716116,23.028975143772662 14.96976593015178,13.770697713978619" style="fill:none;stroke:black;stroke-width:1"/>
<polygon points="12.898721297666665,7.580565916411961 12.754311827602464,7.462705380792546 19.597963439657256,5.254081488228814" style="fill:none;stroke:black;stroke-width:1"/>
<polygon points="13.037184670843907,7.723237734586954 12.898721297666665,7.580565916411961 19.597963439657256,5.254081488228814" style="fill:none;stroke:black;stroke-width:1"/>
<polygon points="13.278277776594805,8.084343378019769 13.165760536134915,7.891781245167724 19.597963439657256,5.254081488228814" style="fill:none;stroke:black;stroke-width:1"/>
<polygon points="13.365526273759288,8.295959491721062 13.278277776594805,8.084343378019769 19.597963439657256,5.254081488228814" style="fill:none;stroke:black;stroke-width:1"/>
<polygon points="12.195772456120665,7.215907484232443 11.996716100300556,8.884509252524154 12.065479993109927,7.190273556846665" style="fill:none;stroke:black;stroke-width:1"/>
<polygon points="11.996716100300556,8.884509252524154 11.858380222077686,8.861618406416127 12.065479993109927,7.190273556846665" style="fill:none;stroke:black;stroke-width:1"/>
<polygon points="11.996716100300556,8.884509252524154 12.195772456120665,7.215907484232443 12.324822692741929,7.247387349048969" style="fill:none;stroke:black;stroke-width:1"/>
<polygon points="11.858380222077686,8.861618406416127 11.996716100300556,8.884509252524154 12.58243150940752,9.254546757103219" style="fill:none;stroke:black;stroke-width:1"/>
<polygon points="10.83300159942891,8.670266877270087 10.97223824176057,7.214251323239092 11.067075094819266,8.722399052264905" style="fill:none;stroke:black;stroke-width:1"/>
<polygon points="10.97223824176057,7.214251323239092 10.83300159942891,8.670266877270087 10.794018475226588,7.2513936853319105" style="fill:none;stroke:black;stroke-width:1"/>
<polygon points="11.501717015339242,8.804512038669507 10.83300159942891,8.670266877270087 11.067075094819266,8.722399052264905" style="fill:none;stroke:black;stroke-width:1"/>
<polygon points="11.692103301034493,8.835925068659337 10.83300159942891,8.670266877270087 11.501717015339242,8.804512038669507" style="fill:none;stroke:black;stroke-width:1"/>
<polygon points="10.592758620689654,8.612068965517242 10.83300159942891,8.670266877270087 11.692103301034493,8.835925068659337" style="fill:none;stroke:black;stroke-width:1"/>
<polygon points="10.794018475226588,7.2513936853319105 10.611248754460359,7.2981297002255054 16.197552978256944,3.9603622059796995" style="fill:none;stroke:black;stroke-width:1"/>
<polygon points="10.83300159942891,8.670266877270087 10.611248754460359,7.2981297002255054 10.794018475226588,7.2513936853319105" style="fill:none;stroke:black;stroke-width:1"/>
<polygon points="10.611248754460359,7.2981297002255054 10.83300159942891,8.670266877270087 10.592758620689654,8.612068965517242" style="fill:none;stroke:black;stroke-width:1"/>
<polygon points="15.46251014823276,11.24040154572447 20.89389266226352,18.19198267515065 19.134860388785285,10.609488786418277" style="fill:none;stroke:black;stroke-width:1"/>
<polygon points="20.89389266226352,18.19198267515065 19.181760535022363,20.366405414922824 19.134860388785285,10.609488786418277" style="fill:none;stroke:black;stroke-width:1"/>
<polygon points="17.76580909840671,14.248541070965375 20.079850459877463,15.693297849480249 19.134860388785285,10.609488786418277" style="fill:none;stroke:black;stroke-width:1"/>
<polygon points="15.20532315764697,15.307535415512286 17.76580909840671,14.248541070965375 19.134860388785285,10.609488786418277" style="fill:none;stroke:black;stroke-width:1"/>
<polygon points="16.271022055563783,20.33409414059082 14.515486035722919,18.071132897144754 19.134860388785285,10.609488786418277" style="fill:none;stroke:black;stroke-width:1"/>
<polygon points="14.515486035722919,18.071132897144754 15.20532315764697,15.307535415512286 19.134860388785285,10.609488786418277" style="fill:none;stroke:black;stroke-width:1"/>
<polygon points="12.46280542925328,17.894896465833405 13.746530418850194,19.723087225615167 17.623647738568195,10.00247441843129" style="fill:none;stroke:black;stroke-width:1"/>
<polygon points="10.316281567858008,18.258433962501062 12.46280542925328,17.894896465833405 17.623647738568195,10.00247441843129" style="fill:none;stroke:black;stroke-width:1"/>
<polygon points="13.402437762220318,23.026560985489954 11.359522559186512,20.978841211168763 17.623647738568195,10.00247441843129" style="fill:none;stroke:black;stroke-width:1"/>
<polygon points="11.359522559186512,20.978841211168763 10.316281567858008,18.258433962501062 17.623647738568195,10.00247441843129" style="fill:none;stroke:black;stroke-width:1"/>
<polygon points="19.747712990001546,23.633004242121928 19.554771457061662,23.63620689655172 19.267433077533475,22.147939515797678" style="fill:none;stroke:black;stroke-width:1"/>
<polygon points="19.554771457061662,23.63620689655172 19.15095462225724,22.243205578020707 19.267433077533475,22.147939515797678" style="fill:none;stroke:black;stroke-width:1"/>
<polygon points="19.554771457061662,23.63620689655172 19.747712990001546,23.633004242121928 15.956034584887995,15.827918386302926" style="fill:none;stroke:black;stroke-width:1"/>
<polygon points="19.36018545414579,23.600841264560408 19.554771457061662,23.63620689655172 15.956034584887995,15.827918386302926" style="fill:none;stroke:black;stroke-width:1"/>
<polygon points="19.554771457061662,23.63620689655172 19.36018545414579,23.600841264560408 19.18751809507208,23.518366057413388" style="fill:none;stroke:black;stroke-width:1"/>
<polygon points="20.858377695664053,21.22659343273634 21.048047020705162,21.206417622824333 21.410597949024414,22.773240672072134" style="fill:none;stroke:black;stroke-width:1"/>
<polygon points="21.525792676433717,22.687160514247516 21.048047020705162,21.206417622824333 21.242758620689656,21.205172413793104" style="fill:none;stroke:black;stroke-width:1"/>
<polygon points="21.048047020705162,21.206417622824333 21.525792676433717,22.687160514247516 21.410597949024414,22.773240672072134" style="fill:none;stroke:black;stroke-width:1"/>
<polygon points="21.048047020705162,21.206417622824333 9.726025428118,20.693872566765318 21.242758620689656,21.205172413793104" style="fill:none;stroke:black;stroke-width:1"/>
<polygon points="21.048047020705162,21.206417622824333 20.858377695664053,21.22659343273634 9.726025428118,20.693872566765318" style="fill:none;stroke:black;stroke-width:1"/>
<polygon points="13.147477182391231,22.368719572279826 13.136826117007839,22.317536079394586 15.643100506637552,10.075139765074699" style="fill:none;stroke:black;stroke-width:1"/>
<polygon points="17.283615582682394,10.643125108640817 13.125987564764449,22.50164724622575 15.643100506637552,10.075139765074699" style="fill:none;stroke:black;stroke-width:1"/>
<polygon points="13.125987564764449,22.50164724622575 13.137232877227895,22.454554327934925 15.643100506637552,10.075139765074699" style="fill:none;stroke:black;stroke-width:1"/>
<polygon points="12.80467043854857,22.041739379447677 12.707257661595788,22.031955193207715 15.42367097484843,10.694508380519984" style="fill:none;stroke:black;stroke-width:1"/>
<polygon points="12.707257661595788,22.031955193207715 12.605143888236228,22.040166600343095 15.42367097484843,10.694508380519984" style="fill:none;stroke:black;stroke-width:1"/>
<polygon points="12.501687493857833,22.066929433254202 12.400115333648293,22.11272722049947 15.42367097484843,10.694508380519984" style="fill:none;stroke:black;stroke-width:1"/>
<polygon points="12.605143888236228,22.040166600343095 12.501687493857833,22.066929433254202 15.42367097484843,10.694508380519984" style="fill:none;stroke:black;stroke-width:1"/>
<polygon points="11.861686218742353,22.862439132501578 11.841289551370025,22.92617830357513 14.96976593015178,13.770697713978619" style="fill:none;stroke:black;stroke-width:1"/>
<polygon points="11.841289551370025,22.92617830357513 11.82599220817956,22.981882225481833 14.96976593015178,13.770697713978619" style="fill:none;stroke:black;stroke-width:1"/>
<polygon points="19.554771457061662,23.63620689655172 19.043843165403157,22.367707162464818 19.15095462225724,22.243205578020707" style="fill:none;stroke:black;stroke-width:1"/>
<polygon points="19.043843165403157,22.367707162464818 19.18751809507208,23.518366057413388 18.95256065931204,22.51750219294753" style="fill:none;stroke:black;stroke-width:1"/>
<polygon points="19.043843165403157,22.367707162464818 19.554771457061662,23.63620689655172 19.18751809507208,23.518366057413388" style="fill:none;stroke:black;stroke-width:1"/>
<polygon points="11.814746895716116,23.028975143772662 11.805601955346734,23.06928377137863 18.95256065931204,22.51750219294753" style="fill:none;stroke:black;stroke-width:1"/>
<polygon points="11.805601955346734,23.06928377137863 19.043843165403157,22.367707162464818 18.95256065931204,22.51750219294753" style="fill:none;stroke:black;stroke-width:1"/>
<polygon points="19.043843165403157,22.367707162464818 11.805601955346734,23.06928377137863 11.80474381553132,23.115367457976227" style="fill:none;stroke:black;stroke-width:1"/>
<polygon points="11.922663588474933,23.327545500946037 19.38262780494278,22.061859357973063 19.267433077533475,22.147939515797678" style="fill:none;stroke:black;stroke-width:1"/>
<polygon points="12.46342093947472,7.297176509132932 12.118729751132966,8.916916658857724 12.324822692741929,7.247387349048969" style="fill:none;stroke:black;stroke-width:1"/>
<polygon points="12.118729751132966,8.916916658857724 11.996716100300556,8.884509252524154 12.324822692741929,7.247387349048969" style="fill:none;stroke:black;stroke-width:1"/>
<polygon points="11.996716100300556,8.884509252524154 12.118729751132966,8.916916658857724 12.58243150940752,9.254546757103219" style="fill:none;stroke:black;stroke-width:1"/>
<polygon points="10.426152952955672,7.365703645403144 10.592758620689654,8.612068965517242 10.255491181523851,7.494567888684954" style="fill:none;stroke:black;stroke-width:1"/>
<polygon points="10.426152952955672,7.365703645403144 10.611248754460359,7.2981297002255054 10.592758620689654,8.612068965517242" style="fill:none;stroke:black;stroke-width:1"/>
<polygon points="10.426152952955672,7.365703645403144 10.255491181523851,7.494567888684954 16.197552978256944,3.9603622059796995" style="fill:none;stroke:black;stroke-width:1"/>
<polygon points="10.611248754460359,7.2981297002255054 10.426152952955672,7.365703645403144 16.197552978256944,3.9603622059796995" style="fill:none;stroke:black;stroke-width:1"/>
<polygon points="13.137232877227895,22.454554327934925 13.146388574722145,22.41444206130729 15.643100506637552,10.075139765074699" style="fill:none;stroke:black;stroke-width:1"/>
<polygon points="13.146388574722145,22.41444206130729 13.147477182391231,22.368719572279826 15.643100506637552,10.075139765074699" style="fill:none;stroke:black;stroke-width:1"/>
<polygon points="13.110690221573986,22.557351168132453 17.283615582682394,10.643125108640817 13.09029355420166,22.621090339206013" style="fill:none;stroke:black;stroke-width:1"/>
<polygon points="13.110690221573986,22.557351168132453 13.125987564764449,22.50164724622575 17.283615582682394,10.643125108640817" style="fill:none;stroke:black;stroke-width:1"/>
<polygon points="12.893902422656742,22.06887510910606 12.80467043854857,22.041739379447677 15.42367097484843,10.694508380519984" style="fill:none;stroke:black;stroke-width:1"/>
<polygon points="12.969480318683377,22.10979366362168 12.893902422656742,22.06887510910606 15.42367097484843,10.694508380519984" style="fill:none;stroke:black;stroke-width:1"/>
<polygon points="13.030823215724343,22.157388959040702 12.969480318683377,22.10979366362168 15.42367097484843,10.694508380519984" style="fill:none;stroke:black;stroke-width:1"/>
<polygon points="11.921549354727686,22.713780585594456 11.88814908436285,22.79136718738956 14.911516261143202,12.1229888041824" style="fill:none;stroke:black;stroke-width:1"/>
<polygon points="11.962648829315999,22.6306001844992 11.921549354727686,22.713780585594456 14.911516261143202,12.1229888041824" style="fill:none;stroke:black;stroke-width:1"/>
<polygon points="12.070375384679817,22.45156658800805 12.012087886557044,22.542835059043256 14.911516261143202,12.1229888041824" style="fill:none;stroke:black;stroke-width:1"/>
<polygon points="12.012087886557044,22.542835059043256 11.962648829315999,22.6306001844992 14.911516261143202,12.1229888041824" style="fill:none;stroke:black;stroke-width:1"/>
<polygon points="12.400115333648293,22.11272722049947 12.303514717596792,22.17798824078475 14.911516261143202,12.1229888041824" style="fill:none;stroke:black;stroke-width:1"/>
<polygon points="12.303514717596792,22.17798824078475 12.214827586206898,22.263103448275864 14.911516261143202,12.1229888041824" style="fill:none;stroke:black;stroke-width:1"/>
<polygon points="12.137880636714812,22.35793140002757 12.070375384679817,22.45156658800805 14.911516261143202,12.1229888041824" style="fill:none;stroke:black;stroke-width:1"/>
<polygon points="12.214827586206898,22.263103448275864 12.137880636714812,22.35793140002757 14.911516261143202,12.1229888041824" style="fill:none;stroke:black;stroke-width:1"/>
<polygon points="19.15095462225724,22.243205578020707 11.874241558482629,23.27540952839437 19.267433077533475,22.147939515797678" style="fill:none;stroke:black;stroke-width:1"/>
<polygon points="11.874241558482629,23.27540952839437 11.922663588474933,23.327545500946037 19.267433077533475,22.147939515797678" style="fill:none;stroke:black;stroke-width:1"/>
<polygon points="19.38262780494278,22.061859357973063 11.984408920800593,23.37520331366026 19.49782253235208,21.975779200148448" style="fill:none;stroke:black;stroke-width:1"/>
<polygon points="11.922663588474933,23.327545500946037 11.984408920800593,23.37520331366026 19.38262780494278,22.061859357973063" style="fill:none;stroke:black;stroke-width:1"/>
<polygon points="19.49782253235208,21.975779200148448 11.984408920800593,23.37520331366026 19.613017259761385,21.889699042323834" style="fill:none;stroke:black;stroke-width:1"/>
<polygon points="12.22913602113628,8.957556479154825 12.46342093947472,7.297176509132932 12.607897846316693,7.368595715706832" style="fill:none;stroke:black;stroke-width:1"/>
<polygon points="12.22913602113628,8.957556479154825 12.118729751132966,8.916916658857724 12.46342093947472,7.297176509132932" style="fill:none;stroke:black;stroke-width:1"/>
<polygon points="12.22913602113628,8.957556479154825 12.607897846316693,7.368595715706832 12.754311827602464,7.462705380792546" style="fill:none;stroke:black;stroke-width:1"/>
<polygon points="12.118729751132966,8.916916658857724 12.22913602113628,8.957556479154825 12.58243150940752,9.254546757103219" style="fill:none;stroke:black;stroke-width:1"/>
<polygon points="13.114080793754228,22.263583178827854 13.07887720391816,22.209402678242178 15.42367097484843,10.694508380519984" style="fill:none;stroke:black;stroke-width:1"/>
<polygon points="13.07887720391816,22.209402678242178 13.030823215724343,22.157388959040702 15.42367097484843,10.694508380519984" style="fill:none;stroke:black;stroke-width:1"/>
<polygon points="19.043843165403157,22.367707162464818 11.815659742254589,23.16685241237662 19.15095462225724,22.243205578020707" style="fill:none;stroke:black;stroke-width:1"/>
<polygon points="11.815659742254589,23.16685241237662 19.043843165403157,22.367707162464818 11.80474381553132,23.115367457976227" style="fill:none;stroke:black;stroke-width:1"/>
<polygon points="12.060102078057795,23.41645348273972 19.72821198717069,21.803618884499215 19.613017259761385,21.889699042323834" style="fill:none;stroke:black;stroke-width:1"/>
<polygon points="11.984408920800593,23.37520331366026 12.060102078057795,23.41645348273972 19.613017259761385,21.889699042323834" style="fill:none;stroke:black;stroke-width:1"/>
<polygon points="19.72821198717069,21.803618884499215 12.060102078057795,23.41645348273972 19.84340671457999,21.717538726674604" style="fill:none;stroke:black;stroke-width:1"/>
<polygon points="12.898721297666665,7.580565916411961 12.327231334615956,9.005580283901454 12.754311827602464,7.462705380792546" style="fill:none;stroke:black;stroke-width:1"/>
<polygon points="12.327231334615956,9.005580283901454 12.22913602113628,8.957556479154825 12.754311827602464,7.462705380792546" style="fill:none;stroke:black;stroke-width:1"/>
<polygon points="12.22913602113628,8.957556479154825 12.327231334615956,9.005580283901454 12.58243150940752,9.254546757103219" style="fill:none;stroke:black;stroke-width:1"/>
<polygon points="11.83870432033428,23.22104703840352 11.874241558482629,23.27540952839437 19.15095462225724,22.243205578020707" style="fill:none;stroke:black;stroke-width:1"/>
<polygon points="11.815659742254589,23.16685241237662 11.83870432033428,23.22104703840352 19.15095462225724,22.243205578020707" style="fill:none;stroke:black;stroke-width:1"/>
<polygon points="12.148326845154939,23.44443385971838 20.073819178951144,21.545316007251778 19.95860144198929,21.631458568849986" style="fill:none;stroke:black;stroke-width:1"/>
<polygon points="20.073819178951144,21.545316007251778 12.148326845154939,23.44443385971838 12.24491556992469,23.454451006160525" style="fill:none;stroke:black;stroke-width:1"/>
<polygon points="19.84340671457999,21.717538726674604 12.148326845154939,23.44443385971838 19.95860144198929,21.631458568849986" style="fill:none;stroke:black;stroke-width:1"/>
<polygon points="12.060102078057795,23.41645348273972 12.148326845154939,23.44443385971838 19.84340671457999,21.717538726674604" style="fill:none;stroke:black;stroke-width:1"/>
<polygon points="12.412312115877455,9.06013964358361 12.898721297666665,7.580565916411961 13.037184670843907,7.723237734586954" style="fill:none;stroke:black;stroke-width:1"/>
<polygon points="12.412312115877455,9.06013964358361 12.327231334615956,9.005580283901454 12.898721297666665,7.580565916411961" style="fill:none;stroke:black;stroke-width:1"/>
<polygon points="12.412312115877455,9.06013964358361 13.037184670843907,7.723237734586954 13.165760536134915,7.891781245167724" style="fill:none;stroke:black;stroke-width:1"/>
<polygon points="12.327231334615956,9.005580283901454 12.540615778967776,9.185471309698496 12.58243150940752,9.254546757103219" style="fill:none;stroke:black;stroke-width:1"/>
<polygon points="12.412312115877455,9.06013964358361 12.540615778967776,9.185471309698496 12.327231334615956,9.005580283901454" style="fill:none;stroke:black;stroke-width:1"/>
<polygon points="12.540615778967776,9.185471309698496 13.365526273759288,8.295959491721062 12.58243150940752,9.254546757103219" style="fill:none;stroke:black;stroke-width:1"/>
<polygon points="12.540615778967776,9.185471309698496 13.278277776594805,8.084343378019769 13.365526273759288,8.295959491721062" style="fill:none;stroke:black;stroke-width:1"/>
<polygon points="13.278277776594805,8.084343378019769 12.483674789226242,9.120386128687292 13.165760536134915,7.891781245167724" style="fill:none;stroke:black;stroke-width:1"/>
<polygon points="12.540615778967776,9.185471309698496 12.483674789226242,9.120386128687292 13.278277776594805,8.084343378019769" style="fill:none;stroke:black;stroke-width:1"/>
<polygon points="12.483674789226242,9.120386128687292 12.412312115877455,9.06013964358361 13.165760536134915,7.891781245167724" style="fill:none;stroke:black;stroke-width:1"/>
<polygon points="12.483674789226242,9.120386128687292 12.540615778967776,9.185471309698496 12.412312115877455,9.06013964358361" style="fill:none;stroke:black;stroke-width:1"/>
<polygon points="12.881604388264192,23.03196288369954 21.83143615383765,22.330116753659752 12.8140991362292,23.125598071680017" style="fill:none;stroke:black;stroke-width:1"/>
<polygon points="12.8140991362292,23.125598071680017 21.83143615383765,22.330116753659752 19.533572237410283,24.111616571813226" style="fill:none;stroke:black;stroke-width:1"/>
<polygon points="12.551893440296226,23.372072617395347 22.29525143980694,12.925653448435764 20.024620450129643,11.305664551856676" style="fill:none;stroke:black;stroke-width:1"/>
<polygon points="12.551893440296226,23.372072617395347 20.024620450129643,11.305664551856676 12.449870611782636,23.41865357741556" style="fill:none;stroke:black;stroke-width:1"/>
<polygon points="23.801398228227583,15.270794429940734 12.551893440296226,23.372072617395347 12.649715206697653,23.305976429785797" style="fill:none;stroke:black;stroke-width:1"/>
<polygon points="12.551893440296226,23.372072617395347 23.801398228227583,15.270794429940734 22.29525143980694,12.925653448435764" style="fill:none;stroke:black;stroke-width:1"/>
<polygon points="17.21952349872222,10.639628688437906 12.346509326929732,23.4459973601721 12.449870611782636,23.41865357741556" style="fill:none;stroke:black;stroke-width:1"/>
<polygon points="20.024620450129643,11.305664551856676 17.21952349872222,10.639628688437906 12.449870611782636,23.41865357741556" style="fill:none;stroke:black;stroke-width:1"/>
<polygon points="12.346509326929732,23.4459973601721 17.21952349872222,10.639628688437906 12.24491556992469,23.454451006160525" style="fill:none;stroke:black;stroke-width:1"/>
<polygon points="17.21952349872222,10.639628688437906 14.258440732129786,11.108497649109564 12.24491556992469,23.454451006160525" style="fill:none;stroke:black;stroke-width:1"/>
<polygon points="19.273582864998353,25.958127292488925 24.309310344827587,18.10448275862069 21.957071657082757,24.718568001353415" style="fill:none;stroke:black;stroke-width:1"/>
<polygon points="24.309310344827587,18.10448275862069 9.388431524798182,17.709954530680832 10.146072859658704,14.873322844791904" style="fill:none;stroke:black;stroke-width:1"/>
<polygon points="20.550380900699757,18.783449309969406 24.309310344827587,18.10448275862069 22.504583664032936,18.315463209297782" style="fill:none;stroke:black;stroke-width:1"/>
<polygon points="24.309310344827587,18.10448275862069 9.726025428118,20.693872566765318 9.388431524798182,17.709954530680832" style="fill:none;stroke:black;stroke-width:1"/>
<polygon points="24.309310344827587,18.10448275862069 20.74196743107079,15.50477181886886 22.089441275590467,18.06359175599376" style="fill:none;stroke:black;stroke-width:1"/>
<polygon points="24.309310344827587,18.10448275862069 23.816038567102584,15.231154473326171 21.95479080283413,13.079221214697967" style="fill:none;stroke:black;stroke-width:1"/>
<polygon points="24.309310344827587,18.10448275862069 15.46251014823276,11.24040154572447 13.077708301723943,12.839296158829582" style="fill:none;stroke:black;stroke-width:1"/>
<polygon points="19.32266718218299,11.835668238745018 24.309310344827587,18.10448275862069 21.95479080283413,13.079221214697967" style="fill:none;stroke:black;stroke-width:1"/>
<polygon points="24.309310344827587,18.10448275862069 17.21952349872222,10.639628688437906 20.024620450129643,11.305664551856676" style="fill:none;stroke:black;stroke-width:1"/>
<polygon points="24.385714083182947,17.680939273422926 24.309310344827587,18.10448275862069 22.089441275590467,18.06359175599376" style="fill:none;stroke:black;stroke-width:1"/>
<polygon points="18.205449762770314,14.186528789488271 24.309310344827587,18.10448275862069 15.460826315407116,14.949687367056288" style="fill:none;stroke:black;stroke-width:1"/>
<polygon points="11.518402291631558,15.289189222195862 24.309310344827587,18.10448275862069 13.077708301723943,12.839296158829582" style="fill:none;stroke:black;stroke-width:1"/>
<polygon points="24.309310344827587,18.10448275862069 14.02073446534056,17.31546478324986 15.460826315407116,14.949687367056288" style="fill:none;stroke:black;stroke-width:1"/>
<polygon points="24.309310344827587,18.10448275862069 16.158378343266314,24.11554985371684 20.079850459877463,15.693297849480249" style="fill:none;stroke:black;stroke-width:1"/>
<polygon points="24.309310344827587,18.10448275862069 13.346580818706725,25.150901353722297 11.124121318637298,23.266091334136355" style="fill:none;stroke:black;stroke-width:1"/>
<polygon points="24.309310344827587,18.10448275862069 16.03242715174332,21.340186346095557 13.746530418850194,19.723087225615167" style="fill:none;stroke:black;stroke-width:1"/>
<polygon points="24.309310344827587,18.10448275862069 23.25572190277171,19.755243394842743 22.504583664032936,18.315463209297782" style="fill:none;stroke:black;stroke-width:1"/>
<polygon points="21.83143615383765,22.330116753659752 24.309310344827587,18.10448275862069 19.533572237410283,24.111616571813226" style="fill:none;stroke:black;stroke-width:1"/>
<polygon points="24.309310344827587,18.10448275862069 23.94320024755637,22.625036492930317 21.957071657082757,24.718568001353415" style="fill:none;stroke:black;stroke-width:1"/>
<polygon points="20.74196743107079,15.50477181886886 24.309310344827587,18.10448275862069 18.205449762770314,14.186528789488271" style="fill:none;stroke:black;stroke-width:1"/>
<polygon points="24.309310344827587,18.10448275862069 11.518402291631558,15.289189222195862 11.605856979626996,17.462585725106926" style="fill:none;stroke:black;stroke-width:1"/>
<polygon points="14.02073446534056,17.31546478324986 24.309310344827587,18.10448275862069 11.605856979626996,17.462585725106926" style="fill:none;stroke:black;stroke-width:1"/>
<polygon points="11.831156096347627,12.596262028530782 24.309310344827587,18.10448275862069 10.146072859658704,14.873322844791904" style="fill:none;stroke:black;stroke-width:1"/>
<polygon points="24.309310344827587,18.10448275862069 20.89389266226352,18.19198267515065 15.46251014823276,11.24040154572447" style="fill:none;stroke:black;stroke-width:1"/>
<polygon points="9.726025428118,20.693872566765318 24.309310344827587,18.10448275862069 11.124121318637298,23.266091334136355" style="fill:none;stroke:black;stroke-width:1"/>
<polygon points="24.309310344827587,18.10448275862069 14.515486035722919,18.071132897144754 16.271022055563783,20.33409414059082" style="fill:none;stroke:black;stroke-width:1"/>
<polygon points="22.29525143980694,12.925653448435764 24.309310344827587,18.10448275862069 20.024620450129643,11.305664551856676" style="fill:none;stroke:black;stroke-width:1"/>
<polygon points="23.801398228227583,15.270794429940734 24.309310344827587,18.10448275862069 22.29525143980694,12.925653448435764" style="fill:none;stroke:black;stroke-width:1"/>
<polygon points="16.03242715174332,21.340186346095557 24.309310344827587,18.10448275862069 18.845550166132703,20.937223886076204" style="fill:none;stroke:black;stroke-width:1"/>
<polygon points="24.309310344827587,18.10448275862069 20.550380900699757,18.783449309969406 18.845550166132703,20.937223886076204" style="fill:none;stroke:black;stroke-width:1"/>
<polygon points="24.309310344827587,18.10448275862069 21.83143615383765,22.330116753659752 23.25572190277171,19.755243394842743" style="fill:none;stroke:black;stroke-width:1"/>
<polygon points="23.816038567102584,15.231154473326171 24.309310344827587,18.10448275862069 24.385714083182947,17.680939273422926" style="fill:none;stroke:black;stroke-width:1"/>
<polygon points="23.94320024755637,22.625036492930317 24.309310344827587,18.10448275862069 25.04469935207377,19.906737431849486" style="fill:none;stroke:black;stroke-width:1"/>
<polygon points="24.309310344827587,18.10448275862069 19.32266718218299,11.835668238745018 25.04469935207377,19.906737431849486" style="fill:none;stroke:black;stroke-width:1"/>
<polygon points="19.181760535022363,20.366405414922824 24.309310344827587,18.10448275862069 16.271022055563783,20.33409414059082" style="fill:none;stroke:black;stroke-width:1"/>
<polygon points="17.76580909840671,14.248541070965375 24.309310344827587,18.10448275862069 20.079850459877463,15.693297849480249" style="fill:none;stroke:black;stroke-width:1"/>
<polygon points="16.158378343266314,24.11554985371684 24.309310344827587,18.10448275862069 13.402437762220318,23.026560985489954" style="fill:none;stroke:black;stroke-width:1"/>
<polygon points="12.46280542925328,17.894896465833405 24.309310344827587,18.10448275862069 13.746530418850194,19.723087225615167" style="fill:none;stroke:black;stroke-width:1"/>
<polygon points="13.346580818706725,25.150901353722297 24.309310344827587,18.10448275862069 16.162417574936065,26.118176632473872" style="fill:none;stroke:black;stroke-width:1"/>
<polygon points="24.309310344827587,18.10448275862069 19.273582864998353,25.958127292488925 16.162417574936065,26.118176632473872" style="fill:none;stroke:black;stroke-width:1"/>
<polygon points="24.309310344827587,18.10448275862069 11.359522559186512,20.978841211168763 13.402437762220318,23.026560985489954" style="fill:none;stroke:black;stroke-width:1"/>
<polygon points="17.21952349872222,10.639628688437906 24.309310344827587,18.10448275862069 14.258440732129786,11.108497649109564" style="fill:none;stroke:black;stroke-width:1"/>
<polygon points="24.309310344827587,18.10448275862069 11.831156096347627,12.596262028530782 14.258440732129786,11.108497649109564" style="fill:none;stroke:black;stroke-width:1"/>
<polygon points="20.89389266226352,18.19198267515065 24.309310344827587,18.10448275862069 19.181760535022363,20.366405414922824" style="fill:none;stroke:black;stroke-width:1"/>
<polygon points="24.309310344827587,18.10448275862069 17.76580909840671,14.248541070965375 15.20532315764697,15.307535415512286" style="fill:none;stroke:black;stroke-width:1"/>
<polygon points="14.515486035722919,18.071132897144754 24.309310344827587,18.10448275862069 15.20532315764697,15.307535415512286" style="fill:none;stroke:black;stroke-width:1"/>
<polygon points="24.309310344827587,18.10448275862069 12.46280542925328,17.894896465833405 10.316281567858008,18.258433962501062" style="fill:none;stroke:black;stroke-width:1"/>
<polygon points="11.359522559186512,20.978841211168763 24.309310344827587,18.10448275862069 10.316281567858008,18.258433962501062" style="fill:none;stroke:black;stroke-width:1"/>
<polygon points="24.309310344827587,18.10448275862069 12.737336481498515,23.22063544538583 12.8140991362292,23.125598071680017" style="fill:none;stroke:black;stroke-width:1"/>
<polygon points="24.309310344827587,18.10448275862069 12.8140991362292,23.125598071680017 19.533572237410283,24.111616571813226" style="fill:none;stroke:black;stroke-width:1"/>
<polygon points="12.737336481498515,23.22063544538583 24.309310344827587,18.10448275862069 12.649715206697653,23.305976429785797" style="fill:none;stroke:black;stroke-width:1"/>
<polygon points="24.309310344827587,18.10448275862069 23.801398228227583,15.270794429940734 12.649715206697653,23.305976429785797" style="fill:none;stroke:black;stroke-width:1"/>
<polygon points="12.148326845154939,23.44443385971838 13.09029355420166,22.621090339206013 13.06383068858116,22.692162284318023" style="fill:none;stroke:black;stroke-width:1"/>
<polygon points="13.030430418216325,22.769748886113128 12.148326845154939,23.44443385971838 13.06383068858116,22.692162284318023" style="fill:none;stroke:black;stroke-width:1"/>
<polygon points="12.148326845154939,23.44443385971838 12.012087886557044,22.542835059043256 12.070375384679817,22.45156658800805" style="fill:none;stroke:black;stroke-width:1"/>
<polygon points="12.148326845154939,23.44443385971838 12.346509326929732,23.4459973601721 12.24491556992469,23.454451006160525" style="fill:none;stroke:black;stroke-width:1"/>
<polygon points="12.148326845154939,23.44443385971838 12.989330943628012,22.852929287208386 12.939891886386967,22.940694412664328" style="fill:none;stroke:black;stroke-width:1"/>
<polygon points="12.881604388264192,23.03196288369954 12.148326845154939,23.44443385971838 12.939891886386967,22.940694412664328" style="fill:none;stroke:black;stroke-width:1"/>
<polygon points="12.148326845154939,23.44443385971838 13.110690221573986,22.557351168132453 13.09029355420166,22.621090339206013" style="fill:none;stroke:black;stroke-width:1"/>
<polygon points="12.148326845154939,23.44443385971838 12.737336481498515,23.22063544538583 12.649715206697653,23.305976429785797" style="fill:none;stroke:black;stroke-width:1"/>
<polygon points="12.346509326929732,23.4459973601721 12.148326845154939,23.44443385971838 12.449870611782636,23.41865357741556" style="fill:none;stroke:black;stroke-width:1"/>
<polygon points="12.551893440296226,23.372072617395347 12.148326845154939,23.44443385971838 12.649715206697653,23.305976429785797" style="fill:none;stroke:black;stroke-width:1"/>
<polygon points="12.148326845154939,23.44443385971838 11.861686218742353,22.862439132501578 11.88814908436285,22.79136718738956" style="fill:none;stroke:black;stroke-width:1"/>
<polygon points="12.989330943628012,22.852929287208386 12.148326845154939,23.44443385971838 13.030430418216325,22.769748886113128" style="fill:none;stroke:black;stroke-width:1"/>
<polygon points="12.737336481498515,23.22063544538583 12.148326845154939,23.44443385971838 12.8140991362292,23.125598071680017" style="fill:none;stroke:black;stroke-width:1"/>
<polygon points="12.148326845154939,23.44443385971838 12.881604388264192,23.03196288369954 12.8140991362292,23.125598071680017" style="fill:none;stroke:black;stroke-width:1"/>
<polygon points="13.147477182391231,22.368719572279826 12.148326845154939,23.44443385971838 13.136826117007839,22.317536079394586" style="fill:none;stroke:black;stroke-width:1"/>
<polygon points="12.148326845154939,23.44443385971838 13.146388574722145,22.41444206130729 13.137232877227895,22.454554327934925" style="fill:none;stroke:black;stroke-width:1"/>
<polygon points="12.501687493857833,22.066929433254202 12.148326845154939,23.44443385971838 12.400115333648293,22.11272722049947" style="fill:none;stroke:black;stroke-width:1"/>
<polygon points="12.148326845154939,23.44443385971838 12.551893440296226,23.372072617395347 12.449870611782636,23.41865357741556" style="fill:none;stroke:black;stroke-width:1"/>
<polygon points="12.148326845154939,23.44443385971838 11.805601955346734,23.06928377137863 11.814746895716116,23.028975143772662" style="fill:none;stroke:black;stroke-width:1"/>
<polygon points="12.148326845154939,23.44443385971838 13.114080793754228,22.263583178827854 13.136826117007839,22.317536079394586" style="fill:none;stroke:black;stroke-width:1"/>
<polygon points="12.148326845154939,23.44443385971838 12.707257661595788,22.031955193207715 12.80467043854857,22.041739379447677" style="fill:none;stroke:black;stroke-width:1"/>
<polygon points="12.148326845154939,23.44443385971838 11.815659742254589,23.16685241237662 11.80474381553132,23.115367457976227" style="fill:none;stroke:black;stroke-width:1"/>
<polygon points="11.82599220817956,22.981882225481833 12.148326845154939,23.44443385971838 11.814746895716116,23.028975143772662" style="fill:none;stroke:black;stroke-width:1"/>
<polygon points="12.148326845154939,23.44443385971838 11.841289551370025,22.92617830357513 11.861686218742353,22.862439132501578" style="fill:none;stroke:black;stroke-width:1"/>
<polygon points="12.148326845154939,23.44443385971838 13.07887720391816,22.209402678242178 13.114080793754228,22.263583178827854" style="fill:none;stroke:black;stroke-width:1"/>
<polygon points="13.125987564764449,22.50164724622575 12.148326845154939,23.44443385971838 13.137232877227895,22.454554327934925" style="fill:none;stroke:black;stroke-width:1"/>
<polygon points="12.893902422656742,22.06887510910606 12.148326845154939,23.44443385971838 12.80467043854857,22.041739379447677" style="fill:none;stroke:black;stroke-width:1"/>
<polygon points="12.707257661595788,22.031955193207715 12.148326845154939,23.44443385971838 12.605143888236228,22.040166600343095" style="fill:none;stroke:black;stroke-width:1"/>
<polygon points="12.148326845154939,23.44443385971838 12.501687493857833,22.066929433254202 12.605143888236228,22.040166600343095" style="fill:none;stroke:black;stroke-width:1"/>
<polygon points="11.921549354727686,22.713780585594456 12.148326845154939,23.44443385971838 11.88814908436285,22.79136718738956" style="fill:none;stroke:black;stroke-width:1"/>
<polygon points="12.148326845154939,23.44443385971838 12.303514717596792,22.17798824078475 12.400115333648293,22.11272722049947" style="fill:none;stroke:black;stroke-width:1"/>
<polygon points="11.841289551370025,22.92617830357513 12.148326845154939,23.44443385971838 11.82599220817956,22.981882225481833" style="fill:none;stroke:black;stroke-width:1"/>
<polygon points="11.805601955346734,23.06928377137863 12.148326845154939,23.44443385971838 11.80474381553132,23.115367457976227" style="fill:none;stroke:black;stroke-width:1"/>
<polygon points="12.137880636714812,22.35793140002757 12.148326845154939,23.44443385971838 12.070375384679817,22.45156658800805" style="fill:none;stroke:black;stroke-width:1"/>
<polygon points="13.146388574722145,22.41444206130729 12.148326845154939,23.44443385971838 13.147477182391231,22.368719572279826" style="fill:none;stroke:black;stroke-width:1"/>
<polygon points="13.110690221573986,22.557351168132453 12.148326845154939,23.44443385971838 13.125987564764449,22.50164724622575" style="fill:none;stroke:black;stroke-width:1"/>
<polygon points="12.148326845154939,23.44443385971838 12.893902422656742,22.06887510910606 12.969480318683377,22.10979366362168" style="fill:none;stroke:black;stroke-width:1"/>
<polygon points="13.030823215724343,22.157388959040702 12.148326845154939,23.44443385971838 12.969480318683377,22.10979366362168" style="fill:none;stroke:black;stroke-width:1"/>
<polygon points="12.148326845154939,23.44443385971838 11.921549354727686,22.713780585594456 11.962648829315999,22.6306001844992" style="fill:none;stroke:black;stroke-width:1"/>
<polygon points="12.012087886557044,22.542835059043256 12.148326845154939,23.44443385971838 11.962648829315999,22.6306001844992" style="fill:none;stroke:black;stroke-width:1"/>
<polygon points="12.303514717596792,22.17798824078475 12.148326845154939,23.44443385971838 12.214827586206898,22.263103448275864" style="fill:none;stroke:black;stroke-width:1"/>
<polygon points="12.148326845154939,23.44443385971838 12.137880636714812,22.35793140002757 12.214827586206898,22.263103448275864" style="fill:none;stroke:black;stroke-width:1"/>
<polygon points="11.874241558482629,23.27540952839437 12.148326845154939,23.44443385971838 11.922663588474933,23.327545500946037" style="fill:none;stroke:black;stroke-width:1"/>
<polygon points="12.148326845154939,23.44443385971838 11.984408920800593,23.37520331366026 11.922663588474933,23.327545500946037" style="fill:none;stroke:black;stroke-width:1"/>
<polygon points="13.07887720391816,22.209402678242178 12.148326845154939,23.44443385971838 13.030823215724343,22.157388959040702" style="fill:none;stroke:black;stroke-width:1"/>
<polygon points="11.83870432033428,23.22104703840352 12.148326845154939,23.44443385971838 11.874241558482629,23.27540952839437" style="fill:none;stroke:black;stroke-width:1"/>
<polygon points="12.148326845154939,23.44443385971838 12.060102078057795,23.41645348273972 11.984408920800593,23.37520331366026" style="fill:none;stroke:black;stroke-width:1"/>
<polygon points="12.148326845154939,23.44443385971838 11.83870432033428,23.22104703840352 11.815659742254589,23.16685241237662" style="fill:none;stroke:black;stroke-width:1"/>
</svg>
