<?xml version="1.0" encoding="UTF-8" standalone="no"?>
<svg xmlns="http://www.w3.org/2000/svg" version="1.1" width="800" height="800">
<polygon points="19.589197470690493,6.730388005806765 19.29836607731833,4.404538947163092 19.75275587621486,6.684398112964989" style="fill:none;stroke:black;stroke-width:1"/>
<polygon points="17.72872371632779,4.050603545811085 17.66805214511487,4.207059842104362 17.643144253076304,4.372656088790077" style="fill:none;stroke:black;stroke-width:1"/>
<polygon points="18.1777636198588,5.420318662569892 20.06663622605114,5.53560333279751 20.154404959604687,5.686489604503574" style="fill:none;stroke:black;stroke-width:1"/>
<polygon points="17.9856960826756,5.137552566161287 7.073387073851716,9.90771327252496 19.87456868886794,5.252837236388905" style="fill:none;stroke:black;stroke-width:1"/>
<polygon points="18.65793246281681,6.127233903591403 18.85,6.41 19.490433614501534,4.687305043571696" style="fill:none;stroke:black;stroke-width:1"/>
<polygon points="17.66805214511487,4.207059842104362 18.85,6.41 17.643144253076304,4.372656088790077" style="fill:none;stroke:black;stroke-width:1"/>
<polygon points="18.85,6.41 18.65793246281681,6.127233903591403 17.643144253076304,4.372656088790077" style="fill:none;stroke:black;stroke-width:1"/>
<polygon points="19.586467383093137,4.828688091775998 18.753966231408413,6.268616951795705 19.490433614501534,4.687305043571696" style="fill:none;stroke:black;stroke-width:1"/>
<polygon points="18.753966231408413,6.268616951795705 18.65793246281681,6.127233903591403 19.490433614501534,4.687305043571696" style="fill:none;stroke:black;stroke-width:1"/>
<polygon points="19.682501151684736,4.970071139980301 18.753966231408413,6.268616951795705 19.586467383093137,4.828688091775998" style="fill:none;stroke:black;stroke-width:1"/>
<polygon points="19.907412293143555,6.597855808492957 19.39439984590993,4.545921995367394 20.035824422573963,6.480241742553785" style="fill:none;stroke:black;stroke-width:1"/>
<polygon points="19.39439984590993,4.545921995367394 19.907412293143555,6.597855808492957 19.75275587621486,6.684398112964989" style="fill:none;stroke:black;stroke-width:1"/>
<polygon points="19.29836607731833,4.404538947163092 19.39439984590993,4.545921995367394 19.75275587621486,6.684398112964989" style="fill:none;stroke:black;stroke-width:1"/>
<polygon points="18.270218597534573,3.6617188379924865 20.131060763163795,6.339808877315093 20.035824422573963,6.480241742553785" style="fill:none;stroke:black;stroke-width:1"/>
<polygon points="19.39439984590993,4.545921995367394 18.270218597534573,3.6617188379924865 20.035824422573963,6.480241742553785" style="fill:none;stroke:black;stroke-width:1"/>
<polygon points="17.65529220408772,4.540562276811306 17.72872371632779,4.050603545811085 17.643144253076304,4.372656088790077" style="fill:none;stroke:black;stroke-width:1"/>
<polygon points="17.72872371632779,4.050603545811085 17.65529220408772,4.540562276811306 17.82386680283942,3.910117208967165" style="fill:none;stroke:black;stroke-width:1"/>
<polygon points="18.1777636198588,5.420318662569892 18.0817298512672,5.278935614365589 20.06663622605114,5.53560333279751" style="fill:none;stroke:black;stroke-width:1"/>
<polygon points="19.87456868886794,5.252837236388905 17.889662314083996,4.996169517956986 19.77853492027634,5.111454188184603" style="fill:none;stroke:black;stroke-width:1"/>
<polygon points="17.793628545492396,4.854786469752684 18.753966231408413,6.268616951795705 19.682501151684736,4.970071139980301" style="fill:none;stroke:black;stroke-width:1"/>
<polygon points="18.753966231408413,6.268616951795705 17.793628545492396,4.854786469752684 18.65793246281681,6.127233903591403" style="fill:none;stroke:black;stroke-width:1"/>
<polygon points="17.793628545492396,4.854786469752684 19.682501151684736,4.970071139980301 19.77853492027634,5.111454188184603" style="fill:none;stroke:black;stroke-width:1"/>
<polygon points="20.204793413133498,5.8498975763711245 18.1777636198588,5.420318662569892 20.154404959604687,5.686489604503574" style="fill:none;stroke:black;stroke-width:1"/>
<polygon points="20.131060763163795,6.339808877315093 20.204793413133498,5.8498975763711245 20.035824422573963,6.480241742553785" style="fill:none;stroke:black;stroke-width:1"/>
<polygon points="20.204793413133498,5.8498975763711245 20.131060763163795,6.339808877315093 20.191829151037417,6.183387221833805" style="fill:none;stroke:black;stroke-width:1"/>
<polygon points="18.967672505051503,6.54236733000569 18.85,6.41 17.66805214511487,4.207059842104362" style="fill:none;stroke:black;stroke-width:1"/>
<polygon points="18.85,6.41 18.967672505051503,6.54236733000569 19.490433614501534,4.687305043571696" style="fill:none;stroke:black;stroke-width:1"/>
<polygon points="17.95218924077413,3.7924308406295246 18.603040618191184,3.683678320408672 17.82386680283942,3.910117208967165" style="fill:none;stroke:black;stroke-width:1"/>
<polygon points="18.270218597534573,3.6617188379924865 18.438209407145997,3.654251030656873 20.131060763163795,6.339808877315093" style="fill:none;stroke:black;stroke-width:1"/>
<polygon points="20.131060763163795,6.339808877315093 18.438209407145997,3.654251030656873 20.191829151037417,6.183387221833805" style="fill:none;stroke:black;stroke-width:1"/>
<polygon points="18.438209407145997,3.654251030656873 17.95218924077413,3.7924308406295246 20.191829151037417,6.183387221833805" style="fill:none;stroke:black;stroke-width:1"/>
<polygon points="17.95218924077413,3.7924308406295246 18.438209407145997,3.654251030656873 18.603040618191184,3.683678320408672" style="fill:none;stroke:black;stroke-width:1"/>
<polygon points="25.29709885571813,19.428755355750948 19.39439984590993,4.545921995367394 19.29836607731833,4.404538947163092" style="fill:none;stroke:black;stroke-width:1"/>
<polygon points="19.39439984590993,4.545921995367394 25.29709885571813,19.428755355750948 25.315487987039777,19.262333717290026" style="fill:none;stroke:black;stroke-width:1"/>
<polygon points="25.03512782163866,21.080903539740913 25.10909788867793,20.929965844990626 19.29836607731833,4.404538947163092" style="fill:none;stroke:black;stroke-width:1"/>
<polygon points="18.561898694225206,5.9858508553871 17.65529220408772,4.540562276811306 17.643144253076304,4.372656088790077" style="fill:none;stroke:black;stroke-width:1"/>
<polygon points="18.65793246281681,6.127233903591403 18.561898694225206,5.9858508553871 17.643144253076304,4.372656088790077" style="fill:none;stroke:black;stroke-width:1"/>
<polygon points="17.793628545492396,4.854786469752684 18.561898694225206,5.9858508553871 18.65793246281681,6.127233903591403" style="fill:none;stroke:black;stroke-width:1"/>
<polygon points="17.65529220408772,4.540562276811306 17.705788162024746,4.70394839711113 17.82386680283942,3.910117208967165" style="fill:none;stroke:black;stroke-width:1"/>
<polygon points="17.705788162024746,4.70394839711113 17.95218924077413,3.7924308406295246 17.82386680283942,3.910117208967165" style="fill:none;stroke:black;stroke-width:1"/>
<polygon points="17.95218924077413,3.7924308406295246 17.705788162024746,4.70394839711113 18.105898198413826,3.7073739062911466" style="fill:none;stroke:black;stroke-width:1"/>
<polygon points="18.0817298512672,5.278935614365589 19.97060245745954,5.3942202845932075 20.06663622605114,5.53560333279751" style="fill:none;stroke:black;stroke-width:1"/>
<polygon points="19.97060245745954,5.3942202845932075 18.0817298512672,5.278935614365589 17.9856960826756,5.137552566161287" style="fill:none;stroke:black;stroke-width:1"/>
<polygon points="20.06663622605114,5.53560333279751 19.97060245745954,5.3942202845932075 19.87456868886794,5.252837236388905" style="fill:none;stroke:black;stroke-width:1"/>
<polygon points="19.97060245745954,5.3942202845932075 17.9856960826756,5.137552566161287 19.87456868886794,5.252837236388905" style="fill:none;stroke:black;stroke-width:1"/>
<polygon points="18.273797388450404,5.561701710774194 18.0817298512672,5.278935614365589 18.1777636198588,5.420318662569892" style="fill:none;stroke:black;stroke-width:1"/>
<polygon points="20.204793413133498,5.8498975763711245 18.273797388450404,5.561701710774194 18.1777636198588,5.420318662569892" style="fill:none;stroke:black;stroke-width:1"/>
<polygon points="20.2168374223192,6.017806785166842 20.204793413133498,5.8498975763711245 20.191829151037417,6.183387221833805" style="fill:none;stroke:black;stroke-width:1"/>
<polygon points="17.95218924077413,3.7924308406295246 20.2168374223192,6.017806785166842 20.191829151037417,6.183387221833805" style="fill:none;stroke:black;stroke-width:1"/>
<polygon points="20.2168374223192,6.017806785166842 17.95218924077413,3.7924308406295246 18.105898198413826,3.7073739062911466" style="fill:none;stroke:black;stroke-width:1"/>
<polygon points="18.273797388450404,5.561701710774194 20.2168374223192,6.017806785166842 18.105898198413826,3.7073739062911466" style="fill:none;stroke:black;stroke-width:1"/>
<polygon points="20.2168374223192,6.017806785166842 18.273797388450404,5.561701710774194 20.204793413133498,5.8498975763711245" style="fill:none;stroke:black;stroke-width:1"/>
<polygon points="9.767090070585873,20.384351215941674 18.757882221613205,3.74870854337225 17.82386680283942,3.910117208967165" style="fill:none;stroke:black;stroke-width:1"/>
<polygon points="12.132239550083069,25.901040105703373 18.757882221613205,3.74870854337225 11.974275932598594,25.93815203993165" style="fill:none;stroke:black;stroke-width:1"/>
<polygon points="18.757882221613205,3.74870854337225 17.72872371632779,4.050603545811085 17.82386680283942,3.910117208967165" style="fill:none;stroke:black;stroke-width:1"/>
<polygon points="25.29709885571813,19.428755355750948 24.68,18.13 25.315487987039777,19.262333717290026" style="fill:none;stroke:black;stroke-width:1"/>
<polygon points="25.12248809090755,18.32858703862168 24.797060336676658,27.911229676766464 18.270218597534573,3.6617188379924865" style="fill:none;stroke:black;stroke-width:1"/>
<polygon points="25.344852188274217,18.75856605175711 18.270218597534573,3.6617188379924865 19.39439984590993,4.545921995367394" style="fill:none;stroke:black;stroke-width:1"/>
<polygon points="25.344852188274217,18.75856605175711 25.302050907600204,18.59871891637981 18.270218597534573,3.6617188379924865" style="fill:none;stroke:black;stroke-width:1"/>
<polygon points="25.351793365499027,18.928577959131843 25.344852188274217,18.75856605175711 19.39439984590993,4.545921995367394" style="fill:none;stroke:black;stroke-width:1"/>
<polygon points="19.424725935874896,6.738575474175275 19.202332308726728,4.263155898958789 19.589197470690493,6.730388005806765" style="fill:none;stroke:black;stroke-width:1"/>
<polygon points="19.202332308726728,4.263155898958789 19.29836607731833,4.404538947163092 19.589197470690493,6.730388005806765" style="fill:none;stroke:black;stroke-width:1"/>
<polygon points="18.561898694225206,5.9858508553871 18.465864925633607,5.844467807182799 17.65529220408772,4.540562276811306" style="fill:none;stroke:black;stroke-width:1"/>
<polygon points="18.465864925633607,5.844467807182799 17.705788162024746,4.70394839711113 17.65529220408772,4.540562276811306" style="fill:none;stroke:black;stroke-width:1"/>
<polygon points="7.1362814716081715,9.743153957847111 7.073387073851716,9.90771327252496 17.9856960826756,5.137552566161287" style="fill:none;stroke:black;stroke-width:1"/>
<polygon points="7.199175869364627,9.578594643169264 7.1362814716081715,9.743153957847111 17.9856960826756,5.137552566161287" style="fill:none;stroke:black;stroke-width:1"/>
<polygon points="7.324964664877537,9.249476013813569 7.262070267121081,9.414035328491416 17.9856960826756,5.137552566161287" style="fill:none;stroke:black;stroke-width:1"/>
<polygon points="7.262070267121081,9.414035328491416 7.199175869364627,9.578594643169264 17.9856960826756,5.137552566161287" style="fill:none;stroke:black;stroke-width:1"/>
<polygon points="18.438209407145997,3.654251030656873 11.43716182653216,3.5614889415193094 18.603040618191184,3.683678320408672" style="fill:none;stroke:black;stroke-width:1"/>
<polygon points="6.7641634831299955,6.52011788520265 11.43716182653216,3.5614889415193094 18.438209407145997,3.654251030656873" style="fill:none;stroke:black;stroke-width:1"/>
<polygon points="19.202332308726728,4.263155898958789 24.497257772333324,21.42380820143573 19.29836607731833,4.404538947163092" style="fill:none;stroke:black;stroke-width:1"/>
<polygon points="19.010264771543525,3.9803898025501843 19.10629854013513,4.121772850754487 19.26043293583989,6.708968265458017" style="fill:none;stroke:black;stroke-width:1"/>
<polygon points="19.10629854013513,4.121772850754487 19.424725935874896,6.738575474175275 19.26043293583989,6.708968265458017" style="fill:none;stroke:black;stroke-width:1"/>
<polygon points="18.895904208355148,3.8480495356719735 18.967672505051503,6.54236733000569 17.66805214511487,4.207059842104362" style="fill:none;stroke:black;stroke-width:1"/>
<polygon points="17.72872371632779,4.050603545811085 18.895904208355148,3.8480495356719735 17.66805214511487,4.207059842104362" style="fill:none;stroke:black;stroke-width:1"/>
<polygon points="25.302050907600204,18.59871891637981 25.226794537227732,18.453803572250983 18.270218597534573,3.6617188379924865" style="fill:none;stroke:black;stroke-width:1"/>
<polygon points="25.226794537227732,18.453803572250983 25.12248809090755,18.32858703862168 18.270218597534573,3.6617188379924865" style="fill:none;stroke:black;stroke-width:1"/>
<polygon points="25.226794537227732,18.453803572250983 25.351793365499027,18.928577959131843 25.12248809090755,18.32858703862168" style="fill:none;stroke:black;stroke-width:1"/>
<polygon points="25.344852188274217,18.75856605175711 25.226794537227732,18.453803572250983 25.302050907600204,18.59871891637981" style="fill:none;stroke:black;stroke-width:1"/>
<polygon points="25.226794537227732,18.453803572250983 25.344852188274217,18.75856605175711 25.351793365499027,18.928577959131843" style="fill:none;stroke:black;stroke-width:1"/>
<polygon points="25.12248809090755,18.32858703862168 24.992536582390393,18.22783633474294 24.797060336676658,27.911229676766464" style="fill:none;stroke:black;stroke-width:1"/>
<polygon points="24.992536582390393,18.22783633474294 24.68,18.13 24.840345025427016,18.156318479865803" style="fill:none;stroke:black;stroke-width:1"/>
<polygon points="24.68,18.13 24.992536582390393,18.22783633474294 25.315487987039777,19.262333717290026" style="fill:none;stroke:black;stroke-width:1"/>
<polygon points="25.333877118361425,19.0959120788291 19.39439984590993,4.545921995367394 25.315487987039777,19.262333717290026" style="fill:none;stroke:black;stroke-width:1"/>
<polygon points="25.333877118361425,19.0959120788291 25.351793365499027,18.928577959131843 19.39439984590993,4.545921995367394" style="fill:none;stroke:black;stroke-width:1"/>
<polygon points="25.351793365499027,18.928577959131843 25.333877118361425,19.0959120788291 25.12248809090755,18.32858703862168" style="fill:none;stroke:black;stroke-width:1"/>
<polygon points="24.992536582390393,18.22783633474294 25.333877118361425,19.0959120788291 25.315487987039777,19.262333717290026" style="fill:none;stroke:black;stroke-width:1"/>
<polygon points="25.333877118361425,19.0959120788291 24.992536582390393,18.22783633474294 25.12248809090755,18.32858703862168" style="fill:none;stroke:black;stroke-width:1"/>
<polygon points="18.273797388450404,5.561701710774194 8.831052133028287,8.781239181151786 18.0817298512672,5.278935614365589" style="fill:none;stroke:black;stroke-width:1"/>
<polygon points="8.599502431817339,10.117740212642305 8.831052133028287,8.781239181151786 8.894884130988165,8.940048269319455" style="fill:none;stroke:black;stroke-width:1"/>
<polygon points="18.369831157042004,5.7030847589784965 18.273797388450404,5.561701710774194 18.105898198413826,3.7073739062911466" style="fill:none;stroke:black;stroke-width:1"/>
<polygon points="17.705788162024746,4.70394839711113 18.369831157042004,5.7030847589784965 18.105898198413826,3.7073739062911466" style="fill:none;stroke:black;stroke-width:1"/>
<polygon points="18.369831157042004,5.7030847589784965 8.831052133028287,8.781239181151786 18.273797388450404,5.561701710774194" style="fill:none;stroke:black;stroke-width:1"/>
<polygon points="8.831052133028287,8.781239181151786 18.369831157042004,5.7030847589784965 8.894884130988165,8.940048269319455" style="fill:none;stroke:black;stroke-width:1"/>
<polygon points="18.465864925633607,5.844467807182799 18.369831157042004,5.7030847589784965 17.705788162024746,4.70394839711113" style="fill:none;stroke:black;stroke-width:1"/>
<polygon points="7.84228255234536,11.684736063455496 7.1362814716081715,9.743153957847111 7.199175869364627,9.578594643169264" style="fill:none;stroke:black;stroke-width:1"/>
<polygon points="7.387859062633992,9.08491669913572 7.324964664877537,9.249476013813569 17.9856960826756,5.137552566161287" style="fill:none;stroke:black;stroke-width:1"/>
<polygon points="18.0817298512672,5.278935614365589 7.769202147924267,8.505436635104305 17.9856960826756,5.137552566161287" style="fill:none;stroke:black;stroke-width:1"/>
<polygon points="7.92445242643129,8.43058955814595 7.769202147924267,8.505436635104305 18.0817298512672,5.278935614365589" style="fill:none;stroke:black;stroke-width:1"/>
<polygon points="16.63252252003921,8.405150791318327 11.298797058253536,10.024506803817136 18.438209407145997,3.654251030656873" style="fill:none;stroke:black;stroke-width:1"/>
<polygon points="18.757882221613205,3.74870854337225 11.816312315114121,25.975263974159933 11.974275932598594,25.93815203993165" style="fill:none;stroke:black;stroke-width:1"/>
<polygon points="23.772046109081792,21.09444783184741 19.202332308726728,4.263155898958789 19.424725935874896,6.738575474175275" style="fill:none;stroke:black;stroke-width:1"/>
<polygon points="19.10629854013513,4.121772850754487 23.772046109081792,21.09444783184741 19.424725935874896,6.738575474175275" style="fill:none;stroke:black;stroke-width:1"/>
<polygon points="18.895904208355148,3.8480495356719735 19.106282637948446,6.642794484613258 18.967672505051503,6.54236733000569" style="fill:none;stroke:black;stroke-width:1"/>
<polygon points="19.106282637948446,6.642794484613258 18.895904208355148,3.8480495356719735 19.010264771543525,3.9803898025501843" style="fill:none;stroke:black;stroke-width:1"/>
<polygon points="19.106282637948446,6.642794484613258 19.010264771543525,3.9803898025501843 19.26043293583989,6.708968265458017" style="fill:none;stroke:black;stroke-width:1"/>
<polygon points="19.106282637948446,6.642794484613258 19.26043293583989,6.708968265458017 19.490433614501534,4.687305043571696" style="fill:none;stroke:black;stroke-width:1"/>
<polygon points="18.967672505051503,6.54236733000569 19.106282637948446,6.642794484613258 19.490433614501534,4.687305043571696" style="fill:none;stroke:black;stroke-width:1"/>
<polygon points="25.10909788867793,20.929965844990626 25.149982364746897,20.76013746320223 19.29836607731833,4.404538947163092" style="fill:none;stroke:black;stroke-width:1"/>
<polygon points="25.149982364746897,20.76013746320223 25.168374936466588,20.593706824977403 19.29836607731833,4.404538947163092" style="fill:none;stroke:black;stroke-width:1"/>
<polygon points="25.149982364746897,20.76013746320223 25.10909788867793,20.929965844990626 23.83186152120332,18.954153233109974" style="fill:none;stroke:black;stroke-width:1"/>
<polygon points="25.205153199109883,20.260863548055557 25.223542330431535,20.094441909594636 19.29836607731833,4.404538947163092" style="fill:none;stroke:black;stroke-width:1"/>
<polygon points="25.205153199109883,20.260863548055557 24.06948121553932,18.344616212177165 25.223542330431535,20.094441909594636" style="fill:none;stroke:black;stroke-width:1"/>
<polygon points="25.278709724396478,19.59517699421187 25.29709885571813,19.428755355750948 19.29836607731833,4.404538947163092" style="fill:none;stroke:black;stroke-width:1"/>
<polygon points="25.26032059307483,19.76159863267279 25.278709724396478,19.59517699421187 19.29836607731833,4.404538947163092" style="fill:none;stroke:black;stroke-width:1"/>
<polygon points="25.278709724396478,19.59517699421187 24.68,18.13 25.29709885571813,19.428755355750948" style="fill:none;stroke:black;stroke-width:1"/>
<polygon points="25.223542330431535,20.094441909594636 25.241931461753182,19.928020271133715 19.29836607731833,4.404538947163092" style="fill:none;stroke:black;stroke-width:1"/>
<polygon points="25.241931461753182,19.928020271133715 25.26032059307483,19.76159863267279 19.29836607731833,4.404538947163092" style="fill:none;stroke:black;stroke-width:1"/>
<polygon points="24.68,18.13 4.43248770946955,25.13954397698594 24.840345025427016,18.156318479865803" style="fill:none;stroke:black;stroke-width:1"/>
<polygon points="25.10909788867793,20.929965844990626 23.81347238988167,19.1205748715709 23.83186152120332,18.954153233109974" style="fill:none;stroke:black;stroke-width:1"/>
<polygon points="25.03512782163866,21.080903539740913 23.81347238988167,19.1205748715709 25.10909788867793,20.929965844990626" style="fill:none;stroke:black;stroke-width:1"/>
<polygon points="24.80570414036017,21.311719018742114 23.758304995916724,19.619839786953666 23.776694127238372,19.45341814849274" style="fill:none;stroke:black;stroke-width:1"/>
<polygon points="11.244254677608684,24.56978353959796 19.10629854013513,4.121772850754487 19.010264771543525,3.9803898025501843" style="fill:none;stroke:black;stroke-width:1"/>
<polygon points="11.402218295093157,24.53267160536968 11.244254677608684,24.56978353959796 19.010264771543525,3.9803898025501843" style="fill:none;stroke:black;stroke-width:1"/>
<polygon points="27.096552877181516,17.23994149109438 28.611134912228266,19.890949208161427 18.757882221613205,3.74870854337225" style="fill:none;stroke:black;stroke-width:1"/>
<polygon points="18.438209407145997,3.654251030656873 28.767194067382924,14.765399800943102 24.249228672757067,15.628898108469262" style="fill:none;stroke:black;stroke-width:1"/>
<polygon points="28.767194067382924,14.765399800943102 18.438209407145997,3.654251030656873 18.270218597534573,3.6617188379924865" style="fill:none;stroke:black;stroke-width:1"/>
<polygon points="8.725291227330247,9.78862158328661 8.906013888719718,9.286947760829932 8.788185625086703,9.62406226860876" style="fill:none;stroke:black;stroke-width:1"/>
<polygon points="18.465864925633607,5.844467807182799 8.725291227330247,9.78862158328661 8.788185625086703,9.62406226860876" style="fill:none;stroke:black;stroke-width:1"/>
<polygon points="18.369831157042004,5.7030847589784965 8.920802658484739,9.110746425820391 8.894884130988165,8.940048269319455" style="fill:none;stroke:black;stroke-width:1"/>
<polygon points="8.920802658484739,9.110746425820391 18.369831157042004,5.7030847589784965 8.906013888719718,9.286947760829932" style="fill:none;stroke:black;stroke-width:1"/>
<polygon points="8.725291227330247,9.78862158328661 8.920802658484739,9.110746425820391 8.906013888719718,9.286947760829932" style="fill:none;stroke:black;stroke-width:1"/>
<polygon points="8.920802658484739,9.110746425820391 8.599502431817339,10.117740212642305 8.894884130988165,8.940048269319455" style="fill:none;stroke:black;stroke-width:1"/>
<polygon points="8.851080022843158,9.459502953930913 18.369831157042004,5.7030847589784965 18.465864925633607,5.844467807182799" style="fill:none;stroke:black;stroke-width:1"/>
<polygon points="18.369831157042004,5.7030847589784965 8.851080022843158,9.459502953930913 8.906013888719718,9.286947760829932" style="fill:none;stroke:black;stroke-width:1"/>
<polygon points="8.851080022843158,9.459502953930913 18.465864925633607,5.844467807182799 8.788185625086703,9.62406226860876" style="fill:none;stroke:black;stroke-width:1"/>
<polygon points="8.906013888719718,9.286947760829932 8.851080022843158,9.459502953930913 8.788185625086703,9.62406226860876" style="fill:none;stroke:black;stroke-width:1"/>
<polygon points="7.262070267121081,9.414035328491416 7.978202713417846,11.575844071197325 7.199175869364627,9.578594643169264" style="fill:none;stroke:black;stroke-width:1"/>
<polygon points="7.978202713417846,11.575844071197325 7.84228255234536,11.684736063455496 7.199175869364627,9.578594643169264" style="fill:none;stroke:black;stroke-width:1"/>
<polygon points="7.978202713417846,11.575844071197325 7.262070267121081,9.414035328491416 7.324964664877537,9.249476013813569" style="fill:none;stroke:black;stroke-width:1"/>
<polygon points="7.1362814716081715,9.743153957847111 7.685672630510292,11.7590643347912 7.073387073851716,9.90771327252496" style="fill:none;stroke:black;stroke-width:1"/>
<polygon points="7.84228255234536,11.684736063455496 7.685672630510292,11.7590643347912 7.1362814716081715,9.743153957847111" style="fill:none;stroke:black;stroke-width:1"/>
<polygon points="7.685672630510292,11.7590643347912 7.84228255234536,11.684736063455496 7.515934428236104,11.796160127443212" style="fill:none;stroke:black;stroke-width:1"/>
<polygon points="7.5256145056478125,8.755306070979648 7.450753460390446,8.920357384457871 17.9856960826756,5.137552566161287" style="fill:none;stroke:black;stroke-width:1"/>
<polygon points="7.450753460390446,8.920357384457871 7.387859062633992,9.08491669913572 17.9856960826756,5.137552566161287" style="fill:none;stroke:black;stroke-width:1"/>
<polygon points="7.633922400864119,8.6146089821018 7.5256145056478125,8.755306070979648 17.9856960826756,5.137552566161287" style="fill:none;stroke:black;stroke-width:1"/>
<polygon points="7.769202147924267,8.505436635104305 7.633922400864119,8.6146089821018 17.9856960826756,5.137552566161287" style="fill:none;stroke:black;stroke-width:1"/>
<polygon points="6.947598278338806,10.236831901880658 17.889662314083996,4.996169517956986 19.87456868886794,5.252837236388905" style="fill:none;stroke:black;stroke-width:1"/>
<polygon points="6.947598278338806,10.236831901880658 6.884703880582352,10.401391216558505 17.889662314083996,4.996169517956986" style="fill:none;stroke:black;stroke-width:1"/>
<polygon points="6.715119395857935,11.249964628388588 17.793628545492396,4.854786469752684 19.77853492027634,5.111454188184603" style="fill:none;stroke:black;stroke-width:1"/>
<polygon points="7.009188363030053,11.665176119049681 18.561898694225206,5.9858508553871 17.793628545492396,4.854786469752684" style="fill:none;stroke:black;stroke-width:1"/>
<polygon points="6.877908498817533,11.549305003581228 7.009188363030053,11.665176119049681 17.793628545492396,4.854786469752684" style="fill:none;stroke:black;stroke-width:1"/>
<polygon points="21.581731133200563,10.814413538347676 18.438209407145997,3.654251030656873 24.249228672757067,15.628898108469262" style="fill:none;stroke:black;stroke-width:1"/>
<polygon points="21.581731133200563,10.814413538347676 16.63252252003921,8.405150791318327 18.438209407145997,3.654251030656873" style="fill:none;stroke:black;stroke-width:1"/>
<polygon points="3.7042307425042766,11.11723736460433 6.7641634831299955,6.52011788520265 18.438209407145997,3.654251030656873" style="fill:none;stroke:black;stroke-width:1"/>
<polygon points="3.8458563424119685,15.175221174365083 3.7042307425042766,11.11723736460433 18.438209407145997,3.654251030656873" style="fill:none;stroke:black;stroke-width:1"/>
<polygon points="11.298797058253536,10.024506803817136 8.505419966325086,14.744565247616396 18.438209407145997,3.654251030656873" style="fill:none;stroke:black;stroke-width:1"/>
<polygon points="8.505419966325086,14.744565247616396 3.8458563424119685,15.175221174365083 18.438209407145997,3.654251030656873" style="fill:none;stroke:black;stroke-width:1"/>
<polygon points="18.603040618191184,3.683678320408672 8.549968613076814,26.950382421780226 17.82386680283942,3.910117208967165" style="fill:none;stroke:black;stroke-width:1"/>
<polygon points="11.500385080145174,26.049487842616493 11.658348697629647,26.01237590838821 18.757882221613205,3.74870854337225" style="fill:none;stroke:black;stroke-width:1"/>
<polygon points="11.658348697629647,26.01237590838821 11.816312315114121,25.975263974159933 18.757882221613205,3.74870854337225" style="fill:none;stroke:black;stroke-width:1"/>
<polygon points="11.3424214626607,26.08659977684477 11.500385080145174,26.049487842616493 18.757882221613205,3.74870854337225" style="fill:none;stroke:black;stroke-width:1"/>
<polygon points="25.168374936466588,20.593706824977403 25.186764067788236,20.427285186516478 19.29836607731833,4.404538947163092" style="fill:none;stroke:black;stroke-width:1"/>
<polygon points="25.186764067788236,20.427285186516478 25.205153199109883,20.260863548055557 19.29836607731833,4.404538947163092" style="fill:none;stroke:black;stroke-width:1"/>
<polygon points="23.89088462720994,18.62038997756458 25.186764067788236,20.427285186516478 25.168374936466588,20.593706824977403" style="fill:none;stroke:black;stroke-width:1"/>
<polygon points="24.06948121553932,18.344616212177165 24.197749397953285,18.243367603852636 25.223542330431535,20.094441909594636" style="fill:none;stroke:black;stroke-width:1"/>
<polygon points="24.197749397953285,18.243367603852636 25.241931461753182,19.928020271133715 25.223542330431535,20.094441909594636" style="fill:none;stroke:black;stroke-width:1"/>
<polygon points="1.3414322087519857,14.522196179563924 24.197749397953285,18.243367603852636 2.92473551671363,9.124158716692595" style="fill:none;stroke:black;stroke-width:1"/>
<polygon points="24.197749397953285,18.243367603852636 24.06948121553932,18.344616212177165 2.92473551671363,9.124158716692595" style="fill:none;stroke:black;stroke-width:1"/>
<polygon points="23.8502951376599,18.78761094735344 25.149982364746897,20.76013746320223 23.83186152120332,18.954153233109974" style="fill:none;stroke:black;stroke-width:1"/>
<polygon points="25.149982364746897,20.76013746320223 23.8502951376599,18.78761094735344 25.168374936466588,20.593706824977403" style="fill:none;stroke:black;stroke-width:1"/>
<polygon points="23.8502951376599,18.78761094735344 23.89088462720994,18.62038997756458 25.168374936466588,20.593706824977403" style="fill:none;stroke:black;stroke-width:1"/>
<polygon points="1.8657250011873872,20.22052206786926 4.43248770946955,25.13954397698594 24.68,18.13" style="fill:none;stroke:black;stroke-width:1"/>
<polygon points="13.885929584327261,30.598776972949835 24.992536582390393,18.22783633474294 24.840345025427016,18.156318479865803" style="fill:none;stroke:black;stroke-width:1"/>
<polygon points="11.075505242221691,2.0586793272706054 23.8502951376599,18.78761094735344 10.29765027508363,25.927522484235798" style="fill:none;stroke:black;stroke-width:1"/>
<polygon points="23.739915864595076,19.786261425414587 24.497257772333324,21.42380820143573 23.721526733273425,19.952683063875508" style="fill:none;stroke:black;stroke-width:1"/>
<polygon points="23.795083258560023,19.28699651003182 23.81347238988167,19.1205748715709 25.03512782163866,21.080903539740913" style="fill:none;stroke:black;stroke-width:1"/>
<polygon points="24.80570414036017,21.311719018742114 24.659137138976423,21.384402878300502 23.758304995916724,19.619839786953666" style="fill:none;stroke:black;stroke-width:1"/>
<polygon points="23.739915864595076,19.786261425414587 24.659137138976423,21.384402878300502 24.497257772333324,21.42380820143573" style="fill:none;stroke:black;stroke-width:1"/>
<polygon points="24.659137138976423,21.384402878300502 23.739915864595076,19.786261425414587 23.758304995916724,19.619839786953666" style="fill:none;stroke:black;stroke-width:1"/>
<polygon points="24.497257772333324,21.42380820143573 24.659137138976423,21.384402878300502 19.29836607731833,4.404538947163092" style="fill:none;stroke:black;stroke-width:1"/>
<polygon points="24.659137138976423,21.384402878300502 24.80570414036017,21.311719018742114 19.29836607731833,4.404538947163092" style="fill:none;stroke:black;stroke-width:1"/>
<polygon points="18.895904208355148,3.8480495356719735 12.671569999703436,24.309410827991304 19.010264771543525,3.9803898025501843" style="fill:none;stroke:black;stroke-width:1"/>
<polygon points="19.10629854013513,4.121772850754487 10.770363825155261,24.6811193422828 23.666359339308478,20.451947979258275" style="fill:none;stroke:black;stroke-width:1"/>
<polygon points="14.305020481410555,23.424625719023165 18.757882221613205,3.74870854337225 9.767090070585873,20.384351215941674" style="fill:none;stroke:black;stroke-width:1"/>
<polygon points="14.305020481410555,23.424625719023165 19.850527053181537,22.545271136664127 18.757882221613205,3.74870854337225" style="fill:none;stroke:black;stroke-width:1"/>
<polygon points="23.239922901456964,18.268418126948742 27.096552877181516,17.23994149109438 18.757882221613205,3.74870854337225" style="fill:none;stroke:black;stroke-width:1"/>
<polygon points="19.850527053181537,22.545271136664127 23.239922901456964,18.268418126948742 18.757882221613205,3.74870854337225" style="fill:none;stroke:black;stroke-width:1"/>
<polygon points="28.611134912228266,19.890949208161427 25.90279025206953,24.729697258767853 18.757882221613205,3.74870854337225" style="fill:none;stroke:black;stroke-width:1"/>
<polygon points="25.90279025206953,24.729697258767853 11.3424214626607,26.08659977684477 18.757882221613205,3.74870854337225" style="fill:none;stroke:black;stroke-width:1"/>
<polygon points="24.26760089743918,5.655562231844316 27.75921116440668,9.916260358180459 18.270218597534573,3.6617188379924865" style="fill:none;stroke:black;stroke-width:1"/>
<polygon points="27.75921116440668,9.916260358180459 28.767194067382924,14.765399800943102 18.270218597534573,3.6617188379924865" style="fill:none;stroke:black;stroke-width:1"/>
<polygon points="24.797060336676658,27.911229676766464 28.495000651838204,23.9001712839876 18.270218597534573,3.6617188379924865" style="fill:none;stroke:black;stroke-width:1"/>
<polygon points="28.495000651838204,23.9001712839876 30.488342907183366,18.698727473698646 18.270218597534573,3.6617188379924865" style="fill:none;stroke:black;stroke-width:1"/>
<polygon points="19.297358624744945,3.1652426818213564 24.26760089743918,5.655562231844316 18.270218597534573,3.6617188379924865" style="fill:none;stroke:black;stroke-width:1"/>
<polygon points="30.488342907183366,18.698727473698646 19.297358624744945,3.1652426818213564 18.270218597534573,3.6617188379924865" style="fill:none;stroke:black;stroke-width:1"/>
<polygon points="8.440013584351727,8.440005224895012 8.266859296198088,8.395073326981812 18.0817298512672,5.278935614365589" style="fill:none;stroke:black;stroke-width:1"/>
<polygon points="8.831052133028287,8.781239181151786 8.732100491403395,8.640705051142046 18.0817298512672,5.278935614365589" style="fill:none;stroke:black;stroke-width:1"/>
<polygon points="8.732100491403395,8.640705051142046 8.831052133028287,8.781239181151786 8.599502431817339,10.117740212642305" style="fill:none;stroke:black;stroke-width:1"/>
<polygon points="8.920802658484739,9.110746425820391 8.662396829573792,9.953180897964458 8.599502431817339,10.117740212642305" style="fill:none;stroke:black;stroke-width:1"/>
<polygon points="8.662396829573792,9.953180897964458 8.920802658484739,9.110746425820391 8.725291227330247,9.78862158328661" style="fill:none;stroke:black;stroke-width:1"/>
<polygon points="8.662396829573792,9.953180897964458 8.725291227330247,9.78862158328661 18.465864925633607,5.844467807182799" style="fill:none;stroke:black;stroke-width:1"/>
<polygon points="8.662396829573792,9.953180897964458 18.465864925633607,5.844467807182799 18.561898694225206,5.9858508553871" style="fill:none;stroke:black;stroke-width:1"/>
<polygon points="8.599502431817339,10.117740212642305 8.662396829573792,9.953180897964458 18.561898694225206,5.9858508553871" style="fill:none;stroke:black;stroke-width:1"/>
<polygon points="7.387859062633992,9.08491669913572 8.08587163340429,11.435057115777907 7.324964664877537,9.249476013813569" style="fill:none;stroke:black;stroke-width:1"/>
<polygon points="8.08587163340429,11.435057115777907 7.978202713417846,11.575844071197325 7.324964664877537,9.249476013813569" style="fill:none;stroke:black;stroke-width:1"/>
<polygon points="6.947598278338806,10.236831901880658 7.010492676095262,10.072272587202809 7.515934428236104,11.796160127443212" style="fill:none;stroke:black;stroke-width:1"/>
<polygon points="7.685672630510292,11.7590643347912 7.010492676095262,10.072272587202809 7.073387073851716,9.90771327252496" style="fill:none;stroke:black;stroke-width:1"/>
<polygon points="7.010492676095262,10.072272587202809 7.685672630510292,11.7590643347912 7.515934428236104,11.796160127443212" style="fill:none;stroke:black;stroke-width:1"/>
<polygon points="7.073387073851716,9.90771327252496 7.010492676095262,10.072272587202809 19.87456868886794,5.252837236388905" style="fill:none;stroke:black;stroke-width:1"/>
<polygon points="7.010492676095262,10.072272587202809 6.947598278338806,10.236831901880658 19.87456868886794,5.252837236388905" style="fill:none;stroke:black;stroke-width:1"/>
<polygon points="6.7789542341607305,11.408772543419309 6.877908498817533,11.549305003581228 17.793628545492396,4.854786469752684" style="fill:none;stroke:black;stroke-width:1"/>
<polygon points="6.715119395857935,11.249964628388588 6.7789542341607305,11.408772543419309 17.793628545492396,4.854786469752684" style="fill:none;stroke:black;stroke-width:1"/>
<polygon points="6.7789542341607305,11.408772543419309 6.715119395857935,11.249964628388588 6.877908498817533,11.549305003581228" style="fill:none;stroke:black;stroke-width:1"/>
<polygon points="7.009188363030053,11.665176119049681 7.17,11.75 18.561898694225206,5.9858508553871" style="fill:none;stroke:black;stroke-width:1"/>
<polygon points="7.17,11.75 8.599502431817339,10.117740212642305 18.561898694225206,5.9858508553871" style="fill:none;stroke:black;stroke-width:1"/>
<polygon points="7.17,11.75 7.009188363030053,11.665176119049681 6.703983305507531,10.903065993019393" style="fill:none;stroke:black;stroke-width:1"/>
<polygon points="7.17,11.75 8.08587163340429,11.435057115777907 8.599502431817339,10.117740212642305" style="fill:none;stroke:black;stroke-width:1"/>
<polygon points="8.08587163340429,11.435057115777907 7.17,11.75 7.978202713417846,11.575844071197325" style="fill:none;stroke:black;stroke-width:1"/>
<polygon points="6.715119395857935,11.249964628388588 6.689197810707439,11.079267148313729 6.877908498817533,11.549305003581228" style="fill:none;stroke:black;stroke-width:1"/>
<polygon points="6.689197810707439,11.079267148313729 7.009188363030053,11.665176119049681 6.877908498817533,11.549305003581228" style="fill:none;stroke:black;stroke-width:1"/>
<polygon points="7.009188363030053,11.665176119049681 6.689197810707439,11.079267148313729 6.703983305507531,10.903065993019393" style="fill:none;stroke:black;stroke-width:1"/>
<polygon points="6.689197810707439,11.079267148313729 6.715119395857935,11.249964628388588 19.77853492027634,5.111454188184603" style="fill:none;stroke:black;stroke-width:1"/>
<polygon points="17.889662314083996,4.996169517956986 6.689197810707439,11.079267148313729 19.77853492027634,5.111454188184603" style="fill:none;stroke:black;stroke-width:1"/>
<polygon points="6.703983305507531,10.903065993019393 6.689197810707439,11.079267148313729 17.889662314083996,4.996169517956986" style="fill:none;stroke:black;stroke-width:1"/>
<polygon points="18.79960696905159,21.441688759100927 13.278981319383183,21.479514121714004 18.603040618191184,3.683678320408672" style="fill:none;stroke:black;stroke-width:1"/>
<polygon points="21.167766022079753,12.754377634845286 13.73160919086401,29.055760900352205 18.603040618191184,3.683678320408672" style="fill:none;stroke:black;stroke-width:1"/>
<polygon points="13.73160919086401,29.055760900352205 8.549968613076814,26.950382421780226 18.603040618191184,3.683678320408672" style="fill:none;stroke:black;stroke-width:1"/>
<polygon points="24.005643984002944,21.321043471635384 24.157571176346835,21.392967473126536 19.202332308726728,4.263155898958789" style="fill:none;stroke:black;stroke-width:1"/>
<polygon points="23.772046109081792,21.09444783184741 23.876000623664346,21.21994791812533 19.202332308726728,4.263155898958789" style="fill:none;stroke:black;stroke-width:1"/>
<polygon points="23.876000623664346,21.21994791812533 24.005643984002944,21.321043471635384 19.202332308726728,4.263155898958789" style="fill:none;stroke:black;stroke-width:1"/>
<polygon points="24.005643984002944,21.321043471635384 23.876000623664346,21.21994791812533 23.666359339308478,20.451947979258275" style="fill:none;stroke:black;stroke-width:1"/>
<polygon points="23.648365777377812,20.619190568916913 19.10629854013513,4.121772850754487 23.666359339308478,20.451947979258275" style="fill:none;stroke:black;stroke-width:1"/>
<polygon points="23.648365777377812,20.619190568916913 23.654823672187778,20.78930213799216 19.10629854013513,4.121772850754487" style="fill:none;stroke:black;stroke-width:1"/>
<polygon points="23.654823672187778,20.78930213799216 23.648365777377812,20.619190568916913 23.772046109081792,21.09444783184741" style="fill:none;stroke:black;stroke-width:1"/>
<polygon points="23.876000623664346,21.21994791812533 23.648365777377812,20.619190568916913 23.666359339308478,20.451947979258275" style="fill:none;stroke:black;stroke-width:1"/>
<polygon points="23.648365777377812,20.619190568916913 23.876000623664346,21.21994791812533 23.772046109081792,21.09444783184741" style="fill:none;stroke:black;stroke-width:1"/>
<polygon points="23.697185454006018,20.949310232052675 23.772046109081792,21.09444783184741 19.10629854013513,4.121772850754487" style="fill:none;stroke:black;stroke-width:1"/>
<polygon points="23.654823672187778,20.78930213799216 23.697185454006018,20.949310232052675 19.10629854013513,4.121772850754487" style="fill:none;stroke:black;stroke-width:1"/>
<polygon points="23.697185454006018,20.949310232052675 23.654823672187778,20.78930213799216 23.772046109081792,21.09444783184741" style="fill:none;stroke:black;stroke-width:1"/>
<polygon points="23.96556980589731,18.471507701293483 25.186764067788236,20.427285186516478 23.89088462720994,18.62038997756458" style="fill:none;stroke:black;stroke-width:1"/>
<polygon points="24.06948121553932,18.344616212177165 23.96556980589731,18.471507701293483 2.92473551671363,9.124158716692595" style="fill:none;stroke:black;stroke-width:1"/>
<polygon points="25.205153199109883,20.260863548055557 23.96556980589731,18.471507701293483 24.06948121553932,18.344616212177165" style="fill:none;stroke:black;stroke-width:1"/>
<polygon points="25.186764067788236,20.427285186516478 23.96556980589731,18.471507701293483 25.205153199109883,20.260863548055557" style="fill:none;stroke:black;stroke-width:1"/>
<polygon points="25.241931461753182,19.928020271133715 24.345504894956512,18.171413969956923 25.26032059307483,19.76159863267279" style="fill:none;stroke:black;stroke-width:1"/>
<polygon points="24.197749397953285,18.243367603852636 24.345504894956512,18.171413969956923 25.241931461753182,19.928020271133715" style="fill:none;stroke:black;stroke-width:1"/>
<polygon points="1.8657250011873872,20.22052206786926 24.345504894956512,18.171413969956923 1.3414322087519857,14.522196179563924" style="fill:none;stroke:black;stroke-width:1"/>
<polygon points="24.345504894956512,18.171413969956923 24.197749397953285,18.243367603852636 1.3414322087519857,14.522196179563924" style="fill:none;stroke:black;stroke-width:1"/>
<polygon points="4.43248770946955,25.13954397698594 8.58733444984968,28.74707415801297 24.840345025427016,18.156318479865803" style="fill:none;stroke:black;stroke-width:1"/>
<polygon points="8.58733444984968,28.74707415801297 13.885929584327261,30.598776972949835 24.840345025427016,18.156318479865803" style="fill:none;stroke:black;stroke-width:1"/>
<polygon points="24.992536582390393,18.22783633474294 19.754337932879288,30.28934824897894 24.797060336676658,27.911229676766464" style="fill:none;stroke:black;stroke-width:1"/>
<polygon points="13.885929584327261,30.598776972949835 19.754337932879288,30.28934824897894 24.992536582390393,18.22783633474294" style="fill:none;stroke:black;stroke-width:1"/>
<polygon points="23.96556980589731,18.471507701293483 6.289365184930393,4.8221349649093765 2.92473551671363,9.124158716692595" style="fill:none;stroke:black;stroke-width:1"/>
<polygon points="6.289365184930393,4.8221349649093765 23.96556980589731,18.471507701293483 23.89088462720994,18.62038997756458" style="fill:none;stroke:black;stroke-width:1"/>
<polygon points="23.8502951376599,18.78761094735344 6.289365184930393,4.8221349649093765 23.89088462720994,18.62038997756458" style="fill:none;stroke:black;stroke-width:1"/>
<polygon points="11.075505242221691,2.0586793272706054 6.289365184930393,4.8221349649093765 23.8502951376599,18.78761094735344" style="fill:none;stroke:black;stroke-width:1"/>
<polygon points="24.932515470056828,21.20935358510683 24.80570414036017,21.311719018742114 23.776694127238372,19.45341814849274" style="fill:none;stroke:black;stroke-width:1"/>
<polygon points="23.795083258560023,19.28699651003182 24.932515470056828,21.20935358510683 23.776694127238372,19.45341814849274" style="fill:none;stroke:black;stroke-width:1"/>
<polygon points="24.932515470056828,21.20935358510683 23.795083258560023,19.28699651003182 25.03512782163866,21.080903539740913" style="fill:none;stroke:black;stroke-width:1"/>
<polygon points="24.932515470056828,21.20935358510683 25.03512782163866,21.080903539740913 19.29836607731833,4.404538947163092" style="fill:none;stroke:black;stroke-width:1"/>
<polygon points="24.80570414036017,21.311719018742114 24.932515470056828,21.20935358510683 19.29836607731833,4.404538947163092" style="fill:none;stroke:black;stroke-width:1"/>
<polygon points="13.140501068274853,25.456929271583988 18.895904208355148,3.8480495356719735 17.72872371632779,4.050603545811085" style="fill:none;stroke:black;stroke-width:1"/>
<polygon points="13.039119432332686,25.579600936662512 13.140501068274853,25.456929271583988 17.72872371632779,4.050603545811085" style="fill:none;stroke:black;stroke-width:1"/>
<polygon points="10.928327442639736,24.64400740805452 10.770363825155261,24.6811193422828 19.10629854013513,4.121772850754487" style="fill:none;stroke:black;stroke-width:1"/>
<polygon points="8.09267191598822,8.392868279385524 7.92445242643129,8.43058955814595 18.0817298512672,5.278935614365589" style="fill:none;stroke:black;stroke-width:1"/>
<polygon points="8.266859296198088,8.395073326981812 8.09267191598822,8.392868279385524 18.0817298512672,5.278935614365589" style="fill:none;stroke:black;stroke-width:1"/>
<polygon points="8.600823032911778,8.5248317691149 8.440013584351727,8.440005224895012 18.0817298512672,5.278935614365589" style="fill:none;stroke:black;stroke-width:1"/>
<polygon points="8.732100491403395,8.640705051142046 8.600823032911778,8.5248317691149 18.0817298512672,5.278935614365589" style="fill:none;stroke:black;stroke-width:1"/>
<polygon points="7.450753460390446,8.920357384457871 8.159241647522151,11.269655415387243 7.387859062633992,9.08491669913572" style="fill:none;stroke:black;stroke-width:1"/>
<polygon points="8.159241647522151,11.269655415387243 8.08587163340429,11.435057115777907 7.387859062633992,9.08491669913572" style="fill:none;stroke:black;stroke-width:1"/>
<polygon points="8.159241647522151,11.269655415387243 7.450753460390446,8.920357384457871 7.5256145056478125,8.755306070979648" style="fill:none;stroke:black;stroke-width:1"/>
<polygon points="8.08587163340429,11.435057115777907 8.159241647522151,11.269655415387243 8.599502431817339,10.117740212642305" style="fill:none;stroke:black;stroke-width:1"/>
<polygon points="7.342471442086902,11.792642649130528 6.947598278338806,10.236831901880658 7.515934428236104,11.796160127443212" style="fill:none;stroke:black;stroke-width:1"/>
<polygon points="6.947598278338806,10.236831901880658 7.342471442086902,11.792642649130528 6.884703880582352,10.401391216558505" style="fill:none;stroke:black;stroke-width:1"/>
<polygon points="7.84228255234536,11.684736063455496 7.342471442086902,11.792642649130528 7.515934428236104,11.796160127443212" style="fill:none;stroke:black;stroke-width:1"/>
<polygon points="7.978202713417846,11.575844071197325 7.342471442086902,11.792642649130528 7.84228255234536,11.684736063455496" style="fill:none;stroke:black;stroke-width:1"/>
<polygon points="7.17,11.75 7.342471442086902,11.792642649130528 7.978202713417846,11.575844071197325" style="fill:none;stroke:black;stroke-width:1"/>
<polygon points="6.884703880582352,10.401391216558505 6.821809482825897,10.565950531236354 17.889662314083996,4.996169517956986" style="fill:none;stroke:black;stroke-width:1"/>
<polygon points="7.342471442086902,11.792642649130528 6.821809482825897,10.565950531236354 6.884703880582352,10.401391216558505" style="fill:none;stroke:black;stroke-width:1"/>
<polygon points="6.821809482825897,10.565950531236354 7.342471442086902,11.792642649130528 7.17,11.75" style="fill:none;stroke:black;stroke-width:1"/>
<polygon points="11.43716182653216,3.5614889415193094 22.016339320272035,17.124915966299145 18.603040618191184,3.683678320408672" style="fill:none;stroke:black;stroke-width:1"/>
<polygon points="22.016339320272035,17.124915966299145 18.79960696905159,21.441688759100927 18.603040618191184,3.683678320408672" style="fill:none;stroke:black;stroke-width:1"/>
<polygon points="16.552044430148868,9.92474533954407 21.167766022079753,12.754377634845286 18.603040618191184,3.683678320408672" style="fill:none;stroke:black;stroke-width:1"/>
<polygon points="11.465548931291556,11.918200031200776 16.552044430148868,9.92474533954407 18.603040618191184,3.683678320408672" style="fill:none;stroke:black;stroke-width:1"/>
<polygon points="13.278981319383183,21.479514121714004 10.003475074922145,17.19057284756554 18.603040618191184,3.683678320408672" style="fill:none;stroke:black;stroke-width:1"/>
<polygon points="10.003475074922145,17.19057284756554 11.465548931291556,11.918200031200776 18.603040618191184,3.683678320408672" style="fill:none;stroke:black;stroke-width:1"/>
<polygon points="7.156833003382262,16.92043139515494 9.767090070585873,20.384351215941674 17.82386680283942,3.910117208967165" style="fill:none;stroke:black;stroke-width:1"/>
<polygon points="2.870664191296255,17.677204929846397 7.156833003382262,16.92043139515494 17.82386680283942,3.910117208967165" style="fill:none;stroke:black;stroke-width:1"/>
<polygon points="8.549968613076814,26.950382421780226 4.745688481443935,22.973094800776412 17.82386680283942,3.910117208967165" style="fill:none;stroke:black;stroke-width:1"/>
<polygon points="4.745688481443935,22.973094800776412 2.870664191296255,17.677204929846397 17.82386680283942,3.910117208967165" style="fill:none;stroke:black;stroke-width:1"/>
<polygon points="24.497257772333324,21.42380820143573 24.328558150319218,21.429999999999996 23.721526733273425,19.952683063875508" style="fill:none;stroke:black;stroke-width:1"/>
<polygon points="24.328558150319218,21.429999999999996 23.703137601951777,20.11910470233643 23.721526733273425,19.952683063875508" style="fill:none;stroke:black;stroke-width:1"/>
<polygon points="24.328558150319218,21.429999999999996 24.497257772333324,21.42380820143573 19.202332308726728,4.263155898958789" style="fill:none;stroke:black;stroke-width:1"/>
<polygon points="24.157571176346835,21.392967473126536 24.328558150319218,21.429999999999996 19.202332308726728,4.263155898958789" style="fill:none;stroke:black;stroke-width:1"/>
<polygon points="24.328558150319218,21.429999999999996 24.157571176346835,21.392967473126536 24.005643984002944,21.321043471635384" style="fill:none;stroke:black;stroke-width:1"/>
<polygon points="24.345504894956512,18.171413969956923 24.507878248366314,18.13240740412704 25.26032059307483,19.76159863267279" style="fill:none;stroke:black;stroke-width:1"/>
<polygon points="25.278709724396478,19.59517699421187 24.507878248366314,18.13240740412704 24.68,18.13" style="fill:none;stroke:black;stroke-width:1"/>
<polygon points="24.507878248366314,18.13240740412704 25.278709724396478,19.59517699421187 25.26032059307483,19.76159863267279" style="fill:none;stroke:black;stroke-width:1"/>
<polygon points="24.507878248366314,18.13240740412704 1.8657250011873872,20.22052206786926 24.68,18.13" style="fill:none;stroke:black;stroke-width:1"/>
<polygon points="24.507878248366314,18.13240740412704 24.345504894956512,18.171413969956923 1.8657250011873872,20.22052206786926" style="fill:none;stroke:black;stroke-width:1"/>
<polygon points="12.913200279838847,25.67855568957398 13.039119432332686,25.579600936662512 17.72872371632779,4.050603545811085" style="fill:none;stroke:black;stroke-width:1"/>
<polygon points="18.757882221613205,3.74870854337225 12.448166785052017,25.82681623724681 17.72872371632779,4.050603545811085" style="fill:none;stroke:black;stroke-width:1"/>
<polygon points="12.448166785052017,25.82681623724681 12.60613040253649,25.78970430301853 17.72872371632779,4.050603545811085" style="fill:none;stroke:black;stroke-width:1"/>
<polygon points="13.174159579852217,24.680667757182313 13.07921797252263,24.548862834542803 18.895904208355148,3.8480495356719735" style="fill:none;stroke:black;stroke-width:1"/>
<polygon points="13.07921797252263,24.548862834542803 12.960302643974545,24.441034713781985 18.895904208355148,3.8480495356719735" style="fill:none;stroke:black;stroke-width:1"/>
<polygon points="12.822668388328102,24.36020888242358 12.671569999703436,24.309410827991304 18.895904208355148,3.8480495356719735" style="fill:none;stroke:black;stroke-width:1"/>
<polygon points="12.960302643974545,24.441034713781985 12.822668388328102,24.36020888242358 18.895904208355148,3.8480495356719735" style="fill:none;stroke:black;stroke-width:1"/>
<polygon points="11.244254677608684,24.56978353959796 11.086291060124209,24.60689547382624 19.10629854013513,4.121772850754487" style="fill:none;stroke:black;stroke-width:1"/>
<polygon points="11.086291060124209,24.60689547382624 10.928327442639736,24.64400740805452 19.10629854013513,4.121772850754487" style="fill:none;stroke:black;stroke-width:1"/>
<polygon points="24.328558150319218,21.429999999999996 23.68474847063013,20.285526340797354 23.703137601951777,20.11910470233643" style="fill:none;stroke:black;stroke-width:1"/>
<polygon points="23.68474847063013,20.285526340797354 24.005643984002944,21.321043471635384 23.666359339308478,20.451947979258275" style="fill:none;stroke:black;stroke-width:1"/>
<polygon points="23.68474847063013,20.285526340797354 24.328558150319218,21.429999999999996 24.005643984002944,21.321043471635384" style="fill:none;stroke:black;stroke-width:1"/>
<polygon points="10.770363825155261,24.6811193422828 10.610775314020366,24.722613498815207 23.666359339308478,20.451947979258275" style="fill:none;stroke:black;stroke-width:1"/>
<polygon points="10.610775314020366,24.722613498815207 23.68474847063013,20.285526340797354 23.666359339308478,20.451947979258275" style="fill:none;stroke:black;stroke-width:1"/>
<polygon points="23.68474847063013,20.285526340797354 10.610775314020366,24.722613498815207 10.46376031614475,24.79334590225439" style="fill:none;stroke:black;stroke-width:1"/>
<polygon points="10.121740430892286,25.312289740618652 23.739915864595076,19.786261425414587 23.721526733273425,19.952683063875508" style="fill:none;stroke:black;stroke-width:1"/>
<polygon points="7.633922400864119,8.6146089821018 8.222136045278607,11.105096100709396 7.5256145056478125,8.755306070979648" style="fill:none;stroke:black;stroke-width:1"/>
<polygon points="8.222136045278607,11.105096100709396 8.159241647522151,11.269655415387243 7.5256145056478125,8.755306070979648" style="fill:none;stroke:black;stroke-width:1"/>
<polygon points="8.159241647522151,11.269655415387243 8.222136045278607,11.105096100709396 8.599502431817339,10.117740212642305" style="fill:none;stroke:black;stroke-width:1"/>
<polygon points="6.758915085069441,10.730509845914202 7.17,11.75 6.703983305507531,10.903065993019393" style="fill:none;stroke:black;stroke-width:1"/>
<polygon points="6.758915085069441,10.730509845914202 6.821809482825897,10.565950531236354 7.17,11.75" style="fill:none;stroke:black;stroke-width:1"/>
<polygon points="6.758915085069441,10.730509845914202 6.703983305507531,10.903065993019393 17.889662314083996,4.996169517956986" style="fill:none;stroke:black;stroke-width:1"/>
<polygon points="6.821809482825897,10.565950531236354 6.758915085069441,10.730509845914202 17.889662314083996,4.996169517956986" style="fill:none;stroke:black;stroke-width:1"/>
<polygon points="12.60613040253649,25.78970430301853 12.765739710779465,25.748589777710897 17.72872371632779,4.050603545811085" style="fill:none;stroke:black;stroke-width:1"/>
<polygon points="12.765739710779465,25.748589777710897 12.913200279838847,25.67855568957398 17.72872371632779,4.050603545811085" style="fill:none;stroke:black;stroke-width:1"/>
<polygon points="12.290203167567542,25.86392817147509 18.757882221613205,3.74870854337225 12.132239550083069,25.901040105703373" style="fill:none;stroke:black;stroke-width:1"/>
<polygon points="12.290203167567542,25.86392817147509 12.448166785052017,25.82681623724681 18.757882221613205,3.74870854337225" style="fill:none;stroke:black;stroke-width:1"/>
<polygon points="13.239872671843171,24.833423994176805 13.174159579852217,24.680667757182313 18.895904208355148,3.8480495356719735" style="fill:none;stroke:black;stroke-width:1"/>
<polygon points="13.267459876930022,24.998650329420936 13.239872671843171,24.833423994176805 18.895904208355148,3.8480495356719735" style="fill:none;stroke:black;stroke-width:1"/>
<polygon points="13.25766739055965,25.16125021535571 13.267459876930022,24.998650329420936 18.895904208355148,3.8480495356719735" style="fill:none;stroke:black;stroke-width:1"/>
<polygon points="11.560181912577631,24.4955596711414 11.402218295093157,24.53267160536968 19.010264771543525,3.9803898025501843" style="fill:none;stroke:black;stroke-width:1"/>
<polygon points="11.718145530062104,24.45844773691312 11.560181912577631,24.4955596711414 19.010264771543525,3.9803898025501843" style="fill:none;stroke:black;stroke-width:1"/>
<polygon points="12.034072765031052,24.38422386845656 11.876109147546579,24.42133580268484 19.010264771543525,3.9803898025501843" style="fill:none;stroke:black;stroke-width:1"/>
<polygon points="11.876109147546579,24.42133580268484 11.718145530062104,24.45844773691312 19.010264771543525,3.9803898025501843" style="fill:none;stroke:black;stroke-width:1"/>
<polygon points="12.671569999703436,24.309410827991304 12.512262272220688,24.29166603800887 19.010264771543525,3.9803898025501843" style="fill:none;stroke:black;stroke-width:1"/>
<polygon points="12.512262272220688,24.29166603800887 12.35,24.31 19.010264771543525,3.9803898025501843" style="fill:none;stroke:black;stroke-width:1"/>
<polygon points="12.192036382515527,24.34711193422828 12.034072765031052,24.38422386845656 19.010264771543525,3.9803898025501843" style="fill:none;stroke:black;stroke-width:1"/>
<polygon points="12.35,24.31 12.192036382515527,24.34711193422828 19.010264771543525,3.9803898025501843" style="fill:none;stroke:black;stroke-width:1"/>
<polygon points="23.703137601951777,20.11910470233643 10.164347186295643,25.157559152551435 23.721526733273425,19.952683063875508" style="fill:none;stroke:black;stroke-width:1"/>
<polygon points="10.164347186295643,25.157559152551435 10.121740430892286,25.312289740618652 23.721526733273425,19.952683063875508" style="fill:none;stroke:black;stroke-width:1"/>
<polygon points="23.739915864595076,19.786261425414587 10.112725986072318,25.475010493324156 23.758304995916724,19.619839786953666" style="fill:none;stroke:black;stroke-width:1"/>
<polygon points="10.121740430892286,25.312289740618652 10.112725986072318,25.475010493324156 23.739915864595076,19.786261425414587" style="fill:none;stroke:black;stroke-width:1"/>
<polygon points="23.758304995916724,19.619839786953666 10.112725986072318,25.475010493324156 23.776694127238372,19.45341814849274" style="fill:none;stroke:black;stroke-width:1"/>
<polygon points="8.285030443035062,10.940536786031547 7.633922400864119,8.6146089821018 7.769202147924267,8.505436635104305" style="fill:none;stroke:black;stroke-width:1"/>
<polygon points="8.285030443035062,10.940536786031547 8.222136045278607,11.105096100709396 7.633922400864119,8.6146089821018" style="fill:none;stroke:black;stroke-width:1"/>
<polygon points="8.285030443035062,10.940536786031547 7.769202147924267,8.505436635104305 7.92445242643129,8.43058955814595" style="fill:none;stroke:black;stroke-width:1"/>
<polygon points="8.222136045278607,11.105096100709396 8.285030443035062,10.940536786031547 8.599502431817339,10.117740212642305" style="fill:none;stroke:black;stroke-width:1"/>
<polygon points="13.140501068274853,25.456929271583988 13.214349087679217,25.31574444694589 18.895904208355148,3.8480495356719735" style="fill:none;stroke:black;stroke-width:1"/>
<polygon points="13.214349087679217,25.31574444694589 13.25766739055965,25.16125021535571 18.895904208355148,3.8480495356719735" style="fill:none;stroke:black;stroke-width:1"/>
<polygon points="23.68474847063013,20.285526340797354 10.338353228908005,24.892883480761814 23.703137601951777,20.11910470233643" style="fill:none;stroke:black;stroke-width:1"/>
<polygon points="10.338353228908005,24.892883480761814 23.68474847063013,20.285526340797354 10.46376031614475,24.79334590225439" style="fill:none;stroke:black;stroke-width:1"/>
<polygon points="10.140536029538264,25.64087795005837 23.795083258560023,19.28699651003182 23.776694127238372,19.45341814849274" style="fill:none;stroke:black;stroke-width:1"/>
<polygon points="10.112725986072318,25.475010493324156 10.140536029538264,25.64087795005837 23.776694127238372,19.45341814849274" style="fill:none;stroke:black;stroke-width:1"/>
<polygon points="23.795083258560023,19.28699651003182 10.140536029538264,25.64087795005837 23.81347238988167,19.1205748715709" style="fill:none;stroke:black;stroke-width:1"/>
<polygon points="8.09267191598822,8.392868279385524 8.347924840791517,10.775977471353698 7.92445242643129,8.43058955814595" style="fill:none;stroke:black;stroke-width:1"/>
<polygon points="8.347924840791517,10.775977471353698 8.285030443035062,10.940536786031547 7.92445242643129,8.43058955814595" style="fill:none;stroke:black;stroke-width:1"/>
<polygon points="8.285030443035062,10.940536786031547 8.347924840791517,10.775977471353698 8.599502431817339,10.117740212642305" style="fill:none;stroke:black;stroke-width:1"/>
<polygon points="10.23755015229626,25.016022481729994 10.164347186295643,25.157559152551435 23.703137601951777,20.11910470233643" style="fill:none;stroke:black;stroke-width:1"/>
<polygon points="10.338353228908005,24.892883480761814 10.23755015229626,25.016022481729994 23.703137601951777,20.11910470233643" style="fill:none;stroke:black;stroke-width:1"/>
<polygon points="10.204301835307902,25.795267171872062 23.8502951376599,18.78761094735344 23.83186152120332,18.954153233109974" style="fill:none;stroke:black;stroke-width:1"/>
<polygon points="23.8502951376599,18.78761094735344 10.204301835307902,25.795267171872062 10.29765027508363,25.927522484235798" style="fill:none;stroke:black;stroke-width:1"/>
<polygon points="23.81347238988167,19.1205748715709 10.204301835307902,25.795267171872062 23.83186152120332,18.954153233109974" style="fill:none;stroke:black;stroke-width:1"/>
<polygon points="10.140536029538264,25.64087795005837 10.204301835307902,25.795267171872062 23.81347238988167,19.1205748715709" style="fill:none;stroke:black;stroke-width:1"/>
<polygon points="8.410819238547973,10.611418156675851 8.09267191598822,8.392868279385524 8.266859296198088,8.395073326981812" style="fill:none;stroke:black;stroke-width:1"/>
<polygon points="8.410819238547973,10.611418156675851 8.347924840791517,10.775977471353698 8.09267191598822,8.392868279385524" style="fill:none;stroke:black;stroke-width:1"/>
<polygon points="8.410819238547973,10.611418156675851 8.266859296198088,8.395073326981812 8.440013584351727,8.440005224895012" style="fill:none;stroke:black;stroke-width:1"/>
<polygon points="8.347924840791517,10.775977471353698 8.536608034060883,10.282299527320154 8.599502431817339,10.117740212642305" style="fill:none;stroke:black;stroke-width:1"/>
<polygon points="8.410819238547973,10.611418156675851 8.536608034060883,10.282299527320154 8.347924840791517,10.775977471353698" style="fill:none;stroke:black;stroke-width:1"/>
<polygon points="8.536608034060883,10.282299527320154 8.732100491403395,8.640705051142046 8.599502431817339,10.117740212642305" style="fill:none;stroke:black;stroke-width:1"/>
<polygon points="8.536608034060883,10.282299527320154 8.600823032911778,8.5248317691149 8.732100491403395,8.640705051142046" style="fill:none;stroke:black;stroke-width:1"/>
<polygon points="8.600823032911778,8.5248317691149 8.473713636304428,10.446858841998003 8.440013584351727,8.440005224895012" style="fill:none;stroke:black;stroke-width:1"/>
<polygon points="8.536608034060883,10.282299527320154 8.473713636304428,10.446858841998003 8.600823032911778,8.5248317691149" style="fill:none;stroke:black;stroke-width:1"/>
<polygon points="8.473713636304428,10.446858841998003 8.410819238547973,10.611418156675851 8.440013584351727,8.440005224895012" style="fill:none;stroke:black;stroke-width:1"/>
<polygon points="8.473713636304428,10.446858841998003 8.536608034060883,10.282299527320154 8.410819238547973,10.611418156675851" style="fill:none;stroke:black;stroke-width:1"/>
<polygon points="11.3424214626607,26.08659977684477 25.90279025206953,24.729697258767853 11.184457845176226,26.123711711073053" style="fill:none;stroke:black;stroke-width:1"/>
<polygon points="11.184457845176226,26.123711711073053 25.90279025206953,24.729697258767853 21.48770681052677,28.030014144663923" style="fill:none;stroke:black;stroke-width:1"/>
<polygon points="10.704980296589298,26.16386885860534 26.799499804943483,5.967458465283478 22.364338770453603,2.696139488790786" style="fill:none;stroke:black;stroke-width:1"/>
<polygon points="10.704980296589298,26.16386885860534 22.364338770453603,2.696139488790786 10.553010615910134,26.114584938204633" style="fill:none;stroke:black;stroke-width:1"/>
<polygon points="29.73883705944022,10.645313792060396 10.704980296589298,26.16386885860534 10.866648914748572,26.17999899176085" style="fill:none;stroke:black;stroke-width:1"/>
<polygon points="10.704980296589298,26.16386885860534 29.73883705944022,10.645313792060396 26.799499804943483,5.967458465283478" style="fill:none;stroke:black;stroke-width:1"/>
<polygon points="16.878769890914135,1.27590284452795 10.415560238679642,26.034882276547386 10.553010615910134,26.114584938204633" style="fill:none;stroke:black;stroke-width:1"/>
<polygon points="22.364338770453603,2.696139488790786 16.878769890914135,1.27590284452795 10.553010615910134,26.114584938204633" style="fill:none;stroke:black;stroke-width:1"/>
<polygon points="10.415560238679642,26.034882276547386 16.878769890914135,1.27590284452795 10.29765027508363,25.927522484235798" style="fill:none;stroke:black;stroke-width:1"/>
<polygon points="16.878769890914135,1.27590284452795 11.075505242221691,2.0586793272706054 10.29765027508363,25.927522484235798" style="fill:none;stroke:black;stroke-width:1"/>
<polygon points="19.754337932879288,30.28934824897894 30.73,16.27 24.797060336676658,27.911229676766464" style="fill:none;stroke:black;stroke-width:1"/>
<polygon points="30.73,16.27 1.3414322087519857,14.522196179563924 2.92473551671363,9.124158716692595" style="fill:none;stroke:black;stroke-width:1"/>
<polygon points="23.239922901456964,18.268418126948742 30.73,16.27 27.096552877181516,17.23994149109438" style="fill:none;stroke:black;stroke-width:1"/>
<polygon points="30.73,16.27 1.8657250011873872,20.22052206786926 1.3414322087519857,14.522196179563924" style="fill:none;stroke:black;stroke-width:1"/>
<polygon points="30.73,16.27 21.581731133200563,10.814413538347676 24.249228672757067,15.628898108469262" style="fill:none;stroke:black;stroke-width:1"/>
<polygon points="30.73,16.27 27.75921116440668,9.916260358180459 24.26760089743918,5.655562231844316" style="fill:none;stroke:black;stroke-width:1"/>
<polygon points="30.73,16.27 11.43716182653216,3.5614889415193094 6.7641634831299955,6.52011788520265" style="fill:none;stroke:black;stroke-width:1"/>
<polygon points="19.297358624744945,3.1652426818213564 30.73,16.27 24.26760089743918,5.655562231844316" style="fill:none;stroke:black;stroke-width:1"/>
<polygon points="30.73,16.27 16.878769890914135,1.27590284452795 22.364338770453603,2.696139488790786" style="fill:none;stroke:black;stroke-width:1"/>
<polygon points="28.767194067382924,14.765399800943102 30.73,16.27 24.249228672757067,15.628898108469262" style="fill:none;stroke:black;stroke-width:1"/>
<polygon points="16.63252252003921,8.405150791318327 30.73,16.27 11.298797058253536,10.024506803817136" style="fill:none;stroke:black;stroke-width:1"/>
<polygon points="3.7042307425042766,11.11723736460433 30.73,16.27 6.7641634831299955,6.52011788520265" style="fill:none;stroke:black;stroke-width:1"/>
<polygon points="30.73,16.27 8.505419966325086,14.744565247616396 11.298797058253536,10.024506803817136" style="fill:none;stroke:black;stroke-width:1"/>
<polygon points="30.73,16.27 13.73160919086401,29.055760900352205 21.167766022079753,12.754377634845286" style="fill:none;stroke:black;stroke-width:1"/>
<polygon points="30.73,16.27 8.58733444984968,28.74707415801297 4.43248770946955,25.13954397698594" style="fill:none;stroke:black;stroke-width:1"/>
<polygon points="30.73,16.27 14.305020481410555,23.424625719023165 9.767090070585873,20.384351215941674" style="fill:none;stroke:black;stroke-width:1"/>
<polygon points="30.73,16.27 28.611134912228266,19.890949208161427 27.096552877181516,17.23994149109438" style="fill:none;stroke:black;stroke-width:1"/>
<polygon points="25.90279025206953,24.729697258767853 30.73,16.27 21.48770681052677,28.030014144663923" style="fill:none;stroke:black;stroke-width:1"/>
<polygon points="30.73,16.27 28.495000651838204,23.9001712839876 24.797060336676658,27.911229676766464" style="fill:none;stroke:black;stroke-width:1"/>
<polygon points="21.581731133200563,10.814413538347676 30.73,16.27 16.63252252003921,8.405150791318327" style="fill:none;stroke:black;stroke-width:1"/>
<polygon points="30.73,16.27 3.7042307425042766,11.11723736460433 3.8458563424119685,15.175221174365083" style="fill:none;stroke:black;stroke-width:1"/>
<polygon points="8.505419966325086,14.744565247616396 30.73,16.27 3.8458563424119685,15.175221174365083" style="fill:none;stroke:black;stroke-width:1"/>
<polygon points="6.289365184930393,4.8221349649093765 30.73,16.27 2.92473551671363,9.124158716692595" style="fill:none;stroke:black;stroke-width:1"/>
<polygon points="30.73,16.27 22.016339320272035,17.124915966299145 11.43716182653216,3.5614889415193094" style="fill:none;stroke:black;stroke-width:1"/>
<polygon points="1.8657250011873872,20.22052206786926 30.73,16.27 4.43248770946955,25.13954397698594" style="fill:none;stroke:black;stroke-width:1"/>
<polygon points="30.73,16.27 10.003475074922145,17.19057284756554 13.278981319383183,21.479514121714004" style="fill:none;stroke:black;stroke-width:1"/>
<polygon points="26.799499804943483,5.967458465283478 30.73,16.27 22.364338770453603,2.696139488790786" style="fill:none;stroke:black;stroke-width:1"/>
<polygon points="29.73883705944022,10.645313792060396 30.73,16.27 26.799499804943483,5.967458465283478" style="fill:none;stroke:black;stroke-width:1"/>
<polygon points="14.305020481410555,23.424625719023165 30.73,16.27 19.850527053181537,22.545271136664127" style="fill:none;stroke:black;stroke-width:1"/>
<polygon points="30.73,16.27 23.239922901456964,18.268418126948742 19.850527053181537,22.545271136664127" style="fill:none;stroke:black;stroke-width:1"/>
<polygon points="30.73,16.27 25.90279025206953,24.729697258767853 28.611134912228266,19.890949208161427" style="fill:none;stroke:black;stroke-width:1"/>
<polygon points="27.75921116440668,9.916260358180459 30.73,16.27 28.767194067382924,14.765399800943102" style="fill:none;stroke:black;stroke-width:1"/>
<polygon points="28.495000651838204,23.9001712839876 30.73,16.27 30.488342907183366,18.698727473698646" style="fill:none;stroke:black;stroke-width:1"/>
<polygon points="30.73,16.27 19.297358624744945,3.1652426818213564 30.488342907183366,18.698727473698646" style="fill:none;stroke:black;stroke-width:1"/>
<polygon points="18.79960696905159,21.441688759100927 30.73,16.27 13.278981319383183,21.479514121714004" style="fill:none;stroke:black;stroke-width:1"/>
<polygon points="16.552044430148868,9.92474533954407 30.73,16.27 21.167766022079753,12.754377634845286" style="fill:none;stroke:black;stroke-width:1"/>
<polygon points="13.73160919086401,29.055760900352205 30.73,16.27 8.549968613076814,26.950382421780226" style="fill:none;stroke:black;stroke-width:1"/>
<polygon points="7.156833003382262,16.92043139515494 30.73,16.27 9.767090070585873,20.384351215941674" style="fill:none;stroke:black;stroke-width:1"/>
<polygon points="8.58733444984968,28.74707415801297 30.73,16.27 13.885929584327261,30.598776972949835" style="fill:none;stroke:black;stroke-width:1"/>
<polygon points="30.73,16.27 19.754337932879288,30.28934824897894 13.885929584327261,30.598776972949835" style="fill:none;stroke:black;stroke-width:1"/>
<polygon points="30.73,16.27 4.745688481443935,22.973094800776412 8.549968613076814,26.950382421780226" style="fill:none;stroke:black;stroke-width:1"/>
<polygon points="16.878769890914135,1.27590284452795 30.73,16.27 11.075505242221691,2.0586793272706054" style="fill:none;stroke:black;stroke-width:1"/>
<polygon points="30.73,16.27 6.289365184930393,4.8221349649093765 11.075505242221691,2.0586793272706054" style="fill:none;stroke:black;stroke-width:1"/>
<polygon points="22.016339320272035,17.124915966299145 30.73,16.27 18.79960696905159,21.441688759100927" style="fill:none;stroke:black;stroke-width:1"/>
<polygon points="30.73,16.27 16.552044430148868,9.92474533954407 11.465548931291556,11.918200031200776" style="fill:none;stroke:black;stroke-width:1"/>
<polygon points="10.003475074922145,17.19057284756554 30.73,16.27 11.465548931291556,11.918200031200776" style="fill:none;stroke:black;stroke-width:1"/>
<polygon points="30.73,16.27 7.156833003382262,16.92043139515494 2.870664191296255,17.677204929846397" style="fill:none;stroke:black;stroke-width:1"/>
<polygon points="4.745688481443935,22.973094800776412 30.73,16.27 2.870664191296255,17.677204929846397" style="fill:none;stroke:black;stroke-width:1"/>
<polygon points="30.73,16.27 11.026850530897129,26.16122852774594 11.184457845176226,26.123711711073053" style="fill:none;stroke:black;stroke-width:1"/>
<polygon points="30.73,16.27 11.184457845176226,26.123711711073053 21.48770681052677,28.030014144663923" style="fill:none;stroke:black;stroke-width:1"/>
<polygon points="11.026850530897129,26.16122852774594 30.73,16.27 10.866648914748572,26.17999899176085" style="fill:none;stroke:black;stroke-width:1"/>
<polygon points="30.73,16.27 29.73883705944022,10.645313792060396 10.866648914748572,26.17999899176085" style="fill:none;stroke:black;stroke-width:1"/>
<polygon points="10.204301835307902,25.795267171872062 12.132239550083069,25.901040105703373 11.974275932598594,25.93815203993165" style="fill:none;stroke:black;stroke-width:1"/>
<polygon points="11.816312315114121,25.975263974159933 10.204301835307902,25.795267171872062 11.974275932598594,25.93815203993165" style="fill:none;stroke:black;stroke-width:1"/>
<polygon points="10.204301835307902,25.795267171872062 11.876109147546579,24.42133580268484 12.034072765031052,24.38422386845656" style="fill:none;stroke:black;stroke-width:1"/>
<polygon points="10.204301835307902,25.795267171872062 10.415560238679642,26.034882276547386 10.29765027508363,25.927522484235798" style="fill:none;stroke:black;stroke-width:1"/>
<polygon points="10.204301835307902,25.795267171872062 11.658348697629647,26.01237590838821 11.500385080145174,26.049487842616493" style="fill:none;stroke:black;stroke-width:1"/>
<polygon points="11.3424214626607,26.08659977684477 10.204301835307902,25.795267171872062 11.500385080145174,26.049487842616493" style="fill:none;stroke:black;stroke-width:1"/>
<polygon points="10.204301835307902,25.795267171872062 12.290203167567542,25.86392817147509 12.132239550083069,25.901040105703373" style="fill:none;stroke:black;stroke-width:1"/>
<polygon points="10.204301835307902,25.795267171872062 11.026850530897129,26.16122852774594 10.866648914748572,26.17999899176085" style="fill:none;stroke:black;stroke-width:1"/>
<polygon points="10.415560238679642,26.034882276547386 10.204301835307902,25.795267171872062 10.553010615910134,26.114584938204633" style="fill:none;stroke:black;stroke-width:1"/>
<polygon points="10.704980296589298,26.16386885860534 10.204301835307902,25.795267171872062 10.866648914748572,26.17999899176085" style="fill:none;stroke:black;stroke-width:1"/>
<polygon points="10.204301835307902,25.795267171872062 11.244254677608684,24.56978353959796 11.402218295093157,24.53267160536968" style="fill:none;stroke:black;stroke-width:1"/>
<polygon points="11.658348697629647,26.01237590838821 10.204301835307902,25.795267171872062 11.816312315114121,25.975263974159933" style="fill:none;stroke:black;stroke-width:1"/>
<polygon points="11.026850530897129,26.16122852774594 10.204301835307902,25.795267171872062 11.184457845176226,26.123711711073053" style="fill:none;stroke:black;stroke-width:1"/>
<polygon points="10.204301835307902,25.795267171872062 11.3424214626607,26.08659977684477 11.184457845176226,26.123711711073053" style="fill:none;stroke:black;stroke-width:1"/>
<polygon points="12.913200279838847,25.67855568957398 10.204301835307902,25.795267171872062 13.039119432332686,25.579600936662512" style="fill:none;stroke:black;stroke-width:1"/>
<polygon points="10.204301835307902,25.795267171872062 12.765739710779465,25.748589777710897 12.60613040253649,25.78970430301853" style="fill:none;stroke:black;stroke-width:1"/>
<polygon points="12.822668388328102,24.36020888242358 10.204301835307902,25.795267171872062 12.671569999703436,24.309410827991304" style="fill:none;stroke:black;stroke-width:1"/>
<polygon points="10.204301835307902,25.795267171872062 10.704980296589298,26.16386885860534 10.553010615910134,26.114584938204633" style="fill:none;stroke:black;stroke-width:1"/>
<polygon points="10.204301835307902,25.795267171872062 10.610775314020366,24.722613498815207 10.770363825155261,24.6811193422828" style="fill:none;stroke:black;stroke-width:1"/>
<polygon points="10.204301835307902,25.795267171872062 13.140501068274853,25.456929271583988 13.039119432332686,25.579600936662512" style="fill:none;stroke:black;stroke-width:1"/>
<polygon points="10.204301835307902,25.795267171872062 13.07921797252263,24.548862834542803 13.174159579852217,24.680667757182313" style="fill:none;stroke:black;stroke-width:1"/>
<polygon points="10.204301835307902,25.795267171872062 10.338353228908005,24.892883480761814 10.46376031614475,24.79334590225439" style="fill:none;stroke:black;stroke-width:1"/>
<polygon points="10.928327442639736,24.64400740805452 10.204301835307902,25.795267171872062 10.770363825155261,24.6811193422828" style="fill:none;stroke:black;stroke-width:1"/>
<polygon points="10.204301835307902,25.795267171872062 11.086291060124209,24.60689547382624 11.244254677608684,24.56978353959796" style="fill:none;stroke:black;stroke-width:1"/>
<polygon points="10.204301835307902,25.795267171872062 13.214349087679217,25.31574444694589 13.140501068274853,25.456929271583988" style="fill:none;stroke:black;stroke-width:1"/>
<polygon points="12.448166785052017,25.82681623724681 10.204301835307902,25.795267171872062 12.60613040253649,25.78970430301853" style="fill:none;stroke:black;stroke-width:1"/>
<polygon points="13.239872671843171,24.833423994176805 10.204301835307902,25.795267171872062 13.174159579852217,24.680667757182313" style="fill:none;stroke:black;stroke-width:1"/>
<polygon points="13.07921797252263,24.548862834542803 10.204301835307902,25.795267171872062 12.960302643974545,24.441034713781985" style="fill:none;stroke:black;stroke-width:1"/>
<polygon points="10.204301835307902,25.795267171872062 12.822668388328102,24.36020888242358 12.960302643974545,24.441034713781985" style="fill:none;stroke:black;stroke-width:1"/>
<polygon points="11.560181912577631,24.4955596711414 10.204301835307902,25.795267171872062 11.402218295093157,24.53267160536968" style="fill:none;stroke:black;stroke-width:1"/>
<polygon points="10.204301835307902,25.795267171872062 12.512262272220688,24.29166603800887 12.671569999703436,24.309410827991304" style="fill:none;stroke:black;stroke-width:1"/>
<polygon points="11.086291060124209,24.60689547382624 10.204301835307902,25.795267171872062 10.928327442639736,24.64400740805452" style="fill:none;stroke:black;stroke-width:1"/>
<polygon points="10.610775314020366,24.722613498815207 10.204301835307902,25.795267171872062 10.46376031614475,24.79334590225439" style="fill:none;stroke:black;stroke-width:1"/>
<polygon points="12.192036382515527,24.34711193422828 10.204301835307902,25.795267171872062 12.034072765031052,24.38422386845656" style="fill:none;stroke:black;stroke-width:1"/>
<polygon points="12.765739710779465,25.748589777710897 10.204301835307902,25.795267171872062 12.913200279838847,25.67855568957398" style="fill:none;stroke:black;stroke-width:1"/>
<polygon points="12.290203167567542,25.86392817147509 10.204301835307902,25.795267171872062 12.448166785052017,25.82681623724681" style="fill:none;stroke:black;stroke-width:1"/>
<polygon points="10.204301835307902,25.795267171872062 13.239872671843171,24.833423994176805 13.267459876930022,24.998650329420936" style="fill:none;stroke:black;stroke-width:1"/>
<polygon points="13.25766739055965,25.16125021535571 10.204301835307902,25.795267171872062 13.267459876930022,24.998650329420936" style="fill:none;stroke:black;stroke-width:1"/>
<polygon points="10.204301835307902,25.795267171872062 11.560181912577631,24.4955596711414 11.718145530062104,24.45844773691312" style="fill:none;stroke:black;stroke-width:1"/>
<polygon points="11.876109147546579,24.42133580268484 10.204301835307902,25.795267171872062 11.718145530062104,24.45844773691312" style="fill:none;stroke:black;stroke-width:1"/>
<polygon points="12.512262272220688,24.29166603800887 10.204301835307902,25.795267171872062 12.35,24.31" style="fill:none;stroke:black;stroke-width:1"/>
<polygon points="10.204301835307902,25.795267171872062 12.192036382515527,24.34711193422828 12.35,24.31" style="fill:none;stroke:black;stroke-width:1"/>
<polygon points="10.164347186295643,25.157559152551435 10.204301835307902,25.795267171872062 10.121740430892286,25.312289740618652" style="fill:none;stroke:black;stroke-width:1"/>
<polygon points="10.204301835307902,25.795267171872062 10.112725986072318,25.475010493324156 10.121740430892286,25.312289740618652" style="fill:none;stroke:black;stroke-width:1"/>
<polygon points="13.214349087679217,25.31574444694589 10.204301835307902,25.795267171872062 13.25766739055965,25.16125021535571" style="fill:none;stroke:black;stroke-width:1"/>
<polygon points="10.23755015229626,25.016022481729994 10.204301835307902,25.795267171872062 10.164347186295643,25.157559152551435" style="fill:none;stroke:black;stroke-width:1"/>
<polygon points="10.204301835307902,25.795267171872062 10.140536029538264,25.64087795005837 10.112725986072318,25.475010493324156" style="fill:none;stroke:black;stroke-width:1"/>
<polygon points="10.204301835307902,25.795267171872062 10.23755015229626,25.016022481729994 10.338353228908005,24.892883480761814" style="fill:none;stroke:black;stroke-width:1"/>
</svg>
