<?xml version="1.0" encoding="UTF-8" standalone="no"?>
<svg xmlns="http://www.w3.org/2000/svg" version="1.1" width="800" height="800">
<polygon points="15.977639733503416,20.598701121740934 17.58429654409391,18.96448984012911 18.543031900326465,20.70933277712642" style="fill:none;stroke:black;stroke-width:1"/>
<polygon points="15.196181247418217,11.36611181205976 13.167125025564776,11.08961023965745 13.78566706643047,9.441788726395895" style="fill:none;stroke:black;stroke-width:1"/>
<polygon points="21.92013825828047,6.268043142221398 22.069340538430033,4.651362064942935 23.65984479019731,6.326773450629373" style="fill:none;stroke:black;stroke-width:1"/>
<polygon points="18.080414050982267,4.309497278077377 12.222395628395713,6.579941095815806 17.86351727235692,2.9610291253854513" style="fill:none;stroke:black;stroke-width:1"/>
<polygon points="12.631080244273983,8.937809513783247 12.776896551724139,10.08551724137931 11.485450184602541,7.792107285046655" style="fill:none;stroke:black;stroke-width:1"/>
<polygon points="13.167125025564776,11.08961023965745 12.776896551724139,10.08551724137931 13.78566706643047,9.441788726395895" style="fill:none;stroke:black;stroke-width:1"/>
<polygon points="12.776896551724139,10.08551724137931 12.631080244273983,8.937809513783247 13.78566706643047,9.441788726395895" style="fill:none;stroke:black;stroke-width:1"/>
<polygon points="11.703029824718355,5.548265397878285 11.992408326256207,6.90531930494809 11.485450184602541,7.792107285046655" style="fill:none;stroke:black;stroke-width:1"/>
<polygon points="11.992408326256207,6.90531930494809 12.631080244273983,8.937809513783247 11.485450184602541,7.792107285046655" style="fill:none;stroke:black;stroke-width:1"/>
<polygon points="13.53937428442319,4.276201398030704 11.992408326256207,6.90531930494809 11.703029824718355,5.548265397878285" style="fill:none;stroke:black;stroke-width:1"/>
<polygon points="20.57664825348937,19.64382234031973 19.727320999431484,18.19474501086481 21.735125803978278,16.96573522474304" style="fill:none;stroke:black;stroke-width:1"/>
<polygon points="19.727320999431484,18.19474501086481 20.57664825348937,19.64382234031973 18.543031900326465,20.70933277712642" style="fill:none;stroke:black;stroke-width:1"/>
<polygon points="17.58429654409391,18.96448984012911 19.727320999431484,18.19474501086481 18.543031900326465,20.70933277712642" style="fill:none;stroke:black;stroke-width:1"/>
<polygon points="20.15213857018758,15.416802026956317 21.78940445372295,15.12648778593702 21.735125803978278,16.96573522474304" style="fill:none;stroke:black;stroke-width:1"/>
<polygon points="19.727320999431484,18.19474501086481 20.15213857018758,15.416802026956317 21.735125803978278,16.96573522474304" style="fill:none;stroke:black;stroke-width:1"/>
<polygon points="16.13588665768973,9.51126714902537 15.196181247418217,11.36611181205976 13.78566706643047,9.441788726395895" style="fill:none;stroke:black;stroke-width:1"/>
<polygon points="15.196181247418217,11.36611181205976 16.13588665768973,9.51126714902537 17.580743653367218,11.307979534745035" style="fill:none;stroke:black;stroke-width:1"/>
<polygon points="21.92013825828047,6.268043142221398 19.92287063716941,5.248755604056648 22.069340538430033,4.651362064942935" style="fill:none;stroke:black;stroke-width:1"/>
<polygon points="17.86351727235692,2.9610291253854513 15.83495812057972,3.738403496270281 15.521530160412485,3.25071637733201" style="fill:none;stroke:black;stroke-width:1"/>
<polygon points="13.969297011553238,5.04282260020452 11.992408326256207,6.90531930494809 13.53937428442319,4.276201398030704" style="fill:none;stroke:black;stroke-width:1"/>
<polygon points="11.992408326256207,6.90531930494809 13.969297011553238,5.04282260020452 12.631080244273983,8.937809513783247" style="fill:none;stroke:black;stroke-width:1"/>
<polygon points="13.969297011553238,5.04282260020452 13.53937428442319,4.276201398030704 15.521530160412485,3.25071637733201" style="fill:none;stroke:black;stroke-width:1"/>
<polygon points="23.470736415356093,8.696407486212605 21.92013825828047,6.268043142221398 23.65984479019731,6.326773450629373" style="fill:none;stroke:black;stroke-width:1"/>
<polygon points="21.78940445372295,15.12648778593702 23.470736415356093,8.696407486212605 21.735125803978278,16.96573522474304" style="fill:none;stroke:black;stroke-width:1"/>
<polygon points="23.470736415356093,8.696407486212605 21.78940445372295,15.12648778593702 22.093361161426575,12.856138551973405" style="fill:none;stroke:black;stroke-width:1"/>
<polygon points="12.825588622779932,12.485482782567233 12.776896551724139,10.08551724137931 13.167125025564776,11.08961023965745" style="fill:none;stroke:black;stroke-width:1"/>
<polygon points="12.776896551724139,10.08551724137931 12.825588622779932,12.485482782567233 11.485450184602541,7.792107285046655" style="fill:none;stroke:black;stroke-width:1"/>
<polygon points="19.97903544611198,11.259281727157045 19.248821768198304,12.093591029134624 17.580743653367218,11.307979534745035" style="fill:none;stroke:black;stroke-width:1"/>
<polygon points="20.15213857018758,15.416802026956317 20.221328030543173,13.385894791783453 21.78940445372295,15.12648778593702" style="fill:none;stroke:black;stroke-width:1"/>
<polygon points="21.78940445372295,15.12648778593702 20.221328030543173,13.385894791783453 22.093361161426575,12.856138551973405" style="fill:none;stroke:black;stroke-width:1"/>
<polygon points="20.221328030543173,13.385894791783453 19.97903544611198,11.259281727157045 22.093361161426575,12.856138551973405" style="fill:none;stroke:black;stroke-width:1"/>
<polygon points="19.97903544611198,11.259281727157045 20.221328030543173,13.385894791783453 19.248821768198304,12.093591029134624" style="fill:none;stroke:black;stroke-width:1"/>
<polygon points="20.859093762279628,23.26970997265454 19.727320999431484,18.19474501086481 17.58429654409391,18.96448984012911" style="fill:none;stroke:black;stroke-width:1"/>
<polygon points="19.727320999431484,18.19474501086481 20.859093762279628,23.26970997265454 20.98521714603352,23.15419125692831" style="fill:none;stroke:black;stroke-width:1"/>
<polygon points="19.465838262719515,23.964511809547965 19.62477605431647,23.902054832409917 17.58429654409391,18.96448984012911" style="fill:none;stroke:black;stroke-width:1"/>
<polygon points="14.869011933231578,9.23000725050501 16.13588665768973,9.51126714902537 13.78566706643047,9.441788726395895" style="fill:none;stroke:black;stroke-width:1"/>
<polygon points="12.631080244273983,8.937809513783247 14.869011933231578,9.23000725050501 13.78566706643047,9.441788726395895" style="fill:none;stroke:black;stroke-width:1"/>
<polygon points="13.969297011553238,5.04282260020452 14.869011933231578,9.23000725050501 12.631080244273983,8.937809513783247" style="fill:none;stroke:black;stroke-width:1"/>
<polygon points="16.13588665768973,9.51126714902537 18.50197438974579,9.578875198804607 17.580743653367218,11.307979534745035" style="fill:none;stroke:black;stroke-width:1"/>
<polygon points="18.50197438974579,9.578875198804607 19.97903544611198,11.259281727157045 17.580743653367218,11.307979534745035" style="fill:none;stroke:black;stroke-width:1"/>
<polygon points="19.97903544611198,11.259281727157045 18.50197438974579,9.578875198804607 20.394509599343653,9.230763348039817" style="fill:none;stroke:black;stroke-width:1"/>
<polygon points="19.92287063716941,5.248755604056648 19.8799597221743,4.166802263876738 22.069340538430033,4.651362064942935" style="fill:none;stroke:black;stroke-width:1"/>
<polygon points="19.8799597221743,4.166802263876738 19.92287063716941,5.248755604056648 18.080414050982267,4.309497278077377" style="fill:none;stroke:black;stroke-width:1"/>
<polygon points="22.069340538430033,4.651362064942935 19.8799597221743,4.166802263876738 17.86351727235692,2.9610291253854513" style="fill:none;stroke:black;stroke-width:1"/>
<polygon points="19.8799597221743,4.166802263876738 18.080414050982267,4.309497278077377 17.86351727235692,2.9610291253854513" style="fill:none;stroke:black;stroke-width:1"/>
<polygon points="21.637026588593354,8.504275468520065 19.92287063716941,5.248755604056648 21.92013825828047,6.268043142221398" style="fill:none;stroke:black;stroke-width:1"/>
<polygon points="23.470736415356093,8.696407486212605 21.637026588593354,8.504275468520065 21.92013825828047,6.268043142221398" style="fill:none;stroke:black;stroke-width:1"/>
<polygon points="22.135587898890705,10.441850360209102 23.470736415356093,8.696407486212605 22.093361161426575,12.856138551973405" style="fill:none;stroke:black;stroke-width:1"/>
<polygon points="19.97903544611198,11.259281727157045 22.135587898890705,10.441850360209102 22.093361161426575,12.856138551973405" style="fill:none;stroke:black;stroke-width:1"/>
<polygon points="22.135587898890705,10.441850360209102 19.97903544611198,11.259281727157045 20.394509599343653,9.230763348039817" style="fill:none;stroke:black;stroke-width:1"/>
<polygon points="21.637026588593354,8.504275468520065 22.135587898890705,10.441850360209102 20.394509599343653,9.230763348039817" style="fill:none;stroke:black;stroke-width:1"/>
<polygon points="22.135587898890705,10.441850360209102 21.637026588593354,8.504275468520065 23.470736415356093,8.696407486212605" style="fill:none;stroke:black;stroke-width:1"/>
<polygon points="14.599267636335409,19.581387799116634 16.967701302911504,12.120500086912656 17.580743653367218,11.307979534745035" style="fill:none;stroke:black;stroke-width:1"/>
<polygon points="13.2955908407985,21.918243960670864 16.967701302911504,12.120500086912656 13.297306707720281,21.99659305097225" style="fill:none;stroke:black;stroke-width:1"/>
<polygon points="16.967701302911504,12.120500086912656 15.196181247418217,11.36611181205976 17.580743653367218,11.307979534745035" style="fill:none;stroke:black;stroke-width:1"/>
<polygon points="20.859093762279628,23.26970997265454 20.506206896551724,21.864137931034485 20.98521714603352,23.15419125692831" style="fill:none;stroke:black;stroke-width:1"/>
<polygon points="21.025922109184332,22.10511637400882 21.34850265431264,24.034426213764906 20.15213857018758,15.416802026956317" style="fill:none;stroke:black;stroke-width:1"/>
<polygon points="21.213108597251143,22.64596738579618 20.15213857018758,15.416802026956317 19.727320999431484,18.19474501086481" style="fill:none;stroke:black;stroke-width:1"/>
<polygon points="21.213108597251143,22.64596738579618 21.20042053732694,22.448221885673696 20.15213857018758,15.416802026956317" style="fill:none;stroke:black;stroke-width:1"/>
<polygon points="21.1734865549405,22.836754912499956 21.213108597251143,22.64596738579618 19.727320999431484,18.19474501086481" style="fill:none;stroke:black;stroke-width:1"/>
<polygon points="13.990744095999915,19.115760927149232 15.260399358351124,18.306081776448103 15.977639733503416,20.598701121740934" style="fill:none;stroke:black;stroke-width:1"/>
<polygon points="15.260399358351124,18.306081776448103 17.58429654409391,18.96448984012911 15.977639733503416,20.598701121740934" style="fill:none;stroke:black;stroke-width:1"/>
<polygon points="14.869011933231578,9.23000725050501 17.174466674999916,9.171503920213574 16.13588665768973,9.51126714902537" style="fill:none;stroke:black;stroke-width:1"/>
<polygon points="17.174466674999916,9.171503920213574 18.50197438974579,9.578875198804607 16.13588665768973,9.51126714902537" style="fill:none;stroke:black;stroke-width:1"/>
<polygon points="12.406420159913253,6.602222817577733 12.222395628395713,6.579941095815806 18.080414050982267,4.309497278077377" style="fill:none;stroke:black;stroke-width:1"/>
<polygon points="12.583364426495525,6.634268737901163 12.406420159913253,6.602222817577733 18.080414050982267,4.309497278077377" style="fill:none;stroke:black;stroke-width:1"/>
<polygon points="12.914456844343883,6.725767937250232 12.752839598014935,6.675607547540521 18.080414050982267,4.309497278077377" style="fill:none;stroke:black;stroke-width:1"/>
<polygon points="12.752839598014935,6.675607547540521 12.583364426495525,6.634268737901163 18.080414050982267,4.309497278077377" style="fill:none;stroke:black;stroke-width:1"/>
<polygon points="20.221328030543173,13.385894791783453 16.325084788597174,12.88588281805415 19.248821768198304,12.093591029134624" style="fill:none;stroke:black;stroke-width:1"/>
<polygon points="14.430610762851218,14.193405788892496 16.325084788597174,12.88588281805415 20.221328030543173,13.385894791783453" style="fill:none;stroke:black;stroke-width:1"/>
<polygon points="15.260399358351124,18.306081776448103 18.729953393787596,24.106403393697544 17.58429654409391,18.96448984012911" style="fill:none;stroke:black;stroke-width:1"/>
<polygon points="14.033213008914563,13.867831447389305 14.083366085155347,15.838324470383792 13.256813174481824,16.71128828694655" style="fill:none;stroke:black;stroke-width:1"/>
<polygon points="14.083366085155347,15.838324470383792 13.990744095999915,19.115760927149232 13.256813174481824,16.71128828694655" style="fill:none;stroke:black;stroke-width:1"/>
<polygon points="14.679620996239848,12.16160670441599 12.825588622779932,12.485482782567233 13.167125025564776,11.08961023965745" style="fill:none;stroke:black;stroke-width:1"/>
<polygon points="15.196181247418217,11.36611181205976 14.679620996239848,12.16160670441599 13.167125025564776,11.08961023965745" style="fill:none;stroke:black;stroke-width:1"/>
<polygon points="21.20042053732694,22.448221885673696 21.135682523341664,22.2641271839343 20.15213857018758,15.416802026956317" style="fill:none;stroke:black;stroke-width:1"/>
<polygon points="21.135682523341664,22.2641271839343 21.025922109184332,22.10511637400882 20.15213857018758,15.416802026956317" style="fill:none;stroke:black;stroke-width:1"/>
<polygon points="21.135682523341664,22.2641271839343 21.1734865549405,22.836754912499956 21.025922109184332,22.10511637400882" style="fill:none;stroke:black;stroke-width:1"/>
<polygon points="21.213108597251143,22.64596738579618 21.135682523341664,22.2641271839343 21.20042053732694,22.448221885673696" style="fill:none;stroke:black;stroke-width:1"/>
<polygon points="21.135682523341664,22.2641271839343 21.213108597251143,22.64596738579618 21.1734865549405,22.836754912499956" style="fill:none;stroke:black;stroke-width:1"/>
<polygon points="21.025922109184332,22.10511637400882 20.87866734209804,21.979281091623243 21.34850265431264,24.034426213764906" style="fill:none;stroke:black;stroke-width:1"/>
<polygon points="20.87866734209804,21.979281091623243 20.506206896551724,21.864137931034485 20.701446269325885,21.894712972503548" style="fill:none;stroke:black;stroke-width:1"/>
<polygon points="20.506206896551724,21.864137931034485 20.87866734209804,21.979281091623243 20.98521714603352,23.15419125692831" style="fill:none;stroke:black;stroke-width:1"/>
<polygon points="21.092119661003803,23.00795907101236 19.727320999431484,18.19474501086481 20.98521714603352,23.15419125692831" style="fill:none;stroke:black;stroke-width:1"/>
<polygon points="21.092119661003803,23.00795907101236 21.1734865549405,22.836754912499956 19.727320999431484,18.19474501086481" style="fill:none;stroke:black;stroke-width:1"/>
<polygon points="21.1734865549405,22.836754912499956 21.092119661003803,23.00795907101236 21.025922109184332,22.10511637400882" style="fill:none;stroke:black;stroke-width:1"/>
<polygon points="20.87866734209804,21.979281091623243 21.092119661003803,23.00795907101236 20.98521714603352,23.15419125692831" style="fill:none;stroke:black;stroke-width:1"/>
<polygon points="21.092119661003803,23.00795907101236 20.87866734209804,21.979281091623243 21.025922109184332,22.10511637400882" style="fill:none;stroke:black;stroke-width:1"/>
<polygon points="21.637026588593354,8.504275468520065 14.41031686005408,8.46758823599188 19.92287063716941,5.248755604056648" style="fill:none;stroke:black;stroke-width:1"/>
<polygon points="13.435916311748274,9.069576730916271 14.41031686005408,8.46758823599188 14.420764416118661,8.719208588186575" style="fill:none;stroke:black;stroke-width:1"/>
<polygon points="19.47992141676827,9.113000589922137 21.637026588593354,8.504275468520065 20.394509599343653,9.230763348039817" style="fill:none;stroke:black;stroke-width:1"/>
<polygon points="18.50197438974579,9.578875198804607 19.47992141676827,9.113000589922137 20.394509599343653,9.230763348039817" style="fill:none;stroke:black;stroke-width:1"/>
<polygon points="19.47992141676827,9.113000589922137 14.41031686005408,8.46758823599188 21.637026588593354,8.504275468520065" style="fill:none;stroke:black;stroke-width:1"/>
<polygon points="14.41031686005408,8.46758823599188 19.47992141676827,9.113000589922137 14.420764416118661,8.719208588186575" style="fill:none;stroke:black;stroke-width:1"/>
<polygon points="17.174466674999916,9.171503920213574 19.47992141676827,9.113000589922137 18.50197438974579,9.578875198804607" style="fill:none;stroke:black;stroke-width:1"/>
<polygon points="12.285881543123647,8.187321176215367 12.406420159913253,6.602222817577733 12.583364426495525,6.634268737901163" style="fill:none;stroke:black;stroke-width:1"/>
<polygon points="13.067827335354773,6.784278597784725 12.914456844343883,6.725767937250232 18.080414050982267,4.309497278077377" style="fill:none;stroke:black;stroke-width:1"/>
<polygon points="19.92287063716941,5.248755604056648 13.644761210257927,7.1249869472645155 18.080414050982267,4.309497278077377" style="fill:none;stroke:black;stroke-width:1"/>
<polygon points="13.789281699282004,7.255301628502531 13.644761210257927,7.1249869472645155 19.92287063716941,5.248755604056648" style="fill:none;stroke:black;stroke-width:1"/>
<polygon points="18.542505600498412,15.425395503381832 16.352689727654315,16.005083202036108 20.221328030543173,13.385894791783453" style="fill:none;stroke:black;stroke-width:1"/>
<polygon points="16.967701302911504,12.120500086912656 13.290598583166798,22.082852795817384 13.297306707720281,21.99659305097225" style="fill:none;stroke:black;stroke-width:1"/>
<polygon points="17.898320502717446,23.704114776382283 15.260399358351124,18.306081776448103 13.990744095999915,19.115760927149232" style="fill:none;stroke:black;stroke-width:1"/>
<polygon points="14.083366085155347,15.838324470383792 17.898320502717446,23.704114776382283 13.990744095999915,19.115760927149232" style="fill:none;stroke:black;stroke-width:1"/>
<polygon points="14.679620996239848,12.16160670441599 13.19363419501315,14.733241174334127 12.825588622779932,12.485482782567233" style="fill:none;stroke:black;stroke-width:1"/>
<polygon points="13.19363419501315,14.733241174334127 14.679620996239848,12.16160670441599 14.033213008914563,13.867831447389305" style="fill:none;stroke:black;stroke-width:1"/>
<polygon points="13.19363419501315,14.733241174334127 14.033213008914563,13.867831447389305 13.256813174481824,16.71128828694655" style="fill:none;stroke:black;stroke-width:1"/>
<polygon points="13.19363419501315,14.733241174334127 13.256813174481824,16.71128828694655 11.485450184602541,7.792107285046655" style="fill:none;stroke:black;stroke-width:1"/>
<polygon points="12.825588622779932,12.485482782567233 13.19363419501315,14.733241174334127 11.485450184602541,7.792107285046655" style="fill:none;stroke:black;stroke-width:1"/>
<polygon points="19.62477605431647,23.902054832409917 19.770023256546402,23.8317810192561 17.58429654409391,18.96448984012911" style="fill:none;stroke:black;stroke-width:1"/>
<polygon points="19.770023256546402,23.8317810192561 19.90596346387318,23.762913168956167 17.58429654409391,18.96448984012911" style="fill:none;stroke:black;stroke-width:1"/>
<polygon points="19.770023256546402,23.8317810192561 19.62477605431647,23.902054832409917 19.128617139300573,22.205166855079987" style="fill:none;stroke:black;stroke-width:1"/>
<polygon points="20.17784103130078,23.625184916436783 20.313779815014584,23.556320790177093 17.58429654409391,18.96448984012911" style="fill:none;stroke:black;stroke-width:1"/>
<polygon points="20.17784103130078,23.625184916436783 19.740260482038284,21.952944639521586 20.313779815014584,23.556320790177093" style="fill:none;stroke:black;stroke-width:1"/>
<polygon points="20.721596166155983,23.34972841139802 20.859093762279628,23.26970997265454 17.58429654409391,18.96448984012911" style="fill:none;stroke:black;stroke-width:1"/>
<polygon points="20.58565738244218,23.41859253765771 20.721596166155983,23.34972841139802 17.58429654409391,18.96448984012911" style="fill:none;stroke:black;stroke-width:1"/>
<polygon points="20.721596166155983,23.34972841139802 20.506206896551724,21.864137931034485 20.859093762279628,23.26970997265454" style="fill:none;stroke:black;stroke-width:1"/>
<polygon points="20.313779815014584,23.556320790177093 20.44971859872838,23.4874566639174 17.58429654409391,18.96448984012911" style="fill:none;stroke:black;stroke-width:1"/>
<polygon points="20.44971859872838,23.4874566639174 20.58565738244218,23.41859253765771 17.58429654409391,18.96448984012911" style="fill:none;stroke:black;stroke-width:1"/>
<polygon points="20.506206896551724,21.864137931034485 12.558042806316102,22.864637196382873 20.701446269325885,21.894712972503548" style="fill:none;stroke:black;stroke-width:1"/>
<polygon points="19.62477605431647,23.902054832409917 18.992678355586772,22.274030981339685 19.128617139300573,22.205166855079987" style="fill:none;stroke:black;stroke-width:1"/>
<polygon points="19.465838262719515,23.964511809547965 18.992678355586772,22.274030981339685 19.62477605431647,23.902054832409917" style="fill:none;stroke:black;stroke-width:1"/>
<polygon points="19.114245349649767,24.060021662927774 18.584862004445373,22.48062336011876 18.720800788159174,22.411759233859065" style="fill:none;stroke:black;stroke-width:1"/>
<polygon points="11.99399297755671,22.49657961669521 14.083366085155347,15.838324470383792 14.033213008914563,13.867831447389305" style="fill:none;stroke:black;stroke-width:1"/>
<polygon points="11.992277110634927,22.41823052639382 11.99399297755671,22.49657961669521 14.033213008914563,13.867831447389305" style="fill:none;stroke:black;stroke-width:1"/>
<polygon points="21.520590261215382,18.545932148912797 22.108133400745306,19.726163577703026 16.967701302911504,12.120500086912656" style="fill:none;stroke:black;stroke-width:1"/>
<polygon points="20.221328030543173,13.385894791783453 23.446825515140098,18.30569773181146 21.62662969048334,18.58531182332044" style="fill:none;stroke:black;stroke-width:1"/>
<polygon points="23.446825515140098,18.30569773181146 20.221328030543173,13.385894791783453 20.15213857018758,15.416802026956317" style="fill:none;stroke:black;stroke-width:1"/>
<polygon points="13.620019953015694,9.263364723904772 14.202861339654088,9.133984594108824 13.79600678497549,9.292883332413798" style="fill:none;stroke:black;stroke-width:1"/>
<polygon points="17.174466674999916,9.171503920213574 13.620019953015694,9.263364723904772 13.79600678497549,9.292883332413798" style="fill:none;stroke:black;stroke-width:1"/>
<polygon points="19.47992141676827,9.113000589922137 14.347632485109575,8.94860771652626 14.420764416118661,8.719208588186575" style="fill:none;stroke:black;stroke-width:1"/>
<polygon points="14.347632485109575,8.94860771652626 19.47992141676827,9.113000589922137 14.202861339654088,9.133984594108824" style="fill:none;stroke:black;stroke-width:1"/>
<polygon points="13.620019953015694,9.263364723904772 14.347632485109575,8.94860771652626 14.202861339654088,9.133984594108824" style="fill:none;stroke:black;stroke-width:1"/>
<polygon points="14.347632485109575,8.94860771652626 13.435916311748274,9.069576730916271 14.420764416118661,8.719208588186575" style="fill:none;stroke:black;stroke-width:1"/>
<polygon points="14.004310538759686,9.253926371195561 19.47992141676827,9.113000589922137 17.174466674999916,9.171503920213574" style="fill:none;stroke:black;stroke-width:1"/>
<polygon points="19.47992141676827,9.113000589922137 14.004310538759686,9.253926371195561 14.202861339654088,9.133984594108824" style="fill:none;stroke:black;stroke-width:1"/>
<polygon points="14.004310538759686,9.253926371195561 17.174466674999916,9.171503920213574 13.79600678497549,9.292883332413798" style="fill:none;stroke:black;stroke-width:1"/>
<polygon points="14.202861339654088,9.133984594108824 14.004310538759686,9.253926371195561 13.79600678497549,9.292883332413798" style="fill:none;stroke:black;stroke-width:1"/>
<polygon points="12.752839598014935,6.675607547540521 12.487939141238062,8.248799568115484 12.583364426495525,6.634268737901163" style="fill:none;stroke:black;stroke-width:1"/>
<polygon points="12.487939141238062,8.248799568115484 12.285881543123647,8.187321176215367 12.583364426495525,6.634268737901163" style="fill:none;stroke:black;stroke-width:1"/>
<polygon points="12.487939141238062,8.248799568115484 12.752839598014935,6.675607547540521 12.914456844343883,6.725767937250232" style="fill:none;stroke:black;stroke-width:1"/>
<polygon points="12.406420159913253,6.602222817577733 12.064585355631822,8.12565800099175 12.222395628395713,6.579941095815806" style="fill:none;stroke:black;stroke-width:1"/>
<polygon points="12.285881543123647,8.187321176215367 12.064585355631822,8.12565800099175 12.406420159913253,6.602222817577733" style="fill:none;stroke:black;stroke-width:1"/>
<polygon points="12.064585355631822,8.12565800099175 12.285881543123647,8.187321176215367 11.828033809087088,8.063735964726696" style="fill:none;stroke:black;stroke-width:1"/>
<polygon points="13.353224447119242,6.924261908635252 13.21256224092,6.850668219898422 18.080414050982267,4.309497278077377" style="fill:none;stroke:black;stroke-width:1"/>
<polygon points="13.21256224092,6.850668219898422 13.067827335354773,6.784278597784725 18.080414050982267,4.309497278077377" style="fill:none;stroke:black;stroke-width:1"/>
<polygon points="13.49831348346271,7.014869550639604 13.353224447119242,6.924261908635252 18.080414050982267,4.309497278077377" style="fill:none;stroke:black;stroke-width:1"/>
<polygon points="13.644761210257927,7.1249869472645155 13.49831348346271,7.014869550639604 18.080414050982267,4.309497278077377" style="fill:none;stroke:black;stroke-width:1"/>
<polygon points="11.834661091065236,6.566555484958757 15.83495812057972,3.738403496270281 17.86351727235692,2.9610291253854513" style="fill:none;stroke:black;stroke-width:1"/>
<polygon points="11.834661091065236,6.566555484958757 11.631728745507498,6.576394214354783 15.83495812057972,3.738403496270281" style="fill:none;stroke:black;stroke-width:1"/>
<polygon points="10.795181642591459,7.1797169561389005 13.969297011553238,5.04282260020452 15.521530160412485,3.25071637733201" style="fill:none;stroke:black;stroke-width:1"/>
<polygon points="11.089250581973939,7.832902556939766 14.869011933231578,9.23000725050501 13.969297011553238,5.04282260020452" style="fill:none;stroke:black;stroke-width:1"/>
<polygon points="10.91204768502503,7.6564075323588465 11.089250581973939,7.832902556939766 13.969297011553238,5.04282260020452" style="fill:none;stroke:black;stroke-width:1"/>
<polygon points="20.562018066328697,16.50984859326626 20.221328030543173,13.385894791783453 21.62662969048334,18.58531182332044" style="fill:none;stroke:black;stroke-width:1"/>
<polygon points="20.562018066328697,16.50984859326626 18.542505600498412,15.425395503381832 20.221328030543173,13.385894791783453" style="fill:none;stroke:black;stroke-width:1"/>
<polygon points="13.192867623587405,16.183178905965477 14.430610762851218,14.193405788892496 20.221328030543173,13.385894791783453" style="fill:none;stroke:black;stroke-width:1"/>
<polygon points="13.268714259030217,17.952735271694465 13.192867623587405,16.183178905965477 20.221328030543173,13.385894791783453" style="fill:none;stroke:black;stroke-width:1"/>
<polygon points="16.352689727654315,16.005083202036108 15.202587572272451,17.866371826599888 20.221328030543173,13.385894791783453" style="fill:none;stroke:black;stroke-width:1"/>
<polygon points="15.202587572272451,17.866371826599888 13.268714259030217,17.952735271694465 20.221328030543173,13.385894791783453" style="fill:none;stroke:black;stroke-width:1"/>
<polygon points="19.248821768198304,12.093591029134624 14.442252579893928,22.1857421062849 17.580743653367218,11.307979534745035" style="fill:none;stroke:black;stroke-width:1"/>
<polygon points="13.248357630581635,22.27452439196029 13.274541424913375,22.175905011241284 16.967701302911504,12.120500086912656" style="fill:none;stroke:black;stroke-width:1"/>
<polygon points="13.274541424913375,22.175905011241284 13.290598583166798,22.082852795817384 16.967701302911504,12.120500086912656" style="fill:none;stroke:black;stroke-width:1"/>
<polygon points="13.211429300893514,22.377397835168416 13.248357630581635,22.27452439196029 16.967701302911504,12.120500086912656" style="fill:none;stroke:black;stroke-width:1"/>
<polygon points="19.90596346387318,23.762913168956167 20.041902247586982,23.694049042696477 17.58429654409391,18.96448984012911" style="fill:none;stroke:black;stroke-width:1"/>
<polygon points="20.041902247586982,23.694049042696477 20.17784103130078,23.625184916436783 17.58429654409391,18.96448984012911" style="fill:none;stroke:black;stroke-width:1"/>
<polygon points="19.409699469499202,22.067057921750862 20.041902247586982,23.694049042696477 19.90596346387318,23.762913168956167" style="fill:none;stroke:black;stroke-width:1"/>
<polygon points="19.740260482038284,21.952944639521586 19.921666459307524,21.91104866366316 20.313779815014584,23.556320790177093" style="fill:none;stroke:black;stroke-width:1"/>
<polygon points="19.921666459307524,21.91104866366316 20.44971859872838,23.4874566639174 20.313779815014584,23.556320790177093" style="fill:none;stroke:black;stroke-width:1"/>
<polygon points="11.1127885210938,18.39304560592017 19.921666459307524,21.91104866366316 11.693502290289791,16.105286586527473" style="fill:none;stroke:black;stroke-width:1"/>
<polygon points="19.921666459307524,21.91104866366316 19.740260482038284,21.952944639521586 11.693502290289791,16.105286586527473" style="fill:none;stroke:black;stroke-width:1"/>
<polygon points="19.264574330656412,22.136252805801423 19.770023256546402,23.8317810192561 19.128617139300573,22.205166855079987" style="fill:none;stroke:black;stroke-width:1"/>
<polygon points="19.770023256546402,23.8317810192561 19.264574330656412,22.136252805801423 19.90596346387318,23.762913168956167" style="fill:none;stroke:black;stroke-width:1"/>
<polygon points="19.264574330656412,22.136252805801423 19.409699469499202,22.067057921750862 19.90596346387318,23.762913168956167" style="fill:none;stroke:black;stroke-width:1"/>
<polygon points="11.410375519603134,20.795304816528763 12.558042806316102,22.864637196382873 20.506206896551724,21.864137931034485" style="fill:none;stroke:black;stroke-width:1"/>
<polygon points="16.650236430066528,25.158047988086167 20.87866734209804,21.979281091623243 20.701446269325885,21.894712972503548" style="fill:none;stroke:black;stroke-width:1"/>
<polygon points="14.940498337110093,13.047744432360771 19.264574330656412,22.136252805801423 12.66218670453349,22.92450711800154" style="fill:none;stroke:black;stroke-width:1"/>
<polygon points="18.448923220731572,22.54948748637845 18.729953393787596,24.106403393697544 18.312984437017775,22.618351612638143" style="fill:none;stroke:black;stroke-width:1"/>
<polygon points="18.856739571872975,22.342895107599375 18.992678355586772,22.274030981339685 19.465838262719515,23.964511809547965" style="fill:none;stroke:black;stroke-width:1"/>
<polygon points="19.114245349649767,24.060021662927774 18.925267447289585,24.090097742745037 18.584862004445373,22.48062336011876" style="fill:none;stroke:black;stroke-width:1"/>
<polygon points="18.448923220731572,22.54948748637845 18.925267447289585,24.090097742745037 18.729953393787596,24.106403393697544" style="fill:none;stroke:black;stroke-width:1"/>
<polygon points="18.925267447289585,24.090097742745037 18.448923220731572,22.54948748637845 18.584862004445373,22.48062336011876" style="fill:none;stroke:black;stroke-width:1"/>
<polygon points="18.729953393787596,24.106403393697544 18.925267447289585,24.090097742745037 17.58429654409391,18.96448984012911" style="fill:none;stroke:black;stroke-width:1"/>
<polygon points="18.925267447289585,24.090097742745037 19.114245349649767,24.060021662927774 17.58429654409391,18.96448984012911" style="fill:none;stroke:black;stroke-width:1"/>
<polygon points="14.679620996239848,12.16160670441599 12.341946476636476,21.642009304608365 14.033213008914563,13.867831447389305" style="fill:none;stroke:black;stroke-width:1"/>
<polygon points="14.083366085155347,15.838324470383792 12.038543267979156,22.674944244091918 17.942460942169948,22.960120953023797" style="fill:none;stroke:black;stroke-width:1"/>
<polygon points="16.402585723957483,20.8935207661825 16.967701302911504,12.120500086912656 14.599267636335409,19.581387799116634" style="fill:none;stroke:black;stroke-width:1"/>
<polygon points="16.402585723957483,20.8935207661825 18.63019797605081,20.59264233237879 16.967701302911504,12.120500086912656" style="fill:none;stroke:black;stroke-width:1"/>
<polygon points="19.974050471966066,18.89381313490241 21.520590261215382,18.545932148912797 16.967701302911504,12.120500086912656" style="fill:none;stroke:black;stroke-width:1"/>
<polygon points="18.63019797605081,20.59264233237879 19.974050471966066,18.89381313490241 16.967701302911504,12.120500086912656" style="fill:none;stroke:black;stroke-width:1"/>
<polygon points="22.108133400745306,19.726163577703026 20.959003132787963,21.81592093113659 16.967701302911504,12.120500086912656" style="fill:none;stroke:black;stroke-width:1"/>
<polygon points="20.959003132787963,21.81592093113659 13.211429300893514,22.377397835168416 16.967701302911504,12.120500086912656" style="fill:none;stroke:black;stroke-width:1"/>
<polygon points="21.45918863970448,14.670005282452323 22.97107301053742,16.37006035514311 20.15213857018758,15.416802026956317" style="fill:none;stroke:black;stroke-width:1"/>
<polygon points="22.97107301053742,16.37006035514311 23.446825515140098,18.30569773181146 20.15213857018758,15.416802026956317" style="fill:none;stroke:black;stroke-width:1"/>
<polygon points="21.34850265431264,24.034426213764906 22.967814446638833,22.351793323418043 20.15213857018758,15.416802026956317" style="fill:none;stroke:black;stroke-width:1"/>
<polygon points="22.967814446638833,22.351793323418043 23.87820430455028,20.165596708596095 20.15213857018758,15.416802026956317" style="fill:none;stroke:black;stroke-width:1"/>
<polygon points="19.32809044449114,13.693616572371521 21.45918863970448,14.670005282452323 20.15213857018758,15.416802026956317" style="fill:none;stroke:black;stroke-width:1"/>
<polygon points="23.87820430455028,20.165596708596095 19.32809044449114,13.693616572371521 20.15213857018758,15.416802026956317" style="fill:none;stroke:black;stroke-width:1"/>
<polygon points="14.178420597231316,7.774304678083308 14.059397251125155,7.579272964788056 19.92287063716941,5.248755604056648" style="fill:none;stroke:black;stroke-width:1"/>
<polygon points="14.41031686005408,8.46758823599188 14.358403227121268,8.222085443273707 19.92287063716941,5.248755604056648" style="fill:none;stroke:black;stroke-width:1"/>
<polygon points="14.358403227121268,8.222085443273707 14.41031686005408,8.46758823599188 13.435916311748274,9.069576730916271" style="fill:none;stroke:black;stroke-width:1"/>
<polygon points="14.347632485109575,8.94860771652626 13.494265987308523,9.182984737997806 13.435916311748274,9.069576730916271" style="fill:none;stroke:black;stroke-width:1"/>
<polygon points="13.494265987308523,9.182984737997806 14.347632485109575,8.94860771652626 13.620019953015694,9.263364723904772" style="fill:none;stroke:black;stroke-width:1"/>
<polygon points="13.494265987308523,9.182984737997806 13.620019953015694,9.263364723904772 17.174466674999916,9.171503920213574" style="fill:none;stroke:black;stroke-width:1"/>
<polygon points="13.494265987308523,9.182984737997806 17.174466674999916,9.171503920213574 14.869011933231578,9.23000725050501" style="fill:none;stroke:black;stroke-width:1"/>
<polygon points="13.435916311748274,9.069576730916271 13.494265987308523,9.182984737997806 14.869011933231578,9.23000725050501" style="fill:none;stroke:black;stroke-width:1"/>
<polygon points="13.067827335354773,6.784278597784725 12.666774919650559,8.310167254410032 12.914456844343883,6.725767937250232" style="fill:none;stroke:black;stroke-width:1"/>
<polygon points="12.666774919650559,8.310167254410032 12.487939141238062,8.248799568115484 12.914456844343883,6.725767937250232" style="fill:none;stroke:black;stroke-width:1"/>
<polygon points="11.834661091065236,6.566555484958757 12.031679662070507,6.567894881860955 11.828033809087088,8.063735964726696" style="fill:none;stroke:black;stroke-width:1"/>
<polygon points="12.064585355631822,8.12565800099175 12.031679662070507,6.567894881860955 12.222395628395713,6.579941095815806" style="fill:none;stroke:black;stroke-width:1"/>
<polygon points="12.031679662070507,6.567894881860955 12.064585355631822,8.12565800099175 11.828033809087088,8.063735964726696" style="fill:none;stroke:black;stroke-width:1"/>
<polygon points="12.222395628395713,6.579941095815806 12.031679662070507,6.567894881860955 17.86351727235692,2.9610291253854513" style="fill:none;stroke:black;stroke-width:1"/>
<polygon points="12.031679662070507,6.567894881860955 11.834661091065236,6.566555484958757 17.86351727235692,2.9610291253854513" style="fill:none;stroke:black;stroke-width:1"/>
<polygon points="10.809204616988689,7.431386821823068 10.91204768502503,7.6564075323588465 13.969297011553238,5.04282260020452" style="fill:none;stroke:black;stroke-width:1"/>
<polygon points="10.795181642591459,7.1797169561389005 10.809204616988689,7.431386821823068 13.969297011553238,5.04282260020452" style="fill:none;stroke:black;stroke-width:1"/>
<polygon points="10.809204616988689,7.431386821823068 10.795181642591459,7.1797169561389005 10.91204768502503,7.6564075323588465" style="fill:none;stroke:black;stroke-width:1"/>
<polygon points="11.089250581973939,7.832902556939766 11.326206896551724,7.939655172413794 14.869011933231578,9.23000725050501" style="fill:none;stroke:black;stroke-width:1"/>
<polygon points="11.326206896551724,7.939655172413794 13.435916311748274,9.069576730916271 14.869011933231578,9.23000725050501" style="fill:none;stroke:black;stroke-width:1"/>
<polygon points="11.326206896551724,7.939655172413794 11.089250581973939,7.832902556939766 11.016528583527348,6.764175437756146" style="fill:none;stroke:black;stroke-width:1"/>
<polygon points="11.326206896551724,7.939655172413794 12.666774919650559,8.310167254410032 13.435916311748274,9.069576730916271" style="fill:none;stroke:black;stroke-width:1"/>
<polygon points="12.666774919650559,8.310167254410032 11.326206896551724,7.939655172413794 12.487939141238062,8.248799568115484" style="fill:none;stroke:black;stroke-width:1"/>
<polygon points="10.795181642591459,7.1797169561389005 10.870597859021611,6.9476760853204915 10.91204768502503,7.6564075323588465" style="fill:none;stroke:black;stroke-width:1"/>
<polygon points="10.870597859021611,6.9476760853204915 11.089250581973939,7.832902556939766 10.91204768502503,7.6564075323588465" style="fill:none;stroke:black;stroke-width:1"/>
<polygon points="11.089250581973939,7.832902556939766 10.870597859021611,6.9476760853204915 11.016528583527348,6.764175437756146" style="fill:none;stroke:black;stroke-width:1"/>
<polygon points="10.870597859021611,6.9476760853204915 10.795181642591459,7.1797169561389005 15.521530160412485,3.25071637733201" style="fill:none;stroke:black;stroke-width:1"/>
<polygon points="15.83495812057972,3.738403496270281 10.870597859021611,6.9476760853204915 15.521530160412485,3.25071637733201" style="fill:none;stroke:black;stroke-width:1"/>
<polygon points="11.016528583527348,6.764175437756146 10.870597859021611,6.9476760853204915 15.83495812057972,3.738403496270281" style="fill:none;stroke:black;stroke-width:1"/>
<polygon points="19.263650584873247,20.135987555456087 16.912173641888202,20.08864700177871 19.248821768198304,12.093591029134624" style="fill:none;stroke:black;stroke-width:1"/>
<polygon points="19.846725696548404,16.323066466902027 16.67840030449538,23.056933200866403 19.248821768198304,12.093591029134624" style="fill:none;stroke:black;stroke-width:1"/>
<polygon points="16.67840030449538,23.056933200866403 14.442252579893928,22.1857421062849 19.248821768198304,12.093591029134624" style="fill:none;stroke:black;stroke-width:1"/>
<polygon points="18.155062547444036,23.989220897222964 18.332174227959854,24.073957077010526 15.260399358351124,18.306081776448103" style="fill:none;stroke:black;stroke-width:1"/>
<polygon points="17.898320502717446,23.704114776382283 18.007935289948865,23.863242918438225 15.260399358351124,18.306081776448103" style="fill:none;stroke:black;stroke-width:1"/>
<polygon points="18.007935289948865,23.863242918438225 18.155062547444036,23.989220897222964 15.260399358351124,18.306081776448103" style="fill:none;stroke:black;stroke-width:1"/>
<polygon points="18.155062547444036,23.989220897222964 18.007935289948865,23.863242918438225 17.942460942169948,22.960120953023797" style="fill:none;stroke:black;stroke-width:1"/>
<polygon points="17.861062055905087,23.131287237037462 14.083366085155347,15.838324470383792 17.942460942169948,22.960120953023797" style="fill:none;stroke:black;stroke-width:1"/>
<polygon points="17.861062055905087,23.131287237037462 17.821240034664164,23.322116003065588 14.083366085155347,15.838324470383792" style="fill:none;stroke:black;stroke-width:1"/>
<polygon points="17.821240034664164,23.322116003065588 17.861062055905087,23.131287237037462 17.898320502717446,23.704114776382283" style="fill:none;stroke:black;stroke-width:1"/>
<polygon points="18.007935289948865,23.863242918438225 17.861062055905087,23.131287237037462 17.942460942169948,22.960120953023797" style="fill:none;stroke:black;stroke-width:1"/>
<polygon points="17.861062055905087,23.131287237037462 18.007935289948865,23.863242918438225 17.898320502717446,23.704114776382283" style="fill:none;stroke:black;stroke-width:1"/>
<polygon points="17.833746232992873,23.519928106781123 17.898320502717446,23.704114776382283 14.083366085155347,15.838324470383792" style="fill:none;stroke:black;stroke-width:1"/>
<polygon points="17.821240034664164,23.322116003065588 17.833746232992873,23.519928106781123 14.083366085155347,15.838324470383792" style="fill:none;stroke:black;stroke-width:1"/>
<polygon points="17.833746232992873,23.519928106781123 17.821240034664164,23.322116003065588 17.898320502717446,23.704114776382283" style="fill:none;stroke:black;stroke-width:1"/>
<polygon points="19.568933169364335,22.0054514626042 20.041902247586982,23.694049042696477 19.409699469499202,22.067057921750862" style="fill:none;stroke:black;stroke-width:1"/>
<polygon points="19.740260482038284,21.952944639521586 19.568933169364335,22.0054514626042 11.693502290289791,16.105286586527473" style="fill:none;stroke:black;stroke-width:1"/>
<polygon points="20.17784103130078,23.625184916436783 19.568933169364335,22.0054514626042 19.740260482038284,21.952944639521586" style="fill:none;stroke:black;stroke-width:1"/>
<polygon points="20.041902247586982,23.694049042696477 19.568933169364335,22.0054514626042 20.17784103130078,23.625184916436783" style="fill:none;stroke:black;stroke-width:1"/>
<polygon points="20.44971859872838,23.4874566639174 20.11113615295853,21.88127474618907 20.58565738244218,23.41859253765771" style="fill:none;stroke:black;stroke-width:1"/>
<polygon points="19.921666459307524,21.91104866366316 20.11113615295853,21.88127474618907 20.44971859872838,23.4874566639174" style="fill:none;stroke:black;stroke-width:1"/>
<polygon points="11.410375519603134,20.795304816528763 20.11113615295853,21.88127474618907 11.1127885210938,18.39304560592017" style="fill:none;stroke:black;stroke-width:1"/>
<polygon points="20.11113615295853,21.88127474618907 19.921666459307524,21.91104866366316 11.1127885210938,18.39304560592017" style="fill:none;stroke:black;stroke-width:1"/>
<polygon points="12.558042806316102,22.864637196382873 14.366419326318951,24.380292895660013 20.701446269325885,21.894712972503548" style="fill:none;stroke:black;stroke-width:1"/>
<polygon points="14.366419326318951,24.380292895660013 16.650236430066528,25.158047988086167 20.701446269325885,21.894712972503548" style="fill:none;stroke:black;stroke-width:1"/>
<polygon points="20.87866734209804,21.979281091623243 19.170563921881012,25.03000851609821 21.34850265431264,24.034426213764906" style="fill:none;stroke:black;stroke-width:1"/>
<polygon points="16.650236430066528,25.158047988086167 19.170563921881012,25.03000851609821 20.87866734209804,21.979281091623243" style="fill:none;stroke:black;stroke-width:1"/>
<polygon points="19.568933169364335,22.0054514626042 13.018682720222749,14.2621463993068 11.693502290289791,16.105286586527473" style="fill:none;stroke:black;stroke-width:1"/>
<polygon points="13.018682720222749,14.2621463993068 19.568933169364335,22.0054514626042 19.409699469499202,22.067057921750862" style="fill:none;stroke:black;stroke-width:1"/>
<polygon points="19.264574330656412,22.136252805801423 13.018682720222749,14.2621463993068 19.409699469499202,22.067057921750862" style="fill:none;stroke:black;stroke-width:1"/>
<polygon points="14.940498337110093,13.047744432360771 13.018682720222749,14.2621463993068 19.264574330656412,22.136252805801423" style="fill:none;stroke:black;stroke-width:1"/>
<polygon points="19.295048491311846,24.017663552458 19.114245349649767,24.060021662927774 18.720800788159174,22.411759233859065" style="fill:none;stroke:black;stroke-width:1"/>
<polygon points="18.856739571872975,22.342895107599375 19.295048491311846,24.017663552458 18.720800788159174,22.411759233859065" style="fill:none;stroke:black;stroke-width:1"/>
<polygon points="19.295048491311846,24.017663552458 18.856739571872975,22.342895107599375 19.465838262719515,23.964511809547965" style="fill:none;stroke:black;stroke-width:1"/>
<polygon points="19.295048491311846,24.017663552458 19.465838262719515,23.964511809547965 17.58429654409391,18.96448984012911" style="fill:none;stroke:black;stroke-width:1"/>
<polygon points="19.114245349649767,24.060021662927774 19.295048491311846,24.017663552458 17.58429654409391,18.96448984012911" style="fill:none;stroke:black;stroke-width:1"/>
<polygon points="13.108419306356954,21.579294730380113 14.679620996239848,12.16160670441599 15.196181247418217,11.36611181205976" style="fill:none;stroke:black;stroke-width:1"/>
<polygon points="13.157763263723943,21.6185221814086 13.108419306356954,21.579294730380113 15.196181247418217,11.36611181205976" style="fill:none;stroke:black;stroke-width:1"/>
<polygon points="12.01834894365238,22.625712543501972 12.038543267979156,22.674944244091918 14.083366085155347,15.838324470383792" style="fill:none;stroke:black;stroke-width:1"/>
<polygon points="13.928589022312046,7.406501124346198 13.789281699282004,7.255301628502531 19.92287063716941,5.248755604056648" style="fill:none;stroke:black;stroke-width:1"/>
<polygon points="14.059397251125155,7.579272964788056 13.928589022312046,7.406501124346198 19.92287063716941,5.248755604056648" style="fill:none;stroke:black;stroke-width:1"/>
<polygon points="14.280589507384025,7.989953008499384 14.178420597231316,7.774304678083308 19.92287063716941,5.248755604056648" style="fill:none;stroke:black;stroke-width:1"/>
<polygon points="14.358403227121268,8.222085443273707 14.280589507384025,7.989953008499384 19.92287063716941,5.248755604056648" style="fill:none;stroke:black;stroke-width:1"/>
<polygon points="13.21256224092,6.850668219898422 12.819032054467359,8.373406503339208 13.067827335354773,6.784278597784725" style="fill:none;stroke:black;stroke-width:1"/>
<polygon points="12.819032054467359,8.373406503339208 12.666774919650559,8.310167254410032 13.067827335354773,6.784278597784725" style="fill:none;stroke:black;stroke-width:1"/>
<polygon points="12.819032054467359,8.373406503339208 13.21256224092,6.850668219898422 13.353224447119242,6.924261908635252" style="fill:none;stroke:black;stroke-width:1"/>
<polygon points="12.666774919650559,8.310167254410032 12.819032054467359,8.373406503339208 13.435916311748274,9.069576730916271" style="fill:none;stroke:black;stroke-width:1"/>
<polygon points="11.58097234743077,8.001186354728564 11.834661091065236,6.566555484958757 11.828033809087088,8.063735964726696" style="fill:none;stroke:black;stroke-width:1"/>
<polygon points="11.834661091065236,6.566555484958757 11.58097234743077,8.001186354728564 11.631728745507498,6.576394214354783" style="fill:none;stroke:black;stroke-width:1"/>
<polygon points="12.285881543123647,8.187321176215367 11.58097234743077,8.001186354728564 11.828033809087088,8.063735964726696" style="fill:none;stroke:black;stroke-width:1"/>
<polygon points="12.487939141238062,8.248799568115484 11.58097234743077,8.001186354728564 12.285881543123647,8.187321176215367" style="fill:none;stroke:black;stroke-width:1"/>
<polygon points="11.326206896551724,7.939655172413794 11.58097234743077,8.001186354728564 12.487939141238062,8.248799568115484" style="fill:none;stroke:black;stroke-width:1"/>
<polygon points="11.631728745507498,6.576394214354783 11.423271455524889,6.59788237929461 15.83495812057972,3.738403496270281" style="fill:none;stroke:black;stroke-width:1"/>
<polygon points="11.58097234743077,8.001186354728564 11.423271455524889,6.59788237929461 11.631728745507498,6.576394214354783" style="fill:none;stroke:black;stroke-width:1"/>
<polygon points="11.423271455524889,6.59788237929461 11.58097234743077,8.001186354728564 11.326206896551724,7.939655172413794" style="fill:none;stroke:black;stroke-width:1"/>
<polygon points="16.325084788597174,12.88588281805415 20.653368378404558,18.420639827047403 19.248821768198304,12.093591029134624" style="fill:none;stroke:black;stroke-width:1"/>
<polygon points="20.653368378404558,18.420639827047403 19.263650584873247,20.135987555456087 19.248821768198304,12.093591029134624" style="fill:none;stroke:black;stroke-width:1"/>
<polygon points="18.025901527319107,15.175068727698513 19.846725696548404,16.323066466902027 19.248821768198304,12.093591029134624" style="fill:none;stroke:black;stroke-width:1"/>
<polygon points="16.006703349008845,16.033821569293323 18.025901527319107,15.175068727698513 19.248821768198304,12.093591029134624" style="fill:none;stroke:black;stroke-width:1"/>
<polygon points="16.912173641888202,20.08864700177871 15.482345527323083,18.2598243363403 19.248821768198304,12.093591029134624" style="fill:none;stroke:black;stroke-width:1"/>
<polygon points="15.482345527323083,18.2598243363403 16.006703349008845,16.033821569293323 19.248821768198304,12.093591029134624" style="fill:none;stroke:black;stroke-width:1"/>
<polygon points="13.599799520511358,18.103710409550217 14.599267636335409,19.581387799116634 17.580743653367218,11.307979534745035" style="fill:none;stroke:black;stroke-width:1"/>
<polygon points="11.91177100569267,18.382983040927062 13.599799520511358,18.103710409550217 17.580743653367218,11.307979534745035" style="fill:none;stroke:black;stroke-width:1"/>
<polygon points="14.442252579893928,22.1857421062849 12.77677271870278,20.55150115625284 17.580743653367218,11.307979534745035" style="fill:none;stroke:black;stroke-width:1"/>
<polygon points="12.77677271870278,20.55150115625284 11.91177100569267,18.382983040927062 17.580743653367218,11.307979534745035" style="fill:none;stroke:black;stroke-width:1"/>
<polygon points="18.729953393787596,24.106403393697544 18.531817165649333,24.10896551724138 18.312984437017775,22.618351612638143" style="fill:none;stroke:black;stroke-width:1"/>
<polygon points="18.531817165649333,24.10896551724138 18.175486840894127,22.698370051381623 18.312984437017775,22.618351612638143" style="fill:none;stroke:black;stroke-width:1"/>
<polygon points="18.531817165649333,24.10896551724138 18.729953393787596,24.106403393697544 15.260399358351124,18.306081776448103" style="fill:none;stroke:black;stroke-width:1"/>
<polygon points="18.332174227959854,24.073957077010526 18.531817165649333,24.10896551724138 15.260399358351124,18.306081776448103" style="fill:none;stroke:black;stroke-width:1"/>
<polygon points="18.531817165649333,24.10896551724138 18.332174227959854,24.073957077010526 18.155062547444036,23.989220897222964" style="fill:none;stroke:black;stroke-width:1"/>
<polygon points="20.11113615295853,21.88127474618907 20.30665461477777,21.865134098259468 20.58565738244218,23.41859253765771" style="fill:none;stroke:black;stroke-width:1"/>
<polygon points="20.721596166155983,23.34972841139802 20.30665461477777,21.865134098259468 20.506206896551724,21.864137931034485" style="fill:none;stroke:black;stroke-width:1"/>
<polygon points="20.30665461477777,21.865134098259468 20.721596166155983,23.34972841139802 20.58565738244218,23.41859253765771" style="fill:none;stroke:black;stroke-width:1"/>
<polygon points="20.30665461477777,21.865134098259468 11.410375519603134,20.795304816528763 20.506206896551724,21.864137931034485" style="fill:none;stroke:black;stroke-width:1"/>
<polygon points="20.30665461477777,21.865134098259468 20.11113615295853,21.88127474618907 11.410375519603134,20.795304816528763" style="fill:none;stroke:black;stroke-width:1"/>
<polygon points="13.197679375795314,21.659468975716795 13.157763263723943,21.6185221814086 15.196181247418217,11.36611181205976" style="fill:none;stroke:black;stroke-width:1"/>
<polygon points="16.967701302911504,12.120500086912656 13.271234874702827,21.789111033864096 15.196181247418217,11.36611181205976" style="fill:none;stroke:black;stroke-width:1"/>
<polygon points="13.271234874702827,21.789111033864096 13.251040550376052,21.739879333274153 15.196181247418217,11.36611181205976" style="fill:none;stroke:black;stroke-width:1"/>
<polygon points="12.725494193983504,21.47625472707597 12.627551880682894,21.492617841493054 14.679620996239848,12.16160670441599" style="fill:none;stroke:black;stroke-width:1"/>
<polygon points="12.627551880682894,21.492617841493054 12.529038440578017,21.52569486174905 14.679620996239848,12.16160670441599" style="fill:none;stroke:black;stroke-width:1"/>
<polygon points="12.432905873614203,21.575512408432193 12.341946476636476,21.642009304608365 14.679620996239848,12.16160670441599" style="fill:none;stroke:black;stroke-width:1"/>
<polygon points="12.529038440578017,21.52569486174905 12.432905873614203,21.575512408432193 14.679620996239848,12.16160670441599" style="fill:none;stroke:black;stroke-width:1"/>
<polygon points="11.99399297755671,22.49657961669521 12.003074942351272,22.56602462423561 14.083366085155347,15.838324470383792" style="fill:none;stroke:black;stroke-width:1"/>
<polygon points="12.003074942351272,22.56602462423561 12.01834894365238,22.625712543501972 14.083366085155347,15.838324470383792" style="fill:none;stroke:black;stroke-width:1"/>
<polygon points="18.531817165649333,24.10896551724138 18.049363457140235,22.813888767107848 18.175486840894127,22.698370051381623" style="fill:none;stroke:black;stroke-width:1"/>
<polygon points="18.049363457140235,22.813888767107848 18.155062547444036,23.989220897222964 17.942460942169948,22.960120953023797" style="fill:none;stroke:black;stroke-width:1"/>
<polygon points="18.049363457140235,22.813888767107848 18.531817165649333,24.10896551724138 18.155062547444036,23.989220897222964" style="fill:none;stroke:black;stroke-width:1"/>
<polygon points="12.038543267979156,22.674944244091918 12.061636235630957,22.714998829785074 17.942460942169948,22.960120953023797" style="fill:none;stroke:black;stroke-width:1"/>
<polygon points="12.061636235630957,22.714998829785074 18.049363457140235,22.813888767107848 17.942460942169948,22.960120953023797" style="fill:none;stroke:black;stroke-width:1"/>
<polygon points="18.049363457140235,22.813888767107848 12.061636235630957,22.714998829785074 12.092097422542729,22.75580064848805" style="fill:none;stroke:black;stroke-width:1"/>
<polygon points="12.308575693671216,22.902243163873337 18.448923220731572,22.54948748637845 18.312984437017775,22.618351612638143" style="fill:none;stroke:black;stroke-width:1"/>
<polygon points="13.49831348346271,7.014869550639604 12.953714116673186,8.448021064175224 13.353224447119242,6.924261908635252" style="fill:none;stroke:black;stroke-width:1"/>
<polygon points="12.953714116673186,8.448021064175224 12.819032054467359,8.373406503339208 13.353224447119242,6.924261908635252" style="fill:none;stroke:black;stroke-width:1"/>
<polygon points="12.819032054467359,8.373406503339208 12.953714116673186,8.448021064175224 13.435916311748274,9.069576730916271" style="fill:none;stroke:black;stroke-width:1"/>
<polygon points="11.211989638931295,6.644673745293632 11.326206896551724,7.939655172413794 11.016528583527348,6.764175437756146" style="fill:none;stroke:black;stroke-width:1"/>
<polygon points="11.211989638931295,6.644673745293632 11.423271455524889,6.59788237929461 11.326206896551724,7.939655172413794" style="fill:none;stroke:black;stroke-width:1"/>
<polygon points="11.211989638931295,6.644673745293632 11.016528583527348,6.764175437756146 15.83495812057972,3.738403496270281" style="fill:none;stroke:black;stroke-width:1"/>
<polygon points="11.423271455524889,6.59788237929461 11.211989638931295,6.644673745293632 15.83495812057972,3.738403496270281" style="fill:none;stroke:black;stroke-width:1"/>
<polygon points="13.251040550376052,21.739879333274153 13.227956188424148,21.699981836363662 15.196181247418217,11.36611181205976" style="fill:none;stroke:black;stroke-width:1"/>
<polygon points="13.227956188424148,21.699981836363662 13.197679375795314,21.659468975716795 15.196181247418217,11.36611181205976" style="fill:none;stroke:black;stroke-width:1"/>
<polygon points="13.286508876003937,21.84879895313046 16.967701302911504,12.120500086912656 13.2955908407985,21.918243960670864" style="fill:none;stroke:black;stroke-width:1"/>
<polygon points="13.286508876003937,21.84879895313046 13.271234874702827,21.789111033864096 16.967701302911504,12.120500086912656" style="fill:none;stroke:black;stroke-width:1"/>
<polygon points="12.819765940688223,21.476471776590902 12.725494193983504,21.47625472707597 14.679620996239848,12.16160670441599" style="fill:none;stroke:black;stroke-width:1"/>
<polygon points="12.905627556201953,21.49075294952184 12.819765940688223,21.476471776590902 14.679620996239848,12.16160670441599" style="fill:none;stroke:black;stroke-width:1"/>
<polygon points="12.982213749688208,21.513704404116055 12.905627556201953,21.49075294952184 14.679620996239848,12.16160670441599" style="fill:none;stroke:black;stroke-width:1"/>
<polygon points="11.998985235188414,22.331970781548684 11.992277110634927,22.41823052639382 14.033213008914563,13.867831447389305" style="fill:none;stroke:black;stroke-width:1"/>
<polygon points="12.015042393441833,22.23891856612479 11.998985235188414,22.331970781548684 14.033213008914563,13.867831447389305" style="fill:none;stroke:black;stroke-width:1"/>
<polygon points="12.078154517461698,22.037425742197655 12.041226187773574,22.140299185405773 14.033213008914563,13.867831447389305" style="fill:none;stroke:black;stroke-width:1"/>
<polygon points="12.041226187773574,22.140299185405773 12.015042393441833,22.23891856612479 14.033213008914563,13.867831447389305" style="fill:none;stroke:black;stroke-width:1"/>
<polygon points="12.341946476636476,21.642009304608365 12.258783098748815,21.725057284236723 14.033213008914563,13.867831447389305" style="fill:none;stroke:black;stroke-width:1"/>
<polygon points="12.258783098748815,21.725057284236723 12.185862068965518,21.82448275862069 14.033213008914563,13.867831447389305" style="fill:none;stroke:black;stroke-width:1"/>
<polygon points="12.12627583404323,21.931678428413136 12.078154517461698,22.037425742197655 14.033213008914563,13.867831447389305" style="fill:none;stroke:black;stroke-width:1"/>
<polygon points="12.185862068965518,21.82448275862069 12.12627583404323,21.931678428413136 14.033213008914563,13.867831447389305" style="fill:none;stroke:black;stroke-width:1"/>
<polygon points="18.175486840894127,22.698370051381623 12.24064749537984,22.872091751789284 18.312984437017775,22.618351612638143" style="fill:none;stroke:black;stroke-width:1"/>
<polygon points="12.24064749537984,22.872091751789284 12.308575693671216,22.902243163873337 18.312984437017775,22.618351612638143" style="fill:none;stroke:black;stroke-width:1"/>
<polygon points="18.448923220731572,22.54948748637845 12.385483835385225,22.925244632303716 18.584862004445373,22.48062336011876" style="fill:none;stroke:black;stroke-width:1"/>
<polygon points="12.308575693671216,22.902243163873337 12.385483835385225,22.925244632303716 18.448923220731572,22.54948748637845" style="fill:none;stroke:black;stroke-width:1"/>
<polygon points="18.584862004445373,22.48062336011876 12.385483835385225,22.925244632303716 18.720800788159174,22.411759233859065" style="fill:none;stroke:black;stroke-width:1"/>
<polygon points="13.07430150215797,8.532632127681243 13.49831348346271,7.014869550639604 13.644761210257927,7.1249869472645155" style="fill:none;stroke:black;stroke-width:1"/>
<polygon points="13.07430150215797,8.532632127681243 12.953714116673186,8.448021064175224 13.49831348346271,7.014869550639604" style="fill:none;stroke:black;stroke-width:1"/>
<polygon points="13.07430150215797,8.532632127681243 13.644761210257927,7.1249869472645155 13.789281699282004,7.255301628502531" style="fill:none;stroke:black;stroke-width:1"/>
<polygon points="12.953714116673186,8.448021064175224 13.07430150215797,8.532632127681243 13.435916311748274,9.069576730916271" style="fill:none;stroke:black;stroke-width:1"/>
<polygon points="13.108419306356954,21.579294730380113 13.049847514540794,21.543758013519955 14.679620996239848,12.16160670441599" style="fill:none;stroke:black;stroke-width:1"/>
<polygon points="13.049847514540794,21.543758013519955 12.982213749688208,21.513704404116055 14.679620996239848,12.16160670441599" style="fill:none;stroke:black;stroke-width:1"/>
<polygon points="18.049363457140235,22.813888767107848 12.132225423686,22.796988612008363 18.175486840894127,22.698370051381623" style="fill:none;stroke:black;stroke-width:1"/>
<polygon points="12.132225423686,22.796988612008363 18.049363457140235,22.813888767107848 12.092097422542729,22.75580064848805" style="fill:none;stroke:black;stroke-width:1"/>
<polygon points="12.47143765988341,22.939791096885727 18.856739571872975,22.342895107599375 18.720800788159174,22.411759233859065" style="fill:none;stroke:black;stroke-width:1"/>
<polygon points="12.385483835385225,22.925244632303716 12.47143765988341,22.939791096885727 18.720800788159174,22.411759233859065" style="fill:none;stroke:black;stroke-width:1"/>
<polygon points="18.856739571872975,22.342895107599375 12.47143765988341,22.939791096885727 18.992678355586772,22.274030981339685" style="fill:none;stroke:black;stroke-width:1"/>
<polygon points="13.928589022312046,7.406501124346198 13.179939869006905,8.626209458018831 13.789281699282004,7.255301628502531" style="fill:none;stroke:black;stroke-width:1"/>
<polygon points="13.179939869006905,8.626209458018831 13.07430150215797,8.532632127681243 13.789281699282004,7.255301628502531" style="fill:none;stroke:black;stroke-width:1"/>
<polygon points="13.07430150215797,8.532632127681243 13.179939869006905,8.626209458018831 13.435916311748274,9.069576730916271" style="fill:none;stroke:black;stroke-width:1"/>
<polygon points="12.181808784913855,22.83640944340499 12.24064749537984,22.872091751789284 18.175486840894127,22.698370051381623" style="fill:none;stroke:black;stroke-width:1"/>
<polygon points="12.132225423686,22.796988612008363 12.181808784913855,22.83640944340499 18.175486840894127,22.698370051381623" style="fill:none;stroke:black;stroke-width:1"/>
<polygon points="12.564903632979306,22.940683864256876 19.264574330656412,22.136252805801423 19.128617139300573,22.205166855079987" style="fill:none;stroke:black;stroke-width:1"/>
<polygon points="19.264574330656412,22.136252805801423 12.564903632979306,22.940683864256876 12.66218670453349,22.92450711800154" style="fill:none;stroke:black;stroke-width:1"/>
<polygon points="18.992678355586772,22.274030981339685 12.564903632979306,22.940683864256876 19.128617139300573,22.205166855079987" style="fill:none;stroke:black;stroke-width:1"/>
<polygon points="12.47143765988341,22.939791096885727 12.564903632979306,22.940683864256876 18.992678355586772,22.274030981339685" style="fill:none;stroke:black;stroke-width:1"/>
<polygon points="13.2697748753052,8.727722819349559 13.928589022312046,7.406501124346198 14.059397251125155,7.579272964788056" style="fill:none;stroke:black;stroke-width:1"/>
<polygon points="13.2697748753052,8.727722819349559 13.179939869006905,8.626209458018831 13.928589022312046,7.406501124346198" style="fill:none;stroke:black;stroke-width:1"/>
<polygon points="13.2697748753052,8.727722819349559 14.059397251125155,7.579272964788056 14.178420597231316,7.774304678083308" style="fill:none;stroke:black;stroke-width:1"/>
<polygon points="13.179939869006905,8.626209458018831 13.398617438590684,8.95043669163671 13.435916311748274,9.069576730916271" style="fill:none;stroke:black;stroke-width:1"/>
<polygon points="13.2697748753052,8.727722819349559 13.398617438590684,8.95043669163671 13.179939869006905,8.626209458018831" style="fill:none;stroke:black;stroke-width:1"/>
<polygon points="13.398617438590684,8.95043669163671 14.358403227121268,8.222085443273707 13.435916311748274,9.069576730916271" style="fill:none;stroke:black;stroke-width:1"/>
<polygon points="13.398617438590684,8.95043669163671 14.280589507384025,7.989953008499384 14.358403227121268,8.222085443273707" style="fill:none;stroke:black;stroke-width:1"/>
<polygon points="14.280589507384025,7.989953008499384 13.34295217913806,8.836141975834996 14.178420597231316,7.774304678083308" style="fill:none;stroke:black;stroke-width:1"/>
<polygon points="13.398617438590684,8.95043669163671 13.34295217913806,8.836141975834996 14.280589507384025,7.989953008499384" style="fill:none;stroke:black;stroke-width:1"/>
<polygon points="13.34295217913806,8.836141975834996 13.2697748753052,8.727722819349559 14.178420597231316,7.774304678083308" style="fill:none;stroke:black;stroke-width:1"/>
<polygon points="13.34295217913806,8.836141975834996 13.398617438590684,8.95043669163671 13.2697748753052,8.727722819349559" style="fill:none;stroke:black;stroke-width:1"/>
<polygon points="13.211429300893514,22.377397835168416 20.959003132787963,21.81592093113659 13.16330798431198,22.483145148952936" style="fill:none;stroke:black;stroke-width:1"/>
<polygon points="13.16330798431198,22.483145148952936 20.959003132787963,21.81592093113659 19.11482911459961,23.271959949059504" style="fill:none;stroke:black;stroke-width:1"/>
<polygon points="12.947660542519138,22.77383056570749 21.330055361563392,14.416695230539826 19.523252238631652,13.15056277965651" style="fill:none;stroke:black;stroke-width:1"/>
<polygon points="12.947660542519138,22.77383056570749 19.523252238631652,13.15056277965651 12.85634061089817,22.840954000103622" style="fill:none;stroke:black;stroke-width:1"/>
<polygon points="22.52908990725345,16.261968852343664 12.947660542519138,22.77383056570749 13.031800840686742,22.690114452219717" style="fill:none;stroke:black;stroke-width:1"/>
<polygon points="12.947660542519138,22.77383056570749 22.52908990725345,16.261968852343664 21.330055361563392,14.416695230539826" style="fill:none;stroke:black;stroke-width:1"/>
<polygon points="17.29254212896681,12.646141369275757 12.760284131554751,22.89123630666311 12.85634061089817,22.840954000103622" style="fill:none;stroke:black;stroke-width:1"/>
<polygon points="19.523252238631652,13.15056277965651 17.29254212896681,12.646141369275757 12.85634061089817,22.840954000103622" style="fill:none;stroke:black;stroke-width:1"/>
<polygon points="12.760284131554751,22.89123630666311 17.29254212896681,12.646141369275757 12.66218670453349,22.92450711800154" style="fill:none;stroke:black;stroke-width:1"/>
<polygon points="17.29254212896681,12.646141369275757 14.940498337110093,13.047744432360771 12.66218670453349,22.92450711800154" style="fill:none;stroke:black;stroke-width:1"/>
<polygon points="19.170563921881012,25.03000851609821 22.93344827586207,18.497586206896553 21.34850265431264,24.034426213764906" style="fill:none;stroke:black;stroke-width:1"/>
<polygon points="22.93344827586207,18.497586206896553 11.1127885210938,18.39304560592017 11.693502290289791,16.105286586527473" style="fill:none;stroke:black;stroke-width:1"/>
<polygon points="19.974050471966066,18.89381313490241 22.93344827586207,18.497586206896553 21.520590261215382,18.545932148912797" style="fill:none;stroke:black;stroke-width:1"/>
<polygon points="22.93344827586207,18.497586206896553 11.410375519603134,20.795304816528763 11.1127885210938,18.39304560592017" style="fill:none;stroke:black;stroke-width:1"/>
<polygon points="22.93344827586207,18.497586206896553 20.562018066328697,16.50984859326626 21.62662969048334,18.58531182332044" style="fill:none;stroke:black;stroke-width:1"/>
<polygon points="22.93344827586207,18.497586206896553 22.97107301053742,16.37006035514311 21.45918863970448,14.670005282452323" style="fill:none;stroke:black;stroke-width:1"/>
<polygon points="22.93344827586207,18.497586206896553 16.325084788597174,12.88588281805415 14.430610762851218,14.193405788892496" style="fill:none;stroke:black;stroke-width:1"/>
<polygon points="19.32809044449114,13.693616572371521 22.93344827586207,18.497586206896553 21.45918863970448,14.670005282452323" style="fill:none;stroke:black;stroke-width:1"/>
<polygon points="22.93344827586207,18.497586206896553 17.29254212896681,12.646141369275757 19.523252238631652,13.15056277965651" style="fill:none;stroke:black;stroke-width:1"/>
<polygon points="23.446825515140098,18.30569773181146 22.93344827586207,18.497586206896553 21.62662969048334,18.58531182332044" style="fill:none;stroke:black;stroke-width:1"/>
<polygon points="18.542505600498412,15.425395503381832 22.93344827586207,18.497586206896553 16.352689727654315,16.005083202036108" style="fill:none;stroke:black;stroke-width:1"/>
<polygon points="13.192867623587405,16.183178905965477 22.93344827586207,18.497586206896553 14.430610762851218,14.193405788892496" style="fill:none;stroke:black;stroke-width:1"/>
<polygon points="22.93344827586207,18.497586206896553 15.202587572272451,17.866371826599888 16.352689727654315,16.005083202036108" style="fill:none;stroke:black;stroke-width:1"/>
<polygon points="22.93344827586207,18.497586206896553 16.67840030449538,23.056933200866403 19.846725696548404,16.323066466902027" style="fill:none;stroke:black;stroke-width:1"/>
<polygon points="22.93344827586207,18.497586206896553 14.366419326318951,24.380292895660013 12.558042806316102,22.864637196382873" style="fill:none;stroke:black;stroke-width:1"/>
<polygon points="22.93344827586207,18.497586206896553 16.402585723957483,20.8935207661825 14.599267636335409,19.581387799116634" style="fill:none;stroke:black;stroke-width:1"/>
<polygon points="22.93344827586207,18.497586206896553 22.108133400745306,19.726163577703026 21.520590261215382,18.545932148912797" style="fill:none;stroke:black;stroke-width:1"/>
<polygon points="20.959003132787963,21.81592093113659 22.93344827586207,18.497586206896553 19.11482911459961,23.271959949059504" style="fill:none;stroke:black;stroke-width:1"/>
<polygon points="22.93344827586207,18.497586206896553 22.967814446638833,22.351793323418043 21.34850265431264,24.034426213764906" style="fill:none;stroke:black;stroke-width:1"/>
<polygon points="20.562018066328697,16.50984859326626 22.93344827586207,18.497586206896553 18.542505600498412,15.425395503381832" style="fill:none;stroke:black;stroke-width:1"/>
<polygon points="22.93344827586207,18.497586206896553 13.192867623587405,16.183178905965477 13.268714259030217,17.952735271694465" style="fill:none;stroke:black;stroke-width:1"/>
<polygon points="15.202587572272451,17.866371826599888 22.93344827586207,18.497586206896553 13.268714259030217,17.952735271694465" style="fill:none;stroke:black;stroke-width:1"/>
<polygon points="13.018682720222749,14.2621463993068 22.93344827586207,18.497586206896553 11.693502290289791,16.105286586527473" style="fill:none;stroke:black;stroke-width:1"/>
<polygon points="22.93344827586207,18.497586206896553 20.653368378404558,18.420639827047403 16.325084788597174,12.88588281805415" style="fill:none;stroke:black;stroke-width:1"/>
<polygon points="11.410375519603134,20.795304816528763 22.93344827586207,18.497586206896553 12.558042806316102,22.864637196382873" style="fill:none;stroke:black;stroke-width:1"/>
<polygon points="22.93344827586207,18.497586206896553 15.482345527323083,18.2598243363403 16.912173641888202,20.08864700177871" style="fill:none;stroke:black;stroke-width:1"/>
<polygon points="21.330055361563392,14.416695230539826 22.93344827586207,18.497586206896553 19.523252238631652,13.15056277965651" style="fill:none;stroke:black;stroke-width:1"/>
<polygon points="22.52908990725345,16.261968852343664 22.93344827586207,18.497586206896553 21.330055361563392,14.416695230539826" style="fill:none;stroke:black;stroke-width:1"/>
<polygon points="16.402585723957483,20.8935207661825 22.93344827586207,18.497586206896553 18.63019797605081,20.59264233237879" style="fill:none;stroke:black;stroke-width:1"/>
<polygon points="22.93344827586207,18.497586206896553 19.974050471966066,18.89381313490241 18.63019797605081,20.59264233237879" style="fill:none;stroke:black;stroke-width:1"/>
<polygon points="22.93344827586207,18.497586206896553 20.959003132787963,21.81592093113659 22.108133400745306,19.726163577703026" style="fill:none;stroke:black;stroke-width:1"/>
<polygon points="22.97107301053742,16.37006035514311 22.93344827586207,18.497586206896553 23.446825515140098,18.30569773181146" style="fill:none;stroke:black;stroke-width:1"/>
<polygon points="22.967814446638833,22.351793323418043 22.93344827586207,18.497586206896553 23.87820430455028,20.165596708596095" style="fill:none;stroke:black;stroke-width:1"/>
<polygon points="22.93344827586207,18.497586206896553 19.32809044449114,13.693616572371521 23.87820430455028,20.165596708596095" style="fill:none;stroke:black;stroke-width:1"/>
<polygon points="19.263650584873247,20.135987555456087 22.93344827586207,18.497586206896553 16.912173641888202,20.08864700177871" style="fill:none;stroke:black;stroke-width:1"/>
<polygon points="18.025901527319107,15.175068727698513 22.93344827586207,18.497586206896553 19.846725696548404,16.323066466902027" style="fill:none;stroke:black;stroke-width:1"/>
<polygon points="16.67840030449538,23.056933200866403 22.93344827586207,18.497586206896553 14.442252579893928,22.1857421062849" style="fill:none;stroke:black;stroke-width:1"/>
<polygon points="13.599799520511358,18.103710409550217 22.93344827586207,18.497586206896553 14.599267636335409,19.581387799116634" style="fill:none;stroke:black;stroke-width:1"/>
<polygon points="14.366419326318951,24.380292895660013 22.93344827586207,18.497586206896553 16.650236430066528,25.158047988086167" style="fill:none;stroke:black;stroke-width:1"/>
<polygon points="22.93344827586207,18.497586206896553 19.170563921881012,25.03000851609821 16.650236430066528,25.158047988086167" style="fill:none;stroke:black;stroke-width:1"/>
<polygon points="22.93344827586207,18.497586206896553 12.77677271870278,20.55150115625284 14.442252579893928,22.1857421062849" style="fill:none;stroke:black;stroke-width:1"/>
<polygon points="17.29254212896681,12.646141369275757 22.93344827586207,18.497586206896553 14.940498337110093,13.047744432360771" style="fill:none;stroke:black;stroke-width:1"/>
<polygon points="22.93344827586207,18.497586206896553 13.018682720222749,14.2621463993068 14.940498337110093,13.047744432360771" style="fill:none;stroke:black;stroke-width:1"/>
<polygon points="20.653368378404558,18.420639827047403 22.93344827586207,18.497586206896553 19.263650584873247,20.135987555456087" style="fill:none;stroke:black;stroke-width:1"/>
<polygon points="22.93344827586207,18.497586206896553 18.025901527319107,15.175068727698513 16.006703349008845,16.033821569293323" style="fill:none;stroke:black;stroke-width:1"/>
<polygon points="15.482345527323083,18.2598243363403 22.93344827586207,18.497586206896553 16.006703349008845,16.033821569293323" style="fill:none;stroke:black;stroke-width:1"/>
<polygon points="22.93344827586207,18.497586206896553 13.599799520511358,18.103710409550217 11.91177100569267,18.382983040927062" style="fill:none;stroke:black;stroke-width:1"/>
<polygon points="12.77677271870278,20.55150115625284 22.93344827586207,18.497586206896553 11.91177100569267,18.382983040927062" style="fill:none;stroke:black;stroke-width:1"/>
<polygon points="22.93344827586207,18.497586206896553 13.103869185198814,22.590508356308668 13.16330798431198,22.483145148952936" style="fill:none;stroke:black;stroke-width:1"/>
<polygon points="22.93344827586207,18.497586206896553 13.16330798431198,22.483145148952936 19.11482911459961,23.271959949059504" style="fill:none;stroke:black;stroke-width:1"/>
<polygon points="13.103869185198814,22.590508356308668 22.93344827586207,18.497586206896553 13.031800840686742,22.690114452219717" style="fill:none;stroke:black;stroke-width:1"/>
<polygon points="22.93344827586207,18.497586206896553 22.52908990725345,16.261968852343664 13.031800840686742,22.690114452219717" style="fill:none;stroke:black;stroke-width:1"/>
<polygon points="12.564903632979306,22.940683864256876 13.2955908407985,21.918243960670864 13.297306707720281,21.99659305097225" style="fill:none;stroke:black;stroke-width:1"/>
<polygon points="13.290598583166798,22.082852795817384 12.564903632979306,22.940683864256876 13.297306707720281,21.99659305097225" style="fill:none;stroke:black;stroke-width:1"/>
<polygon points="12.564903632979306,22.940683864256876 12.041226187773574,22.140299185405773 12.078154517461698,22.037425742197655" style="fill:none;stroke:black;stroke-width:1"/>
<polygon points="12.564903632979306,22.940683864256876 12.760284131554751,22.89123630666311 12.66218670453349,22.92450711800154" style="fill:none;stroke:black;stroke-width:1"/>
<polygon points="12.564903632979306,22.940683864256876 13.274541424913375,22.175905011241284 13.248357630581635,22.27452439196029" style="fill:none;stroke:black;stroke-width:1"/>
<polygon points="13.211429300893514,22.377397835168416 12.564903632979306,22.940683864256876 13.248357630581635,22.27452439196029" style="fill:none;stroke:black;stroke-width:1"/>
<polygon points="12.564903632979306,22.940683864256876 13.286508876003937,21.84879895313046 13.2955908407985,21.918243960670864" style="fill:none;stroke:black;stroke-width:1"/>
<polygon points="12.564903632979306,22.940683864256876 13.103869185198814,22.590508356308668 13.031800840686742,22.690114452219717" style="fill:none;stroke:black;stroke-width:1"/>
<polygon points="12.760284131554751,22.89123630666311 12.564903632979306,22.940683864256876 12.85634061089817,22.840954000103622" style="fill:none;stroke:black;stroke-width:1"/>
<polygon points="12.947660542519138,22.77383056570749 12.564903632979306,22.940683864256876 13.031800840686742,22.690114452219717" style="fill:none;stroke:black;stroke-width:1"/>
<polygon points="12.564903632979306,22.940683864256876 11.99399297755671,22.49657961669521 11.992277110634927,22.41823052639382" style="fill:none;stroke:black;stroke-width:1"/>
<polygon points="13.274541424913375,22.175905011241284 12.564903632979306,22.940683864256876 13.290598583166798,22.082852795817384" style="fill:none;stroke:black;stroke-width:1"/>
<polygon points="13.103869185198814,22.590508356308668 12.564903632979306,22.940683864256876 13.16330798431198,22.483145148952936" style="fill:none;stroke:black;stroke-width:1"/>
<polygon points="12.564903632979306,22.940683864256876 13.211429300893514,22.377397835168416 13.16330798431198,22.483145148952936" style="fill:none;stroke:black;stroke-width:1"/>
<polygon points="13.197679375795314,21.659468975716795 12.564903632979306,22.940683864256876 13.157763263723943,21.6185221814086" style="fill:none;stroke:black;stroke-width:1"/>
<polygon points="12.564903632979306,22.940683864256876 13.227956188424148,21.699981836363662 13.251040550376052,21.739879333274153" style="fill:none;stroke:black;stroke-width:1"/>
<polygon points="12.432905873614203,21.575512408432193 12.564903632979306,22.940683864256876 12.341946476636476,21.642009304608365" style="fill:none;stroke:black;stroke-width:1"/>
<polygon points="12.564903632979306,22.940683864256876 12.947660542519138,22.77383056570749 12.85634061089817,22.840954000103622" style="fill:none;stroke:black;stroke-width:1"/>
<polygon points="12.564903632979306,22.940683864256876 12.061636235630957,22.714998829785074 12.038543267979156,22.674944244091918" style="fill:none;stroke:black;stroke-width:1"/>
<polygon points="12.564903632979306,22.940683864256876 13.108419306356954,21.579294730380113 13.157763263723943,21.6185221814086" style="fill:none;stroke:black;stroke-width:1"/>
<polygon points="12.564903632979306,22.940683864256876 12.627551880682894,21.492617841493054 12.725494193983504,21.47625472707597" style="fill:none;stroke:black;stroke-width:1"/>
<polygon points="12.564903632979306,22.940683864256876 12.132225423686,22.796988612008363 12.092097422542729,22.75580064848805" style="fill:none;stroke:black;stroke-width:1"/>
<polygon points="12.01834894365238,22.625712543501972 12.564903632979306,22.940683864256876 12.038543267979156,22.674944244091918" style="fill:none;stroke:black;stroke-width:1"/>
<polygon points="12.564903632979306,22.940683864256876 12.003074942351272,22.56602462423561 11.99399297755671,22.49657961669521" style="fill:none;stroke:black;stroke-width:1"/>
<polygon points="12.564903632979306,22.940683864256876 13.049847514540794,21.543758013519955 13.108419306356954,21.579294730380113" style="fill:none;stroke:black;stroke-width:1"/>
<polygon points="13.271234874702827,21.789111033864096 12.564903632979306,22.940683864256876 13.251040550376052,21.739879333274153" style="fill:none;stroke:black;stroke-width:1"/>
<polygon points="12.819765940688223,21.476471776590902 12.564903632979306,22.940683864256876 12.725494193983504,21.47625472707597" style="fill:none;stroke:black;stroke-width:1"/>
<polygon points="12.627551880682894,21.492617841493054 12.564903632979306,22.940683864256876 12.529038440578017,21.52569486174905" style="fill:none;stroke:black;stroke-width:1"/>
<polygon points="12.564903632979306,22.940683864256876 12.432905873614203,21.575512408432193 12.529038440578017,21.52569486174905" style="fill:none;stroke:black;stroke-width:1"/>
<polygon points="11.998985235188414,22.331970781548684 12.564903632979306,22.940683864256876 11.992277110634927,22.41823052639382" style="fill:none;stroke:black;stroke-width:1"/>
<polygon points="12.564903632979306,22.940683864256876 12.258783098748815,21.725057284236723 12.341946476636476,21.642009304608365" style="fill:none;stroke:black;stroke-width:1"/>
<polygon points="12.003074942351272,22.56602462423561 12.564903632979306,22.940683864256876 12.01834894365238,22.625712543501972" style="fill:none;stroke:black;stroke-width:1"/>
<polygon points="12.061636235630957,22.714998829785074 12.564903632979306,22.940683864256876 12.092097422542729,22.75580064848805" style="fill:none;stroke:black;stroke-width:1"/>
<polygon points="12.12627583404323,21.931678428413136 12.564903632979306,22.940683864256876 12.078154517461698,22.037425742197655" style="fill:none;stroke:black;stroke-width:1"/>
<polygon points="13.227956188424148,21.699981836363662 12.564903632979306,22.940683864256876 13.197679375795314,21.659468975716795" style="fill:none;stroke:black;stroke-width:1"/>
<polygon points="13.286508876003937,21.84879895313046 12.564903632979306,22.940683864256876 13.271234874702827,21.789111033864096" style="fill:none;stroke:black;stroke-width:1"/>
<polygon points="12.564903632979306,22.940683864256876 12.819765940688223,21.476471776590902 12.905627556201953,21.49075294952184" style="fill:none;stroke:black;stroke-width:1"/>
<polygon points="12.982213749688208,21.513704404116055 12.564903632979306,22.940683864256876 12.905627556201953,21.49075294952184" style="fill:none;stroke:black;stroke-width:1"/>
<polygon points="12.564903632979306,22.940683864256876 11.998985235188414,22.331970781548684 12.015042393441833,22.23891856612479" style="fill:none;stroke:black;stroke-width:1"/>
<polygon points="12.041226187773574,22.140299185405773 12.564903632979306,22.940683864256876 12.015042393441833,22.23891856612479" style="fill:none;stroke:black;stroke-width:1"/>
<polygon points="12.258783098748815,21.725057284236723 12.564903632979306,22.940683864256876 12.185862068965518,21.82448275862069" style="fill:none;stroke:black;stroke-width:1"/>
<polygon points="12.564903632979306,22.940683864256876 12.12627583404323,21.931678428413136 12.185862068965518,21.82448275862069" style="fill:none;stroke:black;stroke-width:1"/>
<polygon points="12.24064749537984,22.872091751789284 12.564903632979306,22.940683864256876 12.308575693671216,22.902243163873337" style="fill:none;stroke:black;stroke-width:1"/>
<polygon points="12.564903632979306,22.940683864256876 12.385483835385225,22.925244632303716 12.308575693671216,22.902243163873337" style="fill:none;stroke:black;stroke-width:1"/>
<polygon points="13.049847514540794,21.543758013519955 12.564903632979306,22.940683864256876 12.982213749688208,21.513704404116055" style="fill:none;stroke:black;stroke-width:1"/>
<polygon points="12.181808784913855,22.83640944340499 12.564903632979306,22.940683864256876 12.24064749537984,22.872091751789284" style="fill:none;stroke:black;stroke-width:1"/>
<polygon points="12.564903632979306,22.940683864256876 12.47143765988341,22.939791096885727 12.385483835385225,22.925244632303716" style="fill:none;stroke:black;stroke-width:1"/>
<polygon points="12.564903632979306,22.940683864256876 12.181808784913855,22.83640944340499 12.132225423686,22.796988612008363" style="fill:none;stroke:black;stroke-width:1"/>
</svg>
