<?xml version="1.0" encoding="UTF-8" standalone="no"?>
<svg xmlns="http://www.w3.org/2000/svg" version="1.1" width="800" height="800">
<polygon points="17.25230717015768,15.704002374940636 18.18926226170253,13.825683642611693 18.96999330358119,15.75935583683415" style="fill:none;stroke:black;stroke-width:1"/>
<polygon points="16.090019765856887,8.78416771808964 14.75568753834716,8.660474805226947 15.147129602893706,7.652683089593841" style="fill:none;stroke:black;stroke-width:1"/>
<polygon points="20.599300150602232,5.968846267050278 21.362503722296307,4.963447218303374 22.42263073234109,6.1007909167026195" style="fill:none;stroke:black;stroke-width:1"/>
<polygon points="18.046984179815205,4.601752085636404 10.40509849149783,7.754448922889624 18.57330012524316,3.769902576327847" style="fill:none;stroke:black;stroke-width:1"/>
<polygon points="14.758204556700862,7.945841651362596 14.920344827586208,8.788275862068966 14.310738453978656,6.696294729231964" style="fill:none;stroke:black;stroke-width:1"/>
<polygon points="14.75568753834716,8.660474805226947 14.920344827586208,8.788275862068966 15.147129602893706,7.652683089593841" style="fill:none;stroke:black;stroke-width:1"/>
<polygon points="14.920344827586208,8.788275862068966 14.758204556700862,7.945841651362596 15.147129602893706,7.652683089593841" style="fill:none;stroke:black;stroke-width:1"/>
<polygon points="14.485419551203572,5.2942969369010076 14.378840528074633,6.680600827364895 14.310738453978656,6.696294729231964" style="fill:none;stroke:black;stroke-width:1"/>
<polygon points="14.378840528074633,6.680600827364895 14.758204556700862,7.945841651362596 14.310738453978656,6.696294729231964" style="fill:none;stroke:black;stroke-width:1"/>
<polygon points="15.707536708162559,4.521096601071738 14.378840528074633,6.680600827364895 14.485419551203572,5.2942969369010076" style="fill:none;stroke:black;stroke-width:1"/>
<polygon points="20.340447326308492,15.039363564380867 19.609819415835638,13.377513358336309 21.135372375247343,13.264972819264477" style="fill:none;stroke:black;stroke-width:1"/>
<polygon points="19.609819415835638,13.377513358336309 20.340447326308492,15.039363564380867 18.96999330358119,15.75935583683415" style="fill:none;stroke:black;stroke-width:1"/>
<polygon points="18.18926226170253,13.825683642611693 19.609819415835638,13.377513358336309 18.96999330358119,15.75935583683415" style="fill:none;stroke:black;stroke-width:1"/>
<polygon points="19.48793152101593,11.267949136733787 21.204106680584424,12.025306994658692 21.135372375247343,13.264972819264477" style="fill:none;stroke:black;stroke-width:1"/>
<polygon points="19.609819415835638,13.377513358336309 19.48793152101593,11.267949136733787 21.135372375247343,13.264972819264477" style="fill:none;stroke:black;stroke-width:1"/>
<polygon points="16.672147438771372,7.7569007235380525 16.090019765856887,8.78416771808964 15.147129602893706,7.652683089593841" style="fill:none;stroke:black;stroke-width:1"/>
<polygon points="16.090019765856887,8.78416771808964 16.672147438771372,7.7569007235380525 17.666551823769172,8.696969302117552" style="fill:none;stroke:black;stroke-width:1"/>
<polygon points="20.599300150602232,5.968846267050278 19.273056242145103,5.259407372400981 21.362503722296307,4.963447218303374" style="fill:none;stroke:black;stroke-width:1"/>
<polygon points="18.57330012524316,3.769902576327847 16.56014783593417,4.182320915689118 17.024002428599726,3.907447369397631" style="fill:none;stroke:black;stroke-width:1"/>
<polygon points="15.319061082355294,4.976456907103872 14.378840528074633,6.680600827364895 15.707536708162559,4.521096601071738" style="fill:none;stroke:black;stroke-width:1"/>
<polygon points="14.378840528074633,6.680600827364895 15.319061082355294,4.976456907103872 14.758204556700862,7.945841651362596" style="fill:none;stroke:black;stroke-width:1"/>
<polygon points="15.319061082355294,4.976456907103872 15.707536708162559,4.521096601071738 17.024002428599726,3.907447369397631" style="fill:none;stroke:black;stroke-width:1"/>
<polygon points="22.318050649865764,7.691756929797965 20.599300150602232,5.968846267050278 22.42263073234109,6.1007909167026195" style="fill:none;stroke:black;stroke-width:1"/>
<polygon points="21.204106680584424,12.025306994658692 22.318050649865764,7.691756929797965 21.135372375247343,13.264972819264477" style="fill:none;stroke:black;stroke-width:1"/>
<polygon points="22.318050649865764,7.691756929797965 21.204106680584424,12.025306994658692 21.42223221658334,10.501049847218251" style="fill:none;stroke:black;stroke-width:1"/>
<polygon points="14.9933829341699,10.387912622839629 14.920344827586208,8.788275862068966 14.75568753834716,8.660474805226947" style="fill:none;stroke:black;stroke-width:1"/>
<polygon points="14.920344827586208,8.788275862068966 14.9933829341699,10.387912622839629 14.310738453978656,6.696294729231964" style="fill:none;stroke:black;stroke-width:1"/>
<polygon points="19.26367796187509,8.623922590735567 19.02089900937226,9.125386543701932 17.666551823769172,8.696969302117552" style="fill:none;stroke:black;stroke-width:1"/>
<polygon points="19.48793152101593,11.267949136733787 19.591992045814756,9.951196993738778 21.204106680584424,12.025306994658692" style="fill:none;stroke:black;stroke-width:1"/>
<polygon points="21.204106680584424,12.025306994658692 19.591992045814756,9.951196993738778 21.42223221658334,10.501049847218251" style="fill:none;stroke:black;stroke-width:1"/>
<polygon points="19.591992045814756,9.951196993738778 19.26367796187509,8.623922590735567 21.42223221658334,10.501049847218251" style="fill:none;stroke:black;stroke-width:1"/>
<polygon points="19.26367796187509,8.623922590735567 19.591992045814756,9.951196993738778 19.02089900937226,9.125386543701932" style="fill:none;stroke:black;stroke-width:1"/>
<polygon points="22.425448501140274,21.914078931394442 19.609819415835638,13.377513358336309 18.18926226170253,13.825683642611693" style="fill:none;stroke:black;stroke-width:1"/>
<polygon points="19.609819415835638,13.377513358336309 22.425448501140274,21.914078931394442 22.51354803109455,21.780594478232445" style="fill:none;stroke:black;stroke-width:1"/>
<polygon points="21.4314698717498,22.946767714321943 21.560419054679336,22.85308224861487 18.18926226170253,13.825683642611693" style="fill:none;stroke:black;stroke-width:1"/>
<polygon points="16.172383731229328,8.085010875757511 16.672147438771372,7.7569007235380525 15.147129602893706,7.652683089593841" style="fill:none;stroke:black;stroke-width:1"/>
<polygon points="14.758204556700862,7.945841651362596 16.172383731229328,8.085010875757511 15.147129602893706,7.652683089593841" style="fill:none;stroke:black;stroke-width:1"/>
<polygon points="15.319061082355294,4.976456907103872 16.172383731229328,8.085010875757511 14.758204556700862,7.945841651362596" style="fill:none;stroke:black;stroke-width:1"/>
<polygon points="16.672147438771372,7.7569007235380525 18.220967485844245,7.858312798206908 17.666551823769172,8.696969302117552" style="fill:none;stroke:black;stroke-width:1"/>
<polygon points="18.220967485844245,7.858312798206908 19.26367796187509,8.623922590735567 17.666551823769172,8.696969302117552" style="fill:none;stroke:black;stroke-width:1"/>
<polygon points="19.26367796187509,8.623922590735567 18.220967485844245,7.858312798206908 19.58676439901548,7.281331780363814" style="fill:none;stroke:black;stroke-width:1"/>
<polygon points="19.273056242145103,5.259407372400981 19.911951275804384,4.600008624129609 21.362503722296307,4.963447218303374" style="fill:none;stroke:black;stroke-width:1"/>
<polygon points="19.911951275804384,4.600008624129609 19.273056242145103,5.259407372400981 18.046984179815205,4.601752085636404" style="fill:none;stroke:black;stroke-width:1"/>
<polygon points="21.362503722296307,4.963447218303374 19.911951275804384,4.600008624129609 18.57330012524316,3.769902576327847" style="fill:none;stroke:black;stroke-width:1"/>
<polygon points="19.911951275804384,4.600008624129609 18.046984179815205,4.601752085636404 18.57330012524316,3.769902576327847" style="fill:none;stroke:black;stroke-width:1"/>
<polygon points="20.450004517954664,7.465720024609757 19.273056242145103,5.259407372400981 20.599300150602232,5.968846267050278" style="fill:none;stroke:black;stroke-width:1"/>
<polygon points="22.318050649865764,7.691756929797965 20.450004517954664,7.465720024609757 20.599300150602232,5.968846267050278" style="fill:none;stroke:black;stroke-width:1"/>
<polygon points="21.458381848336053,8.88042321607654 22.318050649865764,7.691756929797965 21.42223221658334,10.501049847218251" style="fill:none;stroke:black;stroke-width:1"/>
<polygon points="19.26367796187509,8.623922590735567 21.458381848336053,8.88042321607654 21.42223221658334,10.501049847218251" style="fill:none;stroke:black;stroke-width:1"/>
<polygon points="21.458381848336053,8.88042321607654 19.26367796187509,8.623922590735567 19.58676439901548,7.281331780363814" style="fill:none;stroke:black;stroke-width:1"/>
<polygon points="20.450004517954664,7.465720024609757 21.458381848336053,8.88042321607654 19.58676439901548,7.281331780363814" style="fill:none;stroke:black;stroke-width:1"/>
<polygon points="21.458381848336053,8.88042321607654 20.450004517954664,7.465720024609757 22.318050649865764,7.691756929797965" style="fill:none;stroke:black;stroke-width:1"/>
<polygon points="12.893793201364982,19.864786652113704 17.59952986245328,9.16575013036898 17.666551823769172,8.696969302117552" style="fill:none;stroke:black;stroke-width:1"/>
<polygon points="12.88499626760482,23.323936717741162 17.59952986245328,9.16575013036898 12.830354669442038,23.387731517663802" style="fill:none;stroke:black;stroke-width:1"/>
<polygon points="17.59952986245328,9.16575013036898 16.090019765856887,8.78416771808964 17.666551823769172,8.696969302117552" style="fill:none;stroke:black;stroke-width:1"/>
<polygon points="22.425448501140274,21.914078931394442 21.979310344827585,20.546206896551723 22.51354803109455,21.780594478232445" style="fill:none;stroke:black;stroke-width:1"/>
<polygon points="22.471768926263117,20.77222366740159 22.565640659852882,25.402709788941923 19.48793152101593,11.267949136733787" style="fill:none;stroke:black;stroke-width:1"/>
<polygon points="22.67137104114164,21.273943385547096 19.48793152101593,11.267949136733787 19.609819415835638,13.377513358336309" style="fill:none;stroke:black;stroke-width:1"/>
<polygon points="22.67137104114164,21.273943385547096 22.64805478565868,21.089573778864086 19.48793152101593,11.267949136733787" style="fill:none;stroke:black;stroke-width:1"/>
<polygon points="22.648183076314098,21.457398340722975 22.67137104114164,21.273943385547096 19.609819415835638,13.377513358336309" style="fill:none;stroke:black;stroke-width:1"/>
<polygon points="15.908620039485202,14.74734253198195 16.651669811424867,13.349754996157756 17.25230717015768,15.704002374940636" style="fill:none;stroke:black;stroke-width:1"/>
<polygon points="16.651669811424867,13.349754996157756 18.18926226170253,13.825683642611693 17.25230717015768,15.704002374940636" style="fill:none;stroke:black;stroke-width:1"/>
<polygon points="16.172383731229328,8.085010875757511 17.63025429287063,7.997255880320358 16.672147438771372,7.7569007235380525" style="fill:none;stroke:black;stroke-width:1"/>
<polygon points="17.63025429287063,7.997255880320358 18.220967485844245,7.858312798206908 16.672147438771372,7.7569007235380525" style="fill:none;stroke:black;stroke-width:1"/>
<polygon points="10.546371211099693,7.7107867494375135 10.40509849149783,7.754448922889624 18.046984179815205,4.601752085636404" style="fill:none;stroke:black;stroke-width:1"/>
<polygon points="10.683062582802267,7.673442586819316 10.546371211099693,7.7107867494375135 18.046984179815205,4.601752085636404" style="fill:none;stroke:black;stroke-width:1"/>
<polygon points="10.941694898649878,7.6164884348608215 10.814921010640635,7.642111470229072 18.046984179815205,4.601752085636404" style="fill:none;stroke:black;stroke-width:1"/>
<polygon points="10.814921010640635,7.642111470229072 10.683062582802267,7.673442586819316 18.046984179815205,4.601752085636404" style="fill:none;stroke:black;stroke-width:1"/>
<polygon points="19.591992045814756,9.951196993738778 14.599935507868345,9.594920273394793 19.02089900937226,9.125386543701932" style="fill:none;stroke:black;stroke-width:1"/>
<polygon points="11.724805840596668,11.485186528766668 14.599935507868345,9.594920273394793 19.591992045814756,9.951196993738778" style="fill:none;stroke:black;stroke-width:1"/>
<polygon points="16.651669811424867,13.349754996157756 20.765472586215502,23.159605090546314 18.18926226170253,13.825683642611693" style="fill:none;stroke:black;stroke-width:1"/>
<polygon points="15.789819513371842,10.378146160975497 15.856165775148213,11.703070957573448 15.375737796137612,13.18105769112707" style="fill:none;stroke:black;stroke-width:1"/>
<polygon points="15.856165775148213,11.703070957573448 15.908620039485202,14.74734253198195 15.375737796137612,13.18105769112707" style="fill:none;stroke:black;stroke-width:1"/>
<polygon points="16.16772095345701,9.227410056623981 14.9933829341699,10.387912622839629 14.75568753834716,8.660474805226947" style="fill:none;stroke:black;stroke-width:1"/>
<polygon points="16.090019765856887,8.78416771808964 16.16772095345701,9.227410056623981 14.75568753834716,8.660474805226947" style="fill:none;stroke:black;stroke-width:1"/>
<polygon points="22.64805478565868,21.089573778864086 22.57960441059557,20.919307085693127 19.48793152101593,11.267949136733787" style="fill:none;stroke:black;stroke-width:1"/>
<polygon points="22.57960441059557,20.919307085693127 22.471768926263117,20.77222366740159 19.48793152101593,11.267949136733787" style="fill:none;stroke:black;stroke-width:1"/>
<polygon points="22.57960441059557,20.919307085693127 22.648183076314098,21.457398340722975 22.471768926263117,20.77222366740159" style="fill:none;stroke:black;stroke-width:1"/>
<polygon points="22.67137104114164,21.273943385547096 22.57960441059557,20.919307085693127 22.64805478565868,21.089573778864086" style="fill:none;stroke:black;stroke-width:1"/>
<polygon points="22.57960441059557,20.919307085693127 22.67137104114164,21.273943385547096 22.648183076314098,21.457398340722975" style="fill:none;stroke:black;stroke-width:1"/>
<polygon points="22.471768926263117,20.77222366740159 22.330621191612988,20.655241765665487 22.565640659852882,25.402709788941923" style="fill:none;stroke:black;stroke-width:1"/>
<polygon points="22.330621191612988,20.655241765665487 21.979310344827585,20.546206896551723 22.162234065596873,20.575279622160814" style="fill:none;stroke:black;stroke-width:1"/>
<polygon points="21.979310344827585,20.546206896551723 22.330621191612988,20.655241765665487 22.51354803109455,21.780594478232445" style="fill:none;stroke:black;stroke-width:1"/>
<polygon points="22.58921052830649,21.627236603182972 19.609819415835638,13.377513358336309 22.51354803109455,21.780594478232445" style="fill:none;stroke:black;stroke-width:1"/>
<polygon points="22.58921052830649,21.627236603182972 22.648183076314098,21.457398340722975 19.609819415835638,13.377513358336309" style="fill:none;stroke:black;stroke-width:1"/>
<polygon points="22.648183076314098,21.457398340722975 22.58921052830649,21.627236603182972 22.471768926263117,20.77222366740159" style="fill:none;stroke:black;stroke-width:1"/>
<polygon points="22.330621191612988,20.655241765665487 22.58921052830649,21.627236603182972 22.51354803109455,21.780594478232445" style="fill:none;stroke:black;stroke-width:1"/>
<polygon points="22.58921052830649,21.627236603182972 22.330621191612988,20.655241765665487 22.471768926263117,20.77222366740159" style="fill:none;stroke:black;stroke-width:1"/>
<polygon points="20.450004517954664,7.465720024609757 12.441164603456741,8.57828856957773 19.273056242145103,5.259407372400981" style="fill:none;stroke:black;stroke-width:1"/>
<polygon points="11.728946707066768,9.439516783290166 12.441164603456741,8.57828856957773 12.470453727249073,8.797152005057004" style="fill:none;stroke:black;stroke-width:1"/>
<polygon points="19.08812485451194,7.9095008848832045 20.450004517954664,7.465720024609757 19.58676439901548,7.281331780363814" style="fill:none;stroke:black;stroke-width:1"/>
<polygon points="18.220967485844245,7.858312798206908 19.08812485451194,7.9095008848832045 19.58676439901548,7.281331780363814" style="fill:none;stroke:black;stroke-width:1"/>
<polygon points="19.08812485451194,7.9095008848832045 12.441164603456741,8.57828856957773 20.450004517954664,7.465720024609757" style="fill:none;stroke:black;stroke-width:1"/>
<polygon points="12.441164603456741,8.57828856957773 19.08812485451194,7.9095008848832045 12.470453727249073,8.797152005057004" style="fill:none;stroke:black;stroke-width:1"/>
<polygon points="17.63025429287063,7.997255880320358 19.08812485451194,7.9095008848832045 18.220967485844245,7.858312798206908" style="fill:none;stroke:black;stroke-width:1"/>
<polygon points="10.717552487554839,9.421702901123648 10.546371211099693,7.7107867494375135 10.683062582802267,7.673442586819316" style="fill:none;stroke:black;stroke-width:1"/>
<polygon points="11.063132650865084,7.596268515908605 10.941694898649878,7.6164884348608215 18.046984179815205,4.601752085636404" style="fill:none;stroke:black;stroke-width:1"/>
<polygon points="19.273056242145103,5.259407372400981 11.57103448237546,7.612204484149148 18.046984179815205,4.601752085636404" style="fill:none;stroke:black;stroke-width:1"/>
<polygon points="11.719341955922928,7.67010913308256 11.57103448237546,7.612204484149148 19.273056242145103,5.259407372400981" style="fill:none;stroke:black;stroke-width:1"/>
<polygon points="17.868393925042223,12.947662075594712 14.568962903159921,13.89429153207647 19.591992045814756,9.951196993738778" style="fill:none;stroke:black;stroke-width:1"/>
<polygon points="17.59952986245328,9.16575013036898 12.770262253265852,23.45664497640887 12.830354669442038,23.387731517663802" style="fill:none;stroke:black;stroke-width:1"/>
<polygon points="19.971400128493098,22.783055854781736 16.651669811424867,13.349754996157756 15.908620039485202,14.74734253198195" style="fill:none;stroke:black;stroke-width:1"/>
<polygon points="15.856165775148213,11.703070957573448 19.971400128493098,22.783055854781736 15.908620039485202,14.74734253198195" style="fill:none;stroke:black;stroke-width:1"/>
<polygon points="16.16772095345701,9.227410056623981 15.280451292519725,11.877789401491466 14.9933829341699,10.387912622839629" style="fill:none;stroke:black;stroke-width:1"/>
<polygon points="15.280451292519725,11.877789401491466 16.16772095345701,9.227410056623981 15.789819513371842,10.378146160975497" style="fill:none;stroke:black;stroke-width:1"/>
<polygon points="15.280451292519725,11.877789401491466 15.789819513371842,10.378146160975497 15.375737796137612,13.18105769112707" style="fill:none;stroke:black;stroke-width:1"/>
<polygon points="15.280451292519725,11.877789401491466 15.375737796137612,13.18105769112707 14.310738453978656,6.696294729231964" style="fill:none;stroke:black;stroke-width:1"/>
<polygon points="14.9933829341699,10.387912622839629 15.280451292519725,11.877789401491466 14.310738453978656,6.696294729231964" style="fill:none;stroke:black;stroke-width:1"/>
<polygon points="21.560419054679336,22.85308224861487 21.66883235355834,22.74767152888414 18.18926226170253,13.825683642611693" style="fill:none;stroke:black;stroke-width:1"/>
<polygon points="21.66883235355834,22.74767152888414 21.763285160082617,22.644369753434248 18.18926226170253,13.825683642611693" style="fill:none;stroke:black;stroke-width:1"/>
<polygon points="21.66883235355834,22.74767152888414 21.560419054679336,22.85308224861487 20.788585744678013,21.057750282619985" style="fill:none;stroke:black;stroke-width:1"/>
<polygon points="21.95218650229223,22.437777374655173 22.046637173397038,22.334481185265638 18.18926226170253,13.825683642611693" style="fill:none;stroke:black;stroke-width:1"/>
<polygon points="21.95218650229223,22.437777374655173 21.268220740921002,20.679416959282378 22.046637173397038,22.334481185265638" style="fill:none;stroke:black;stroke-width:1"/>
<polygon points="22.32998918671145,22.02459261709702 22.425448501140274,21.914078931394442 18.18926226170253,13.825683642611693" style="fill:none;stroke:black;stroke-width:1"/>
<polygon points="22.235538515606645,22.12788880648656 22.32998918671145,22.02459261709702 18.18926226170253,13.825683642611693" style="fill:none;stroke:black;stroke-width:1"/>
<polygon points="22.32998918671145,22.02459261709702 21.979310344827585,20.546206896551723 22.425448501140274,21.914078931394442" style="fill:none;stroke:black;stroke-width:1"/>
<polygon points="22.046637173397038,22.334481185265638 22.14108784450184,22.2311849958761 18.18926226170253,13.825683642611693" style="fill:none;stroke:black;stroke-width:1"/>
<polygon points="22.14108784450184,22.2311849958761 22.235538515606645,22.12788880648656 18.18926226170253,13.825683642611693" style="fill:none;stroke:black;stroke-width:1"/>
<polygon points="21.979310344827585,20.546206896551723 9.690199830958495,23.667545471889838 22.162234065596873,20.575279622160814" style="fill:none;stroke:black;stroke-width:1"/>
<polygon points="21.560419054679336,22.85308224861487 20.694135073573207,21.161046472009524 20.788585744678013,21.057750282619985" style="fill:none;stroke:black;stroke-width:1"/>
<polygon points="21.4314698717498,22.946767714321943 20.694135073573207,21.161046472009524 21.560419054679336,22.85308224861487" style="fill:none;stroke:black;stroke-width:1"/>
<polygon points="21.12299551107697,23.090032494391657 20.410783060258794,21.470935040178137 20.505233731363596,21.367638850788598" style="fill:none;stroke:black;stroke-width:1"/>
<polygon points="11.729379459927994,23.228298648307945 15.856165775148213,11.703070957573448 15.789819513371842,10.378146160975497" style="fill:none;stroke:black;stroke-width:1"/>
<polygon points="11.784021058090772,23.164503848385298 11.729379459927994,23.228298648307945 15.789819513371842,10.378146160975497" style="fill:none;stroke:black;stroke-width:1"/>
<polygon points="23.48857706685049,18.084994269682767 24.403310404798116,19.78432321198246 17.59952986245328,9.16575013036898" style="fill:none;stroke:black;stroke-width:1"/>
<polygon points="19.591992045814756,9.951196993738778 25.324602651225803,17.05618081503439 22.552252860697596,17.54187168866708" style="fill:none;stroke:black;stroke-width:1"/>
<polygon points="25.324602651225803,17.05618081503439 19.591992045814756,9.951196993738778 19.48793152101593,11.267949136733787" style="fill:none;stroke:black;stroke-width:1"/>
<polygon points="11.89246863806789,9.448749497804243 12.333385768736074,9.187971594128038 12.028540493250034,9.409770015776726" style="fill:none;stroke:black;stroke-width:1"/>
<polygon points="17.63025429287063,7.997255880320358 11.89246863806789,9.448749497804243 12.028540493250034,9.409770015776726" style="fill:none;stroke:black;stroke-width:1"/>
<polygon points="19.08812485451194,7.9095008848832045 12.432280781594926,9.005833143335952 12.470453727249073,8.797152005057004" style="fill:none;stroke:black;stroke-width:1"/>
<polygon points="12.432280781594926,9.005833143335952 19.08812485451194,7.9095008848832045 12.333385768736074,9.187971594128038" style="fill:none;stroke:black;stroke-width:1"/>
<polygon points="11.89246863806789,9.448749497804243 12.432280781594926,9.005833143335952 12.333385768736074,9.187971594128038" style="fill:none;stroke:black;stroke-width:1"/>
<polygon points="12.432280781594926,9.005833143335952 11.728946707066768,9.439516783290166 12.470453727249073,8.797152005057004" style="fill:none;stroke:black;stroke-width:1"/>
<polygon points="12.185523297847968,9.326482812160979 19.08812485451194,7.9095008848832045 17.63025429287063,7.997255880320358" style="fill:none;stroke:black;stroke-width:1"/>
<polygon points="19.08812485451194,7.9095008848832045 12.185523297847968,9.326482812160979 12.333385768736074,9.187971594128038" style="fill:none;stroke:black;stroke-width:1"/>
<polygon points="12.185523297847968,9.326482812160979 17.63025429287063,7.997255880320358 12.028540493250034,9.409770015776726" style="fill:none;stroke:black;stroke-width:1"/>
<polygon points="12.333385768736074,9.187971594128038 12.185523297847968,9.326482812160979 12.028540493250034,9.409770015776726" style="fill:none;stroke:black;stroke-width:1"/>
<polygon points="10.814921010640635,7.642111470229072 10.896267460830927,9.423050569203191 10.683062582802267,7.673442586819316" style="fill:none;stroke:black;stroke-width:1"/>
<polygon points="10.896267460830927,9.423050569203191 10.717552487554839,9.421702901123648 10.683062582802267,7.673442586819316" style="fill:none;stroke:black;stroke-width:1"/>
<polygon points="10.896267460830927,9.423050569203191 10.814921010640635,7.642111470229072 10.941694898649878,7.6164884348608215" style="fill:none;stroke:black;stroke-width:1"/>
<polygon points="10.546371211099693,7.7107867494375135 10.5190867467654,9.408036707038615 10.40509849149783,7.754448922889624" style="fill:none;stroke:black;stroke-width:1"/>
<polygon points="10.717552487554839,9.421702901123648 10.5190867467654,9.408036707038615 10.546371211099693,7.7107867494375135" style="fill:none;stroke:black;stroke-width:1"/>
<polygon points="10.5190867467654,9.408036707038615 10.717552487554839,9.421702901123648 10.306116380551448,9.381062139803113" style="fill:none;stroke:black;stroke-width:1"/>
<polygon points="11.29642093836462,7.570512789462686 11.178982671321332,7.581146748566463 18.046984179815205,4.601752085636404" style="fill:none;stroke:black;stroke-width:1"/>
<polygon points="11.178982671321332,7.581146748566463 11.063132650865084,7.596268515908605 18.046984179815205,4.601752085636404" style="fill:none;stroke:black;stroke-width:1"/>
<polygon points="11.428528395486735,7.579483467626261 11.29642093836462,7.570512789462686 18.046984179815205,4.601752085636404" style="fill:none;stroke:black;stroke-width:1"/>
<polygon points="11.57103448237546,7.612204484149148 11.428528395486735,7.579483467626261 18.046984179815205,4.601752085636404" style="fill:none;stroke:black;stroke-width:1"/>
<polygon points="10.109815392455907,7.861947161519428 16.56014783593417,4.182320915689118 18.57330012524316,3.769902576327847" style="fill:none;stroke:black;stroke-width:1"/>
<polygon points="10.109815392455907,7.861947161519428 9.956308204945682,7.926393156309038 16.56014783593417,4.182320915689118" style="fill:none;stroke:black;stroke-width:1"/>
<polygon points="9.355159673156098,8.616274958109377 15.319061082355294,4.976456907103872 17.024002428599726,3.907447369397631" style="fill:none;stroke:black;stroke-width:1"/>
<polygon points="9.649228622346683,9.18546969650797 16.172383731229328,8.085010875757511 15.319061082355294,4.976456907103872" style="fill:none;stroke:black;stroke-width:1"/>
<polygon points="9.488233854598855,9.030371345731451 9.649228622346683,9.18546969650797 15.319061082355294,4.976456907103872" style="fill:none;stroke:black;stroke-width:1"/>
<polygon points="20.921916795812884,14.499695044471466 19.591992045814756,9.951196993738778 22.552252860697596,17.54187168866708" style="fill:none;stroke:black;stroke-width:1"/>
<polygon points="20.921916795812884,14.499695044471466 17.868393925042223,12.947662075594712 19.591992045814756,9.951196993738778" style="fill:none;stroke:black;stroke-width:1"/>
<polygon points="9.843936959675712,14.395199538426247 11.724805840596668,11.485186528766668 19.591992045814756,9.951196993738778" style="fill:none;stroke:black;stroke-width:1"/>
<polygon points="9.942999700223776,16.972436178519388 9.843936959675712,14.395199538426247 19.591992045814756,9.951196993738778" style="fill:none;stroke:black;stroke-width:1"/>
<polygon points="14.568962903159921,13.89429153207647 12.838881358408674,16.764557739899832 19.591992045814756,9.951196993738778" style="fill:none;stroke:black;stroke-width:1"/>
<polygon points="12.838881358408674,16.764557739899832 9.942999700223776,16.972436178519388 19.591992045814756,9.951196993738778" style="fill:none;stroke:black;stroke-width:1"/>
<polygon points="19.02089900937226,9.125386543701932 12.362622944546711,23.86737986469501 17.666551823769172,8.696969302117552" style="fill:none;stroke:black;stroke-width:1"/>
<polygon points="12.631426142192296,23.60686443336836 12.704120462342647,23.529953563175493 17.59952986245328,9.16575013036898" style="fill:none;stroke:black;stroke-width:1"/>
<polygon points="12.704120462342647,23.529953563175493 12.770262253265852,23.45664497640887 17.59952986245328,9.16575013036898" style="fill:none;stroke:black;stroke-width:1"/>
<polygon points="12.551779475634872,23.68652793223066 12.631426142192296,23.60686443336836 17.59952986245328,9.16575013036898" style="fill:none;stroke:black;stroke-width:1"/>
<polygon points="21.763285160082617,22.644369753434248 21.857735831187426,22.54107356404471 18.18926226170253,13.825683642611693" style="fill:none;stroke:black;stroke-width:1"/>
<polygon points="21.857735831187426,22.54107356404471 21.95218650229223,22.437777374655173 18.18926226170253,13.825683642611693" style="fill:none;stroke:black;stroke-width:1"/>
<polygon points="20.99129423104417,20.850586882626292 21.857735831187426,22.54107356404471 21.763285160082617,22.644369753434248" style="fill:none;stroke:black;stroke-width:1"/>
<polygon points="21.268220740921002,20.679416959282378 21.43087220235897,20.61657299549474 22.046637173397038,22.334481185265638" style="fill:none;stroke:black;stroke-width:1"/>
<polygon points="21.43087220235897,20.61657299549474 22.14108784450184,22.2311849958761 22.046637173397038,22.334481185265638" style="fill:none;stroke:black;stroke-width:1"/>
<polygon points="7.66407452850257,17.026863455441493 21.43087220235897,20.61657299549474 8.598643429027616,13.641359103056338" style="fill:none;stroke:black;stroke-width:1"/>
<polygon points="21.43087220235897,20.61657299549474 21.268220740921002,20.679416959282378 8.598643429027616,13.641359103056338" style="fill:none;stroke:black;stroke-width:1"/>
<polygon points="20.88306402724588,20.954379208702136 21.66883235355834,22.74767152888414 20.788585744678013,21.057750282619985" style="fill:none;stroke:black;stroke-width:1"/>
<polygon points="21.66883235355834,22.74767152888414 20.88306402724588,20.954379208702136 21.763285160082617,22.644369753434248" style="fill:none;stroke:black;stroke-width:1"/>
<polygon points="20.88306402724588,20.954379208702136 20.99129423104417,20.850586882626292 21.763285160082617,22.644369753434248" style="fill:none;stroke:black;stroke-width:1"/>
<polygon points="8.041675336632869,20.592440317001877 9.690199830958495,23.667545471889838 21.979310344827585,20.546206896551723" style="fill:none;stroke:black;stroke-width:1"/>
<polygon points="15.674598719805608,27.078305276861578 22.330621191612988,20.655241765665487 22.162234065596873,20.575279622160814" style="fill:none;stroke:black;stroke-width:1"/>
<polygon points="13.57638312714948,9.16925086585836 20.88306402724588,20.954379208702136 11.827644435315891,23.984394894319514" style="fill:none;stroke:black;stroke-width:1"/>
<polygon points="20.316332389153985,21.574231229567673 20.765472586215502,23.159605090546314 20.22188171804918,21.67752741895721" style="fill:none;stroke:black;stroke-width:1"/>
<polygon points="20.599684402468405,21.26434266139906 20.694135073573207,21.161046472009524 21.4314698717498,22.946767714321943" style="fill:none;stroke:black;stroke-width:1"/>
<polygon points="21.12299551107697,23.090032494391657 20.948986162002583,23.135146614117552 20.410783060258794,21.470935040178137" style="fill:none;stroke:black;stroke-width:1"/>
<polygon points="20.316332389153985,21.574231229567673 20.948986162002583,23.135146614117552 20.765472586215502,23.159605090546314" style="fill:none;stroke:black;stroke-width:1"/>
<polygon points="20.948986162002583,23.135146614117552 20.316332389153985,21.574231229567673 20.410783060258794,21.470935040178137" style="fill:none;stroke:black;stroke-width:1"/>
<polygon points="20.765472586215502,23.159605090546314 20.948986162002583,23.135146614117552 18.18926226170253,13.825683642611693" style="fill:none;stroke:black;stroke-width:1"/>
<polygon points="20.948986162002583,23.135146614117552 21.12299551107697,23.090032494391657 18.18926226170253,13.825683642611693" style="fill:none;stroke:black;stroke-width:1"/>
<polygon points="16.16772095345701,9.227410056623981 12.458284190660109,22.583445136390576 15.789819513371842,10.378146160975497" style="fill:none;stroke:black;stroke-width:1"/>
<polygon points="15.856165775148213,11.703070957573448 11.590950523453076,23.383006043453406 19.962660376454135,22.07488343287126" style="fill:none;stroke:black;stroke-width:1"/>
<polygon points="15.662268579529156,21.786851926008616 17.59952986245328,9.16575013036898 12.893793201364982,19.864786652113704" style="fill:none;stroke:black;stroke-width:1"/>
<polygon points="15.662268579529156,21.786851926008616 19.060902356214594,21.281805439773613 17.59952986245328,9.16575013036898" style="fill:none;stroke:black;stroke-width:1"/>
<polygon points="21.12671132943344,18.67308548503641 23.48857706685049,18.084994269682767 17.59952986245328,9.16575013036898" style="fill:none;stroke:black;stroke-width:1"/>
<polygon points="19.060902356214594,21.281805439773613 21.12671132943344,18.67308548503641 17.59952986245328,9.16575013036898" style="fill:none;stroke:black;stroke-width:1"/>
<polygon points="24.403310404798116,19.78432321198246 22.70386917488734,22.84431257618292 17.59952986245328,9.16575013036898" style="fill:none;stroke:black;stroke-width:1"/>
<polygon points="22.70386917488734,22.84431257618292 12.551779475634872,23.68652793223066 17.59952986245328,9.16575013036898" style="fill:none;stroke:black;stroke-width:1"/>
<polygon points="22.450392965963783,11.488437146943614 24.661004123667748,14.092248591509232 19.48793152101593,11.267949136733787" style="fill:none;stroke:black;stroke-width:1"/>
<polygon points="24.661004123667748,14.092248591509232 25.324602651225803,17.05618081503439 19.48793152101593,11.267949136733787" style="fill:none;stroke:black;stroke-width:1"/>
<polygon points="22.565640659852882,25.402709788941923 24.918586048473905,22.89827966244259 19.48793152101593,11.267949136733787" style="fill:none;stroke:black;stroke-width:1"/>
<polygon points="24.918586048473905,22.89827966244259 26.211194399597254,19.647878155102873 19.48793152101593,11.267949136733787" style="fill:none;stroke:black;stroke-width:1"/>
<polygon points="19.317243919874834,9.977719905118521 22.450392965963783,11.488437146943614 19.48793152101593,11.267949136733787" style="fill:none;stroke:black;stroke-width:1"/>
<polygon points="26.211194399597254,19.647878155102873 19.317243919874834,9.977719905118521 19.48793152101593,11.267949136733787" style="fill:none;stroke:black;stroke-width:1"/>
<polygon points="12.153100475038517,8.009257812252145 12.014972090562658,7.867202504385853 19.273056242145103,5.259407372400981" style="fill:none;stroke:black;stroke-width:1"/>
<polygon points="12.441164603456741,8.57828856957773 12.372649320397311,8.369833540168415 19.273056242145103,5.259407372400981" style="fill:none;stroke:black;stroke-width:1"/>
<polygon points="12.372649320397311,8.369833540168415 12.441164603456741,8.57828856957773 11.728946707066768,9.439516783290166" style="fill:none;stroke:black;stroke-width:1"/>
<polygon points="12.432280781594926,9.005833143335952 11.788900402225675,9.454818676809566 11.728946707066768,9.439516783290166" style="fill:none;stroke:black;stroke-width:1"/>
<polygon points="11.788900402225675,9.454818676809566 12.432280781594926,9.005833143335952 11.89246863806789,9.448749497804243" style="fill:none;stroke:black;stroke-width:1"/>
<polygon points="11.788900402225675,9.454818676809566 11.89246863806789,9.448749497804243 17.63025429287063,7.997255880320358" style="fill:none;stroke:black;stroke-width:1"/>
<polygon points="11.788900402225675,9.454818676809566 17.63025429287063,7.997255880320358 16.172383731229328,8.085010875757511" style="fill:none;stroke:black;stroke-width:1"/>
<polygon points="11.728946707066768,9.439516783290166 11.788900402225675,9.454818676809566 16.172383731229328,8.085010875757511" style="fill:none;stroke:black;stroke-width:1"/>
<polygon points="11.063132650865084,7.596268515908605 11.049985524504816,9.413069558422222 10.941694898649878,7.6164884348608215" style="fill:none;stroke:black;stroke-width:1"/>
<polygon points="11.049985524504816,9.413069558422222 10.896267460830927,9.423050569203191 10.941694898649878,7.6164884348608215" style="fill:none;stroke:black;stroke-width:1"/>
<polygon points="10.109815392455907,7.861947161519428 10.259496019961595,7.80473407198161 10.306116380551448,9.381062139803113" style="fill:none;stroke:black;stroke-width:1"/>
<polygon points="10.5190867467654,9.408036707038615 10.259496019961595,7.80473407198161 10.40509849149783,7.754448922889624" style="fill:none;stroke:black;stroke-width:1"/>
<polygon points="10.259496019961595,7.80473407198161 10.5190867467654,9.408036707038615 10.306116380551448,9.381062139803113" style="fill:none;stroke:black;stroke-width:1"/>
<polygon points="10.40509849149783,7.754448922889624 10.259496019961595,7.80473407198161 18.57330012524316,3.769902576327847" style="fill:none;stroke:black;stroke-width:1"/>
<polygon points="10.259496019961595,7.80473407198161 10.109815392455907,7.861947161519428 18.57330012524316,3.769902576327847" style="fill:none;stroke:black;stroke-width:1"/>
<polygon points="9.38676330540235,8.835170017680564 9.488233854598855,9.030371345731451 15.319061082355294,4.976456907103872" style="fill:none;stroke:black;stroke-width:1"/>
<polygon points="9.355159673156098,8.616274958109377 9.38676330540235,8.835170017680564 15.319061082355294,4.976456907103872" style="fill:none;stroke:black;stroke-width:1"/>
<polygon points="9.38676330540235,8.835170017680564 9.355159673156098,8.616274958109377 9.488233854598855,9.030371345731451" style="fill:none;stroke:black;stroke-width:1"/>
<polygon points="9.649228622346683,9.18546969650797 9.859310344827586,9.28448275862069 16.172383731229328,8.085010875757511" style="fill:none;stroke:black;stroke-width:1"/>
<polygon points="9.859310344827586,9.28448275862069 11.728946707066768,9.439516783290166 16.172383731229328,8.085010875757511" style="fill:none;stroke:black;stroke-width:1"/>
<polygon points="9.859310344827586,9.28448275862069 9.649228622346683,9.18546969650797 9.494453779520354,8.224960339613762" style="fill:none;stroke:black;stroke-width:1"/>
<polygon points="9.859310344827586,9.28448275862069 11.049985524504816,9.413069558422222 11.728946707066768,9.439516783290166" style="fill:none;stroke:black;stroke-width:1"/>
<polygon points="11.049985524504816,9.413069558422222 9.859310344827586,9.28448275862069 10.896267460830927,9.423050569203191" style="fill:none;stroke:black;stroke-width:1"/>
<polygon points="9.355159673156098,8.616274958109377 9.394809606675432,8.405884695788693 9.488233854598855,9.030371345731451" style="fill:none;stroke:black;stroke-width:1"/>
<polygon points="9.394809606675432,8.405884695788693 9.649228622346683,9.18546969650797 9.488233854598855,9.030371345731451" style="fill:none;stroke:black;stroke-width:1"/>
<polygon points="9.649228622346683,9.18546969650797 9.394809606675432,8.405884695788693 9.494453779520354,8.224960339613762" style="fill:none;stroke:black;stroke-width:1"/>
<polygon points="9.394809606675432,8.405884695788693 9.355159673156098,8.616274958109377 17.024002428599726,3.907447369397631" style="fill:none;stroke:black;stroke-width:1"/>
<polygon points="16.56014783593417,4.182320915689118 9.394809606675432,8.405884695788693 17.024002428599726,3.907447369397631" style="fill:none;stroke:black;stroke-width:1"/>
<polygon points="9.494453779520354,8.224960339613762 9.394809606675432,8.405884695788693 16.56014783593417,4.182320915689118" style="fill:none;stroke:black;stroke-width:1"/>
<polygon points="19.099870485171486,20.59682327438956 15.629870469239371,20.57954127940293 19.02089900937226,9.125386543701932" style="fill:none;stroke:black;stroke-width:1"/>
<polygon points="20.312975223206525,15.063529232058471 15.63835638203725,25.174166506567275 19.02089900937226,9.125386543701932" style="fill:none;stroke:black;stroke-width:1"/>
<polygon points="15.63835638203725,25.174166506567275 12.362622944546711,23.86737986469501 19.02089900937226,9.125386543701932" style="fill:none;stroke:black;stroke-width:1"/>
<polygon points="20.21997364270012,23.04751121760382 20.388196680331728,23.12772545211029 16.651669811424867,13.349754996157756" style="fill:none;stroke:black;stroke-width:1"/>
<polygon points="19.971400128493098,22.783055854781736 20.079017172436682,22.930315271268967 16.651669811424867,13.349754996157756" style="fill:none;stroke:black;stroke-width:1"/>
<polygon points="20.079017172436682,22.930315271268967 20.21997364270012,23.04751121760382 16.651669811424867,13.349754996157756" style="fill:none;stroke:black;stroke-width:1"/>
<polygon points="20.21997364270012,23.04751121760382 20.079017172436682,22.930315271268967 19.962660376454135,22.07488343287126" style="fill:none;stroke:black;stroke-width:1"/>
<polygon points="19.903639839954288,22.244664883583148 15.856165775148213,11.703070957573448 19.962660376454135,22.07488343287126" style="fill:none;stroke:black;stroke-width:1"/>
<polygon points="19.903639839954288,22.244664883583148 19.88015190673132,22.42818169774555 15.856165775148213,11.703070957573448" style="fill:none;stroke:black;stroke-width:1"/>
<polygon points="19.88015190673132,22.42818169774555 19.903639839954288,22.244664883583148 19.971400128493098,22.783055854781736" style="fill:none;stroke:black;stroke-width:1"/>
<polygon points="20.079017172436682,22.930315271268967 19.903639839954288,22.244664883583148 19.962660376454135,22.07488343287126" style="fill:none;stroke:black;stroke-width:1"/>
<polygon points="19.903639839954288,22.244664883583148 20.079017172436682,22.930315271268967 19.971400128493098,22.783055854781736" style="fill:none;stroke:black;stroke-width:1"/>
<polygon points="19.90319536982104,22.61265120981814 19.971400128493098,22.783055854781736 15.856165775148213,11.703070957573448" style="fill:none;stroke:black;stroke-width:1"/>
<polygon points="19.88015190673132,22.42818169774555 19.90319536982104,22.61265120981814 15.856165775148213,11.703070957573448" style="fill:none;stroke:black;stroke-width:1"/>
<polygon points="19.90319536982104,22.61265120981814 19.88015190673132,22.42818169774555 19.971400128493098,22.783055854781736" style="fill:none;stroke:black;stroke-width:1"/>
<polygon points="21.120687276375975,20.7581771939063 21.857735831187426,22.54107356404471 20.99129423104417,20.850586882626292" style="fill:none;stroke:black;stroke-width:1"/>
<polygon points="21.268220740921002,20.679416959282378 21.120687276375975,20.7581771939063 8.598643429027616,13.641359103056338" style="fill:none;stroke:black;stroke-width:1"/>
<polygon points="21.95218650229223,22.437777374655173 21.120687276375975,20.7581771939063 21.268220740921002,20.679416959282378" style="fill:none;stroke:black;stroke-width:1"/>
<polygon points="21.857735831187426,22.54107356404471 21.120687276375975,20.7581771939063 21.95218650229223,22.437777374655173" style="fill:none;stroke:black;stroke-width:1"/>
<polygon points="22.14108784450184,22.2311849958761 21.605619238369584,20.571912119283606 22.235538515606645,22.12788880648656" style="fill:none;stroke:black;stroke-width:1"/>
<polygon points="21.43087220235897,20.61657299549474 21.605619238369584,20.571912119283606 22.14108784450184,22.2311849958761" style="fill:none;stroke:black;stroke-width:1"/>
<polygon points="8.041675336632869,20.592440317001877 21.605619238369584,20.571912119283606 7.66407452850257,17.026863455441493" style="fill:none;stroke:black;stroke-width:1"/>
<polygon points="21.605619238369584,20.571912119283606 21.43087220235897,20.61657299549474 7.66407452850257,17.026863455441493" style="fill:none;stroke:black;stroke-width:1"/>
<polygon points="9.690199830958495,23.667545471889838 12.3267423110945,25.921509811784585 22.162234065596873,20.575279622160814" style="fill:none;stroke:black;stroke-width:1"/>
<polygon points="12.3267423110945,25.921509811784585 15.674598719805608,27.078305276861578 22.162234065596873,20.575279622160814" style="fill:none;stroke:black;stroke-width:1"/>
<polygon points="22.330621191612988,20.655241765665487 19.376601808115698,26.886246068879643 22.565640659852882,25.402709788941923" style="fill:none;stroke:black;stroke-width:1"/>
<polygon points="15.674598719805608,27.078305276861578 19.376601808115698,26.886246068879643 22.330621191612988,20.655241765665487" style="fill:none;stroke:black;stroke-width:1"/>
<polygon points="21.120687276375975,20.7581771939063 10.643629472472504,10.930377657754768 8.598643429027616,13.641359103056338" style="fill:none;stroke:black;stroke-width:1"/>
<polygon points="10.643629472472504,10.930377657754768 21.120687276375975,20.7581771939063 20.99129423104417,20.850586882626292" style="fill:none;stroke:black;stroke-width:1"/>
<polygon points="20.88306402724588,20.954379208702136 10.643629472472504,10.930377657754768 20.99129423104417,20.850586882626292" style="fill:none;stroke:black;stroke-width:1"/>
<polygon points="13.57638312714948,9.16925086585836 10.643629472472504,10.930377657754768 20.88306402724588,20.954379208702136" style="fill:none;stroke:black;stroke-width:1"/>
<polygon points="21.28474271910419,23.026495328686998 21.12299551107697,23.090032494391657 20.505233731363596,21.367638850788598" style="fill:none;stroke:black;stroke-width:1"/>
<polygon points="20.599684402468405,21.26434266139906 21.28474271910419,23.026495328686998 20.505233731363596,21.367638850788598" style="fill:none;stroke:black;stroke-width:1"/>
<polygon points="21.28474271910419,23.026495328686998 20.599684402468405,21.26434266139906 21.4314698717498,22.946767714321943" style="fill:none;stroke:black;stroke-width:1"/>
<polygon points="21.28474271910419,23.026495328686998 21.4314698717498,22.946767714321943 18.18926226170253,13.825683642611693" style="fill:none;stroke:black;stroke-width:1"/>
<polygon points="21.12299551107697,23.090032494391657 21.28474271910419,23.026495328686998 18.18926226170253,13.825683642611693" style="fill:none;stroke:black;stroke-width:1"/>
<polygon points="13.119742281151506,22.947871627275596 16.16772095345701,9.227410056623981 16.090019765856887,8.78416771808964" style="fill:none;stroke:black;stroke-width:1"/>
<polygon points="13.115888970291735,23.01654997738057 13.119742281151506,22.947871627275596 16.090019765856887,8.78416771808964" style="fill:none;stroke:black;stroke-width:1"/>
<polygon points="11.633635472706741,23.338051907461693 11.590950523453076,23.383006043453406 15.856165775148213,11.703070957573448" style="fill:none;stroke:black;stroke-width:1"/>
<polygon points="11.868853573021283,7.754630708477725 11.719341955922928,7.67010913308256 19.273056242145103,5.259407372400981" style="fill:none;stroke:black;stroke-width:1"/>
<polygon points="12.014972090562658,7.867202504385853 11.868853573021283,7.754630708477725 19.273056242145103,5.259407372400981" style="fill:none;stroke:black;stroke-width:1"/>
<polygon points="12.275966045805585,8.178733747540154 12.153100475038517,8.009257812252145 19.273056242145103,5.259407372400981" style="fill:none;stroke:black;stroke-width:1"/>
<polygon points="12.372649320397311,8.369833540168415 12.275966045805585,8.178733747540154 19.273056242145103,5.259407372400981" style="fill:none;stroke:black;stroke-width:1"/>
<polygon points="11.178982671321332,7.581146748566463 11.174400146133756,9.395612001709104 11.063132650865084,7.596268515908605" style="fill:none;stroke:black;stroke-width:1"/>
<polygon points="11.174400146133756,9.395612001709104 11.049985524504816,9.413069558422222 11.063132650865084,7.596268515908605" style="fill:none;stroke:black;stroke-width:1"/>
<polygon points="11.174400146133756,9.395612001709104 11.178982671321332,7.581146748566463 11.29642093836462,7.570512789462686" style="fill:none;stroke:black;stroke-width:1"/>
<polygon points="11.049985524504816,9.413069558422222 11.174400146133756,9.395612001709104 11.728946707066768,9.439516783290166" style="fill:none;stroke:black;stroke-width:1"/>
<polygon points="10.085030851427051,9.33934739981161 10.109815392455907,7.861947161519428 10.306116380551448,9.381062139803113" style="fill:none;stroke:black;stroke-width:1"/>
<polygon points="10.109815392455907,7.861947161519428 10.085030851427051,9.33934739981161 9.956308204945682,7.926393156309038" style="fill:none;stroke:black;stroke-width:1"/>
<polygon points="10.717552487554839,9.421702901123648 10.085030851427051,9.33934739981161 10.306116380551448,9.381062139803113" style="fill:none;stroke:black;stroke-width:1"/>
<polygon points="10.896267460830927,9.423050569203191 10.085030851427051,9.33934739981161 10.717552487554839,9.421702901123648" style="fill:none;stroke:black;stroke-width:1"/>
<polygon points="9.859310344827586,9.28448275862069 10.085030851427051,9.33934739981161 10.896267460830927,9.423050569203191" style="fill:none;stroke:black;stroke-width:1"/>
<polygon points="9.956308204945682,7.926393156309038 9.79922605339583,7.998377021156402 16.56014783593417,4.182320915689118" style="fill:none;stroke:black;stroke-width:1"/>
<polygon points="10.085030851427051,9.33934739981161 9.79922605339583,7.998377021156402 9.956308204945682,7.926393156309038" style="fill:none;stroke:black;stroke-width:1"/>
<polygon points="9.79922605339583,7.998377021156402 10.085030851427051,9.33934739981161 9.859310344827586,9.28448275862069" style="fill:none;stroke:black;stroke-width:1"/>
<polygon points="14.599935507868345,9.594920273394793 21.13441694612249,17.9633255232539 19.02089900937226,9.125386543701932" style="fill:none;stroke:black;stroke-width:1"/>
<polygon points="21.13441694612249,17.9633255232539 19.099870485171486,20.59682327438956 19.02089900937226,9.125386543701932" style="fill:none;stroke:black;stroke-width:1"/>
<polygon points="17.505716669494316,13.322013414232238 20.312975223206525,15.063529232058471 19.02089900937226,9.125386543701932" style="fill:none;stroke:black;stroke-width:1"/>
<polygon points="14.403942966285094,14.581249261731248 17.505716669494316,13.322013414232238 19.02089900937226,9.125386543701932" style="fill:none;stroke:black;stroke-width:1"/>
<polygon points="15.629870469239371,20.57954127940293 13.548626544122751,17.882441457949206 19.02089900937226,9.125386543701932" style="fill:none;stroke:black;stroke-width:1"/>
<polygon points="13.548626544122751,17.882441457949206 14.403942966285094,14.581249261731248 19.02089900937226,9.125386543701932" style="fill:none;stroke:black;stroke-width:1"/>
<polygon points="11.325811337995205,17.686082522116592 12.893793201364982,19.864786652113704 17.666551823769172,8.696969302117552" style="fill:none;stroke:black;stroke-width:1"/>
<polygon points="8.720792130023346,18.133884884075062 11.325811337995205,17.686082522116592 17.666551823769172,8.696969302117552" style="fill:none;stroke:black;stroke-width:1"/>
<polygon points="12.362622944546711,23.86737986469501 9.942272399670244,21.406181266084687 17.666551823769172,8.696969302117552" style="fill:none;stroke:black;stroke-width:1"/>
<polygon points="9.942272399670244,21.406181266084687 8.720792130023346,18.133884884075062 17.666551823769172,8.696969302117552" style="fill:none;stroke:black;stroke-width:1"/>
<polygon points="20.765472586215502,23.159605090546314 20.577725748473995,23.163448275862066 20.22188171804918,21.67752741895721" style="fill:none;stroke:black;stroke-width:1"/>
<polygon points="20.577725748473995,23.163448275862066 20.126422403620357,21.78804110465979 20.22188171804918,21.67752741895721" style="fill:none;stroke:black;stroke-width:1"/>
<polygon points="20.577725748473995,23.163448275862066 20.765472586215502,23.159605090546314 16.651669811424867,13.349754996157756" style="fill:none;stroke:black;stroke-width:1"/>
<polygon points="20.388196680331728,23.12772545211029 20.577725748473995,23.163448275862066 16.651669811424867,13.349754996157756" style="fill:none;stroke:black;stroke-width:1"/>
<polygon points="20.577725748473995,23.163448275862066 20.388196680331728,23.12772545211029 20.21997364270012,23.04751121760382" style="fill:none;stroke:black;stroke-width:1"/>
<polygon points="21.605619238369584,20.571912119283606 21.78943942663255,20.547701147389198 22.235538515606645,22.12788880648656" style="fill:none;stroke:black;stroke-width:1"/>
<polygon points="22.32998918671145,22.02459261709702 21.78943942663255,20.547701147389198 21.979310344827585,20.546206896551723" style="fill:none;stroke:black;stroke-width:1"/>
<polygon points="21.78943942663255,20.547701147389198 22.32998918671145,22.02459261709702 22.235538515606645,22.12788880648656" style="fill:none;stroke:black;stroke-width:1"/>
<polygon points="21.78943942663255,20.547701147389198 8.041675336632869,20.592440317001877 21.979310344827585,20.546206896551723" style="fill:none;stroke:black;stroke-width:1"/>
<polygon points="21.78943942663255,20.547701147389198 21.605619238369584,20.571912119283606 8.041675336632869,20.592440317001877" style="fill:none;stroke:black;stroke-width:1"/>
<polygon points="13.097274988987149,23.07797016884286 13.115888970291735,23.01654997738057 16.090019765856887,8.78416771808964" style="fill:none;stroke:black;stroke-width:1"/>
<polygon points="17.59952986245328,9.16575013036898 12.98074025482607,23.214183458587407 16.090019765856887,8.78416771808964" style="fill:none;stroke:black;stroke-width:1"/>
<polygon points="12.98074025482607,23.214183458587407 13.023425204079736,23.169229322595697 16.090019765856887,8.78416771808964" style="fill:none;stroke:black;stroke-width:1"/>
<polygon points="12.883846683113639,22.607224031819385 12.786963442508682,22.57129254492238 16.16772095345701,9.227410056623981" style="fill:none;stroke:black;stroke-width:1"/>
<polygon points="12.786963442508682,22.57129254492238 12.681249335894437,22.554638338937142 16.16772095345701,9.227410056623981" style="fill:none;stroke:black;stroke-width:1"/>
<polygon points="12.570469114101462,22.558346458076212 12.458284190660109,22.583445136390576 16.16772095345701,9.227410056623981" style="fill:none;stroke:black;stroke-width:1"/>
<polygon points="12.681249335894437,22.554638338937142 12.570469114101462,22.558346458076212 16.16772095345701,9.227410056623981" style="fill:none;stroke:black;stroke-width:1"/>
<polygon points="11.729379459927994,23.228298648307945 11.679504160388777,23.286331982914653 15.856165775148213,11.703070957573448" style="fill:none;stroke:black;stroke-width:1"/>
<polygon points="11.679504160388777,23.286331982914653 11.633635472706741,23.338051907461693 15.856165775148213,11.703070957573448" style="fill:none;stroke:black;stroke-width:1"/>
<polygon points="20.577725748473995,23.163448275862066 20.03832287366608,21.92152555782179 20.126422403620357,21.78804110465979" style="fill:none;stroke:black;stroke-width:1"/>
<polygon points="20.03832287366608,21.92152555782179 20.21997364270012,23.04751121760382 19.962660376454135,22.07488343287126" style="fill:none;stroke:black;stroke-width:1"/>
<polygon points="20.03832287366608,21.92152555782179 20.577725748473995,23.163448275862066 20.21997364270012,23.04751121760382" style="fill:none;stroke:black;stroke-width:1"/>
<polygon points="11.590950523453076,23.383006043453406 11.549567675062512,23.423568712972177 19.962660376454135,22.07488343287126" style="fill:none;stroke:black;stroke-width:1"/>
<polygon points="11.549567675062512,23.423568712972177 20.03832287366608,21.92152555782179 19.962660376454135,22.07488343287126" style="fill:none;stroke:black;stroke-width:1"/>
<polygon points="20.03832287366608,21.92152555782179 11.549567675062512,23.423568712972177 11.517390208519913,23.474934267464405" style="fill:none;stroke:black;stroke-width:1"/>
<polygon points="11.536751483278652,23.752847838018738 20.316332389153985,21.574231229567673 20.22188171804918,21.67752741895721" style="fill:none;stroke:black;stroke-width:1"/>
<polygon points="11.428528395486735,7.579483467626261 11.283745385592745,9.385812253540225 11.29642093836462,7.570512789462686" style="fill:none;stroke:black;stroke-width:1"/>
<polygon points="11.283745385592745,9.385812253540225 11.174400146133756,9.395612001709104 11.29642093836462,7.570512789462686" style="fill:none;stroke:black;stroke-width:1"/>
<polygon points="11.174400146133756,9.395612001709104 11.283745385592745,9.385812253540225 11.728946707066768,9.439516783290166" style="fill:none;stroke:black;stroke-width:1"/>
<polygon points="9.64031626698005,8.086733545512658 9.859310344827586,9.28448275862069 9.494453779520354,8.224960339613762" style="fill:none;stroke:black;stroke-width:1"/>
<polygon points="9.64031626698005,8.086733545512658 9.79922605339583,7.998377021156402 9.859310344827586,9.28448275862069" style="fill:none;stroke:black;stroke-width:1"/>
<polygon points="9.64031626698005,8.086733545512658 9.494453779520354,8.224960339613762 16.56014783593417,4.182320915689118" style="fill:none;stroke:black;stroke-width:1"/>
<polygon points="9.79922605339583,7.998377021156402 9.64031626698005,8.086733545512658 16.56014783593417,4.182320915689118" style="fill:none;stroke:black;stroke-width:1"/>
<polygon points="13.023425204079736,23.169229322595697 13.064820961020143,23.12890228625092 16.090019765856887,8.78416771808964" style="fill:none;stroke:black;stroke-width:1"/>
<polygon points="13.064820961020143,23.12890228625092 13.097274988987149,23.07797016884286 16.090019765856887,8.78416771808964" style="fill:none;stroke:black;stroke-width:1"/>
<polygon points="12.934871567144032,23.265903383134443 17.59952986245328,9.16575013036898 12.88499626760482,23.323936717741162" style="fill:none;stroke:black;stroke-width:1"/>
<polygon points="12.934871567144032,23.265903383134443 12.98074025482607,23.214183458587407 17.59952986245328,9.16575013036898" style="fill:none;stroke:black;stroke-width:1"/>
<polygon points="12.968038904625264,22.66127844162122 12.883846683113639,22.607224031819385 16.16772095345701,9.227410056623981" style="fill:none;stroke:black;stroke-width:1"/>
<polygon points="13.0333330811648,22.728834377721522 12.968038904625264,22.66127844162122 16.16772095345701,9.227410056623981" style="fill:none;stroke:black;stroke-width:1"/>
<polygon points="13.079432681760482,22.801073513965346 13.0333330811648,22.728834377721522 16.16772095345701,9.227410056623981" style="fill:none;stroke:black;stroke-width:1"/>
<polygon points="11.84411347426696,23.095590389640233 11.784021058090772,23.164503848385298 15.789819513371842,10.378146160975497" style="fill:none;stroke:black;stroke-width:1"/>
<polygon points="11.910255265190163,23.02228180287361 11.84411347426696,23.095590389640233 15.789819513371842,10.378146160975497" style="fill:none;stroke:black;stroke-width:1"/>
<polygon points="12.06259625189794,22.865707433818443 11.982949585340517,22.94537093268074 15.789819513371842,10.378146160975497" style="fill:none;stroke:black;stroke-width:1"/>
<polygon points="11.982949585340517,22.94537093268074 11.910255265190163,23.02228180287361 15.789819513371842,10.378146160975497" style="fill:none;stroke:black;stroke-width:1"/>
<polygon points="12.458284190660109,22.583445136390576 12.34824633644477,22.630919197332773 15.789819513371842,10.378146160975497" style="fill:none;stroke:black;stroke-width:1"/>
<polygon points="12.34824633644477,22.630919197332773 12.243793103448276,22.701724137931034 15.789819513371842,10.378146160975497" style="fill:none;stroke:black;stroke-width:1"/>
<polygon points="12.149485439386392,22.78418437164201 12.06259625189794,22.865707433818443 15.789819513371842,10.378146160975497" style="fill:none;stroke:black;stroke-width:1"/>
<polygon points="12.243793103448276,22.701724137931034 12.149485439386392,22.78418437164201 15.789819513371842,10.378146160975497" style="fill:none;stroke:black;stroke-width:1"/>
<polygon points="20.126422403620357,21.78804110465979 11.507835621585418,23.678727304999455 20.22188171804918,21.67752741895721" style="fill:none;stroke:black;stroke-width:1"/>
<polygon points="11.507835621585418,23.678727304999455 11.536751483278652,23.752847838018738 20.22188171804918,21.67752741895721" style="fill:none;stroke:black;stroke-width:1"/>
<polygon points="20.316332389153985,21.574231229567673 11.583334006215964,23.82516199501681 20.410783060258794,21.470935040178137" style="fill:none;stroke:black;stroke-width:1"/>
<polygon points="11.536751483278652,23.752847838018738 11.583334006215964,23.82516199501681 20.316332389153985,21.574231229567673" style="fill:none;stroke:black;stroke-width:1"/>
<polygon points="20.410783060258794,21.470935040178137 11.583334006215964,23.82516199501681 20.505233731363596,21.367638850788598" style="fill:none;stroke:black;stroke-width:1"/>
<polygon points="11.38397054011459,9.382480830628408 11.428528395486735,7.579483467626261 11.57103448237546,7.612204484149148" style="fill:none;stroke:black;stroke-width:1"/>
<polygon points="11.38397054011459,9.382480830628408 11.283745385592745,9.385812253540225 11.428528395486735,7.579483467626261" style="fill:none;stroke:black;stroke-width:1"/>
<polygon points="11.38397054011459,9.382480830628408 11.57103448237546,7.612204484149148 11.719341955922928,7.67010913308256" style="fill:none;stroke:black;stroke-width:1"/>
<polygon points="11.283745385592745,9.385812253540225 11.38397054011459,9.382480830628408 11.728946707066768,9.439516783290166" style="fill:none;stroke:black;stroke-width:1"/>
<polygon points="13.119742281151506,22.947871627275596 13.107906893295532,22.8750473429644 16.16772095345701,9.227410056623981" style="fill:none;stroke:black;stroke-width:1"/>
<polygon points="13.107906893295532,22.8750473429644 13.079432681760482,22.801073513965346 16.16772095345701,9.227410056623981" style="fill:none;stroke:black;stroke-width:1"/>
<polygon points="20.03832287366608,21.92152555782179 11.499094060823179,23.536716212744874 20.126422403620357,21.78804110465979" style="fill:none;stroke:black;stroke-width:1"/>
<polygon points="11.499094060823179,23.536716212744874 20.03832287366608,21.92152555782179 11.517390208519913,23.474934267464405" style="fill:none;stroke:black;stroke-width:1"/>
<polygon points="11.64876649623218,23.893115868593718 20.599684402468405,21.26434266139906 20.505233731363596,21.367638850788598" style="fill:none;stroke:black;stroke-width:1"/>
<polygon points="11.583334006215964,23.82516199501681 11.64876649623218,23.893115868593718 20.505233731363596,21.367638850788598" style="fill:none;stroke:black;stroke-width:1"/>
<polygon points="20.599684402468405,21.26434266139906 11.64876649623218,23.893115868593718 20.694135073573207,21.161046472009524" style="fill:none;stroke:black;stroke-width:1"/>
<polygon points="11.868853573021283,7.754630708477725 11.474522800225003,9.384951109784078 11.719341955922928,7.67010913308256" style="fill:none;stroke:black;stroke-width:1"/>
<polygon points="11.474522800225003,9.384951109784078 11.38397054011459,9.382480830628408 11.719341955922928,7.67010913308256" style="fill:none;stroke:black;stroke-width:1"/>
<polygon points="11.38397054011459,9.382480830628408 11.474522800225003,9.384951109784078 11.728946707066768,9.439516783290166" style="fill:none;stroke:black;stroke-width:1"/>
<polygon points="11.495599855754703,23.605684633402046 11.507835621585418,23.678727304999455 20.126422403620357,21.78804110465979" style="fill:none;stroke:black;stroke-width:1"/>
<polygon points="11.499094060823179,23.536716212744874 11.495599855754703,23.605684633402046 20.126422403620357,21.78804110465979" style="fill:none;stroke:black;stroke-width:1"/>
<polygon points="11.731750057330574,23.94818385517988 20.88306402724588,20.954379208702136 20.788585744678013,21.057750282619985" style="fill:none;stroke:black;stroke-width:1"/>
<polygon points="20.88306402724588,20.954379208702136 11.731750057330574,23.94818385517988 11.827644435315891,23.984394894319514" style="fill:none;stroke:black;stroke-width:1"/>
<polygon points="20.694135073573207,21.161046472009524 11.731750057330574,23.94818385517988 20.788585744678013,21.057750282619985" style="fill:none;stroke:black;stroke-width:1"/>
<polygon points="11.64876649623218,23.893115868593718 11.731750057330574,23.94818385517988 20.694135073573207,21.161046472009524" style="fill:none;stroke:black;stroke-width:1"/>
<polygon points="11.554849356449708,9.392556467817663 11.868853573021283,7.754630708477725 12.014972090562658,7.867202504385853" style="fill:none;stroke:black;stroke-width:1"/>
<polygon points="11.554849356449708,9.392556467817663 11.474522800225003,9.384951109784078 11.868853573021283,7.754630708477725" style="fill:none;stroke:black;stroke-width:1"/>
<polygon points="11.554849356449708,9.392556467817663 12.014972090562658,7.867202504385853 12.153100475038517,8.009257812252145" style="fill:none;stroke:black;stroke-width:1"/>
<polygon points="11.474522800225003,9.384951109784078 11.682614119344871,9.42050592776028 11.728946707066768,9.439516783290166" style="fill:none;stroke:black;stroke-width:1"/>
<polygon points="11.554849356449708,9.392556467817663 11.682614119344871,9.42050592776028 11.474522800225003,9.384951109784078" style="fill:none;stroke:black;stroke-width:1"/>
<polygon points="11.682614119344871,9.42050592776028 12.372649320397311,8.369833540168415 11.728946707066768,9.439516783290166" style="fill:none;stroke:black;stroke-width:1"/>
<polygon points="11.682614119344871,9.42050592776028 12.275966045805585,8.178733747540154 12.372649320397311,8.369833540168415" style="fill:none;stroke:black;stroke-width:1"/>
<polygon points="12.275966045805585,8.178733747540154 11.624397399314425,9.404630281539585 12.153100475038517,8.009257812252145" style="fill:none;stroke:black;stroke-width:1"/>
<polygon points="11.682614119344871,9.42050592776028 11.624397399314425,9.404630281539585 12.275966045805585,8.178733747540154" style="fill:none;stroke:black;stroke-width:1"/>
<polygon points="11.624397399314425,9.404630281539585 11.554849356449708,9.392556467817663 12.153100475038517,8.009257812252145" style="fill:none;stroke:black;stroke-width:1"/>
<polygon points="11.624397399314425,9.404630281539585 11.682614119344871,9.42050592776028 11.554849356449708,9.392556467817663" style="fill:none;stroke:black;stroke-width:1"/>
<polygon points="12.551779475634872,23.68652793223066 22.70386917488734,22.84431257618292 12.464890288146417,23.768050994407094" style="fill:none;stroke:black;stroke-width:1"/>
<polygon points="12.464890288146417,23.768050994407094 22.70386917488734,22.84431257618292 19.952315360220958,24.951273194566948" style="fill:none;stroke:black;stroke-width:1"/>
<polygon points="12.156126338073312,23.970314669083205 23.260447518050483,11.434611666331701 20.525988661627636,9.460766324056843" style="fill:none;stroke:black;stroke-width:1"/>
<polygon points="12.156126338073312,23.970314669083205 20.525988661627636,9.460766324056843 12.0434006126671,23.996353154727508" style="fill:none;stroke:black;stroke-width:1"/>
<polygon points="25.07370654920172,14.279620007537805 12.156126338073312,23.970314669083205 12.267629572708564,23.92183840735188" style="fill:none;stroke:black;stroke-width:1"/>
<polygon points="12.156126338073312,23.970314669083205 25.07370654920172,14.279620007537805 23.260447518050483,11.434611666331701" style="fill:none;stroke:black;stroke-width:1"/>
<polygon points="17.14650486847763,8.633116007600059 11.932734522304713,24.000758413681087 12.0434006126671,23.996353154727508" style="fill:none;stroke:black;stroke-width:1"/>
<polygon points="20.525988661627636,9.460766324056843 17.14650486847763,8.633116007600059 12.0434006126671,23.996353154727508" style="fill:none;stroke:black;stroke-width:1"/>
<polygon points="11.932734522304713,24.000758413681087 17.14650486847763,8.633116007600059 11.827644435315891,23.984394894319514" style="fill:none;stroke:black;stroke-width:1"/>
<polygon points="17.14650486847763,8.633116007600059 13.57638312714948,9.16925086585836 11.827644435315891,23.984394894319514" style="fill:none;stroke:black;stroke-width:1"/>
<polygon points="19.376601808115698,26.886246068879643 25.685172413793104,17.711379310344828 22.565640659852882,25.402709788941923" style="fill:none;stroke:black;stroke-width:1"/>
<polygon points="25.685172413793104,17.711379310344828 7.66407452850257,17.026863455441493 8.598643429027616,13.641359103056338" style="fill:none;stroke:black;stroke-width:1"/>
<polygon points="21.12671132943344,18.67308548503641 25.685172413793104,17.711379310344828 23.48857706685049,18.084994269682767" style="fill:none;stroke:black;stroke-width:1"/>
<polygon points="25.685172413793104,17.711379310344828 8.041675336632869,20.592440317001877 7.66407452850257,17.026863455441493" style="fill:none;stroke:black;stroke-width:1"/>
<polygon points="25.685172413793104,17.711379310344828 20.921916795812884,14.499695044471466 22.552252860697596,17.54187168866708" style="fill:none;stroke:black;stroke-width:1"/>
<polygon points="25.685172413793104,17.711379310344828 24.661004123667748,14.092248591509232 22.450392965963783,11.488437146943614" style="fill:none;stroke:black;stroke-width:1"/>
<polygon points="25.685172413793104,17.711379310344828 14.599935507868345,9.594920273394793 11.724805840596668,11.485186528766668" style="fill:none;stroke:black;stroke-width:1"/>
<polygon points="19.317243919874834,9.977719905118521 25.685172413793104,17.711379310344828 22.450392965963783,11.488437146943614" style="fill:none;stroke:black;stroke-width:1"/>
<polygon points="25.685172413793104,17.711379310344828 17.14650486847763,8.633116007600059 20.525988661627636,9.460766324056843" style="fill:none;stroke:black;stroke-width:1"/>
<polygon points="25.324602651225803,17.05618081503439 25.685172413793104,17.711379310344828 22.552252860697596,17.54187168866708" style="fill:none;stroke:black;stroke-width:1"/>
<polygon points="17.868393925042223,12.947662075594712 25.685172413793104,17.711379310344828 14.568962903159921,13.89429153207647" style="fill:none;stroke:black;stroke-width:1"/>
<polygon points="9.843936959675712,14.395199538426247 25.685172413793104,17.711379310344828 11.724805840596668,11.485186528766668" style="fill:none;stroke:black;stroke-width:1"/>
<polygon points="25.685172413793104,17.711379310344828 12.838881358408674,16.764557739899832 14.568962903159921,13.89429153207647" style="fill:none;stroke:black;stroke-width:1"/>
<polygon points="25.685172413793104,17.711379310344828 15.63835638203725,25.174166506567275 20.312975223206525,15.063529232058471" style="fill:none;stroke:black;stroke-width:1"/>
<polygon points="25.685172413793104,17.711379310344828 12.3267423110945,25.921509811784585 9.690199830958495,23.667545471889838" style="fill:none;stroke:black;stroke-width:1"/>
<polygon points="25.685172413793104,17.711379310344828 15.662268579529156,21.786851926008616 12.893793201364982,19.864786652113704" style="fill:none;stroke:black;stroke-width:1"/>
<polygon points="25.685172413793104,17.711379310344828 24.403310404798116,19.78432321198246 23.48857706685049,18.084994269682767" style="fill:none;stroke:black;stroke-width:1"/>
<polygon points="22.70386917488734,22.84431257618292 25.685172413793104,17.711379310344828 19.952315360220958,24.951273194566948" style="fill:none;stroke:black;stroke-width:1"/>
<polygon points="25.685172413793104,17.711379310344828 24.918586048473905,22.89827966244259 22.565640659852882,25.402709788941923" style="fill:none;stroke:black;stroke-width:1"/>
<polygon points="20.921916795812884,14.499695044471466 25.685172413793104,17.711379310344828 17.868393925042223,12.947662075594712" style="fill:none;stroke:black;stroke-width:1"/>
<polygon points="25.685172413793104,17.711379310344828 9.843936959675712,14.395199538426247 9.942999700223776,16.972436178519388" style="fill:none;stroke:black;stroke-width:1"/>
<polygon points="12.838881358408674,16.764557739899832 25.685172413793104,17.711379310344828 9.942999700223776,16.972436178519388" style="fill:none;stroke:black;stroke-width:1"/>
<polygon points="10.643629472472504,10.930377657754768 25.685172413793104,17.711379310344828 8.598643429027616,13.641359103056338" style="fill:none;stroke:black;stroke-width:1"/>
<polygon points="25.685172413793104,17.711379310344828 21.13441694612249,17.9633255232539 14.599935507868345,9.594920273394793" style="fill:none;stroke:black;stroke-width:1"/>
<polygon points="8.041675336632869,20.592440317001877 25.685172413793104,17.711379310344828 9.690199830958495,23.667545471889838" style="fill:none;stroke:black;stroke-width:1"/>
<polygon points="25.685172413793104,17.711379310344828 13.548626544122751,17.882441457949206 15.629870469239371,20.57954127940293" style="fill:none;stroke:black;stroke-width:1"/>
<polygon points="23.260447518050483,11.434611666331701 25.685172413793104,17.711379310344828 20.525988661627636,9.460766324056843" style="fill:none;stroke:black;stroke-width:1"/>
<polygon points="25.07370654920172,14.279620007537805 25.685172413793104,17.711379310344828 23.260447518050483,11.434611666331701" style="fill:none;stroke:black;stroke-width:1"/>
<polygon points="15.662268579529156,21.786851926008616 25.685172413793104,17.711379310344828 19.060902356214594,21.281805439773613" style="fill:none;stroke:black;stroke-width:1"/>
<polygon points="25.685172413793104,17.711379310344828 21.12671132943344,18.67308548503641 19.060902356214594,21.281805439773613" style="fill:none;stroke:black;stroke-width:1"/>
<polygon points="25.685172413793104,17.711379310344828 22.70386917488734,22.84431257618292 24.403310404798116,19.78432321198246" style="fill:none;stroke:black;stroke-width:1"/>
<polygon points="24.661004123667748,14.092248591509232 25.685172413793104,17.711379310344828 25.324602651225803,17.05618081503439" style="fill:none;stroke:black;stroke-width:1"/>
<polygon points="24.918586048473905,22.89827966244259 25.685172413793104,17.711379310344828 26.211194399597254,19.647878155102873" style="fill:none;stroke:black;stroke-width:1"/>
<polygon points="25.685172413793104,17.711379310344828 19.317243919874834,9.977719905118521 26.211194399597254,19.647878155102873" style="fill:none;stroke:black;stroke-width:1"/>
<polygon points="19.099870485171486,20.59682327438956 25.685172413793104,17.711379310344828 15.629870469239371,20.57954127940293" style="fill:none;stroke:black;stroke-width:1"/>
<polygon points="17.505716669494316,13.322013414232238 25.685172413793104,17.711379310344828 20.312975223206525,15.063529232058471" style="fill:none;stroke:black;stroke-width:1"/>
<polygon points="15.63835638203725,25.174166506567275 25.685172413793104,17.711379310344828 12.362622944546711,23.86737986469501" style="fill:none;stroke:black;stroke-width:1"/>
<polygon points="11.325811337995205,17.686082522116592 25.685172413793104,17.711379310344828 12.893793201364982,19.864786652113704" style="fill:none;stroke:black;stroke-width:1"/>
<polygon points="12.3267423110945,25.921509811784585 25.685172413793104,17.711379310344828 15.674598719805608,27.078305276861578" style="fill:none;stroke:black;stroke-width:1"/>
<polygon points="25.685172413793104,17.711379310344828 19.376601808115698,26.886246068879643 15.674598719805608,27.078305276861578" style="fill:none;stroke:black;stroke-width:1"/>
<polygon points="25.685172413793104,17.711379310344828 9.942272399670244,21.406181266084687 12.362622944546711,23.86737986469501" style="fill:none;stroke:black;stroke-width:1"/>
<polygon points="17.14650486847763,8.633116007600059 25.685172413793104,17.711379310344828 13.57638312714948,9.16925086585836" style="fill:none;stroke:black;stroke-width:1"/>
<polygon points="25.685172413793104,17.711379310344828 10.643629472472504,10.930377657754768 13.57638312714948,9.16925086585836" style="fill:none;stroke:black;stroke-width:1"/>
<polygon points="21.13441694612249,17.9633255232539 25.685172413793104,17.711379310344828 19.099870485171486,20.59682327438956" style="fill:none;stroke:black;stroke-width:1"/>
<polygon points="25.685172413793104,17.711379310344828 17.505716669494316,13.322013414232238 14.403942966285094,14.581249261731248" style="fill:none;stroke:black;stroke-width:1"/>
<polygon points="13.548626544122751,17.882441457949206 25.685172413793104,17.711379310344828 14.403942966285094,14.581249261731248" style="fill:none;stroke:black;stroke-width:1"/>
<polygon points="25.685172413793104,17.711379310344828 11.325811337995205,17.686082522116592 8.720792130023346,18.133884884075062" style="fill:none;stroke:black;stroke-width:1"/>
<polygon points="9.942272399670244,21.406181266084687 25.685172413793104,17.711379310344828 8.720792130023346,18.133884884075062" style="fill:none;stroke:black;stroke-width:1"/>
<polygon points="25.685172413793104,17.711379310344828 12.370803777798217,23.850762534462998 12.464890288146417,23.768050994407094" style="fill:none;stroke:black;stroke-width:1"/>
<polygon points="25.685172413793104,17.711379310344828 12.464890288146417,23.768050994407094 19.952315360220958,24.951273194566948" style="fill:none;stroke:black;stroke-width:1"/>
<polygon points="12.370803777798217,23.850762534462998 25.685172413793104,17.711379310344828 12.267629572708564,23.92183840735188" style="fill:none;stroke:black;stroke-width:1"/>
<polygon points="25.685172413793104,17.711379310344828 25.07370654920172,14.279620007537805 12.267629572708564,23.92183840735188" style="fill:none;stroke:black;stroke-width:1"/>
<polygon points="11.731750057330574,23.94818385517988 12.88499626760482,23.323936717741162 12.830354669442038,23.387731517663802" style="fill:none;stroke:black;stroke-width:1"/>
<polygon points="12.770262253265852,23.45664497640887 11.731750057330574,23.94818385517988 12.830354669442038,23.387731517663802" style="fill:none;stroke:black;stroke-width:1"/>
<polygon points="11.731750057330574,23.94818385517988 11.982949585340517,22.94537093268074 12.06259625189794,22.865707433818443" style="fill:none;stroke:black;stroke-width:1"/>
<polygon points="11.731750057330574,23.94818385517988 11.932734522304713,24.000758413681087 11.827644435315891,23.984394894319514" style="fill:none;stroke:black;stroke-width:1"/>
<polygon points="11.731750057330574,23.94818385517988 12.704120462342647,23.529953563175493 12.631426142192296,23.60686443336836" style="fill:none;stroke:black;stroke-width:1"/>
<polygon points="12.551779475634872,23.68652793223066 11.731750057330574,23.94818385517988 12.631426142192296,23.60686443336836" style="fill:none;stroke:black;stroke-width:1"/>
<polygon points="11.731750057330574,23.94818385517988 12.934871567144032,23.265903383134443 12.88499626760482,23.323936717741162" style="fill:none;stroke:black;stroke-width:1"/>
<polygon points="11.731750057330574,23.94818385517988 12.370803777798217,23.850762534462998 12.267629572708564,23.92183840735188" style="fill:none;stroke:black;stroke-width:1"/>
<polygon points="11.932734522304713,24.000758413681087 11.731750057330574,23.94818385517988 12.0434006126671,23.996353154727508" style="fill:none;stroke:black;stroke-width:1"/>
<polygon points="12.156126338073312,23.970314669083205 11.731750057330574,23.94818385517988 12.267629572708564,23.92183840735188" style="fill:none;stroke:black;stroke-width:1"/>
<polygon points="11.731750057330574,23.94818385517988 11.729379459927994,23.228298648307945 11.784021058090772,23.164503848385298" style="fill:none;stroke:black;stroke-width:1"/>
<polygon points="12.704120462342647,23.529953563175493 11.731750057330574,23.94818385517988 12.770262253265852,23.45664497640887" style="fill:none;stroke:black;stroke-width:1"/>
<polygon points="12.370803777798217,23.850762534462998 11.731750057330574,23.94818385517988 12.464890288146417,23.768050994407094" style="fill:none;stroke:black;stroke-width:1"/>
<polygon points="11.731750057330574,23.94818385517988 12.551779475634872,23.68652793223066 12.464890288146417,23.768050994407094" style="fill:none;stroke:black;stroke-width:1"/>
<polygon points="13.097274988987149,23.07797016884286 11.731750057330574,23.94818385517988 13.115888970291735,23.01654997738057" style="fill:none;stroke:black;stroke-width:1"/>
<polygon points="11.731750057330574,23.94818385517988 13.064820961020143,23.12890228625092 13.023425204079736,23.169229322595697" style="fill:none;stroke:black;stroke-width:1"/>
<polygon points="12.570469114101462,22.558346458076212 11.731750057330574,23.94818385517988 12.458284190660109,22.583445136390576" style="fill:none;stroke:black;stroke-width:1"/>
<polygon points="11.731750057330574,23.94818385517988 12.156126338073312,23.970314669083205 12.0434006126671,23.996353154727508" style="fill:none;stroke:black;stroke-width:1"/>
<polygon points="11.731750057330574,23.94818385517988 11.549567675062512,23.423568712972177 11.590950523453076,23.383006043453406" style="fill:none;stroke:black;stroke-width:1"/>
<polygon points="11.731750057330574,23.94818385517988 13.119742281151506,22.947871627275596 13.115888970291735,23.01654997738057" style="fill:none;stroke:black;stroke-width:1"/>
<polygon points="11.731750057330574,23.94818385517988 12.786963442508682,22.57129254492238 12.883846683113639,22.607224031819385" style="fill:none;stroke:black;stroke-width:1"/>
<polygon points="11.731750057330574,23.94818385517988 11.499094060823179,23.536716212744874 11.517390208519913,23.474934267464405" style="fill:none;stroke:black;stroke-width:1"/>
<polygon points="11.633635472706741,23.338051907461693 11.731750057330574,23.94818385517988 11.590950523453076,23.383006043453406" style="fill:none;stroke:black;stroke-width:1"/>
<polygon points="11.731750057330574,23.94818385517988 11.679504160388777,23.286331982914653 11.729379459927994,23.228298648307945" style="fill:none;stroke:black;stroke-width:1"/>
<polygon points="11.731750057330574,23.94818385517988 13.107906893295532,22.8750473429644 13.119742281151506,22.947871627275596" style="fill:none;stroke:black;stroke-width:1"/>
<polygon points="12.98074025482607,23.214183458587407 11.731750057330574,23.94818385517988 13.023425204079736,23.169229322595697" style="fill:none;stroke:black;stroke-width:1"/>
<polygon points="12.968038904625264,22.66127844162122 11.731750057330574,23.94818385517988 12.883846683113639,22.607224031819385" style="fill:none;stroke:black;stroke-width:1"/>
<polygon points="12.786963442508682,22.57129254492238 11.731750057330574,23.94818385517988 12.681249335894437,22.554638338937142" style="fill:none;stroke:black;stroke-width:1"/>
<polygon points="11.731750057330574,23.94818385517988 12.570469114101462,22.558346458076212 12.681249335894437,22.554638338937142" style="fill:none;stroke:black;stroke-width:1"/>
<polygon points="11.84411347426696,23.095590389640233 11.731750057330574,23.94818385517988 11.784021058090772,23.164503848385298" style="fill:none;stroke:black;stroke-width:1"/>
<polygon points="11.731750057330574,23.94818385517988 12.34824633644477,22.630919197332773 12.458284190660109,22.583445136390576" style="fill:none;stroke:black;stroke-width:1"/>
<polygon points="11.679504160388777,23.286331982914653 11.731750057330574,23.94818385517988 11.633635472706741,23.338051907461693" style="fill:none;stroke:black;stroke-width:1"/>
<polygon points="11.549567675062512,23.423568712972177 11.731750057330574,23.94818385517988 11.517390208519913,23.474934267464405" style="fill:none;stroke:black;stroke-width:1"/>
<polygon points="12.149485439386392,22.78418437164201 11.731750057330574,23.94818385517988 12.06259625189794,22.865707433818443" style="fill:none;stroke:black;stroke-width:1"/>
<polygon points="13.064820961020143,23.12890228625092 11.731750057330574,23.94818385517988 13.097274988987149,23.07797016884286" style="fill:none;stroke:black;stroke-width:1"/>
<polygon points="12.934871567144032,23.265903383134443 11.731750057330574,23.94818385517988 12.98074025482607,23.214183458587407" style="fill:none;stroke:black;stroke-width:1"/>
<polygon points="11.731750057330574,23.94818385517988 12.968038904625264,22.66127844162122 13.0333330811648,22.728834377721522" style="fill:none;stroke:black;stroke-width:1"/>
<polygon points="13.079432681760482,22.801073513965346 11.731750057330574,23.94818385517988 13.0333330811648,22.728834377721522" style="fill:none;stroke:black;stroke-width:1"/>
<polygon points="11.731750057330574,23.94818385517988 11.84411347426696,23.095590389640233 11.910255265190163,23.02228180287361" style="fill:none;stroke:black;stroke-width:1"/>
<polygon points="11.982949585340517,22.94537093268074 11.731750057330574,23.94818385517988 11.910255265190163,23.02228180287361" style="fill:none;stroke:black;stroke-width:1"/>
<polygon points="12.34824633644477,22.630919197332773 11.731750057330574,23.94818385517988 12.243793103448276,22.701724137931034" style="fill:none;stroke:black;stroke-width:1"/>
<polygon points="11.731750057330574,23.94818385517988 12.149485439386392,22.78418437164201 12.243793103448276,22.701724137931034" style="fill:none;stroke:black;stroke-width:1"/>
<polygon points="11.507835621585418,23.678727304999455 11.731750057330574,23.94818385517988 11.536751483278652,23.752847838018738" style="fill:none;stroke:black;stroke-width:1"/>
<polygon points="11.731750057330574,23.94818385517988 11.583334006215964,23.82516199501681 11.536751483278652,23.752847838018738" style="fill:none;stroke:black;stroke-width:1"/>
<polygon points="13.107906893295532,22.8750473429644 11.731750057330574,23.94818385517988 13.079432681760482,22.801073513965346" style="fill:none;stroke:black;stroke-width:1"/>
<polygon points="11.495599855754703,23.605684633402046 11.731750057330574,23.94818385517988 11.507835621585418,23.678727304999455" style="fill:none;stroke:black;stroke-width:1"/>
<polygon points="11.731750057330574,23.94818385517988 11.64876649623218,23.893115868593718 11.583334006215964,23.82516199501681" style="fill:none;stroke:black;stroke-width:1"/>
<polygon points="11.731750057330574,23.94818385517988 11.495599855754703,23.605684633402046 11.499094060823179,23.536716212744874" style="fill:none;stroke:black;stroke-width:1"/>
</svg>
