<?xml version="1.0" encoding="UTF-8" standalone="no"?>
<svg xmlns="http://www.w3.org/2000/svg" version="1.1" width="800" height="800">
<polygon points="17.464751742933387,14.888219250473922 18.290089881303967,12.969215943025457 19.041153537456978,14.93435968011877" style="fill:none;stroke:black;stroke-width:1"/>
<polygon points="16.238992852263333,8.353843702427953 15.020447957144224,8.25561889948853 15.37404002563758,7.3544988167935" style="fill:none;stroke:black;stroke-width:1"/>
<polygon points="20.379160465989195,5.918980121188425 21.244697586274018,5.015461410530113 22.216428389365056,6.063127161048161" style="fill:none;stroke:black;stroke-width:1"/>
<polygon points="18.041412534620697,4.650461220229575 10.102215635348184,7.950200227401928 18.69159726739087,3.904714818151579" style="fill:none;stroke:black;stroke-width:1"/>
<polygon points="15.112725275438676,7.780513674292488 15.277586206896551,8.572068965517243 14.781619832208007,6.513659303262848" style="fill:none;stroke:black;stroke-width:1"/>
<polygon points="15.020447957144224,8.25561889948853 15.277586206896551,8.572068965517243 15.37404002563758,7.3544988167935" style="fill:none;stroke:black;stroke-width:1"/>
<polygon points="15.277586206896551,8.572068965517243 15.112725275438676,7.780513674292488 15.37404002563758,7.3544988167935" style="fill:none;stroke:black;stroke-width:1"/>
<polygon points="14.949151172284441,5.251968860071461 14.776579228377702,6.643147747767696 14.781619832208007,6.513659303262848" style="fill:none;stroke:black;stroke-width:1"/>
<polygon points="14.776579228377702,6.643147747767696 15.112725275438676,7.780513674292488 14.781619832208007,6.513659303262848" style="fill:none;stroke:black;stroke-width:1"/>
<polygon points="16.06889711211912,4.561912468245243 14.776579228377702,6.643147747767696 14.949151172284441,5.251968860071461" style="fill:none;stroke:black;stroke-width:1"/>
<polygon points="20.301080505111678,14.271953768391057 19.590235818569667,12.574641416248227 21.035413470458856,12.648179085018052" style="fill:none;stroke:black;stroke-width:1"/>
<polygon points="19.590235818569667,12.574641416248227 20.301080505111678,14.271953768391057 19.041153537456978,14.93435968011877" style="fill:none;stroke:black;stroke-width:1"/>
<polygon points="18.290089881303967,12.969215943025457 19.590235818569667,12.574641416248227 19.041153537456978,14.93435968011877" style="fill:none;stroke:black;stroke-width:1"/>
<polygon points="19.37723034615399,10.576473655030034 21.106557051728004,11.508443529445639 21.035413470458856,12.648179085018052" style="fill:none;stroke:black;stroke-width:1"/>
<polygon points="19.590235818569667,12.574641416248227 19.37723034615399,10.576473655030034 21.035413470458856,12.648179085018052" style="fill:none;stroke:black;stroke-width:1"/>
<polygon points="16.76152423561831,7.464506319290167 16.238992852263333,8.353843702427953 15.37404002563758,7.3544988167935" style="fill:none;stroke:black;stroke-width:1"/>
<polygon points="16.238992852263333,8.353843702427953 16.76152423561831,7.464506319290167 17.68085318550283,8.26180093001297" style="fill:none;stroke:black;stroke-width:1"/>
<polygon points="20.379160465989195,5.918980121188425 19.16475384297438,5.261182667125036 21.244697586274018,5.015461410530113" style="fill:none;stroke:black;stroke-width:1"/>
<polygon points="18.69159726739087,3.904714818151579 16.681012788493245,4.256307152258924 17.2744144732976,4.016902534741901" style="fill:none;stroke:black;stroke-width:1"/>
<polygon points="15.544021760822302,4.9653959582537635 14.776579228377702,6.643147747767696 16.06889711211912,4.561912468245243" style="fill:none;stroke:black;stroke-width:1"/>
<polygon points="14.776579228377702,6.643147747767696 15.544021760822302,4.9653959582537635 15.112725275438676,7.780513674292488" style="fill:none;stroke:black;stroke-width:1"/>
<polygon points="15.544021760822302,4.9653959582537635 16.06889711211912,4.561912468245243 17.2744144732976,4.016902534741901" style="fill:none;stroke:black;stroke-width:1"/>
<polygon points="22.125936355617377,7.524315170395525 20.379160465989195,5.918980121188425 22.216428389365056,6.063127161048161" style="fill:none;stroke:black;stroke-width:1"/>
<polygon points="21.106557051728004,11.508443529445639 22.125936355617377,7.524315170395525 21.035413470458856,12.648179085018052" style="fill:none;stroke:black;stroke-width:1"/>
<polygon points="22.125936355617377,7.524315170395525 21.106557051728004,11.508443529445639 21.310377392442803,10.108535063092393" style="fill:none;stroke:black;stroke-width:1"/>
<polygon points="15.354681986068226,10.038317596218363 15.277586206896551,8.572068965517243 15.020447957144224,8.25561889948853" style="fill:none;stroke:black;stroke-width:1"/>
<polygon points="15.277586206896551,8.572068965517243 15.354681986068226,10.038317596218363 14.781619832208007,6.513659303262848" style="fill:none;stroke:black;stroke-width:1"/>
<polygon points="19.144451714502274,8.184696067998654 18.982911882901252,8.63068579612982 17.68085318550283,8.26180093001297" style="fill:none;stroke:black;stroke-width:1"/>
<polygon points="19.37723034615399,10.576473655030034 19.487102715026687,9.378747360731332 21.106557051728004,11.508443529445639" style="fill:none;stroke:black;stroke-width:1"/>
<polygon points="21.106557051728004,11.508443529445639 19.487102715026687,9.378747360731332 21.310377392442803,10.108535063092393" style="fill:none;stroke:black;stroke-width:1"/>
<polygon points="19.487102715026687,9.378747360731332 19.144451714502274,8.184696067998654 21.310377392442803,10.108535063092393" style="fill:none;stroke:black;stroke-width:1"/>
<polygon points="19.144451714502274,8.184696067998654 19.487102715026687,9.378747360731332 18.982911882901252,8.63068579612982" style="fill:none;stroke:black;stroke-width:1"/>
<polygon points="22.686507624283717,21.688140424517762 19.590235818569667,12.574641416248227 18.290089881303967,12.969215943025457" style="fill:none;stroke:black;stroke-width:1"/>
<polygon points="19.590235818569667,12.574641416248227 22.686507624283717,21.688140424517762 22.76826984527139,21.551661681783134" style="fill:none;stroke:black;stroke-width:1"/>
<polygon points="21.759075139921514,22.777143698450942 21.88302622140648,22.678253484649034 18.290089881303967,12.969215943025457" style="fill:none;stroke:black;stroke-width:1"/>
<polygon points="16.389612364228952,7.894178146632928 16.76152423561831,7.464506319290167 15.37404002563758,7.3544988167935" style="fill:none;stroke:black;stroke-width:1"/>
<polygon points="15.112725275438676,7.780513674292488 16.389612364228952,7.894178146632928 15.37404002563758,7.3544988167935" style="fill:none;stroke:black;stroke-width:1"/>
<polygon points="15.544021760822302,4.9653959582537635 16.389612364228952,7.894178146632928 15.112725275438676,7.780513674292488" style="fill:none;stroke:black;stroke-width:1"/>
<polygon points="16.76152423561831,7.464506319290167 18.174133001860653,7.571552398107293 17.68085318550283,8.26180093001297" style="fill:none;stroke:black;stroke-width:1"/>
<polygon points="18.174133001860653,7.571552398107293 19.144451714502274,8.184696067998654 17.68085318550283,8.26180093001297" style="fill:none;stroke:black;stroke-width:1"/>
<polygon points="19.144451714502274,8.184696067998654 18.174133001860653,7.571552398107293 19.45214019896078,6.956426519084482" style="fill:none;stroke:black;stroke-width:1"/>
<polygon points="19.16475384297438,5.261182667125036 19.917283201409397,4.672209684171754 21.244697586274018,5.015461410530113" style="fill:none;stroke:black;stroke-width:1"/>
<polygon points="19.917283201409397,4.672209684171754 19.16475384297438,5.261182667125036 18.041412534620697,4.650461220229575" style="fill:none;stroke:black;stroke-width:1"/>
<polygon points="21.244697586274018,5.015461410530113 19.917283201409397,4.672209684171754 18.69159726739087,3.904714818151579" style="fill:none;stroke:black;stroke-width:1"/>
<polygon points="19.917283201409397,4.672209684171754 18.041412534620697,4.650461220229575 18.69159726739087,3.904714818151579" style="fill:none;stroke:black;stroke-width:1"/>
<polygon points="20.25216750618155,7.292627450624706 19.16475384297438,5.261182667125036 20.379160465989195,5.918980121188425" style="fill:none;stroke:black;stroke-width:1"/>
<polygon points="22.125936355617377,7.524315170395525 20.25216750618155,7.292627450624706 20.379160465989195,5.918980121188425" style="fill:none;stroke:black;stroke-width:1"/>
<polygon points="21.34551417324361,8.620185358721113 22.125936355617377,7.524315170395525 21.310377392442803,10.108535063092393" style="fill:none;stroke:black;stroke-width:1"/>
<polygon points="19.144451714502274,8.184696067998654 21.34551417324361,8.620185358721113 21.310377392442803,10.108535063092393" style="fill:none;stroke:black;stroke-width:1"/>
<polygon points="21.34551417324361,8.620185358721113 19.144451714502274,8.184696067998654 19.45214019896078,6.956426519084482" style="fill:none;stroke:black;stroke-width:1"/>
<polygon points="20.25216750618155,7.292627450624706 21.34551417324361,8.620185358721113 19.45214019896078,6.956426519084482" style="fill:none;stroke:black;stroke-width:1"/>
<polygon points="21.34551417324361,8.620185358721113 20.25216750618155,7.292627450624706 22.125936355617377,7.524315170395525" style="fill:none;stroke:black;stroke-width:1"/>
<polygon points="12.609547462203246,19.912019794279882 17.70483462237691,8.67329180427837 17.68085318550283,8.26180093001297" style="fill:none;stroke:black;stroke-width:1"/>
<polygon points="12.816563838739206,23.558218843919544 17.70483462237691,8.67329180427837 12.752529329728999,23.61958792877906" style="fill:none;stroke:black;stroke-width:1"/>
<polygon points="17.70483462237691,8.67329180427837 16.238992852263333,8.353843702427953 17.68085318550283,8.26180093001297" style="fill:none;stroke:black;stroke-width:1"/>
<polygon points="22.686507624283717,21.688140424517762 22.2248275862069,20.32655172413793 22.76826984527139,21.551661681783134" style="fill:none;stroke:black;stroke-width:1"/>
<polygon points="22.712743395776247,20.550074882967056 22.76849699410959,25.63075705147143 19.37723034615399,10.576473655030034" style="fill:none;stroke:black;stroke-width:1"/>
<polygon points="22.914414781790054,21.045272718838916 19.37723034615399,10.576473655030034 19.590235818569667,12.574641416248227" style="fill:none;stroke:black;stroke-width:1"/>
<polygon points="22.914414781790054,21.045272718838916 22.88932716038064,20.863132427729155 19.37723034615399,10.576473655030034" style="fill:none;stroke:black;stroke-width:1"/>
<polygon points="22.893965829876365,21.227505578760145 22.914414781790054,21.045272718838916 19.590235818569667,12.574641416248227" style="fill:none;stroke:black;stroke-width:1"/>
<polygon points="16.22826603006608,14.019272799454072 16.88354822027049,12.523700532776033 17.464751742933387,14.888219250473922" style="fill:none;stroke:black;stroke-width:1"/>
<polygon points="16.88354822027049,12.523700532776033 18.290089881303967,12.969215943025457 17.464751742933387,14.888219250473922" style="fill:none;stroke:black;stroke-width:1"/>
<polygon points="16.389612364228952,7.894178146632928 17.706218895849084,7.80154787367149 16.76152423561831,7.464506319290167" style="fill:none;stroke:black;stroke-width:1"/>
<polygon points="17.706218895849084,7.80154787367149 18.174133001860653,7.571552398107293 16.76152423561831,7.464506319290167" style="fill:none;stroke:black;stroke-width:1"/>
<polygon points="10.236363052964101,7.895547404747477 10.102215635348184,7.950200227401928 18.041412534620697,4.650461220229575" style="fill:none;stroke:black;stroke-width:1"/>
<polygon points="10.36634560885339,7.846638228305675 10.236363052964101,7.895547404747477 18.041412534620697,4.650461220229575" style="fill:none;stroke:black;stroke-width:1"/>
<polygon points="10.612901241034212,7.764941851129253 10.491934579411584,7.803195457343831 18.041412534620697,4.650461220229575" style="fill:none;stroke:black;stroke-width:1"/>
<polygon points="10.491934579411584,7.803195457343831 10.36634560885339,7.846638228305675 18.041412534620697,4.650461220229575" style="fill:none;stroke:black;stroke-width:1"/>
<polygon points="19.487102715026687,9.378747360731332 14.312410627746875,9.046426515951568 18.982911882901252,8.63068579612982" style="fill:none;stroke:black;stroke-width:1"/>
<polygon points="11.273838353554243,11.033816652079029 14.312410627746875,9.046426515951568 19.487102715026687,9.378747360731332" style="fill:none;stroke:black;stroke-width:1"/>
<polygon points="16.88354822027049,12.523700532776033 21.104725784953484,23.001805373354443 18.290089881303967,12.969215943025457" style="fill:none;stroke:black;stroke-width:1"/>
<polygon points="16.08258726411472,9.796531946573197 16.15163239014702,11.013862038771725 15.728891899746909,12.592685925157156" style="fill:none;stroke:black;stroke-width:1"/>
<polygon points="16.15163239014702,11.013862038771725 16.22826603006608,14.019272799454072 15.728891899746909,12.592685925157156" style="fill:none;stroke:black;stroke-width:1"/>
<polygon points="16.415737612993205,8.738377281991982 15.354681986068226,10.038317596218363 15.020447957144224,8.25561889948853" style="fill:none;stroke:black;stroke-width:1"/>
<polygon points="16.238992852263333,8.353843702427953 16.415737612993205,8.738377281991982 15.020447957144224,8.25561889948853" style="fill:none;stroke:black;stroke-width:1"/>
<polygon points="22.88932716038064,20.863132427729155 22.82025805847122,20.69517040265293 19.37723034615399,10.576473655030034" style="fill:none;stroke:black;stroke-width:1"/>
<polygon points="22.82025805847122,20.69517040265293 22.712743395776247,20.550074882967056 19.37723034615399,10.576473655030034" style="fill:none;stroke:black;stroke-width:1"/>
<polygon points="22.82025805847122,20.69517040265293 22.893965829876365,21.227505578760145 22.712743395776247,20.550074882967056" style="fill:none;stroke:black;stroke-width:1"/>
<polygon points="22.914414781790054,21.045272718838916 22.82025805847122,20.69517040265293 22.88932716038064,20.863132427729155" style="fill:none;stroke:black;stroke-width:1"/>
<polygon points="22.82025805847122,20.69517040265293 22.914414781790054,21.045272718838916 22.893965829876365,21.227505578760145" style="fill:none;stroke:black;stroke-width:1"/>
<polygon points="22.712743395776247,20.550074882967056 22.57261349986548,20.43456854467253 22.76849699410959,25.63075705147143" style="fill:none;stroke:black;stroke-width:1"/>
<polygon points="22.57261349986548,20.43456854467253 22.2248275862069,20.32655172413793 22.4056986983087,20.35537406377036" style="fill:none;stroke:black;stroke-width:1"/>
<polygon points="22.2248275862069,20.32655172413793 22.57261349986548,20.43456854467253 22.76826984527139,21.551661681783134" style="fill:none;stroke:black;stroke-width:1"/>
<polygon points="22.838725672856942,21.397116191878077 19.590235818569667,12.574641416248227 22.76826984527139,21.551661681783134" style="fill:none;stroke:black;stroke-width:1"/>
<polygon points="22.838725672856942,21.397116191878077 22.893965829876365,21.227505578760145 19.590235818569667,12.574641416248227" style="fill:none;stroke:black;stroke-width:1"/>
<polygon points="22.893965829876365,21.227505578760145 22.838725672856942,21.397116191878077 22.712743395776247,20.550074882967056" style="fill:none;stroke:black;stroke-width:1"/>
<polygon points="22.57261349986548,20.43456854467253 22.838725672856942,21.397116191878077 22.76826984527139,21.551661681783134" style="fill:none;stroke:black;stroke-width:1"/>
<polygon points="22.838725672856942,21.397116191878077 22.57261349986548,20.43456854467253 22.712743395776247,20.550074882967056" style="fill:none;stroke:black;stroke-width:1"/>
<polygon points="20.25216750618155,7.292627450624706 12.112972560690517,8.59673862517537 19.16475384297438,5.261182667125036" style="fill:none;stroke:black;stroke-width:1"/>
<polygon points="11.444451772953183,9.501173458685814 12.112972560690517,8.59673862517537 12.14540194577081,8.810142574535408" style="fill:none;stroke:black;stroke-width:1"/>
<polygon points="19.02282542746922,7.70891760071005 20.25216750618155,7.292627450624706 19.45214019896078,6.956426519084482" style="fill:none;stroke:black;stroke-width:1"/>
<polygon points="18.174133001860653,7.571552398107293 19.02282542746922,7.70891760071005 19.45214019896078,6.956426519084482" style="fill:none;stroke:black;stroke-width:1"/>
<polygon points="19.02282542746922,7.70891760071005 12.112972560690517,8.59673862517537 20.25216750618155,7.292627450624706" style="fill:none;stroke:black;stroke-width:1"/>
<polygon points="12.112972560690517,8.59673862517537 19.02282542746922,7.70891760071005 12.14540194577081,8.810142574535408" style="fill:none;stroke:black;stroke-width:1"/>
<polygon points="17.706218895849084,7.80154787367149 19.02282542746922,7.70891760071005 18.174133001860653,7.571552398107293" style="fill:none;stroke:black;stroke-width:1"/>
<polygon points="10.456164311626704,9.62743318860836 10.236363052964101,7.895547404747477 10.36634560885339,7.846638228305675" style="fill:none;stroke:black;stroke-width:1"/>
<polygon points="10.729016870116803,7.731600168929252 10.612901241034212,7.764941851129253 18.041412534620697,4.650461220229575" style="fill:none;stroke:black;stroke-width:1"/>
<polygon points="19.16475384297438,5.261182667125036 11.225413361061714,7.693407406963252 18.041412534620697,4.650461220229575" style="fill:none;stroke:black;stroke-width:1"/>
<polygon points="11.374351998696415,7.7392437171792325 11.225413361061714,7.693407406963252 19.16475384297438,5.261182667125036" style="fill:none;stroke:black;stroke-width:1"/>
<polygon points="17.75604197913286,12.53470650429686 14.271675099077523,13.542492920416532 19.487102715026687,9.378747360731332" style="fill:none;stroke:black;stroke-width:1"/>
<polygon points="17.70483462237691,8.67329180427837 12.683539531615695,23.685610339840785 12.752529329728999,23.61958792877906" style="fill:none;stroke:black;stroke-width:1"/>
<polygon points="20.316913399455707,22.62954603451498 16.88354822027049,12.523700532776033 16.22826603006608,14.019272799454072" style="fill:none;stroke:black;stroke-width:1"/>
<polygon points="16.15163239014702,11.013862038771725 20.316913399455707,22.62954603451498 16.22826603006608,14.019272799454072" style="fill:none;stroke:black;stroke-width:1"/>
<polygon points="16.415737612993205,8.738377281991982 15.628254142104154,11.401880772684358 15.354681986068226,10.038317596218363" style="fill:none;stroke:black;stroke-width:1"/>
<polygon points="15.628254142104154,11.401880772684358 16.415737612993205,8.738377281991982 16.08258726411472,9.796531946573197" style="fill:none;stroke:black;stroke-width:1"/>
<polygon points="15.628254142104154,11.401880772684358 16.08258726411472,9.796531946573197 15.728891899746909,12.592685925157156" style="fill:none;stroke:black;stroke-width:1"/>
<polygon points="15.628254142104154,11.401880772684358 15.728891899746909,12.592685925157156 14.781619832208007,6.513659303262848" style="fill:none;stroke:black;stroke-width:1"/>
<polygon points="15.354681986068226,10.038317596218363 15.628254142104154,11.401880772684358 14.781619832208007,6.513659303262848" style="fill:none;stroke:black;stroke-width:1"/>
<polygon points="21.88302622140648,22.678253484649034 21.985300536393666,22.566986613822152 18.290089881303967,12.969215943025457" style="fill:none;stroke:black;stroke-width:1"/>
<polygon points="21.985300536393666,22.566986613822152 22.07283877611752,22.457945850847267 18.290089881303967,12.969215943025457" style="fill:none;stroke:black;stroke-width:1"/>
<polygon points="21.985300536393666,22.566986613822152 21.88302622140648,22.678253484649034 21.065247178907583,20.866514187209983" style="fill:none;stroke:black;stroke-width:1"/>
<polygon points="22.247910747457468,22.239876117691573 22.335446733127444,22.13084125111373 18.290089881303967,12.969215943025457" style="fill:none;stroke:black;stroke-width:1"/>
<polygon points="22.247910747457468,22.239876117691573 21.52288078406812,20.467162345909177 22.335446733127444,22.13084125111373" style="fill:none;stroke:black;stroke-width:1"/>
<polygon points="22.59805469013736,21.80373665138019 22.686507624283717,21.688140424517762 18.290089881303967,12.969215943025457" style="fill:none;stroke:black;stroke-width:1"/>
<polygon points="22.51051870446739,21.912771517958035 22.59805469013736,21.80373665138019 18.290089881303967,12.969215943025457" style="fill:none;stroke:black;stroke-width:1"/>
<polygon points="22.59805469013736,21.80373665138019 22.2248275862069,20.32655172413793 22.686507624283717,21.688140424517762" style="fill:none;stroke:black;stroke-width:1"/>
<polygon points="22.335446733127444,22.13084125111373 22.422982718797417,22.021806384535882 18.290089881303967,12.969215943025457" style="fill:none;stroke:black;stroke-width:1"/>
<polygon points="22.422982718797417,22.021806384535882 22.51051870446739,21.912771517958035 18.290089881303967,12.969215943025457" style="fill:none;stroke:black;stroke-width:1"/>
<polygon points="22.2248275862069,20.32655172413793 9.212226001732228,23.801363517807665 22.4056986983087,20.35537406377036" style="fill:none;stroke:black;stroke-width:1"/>
<polygon points="21.88302622140648,22.678253484649034 20.97771119323761,20.97554905378783 21.065247178907583,20.866514187209983" style="fill:none;stroke:black;stroke-width:1"/>
<polygon points="21.759075139921514,22.777143698450942 20.97771119323761,20.97554905378783 21.88302622140648,22.678253484649034" style="fill:none;stroke:black;stroke-width:1"/>
<polygon points="21.45778720464817,22.92836763296897 20.715103236227694,21.302653653521368 20.802639221897664,21.19361878694352" style="fill:none;stroke:black;stroke-width:1"/>
<polygon points="11.685277206989875,23.3502518202434 16.15163239014702,11.013862038771725 16.08258726411472,9.796531946573197" style="fill:none;stroke:black;stroke-width:1"/>
<polygon points="11.74931171600008,23.28888273538388 11.685277206989875,23.3502518202434 16.08258726411472,9.796531946573197" style="fill:none;stroke:black;stroke-width:1"/>
<polygon points="23.816574867789672,18.008171289811095 24.785839905473583,19.794016484362366 17.70483462237691,8.67329180427837" style="fill:none;stroke:black;stroke-width:1"/>
<polygon points="19.487102715026687,9.378747360731332 25.637565507240083,16.847927995571546 22.70652338906664,17.36796499955819" style="fill:none;stroke:black;stroke-width:1"/>
<polygon points="25.637565507240083,16.847927995571546 19.487102715026687,9.378747360731332 19.37723034615399,10.576473655030034" style="fill:none;stroke:black;stroke-width:1"/>
<polygon points="11.604543418909921,9.479646960120823 12.021806506916406,9.196969427464573 11.73396277796246,9.429251129670547" style="fill:none;stroke:black;stroke-width:1"/>
<polygon points="17.706218895849084,7.80154787367149 11.604543418909921,9.479646960120823 11.73396277796246,9.429251129670547" style="fill:none;stroke:black;stroke-width:1"/>
<polygon points="19.02282542746922,7.70891760071005 12.113055497675818,9.015370714470901 12.14540194577081,8.810142574535408" style="fill:none;stroke:black;stroke-width:1"/>
<polygon points="12.113055497675818,9.015370714470901 19.02282542746922,7.70891760071005 12.021806506916406,9.196969427464573" style="fill:none;stroke:black;stroke-width:1"/>
<polygon points="11.604543418909921,9.479646960120823 12.113055497675818,9.015370714470901 12.021806506916406,9.196969427464573" style="fill:none;stroke:black;stroke-width:1"/>
<polygon points="12.113055497675818,9.015370714470901 11.444451772953183,9.501173458685814 12.14540194577081,8.810142574535408" style="fill:none;stroke:black;stroke-width:1"/>
<polygon points="11.882392091029349,9.338575552321883 19.02282542746922,7.70891760071005 17.706218895849084,7.80154787367149" style="fill:none;stroke:black;stroke-width:1"/>
<polygon points="19.02282542746922,7.70891760071005 11.882392091029349,9.338575552321883 12.021806506916406,9.196969427464573" style="fill:none;stroke:black;stroke-width:1"/>
<polygon points="11.882392091029349,9.338575552321883 17.706218895849084,7.80154787367149 11.73396277796246,9.429251129670547" style="fill:none;stroke:black;stroke-width:1"/>
<polygon points="12.021806506916406,9.196969427464573 11.882392091029349,9.338575552321883 11.73396277796246,9.429251129670547" style="fill:none;stroke:black;stroke-width:1"/>
<polygon points="10.491934579411584,7.803195457343831 10.630988847429737,9.618759069384476 10.36634560885339,7.846638228305675" style="fill:none;stroke:black;stroke-width:1"/>
<polygon points="10.630988847429737,9.618759069384476 10.456164311626704,9.62743318860836 10.36634560885339,7.846638228305675" style="fill:none;stroke:black;stroke-width:1"/>
<polygon points="10.630988847429737,9.618759069384476 10.491934579411584,7.803195457343831 10.612901241034212,7.764941851129253" style="fill:none;stroke:black;stroke-width:1"/>
<polygon points="10.236363052964101,7.895547404747477 10.261503645287661,9.62176649137976 10.102215635348184,7.950200227401928" style="fill:none;stroke:black;stroke-width:1"/>
<polygon points="10.456164311626704,9.62743318860836 10.261503645287661,9.62176649137976 10.236363052964101,7.895547404747477" style="fill:none;stroke:black;stroke-width:1"/>
<polygon points="10.261503645287661,9.62176649137976 10.456164311626704,9.62743318860836 10.052463475795506,9.60061650231585" style="fill:none;stroke:black;stroke-width:1"/>
<polygon points="10.953620353572182,7.678221269600591 10.840052743054889,7.702893170011137 18.041412534620697,4.650461220229575" style="fill:none;stroke:black;stroke-width:1"/>
<polygon points="10.840052743054889,7.702893170011137 10.729016870116803,7.731600168929252 18.041412534620697,4.650461220229575" style="fill:none;stroke:black;stroke-width:1"/>
<polygon points="11.083564214157406,7.673585787124037 10.953620353572182,7.678221269600591 18.041412534620697,4.650461220229575" style="fill:none;stroke:black;stroke-width:1"/>
<polygon points="11.225413361061714,7.693407406963252 11.083564214157406,7.673585787124037 18.041412534620697,4.650461220229575" style="fill:none;stroke:black;stroke-width:1"/>
<polygon points="9.822341109354353,8.07784577427954 16.681012788493245,4.256307152258924 18.69159726739087,3.904714818151579" style="fill:none;stroke:black;stroke-width:1"/>
<polygon points="9.822341109354353,8.07784577427954 9.677071448185378,8.15139297996808 16.681012788493245,4.256307152258924" style="fill:none;stroke:black;stroke-width:1"/>
<polygon points="9.115156011583537,8.855701291771124 15.544021760822302,4.9653959582537635 17.2744144732976,4.016902534741901" style="fill:none;stroke:black;stroke-width:1"/>
<polygon points="9.40922496240881,9.410897553102672 16.389612364228952,7.894178146632928 15.544021760822302,4.9653959582537635" style="fill:none;stroke:black;stroke-width:1"/>
<polygon points="9.250931549527825,9.259365314626885 9.40922496240881,9.410897553102672 15.544021760822302,4.9653959582537635" style="fill:none;stroke:black;stroke-width:1"/>
<polygon points="20.98189991739358,14.164669453005665 19.487102715026687,9.378747360731332 22.70652338906664,17.36796499955819" style="fill:none;stroke:black;stroke-width:1"/>
<polygon points="20.98189991739358,14.164669453005665 17.75604197913286,12.53470650429686 19.487102715026687,9.378747360731332" style="fill:none;stroke:black;stroke-width:1"/>
<polygon points="9.285781849023765,14.09720297716971 11.273838353554243,11.033816652079029 19.487102715026687,9.378747360731332" style="fill:none;stroke:black;stroke-width:1"/>
<polygon points="9.388713940422702,16.809052996323544 9.285781849023765,14.09720297716971 19.487102715026687,9.378747360731332" style="fill:none;stroke:black;stroke-width:1"/>
<polygon points="14.271675099077523,13.542492920416532 12.444930322764712,16.580922058783155 19.487102715026687,9.378747360731332" style="fill:none;stroke:black;stroke-width:1"/>
<polygon points="12.444930322764712,16.580922058783155 9.388713940422702,16.809052996323544 19.487102715026687,9.378747360731332" style="fill:none;stroke:black;stroke-width:1"/>
<polygon points="18.982911882901252,8.63068579612982 12.016018005322174,24.14765282443003 17.68085318550283,8.26180093001297" style="fill:none;stroke:black;stroke-width:1"/>
<polygon points="12.52860422746074,23.828921106936377 12.609050301914191,23.755628321831193 17.70483462237691,8.67329180427837" style="fill:none;stroke:black;stroke-width:1"/>
<polygon points="12.609050301914191,23.755628321831193 12.683539531615695,23.685610339840785 17.70483462237691,8.67329180427837" style="fill:none;stroke:black;stroke-width:1"/>
<polygon points="12.441837838091766,23.90471628174103 12.52860422746074,23.828921106936377 17.70483462237691,8.67329180427837" style="fill:none;stroke:black;stroke-width:1"/>
<polygon points="22.07283877611752,22.457945850847267 22.160374761787498,22.348910984269416 18.290089881303967,12.969215943025457" style="fill:none;stroke:black;stroke-width:1"/>
<polygon points="22.160374761787498,22.348910984269416 22.247910747457468,22.239876117691573 18.290089881303967,12.969215943025457" style="fill:none;stroke:black;stroke-width:1"/>
<polygon points="21.254893357968328,20.647841709438865 22.160374761787498,22.348910984269416 22.07283877611752,22.457945850847267" style="fill:none;stroke:black;stroke-width:1"/>
<polygon points="21.52288078406812,20.467162345909177 21.682406492867543,20.400827050800004 22.335446733127444,22.13084125111373" style="fill:none;stroke:black;stroke-width:1"/>
<polygon points="21.682406492867543,20.400827050800004 22.422982718797417,22.021806384535882 22.335446733127444,22.13084125111373" style="fill:none;stroke:black;stroke-width:1"/>
<polygon points="7.089288863070699,16.799166430361716 21.682406492867543,20.400827050800004 8.082833618817254,13.230704522477815" style="fill:none;stroke:black;stroke-width:1"/>
<polygon points="21.682406492867543,20.400827050800004 21.52288078406812,20.467162345909177 8.082833618817254,13.230704522477815" style="fill:none;stroke:black;stroke-width:1"/>
<polygon points="21.152812310010788,20.757400275852255 21.985300536393666,22.566986613822152 21.065247178907583,20.866514187209983" style="fill:none;stroke:black;stroke-width:1"/>
<polygon points="21.985300536393666,22.566986613822152 21.152812310010788,20.757400275852255 22.07283877611752,22.457945850847267" style="fill:none;stroke:black;stroke-width:1"/>
<polygon points="21.152812310010788,20.757400275852255 21.254893357968328,20.647841709438865 22.07283877611752,22.457945850847267" style="fill:none;stroke:black;stroke-width:1"/>
<polygon points="7.480225306137826,20.558629567080732 9.212226001732228,23.801363517807665 22.2248275862069,20.32655172413793" style="fill:none;stroke:black;stroke-width:1"/>
<polygon points="15.511992434762124,27.398348158324147 22.57261349986548,20.43456854467253 22.4056986983087,20.35537406377036" style="fill:none;stroke:black;stroke-width:1"/>
<polygon points="13.349030592156044,8.522835271441291 21.152812310010788,20.757400275852255 11.68855405711296,24.161042857039178" style="fill:none;stroke:black;stroke-width:1"/>
<polygon points="20.62756725055772,21.41168852009921 21.104725784953484,23.001805373354443 20.540031264887748,21.520723386677055" style="fill:none;stroke:black;stroke-width:1"/>
<polygon points="20.89017520756764,21.084583920365674 20.97771119323761,20.97554905378783 21.759075139921514,22.777143698450942" style="fill:none;stroke:black;stroke-width:1"/>
<polygon points="21.45778720464817,22.92836763296897 21.286272614454752,22.97598809267964 20.715103236227694,21.302653653521368" style="fill:none;stroke:black;stroke-width:1"/>
<polygon points="20.62756725055772,21.41168852009921 21.286272614454752,22.97598809267964 21.104725784953484,23.001805373354443" style="fill:none;stroke:black;stroke-width:1"/>
<polygon points="21.286272614454752,22.97598809267964 20.62756725055772,21.41168852009921 20.715103236227694,21.302653653521368" style="fill:none;stroke:black;stroke-width:1"/>
<polygon points="21.104725784953484,23.001805373354443 21.286272614454752,22.97598809267964 18.290089881303967,12.969215943025457" style="fill:none;stroke:black;stroke-width:1"/>
<polygon points="21.286272614454752,22.97598809267964 21.45778720464817,22.92836763296897 18.290089881303967,12.969215943025457" style="fill:none;stroke:black;stroke-width:1"/>
<polygon points="16.415737612993205,8.738377281991982 12.477673809664047,22.74035110835428 16.08258726411472,9.796531946573197" style="fill:none;stroke:black;stroke-width:1"/>
<polygon points="16.15163239014702,11.013862038771725 11.516351732698729,23.501016343346986 20.299360282168166,21.92734384617917" style="fill:none;stroke:black;stroke-width:1"/>
<polygon points="15.538882388791102,21.935740452646304 17.70483462237691,8.67329180427837 12.609547462203246,19.912019794279882" style="fill:none;stroke:black;stroke-width:1"/>
<polygon points="15.538882388791102,21.935740452646304 19.132686419575226,21.396665957672752 17.70483462237691,8.67329180427837" style="fill:none;stroke:black;stroke-width:1"/>
<polygon points="21.318821472344673,18.636297543392075 23.816574867789672,18.008171289811095 17.70483462237691,8.67329180427837" style="fill:none;stroke:black;stroke-width:1"/>
<polygon points="19.132686419575226,21.396665957672752 21.318821472344673,18.636297543392075 17.70483462237691,8.67329180427837" style="fill:none;stroke:black;stroke-width:1"/>
<polygon points="24.785839905473583,19.794016484362366 22.994680181903902,23.015711183690637 17.70483462237691,8.67329180427837" style="fill:none;stroke:black;stroke-width:1"/>
<polygon points="22.994680181903902,23.015711183690637 12.441837838091766,23.90471628174103 17.70483462237691,8.67329180427837" style="fill:none;stroke:black;stroke-width:1"/>
<polygon points="22.615593687007,10.958175791025496 24.942659309189466,13.712613297570254 19.37723034615399,10.576473655030034" style="fill:none;stroke:black;stroke-width:1"/>
<polygon points="24.942659309189466,13.712613297570254 25.637565507240083,16.847927995571546 19.37723034615399,10.576473655030034" style="fill:none;stroke:black;stroke-width:1"/>
<polygon points="22.76849699410959,25.63075705147143 25.24371464877975,22.989360718946685 19.37723034615399,10.576473655030034" style="fill:none;stroke:black;stroke-width:1"/>
<polygon points="25.24371464877975,22.989360718946685 26.60002608210508,19.56159172952067 19.37723034615399,10.576473655030034" style="fill:none;stroke:black;stroke-width:1"/>
<polygon points="19.315436165772116,9.35840379390969 22.615593687007,10.958175791025496 19.37723034615399,10.576473655030034" style="fill:none;stroke:black;stroke-width:1"/>
<polygon points="26.60002608210508,19.56159172952067 19.315436165772116,9.35840379390969 19.37723034615399,10.576473655030034" style="fill:none;stroke:black;stroke-width:1"/>
<polygon points="11.81554712133972,8.048416667946949 11.674234563802244,7.915190760985485 19.16475384297438,5.261182667125036" style="fill:none;stroke:black;stroke-width:1"/>
<polygon points="12.112972560690517,8.59673862517537 12.041690335943319,8.3944582229842 19.16475384297438,5.261182667125036" style="fill:none;stroke:black;stroke-width:1"/>
<polygon points="12.041690335943319,8.3944582229842 12.112972560690517,8.59673862517537 11.444451772953183,9.501173458685814" style="fill:none;stroke:black;stroke-width:1"/>
<polygon points="12.113055497675818,9.015370714470901 11.504672804711868,9.500124333278192 11.444451772953183,9.501173458685814" style="fill:none;stroke:black;stroke-width:1"/>
<polygon points="11.504672804711868,9.500124333278192 12.113055497675818,9.015370714470901 11.604543418909921,9.479646960120823" style="fill:none;stroke:black;stroke-width:1"/>
<polygon points="11.504672804711868,9.500124333278192 11.604543418909921,9.479646960120823 17.706218895849084,7.80154787367149" style="fill:none;stroke:black;stroke-width:1"/>
<polygon points="11.504672804711868,9.500124333278192 17.706218895849084,7.80154787367149 16.389612364228952,7.894178146632928" style="fill:none;stroke:black;stroke-width:1"/>
<polygon points="11.444451772953183,9.501173458685814 11.504672804711868,9.500124333278192 16.389612364228952,7.894178146632928" style="fill:none;stroke:black;stroke-width:1"/>
<polygon points="10.729016870116803,7.731600168929252 10.780520625313859,9.596886609090921 10.612901241034212,7.764941851129253" style="fill:none;stroke:black;stroke-width:1"/>
<polygon points="10.780520625313859,9.596886609090921 10.630988847429737,9.618759069384476 10.612901241034212,7.764941851129253" style="fill:none;stroke:black;stroke-width:1"/>
<polygon points="9.822341109354353,8.07784577427954 9.964132079610112,8.010873937001719 10.052463475795506,9.60061650231585" style="fill:none;stroke:black;stroke-width:1"/>
<polygon points="10.261503645287661,9.62176649137976 9.964132079610112,8.010873937001719 10.102215635348184,7.950200227401928" style="fill:none;stroke:black;stroke-width:1"/>
<polygon points="9.964132079610112,8.010873937001719 10.261503645287661,9.62176649137976 10.052463475795506,9.60061650231585" style="fill:none;stroke:black;stroke-width:1"/>
<polygon points="10.102215635348184,7.950200227401928 9.964132079610112,8.010873937001719 18.69159726739087,3.904714818151579" style="fill:none;stroke:black;stroke-width:1"/>
<polygon points="9.964132079610112,8.010873937001719 9.822341109354353,8.07784577427954 18.69159726739087,3.904714818151579" style="fill:none;stroke:black;stroke-width:1"/>
<polygon points="9.149689753471295,9.069133883656814 9.250931549527825,9.259365314626885 15.544021760822302,4.9653959582537635" style="fill:none;stroke:black;stroke-width:1"/>
<polygon points="9.115156011583537,8.855701291771124 9.149689753471295,9.069133883656814 15.544021760822302,4.9653959582537635" style="fill:none;stroke:black;stroke-width:1"/>
<polygon points="9.149689753471295,9.069133883656814 9.115156011583537,8.855701291771124 9.250931549527825,9.259365314626885" style="fill:none;stroke:black;stroke-width:1"/>
<polygon points="9.40922496240881,9.410897553102672 9.614827586206896,9.508620689655173 16.389612364228952,7.894178146632928" style="fill:none;stroke:black;stroke-width:1"/>
<polygon points="9.614827586206896,9.508620689655173 11.444451772953183,9.501173458685814 16.389612364228952,7.894178146632928" style="fill:none;stroke:black;stroke-width:1"/>
<polygon points="9.614827586206896,9.508620689655173 9.40922496240881,9.410897553102672 9.240774645519188,8.468424489923365" style="fill:none;stroke:black;stroke-width:1"/>
<polygon points="9.614827586206896,9.508620689655173 10.780520625313859,9.596886609090921 11.444451772953183,9.501173458685814" style="fill:none;stroke:black;stroke-width:1"/>
<polygon points="10.780520625313859,9.596886609090921 9.614827586206896,9.508620689655173 10.630988847429737,9.618759069384476" style="fill:none;stroke:black;stroke-width:1"/>
<polygon points="9.115156011583537,8.855701291771124 9.148844897951069,8.648919464200059 9.250931549527825,9.259365314626885" style="fill:none;stroke:black;stroke-width:1"/>
<polygon points="9.148844897951069,8.648919464200059 9.40922496240881,9.410897553102672 9.250931549527825,9.259365314626885" style="fill:none;stroke:black;stroke-width:1"/>
<polygon points="9.40922496240881,9.410897553102672 9.148844897951069,8.648919464200059 9.240774645519188,8.468424489923365" style="fill:none;stroke:black;stroke-width:1"/>
<polygon points="9.148844897951069,8.648919464200059 9.115156011583537,8.855701291771124 17.2744144732976,4.016902534741901" style="fill:none;stroke:black;stroke-width:1"/>
<polygon points="16.681012788493245,4.256307152258924 9.148844897951069,8.648919464200059 17.2744144732976,4.016902534741901" style="fill:none;stroke:black;stroke-width:1"/>
<polygon points="9.240774645519188,8.468424489923365 9.148844897951069,8.648919464200059 16.681012788493245,4.256307152258924" style="fill:none;stroke:black;stroke-width:1"/>
<polygon points="19.07257380188786,20.67362922754514 15.4161532737979,20.661356992340302 18.982911882901252,8.63068579612982" style="fill:none;stroke:black;stroke-width:1"/>
<polygon points="20.390683477649546,14.853606359584546 15.465015728294228,25.527038724184084 18.982911882901252,8.63068579612982" style="fill:none;stroke:black;stroke-width:1"/>
<polygon points="15.465015728294228,25.527038724184084 12.016018005322174,24.14765282443003 18.982911882901252,8.63068579612982" style="fill:none;stroke:black;stroke-width:1"/>
<polygon points="20.56412549190947,22.89055960433396 20.73086708906037,22.970020181293588 16.88354822027049,12.523700532776033" style="fill:none;stroke:black;stroke-width:1"/>
<polygon points="20.316913399455707,22.62954603451498 20.424197486184653,22.77482733007409 16.88354822027049,12.523700532776033" style="fill:none;stroke:black;stroke-width:1"/>
<polygon points="20.424197486184653,22.77482733007409 20.56412549190947,22.89055960433396 16.88354822027049,12.523700532776033" style="fill:none;stroke:black;stroke-width:1"/>
<polygon points="20.56412549190947,22.89055960433396 20.424197486184653,22.77482733007409 20.299360282168166,21.92734384617917" style="fill:none;stroke:black;stroke-width:1"/>
<polygon points="20.24406947062915,22.096894491340763 16.15163239014702,11.013862038771725 20.299360282168166,21.92734384617917" style="fill:none;stroke:black;stroke-width:1"/>
<polygon points="20.24406947062915,22.096894491340763 20.22330388540918,22.27919264685888 16.15163239014702,11.013862038771725" style="fill:none;stroke:black;stroke-width:1"/>
<polygon points="20.22330388540918,22.27919264685888 20.24406947062915,22.096894491340763 20.316913399455707,22.62954603451498" style="fill:none;stroke:black;stroke-width:1"/>
<polygon points="20.424197486184653,22.77482733007409 20.24406947062915,22.096894491340763 20.299360282168166,21.92734384617917" style="fill:none;stroke:black;stroke-width:1"/>
<polygon points="20.24406947062915,22.096894491340763 20.424197486184653,22.77482733007409 20.316913399455707,22.62954603451498" style="fill:none;stroke:black;stroke-width:1"/>
<polygon points="20.248103559292403,22.461438393657644 20.316913399455707,22.62954603451498 16.15163239014702,11.013862038771725" style="fill:none;stroke:black;stroke-width:1"/>
<polygon points="20.22330388540918,22.27919264685888 20.248103559292403,22.461438393657644 16.15163239014702,11.013862038771725" style="fill:none;stroke:black;stroke-width:1"/>
<polygon points="20.248103559292403,22.461438393657644 20.22330388540918,22.27919264685888 20.316913399455707,22.62954603451498" style="fill:none;stroke:black;stroke-width:1"/>
<polygon points="21.37931296087791,20.550298149123314 22.160374761787498,22.348910984269416 21.254893357968328,20.647841709438865" style="fill:none;stroke:black;stroke-width:1"/>
<polygon points="21.52288078406812,20.467162345909177 21.37931296087791,20.550298149123314 8.082833618817254,13.230704522477815" style="fill:none;stroke:black;stroke-width:1"/>
<polygon points="22.247910747457468,22.239876117691573 21.37931296087791,20.550298149123314 21.52288078406812,20.467162345909177" style="fill:none;stroke:black;stroke-width:1"/>
<polygon points="22.160374761787498,22.348910984269416 21.37931296087791,20.550298149123314 22.247910747457468,22.239876117691573" style="fill:none;stroke:black;stroke-width:1"/>
<polygon points="22.422982718797417,22.021806384535882 21.85469975260476,20.353685014799364 22.51051870446739,21.912771517958035" style="fill:none;stroke:black;stroke-width:1"/>
<polygon points="21.682406492867543,20.400827050800004 21.85469975260476,20.353685014799364 22.422982718797417,22.021806384535882" style="fill:none;stroke:black;stroke-width:1"/>
<polygon points="7.480225306137826,20.558629567080732 21.85469975260476,20.353685014799364 7.089288863070699,16.799166430361716" style="fill:none;stroke:black;stroke-width:1"/>
<polygon points="21.85469975260476,20.353685014799364 21.682406492867543,20.400827050800004 7.089288863070699,16.799166430361716" style="fill:none;stroke:black;stroke-width:1"/>
<polygon points="9.212226001732228,23.801363517807665 11.986796141890427,26.178379297805346 22.4056986983087,20.35537406377036" style="fill:none;stroke:black;stroke-width:1"/>
<polygon points="11.986796141890427,26.178379297805346 15.511992434762124,27.398348158324147 22.4056986983087,20.35537406377036" style="fill:none;stroke:black;stroke-width:1"/>
<polygon points="22.57261349986548,20.43456854467253 19.41094145582148,27.195618994343214 22.76849699410959,25.63075705147143" style="fill:none;stroke:black;stroke-width:1"/>
<polygon points="15.511992434762124,27.398348158324147 19.41094145582148,27.195618994343214 22.57261349986548,20.43456854467253" style="fill:none;stroke:black;stroke-width:1"/>
<polygon points="21.37931296087791,20.550298149123314 10.24778726451413,10.375082867496097 8.082833618817254,13.230704522477815" style="fill:none;stroke:black;stroke-width:1"/>
<polygon points="10.24778726451413,10.375082867496097 21.37931296087791,20.550298149123314 21.254893357968328,20.647841709438865" style="fill:none;stroke:black;stroke-width:1"/>
<polygon points="21.152812310010788,20.757400275852255 10.24778726451413,10.375082867496097 21.254893357968328,20.647841709438865" style="fill:none;stroke:black;stroke-width:1"/>
<polygon points="13.349030592156044,8.522835271441291 10.24778726451413,10.375082867496097 21.152812310010788,20.757400275852255" style="fill:none;stroke:black;stroke-width:1"/>
<polygon points="21.61635842373625,22.861300624725164 21.45778720464817,22.92836763296897 20.802639221897664,21.19361878694352" style="fill:none;stroke:black;stroke-width:1"/>
<polygon points="20.89017520756764,21.084583920365674 21.61635842373625,22.861300624725164 20.802639221897664,21.19361878694352" style="fill:none;stroke:black;stroke-width:1"/>
<polygon points="21.61635842373625,22.861300624725164 20.89017520756764,21.084583920365674 21.759075139921514,22.777143698450942" style="fill:none;stroke:black;stroke-width:1"/>
<polygon points="21.61635842373625,22.861300624725164 21.759075139921514,22.777143698450942 18.290089881303967,12.969215943025457" style="fill:none;stroke:black;stroke-width:1"/>
<polygon points="21.45778720464817,22.92836763296897 21.61635842373625,22.861300624725164 18.290089881303967,12.969215943025457" style="fill:none;stroke:black;stroke-width:1"/>
<polygon points="13.121629443617264,23.175967776758178 16.415737612993205,8.738377281991982 16.238992852263333,8.353843702427953" style="fill:none;stroke:black;stroke-width:1"/>
<polygon points="13.108909921386367,23.249554610042562 13.121629443617264,23.175967776758178 16.238992852263333,8.353843702427953" style="fill:none;stroke:black;stroke-width:1"/>
<polygon points="11.569516560882468,23.456775134788316 11.516351732698729,23.501016343346986 16.15163239014702,11.013862038771725" style="fill:none;stroke:black;stroke-width:1"/>
<polygon points="11.525564331472822,7.812652305832978 11.374351998696415,7.7392437171792325 19.16475384297438,5.261182667125036" style="fill:none;stroke:black;stroke-width:1"/>
<polygon points="11.674234563802244,7.915190760985485 11.525564331472822,7.812652305832978 19.16475384297438,5.261182667125036" style="fill:none;stroke:black;stroke-width:1"/>
<polygon points="11.941862135542511,8.210197204046949 11.81554712133972,8.048416667946949 19.16475384297438,5.261182667125036" style="fill:none;stroke:black;stroke-width:1"/>
<polygon points="12.041690335943319,8.3944582229842 11.941862135542511,8.210197204046949 19.16475384297438,5.261182667125036" style="fill:none;stroke:black;stroke-width:1"/>
<polygon points="10.840052743054889,7.702893170011137 10.900294828078156,9.565979584770751 10.729016870116803,7.731600168929252" style="fill:none;stroke:black;stroke-width:1"/>
<polygon points="10.900294828078156,9.565979584770751 10.780520625313859,9.596886609090921 10.729016870116803,7.731600168929252" style="fill:none;stroke:black;stroke-width:1"/>
<polygon points="10.900294828078156,9.565979584770751 10.840052743054889,7.702893170011137 10.953620353572182,7.678221269600591" style="fill:none;stroke:black;stroke-width:1"/>
<polygon points="10.780520625313859,9.596886609090921 10.900294828078156,9.565979584770751 11.444451772953183,9.501173458685814" style="fill:none;stroke:black;stroke-width:1"/>
<polygon points="9.835707268759766,9.562374240658784 9.822341109354353,8.07784577427954 10.052463475795506,9.60061650231585" style="fill:none;stroke:black;stroke-width:1"/>
<polygon points="9.822341109354353,8.07784577427954 9.835707268759766,9.562374240658784 9.677071448185378,8.15139297996808" style="fill:none;stroke:black;stroke-width:1"/>
<polygon points="10.456164311626704,9.62743318860836 9.835707268759766,9.562374240658784 10.052463475795506,9.60061650231585" style="fill:none;stroke:black;stroke-width:1"/>
<polygon points="10.630988847429737,9.618759069384476 9.835707268759766,9.562374240658784 10.456164311626704,9.62743318860836" style="fill:none;stroke:black;stroke-width:1"/>
<polygon points="9.614827586206896,9.508620689655173 9.835707268759766,9.562374240658784 10.630988847429737,9.618759069384476" style="fill:none;stroke:black;stroke-width:1"/>
<polygon points="9.677071448185378,8.15139297996808 9.528551819707657,8.231792794800034 16.681012788493245,4.256307152258924" style="fill:none;stroke:black;stroke-width:1"/>
<polygon points="9.835707268759766,9.562374240658784 9.528551819707657,8.231792794800034 9.677071448185378,8.15139297996808" style="fill:none;stroke:black;stroke-width:1"/>
<polygon points="9.528551819707657,8.231792794800034 9.835707268759766,9.562374240658784 9.614827586206896,9.508620689655173" style="fill:none;stroke:black;stroke-width:1"/>
<polygon points="14.312410627746875,9.046426515951568 21.21459170740881,17.88710647262165 18.982911882901252,8.63068579612982" style="fill:none;stroke:black;stroke-width:1"/>
<polygon points="21.21459170740881,17.88710647262165 19.07257380188786,20.67362922754514 18.982911882901252,8.63068579612982" style="fill:none;stroke:black;stroke-width:1"/>
<polygon points="17.419019193190184,13.01317086198786 20.390683477649546,14.853606359584546 18.982911882901252,8.63068579612982" style="fill:none;stroke:black;stroke-width:1"/>
<polygon points="14.136816235831137,14.33915387713757 17.419019193190184,13.01317086198786 18.982911882901252,8.63068579612982" style="fill:none;stroke:black;stroke-width:1"/>
<polygon points="15.4161532737979,20.661356992340302 13.226340046922697,17.819544311550693 18.982911882901252,8.63068579612982" style="fill:none;stroke:black;stroke-width:1"/>
<polygon points="13.226340046922697,17.819544311550693 14.136816235831137,14.33915387713757 18.982911882901252,8.63068579612982" style="fill:none;stroke:black;stroke-width:1"/>
<polygon points="10.946813307575848,17.616477874210986 12.609547462203246,19.912019794279882 17.68085318550283,8.26180093001297" style="fill:none;stroke:black;stroke-width:1"/>
<polygon points="8.188962317411793,18.092368524599728 10.946813307575848,17.616477874210986 17.68085318550283,8.26180093001297" style="fill:none;stroke:black;stroke-width:1"/>
<polygon points="12.016018005322174,24.14765282443003 9.46985567983149,21.548627951056663 17.68085318550283,8.26180093001297" style="fill:none;stroke:black;stroke-width:1"/>
<polygon points="9.46985567983149,21.548627951056663 8.188962317411793,18.092368524599728 17.68085318550283,8.26180093001297" style="fill:none;stroke:black;stroke-width:1"/>
<polygon points="21.104725784953484,23.001805373354443 20.918710512278107,23.005862068965513 20.540031264887748,21.520723386677055" style="fill:none;stroke:black;stroke-width:1"/>
<polygon points="20.918710512278107,23.005862068965513 20.45157833074139,21.636319613539484 20.540031264887748,21.520723386677055" style="fill:none;stroke:black;stroke-width:1"/>
<polygon points="20.918710512278107,23.005862068965513 21.104725784953484,23.001805373354443 16.88354822027049,12.523700532776033" style="fill:none;stroke:black;stroke-width:1"/>
<polygon points="20.73086708906037,22.970020181293588 20.918710512278107,23.005862068965513 16.88354822027049,12.523700532776033" style="fill:none;stroke:black;stroke-width:1"/>
<polygon points="20.918710512278107,23.005862068965513 20.73086708906037,22.970020181293588 20.56412549190947,22.89055960433396" style="fill:none;stroke:black;stroke-width:1"/>
<polygon points="21.85469975260476,20.353685014799364 22.036570228608348,20.32812898891082 22.51051870446739,21.912771517958035" style="fill:none;stroke:black;stroke-width:1"/>
<polygon points="22.59805469013736,21.80373665138019 22.036570228608348,20.32812898891082 22.2248275862069,20.32655172413793" style="fill:none;stroke:black;stroke-width:1"/>
<polygon points="22.036570228608348,20.32812898891082 22.59805469013736,21.80373665138019 22.51051870446739,21.912771517958035" style="fill:none;stroke:black;stroke-width:1"/>
<polygon points="22.036570228608348,20.32812898891082 7.480225306137826,20.558629567080732 22.2248275862069,20.32655172413793" style="fill:none;stroke:black;stroke-width:1"/>
<polygon points="22.036570228608348,20.32812898891082 21.85469975260476,20.353685014799364 7.480225306137826,20.558629567080732" style="fill:none;stroke:black;stroke-width:1"/>
<polygon points="13.080540924519122,23.314387034363868 13.108909921386367,23.249554610042562 16.238992852263333,8.353843702427953" style="fill:none;stroke:black;stroke-width:1"/>
<polygon points="17.70483462237691,8.67329180427837 12.932324484846612,23.451695529374625 16.238992852263333,8.353843702427953" style="fill:none;stroke:black;stroke-width:1"/>
<polygon points="12.932324484846612,23.451695529374625 12.98548931303035,23.407454320815955 16.238992852263333,8.353843702427953" style="fill:none;stroke:black;stroke-width:1"/>
<polygon points="12.910238764635327,22.79571891594329 12.813532036146315,22.751071662160598 16.415737612993205,8.738377281991982" style="fill:none;stroke:black;stroke-width:1"/>
<polygon points="12.813532036146315,22.751071662160598 12.706617818447175,22.72612891846849 16.415737612993205,8.738377281991982" style="fill:none;stroke:black;stroke-width:1"/>
<polygon points="12.593396320849337,22.72215213301688 12.477673809664047,22.74035110835428 16.415737612993205,8.738377281991982" style="fill:none;stroke:black;stroke-width:1"/>
<polygon points="12.706617818447175,22.72612891846849 12.593396320849337,22.72215213301688 16.415737612993205,8.738377281991982" style="fill:none;stroke:black;stroke-width:1"/>
<polygon points="11.685277206989875,23.3502518202434 11.625575696728362,23.406383209361163 16.15163239014702,11.013862038771725" style="fill:none;stroke:black;stroke-width:1"/>
<polygon points="11.625575696728362,23.406383209361163 11.569516560882468,23.456775134788316 16.15163239014702,11.013862038771725" style="fill:none;stroke:black;stroke-width:1"/>
<polygon points="20.918710512278107,23.005862068965513 20.36981610975372,21.772798356274116 20.45157833074139,21.636319613539484" style="fill:none;stroke:black;stroke-width:1"/>
<polygon points="20.36981610975372,21.772798356274116 20.56412549190947,22.89055960433396 20.299360282168166,21.92734384617917" style="fill:none;stroke:black;stroke-width:1"/>
<polygon points="20.36981610975372,21.772798356274116 20.918710512278107,23.005862068965513 20.56412549190947,22.89055960433396" style="fill:none;stroke:black;stroke-width:1"/>
<polygon points="11.516351732698729,23.501016343346986 11.464222914967774,23.541663693503363 20.299360282168166,21.92734384617917" style="fill:none;stroke:black;stroke-width:1"/>
<polygon points="11.464222914967774,23.541663693503363 20.36981610975372,21.772798356274116 20.299360282168166,21.92734384617917" style="fill:none;stroke:black;stroke-width:1"/>
<polygon points="20.36981610975372,21.772798356274116 11.464222914967774,23.541663693503363 11.421605672849442,23.59478987062713" style="fill:none;stroke:black;stroke-width:1"/>
<polygon points="11.408114114879892,23.894615283709644 20.62756725055772,21.41168852009921 20.540031264887748,21.520723386677055" style="fill:none;stroke:black;stroke-width:1"/>
<polygon points="11.083564214157406,7.673585787124037 11.005417263746008,9.542110785101059 10.953620353572182,7.678221269600591" style="fill:none;stroke:black;stroke-width:1"/>
<polygon points="11.005417263746008,9.542110785101059 10.900294828078156,9.565979584770751 10.953620353572182,7.678221269600591" style="fill:none;stroke:black;stroke-width:1"/>
<polygon points="10.900294828078156,9.565979584770751 11.005417263746008,9.542110785101059 11.444451772953183,9.501173458685814" style="fill:none;stroke:black;stroke-width:1"/>
<polygon points="9.378370704988178,8.327076845549161 9.614827586206896,9.508620689655173 9.240774645519188,8.468424489923365" style="fill:none;stroke:black;stroke-width:1"/>
<polygon points="9.378370704988178,8.327076845549161 9.528551819707657,8.231792794800034 9.614827586206896,9.508620689655173" style="fill:none;stroke:black;stroke-width:1"/>
<polygon points="9.378370704988178,8.327076845549161 9.240774645519188,8.468424489923365 16.681012788493245,4.256307152258924" style="fill:none;stroke:black;stroke-width:1"/>
<polygon points="9.528551819707657,8.231792794800034 9.378370704988178,8.327076845549161 16.681012788493245,4.256307152258924" style="fill:none;stroke:black;stroke-width:1"/>
<polygon points="12.98548931303035,23.407454320815955 13.037631756452807,23.367055694565465 16.238992852263333,8.353843702427953" style="fill:none;stroke:black;stroke-width:1"/>
<polygon points="13.037631756452807,23.367055694565465 13.080540924519122,23.314387034363868 16.238992852263333,8.353843702427953" style="fill:none;stroke:black;stroke-width:1"/>
<polygon points="12.876265349000716,23.502087454801778 17.70483462237691,8.67329180427837 12.816563838739206,23.558218843919544" style="fill:none;stroke:black;stroke-width:1"/>
<polygon points="12.876265349000716,23.502087454801778 12.932324484846612,23.451695529374625 17.70483462237691,8.67329180427837" style="fill:none;stroke:black;stroke-width:1"/>
<polygon points="12.992751065281436,22.858746219126274 12.910238764635327,22.79571891594329 16.415737612993205,8.738377281991982" style="fill:none;stroke:black;stroke-width:1"/>
<polygon points="13.054617335325275,22.935181282421468 12.992751065281436,22.858746219126274 16.415737612993205,8.738377281991982" style="fill:none;stroke:black;stroke-width:1"/>
<polygon points="13.09563583710586,23.015635032273558 13.054617335325275,22.935181282421468 16.415737612993205,8.738377281991982" style="fill:none;stroke:black;stroke-width:1"/>
<polygon points="11.818301514113385,23.222860324322156 11.74931171600008,23.28888273538388 16.08258726411472,9.796531946573197" style="fill:none;stroke:black;stroke-width:1"/>
<polygon points="11.892790743814885,23.152842342331752 11.818301514113385,23.222860324322156 16.08258726411472,9.796531946573197" style="fill:none;stroke:black;stroke-width:1"/>
<polygon points="12.060003207637312,23.003754382421906 11.97323681826834,23.079549557226567 16.08258726411472,9.796531946573197" style="fill:none;stroke:black;stroke-width:1"/>
<polygon points="11.97323681826834,23.079549557226567 11.892790743814885,23.152842342331752 16.08258726411472,9.796531946573197" style="fill:none;stroke:black;stroke-width:1"/>
<polygon points="12.477673809664047,22.74035110835428 12.363156876060764,22.781896182848783 16.08258726411472,9.796531946573197" style="fill:none;stroke:black;stroke-width:1"/>
<polygon points="12.363156876060764,22.781896182848783 12.25344827586207,22.84793103448276 16.08258726411472,9.796531946573197" style="fill:none;stroke:black;stroke-width:1"/>
<polygon points="12.153353706943587,22.926268695513485 12.060003207637312,23.003754382421906 16.08258726411472,9.796531946573197" style="fill:none;stroke:black;stroke-width:1"/>
<polygon points="12.25344827586207,22.84793103448276 12.153353706943587,22.926268695513485 16.08258726411472,9.796531946573197" style="fill:none;stroke:black;stroke-width:1"/>
<polygon points="20.45157833074139,21.636319613539484 11.385700309286348,23.813166563867817 20.540031264887748,21.520723386677055" style="fill:none;stroke:black;stroke-width:1"/>
<polygon points="11.385700309286348,23.813166563867817 11.408114114879892,23.894615283709644 20.540031264887748,21.520723386677055" style="fill:none;stroke:black;stroke-width:1"/>
<polygon points="20.62756725055772,21.41168852009921 11.449642368021086,23.975148222135658 20.715103236227694,21.302653653521368" style="fill:none;stroke:black;stroke-width:1"/>
<polygon points="11.408114114879892,23.894615283709644 11.449642368021086,23.975148222135658 20.62756725055772,21.41168852009921" style="fill:none;stroke:black;stroke-width:1"/>
<polygon points="20.715103236227694,21.302653653521368 11.449642368021086,23.975148222135658 20.802639221897664,21.19361878694352" style="fill:none;stroke:black;stroke-width:1"/>
<polygon points="11.102248713107361,9.524122281119602 11.083564214157406,7.673585787124037 11.225413361061714,7.693407406963252" style="fill:none;stroke:black;stroke-width:1"/>
<polygon points="11.102248713107361,9.524122281119602 11.005417263746008,9.542110785101059 11.083564214157406,7.673585787124037" style="fill:none;stroke:black;stroke-width:1"/>
<polygon points="11.102248713107361,9.524122281119602 11.225413361061714,7.693407406963252 11.374351998696415,7.7392437171792325" style="fill:none;stroke:black;stroke-width:1"/>
<polygon points="11.005417263746008,9.542110785101059 11.102248713107361,9.524122281119602 11.444451772953183,9.501173458685814" style="fill:none;stroke:black;stroke-width:1"/>
<polygon points="13.121629443617264,23.175967776758178 13.117583456421322,23.09692889787181 16.415737612993205,8.738377281991982" style="fill:none;stroke:black;stroke-width:1"/>
<polygon points="13.117583456421322,23.09692889787181 13.09563583710586,23.015635032273558 16.415737612993205,8.738377281991982" style="fill:none;stroke:black;stroke-width:1"/>
<polygon points="20.36981610975372,21.772798356274116 11.393572167012707,23.660004146200958 20.45157833074139,21.636319613539484" style="fill:none;stroke:black;stroke-width:1"/>
<polygon points="11.393572167012707,23.660004146200958 20.36981610975372,21.772798356274116 11.421605672849442,23.59478987062713" style="fill:none;stroke:black;stroke-width:1"/>
<polygon points="11.511654635623643,24.05200333054505 20.89017520756764,21.084583920365674 20.802639221897664,21.19361878694352" style="fill:none;stroke:black;stroke-width:1"/>
<polygon points="11.449642368021086,23.975148222135658 11.511654635623643,24.05200333054505 20.802639221897664,21.19361878694352" style="fill:none;stroke:black;stroke-width:1"/>
<polygon points="20.89017520756764,21.084583920365674 11.511654635623643,24.05200333054505 20.97771119323761,20.97554905378783" style="fill:none;stroke:black;stroke-width:1"/>
<polygon points="11.525564331472822,7.812652305832978 11.190286622094685,9.51140805174495 11.374351998696415,7.7392437171792325" style="fill:none;stroke:black;stroke-width:1"/>
<polygon points="11.190286622094685,9.51140805174495 11.102248713107361,9.524122281119602 11.374351998696415,7.7392437171792325" style="fill:none;stroke:black;stroke-width:1"/>
<polygon points="11.102248713107361,9.524122281119602 11.190286622094685,9.51140805174495 11.444451772953183,9.501173458685814" style="fill:none;stroke:black;stroke-width:1"/>
<polygon points="11.381231700894844,23.733897165068225 11.385700309286348,23.813166563867817 20.45157833074139,21.636319613539484" style="fill:none;stroke:black;stroke-width:1"/>
<polygon points="11.393572167012707,23.660004146200958 11.381231700894844,23.733897165068225 20.45157833074139,21.636319613539484" style="fill:none;stroke:black;stroke-width:1"/>
<polygon points="11.592891128055786,24.116100520333717 21.152812310010788,20.757400275852255 21.065247178907583,20.866514187209983" style="fill:none;stroke:black;stroke-width:1"/>
<polygon points="21.152812310010788,20.757400275852255 11.592891128055786,24.116100520333717 11.68855405711296,24.161042857039178" style="fill:none;stroke:black;stroke-width:1"/>
<polygon points="20.97771119323761,20.97554905378783 11.592891128055786,24.116100520333717 21.065247178907583,20.866514187209983" style="fill:none;stroke:black;stroke-width:1"/>
<polygon points="11.511654635623643,24.05200333054505 11.592891128055786,24.116100520333717 20.97771119323761,20.97554905378783" style="fill:none;stroke:black;stroke-width:1"/>
<polygon points="11.269028436640461,9.503362075895678 11.525564331472822,7.812652305832978 11.674234563802244,7.915190760985485" style="fill:none;stroke:black;stroke-width:1"/>
<polygon points="11.269028436640461,9.503362075895678 11.190286622094685,9.51140805174495 11.525564331472822,7.812652305832978" style="fill:none;stroke:black;stroke-width:1"/>
<polygon points="11.269028436640461,9.503362075895678 11.674234563802244,7.915190760985485 11.81554712133972,8.048416667946949" style="fill:none;stroke:black;stroke-width:1"/>
<polygon points="11.190286622094685,9.51140805174495 11.396613566137237,9.49885080044754 11.444451772953183,9.501173458685814" style="fill:none;stroke:black;stroke-width:1"/>
<polygon points="11.269028436640461,9.503362075895678 11.396613566137237,9.49885080044754 11.190286622094685,9.51140805174495" style="fill:none;stroke:black;stroke-width:1"/>
<polygon points="11.396613566137237,9.49885080044754 12.041690335943319,8.3944582229842 11.444451772953183,9.501173458685814" style="fill:none;stroke:black;stroke-width:1"/>
<polygon points="11.396613566137237,9.49885080044754 11.941862135542511,8.210197204046949 12.041690335943319,8.3944582229842" style="fill:none;stroke:black;stroke-width:1"/>
<polygon points="11.941862135542511,8.210197204046949 11.337971602677152,9.499378332490352 11.81554712133972,8.048416667946949" style="fill:none;stroke:black;stroke-width:1"/>
<polygon points="11.396613566137237,9.49885080044754 11.337971602677152,9.499378332490352 11.941862135542511,8.210197204046949" style="fill:none;stroke:black;stroke-width:1"/>
<polygon points="11.337971602677152,9.499378332490352 11.269028436640461,9.503362075895678 11.81554712133972,8.048416667946949" style="fill:none;stroke:black;stroke-width:1"/>
<polygon points="11.337971602677152,9.499378332490352 11.396613566137237,9.49885080044754 11.269028436640461,9.503362075895678" style="fill:none;stroke:black;stroke-width:1"/>
<polygon points="12.441837838091766,23.90471628174103 22.994680181903902,23.015711183690637 12.348487338785493,23.982201968649452" style="fill:none;stroke:black;stroke-width:1"/>
<polygon points="12.348487338785493,23.982201968649452 22.994680181903902,23.015711183690637 20.09189640115785,25.23115873548485" style="fill:none;stroke:black;stroke-width:1"/>
<polygon points="12.024203970665674,24.16972868631249 23.582179544131666,10.937597738963682 20.693111398793633,8.845800248123567" style="fill:none;stroke:black;stroke-width:1"/>
<polygon points="12.024203970665674,24.16972868631249 20.693111398793633,8.845800248123567 11.90791061296192,24.188919680498156" style="fill:none;stroke:black;stroke-width:1"/>
<polygon points="25.497809322859766,13.949228533403495 12.024203970665674,24.16972868631249 12.1402676947122,24.12712573320724" style="fill:none;stroke:black;stroke-width:1"/>
<polygon points="12.024203970665674,24.16972868631249 25.497809322859766,13.949228533403495 23.582179544131666,10.937597738963682" style="fill:none;stroke:black;stroke-width:1"/>
<polygon points="17.122165325062767,7.964278447320777 11.794809587429707,24.18567876485075 11.90791061296192,24.188919680498156" style="fill:none;stroke:black;stroke-width:1"/>
<polygon points="20.693111398793633,8.845800248123567 17.122165325062767,7.964278447320777 11.90791061296192,24.188919680498156" style="fill:none;stroke:black;stroke-width:1"/>
<polygon points="11.794809587429707,24.18567876485075 17.122165325062767,7.964278447320777 11.68855405711296,24.161042857039178" style="fill:none;stroke:black;stroke-width:1"/>
<polygon points="17.122165325062767,7.964278447320777 13.349030592156044,8.522835271441291 11.68855405711296,24.161042857039178" style="fill:none;stroke:black;stroke-width:1"/>
<polygon points="19.41094145582148,27.195618994343214 26.143793103448274,17.580344827586206 22.76849699410959,25.63075705147143" style="fill:none;stroke:black;stroke-width:1"/>
<polygon points="26.143793103448274,17.580344827586206 7.089288863070699,16.799166430361716 8.082833618817254,13.230704522477815" style="fill:none;stroke:black;stroke-width:1"/>
<polygon points="21.318821472344673,18.636297543392075 26.143793103448274,17.580344827586206 23.816574867789672,18.008171289811095" style="fill:none;stroke:black;stroke-width:1"/>
<polygon points="26.143793103448274,17.580344827586206 7.480225306137826,20.558629567080732 7.089288863070699,16.799166430361716" style="fill:none;stroke:black;stroke-width:1"/>
<polygon points="26.143793103448274,17.580344827586206 20.98189991739358,14.164669453005665 22.70652338906664,17.36796499955819" style="fill:none;stroke:black;stroke-width:1"/>
<polygon points="26.143793103448274,17.580344827586206 24.942659309189466,13.712613297570254 22.615593687007,10.958175791025496" style="fill:none;stroke:black;stroke-width:1"/>
<polygon points="26.143793103448274,17.580344827586206 14.312410627746875,9.046426515951568 11.273838353554243,11.033816652079029" style="fill:none;stroke:black;stroke-width:1"/>
<polygon points="19.315436165772116,9.35840379390969 26.143793103448274,17.580344827586206 22.615593687007,10.958175791025496" style="fill:none;stroke:black;stroke-width:1"/>
<polygon points="26.143793103448274,17.580344827586206 17.122165325062767,7.964278447320777 20.693111398793633,8.845800248123567" style="fill:none;stroke:black;stroke-width:1"/>
<polygon points="25.637565507240083,16.847927995571546 26.143793103448274,17.580344827586206 22.70652338906664,17.36796499955819" style="fill:none;stroke:black;stroke-width:1"/>
<polygon points="17.75604197913286,12.53470650429686 26.143793103448274,17.580344827586206 14.271675099077523,13.542492920416532" style="fill:none;stroke:black;stroke-width:1"/>
<polygon points="9.285781849023765,14.09720297716971 26.143793103448274,17.580344827586206 11.273838353554243,11.033816652079029" style="fill:none;stroke:black;stroke-width:1"/>
<polygon points="26.143793103448274,17.580344827586206 12.444930322764712,16.580922058783155 14.271675099077523,13.542492920416532" style="fill:none;stroke:black;stroke-width:1"/>
<polygon points="26.143793103448274,17.580344827586206 15.465015728294228,25.527038724184084 20.390683477649546,14.853606359584546" style="fill:none;stroke:black;stroke-width:1"/>
<polygon points="26.143793103448274,17.580344827586206 11.986796141890427,26.178379297805346 9.212226001732228,23.801363517807665" style="fill:none;stroke:black;stroke-width:1"/>
<polygon points="26.143793103448274,17.580344827586206 15.538882388791102,21.935740452646304 12.609547462203246,19.912019794279882" style="fill:none;stroke:black;stroke-width:1"/>
<polygon points="26.143793103448274,17.580344827586206 24.785839905473583,19.794016484362366 23.816574867789672,18.008171289811095" style="fill:none;stroke:black;stroke-width:1"/>
<polygon points="22.994680181903902,23.015711183690637 26.143793103448274,17.580344827586206 20.09189640115785,25.23115873548485" style="fill:none;stroke:black;stroke-width:1"/>
<polygon points="26.143793103448274,17.580344827586206 25.24371464877975,22.989360718946685 22.76849699410959,25.63075705147143" style="fill:none;stroke:black;stroke-width:1"/>
<polygon points="20.98189991739358,14.164669453005665 26.143793103448274,17.580344827586206 17.75604197913286,12.53470650429686" style="fill:none;stroke:black;stroke-width:1"/>
<polygon points="26.143793103448274,17.580344827586206 9.285781849023765,14.09720297716971 9.388713940422702,16.809052996323544" style="fill:none;stroke:black;stroke-width:1"/>
<polygon points="12.444930322764712,16.580922058783155 26.143793103448274,17.580344827586206 9.388713940422702,16.809052996323544" style="fill:none;stroke:black;stroke-width:1"/>
<polygon points="10.24778726451413,10.375082867496097 26.143793103448274,17.580344827586206 8.082833618817254,13.230704522477815" style="fill:none;stroke:black;stroke-width:1"/>
<polygon points="26.143793103448274,17.580344827586206 21.21459170740881,17.88710647262165 14.312410627746875,9.046426515951568" style="fill:none;stroke:black;stroke-width:1"/>
<polygon points="7.480225306137826,20.558629567080732 26.143793103448274,17.580344827586206 9.212226001732228,23.801363517807665" style="fill:none;stroke:black;stroke-width:1"/>
<polygon points="26.143793103448274,17.580344827586206 13.226340046922697,17.819544311550693 15.4161532737979,20.661356992340302" style="fill:none;stroke:black;stroke-width:1"/>
<polygon points="23.582179544131666,10.937597738963682 26.143793103448274,17.580344827586206 20.693111398793633,8.845800248123567" style="fill:none;stroke:black;stroke-width:1"/>
<polygon points="25.497809322859766,13.949228533403495 26.143793103448274,17.580344827586206 23.582179544131666,10.937597738963682" style="fill:none;stroke:black;stroke-width:1"/>
<polygon points="15.538882388791102,21.935740452646304 26.143793103448274,17.580344827586206 19.132686419575226,21.396665957672752" style="fill:none;stroke:black;stroke-width:1"/>
<polygon points="26.143793103448274,17.580344827586206 21.318821472344673,18.636297543392075 19.132686419575226,21.396665957672752" style="fill:none;stroke:black;stroke-width:1"/>
<polygon points="26.143793103448274,17.580344827586206 22.994680181903902,23.015711183690637 24.785839905473583,19.794016484362366" style="fill:none;stroke:black;stroke-width:1"/>
<polygon points="24.942659309189466,13.712613297570254 26.143793103448274,17.580344827586206 25.637565507240083,16.847927995571546" style="fill:none;stroke:black;stroke-width:1"/>
<polygon points="25.24371464877975,22.989360718946685 26.143793103448274,17.580344827586206 26.60002608210508,19.56159172952067" style="fill:none;stroke:black;stroke-width:1"/>
<polygon points="26.143793103448274,17.580344827586206 19.315436165772116,9.35840379390969 26.60002608210508,19.56159172952067" style="fill:none;stroke:black;stroke-width:1"/>
<polygon points="19.07257380188786,20.67362922754514 26.143793103448274,17.580344827586206 15.4161532737979,20.661356992340302" style="fill:none;stroke:black;stroke-width:1"/>
<polygon points="17.419019193190184,13.01317086198786 26.143793103448274,17.580344827586206 20.390683477649546,14.853606359584546" style="fill:none;stroke:black;stroke-width:1"/>
<polygon points="15.465015728294228,25.527038724184084 26.143793103448274,17.580344827586206 12.016018005322174,24.14765282443003" style="fill:none;stroke:black;stroke-width:1"/>
<polygon points="10.946813307575848,17.616477874210986 26.143793103448274,17.580344827586206 12.609547462203246,19.912019794279882" style="fill:none;stroke:black;stroke-width:1"/>
<polygon points="11.986796141890427,26.178379297805346 26.143793103448274,17.580344827586206 15.511992434762124,27.398348158324147" style="fill:none;stroke:black;stroke-width:1"/>
<polygon points="26.143793103448274,17.580344827586206 19.41094145582148,27.195618994343214 15.511992434762124,27.398348158324147" style="fill:none;stroke:black;stroke-width:1"/>
<polygon points="26.143793103448274,17.580344827586206 9.46985567983149,21.548627951056663 12.016018005322174,24.14765282443003" style="fill:none;stroke:black;stroke-width:1"/>
<polygon points="17.122165325062767,7.964278447320777 26.143793103448274,17.580344827586206 13.349030592156044,8.522835271441291" style="fill:none;stroke:black;stroke-width:1"/>
<polygon points="26.143793103448274,17.580344827586206 10.24778726451413,10.375082867496097 13.349030592156044,8.522835271441291" style="fill:none;stroke:black;stroke-width:1"/>
<polygon points="21.21459170740881,17.88710647262165 26.143793103448274,17.580344827586206 19.07257380188786,20.67362922754514" style="fill:none;stroke:black;stroke-width:1"/>
<polygon points="26.143793103448274,17.580344827586206 17.419019193190184,13.01317086198786 14.136816235831137,14.33915387713757" style="fill:none;stroke:black;stroke-width:1"/>
<polygon points="13.226340046922697,17.819544311550693 26.143793103448274,17.580344827586206 14.136816235831137,14.33915387713757" style="fill:none;stroke:black;stroke-width:1"/>
<polygon points="26.143793103448274,17.580344827586206 10.946813307575848,17.616477874210986 8.188962317411793,18.092368524599728" style="fill:none;stroke:black;stroke-width:1"/>
<polygon points="9.46985567983149,21.548627951056663 26.143793103448274,17.580344827586206 8.188962317411793,18.092368524599728" style="fill:none;stroke:black;stroke-width:1"/>
<polygon points="26.143793103448274,17.580344827586206 12.248626209898118,24.06080489748872 12.348487338785493,23.982201968649452" style="fill:none;stroke:black;stroke-width:1"/>
<polygon points="26.143793103448274,17.580344827586206 12.348487338785493,23.982201968649452 20.09189640115785,25.23115873548485" style="fill:none;stroke:black;stroke-width:1"/>
<polygon points="12.248626209898118,24.06080489748872 26.143793103448274,17.580344827586206 12.1402676947122,24.12712573320724" style="fill:none;stroke:black;stroke-width:1"/>
<polygon points="26.143793103448274,17.580344827586206 25.497809322859766,13.949228533403495 12.1402676947122,24.12712573320724" style="fill:none;stroke:black;stroke-width:1"/>
<polygon points="11.592891128055786,24.116100520333717 12.816563838739206,23.558218843919544 12.752529329728999,23.61958792877906" style="fill:none;stroke:black;stroke-width:1"/>
<polygon points="12.683539531615695,23.685610339840785 11.592891128055786,24.116100520333717 12.752529329728999,23.61958792877906" style="fill:none;stroke:black;stroke-width:1"/>
<polygon points="11.592891128055786,24.116100520333717 11.97323681826834,23.079549557226567 12.060003207637312,23.003754382421906" style="fill:none;stroke:black;stroke-width:1"/>
<polygon points="11.592891128055786,24.116100520333717 11.794809587429707,24.18567876485075 11.68855405711296,24.161042857039178" style="fill:none;stroke:black;stroke-width:1"/>
<polygon points="11.592891128055786,24.116100520333717 12.609050301914191,23.755628321831193 12.52860422746074,23.828921106936377" style="fill:none;stroke:black;stroke-width:1"/>
<polygon points="12.441837838091766,23.90471628174103 11.592891128055786,24.116100520333717 12.52860422746074,23.828921106936377" style="fill:none;stroke:black;stroke-width:1"/>
<polygon points="11.592891128055786,24.116100520333717 12.876265349000716,23.502087454801778 12.816563838739206,23.558218843919544" style="fill:none;stroke:black;stroke-width:1"/>
<polygon points="11.592891128055786,24.116100520333717 12.248626209898118,24.06080489748872 12.1402676947122,24.12712573320724" style="fill:none;stroke:black;stroke-width:1"/>
<polygon points="11.794809587429707,24.18567876485075 11.592891128055786,24.116100520333717 11.90791061296192,24.188919680498156" style="fill:none;stroke:black;stroke-width:1"/>
<polygon points="12.024203970665674,24.16972868631249 11.592891128055786,24.116100520333717 12.1402676947122,24.12712573320724" style="fill:none;stroke:black;stroke-width:1"/>
<polygon points="11.592891128055786,24.116100520333717 11.685277206989875,23.3502518202434 11.74931171600008,23.28888273538388" style="fill:none;stroke:black;stroke-width:1"/>
<polygon points="12.609050301914191,23.755628321831193 11.592891128055786,24.116100520333717 12.683539531615695,23.685610339840785" style="fill:none;stroke:black;stroke-width:1"/>
<polygon points="12.248626209898118,24.06080489748872 11.592891128055786,24.116100520333717 12.348487338785493,23.982201968649452" style="fill:none;stroke:black;stroke-width:1"/>
<polygon points="11.592891128055786,24.116100520333717 12.441837838091766,23.90471628174103 12.348487338785493,23.982201968649452" style="fill:none;stroke:black;stroke-width:1"/>
<polygon points="13.080540924519122,23.314387034363868 11.592891128055786,24.116100520333717 13.108909921386367,23.249554610042562" style="fill:none;stroke:black;stroke-width:1"/>
<polygon points="11.592891128055786,24.116100520333717 13.037631756452807,23.367055694565465 12.98548931303035,23.407454320815955" style="fill:none;stroke:black;stroke-width:1"/>
<polygon points="12.593396320849337,22.72215213301688 11.592891128055786,24.116100520333717 12.477673809664047,22.74035110835428" style="fill:none;stroke:black;stroke-width:1"/>
<polygon points="11.592891128055786,24.116100520333717 12.024203970665674,24.16972868631249 11.90791061296192,24.188919680498156" style="fill:none;stroke:black;stroke-width:1"/>
<polygon points="11.592891128055786,24.116100520333717 11.464222914967774,23.541663693503363 11.516351732698729,23.501016343346986" style="fill:none;stroke:black;stroke-width:1"/>
<polygon points="11.592891128055786,24.116100520333717 13.121629443617264,23.175967776758178 13.108909921386367,23.249554610042562" style="fill:none;stroke:black;stroke-width:1"/>
<polygon points="11.592891128055786,24.116100520333717 12.813532036146315,22.751071662160598 12.910238764635327,22.79571891594329" style="fill:none;stroke:black;stroke-width:1"/>
<polygon points="11.592891128055786,24.116100520333717 11.393572167012707,23.660004146200958 11.421605672849442,23.59478987062713" style="fill:none;stroke:black;stroke-width:1"/>
<polygon points="11.569516560882468,23.456775134788316 11.592891128055786,24.116100520333717 11.516351732698729,23.501016343346986" style="fill:none;stroke:black;stroke-width:1"/>
<polygon points="11.592891128055786,24.116100520333717 11.625575696728362,23.406383209361163 11.685277206989875,23.3502518202434" style="fill:none;stroke:black;stroke-width:1"/>
<polygon points="11.592891128055786,24.116100520333717 13.117583456421322,23.09692889787181 13.121629443617264,23.175967776758178" style="fill:none;stroke:black;stroke-width:1"/>
<polygon points="12.932324484846612,23.451695529374625 11.592891128055786,24.116100520333717 12.98548931303035,23.407454320815955" style="fill:none;stroke:black;stroke-width:1"/>
<polygon points="12.992751065281436,22.858746219126274 11.592891128055786,24.116100520333717 12.910238764635327,22.79571891594329" style="fill:none;stroke:black;stroke-width:1"/>
<polygon points="12.813532036146315,22.751071662160598 11.592891128055786,24.116100520333717 12.706617818447175,22.72612891846849" style="fill:none;stroke:black;stroke-width:1"/>
<polygon points="11.592891128055786,24.116100520333717 12.593396320849337,22.72215213301688 12.706617818447175,22.72612891846849" style="fill:none;stroke:black;stroke-width:1"/>
<polygon points="11.818301514113385,23.222860324322156 11.592891128055786,24.116100520333717 11.74931171600008,23.28888273538388" style="fill:none;stroke:black;stroke-width:1"/>
<polygon points="11.592891128055786,24.116100520333717 12.363156876060764,22.781896182848783 12.477673809664047,22.74035110835428" style="fill:none;stroke:black;stroke-width:1"/>
<polygon points="11.625575696728362,23.406383209361163 11.592891128055786,24.116100520333717 11.569516560882468,23.456775134788316" style="fill:none;stroke:black;stroke-width:1"/>
<polygon points="11.464222914967774,23.541663693503363 11.592891128055786,24.116100520333717 11.421605672849442,23.59478987062713" style="fill:none;stroke:black;stroke-width:1"/>
<polygon points="12.153353706943587,22.926268695513485 11.592891128055786,24.116100520333717 12.060003207637312,23.003754382421906" style="fill:none;stroke:black;stroke-width:1"/>
<polygon points="13.037631756452807,23.367055694565465 11.592891128055786,24.116100520333717 13.080540924519122,23.314387034363868" style="fill:none;stroke:black;stroke-width:1"/>
<polygon points="12.876265349000716,23.502087454801778 11.592891128055786,24.116100520333717 12.932324484846612,23.451695529374625" style="fill:none;stroke:black;stroke-width:1"/>
<polygon points="11.592891128055786,24.116100520333717 12.992751065281436,22.858746219126274 13.054617335325275,22.935181282421468" style="fill:none;stroke:black;stroke-width:1"/>
<polygon points="13.09563583710586,23.015635032273558 11.592891128055786,24.116100520333717 13.054617335325275,22.935181282421468" style="fill:none;stroke:black;stroke-width:1"/>
<polygon points="11.592891128055786,24.116100520333717 11.818301514113385,23.222860324322156 11.892790743814885,23.152842342331752" style="fill:none;stroke:black;stroke-width:1"/>
<polygon points="11.97323681826834,23.079549557226567 11.592891128055786,24.116100520333717 11.892790743814885,23.152842342331752" style="fill:none;stroke:black;stroke-width:1"/>
<polygon points="12.363156876060764,22.781896182848783 11.592891128055786,24.116100520333717 12.25344827586207,22.84793103448276" style="fill:none;stroke:black;stroke-width:1"/>
<polygon points="11.592891128055786,24.116100520333717 12.153353706943587,22.926268695513485 12.25344827586207,22.84793103448276" style="fill:none;stroke:black;stroke-width:1"/>
<polygon points="11.385700309286348,23.813166563867817 11.592891128055786,24.116100520333717 11.408114114879892,23.894615283709644" style="fill:none;stroke:black;stroke-width:1"/>
<polygon points="11.592891128055786,24.116100520333717 11.449642368021086,23.975148222135658 11.408114114879892,23.894615283709644" style="fill:none;stroke:black;stroke-width:1"/>
<polygon points="13.117583456421322,23.09692889787181 11.592891128055786,24.116100520333717 13.09563583710586,23.015635032273558" style="fill:none;stroke:black;stroke-width:1"/>
<polygon points="11.381231700894844,23.733897165068225 11.592891128055786,24.116100520333717 11.385700309286348,23.813166563867817" style="fill:none;stroke:black;stroke-width:1"/>
<polygon points="11.592891128055786,24.116100520333717 11.511654635623643,24.05200333054505 11.449642368021086,23.975148222135658" style="fill:none;stroke:black;stroke-width:1"/>
<polygon points="11.592891128055786,24.116100520333717 11.381231700894844,23.733897165068225 11.393572167012707,23.660004146200958" style="fill:none;stroke:black;stroke-width:1"/>
</svg>
