<?xml version="1.0" encoding="UTF-8" standalone="no"?>
<svg xmlns="http://www.w3.org/2000/svg" version="1.1" width="800" height="800">
<polygon points="18.52697460681194,10.809303628140343 18.79422797931115,8.686877445094275 19.39695470683592,10.80937889654188" style="fill:none;stroke:black;stroke-width:1"/>
<polygon points="16.98385828429556,6.202223624119519 16.34425005112955,6.231339370796446 16.508592139356942,5.863577452791788" style="fill:none;stroke:black;stroke-width:1"/>
<polygon points="19.278462042923998,5.669649391879159 20.65566690616258,5.275532371663812 21.18541667448487,5.874808382775868" style="fill:none;stroke:black;stroke-width:1"/>
<polygon points="18.013554308648146,4.894006893195431 8.58780135459995,8.928956749963444 19.283082978129404,4.5787760272702425" style="fill:none;stroke:black;stroke-width:1"/>
<polygon points="16.885328869127743,6.953873788941945 17.063793103448276,7.4910344827586215 17.13602672335477,5.600482173417272" style="fill:none;stroke:black;stroke-width:1"/>
<polygon points="16.34425005112955,6.231339370796446 17.063793103448276,7.4910344827586215 16.508592139356942,5.863577452791788" style="fill:none;stroke:black;stroke-width:1"/>
<polygon points="17.063793103448276,7.4910344827586215 16.885328869127743,6.953873788941945 16.508592139356942,5.863577452791788" style="fill:none;stroke:black;stroke-width:1"/>
<polygon points="17.267809277688787,5.0403284759237295 16.76527272989306,6.455882349781701 17.13602672335477,5.600482173417272" style="fill:none;stroke:black;stroke-width:1"/>
<polygon points="16.76527272989306,6.455882349781701 16.885328869127743,6.953873788941945 17.13602672335477,5.600482173417272" style="fill:none;stroke:black;stroke-width:1"/>
<polygon points="17.87569913190193,4.7659918041127725 16.76527272989306,6.455882349781701 17.267809277688787,5.0403284759237295" style="fill:none;stroke:black;stroke-width:1"/>
<polygon points="20.104246399127618,10.434904788442008 19.4923178322398,8.56028170580781 20.535618946516408,9.564210413785919" style="fill:none;stroke:black;stroke-width:1"/>
<polygon points="19.4923178322398,8.56028170580781 20.104246399127618,10.434904788442008 19.39695470683592,10.80937889654188" style="fill:none;stroke:black;stroke-width:1"/>
<polygon points="18.79422797931115,8.686877445094275 19.4923178322398,8.56028170580781 19.39695470683592,10.80937889654188" style="fill:none;stroke:black;stroke-width:1"/>
<polygon points="18.823724471844283,7.11909624651126 20.6188089074459,8.924126203380366 20.535618946516408,9.564210413785919" style="fill:none;stroke:black;stroke-width:1"/>
<polygon points="19.4923178322398,8.56028170580781 18.823724471844283,7.11909624651126 20.535618946516408,9.564210413785919" style="fill:none;stroke:black;stroke-width:1"/>
<polygon points="17.208408219853016,6.002534298050737 16.98385828429556,6.202223624119519 16.508592139356942,5.863577452791788" style="fill:none;stroke:black;stroke-width:1"/>
<polygon points="16.98385828429556,6.202223624119519 17.208408219853016,6.002534298050737 17.752359994171123,6.085959069490068" style="fill:none;stroke:black;stroke-width:1"/>
<polygon points="19.278462042923998,5.669649391879159 18.623241847120788,5.270059140745312 20.65566690616258,5.275532371663812" style="fill:none;stroke:black;stroke-width:1"/>
<polygon points="19.283082978129404,4.5787760272702425 17.28533755128862,4.6262383351079555 18.52647469678697,4.564178361463252" style="fill:none;stroke:black;stroke-width:1"/>
<polygon points="16.66882515315735,4.910091214003224 16.76527272989306,6.455882349781701 17.87569913190193,4.7659918041127725" style="fill:none;stroke:black;stroke-width:1"/>
<polygon points="16.76527272989306,6.455882349781701 16.66882515315735,4.910091214003224 16.885328869127743,6.953873788941945" style="fill:none;stroke:black;stroke-width:1"/>
<polygon points="16.66882515315735,4.910091214003224 17.87569913190193,4.7659918041127725 18.52647469678697,4.564178361463252" style="fill:none;stroke:black;stroke-width:1"/>
<polygon points="21.165364884375435,6.687106373383324 19.278462042923998,5.669649391879159 21.18541667448487,5.874808382775868" style="fill:none;stroke:black;stroke-width:1"/>
<polygon points="20.6188089074459,8.924126203380366 21.165364884375435,6.687106373383324 20.535618946516408,9.564210413785919" style="fill:none;stroke:black;stroke-width:1"/>
<polygon points="21.165364884375435,6.687106373383324 20.6188089074459,8.924126203380366 20.75110327174011,8.1459611424631" style="fill:none;stroke:black;stroke-width:1"/>
<polygon points="17.161177245559863,8.290342463112026 17.063793103448276,7.4910344827586215 16.34425005112955,6.231339370796446" style="fill:none;stroke:black;stroke-width:1"/>
<polygon points="17.063793103448276,7.4910344827586215 17.161177245559863,8.290342463112026 17.13602672335477,5.600482173417272" style="fill:none;stroke:black;stroke-width:1"/>
<polygon points="18.5483204776382,5.9885634543140895 18.792976250546218,6.157182058269246 17.752359994171123,6.085959069490068" style="fill:none;stroke:black;stroke-width:1"/>
<polygon points="18.823724471844283,7.11909624651126 18.962656061086342,6.516499195694102 20.6188089074459,8.924126203380366" style="fill:none;stroke:black;stroke-width:1"/>
<polygon points="20.6188089074459,8.924126203380366 18.962656061086342,6.516499195694102 20.75110327174011,8.1459611424631" style="fill:none;stroke:black;stroke-width:1"/>
<polygon points="18.962656061086342,6.516499195694102 18.5483204776382,5.9885634543140895 20.75110327174011,8.1459611424631" style="fill:none;stroke:black;stroke-width:1"/>
<polygon points="18.5483204776382,5.9885634543140895 18.962656061086342,6.516499195694102 18.792976250546218,6.157182058269246" style="fill:none;stroke:black;stroke-width:1"/>
<polygon points="23.991803240000923,20.558447890134357 19.4923178322398,8.56028170580781 18.79422797931115,8.686877445094275" style="fill:none;stroke:black;stroke-width:1"/>
<polygon points="19.4923178322398,8.56028170580781 23.991803240000923,20.558447890134357 24.041878916155586,20.40699769953658" style="fill:none;stroke:black;stroke-width:1"/>
<polygon points="23.397101480780087,21.929023619095926 23.496062055042206,21.804109664819826 18.79422797931115,8.686877445094275" style="fill:none;stroke:black;stroke-width:1"/>
<polygon points="17.47575552922708,6.9400145010100145 17.208408219853016,6.002534298050737 16.508592139356942,5.863577452791788" style="fill:none;stroke:black;stroke-width:1"/>
<polygon points="16.885328869127743,6.953873788941945 17.47575552922708,6.9400145010100145 16.508592139356942,5.863577452791788" style="fill:none;stroke:black;stroke-width:1"/>
<polygon points="16.66882515315735,4.910091214003224 17.47575552922708,6.9400145010100145 16.885328869127743,6.953873788941945" style="fill:none;stroke:black;stroke-width:1"/>
<polygon points="17.208408219853016,6.002534298050737 17.9399605819427,6.137750397609212 17.752359994171123,6.085959069490068" style="fill:none;stroke:black;stroke-width:1"/>
<polygon points="17.9399605819427,6.137750397609212 18.5483204776382,5.9885634543140895 17.752359994171123,6.085959069490068" style="fill:none;stroke:black;stroke-width:1"/>
<polygon points="18.5483204776382,5.9885634543140895 17.9399605819427,6.137750397609212 18.779019198687305,5.331900212687814" style="fill:none;stroke:black;stroke-width:1"/>
<polygon points="18.623241847120788,5.270059140745312 19.94394282943447,5.0332149843824805 20.65566690616258,5.275532371663812" style="fill:none;stroke:black;stroke-width:1"/>
<polygon points="19.94394282943447,5.0332149843824805 18.623241847120788,5.270059140745312 18.013554308648146,4.894006893195431" style="fill:none;stroke:black;stroke-width:1"/>
<polygon points="20.65566690616258,5.275532371663812 19.94394282943447,5.0332149843824805 19.283082978129404,4.5787760272702425" style="fill:none;stroke:black;stroke-width:1"/>
<polygon points="19.94394282943447,5.0332149843824805 18.013554308648146,4.894006893195431 19.283082978129404,4.5787760272702425" style="fill:none;stroke:black;stroke-width:1"/>
<polygon points="19.262982447315977,6.42716458069945 18.623241847120788,5.270059140745312 19.278462042923998,5.669649391879159" style="fill:none;stroke:black;stroke-width:1"/>
<polygon points="21.165364884375435,6.687106373383324 19.262982447315977,6.42716458069945 19.278462042923998,5.669649391879159" style="fill:none;stroke:black;stroke-width:1"/>
<polygon points="20.781175797781405,7.318996071943978 21.165364884375435,6.687106373383324 20.75110327174011,8.1459611424631" style="fill:none;stroke:black;stroke-width:1"/>
<polygon points="18.5483204776382,5.9885634543140895 20.781175797781405,7.318996071943978 20.75110327174011,8.1459611424631" style="fill:none;stroke:black;stroke-width:1"/>
<polygon points="20.781175797781405,7.318996071943978 18.5483204776382,5.9885634543140895 18.779019198687305,5.331900212687814" style="fill:none;stroke:black;stroke-width:1"/>
<polygon points="19.262982447315977,6.42716458069945 20.781175797781405,7.318996071943978 18.779019198687305,5.331900212687814" style="fill:none;stroke:black;stroke-width:1"/>
<polygon points="20.781175797781405,7.318996071943978 19.262982447315977,6.42716458069945 21.165364884375435,6.687106373383324" style="fill:none;stroke:black;stroke-width:1"/>
<polygon points="11.18831876639456,20.14818550511078 18.231358421995058,6.21100017382531 17.752359994171123,6.085959069490068" style="fill:none;stroke:black;stroke-width:1"/>
<polygon points="12.474401694411139,24.729629474811457 18.231358421995058,6.21100017382531 12.363402631163796,24.778869984355357" style="fill:none;stroke:black;stroke-width:1"/>
<polygon points="18.231358421995058,6.21100017382531 16.98385828429556,6.202223624119519 17.752359994171123,6.085959069490068" style="fill:none;stroke:black;stroke-width:1"/>
<polygon points="23.991803240000923,20.558447890134357 23.452413793103446,19.228275862068966 24.041878916155586,20.40699769953658" style="fill:none;stroke:black;stroke-width:1"/>
<polygon points="23.917615743341894,19.43933096079437 23.782778665393124,26.770993364118947 18.823724471844283,7.11909624651126" style="fill:none;stroke:black;stroke-width:1"/>
<polygon points="24.129633485032137,19.901919385298015 18.823724471844283,7.11909624651126 19.4923178322398,8.56028170580781" style="fill:none;stroke:black;stroke-width:1"/>
<polygon points="24.129633485032137,19.901919385298015 24.09568903399042,19.730925672054482 18.823724471844283,7.11909624651126" style="fill:none;stroke:black;stroke-width:1"/>
<polygon points="24.122879597687696,20.078041768945994 24.129633485032137,19.901919385298015 19.4923178322398,8.56028170580781" style="fill:none;stroke:black;stroke-width:1"/>
<polygon points="17.826495982970492,10.378924136814673 18.042940264498608,8.393428215867411 18.52697460681194,10.809303628140343" style="fill:none;stroke:black;stroke-width:1"/>
<polygon points="18.042940264498608,8.393428215867411 18.79422797931115,8.686877445094275 18.52697460681194,10.809303628140343" style="fill:none;stroke:black;stroke-width:1"/>
<polygon points="17.47575552922708,6.9400145010100145 18.086041910741343,6.823007840427144 17.208408219853016,6.002534298050737" style="fill:none;stroke:black;stroke-width:1"/>
<polygon points="18.086041910741343,6.823007840427144 17.9399605819427,6.137750397609212 17.208408219853016,6.002534298050737" style="fill:none;stroke:black;stroke-width:1"/>
<polygon points="8.686322262286136,8.819350681297294 8.58780135459995,8.928956749963444 18.013554308648146,4.894006893195431" style="fill:none;stroke:black;stroke-width:1"/>
<polygon points="8.782760739109008,8.71261643573747 8.686322262286136,8.819350681297294 18.013554308648146,4.894006893195431" style="fill:none;stroke:black;stroke-width:1"/>
<polygon points="8.968932952955873,8.50720893247141 8.877002423266331,8.608615392917622 18.013554308648146,4.894006893195431" style="fill:none;stroke:black;stroke-width:1"/>
<polygon points="8.877002423266331,8.608615392917622 8.782760739109008,8.71261643573747 18.013554308648146,4.894006893195431" style="fill:none;stroke:black;stroke-width:1"/>
<polygon points="18.962656061086342,6.516499195694102 12.874786227139518,6.303957728735439 18.792976250546218,6.157182058269246" style="fill:none;stroke:black;stroke-width:1"/>
<polygon points="9.019000918342119,8.77696726864084 12.874786227139518,6.303957728735439 18.962656061086342,6.516499195694102" style="fill:none;stroke:black;stroke-width:1"/>
<polygon points="18.042940264498608,8.393428215867411 22.800991778643404,22.212806787395085 18.79422797931115,8.686877445094275" style="fill:none;stroke:black;stroke-width:1"/>
<polygon points="17.546426017829123,6.888460874561691 17.628965465141075,7.567817444763106 17.4946624177934,9.650827095307587" style="fill:none;stroke:black;stroke-width:1"/>
<polygon points="17.628965465141075,7.567817444763106 17.826495982970492,10.378924136814673 17.4946624177934,9.650827095307587" style="fill:none;stroke:black;stroke-width:1"/>
<polygon points="17.655820910674176,6.293213408831978 17.161177245559863,8.290342463112026 16.34425005112955,6.231339370796446" style="fill:none;stroke:black;stroke-width:1"/>
<polygon points="16.98385828429556,6.202223624119519 17.655820910674176,6.293213408831978 16.34425005112955,6.231339370796446" style="fill:none;stroke:black;stroke-width:1"/>
<polygon points="24.09568903399042,19.730925672054482 24.023526297849475,19.57448698745196 18.823724471844283,7.11909624651126" style="fill:none;stroke:black;stroke-width:1"/>
<polygon points="24.023526297849475,19.57448698745196 23.917615743341894,19.43933096079437 18.823724471844283,7.11909624651126" style="fill:none;stroke:black;stroke-width:1"/>
<polygon points="24.023526297849475,19.57448698745196 24.122879597687696,20.078041768945994 23.917615743341894,19.43933096079437" style="fill:none;stroke:black;stroke-width:1"/>
<polygon points="24.129633485032137,19.901919385298015 24.023526297849475,19.57448698745196 24.09568903399042,19.730925672054482" style="fill:none;stroke:black;stroke-width:1"/>
<polygon points="24.023526297849475,19.57448698745196 24.129633485032137,19.901919385298015 24.122879597687696,20.078041768945994" style="fill:none;stroke:black;stroke-width:1"/>
<polygon points="23.917615743341894,19.43933096079437 23.782575041127938,19.331202439707734 23.782778665393124,26.770993364118947" style="fill:none;stroke:black;stroke-width:1"/>
<polygon points="23.782575041127938,19.331202439707734 23.452413793103446,19.228275862068966 23.62302186186786,19.25584627181808" style="fill:none;stroke:black;stroke-width:1"/>
<polygon points="23.452413793103446,19.228275862068966 23.782575041127938,19.331202439707734 24.041878916155586,20.40699769953658" style="fill:none;stroke:black;stroke-width:1"/>
<polygon points="24.086301395609183,20.24651413535359 19.4923178322398,8.56028170580781 24.041878916155586,20.40699769953658" style="fill:none;stroke:black;stroke-width:1"/>
<polygon points="24.086301395609183,20.24651413535359 24.122879597687696,20.078041768945994 19.4923178322398,8.56028170580781" style="fill:none;stroke:black;stroke-width:1"/>
<polygon points="24.122879597687696,20.078041768945994 24.086301395609183,20.24651413535359 23.917615743341894,19.43933096079437" style="fill:none;stroke:black;stroke-width:1"/>
<polygon points="23.782575041127938,19.331202439707734 24.086301395609183,20.24651413535359 24.041878916155586,20.40699769953658" style="fill:none;stroke:black;stroke-width:1"/>
<polygon points="24.086301395609183,20.24651413535359 23.782575041127938,19.331202439707734 23.917615743341894,19.43933096079437" style="fill:none;stroke:black;stroke-width:1"/>
<polygon points="19.262982447315977,6.42716458069945 10.472012346859403,8.688988903163578 18.623241847120788,5.270059140745312" style="fill:none;stroke:black;stroke-width:1"/>
<polygon points="10.02197710238526,9.80945683566406 10.472012346859403,8.688988903163578 10.520143038379487,8.875095421927432" style="fill:none;stroke:black;stroke-width:1"/>
<polygon points="18.69632829225561,6.706001179844273 19.262982447315977,6.42716458069945 18.779019198687305,5.331900212687814" style="fill:none;stroke:black;stroke-width:1"/>
<polygon points="17.9399605819427,6.137750397609212 18.69632829225561,6.706001179844273 18.779019198687305,5.331900212687814" style="fill:none;stroke:black;stroke-width:1"/>
<polygon points="18.69632829225561,6.706001179844273 10.472012346859403,8.688988903163578 19.262982447315977,6.42716458069945" style="fill:none;stroke:black;stroke-width:1"/>
<polygon points="10.472012346859403,8.688988903163578 18.69632829225561,6.706001179844273 10.520143038379487,8.875095421927432" style="fill:none;stroke:black;stroke-width:1"/>
<polygon points="18.086041910741343,6.823007840427144 18.69632829225561,6.706001179844273 17.9399605819427,6.137750397609212" style="fill:none;stroke:black;stroke-width:1"/>
<polygon points="9.149223431986032,10.656084626031928 8.686322262286136,8.819350681297294 8.782760739109008,8.71261643573747" style="fill:none;stroke:black;stroke-width:1"/>
<polygon points="9.058437966375397,8.408258434032486 8.968932952955873,8.50720893247141 18.013554308648146,4.894006893195431" style="fill:none;stroke:black;stroke-width:1"/>
<polygon points="18.623241847120788,5.270059140745312 9.49730775449299,8.099422021033778 18.013554308648146,4.894006893195431" style="fill:none;stroke:black;stroke-width:1"/>
<polygon points="9.649402212563853,8.084916637662591 9.49730775449299,8.099422021033778 18.623241847120788,5.270059140745312" style="fill:none;stroke:black;stroke-width:1"/>
<polygon points="17.194282249586035,10.469928647807594 12.785236078665529,11.783499862116834 18.962656061086342,6.516499195694102" style="fill:none;stroke:black;stroke-width:1"/>
<polygon points="18.231358421995058,6.21100017382531 12.24992592336491,24.83043715700036 12.363402631163796,24.778869984355357" style="fill:none;stroke:black;stroke-width:1"/>
<polygon points="22.04447975426875,21.861996933181196 18.042940264498608,8.393428215867411 17.826495982970492,10.378924136814673" style="fill:none;stroke:black;stroke-width:1"/>
<polygon points="17.628965465141075,7.567817444763106 22.04447975426875,21.861996933181196 17.826495982970492,10.378924136814673" style="fill:none;stroke:black;stroke-width:1"/>
<polygon points="17.655820910674176,6.293213408831978 17.3672683900263,9.022337628648808 17.161177245559863,8.290342463112026" style="fill:none;stroke:black;stroke-width:1"/>
<polygon points="17.3672683900263,9.022337628648808 17.655820910674176,6.293213408831978 17.546426017829123,6.888460874561691" style="fill:none;stroke:black;stroke-width:1"/>
<polygon points="17.3672683900263,9.022337628648808 17.546426017829123,6.888460874561691 17.4946624177934,9.650827095307587" style="fill:none;stroke:black;stroke-width:1"/>
<polygon points="17.3672683900263,9.022337628648808 17.4946624177934,9.650827095307587 17.13602672335477,5.600482173417272" style="fill:none;stroke:black;stroke-width:1"/>
<polygon points="17.161177245559863,8.290342463112026 17.3672683900263,9.022337628648808 17.13602672335477,5.600482173417272" style="fill:none;stroke:black;stroke-width:1"/>
<polygon points="23.496062055042206,21.804109664819826 23.567641450570278,21.66356203851219 18.79422797931115,8.686877445094275" style="fill:none;stroke:black;stroke-width:1"/>
<polygon points="23.567641450570278,21.66356203851219 23.620606856292056,21.52582633791233 18.79422797931115,8.686877445094275" style="fill:none;stroke:black;stroke-width:1"/>
<polygon points="23.567641450570278,21.66356203851219 23.496062055042206,21.804109664819826 22.448554350055453,19.91033371015998" style="fill:none;stroke:black;stroke-width:1"/>
<polygon points="23.726531973283677,21.250369832873563 23.779494531779488,21.112641580354182 18.79422797931115,8.686877445094275" style="fill:none;stroke:black;stroke-width:1"/>
<polygon points="23.726531973283677,21.250369832873563 22.79618099980372,19.405889279043173 23.779494531779488,21.112641580354182" style="fill:none;stroke:black;stroke-width:1"/>
<polygon points="23.93838220726692,20.69945682279603 23.991803240000923,20.558447890134357 18.79422797931115,8.686877445094275" style="fill:none;stroke:black;stroke-width:1"/>
<polygon points="23.88541964877111,20.83718507531541 23.93838220726692,20.69945682279603 18.79422797931115,8.686877445094275" style="fill:none;stroke:black;stroke-width:1"/>
<polygon points="23.93838220726692,20.69945682279603 23.452413793103446,19.228275862068966 23.991803240000923,20.558447890134357" style="fill:none;stroke:black;stroke-width:1"/>
<polygon points="23.779494531779488,21.112641580354182 23.832457090275298,20.9749133278348 18.79422797931115,8.686877445094275" style="fill:none;stroke:black;stroke-width:1"/>
<polygon points="23.832457090275298,20.9749133278348 23.88541964877111,20.83718507531541 18.79422797931115,8.686877445094275" style="fill:none;stroke:black;stroke-width:1"/>
<polygon points="23.452413793103446,19.228275862068966 6.822356855600889,24.470453747396803 23.62302186186786,19.25584627181808" style="fill:none;stroke:black;stroke-width:1"/>
<polygon points="23.496062055042206,21.804109664819826 22.39559179155964,20.048061962679366 22.448554350055453,19.91033371015998" style="fill:none;stroke:black;stroke-width:1"/>
<polygon points="23.397101480780087,21.929023619095926 22.39559179155964,20.048061962679366 23.496062055042206,21.804109664819826" style="fill:none;stroke:black;stroke-width:1"/>
<polygon points="23.131745672504167,22.12004332585554 22.236704116072207,20.46124672023752 22.289666674568018,20.32351846771813" style="fill:none;stroke:black;stroke-width:1"/>
<polygon points="11.464765942299278,23.960017679920682 17.628965465141075,7.567817444763106 17.546426017829123,6.888460874561691" style="fill:none;stroke:black;stroke-width:1"/>
<polygon points="11.575765005546618,23.91077717037678 11.464765942299278,23.960017679920682 17.546426017829123,6.888460874561691" style="fill:none;stroke:black;stroke-width:1"/>
<polygon points="25.456563872485596,17.624056390452736 26.698487408850923,19.842482846261895 18.231358421995058,6.21100017382531" style="fill:none;stroke:black;stroke-width:1"/>
<polygon points="18.962656061086342,6.516499195694102 27.202379787311504,15.806663898257327 23.47787603091185,16.498431554013724" style="fill:none;stroke:black;stroke-width:1"/>
<polygon points="27.202379787311504,15.806663898257327 18.962656061086342,6.516499195694102 18.823724471844283,7.11909624651126" style="fill:none;stroke:black;stroke-width:1"/>
<polygon points="10.164917323120084,9.634134271703715 10.46391019781806,9.241958594147253 10.26107420152458,9.526656699139654" style="fill:none;stroke:black;stroke-width:1"/>
<polygon points="18.086041910741343,6.823007840427144 10.164917323120084,9.634134271703715 10.26107420152458,9.526656699139654" style="fill:none;stroke:black;stroke-width:1"/>
<polygon points="18.69632829225561,6.706001179844273 10.51692907808028,9.063058570145646 10.520143038379487,8.875095421927432" style="fill:none;stroke:black;stroke-width:1"/>
<polygon points="10.51692907808028,9.063058570145646 18.69632829225561,6.706001179844273 10.46391019781806,9.241958594147253" style="fill:none;stroke:black;stroke-width:1"/>
<polygon points="10.164917323120084,9.634134271703715 10.51692907808028,9.063058570145646 10.46391019781806,9.241958594147253" style="fill:none;stroke:black;stroke-width:1"/>
<polygon points="10.51692907808028,9.063058570145646 10.02197710238526,9.80945683566406 10.520143038379487,8.875095421927432" style="fill:none;stroke:black;stroke-width:1"/>
<polygon points="10.366736056936254,9.399039253126398 18.69632829225561,6.706001179844273 18.086041910741343,6.823007840427144" style="fill:none;stroke:black;stroke-width:1"/>
<polygon points="18.69632829225561,6.706001179844273 10.366736056936254,9.399039253126398 10.46391019781806,9.241958594147253" style="fill:none;stroke:black;stroke-width:1"/>
<polygon points="10.366736056936254,9.399039253126398 18.086041910741343,6.823007840427144 10.26107420152458,9.526656699139654" style="fill:none;stroke:black;stroke-width:1"/>
<polygon points="10.46391019781806,9.241958594147253 10.366736056936254,9.399039253126398 10.26107420152458,9.526656699139654" style="fill:none;stroke:black;stroke-width:1"/>
<polygon points="8.877002423266331,8.608615392917622 9.304595780423792,10.597301570290902 8.782760739109008,8.71261643573747" style="fill:none;stroke:black;stroke-width:1"/>
<polygon points="9.304595780423792,10.597301570290902 9.149223431986032,10.656084626031928 8.782760739109008,8.71261643573747" style="fill:none;stroke:black;stroke-width:1"/>
<polygon points="9.304595780423792,10.597301570290902 8.877002423266331,8.608615392917622 8.968932952955873,8.50720893247141" style="fill:none;stroke:black;stroke-width:1"/>
<polygon points="8.686322262286136,8.819350681297294 8.973588137898977,10.69041541308548 8.58780135459995,8.928956749963444" style="fill:none;stroke:black;stroke-width:1"/>
<polygon points="9.149223431986032,10.656084626031928 8.973588137898977,10.69041541308548 8.686322262286136,8.819350681297294" style="fill:none;stroke:black;stroke-width:1"/>
<polygon points="8.973588137898977,10.69041541308548 9.149223431986032,10.656084626031928 8.784198952015805,10.698388314879532" style="fill:none;stroke:black;stroke-width:1"/>
<polygon points="9.239617429609998,8.21676367029012 9.145403101722668,8.311625277234503 18.013554308648146,4.894006893195431" style="fill:none;stroke:black;stroke-width:1"/>
<polygon points="9.145403101722668,8.311625277234503 9.058437966375397,8.408258434032486 18.013554308648146,4.894006893195431" style="fill:none;stroke:black;stroke-width:1"/>
<polygon points="9.358743307510762,8.144097384612918 9.239617429609998,8.21676367029012 18.013554308648146,4.894006893195431" style="fill:none;stroke:black;stroke-width:1"/>
<polygon points="9.49730775449299,8.099422021033778 9.358743307510762,8.144097384612918 18.013554308648146,4.894006893195431" style="fill:none;stroke:black;stroke-width:1"/>
<polygon points="8.38496969384658,9.157338838080099 17.28533755128862,4.6262383351079555 19.283082978129404,4.5787760272702425" style="fill:none;stroke:black;stroke-width:1"/>
<polygon points="8.38496969384658,9.157338838080099 8.280887664383865,9.276392098263292 17.28533755128862,4.6262383351079555" style="fill:none;stroke:black;stroke-width:1"/>
<polygon points="7.915137703720736,10.052832960079856 16.66882515315735,4.910091214003224 18.52647469678697,4.564178361463252" style="fill:none;stroke:black;stroke-width:1"/>
<polygon points="8.209206662719431,10.538036836076177 17.47575552922708,6.9400145010100145 16.66882515315735,4.910091214003224" style="fill:none;stroke:black;stroke-width:1"/>
<polygon points="8.06442002417268,10.404335159104056 8.209206662719431,10.538036836076177 16.66882515315735,4.910091214003224" style="fill:none;stroke:black;stroke-width:1"/>
<polygon points="21.281815525297073,12.489541495676672 18.962656061086342,6.516499195694102 23.47787603091185,16.498431554013724" style="fill:none;stroke:black;stroke-width:1"/>
<polygon points="21.281815525297073,12.489541495676672 17.194282249586035,10.469928647807594 18.962656061086342,6.516499195694102" style="fill:none;stroke:black;stroke-width:1"/>
<polygon points="6.49500629576402,12.60722017088702 9.019000918342119,8.77696726864084 18.962656061086342,6.516499195694102" style="fill:none;stroke:black;stroke-width:1"/>
<polygon points="6.6172851414173355,15.992137085344313 6.49500629576402,12.60722017088702 18.962656061086342,6.516499195694102" style="fill:none;stroke:black;stroke-width:1"/>
<polygon points="12.785236078665529,11.783499862116834 10.475175144544899,15.662743653199776 18.962656061086342,6.516499195694102" style="fill:none;stroke:black;stroke-width:1"/>
<polygon points="10.475175144544899,15.662743653199776 6.6172851414173355,15.992137085344313 18.962656061086342,6.516499195694102" style="fill:none;stroke:black;stroke-width:1"/>
<polygon points="18.792976250546218,6.157182058269246 10.282993309199494,25.54901762310513 17.752359994171123,6.085959069490068" style="fill:none;stroke:black;stroke-width:1"/>
<polygon points="12.014494653802956,24.93920447477643 12.13369949977192,24.884002115109702 18.231358421995058,6.21100017382531" style="fill:none;stroke:black;stroke-width:1"/>
<polygon points="12.13369949977192,24.884002115109702 12.24992592336491,24.83043715700036 18.231358421995058,6.21100017382531" style="fill:none;stroke:black;stroke-width:1"/>
<polygon points="11.892129650376233,24.9956580292929 12.014494653802956,24.93920447477643 18.231358421995058,6.21100017382531" style="fill:none;stroke:black;stroke-width:1"/>
<polygon points="23.620606856292056,21.52582633791233 23.67356941478787,21.388098085392947 18.79422797931115,8.686877445094275" style="fill:none;stroke:black;stroke-width:1"/>
<polygon points="23.67356941478787,21.388098085392947 23.726531973283677,21.250369832873563 18.79422797931115,8.686877445094275" style="fill:none;stroke:black;stroke-width:1"/>
<polygon points="22.57288899258913,19.63411584350172 23.67356941478787,21.388098085392947 23.620606856292056,21.52582633791233" style="fill:none;stroke:black;stroke-width:1"/>
<polygon points="22.79618099980372,19.405889279043173 22.940077945410415,19.32209732732632 23.779494531779488,21.112641580354182" style="fill:none;stroke:black;stroke-width:1"/>
<polygon points="22.940077945410415,19.32209732732632 23.832457090275298,20.9749133278348 23.779494531779488,21.112641580354182" style="fill:none;stroke:black;stroke-width:1"/>
<polygon points="4.215360535911342,15.66068130496282 22.940077945410415,19.32209732732632 5.503784567765442,11.177431619585205" style="fill:none;stroke:black;stroke-width:1"/>
<polygon points="22.940077945410415,19.32209732732632 22.79618099980372,19.405889279043173 5.503784567765442,11.177431619585205" style="fill:none;stroke:black;stroke-width:1"/>
<polygon points="22.501553723835343,19.772505611602845 23.567641450570278,21.66356203851219 22.448554350055453,19.91033371015998" style="fill:none;stroke:black;stroke-width:1"/>
<polygon points="23.567641450570278,21.66356203851219 22.501553723835343,19.772505611602845 23.620606856292056,21.52582633791233" style="fill:none;stroke:black;stroke-width:1"/>
<polygon points="22.501553723835343,19.772505611602845 22.57288899258913,19.63411584350172 23.620606856292056,21.52582633791233" style="fill:none;stroke:black;stroke-width:1"/>
<polygon points="4.672975153662606,20.389575817474995 6.822356855600889,24.470453747396803 23.452413793103446,19.228275862068966" style="fill:none;stroke:black;stroke-width:1"/>
<polygon points="14.698961009544691,28.99856256563699 23.782575041127938,19.331202439707734 23.62302186186786,19.25584627181808" style="fill:none;stroke:black;stroke-width:1"/>
<polygon points="12.212267917188868,5.290757299355948 22.501553723835343,19.772505611602845 10.993102166098295,25.044282670637486" style="fill:none;stroke:black;stroke-width:1"/>
<polygon points="22.183741557576397,20.5989749727569 22.800991778643404,22.212806787395085 22.130778999080587,20.736703225276283" style="fill:none;stroke:black;stroke-width:1"/>
<polygon points="22.342629233063832,20.185790215198747 22.39559179155964,20.048061962679366 23.397101480780087,21.929023619095926" style="fill:none;stroke:black;stroke-width:1"/>
<polygon points="23.131745672504167,22.12004332585554 22.97270487671559,22.18019548549007 22.236704116072207,20.46124672023752" style="fill:none;stroke:black;stroke-width:1"/>
<polygon points="22.183741557576397,20.5989749727569 22.97270487671559,22.18019548549007 22.800991778643404,22.212806787395085" style="fill:none;stroke:black;stroke-width:1"/>
<polygon points="22.97270487671559,22.18019548549007 22.183741557576397,20.5989749727569 22.236704116072207,20.46124672023752" style="fill:none;stroke:black;stroke-width:1"/>
<polygon points="22.800991778643404,22.212806787395085 22.97270487671559,22.18019548549007 18.79422797931115,8.686877445094275" style="fill:none;stroke:black;stroke-width:1"/>
<polygon points="22.97270487671559,22.18019548549007 23.131745672504167,22.12004332585554 18.79422797931115,8.686877445094275" style="fill:none;stroke:black;stroke-width:1"/>
<polygon points="17.655820910674176,6.293213408831978 12.574621904683742,23.52488096817279 17.546426017829123,6.888460874561691" style="fill:none;stroke:black;stroke-width:1"/>
<polygon points="17.628965465141075,7.567817444763106 11.143357778926996,24.091067842814894 21.982859810738322,21.189645912718724" style="fill:none;stroke:black;stroke-width:1"/>
<polygon points="14.921951435100828,22.680183085834734 18.231358421995058,6.21100017382531 11.18831876639456,20.14818550511078" style="fill:none;stroke:black;stroke-width:1"/>
<polygon points="14.921951435100828,22.680183085834734 19.49160673637838,21.97096854716844 18.231358421995058,6.21100017382531" style="fill:none;stroke:black;stroke-width:1"/>
<polygon points="22.27937218690082,18.45235783517041 25.456563872485596,17.624056390452736 18.231358421995058,6.21100017382531" style="fill:none;stroke:black;stroke-width:1"/>
<polygon points="19.49160673637838,21.97096854716844 22.27937218690082,18.45235783517041 18.231358421995058,6.21100017382531" style="fill:none;stroke:black;stroke-width:1"/>
<polygon points="26.698487408850923,19.842482846261895 24.448735216986716,23.872704221229245 18.231358421995058,6.21100017382531" style="fill:none;stroke:black;stroke-width:1"/>
<polygon points="24.448735216986716,23.872704221229245 11.892129650376233,24.9956580292929 18.231358421995058,6.21100017382531" style="fill:none;stroke:black;stroke-width:1"/>
<polygon points="23.44159729222309,8.306869011434905 26.350935236798072,11.814436827875356 18.823724471844283,7.11909624651126" style="fill:none;stroke:black;stroke-width:1"/>
<polygon points="26.350935236798072,11.814436827875356 27.202379787311504,15.806663898257327 18.823724471844283,7.11909624651126" style="fill:none;stroke:black;stroke-width:1"/>
<polygon points="23.782778665393124,26.770993364118947 26.869357650308977,23.44476600146714 18.823724471844283,7.11909624651126" style="fill:none;stroke:black;stroke-width:1"/>
<polygon points="26.869357650308977,23.44476600146714 28.544184494644224,19.13015960160966 18.823724471844283,7.11909624651126" style="fill:none;stroke:black;stroke-width:1"/>
<polygon points="19.306397395258532,6.2618232378655225 23.44159729222309,8.306869011434905 18.823724471844283,7.11909624651126" style="fill:none;stroke:black;stroke-width:1"/>
<polygon points="28.544184494644224,19.13015960160966 19.306397395258532,6.2618232378655225 18.823724471844283,7.11909624651126" style="fill:none;stroke:black;stroke-width:1"/>
<polygon points="10.127780352845724,8.244210946420981 9.970546930000166,8.155132043983649 18.623241847120788,5.270059140745312" style="fill:none;stroke:black;stroke-width:1"/>
<polygon points="10.472012346859403,8.688988903163578 10.386895413673358,8.517581637063122 18.623241847120788,5.270059140745312" style="fill:none;stroke:black;stroke-width:1"/>
<polygon points="10.386895413673358,8.517581637063122 10.472012346859403,8.688988903163578 10.02197710238526,9.80945683566406" style="fill:none;stroke:black;stroke-width:1"/>
<polygon points="10.51692907808028,9.063058570145646 10.08353481714283,9.726652615621326 10.02197710238526,9.80945683566406" style="fill:none;stroke:black;stroke-width:1"/>
<polygon points="10.08353481714283,9.726652615621326 10.51692907808028,9.063058570145646 10.164917323120084,9.634134271703715" style="fill:none;stroke:black;stroke-width:1"/>
<polygon points="10.08353481714283,9.726652615621326 10.164917323120084,9.634134271703715 18.086041910741343,6.823007840427144" style="fill:none;stroke:black;stroke-width:1"/>
<polygon points="10.08353481714283,9.726652615621326 18.086041910741343,6.823007840427144 17.47575552922708,6.9400145010100145" style="fill:none;stroke:black;stroke-width:1"/>
<polygon points="10.02197710238526,9.80945683566406 10.08353481714283,9.726652615621326 17.47575552922708,6.9400145010100145" style="fill:none;stroke:black;stroke-width:1"/>
<polygon points="9.058437966375397,8.408258434032486 9.433196129359075,10.515971862434414 8.968932952955873,8.50720893247141" style="fill:none;stroke:black;stroke-width:1"/>
<polygon points="9.433196129359075,10.515971862434414 9.304595780423792,10.597301570290902 8.968932952955873,8.50720893247141" style="fill:none;stroke:black;stroke-width:1"/>
<polygon points="8.38496969384658,9.157338838080099 8.487312377852687,9.041573262102263 8.784198952015805,10.698388314879532" style="fill:none;stroke:black;stroke-width:1"/>
<polygon points="8.973588137898977,10.69041541308548 8.487312377852687,9.041573262102263 8.58780135459995,8.928956749963444" style="fill:none;stroke:black;stroke-width:1"/>
<polygon points="8.487312377852687,9.041573262102263 8.973588137898977,10.69041541308548 8.784198952015805,10.698388314879532" style="fill:none;stroke:black;stroke-width:1"/>
<polygon points="8.58780135459995,8.928956749963444 8.487312377852687,9.041573262102263 19.283082978129404,4.5787760272702425" style="fill:none;stroke:black;stroke-width:1"/>
<polygon points="8.487312377852687,9.041573262102263 8.38496969384658,9.157338838080099 19.283082978129404,4.5787760272702425" style="fill:none;stroke:black;stroke-width:1"/>
<polygon points="7.964321993816013,10.23895321353806 8.06442002417268,10.404335159104056 16.66882515315735,4.910091214003224" style="fill:none;stroke:black;stroke-width:1"/>
<polygon points="7.915137703720736,10.052832960079856 7.964321993816013,10.23895321353806 16.66882515315735,4.910091214003224" style="fill:none;stroke:black;stroke-width:1"/>
<polygon points="7.964321993816013,10.23895321353806 7.915137703720736,10.052832960079856 8.06442002417268,10.404335159104056" style="fill:none;stroke:black;stroke-width:1"/>
<polygon points="8.209206662719431,10.538036836076177 8.392413793103447,10.629310344827585 17.47575552922708,6.9400145010100145" style="fill:none;stroke:black;stroke-width:1"/>
<polygon points="8.392413793103447,10.629310344827585 10.02197710238526,9.80945683566406 17.47575552922708,6.9400145010100145" style="fill:none;stroke:black;stroke-width:1"/>
<polygon points="8.392413793103447,10.629310344827585 8.209206662719431,10.538036836076177 7.97237897551336,9.685745241471379" style="fill:none;stroke:black;stroke-width:1"/>
<polygon points="8.392413793103447,10.629310344827585 9.433196129359075,10.515971862434414 10.02197710238526,9.80945683566406" style="fill:none;stroke:black;stroke-width:1"/>
<polygon points="9.433196129359075,10.515971862434414 8.392413793103447,10.629310344827585 9.304595780423792,10.597301570290902" style="fill:none;stroke:black;stroke-width:1"/>
<polygon points="7.915137703720736,10.052832960079856 7.919021354329255,9.864093306256894 8.06442002417268,10.404335159104056" style="fill:none;stroke:black;stroke-width:1"/>
<polygon points="7.919021354329255,9.864093306256894 8.209206662719431,10.538036836076177 8.06442002417268,10.404335159104056" style="fill:none;stroke:black;stroke-width:1"/>
<polygon points="8.209206662719431,10.538036836076177 7.919021354329255,9.864093306256894 7.97237897551336,9.685745241471379" style="fill:none;stroke:black;stroke-width:1"/>
<polygon points="7.919021354329255,9.864093306256894 7.915137703720736,10.052832960079856 18.52647469678697,4.564178361463252" style="fill:none;stroke:black;stroke-width:1"/>
<polygon points="17.28533755128862,4.6262383351079555 7.919021354329255,9.864093306256894 18.52647469678697,4.564178361463252" style="fill:none;stroke:black;stroke-width:1"/>
<polygon points="7.97237897551336,9.685745241471379 7.919021354329255,9.864093306256894 17.28533755128862,4.6262383351079555" style="fill:none;stroke:black;stroke-width:1"/>
<polygon points="18.936090385469726,21.05765899332303 14.347567296590542,21.07043555702715 18.792976250546218,6.157182058269246" style="fill:none;stroke:black;stroke-width:1"/>
<polygon points="20.77922474986465,13.803991997214917 14.59831245957912,27.291399812268146 18.792976250546218,6.157182058269246" style="fill:none;stroke:black;stroke-width:1"/>
<polygon points="14.59831245957912,27.291399812268146 10.282993309199494,25.54901762310513 18.792976250546218,6.157182058269246" style="fill:none;stroke:black;stroke-width:1"/>
<polygon points="22.284884737956205,22.10580153798467 22.444219132703605,22.181493827210062 18.042940264498608,8.393428215867411" style="fill:none;stroke:black;stroke-width:1"/>
<polygon points="22.04447975426875,21.861996933181196 22.150099054924496,21.99738762409971 18.042940264498608,8.393428215867411" style="fill:none;stroke:black;stroke-width:1"/>
<polygon points="22.150099054924496,21.99738762409971 22.284884737956205,22.10580153798467 18.042940264498608,8.393428215867411" style="fill:none;stroke:black;stroke-width:1"/>
<polygon points="22.284884737956205,22.10580153798467 22.150099054924496,21.99738762409971 21.982859810738322,21.189645912718724" style="fill:none;stroke:black;stroke-width:1"/>
<polygon points="21.94621762400348,21.35804253012884 17.628965465141075,7.567817444763106 21.982859810738322,21.189645912718724" style="fill:none;stroke:black;stroke-width:1"/>
<polygon points="21.94621762400348,21.35804253012884 21.939063778798477,21.53424739242552 17.628965465141075,7.567817444763106" style="fill:none;stroke:black;stroke-width:1"/>
<polygon points="21.939063778798477,21.53424739242552 21.94621762400348,21.35804253012884 22.04447975426875,21.861996933181196" style="fill:none;stroke:black;stroke-width:1"/>
<polygon points="22.150099054924496,21.99738762409971 21.94621762400348,21.35804253012884 21.982859810738322,21.189645912718724" style="fill:none;stroke:black;stroke-width:1"/>
<polygon points="21.94621762400348,21.35804253012884 22.150099054924496,21.99738762409971 22.04447975426875,21.861996933181196" style="fill:none;stroke:black;stroke-width:1"/>
<polygon points="21.97264450664921,21.70537431285516 22.04447975426875,21.861996933181196 17.628965465141075,7.567817444763106" style="fill:none;stroke:black;stroke-width:1"/>
<polygon points="21.939063778798477,21.53424739242552 21.97264450664921,21.70537431285516 17.628965465141075,7.567817444763106" style="fill:none;stroke:black;stroke-width:1"/>
<polygon points="21.97264450664921,21.70537431285516 21.939063778798477,21.53424739242552 22.04447975426875,21.861996933181196" style="fill:none;stroke:black;stroke-width:1"/>
<polygon points="22.672441383387614,19.5109029252084 23.67356941478787,21.388098085392947 22.57288899258913,19.63411584350172" style="fill:none;stroke:black;stroke-width:1"/>
<polygon points="22.79618099980372,19.405889279043173 22.672441383387614,19.5109029252084 5.503784567765442,11.177431619585205" style="fill:none;stroke:black;stroke-width:1"/>
<polygon points="23.726531973283677,21.250369832873563 22.672441383387614,19.5109029252084 22.79618099980372,19.405889279043173" style="fill:none;stroke:black;stroke-width:1"/>
<polygon points="23.67356941478787,21.388098085392947 22.672441383387614,19.5109029252084 23.726531973283677,21.250369832873563" style="fill:none;stroke:black;stroke-width:1"/>
<polygon points="23.832457090275298,20.9749133278348 23.100102323780636,19.26254949237814 23.88541964877111,20.83718507531541" style="fill:none;stroke:black;stroke-width:1"/>
<polygon points="22.940077945410415,19.32209732732632 23.100102323780636,19.26254949237814 23.832457090275298,20.9749133278348" style="fill:none;stroke:black;stroke-width:1"/>
<polygon points="4.672975153662606,20.389575817474995 23.100102323780636,19.26254949237814 4.215360535911342,15.66068130496282" style="fill:none;stroke:black;stroke-width:1"/>
<polygon points="23.100102323780636,19.26254949237814 22.940077945410415,19.32209732732632 4.215360535911342,15.66068130496282" style="fill:none;stroke:black;stroke-width:1"/>
<polygon points="6.822356855600889,24.470453747396803 10.287065295870054,27.46272672790916 23.62302186186786,19.25584627181808" style="fill:none;stroke:black;stroke-width:1"/>
<polygon points="10.287065295870054,27.46272672790916 14.698961009544691,28.99856256563699 23.62302186186786,19.25584627181808" style="fill:none;stroke:black;stroke-width:1"/>
<polygon points="23.782575041127938,19.331202439707734 19.582639694350384,28.742483621661076 23.782778665393124,26.770993364118947" style="fill:none;stroke:black;stroke-width:1"/>
<polygon points="14.698961009544691,28.99856256563699 19.582639694350384,28.742483621661076 23.782575041127938,19.331202439707734" style="fill:none;stroke:black;stroke-width:1"/>
<polygon points="22.672441383387614,19.5109029252084 8.268576224722262,7.598608916202736 5.503784567765442,11.177431619585205" style="fill:none;stroke:black;stroke-width:1"/>
<polygon points="8.268576224722262,7.598608916202736 22.672441383387614,19.5109029252084 22.57288899258913,19.63411584350172" style="fill:none;stroke:black;stroke-width:1"/>
<polygon points="22.501553723835343,19.772505611602845 8.268576224722262,7.598608916202736 22.57288899258913,19.63411584350172" style="fill:none;stroke:black;stroke-width:1"/>
<polygon points="12.212267917188868,5.290757299355948 8.268576224722262,7.598608916202736 22.501553723835343,19.772505611602845" style="fill:none;stroke:black;stroke-width:1"/>
<polygon points="23.27443694689654,22.035327104915996 23.131745672504167,22.12004332585554 22.289666674568018,20.32351846771813" style="fill:none;stroke:black;stroke-width:1"/>
<polygon points="22.342629233063832,20.185790215198747 23.27443694689654,22.035327104915996 22.289666674568018,20.32351846771813" style="fill:none;stroke:black;stroke-width:1"/>
<polygon points="23.27443694689654,22.035327104915996 22.342629233063832,20.185790215198747 23.397101480780087,21.929023619095926" style="fill:none;stroke:black;stroke-width:1"/>
<polygon points="23.27443694689654,22.035327104915996 23.397101480780087,21.929023619095926 18.79422797931115,8.686877445094275" style="fill:none;stroke:black;stroke-width:1"/>
<polygon points="23.131745672504167,22.12004332585554 23.27443694689654,22.035327104915996 18.79422797931115,8.686877445094275" style="fill:none;stroke:black;stroke-width:1"/>
<polygon points="13.131065255946059,24.316448524171083 17.655820910674176,6.293213408831978 16.98385828429556,6.202223624119519" style="fill:none;stroke:black;stroke-width:1"/>
<polygon points="13.074014676859527,24.414577773352537 13.131065255946059,24.316448524171083 16.98385828429556,6.202223624119519" style="fill:none;stroke:black;stroke-width:1"/>
<polygon points="11.248922001761102,24.050391271421418 11.143357778926996,24.091067842814894 17.628965465141075,7.567817444763106" style="fill:none;stroke:black;stroke-width:1"/>
<polygon points="9.80911812373052,8.102760292609252 9.649402212563853,8.084916637662591 18.623241847120788,5.270059140745312" style="fill:none;stroke:black;stroke-width:1"/>
<polygon points="9.970546930000166,8.155132043983649 9.80911812373052,8.102760292609252 18.623241847120788,5.270059140745312" style="fill:none;stroke:black;stroke-width:1"/>
<polygon points="10.271342584227146,8.367514486580925 10.127780352845724,8.244210946420981 18.623241847120788,5.270059140745312" style="fill:none;stroke:black;stroke-width:1"/>
<polygon points="10.386895413673358,8.517581637063122 10.271342584227146,8.367514486580925 18.623241847120788,5.270059140745312" style="fill:none;stroke:black;stroke-width:1"/>
<polygon points="9.145403101722668,8.311625277234503 9.529768237800152,10.417817500078998 9.058437966375397,8.408258434032486" style="fill:none;stroke:black;stroke-width:1"/>
<polygon points="9.529768237800152,10.417817500078998 9.433196129359075,10.515971862434414 9.058437966375397,8.408258434032486" style="fill:none;stroke:black;stroke-width:1"/>
<polygon points="9.529768237800152,10.417817500078998 9.145403101722668,8.311625277234503 9.239617429609998,8.21676367029012" style="fill:none;stroke:black;stroke-width:1"/>
<polygon points="9.433196129359075,10.515971862434414 9.529768237800152,10.417817500078998 10.02197710238526,9.80945683566406" style="fill:none;stroke:black;stroke-width:1"/>
<polygon points="8.589089355423333,10.677508444894656 8.38496969384658,9.157338838080099 8.784198952015805,10.698388314879532" style="fill:none;stroke:black;stroke-width:1"/>
<polygon points="8.38496969384658,9.157338838080099 8.589089355423333,10.677508444894656 8.280887664383865,9.276392098263292" style="fill:none;stroke:black;stroke-width:1"/>
<polygon points="9.149223431986032,10.656084626031928 8.589089355423333,10.677508444894656 8.784198952015805,10.698388314879532" style="fill:none;stroke:black;stroke-width:1"/>
<polygon points="9.304595780423792,10.597301570290902 8.589089355423333,10.677508444894656 9.149223431986032,10.656084626031928" style="fill:none;stroke:black;stroke-width:1"/>
<polygon points="8.392413793103447,10.629310344827585 8.589089355423333,10.677508444894656 9.304595780423792,10.597301570290902" style="fill:none;stroke:black;stroke-width:1"/>
<polygon points="8.280887664383865,9.276392098263292 8.175180651266777,9.398871663018195 17.28533755128862,4.6262383351079555" style="fill:none;stroke:black;stroke-width:1"/>
<polygon points="8.589089355423333,10.677508444894656 8.175180651266777,9.398871663018195 8.280887664383865,9.276392098263292" style="fill:none;stroke:black;stroke-width:1"/>
<polygon points="8.175180651266777,9.398871663018195 8.589089355423333,10.677508444894656 8.392413793103447,10.629310344827585" style="fill:none;stroke:black;stroke-width:1"/>
<polygon points="12.874786227139518,6.303957728735439 21.615465513840423,17.506011219460397 18.792976250546218,6.157182058269246" style="fill:none;stroke:black;stroke-width:1"/>
<polygon points="21.615465513840423,17.506011219460397 18.936090385469726,21.05765899332303 18.792976250546218,6.157182058269246" style="fill:none;stroke:black;stroke-width:1"/>
<polygon points="16.985531811669528,11.468958100765965 20.77922474986465,13.803991997214917 18.792976250546218,6.157182058269246" style="fill:none;stroke:black;stroke-width:1"/>
<polygon points="12.801182583561346,13.128676954169173 16.985531811669528,11.468958100765965 18.792976250546218,6.157182058269246" style="fill:none;stroke:black;stroke-width:1"/>
<polygon points="14.347567296590542,21.07043555702715 11.61490756092242,17.505058579558117 18.792976250546218,6.157182058269246" style="fill:none;stroke:black;stroke-width:1"/>
<polygon points="11.61490756092242,17.505058579558117 12.801182583561346,13.128676954169173 18.792976250546218,6.157182058269246" style="fill:none;stroke:black;stroke-width:1"/>
<polygon points="9.051823155479056,17.26845463468296 11.18831876639456,20.14818550511078 17.752359994171123,6.085959069490068" style="fill:none;stroke:black;stroke-width:1"/>
<polygon points="5.529813254354024,17.884786727223062 9.051823155479056,17.26845463468296 17.752359994171123,6.085959069490068" style="fill:none;stroke:black;stroke-width:1"/>
<polygon points="10.282993309199494,25.54901762310513 7.107772080637712,22.260861375916537 17.752359994171123,6.085959069490068" style="fill:none;stroke:black;stroke-width:1"/>
<polygon points="7.107772080637712,22.260861375916537 5.529813254354024,17.884786727223062 17.752359994171123,6.085959069490068" style="fill:none;stroke:black;stroke-width:1"/>
<polygon points="22.800991778643404,22.212806787395085 22.623634331298664,22.217931034482756 22.130778999080587,20.736703225276283" style="fill:none;stroke:black;stroke-width:1"/>
<polygon points="22.623634331298664,22.217931034482756 22.077357966346586,20.877712157937957 22.130778999080587,20.736703225276283" style="fill:none;stroke:black;stroke-width:1"/>
<polygon points="22.623634331298664,22.217931034482756 22.800991778643404,22.212806787395085 18.042940264498608,8.393428215867411" style="fill:none;stroke:black;stroke-width:1"/>
<polygon points="22.444219132703605,22.181493827210062 22.623634331298664,22.217931034482756 18.042940264498608,8.393428215867411" style="fill:none;stroke:black;stroke-width:1"/>
<polygon points="22.623634331298664,22.217931034482756 22.444219132703605,22.181493827210062 22.284884737956205,22.10580153798467" style="fill:none;stroke:black;stroke-width:1"/>
<polygon points="23.100102323780636,19.26254949237814 23.272224238487333,19.23026819651893 23.88541964877111,20.83718507531541" style="fill:none;stroke:black;stroke-width:1"/>
<polygon points="23.93838220726692,20.69945682279603 23.272224238487333,19.23026819651893 23.452413793103446,19.228275862068966" style="fill:none;stroke:black;stroke-width:1"/>
<polygon points="23.272224238487333,19.23026819651893 23.93838220726692,20.69945682279603 23.88541964877111,20.83718507531541" style="fill:none;stroke:black;stroke-width:1"/>
<polygon points="23.272224238487333,19.23026819651893 4.672975153662606,20.389575817474995 23.452413793103446,19.228275862068966" style="fill:none;stroke:black;stroke-width:1"/>
<polygon points="23.272224238487333,19.23026819651893 23.100102323780636,19.26254949237814 4.672975153662606,20.389575817474995" style="fill:none;stroke:black;stroke-width:1"/>
<polygon points="12.996870602178983,24.496471361968926 13.074014676859527,24.414577773352537 16.98385828429556,6.202223624119519" style="fill:none;stroke:black;stroke-width:1"/>
<polygon points="18.231358421995058,6.21100017382531 12.690245634949314,24.639255883310717 16.98385828429556,6.202223624119519" style="fill:none;stroke:black;stroke-width:1"/>
<polygon points="12.690245634949314,24.639255883310717 12.79580985778342,24.59857931191724 16.98385828429556,6.202223624119519" style="fill:none;stroke:black;stroke-width:1"/>
<polygon points="13.042199172243771,23.738193336562798 12.946375004334474,23.6499672483517 17.655820910674176,6.293213408831978" style="fill:none;stroke:black;stroke-width:1"/>
<polygon points="12.946375004334474,23.6499672483517 12.83346023121086,23.58358181612524 17.655820910674176,6.293213408831978" style="fill:none;stroke:black;stroke-width:1"/>
<polygon points="12.70803235458872,23.54118050772023 12.574621904683742,23.52488096817279 17.655820910674176,6.293213408831978" style="fill:none;stroke:black;stroke-width:1"/>
<polygon points="12.83346023121086,23.58358181612524 12.70803235458872,23.54118050772023 17.655820910674176,6.293213408831978" style="fill:none;stroke:black;stroke-width:1"/>
<polygon points="11.464765942299278,23.960017679920682 11.355933378426286,24.0066393415937 17.628965465141075,7.567817444763106" style="fill:none;stroke:black;stroke-width:1"/>
<polygon points="11.355933378426286,24.0066393415937 11.248922001761102,24.050391271421418 17.628965465141075,7.567817444763106" style="fill:none;stroke:black;stroke-width:1"/>
<polygon points="22.623634331298664,22.217931034482756 22.027282290191923,21.029162348535735 22.077357966346586,20.877712157937957" style="fill:none;stroke:black;stroke-width:1"/>
<polygon points="22.027282290191923,21.029162348535735 22.284884737956205,22.10580153798467 21.982859810738322,21.189645912718724" style="fill:none;stroke:black;stroke-width:1"/>
<polygon points="22.027282290191923,21.029162348535735 22.623634331298664,22.217931034482756 22.284884737956205,22.10580153798467" style="fill:none;stroke:black;stroke-width:1"/>
<polygon points="11.143357778926996,24.091067842814894 11.037499114494068,24.132138596159287 21.982859810738322,21.189645912718724" style="fill:none;stroke:black;stroke-width:1"/>
<polygon points="11.037499114494068,24.132138596159287 22.027282290191923,21.029162348535735 21.982859810738322,21.189645912718724" style="fill:none;stroke:black;stroke-width:1"/>
<polygon points="22.027282290191923,21.029162348535735 11.037499114494068,24.132138596159287 10.942682994497096,24.19406788644076" style="fill:none;stroke:black;stroke-width:1"/>
<polygon points="10.764927272886087,24.603452512164147 22.183741557576397,20.5989749727569 22.130778999080587,20.736703225276283" style="fill:none;stroke:black;stroke-width:1"/>
<polygon points="9.358743307510762,8.144097384612918 9.613776654512307,10.323603442905227 9.239617429609998,8.21676367029012" style="fill:none;stroke:black;stroke-width:1"/>
<polygon points="9.613776654512307,10.323603442905227 9.529768237800152,10.417817500078998 9.239617429609998,8.21676367029012" style="fill:none;stroke:black;stroke-width:1"/>
<polygon points="9.529768237800152,10.417817500078998 9.613776654512307,10.323603442905227 10.02197710238526,9.80945683566406" style="fill:none;stroke:black;stroke-width:1"/>
<polygon points="8.068642895028809,9.528793345731682 8.392413793103447,10.629310344827585 7.97237897551336,9.685745241471379" style="fill:none;stroke:black;stroke-width:1"/>
<polygon points="8.068642895028809,9.528793345731682 8.175180651266777,9.398871663018195 8.392413793103447,10.629310344827585" style="fill:none;stroke:black;stroke-width:1"/>
<polygon points="8.068642895028809,9.528793345731682 7.97237897551336,9.685745241471379 17.28533755128862,4.6262383351079555" style="fill:none;stroke:black;stroke-width:1"/>
<polygon points="8.175180651266777,9.398871663018195 8.068642895028809,9.528793345731682 17.28533755128862,4.6262383351079555" style="fill:none;stroke:black;stroke-width:1"/>
<polygon points="12.79580985778342,24.59857931191724 12.901685733616137,24.557822736138178 16.98385828429556,6.202223624119519" style="fill:none;stroke:black;stroke-width:1"/>
<polygon points="12.901685733616137,24.557822736138178 12.996870602178983,24.496471361968926 16.98385828429556,6.202223624119519" style="fill:none;stroke:black;stroke-width:1"/>
<polygon points="12.58323425828413,24.683007813138435 18.231358421995058,6.21100017382531 12.474401694411139,24.729629474811457" style="fill:none;stroke:black;stroke-width:1"/>
<polygon points="12.58323425828413,24.683007813138435 12.690245634949314,24.639255883310717 18.231358421995058,6.21100017382531" style="fill:none;stroke:black;stroke-width:1"/>
<polygon points="13.116311868562304,23.846085106651536 13.042199172243771,23.738193336562798 17.655820910674176,6.293213408831978" style="fill:none;stroke:black;stroke-width:1"/>
<polygon points="13.161038606127649,23.966915805921204 13.116311868562304,23.846085106651536 17.655820910674176,6.293213408831978" style="fill:none;stroke:black;stroke-width:1"/>
<polygon points="13.176651613832755,24.088442623814636 13.161038606127649,23.966915805921204 17.655820910674176,6.293213408831978" style="fill:none;stroke:black;stroke-width:1"/>
<polygon points="11.68924171334551,23.859209997731778 11.575765005546618,23.91077717037678 17.546426017829123,6.888460874561691" style="fill:none;stroke:black;stroke-width:1"/>
<polygon points="11.805468136938494,23.805645039622434 11.68924171334551,23.859209997731778 17.546426017829123,6.888460874561691" style="fill:none;stroke:black;stroke-width:1"/>
<polygon points="12.047037986334182,23.693989125439234 11.92467298290746,23.750442679955704 17.546426017829123,6.888460874561691" style="fill:none;stroke:black;stroke-width:1"/>
<polygon points="11.92467298290746,23.750442679955704 11.805468136938494,23.805645039622434 17.546426017829123,6.888460874561691" style="fill:none;stroke:black;stroke-width:1"/>
<polygon points="12.574621904683742,23.52488096817279 12.437709574140726,23.536781110428826 17.546426017829123,6.888460874561691" style="fill:none;stroke:black;stroke-width:1"/>
<polygon points="12.437709574140726,23.536781110428826 12.301724137931036,23.57896551724138 17.546426017829123,6.888460874561691" style="fill:none;stroke:black;stroke-width:1"/>
<polygon points="12.172695044729558,23.636690314870883 12.047037986334182,23.693989125439234 17.546426017829123,6.888460874561691" style="fill:none;stroke:black;stroke-width:1"/>
<polygon points="12.301724137931036,23.57896551724138 12.172695044729558,23.636690314870883 17.546426017829123,6.888460874561691" style="fill:none;stroke:black;stroke-width:1"/>
<polygon points="22.077357966346586,20.877712157937957 10.775023747790996,24.485362858209626 22.130778999080587,20.736703225276283" style="fill:none;stroke:black;stroke-width:1"/>
<polygon points="10.775023747790996,24.485362858209626 10.764927272886087,24.603452512164147 22.130778999080587,20.736703225276283" style="fill:none;stroke:black;stroke-width:1"/>
<polygon points="22.183741557576397,20.5989749727569 10.781184177046704,24.72507935772991 22.236704116072207,20.46124672023752" style="fill:none;stroke:black;stroke-width:1"/>
<polygon points="10.764927272886087,24.603452512164147 10.781184177046704,24.72507935772991 22.183741557576397,20.5989749727569" style="fill:none;stroke:black;stroke-width:1"/>
<polygon points="22.236704116072207,20.46124672023752 10.781184177046704,24.72507935772991 22.289666674568018,20.32351846771813" style="fill:none;stroke:black;stroke-width:1"/>
<polygon points="9.693639578071211,10.232329533575575 9.358743307510762,8.144097384612918 9.49730775449299,8.099422021033778" style="fill:none;stroke:black;stroke-width:1"/>
<polygon points="9.693639578071211,10.232329533575575 9.613776654512307,10.323603442905227 9.358743307510762,8.144097384612918" style="fill:none;stroke:black;stroke-width:1"/>
<polygon points="9.693639578071211,10.232329533575575 9.49730775449299,8.099422021033778 9.649402212563853,8.084916637662591" style="fill:none;stroke:black;stroke-width:1"/>
<polygon points="9.613776654512307,10.323603442905227 9.693639578071211,10.232329533575575 10.02197710238526,9.80945683566406" style="fill:none;stroke:black;stroke-width:1"/>
<polygon points="13.131065255946059,24.316448524171083 13.16596627205027,24.20633667240885 17.655820910674176,6.293213408831978" style="fill:none;stroke:black;stroke-width:1"/>
<polygon points="13.16596627205027,24.20633667240885 13.176651613832755,24.088442623814636 17.655820910674176,6.293213408831978" style="fill:none;stroke:black;stroke-width:1"/>
<polygon points="22.027282290191923,21.029162348535735 10.865962697960356,24.276443813481386 22.077357966346586,20.877712157937957" style="fill:none;stroke:black;stroke-width:1"/>
<polygon points="10.865962697960356,24.276443813481386 22.027282290191923,21.029162348535735 10.942682994497096,24.19406788644076" style="fill:none;stroke:black;stroke-width:1"/>
<polygon points="10.826095332580955,24.84644064030171 22.342629233063832,20.185790215198747 22.289666674568018,20.32351846771813" style="fill:none;stroke:black;stroke-width:1"/>
<polygon points="10.781184177046704,24.72507935772991 10.826095332580955,24.84644064030171 22.289666674568018,20.32351846771813" style="fill:none;stroke:black;stroke-width:1"/>
<polygon points="22.342629233063832,20.185790215198747 10.826095332580955,24.84644064030171 22.39559179155964,20.048061962679366" style="fill:none;stroke:black;stroke-width:1"/>
<polygon points="9.80911812373052,8.102760292609252 9.769105731443101,10.143692761549326 9.649402212563853,8.084916637662591" style="fill:none;stroke:black;stroke-width:1"/>
<polygon points="9.769105731443101,10.143692761549326 9.693639578071211,10.232329533575575 9.649402212563853,8.084916637662591" style="fill:none;stroke:black;stroke-width:1"/>
<polygon points="9.693639578071211,10.232329533575575 9.769105731443101,10.143692761549326 10.02197710238526,9.80945683566406" style="fill:none;stroke:black;stroke-width:1"/>
<polygon points="10.809390926595553,24.37495982339911 10.775023747790996,24.485362858209626 22.077357966346586,20.877712157937957" style="fill:none;stroke:black;stroke-width:1"/>
<polygon points="10.865962697960356,24.276443813481386 10.809390926595553,24.37495982339911 22.077357966346586,20.877712157937957" style="fill:none;stroke:black;stroke-width:1"/>
<polygon points="10.898596481681844,24.95568384610289 22.501553723835343,19.772505611602845 22.448554350055453,19.91033371015998" style="fill:none;stroke:black;stroke-width:1"/>
<polygon points="22.501553723835343,19.772505611602845 10.898596481681844,24.95568384610289 10.993102166098295,25.044282670637486" style="fill:none;stroke:black;stroke-width:1"/>
<polygon points="22.39559179155964,20.048061962679366 10.898596481681844,24.95568384610289 22.448554350055453,19.91033371015998" style="fill:none;stroke:black;stroke-width:1"/>
<polygon points="10.826095332580955,24.84644064030171 10.898596481681844,24.95568384610289 22.39559179155964,20.048061962679366" style="fill:none;stroke:black;stroke-width:1"/>
<polygon points="9.839923837594217,10.057390116285765 9.80911812373052,8.102760292609252 9.970546930000166,8.155132043983649" style="fill:none;stroke:black;stroke-width:1"/>
<polygon points="9.839923837594217,10.057390116285765 9.769105731443101,10.143692761549326 9.80911812373052,8.102760292609252" style="fill:none;stroke:black;stroke-width:1"/>
<polygon points="9.839923837594217,10.057390116285765 9.970546930000166,8.155132043983649 10.127780352845724,8.244210946420981" style="fill:none;stroke:black;stroke-width:1"/>
<polygon points="9.769105731443101,10.143692761549326 9.96661080009906,9.890575163883847 10.02197710238526,9.80945683566406" style="fill:none;stroke:black;stroke-width:1"/>
<polygon points="9.839923837594217,10.057390116285765 9.96661080009906,9.890575163883847 9.769105731443101,10.143692761549326" style="fill:none;stroke:black;stroke-width:1"/>
<polygon points="9.96661080009906,9.890575163883847 10.386895413673358,8.517581637063122 10.02197710238526,9.80945683566406" style="fill:none;stroke:black;stroke-width:1"/>
<polygon points="9.96661080009906,9.890575163883847 10.271342584227146,8.367514486580925 10.386895413673358,8.517581637063122" style="fill:none;stroke:black;stroke-width:1"/>
<polygon points="10.271342584227146,8.367514486580925 9.905842619490791,9.973118587244176 10.127780352845724,8.244210946420981" style="fill:none;stroke:black;stroke-width:1"/>
<polygon points="9.96661080009906,9.890575163883847 9.905842619490791,9.973118587244176 10.271342584227146,8.367514486580925" style="fill:none;stroke:black;stroke-width:1"/>
<polygon points="9.905842619490791,9.973118587244176 9.839923837594217,10.057390116285765 10.127780352845724,8.244210946420981" style="fill:none;stroke:black;stroke-width:1"/>
<polygon points="9.905842619490791,9.973118587244176 9.96661080009906,9.890575163883847 9.839923837594217,10.057390116285765" style="fill:none;stroke:black;stroke-width:1"/>
<polygon points="11.892129650376233,24.9956580292929 24.448735216986716,23.872704221229245 11.766472591980857,25.052956839861256" style="fill:none;stroke:black;stroke-width:1"/>
<polygon points="11.766472591980857,25.052956839861256 24.448735216986716,23.872704221229245 20.78980160584231,26.63058644007439" style="fill:none;stroke:black;stroke-width:1"/>
<polygon points="11.364592133627486,25.166798772458915 25.19083967453757,8.45252810212358 21.528725084623616,5.7709698684571755" style="fill:none;stroke:black;stroke-width:1"/>
<polygon points="11.364592133627486,25.166798772458915 21.528725084623616,5.7709698684571755 11.230460614436026,25.151752309351394" style="fill:none;stroke:black;stroke-width:1"/>
<polygon points="27.618323191149994,12.297271162731946 11.364592133627486,25.166798772458915 11.503458304730387,25.153562362484045" style="fill:none;stroke:black;stroke-width:1"/>
<polygon points="11.364592133627486,25.166798772458915 27.618323191149994,12.297271162731946 25.19083967453757,8.45252810212358" style="fill:none;stroke:black;stroke-width:1"/>
<polygon points="17.00046760798845,4.620090645924363 11.105184913054675,25.110280520699067 11.230460614436026,25.151752309351394" style="fill:none;stroke:black;stroke-width:1"/>
<polygon points="21.528725084623616,5.7709698684571755 17.00046760798845,4.620090645924363 11.230460614436026,25.151752309351394" style="fill:none;stroke:black;stroke-width:1"/>
<polygon points="11.105184913054675,25.110280520699067 17.00046760798845,4.620090645924363 10.993102166098295,25.044282670637486" style="fill:none;stroke:black;stroke-width:1"/>
<polygon points="17.00046760798845,4.620090645924363 12.212267917188868,5.290757299355948 10.993102166098295,25.044282670637486" style="fill:none;stroke:black;stroke-width:1"/>
<polygon points="19.582639694350384,28.742483621661076 28.43689655172414,16.925172413793103 23.782778665393124,26.770993364118947" style="fill:none;stroke:black;stroke-width:1"/>
<polygon points="28.43689655172414,16.925172413793103 4.215360535911342,15.66068130496282 5.503784567765442,11.177431619585205" style="fill:none;stroke:black;stroke-width:1"/>
<polygon points="22.27937218690082,18.45235783517041 28.43689655172414,16.925172413793103 25.456563872485596,17.624056390452736" style="fill:none;stroke:black;stroke-width:1"/>
<polygon points="28.43689655172414,16.925172413793103 4.672975153662606,20.389575817474995 4.215360535911342,15.66068130496282" style="fill:none;stroke:black;stroke-width:1"/>
<polygon points="28.43689655172414,16.925172413793103 21.281815525297073,12.489541495676672 23.47787603091185,16.498431554013724" style="fill:none;stroke:black;stroke-width:1"/>
<polygon points="28.43689655172414,16.925172413793103 26.350935236798072,11.814436827875356 23.44159729222309,8.306869011434905" style="fill:none;stroke:black;stroke-width:1"/>
<polygon points="28.43689655172414,16.925172413793103 12.874786227139518,6.303957728735439 9.019000918342119,8.77696726864084" style="fill:none;stroke:black;stroke-width:1"/>
<polygon points="19.306397395258532,6.2618232378655225 28.43689655172414,16.925172413793103 23.44159729222309,8.306869011434905" style="fill:none;stroke:black;stroke-width:1"/>
<polygon points="28.43689655172414,16.925172413793103 17.00046760798845,4.620090645924363 21.528725084623616,5.7709698684571755" style="fill:none;stroke:black;stroke-width:1"/>
<polygon points="27.202379787311504,15.806663898257327 28.43689655172414,16.925172413793103 23.47787603091185,16.498431554013724" style="fill:none;stroke:black;stroke-width:1"/>
<polygon points="17.194282249586035,10.469928647807594 28.43689655172414,16.925172413793103 12.785236078665529,11.783499862116834" style="fill:none;stroke:black;stroke-width:1"/>
<polygon points="6.49500629576402,12.60722017088702 28.43689655172414,16.925172413793103 9.019000918342119,8.77696726864084" style="fill:none;stroke:black;stroke-width:1"/>
<polygon points="28.43689655172414,16.925172413793103 10.475175144544899,15.662743653199776 12.785236078665529,11.783499862116834" style="fill:none;stroke:black;stroke-width:1"/>
<polygon points="28.43689655172414,16.925172413793103 14.59831245957912,27.291399812268146 20.77922474986465,13.803991997214917" style="fill:none;stroke:black;stroke-width:1"/>
<polygon points="28.43689655172414,16.925172413793103 10.287065295870054,27.46272672790916 6.822356855600889,24.470453747396803" style="fill:none;stroke:black;stroke-width:1"/>
<polygon points="28.43689655172414,16.925172413793103 14.921951435100828,22.680183085834734 11.18831876639456,20.14818550511078" style="fill:none;stroke:black;stroke-width:1"/>
<polygon points="28.43689655172414,16.925172413793103 26.698487408850923,19.842482846261895 25.456563872485596,17.624056390452736" style="fill:none;stroke:black;stroke-width:1"/>
<polygon points="24.448735216986716,23.872704221229245 28.43689655172414,16.925172413793103 20.78980160584231,26.63058644007439" style="fill:none;stroke:black;stroke-width:1"/>
<polygon points="28.43689655172414,16.925172413793103 26.869357650308977,23.44476600146714 23.782778665393124,26.770993364118947" style="fill:none;stroke:black;stroke-width:1"/>
<polygon points="21.281815525297073,12.489541495676672 28.43689655172414,16.925172413793103 17.194282249586035,10.469928647807594" style="fill:none;stroke:black;stroke-width:1"/>
<polygon points="28.43689655172414,16.925172413793103 6.49500629576402,12.60722017088702 6.6172851414173355,15.992137085344313" style="fill:none;stroke:black;stroke-width:1"/>
<polygon points="10.475175144544899,15.662743653199776 28.43689655172414,16.925172413793103 6.6172851414173355,15.992137085344313" style="fill:none;stroke:black;stroke-width:1"/>
<polygon points="8.268576224722262,7.598608916202736 28.43689655172414,16.925172413793103 5.503784567765442,11.177431619585205" style="fill:none;stroke:black;stroke-width:1"/>
<polygon points="28.43689655172414,16.925172413793103 21.615465513840423,17.506011219460397 12.874786227139518,6.303957728735439" style="fill:none;stroke:black;stroke-width:1"/>
<polygon points="4.672975153662606,20.389575817474995 28.43689655172414,16.925172413793103 6.822356855600889,24.470453747396803" style="fill:none;stroke:black;stroke-width:1"/>
<polygon points="28.43689655172414,16.925172413793103 11.61490756092242,17.505058579558117 14.347567296590542,21.07043555702715" style="fill:none;stroke:black;stroke-width:1"/>
<polygon points="25.19083967453757,8.45252810212358 28.43689655172414,16.925172413793103 21.528725084623616,5.7709698684571755" style="fill:none;stroke:black;stroke-width:1"/>
<polygon points="27.618323191149994,12.297271162731946 28.43689655172414,16.925172413793103 25.19083967453757,8.45252810212358" style="fill:none;stroke:black;stroke-width:1"/>
<polygon points="14.921951435100828,22.680183085834734 28.43689655172414,16.925172413793103 19.49160673637838,21.97096854716844" style="fill:none;stroke:black;stroke-width:1"/>
<polygon points="28.43689655172414,16.925172413793103 22.27937218690082,18.45235783517041 19.49160673637838,21.97096854716844" style="fill:none;stroke:black;stroke-width:1"/>
<polygon points="28.43689655172414,16.925172413793103 24.448735216986716,23.872704221229245 26.698487408850923,19.842482846261895" style="fill:none;stroke:black;stroke-width:1"/>
<polygon points="26.350935236798072,11.814436827875356 28.43689655172414,16.925172413793103 27.202379787311504,15.806663898257327" style="fill:none;stroke:black;stroke-width:1"/>
<polygon points="26.869357650308977,23.44476600146714 28.43689655172414,16.925172413793103 28.544184494644224,19.13015960160966" style="fill:none;stroke:black;stroke-width:1"/>
<polygon points="28.43689655172414,16.925172413793103 19.306397395258532,6.2618232378655225 28.544184494644224,19.13015960160966" style="fill:none;stroke:black;stroke-width:1"/>
<polygon points="18.936090385469726,21.05765899332303 28.43689655172414,16.925172413793103 14.347567296590542,21.07043555702715" style="fill:none;stroke:black;stroke-width:1"/>
<polygon points="16.985531811669528,11.468958100765965 28.43689655172414,16.925172413793103 20.77922474986465,13.803991997214917" style="fill:none;stroke:black;stroke-width:1"/>
<polygon points="14.59831245957912,27.291399812268146 28.43689655172414,16.925172413793103 10.282993309199494,25.54901762310513" style="fill:none;stroke:black;stroke-width:1"/>
<polygon points="9.051823155479056,17.26845463468296 28.43689655172414,16.925172413793103 11.18831876639456,20.14818550511078" style="fill:none;stroke:black;stroke-width:1"/>
<polygon points="10.287065295870054,27.46272672790916 28.43689655172414,16.925172413793103 14.698961009544691,28.99856256563699" style="fill:none;stroke:black;stroke-width:1"/>
<polygon points="28.43689655172414,16.925172413793103 19.582639694350384,28.742483621661076 14.698961009544691,28.99856256563699" style="fill:none;stroke:black;stroke-width:1"/>
<polygon points="28.43689655172414,16.925172413793103 7.107772080637712,22.260861375916537 10.282993309199494,25.54901762310513" style="fill:none;stroke:black;stroke-width:1"/>
<polygon points="17.00046760798845,4.620090645924363 28.43689655172414,16.925172413793103 12.212267917188868,5.290757299355948" style="fill:none;stroke:black;stroke-width:1"/>
<polygon points="28.43689655172414,16.925172413793103 8.268576224722262,7.598608916202736 12.212267917188868,5.290757299355948" style="fill:none;stroke:black;stroke-width:1"/>
<polygon points="21.615465513840423,17.506011219460397 28.43689655172414,16.925172413793103 18.936090385469726,21.05765899332303" style="fill:none;stroke:black;stroke-width:1"/>
<polygon points="28.43689655172414,16.925172413793103 16.985531811669528,11.468958100765965 12.801182583561346,13.128676954169173" style="fill:none;stroke:black;stroke-width:1"/>
<polygon points="11.61490756092242,17.505058579558117 28.43689655172414,16.925172413793103 12.801182583561346,13.128676954169173" style="fill:none;stroke:black;stroke-width:1"/>
<polygon points="28.43689655172414,16.925172413793103 9.051823155479056,17.26845463468296 5.529813254354024,17.884786727223062" style="fill:none;stroke:black;stroke-width:1"/>
<polygon points="7.107772080637712,22.260861375916537 28.43689655172414,16.925172413793103 5.529813254354024,17.884786727223062" style="fill:none;stroke:black;stroke-width:1"/>
<polygon points="28.43689655172414,16.925172413793103 11.637738370397624,25.11101671261733 11.766472591980857,25.052956839861256" style="fill:none;stroke:black;stroke-width:1"/>
<polygon points="28.43689655172414,16.925172413793103 11.766472591980857,25.052956839861256 20.78980160584231,26.63058644007439" style="fill:none;stroke:black;stroke-width:1"/>
<polygon points="11.637738370397624,25.11101671261733 28.43689655172414,16.925172413793103 11.503458304730387,25.153562362484045" style="fill:none;stroke:black;stroke-width:1"/>
<polygon points="28.43689655172414,16.925172413793103 27.618323191149994,12.297271162731946 11.503458304730387,25.153562362484045" style="fill:none;stroke:black;stroke-width:1"/>
<polygon points="10.898596481681844,24.95568384610289 12.474401694411139,24.729629474811457 12.363402631163796,24.778869984355357" style="fill:none;stroke:black;stroke-width:1"/>
<polygon points="12.24992592336491,24.83043715700036 10.898596481681844,24.95568384610289 12.363402631163796,24.778869984355357" style="fill:none;stroke:black;stroke-width:1"/>
<polygon points="10.898596481681844,24.95568384610289 11.92467298290746,23.750442679955704 12.047037986334182,23.693989125439234" style="fill:none;stroke:black;stroke-width:1"/>
<polygon points="10.898596481681844,24.95568384610289 11.105184913054675,25.110280520699067 10.993102166098295,25.044282670637486" style="fill:none;stroke:black;stroke-width:1"/>
<polygon points="10.898596481681844,24.95568384610289 12.13369949977192,24.884002115109702 12.014494653802956,24.93920447477643" style="fill:none;stroke:black;stroke-width:1"/>
<polygon points="11.892129650376233,24.9956580292929 10.898596481681844,24.95568384610289 12.014494653802956,24.93920447477643" style="fill:none;stroke:black;stroke-width:1"/>
<polygon points="10.898596481681844,24.95568384610289 12.58323425828413,24.683007813138435 12.474401694411139,24.729629474811457" style="fill:none;stroke:black;stroke-width:1"/>
<polygon points="10.898596481681844,24.95568384610289 11.637738370397624,25.11101671261733 11.503458304730387,25.153562362484045" style="fill:none;stroke:black;stroke-width:1"/>
<polygon points="11.105184913054675,25.110280520699067 10.898596481681844,24.95568384610289 11.230460614436026,25.151752309351394" style="fill:none;stroke:black;stroke-width:1"/>
<polygon points="11.364592133627486,25.166798772458915 10.898596481681844,24.95568384610289 11.503458304730387,25.153562362484045" style="fill:none;stroke:black;stroke-width:1"/>
<polygon points="10.898596481681844,24.95568384610289 11.464765942299278,23.960017679920682 11.575765005546618,23.91077717037678" style="fill:none;stroke:black;stroke-width:1"/>
<polygon points="12.13369949977192,24.884002115109702 10.898596481681844,24.95568384610289 12.24992592336491,24.83043715700036" style="fill:none;stroke:black;stroke-width:1"/>
<polygon points="11.637738370397624,25.11101671261733 10.898596481681844,24.95568384610289 11.766472591980857,25.052956839861256" style="fill:none;stroke:black;stroke-width:1"/>
<polygon points="10.898596481681844,24.95568384610289 11.892129650376233,24.9956580292929 11.766472591980857,25.052956839861256" style="fill:none;stroke:black;stroke-width:1"/>
<polygon points="12.996870602178983,24.496471361968926 10.898596481681844,24.95568384610289 13.074014676859527,24.414577773352537" style="fill:none;stroke:black;stroke-width:1"/>
<polygon points="10.898596481681844,24.95568384610289 12.901685733616137,24.557822736138178 12.79580985778342,24.59857931191724" style="fill:none;stroke:black;stroke-width:1"/>
<polygon points="12.70803235458872,23.54118050772023 10.898596481681844,24.95568384610289 12.574621904683742,23.52488096817279" style="fill:none;stroke:black;stroke-width:1"/>
<polygon points="10.898596481681844,24.95568384610289 11.364592133627486,25.166798772458915 11.230460614436026,25.151752309351394" style="fill:none;stroke:black;stroke-width:1"/>
<polygon points="10.898596481681844,24.95568384610289 11.037499114494068,24.132138596159287 11.143357778926996,24.091067842814894" style="fill:none;stroke:black;stroke-width:1"/>
<polygon points="10.898596481681844,24.95568384610289 13.131065255946059,24.316448524171083 13.074014676859527,24.414577773352537" style="fill:none;stroke:black;stroke-width:1"/>
<polygon points="10.898596481681844,24.95568384610289 12.946375004334474,23.6499672483517 13.042199172243771,23.738193336562798" style="fill:none;stroke:black;stroke-width:1"/>
<polygon points="10.898596481681844,24.95568384610289 10.865962697960356,24.276443813481386 10.942682994497096,24.19406788644076" style="fill:none;stroke:black;stroke-width:1"/>
<polygon points="11.248922001761102,24.050391271421418 10.898596481681844,24.95568384610289 11.143357778926996,24.091067842814894" style="fill:none;stroke:black;stroke-width:1"/>
<polygon points="10.898596481681844,24.95568384610289 11.355933378426286,24.0066393415937 11.464765942299278,23.960017679920682" style="fill:none;stroke:black;stroke-width:1"/>
<polygon points="10.898596481681844,24.95568384610289 13.16596627205027,24.20633667240885 13.131065255946059,24.316448524171083" style="fill:none;stroke:black;stroke-width:1"/>
<polygon points="12.690245634949314,24.639255883310717 10.898596481681844,24.95568384610289 12.79580985778342,24.59857931191724" style="fill:none;stroke:black;stroke-width:1"/>
<polygon points="13.116311868562304,23.846085106651536 10.898596481681844,24.95568384610289 13.042199172243771,23.738193336562798" style="fill:none;stroke:black;stroke-width:1"/>
<polygon points="12.946375004334474,23.6499672483517 10.898596481681844,24.95568384610289 12.83346023121086,23.58358181612524" style="fill:none;stroke:black;stroke-width:1"/>
<polygon points="10.898596481681844,24.95568384610289 12.70803235458872,23.54118050772023 12.83346023121086,23.58358181612524" style="fill:none;stroke:black;stroke-width:1"/>
<polygon points="11.68924171334551,23.859209997731778 10.898596481681844,24.95568384610289 11.575765005546618,23.91077717037678" style="fill:none;stroke:black;stroke-width:1"/>
<polygon points="10.898596481681844,24.95568384610289 12.437709574140726,23.536781110428826 12.574621904683742,23.52488096817279" style="fill:none;stroke:black;stroke-width:1"/>
<polygon points="11.355933378426286,24.0066393415937 10.898596481681844,24.95568384610289 11.248922001761102,24.050391271421418" style="fill:none;stroke:black;stroke-width:1"/>
<polygon points="11.037499114494068,24.132138596159287 10.898596481681844,24.95568384610289 10.942682994497096,24.19406788644076" style="fill:none;stroke:black;stroke-width:1"/>
<polygon points="12.172695044729558,23.636690314870883 10.898596481681844,24.95568384610289 12.047037986334182,23.693989125439234" style="fill:none;stroke:black;stroke-width:1"/>
<polygon points="12.901685733616137,24.557822736138178 10.898596481681844,24.95568384610289 12.996870602178983,24.496471361968926" style="fill:none;stroke:black;stroke-width:1"/>
<polygon points="12.58323425828413,24.683007813138435 10.898596481681844,24.95568384610289 12.690245634949314,24.639255883310717" style="fill:none;stroke:black;stroke-width:1"/>
<polygon points="10.898596481681844,24.95568384610289 13.116311868562304,23.846085106651536 13.161038606127649,23.966915805921204" style="fill:none;stroke:black;stroke-width:1"/>
<polygon points="13.176651613832755,24.088442623814636 10.898596481681844,24.95568384610289 13.161038606127649,23.966915805921204" style="fill:none;stroke:black;stroke-width:1"/>
<polygon points="10.898596481681844,24.95568384610289 11.68924171334551,23.859209997731778 11.805468136938494,23.805645039622434" style="fill:none;stroke:black;stroke-width:1"/>
<polygon points="11.92467298290746,23.750442679955704 10.898596481681844,24.95568384610289 11.805468136938494,23.805645039622434" style="fill:none;stroke:black;stroke-width:1"/>
<polygon points="12.437709574140726,23.536781110428826 10.898596481681844,24.95568384610289 12.301724137931036,23.57896551724138" style="fill:none;stroke:black;stroke-width:1"/>
<polygon points="10.898596481681844,24.95568384610289 12.172695044729558,23.636690314870883 12.301724137931036,23.57896551724138" style="fill:none;stroke:black;stroke-width:1"/>
<polygon points="10.775023747790996,24.485362858209626 10.898596481681844,24.95568384610289 10.764927272886087,24.603452512164147" style="fill:none;stroke:black;stroke-width:1"/>
<polygon points="10.898596481681844,24.95568384610289 10.781184177046704,24.72507935772991 10.764927272886087,24.603452512164147" style="fill:none;stroke:black;stroke-width:1"/>
<polygon points="13.16596627205027,24.20633667240885 10.898596481681844,24.95568384610289 13.176651613832755,24.088442623814636" style="fill:none;stroke:black;stroke-width:1"/>
<polygon points="10.809390926595553,24.37495982339911 10.898596481681844,24.95568384610289 10.775023747790996,24.485362858209626" style="fill:none;stroke:black;stroke-width:1"/>
<polygon points="10.898596481681844,24.95568384610289 10.826095332580955,24.84644064030171 10.781184177046704,24.72507935772991" style="fill:none;stroke:black;stroke-width:1"/>
<polygon points="10.898596481681844,24.95568384610289 10.809390926595553,24.37495982339911 10.865962697960356,24.276443813481386" style="fill:none;stroke:black;stroke-width:1"/>
</svg>
