<?xml version="1.0" encoding="UTF-8" standalone="no"?>
<svg xmlns="http://www.w3.org/2000/svg" version="1.1" width="800" height="800">
<polygon points="15.552750587951994,22.230267370674362 17.382641304891038,20.677425239301584 18.400711432574887,22.359325090557174" style="fill:none;stroke:black;stroke-width:1"/>
<polygon points="14.898235074605324,12.226759843383133 12.637604187970645,11.899322051134282 13.331846220942726,10.038157271996578" style="fill:none;stroke:black;stroke-width:1"/>
<polygon points="22.36041762750655,6.367775433945105 22.30495281047461,4.547333680489456 24.07224947614938,6.40210096193829" style="fill:none;stroke:black;stroke-width:1"/>
<polygon points="18.091557341371285,4.212079008891034 12.828161340695004,6.188438486791199 17.626922988061505,2.6914046417379858" style="fill:none;stroke:black;stroke-width:1"/>
<polygon points="11.922038806798357,9.268465467923463 12.062413793103449,10.517931034482759 10.543687428143834,8.157378136984885" style="fill:none;stroke:black;stroke-width:1"/>
<polygon points="12.637604187970645,11.899322051134282 12.062413793103449,10.517931034482759 13.331846220942726,10.038157271996578" style="fill:none;stroke:black;stroke-width:1"/>
<polygon points="12.062413793103449,10.517931034482759 11.922038806798357,9.268465467923463 13.331846220942726,10.038157271996578" style="fill:none;stroke:black;stroke-width:1"/>
<polygon points="10.775566582556616,5.632921551537377 11.196930925650065,6.980225464142489 10.543687428143834,8.157378136984885" style="fill:none;stroke:black;stroke-width:1"/>
<polygon points="11.196930925650065,6.980225464142489 11.922038806798357,9.268465467923463 10.543687428143834,8.157378136984885" style="fill:none;stroke:black;stroke-width:1"/>
<polygon points="12.816653476510066,4.1945696636836916 11.196930925650065,6.980225464142489 10.775566582556616,5.632921551537377" style="fill:none;stroke:black;stroke-width:1"/>
<polygon points="20.655381895882993,21.178641932299346 19.76648819396343,19.800488895040974 21.935043613555255,18.19932269323589" style="fill:none;stroke:black;stroke-width:1"/>
<polygon points="19.76648819396343,19.800488895040974 20.655381895882993,21.178641932299346 18.400711432574887,22.359325090557174" style="fill:none;stroke:black;stroke-width:1"/>
<polygon points="17.382641304891038,20.677425239301584 19.76648819396343,19.800488895040974 18.400711432574887,22.359325090557174" style="fill:none;stroke:black;stroke-width:1"/>
<polygon points="20.373540919911463,16.799752990363825 21.984503711435792,16.16021471636313 21.935043613555255,18.19932269323589" style="fill:none;stroke:black;stroke-width:1"/>
<polygon points="19.76648819396343,19.800488895040974 20.373540919911463,16.799752990363825 21.935043613555255,18.19932269323589" style="fill:none;stroke:black;stroke-width:1"/>
<polygon points="15.957133063995848,10.09605595752114 14.898235074605324,12.226759843383133 13.331846220942726,10.038157271996578" style="fill:none;stroke:black;stroke-width:1"/>
<polygon points="14.898235074605324,12.226759843383133 15.957133063995848,10.09605595752114 17.5521409298999,12.178316278954195" style="fill:none;stroke:black;stroke-width:1"/>
<polygon points="22.36041762750655,6.367775433945105 20.139475435510846,5.245205014608537 22.30495281047461,4.547333680489456" style="fill:none;stroke:black;stroke-width:1"/>
<polygon points="17.626922988061505,2.6914046417379858 15.593228215461568,3.5904310231306686 15.020706071016734,3.0318060466434695" style="fill:none;stroke:black;stroke-width:1"/>
<polygon points="13.519375654619218,5.064944497904735 11.196930925650065,6.980225464142489 12.816653476510066,4.1945696636836916" style="fill:none;stroke:black;stroke-width:1"/>
<polygon points="11.196930925650065,6.980225464142489 13.519375654619218,5.064944497904735 11.922038806798357,9.268465467923463" style="fill:none;stroke:black;stroke-width:1"/>
<polygon points="13.519375654619218,5.064944497904735 12.816653476510066,4.1945696636836916 15.020706071016734,3.0318060466434695" style="fill:none;stroke:black;stroke-width:1"/>
<polygon points="23.854965003852868,9.031291005017485 22.36041762750655,6.367775433945105 24.07224947614938,6.40210096193829" style="fill:none;stroke:black;stroke-width:1"/>
<polygon points="21.984503711435792,16.16021471636313 23.854965003852868,9.031291005017485 21.935043613555255,18.19932269323589" style="fill:none;stroke:black;stroke-width:1"/>
<polygon points="23.854965003852868,9.031291005017485 21.984503711435792,16.16021471636313 22.31707080970765,13.641168120225121" style="fill:none;stroke:black;stroke-width:1"/>
<polygon points="12.102990518983276,13.184672835809765 12.062413793103449,10.517931034482759 12.637604187970645,11.899322051134282" style="fill:none;stroke:black;stroke-width:1"/>
<polygon points="12.062413793103449,10.517931034482759 12.102990518983276,13.184672835809765 10.543687428143834,8.157378136984885" style="fill:none;stroke:black;stroke-width:1"/>
<polygon points="20.217487940857605,12.137734772630871 19.324796021140315,13.08299252427885 17.5521409298999,12.178316278954195" style="fill:none;stroke:black;stroke-width:1"/>
<polygon points="20.373540919911463,16.799752990363825 20.43110669211931,14.530794057798346 21.984503711435792,16.16021471636313" style="fill:none;stroke:black;stroke-width:1"/>
<polygon points="21.984503711435792,16.16021471636313 20.43110669211931,14.530794057798346 22.31707080970765,13.641168120225121" style="fill:none;stroke:black;stroke-width:1"/>
<polygon points="20.43110669211931,14.530794057798346 20.217487940857605,12.137734772630871 22.31707080970765,13.641168120225121" style="fill:none;stroke:black;stroke-width:1"/>
<polygon points="20.217487940857605,12.137734772630871 20.43110669211931,14.530794057798346 19.324796021140315,13.08299252427885" style="fill:none;stroke:black;stroke-width:1"/>
<polygon points="20.336975515992748,23.721586986407896 19.76648819396343,19.800488895040974 17.382641304891038,20.677425239301584" style="fill:none;stroke:black;stroke-width:1"/>
<polygon points="19.76648819396343,19.800488895040974 20.336975515992748,23.721586986407896 20.47577351767984,23.612056849826928" style="fill:none;stroke:black;stroke-width:1"/>
<polygon points="18.810627726376087,24.30375984128997 18.97956172086218,24.251712360341596 17.382641304891038,20.677425239301584" style="fill:none;stroke:black;stroke-width:1"/>
<polygon points="14.434554667232327,9.611672708754174 15.957133063995848,10.09605595752114 13.331846220942726,10.038157271996578" style="fill:none;stroke:black;stroke-width:1"/>
<polygon points="11.922038806798357,9.268465467923463 14.434554667232327,9.611672708754174 13.331846220942726,10.038157271996578" style="fill:none;stroke:black;stroke-width:1"/>
<polygon points="13.519375654619218,5.064944497904735 14.434554667232327,9.611672708754174 11.922038806798357,9.268465467923463" style="fill:none;stroke:black;stroke-width:1"/>
<polygon points="15.957133063995848,10.09605595752114 18.595643357712973,10.152395999003838 17.5521409298999,12.178316278954195" style="fill:none;stroke:black;stroke-width:1"/>
<polygon points="18.595643357712973,10.152395999003838 20.217487940857605,12.137734772630871 17.5521409298999,12.178316278954195" style="fill:none;stroke:black;stroke-width:1"/>
<polygon points="20.217487940857605,12.137734772630871 18.595643357712973,10.152395999003838 20.663757999453043,9.880573870598482" style="fill:none;stroke:black;stroke-width:1"/>
<polygon points="20.139475435510846,5.245205014608537 19.86929587096427,4.022400143792447 22.30495281047461,4.547333680489456" style="fill:none;stroke:black;stroke-width:1"/>
<polygon points="19.86929587096427,4.022400143792447 20.139475435510846,5.245205014608537 18.091557341371285,4.212079008891034" style="fill:none;stroke:black;stroke-width:1"/>
<polygon points="22.30495281047461,4.547333680489456 19.86929587096427,4.022400143792447 17.626922988061505,2.6914046417379858" style="fill:none;stroke:black;stroke-width:1"/>
<polygon points="19.86929587096427,4.022400143792447 18.091557341371285,4.212079008891034 17.626922988061505,2.6914046417379858" style="fill:none;stroke:black;stroke-width:1"/>
<polygon points="22.032700612139582,8.850460616490166 20.139475435510846,5.245205014608537 22.36041762750655,6.367775433945105" style="fill:none;stroke:black;stroke-width:1"/>
<polygon points="23.854965003852868,9.031291005017485 22.032700612139582,8.850460616490166 22.36041762750655,6.367775433945105" style="fill:none;stroke:black;stroke-width:1"/>
<polygon points="22.361323249075586,10.962326074919956 23.854965003852868,9.031291005017485 22.31707080970765,13.641168120225121" style="fill:none;stroke:black;stroke-width:1"/>
<polygon points="20.217487940857605,12.137734772630871 22.361323249075586,10.962326074919956 22.31707080970765,13.641168120225121" style="fill:none;stroke:black;stroke-width:1"/>
<polygon points="22.361323249075586,10.962326074919956 20.217487940857605,12.137734772630871 20.663757999453043,9.880573870598482" style="fill:none;stroke:black;stroke-width:1"/>
<polygon points="22.032700612139582,8.850460616490166 22.361323249075586,10.962326074919956 20.663757999453043,9.880573870598482" style="fill:none;stroke:black;stroke-width:1"/>
<polygon points="22.361323249075586,10.962326074919956 22.032700612139582,8.850460616490166 23.854965003852868,9.031291005017485" style="fill:none;stroke:black;stroke-width:1"/>
<polygon points="15.167759114658882,19.48692151478427 16.757091783064247,13.105416739093878 17.5521409298999,12.178316278954195" style="fill:none;stroke:black;stroke-width:1"/>
<polygon points="13.432455698529726,21.449679708314093 16.757091783064247,13.105416739093878 13.452957387146363,21.532880228741732" style="fill:none;stroke:black;stroke-width:1"/>
<polygon points="16.757091783064247,13.105416739093878 14.898235074605324,12.226759843383133 17.5521409298999,12.178316278954195" style="fill:none;stroke:black;stroke-width:1"/>
<polygon points="20.336975515992748,23.721586986407896 20.015172413793103,22.30344827586207 20.47577351767984,23.612056849826928" style="fill:none;stroke:black;stroke-width:1"/>
<polygon points="20.543973170158072,22.54941394287789 20.942789985799223,23.578331688705898 20.373540919911463,16.799752990363825" style="fill:none;stroke:black;stroke-width:1"/>
<polygon points="20.727021115954308,23.10330871921254 20.373540919911463,16.799752990363825 19.76648819396343,19.800488895040974" style="fill:none;stroke:black;stroke-width:1"/>
<polygon points="20.727021115954308,23.10330871921254 20.717875787883028,22.901104587943564 20.373540919911463,16.799752990363825" style="fill:none;stroke:black;stroke-width:1"/>
<polygon points="20.68192104781597,23.296540436425616 20.727021115954308,23.10330871921254 19.76648819396343,19.800488895040974" style="fill:none;stroke:black;stroke-width:1"/>
<polygon points="13.35145211483815,20.571900392204988 14.796642540659878,19.95819070321155 15.552750587951994,22.230267370674362" style="fill:none;stroke:black;stroke-width:1"/>
<polygon points="14.796642540659878,19.95819070321155 17.382641304891038,20.677425239301584 15.552750587951994,22.230267370674362" style="fill:none;stroke:black;stroke-width:1"/>
<polygon points="14.434554667232327,9.611672708754174 17.022537469043012,9.56291993351131 15.957133063995848,10.09605595752114" style="fill:none;stroke:black;stroke-width:1"/>
<polygon points="17.022537469043012,9.56291993351131 18.595643357712973,10.152395999003838 15.957133063995848,10.09605595752114" style="fill:none;stroke:black;stroke-width:1"/>
<polygon points="13.026436476184436,6.232701506957806 12.828161340695004,6.188438486791199 18.091557341371285,4.212079008891034" style="fill:none;stroke:black;stroke-width:1"/>
<polygon points="13.216798374393278,6.287877454928445 13.026436476184436,6.232701506957806 18.091557341371285,4.212079008891034" style="fill:none;stroke:black;stroke-width:1"/>
<polygon points="13.572044159575217,6.42886110471337 13.398812460473035,6.353439573311004 18.091557341371285,4.212079008891034" style="fill:none;stroke:black;stroke-width:1"/>
<polygon points="13.398812460473035,6.353439573311004 13.216798374393278,6.287877454928445 18.091557341371285,4.212079008891034" style="fill:none;stroke:black;stroke-width:1"/>
<polygon points="20.43110669211931,14.530794057798346 16.900134548840118,13.9828703329406 19.324796021140315,13.08299252427885" style="fill:none;stroke:black;stroke-width:1"/>
<polygon points="15.332545736936066,15.09614554226777 16.900134548840118,13.9828703329406 20.43110669211931,14.530794057798346" style="fill:none;stroke:black;stroke-width:1"/>
<polygon points="14.796642540659878,19.95819070321155 18.051446996311626,24.422002828081286 17.382641304891038,20.677425239301584" style="fill:none;stroke:black;stroke-width:1"/>
<polygon points="13.447677507428802,15.031059876193908 13.492432855157727,17.21674230798724 12.550504967263226,17.88803181888638" style="fill:none;stroke:black;stroke-width:1"/>
<polygon points="13.492432855157727,17.21674230798724 13.35145211483815,20.571900392204988 12.550504967263226,17.88803181888638" style="fill:none;stroke:black;stroke-width:1"/>
<polygon points="14.18358767716746,13.139672253679988 12.102990518983276,13.184672835809765 12.637604187970645,11.899322051134282" style="fill:none;stroke:black;stroke-width:1"/>
<polygon points="14.898235074605324,12.226759843383133 14.18358767716746,13.139672253679988 12.637604187970645,11.899322051134282" style="fill:none;stroke:black;stroke-width:1"/>
<polygon points="20.717875787883028,22.901104587943564 20.654375227590364,22.712400550014685 20.373540919911463,16.799752990363825" style="fill:none;stroke:black;stroke-width:1"/>
<polygon points="20.654375227590364,22.712400550014685 20.543973170158072,22.54941394287789 20.373540919911463,16.799752990363825" style="fill:none;stroke:black;stroke-width:1"/>
<polygon points="20.654375227590364,22.712400550014685 20.68192104781597,23.296540436425616 20.543973170158072,22.54941394287789" style="fill:none;stroke:black;stroke-width:1"/>
<polygon points="20.727021115954308,23.10330871921254 20.654375227590364,22.712400550014685 20.717875787883028,22.901104587943564" style="fill:none;stroke:black;stroke-width:1"/>
<polygon points="20.654375227590364,22.712400550014685 20.727021115954308,23.10330871921254 20.68192104781597,23.296540436425616" style="fill:none;stroke:black;stroke-width:1"/>
<polygon points="20.543973170158072,22.54941394287789 20.394682725593057,22.420627533609157 20.942789985799223,23.578331688705898" style="fill:none;stroke:black;stroke-width:1"/>
<polygon points="20.394682725593057,22.420627533609157 20.015172413793103,22.30344827586207 20.214517003902223,22.334524089284457" style="fill:none;stroke:black;stroke-width:1"/>
<polygon points="20.015172413793103,22.30344827586207 20.394682725593057,22.420627533609157 20.47577351767984,23.612056849826928" style="fill:none;stroke:black;stroke-width:1"/>
<polygon points="20.593089371902906,23.468199893622156 19.76648819396343,19.800488895040974 20.47577351767984,23.612056849826928" style="fill:none;stroke:black;stroke-width:1"/>
<polygon points="20.593089371902906,23.468199893622156 20.68192104781597,23.296540436425616 19.76648819396343,19.800488895040974" style="fill:none;stroke:black;stroke-width:1"/>
<polygon points="20.68192104781597,23.296540436425616 20.593089371902906,23.468199893622156 20.543973170158072,22.54941394287789" style="fill:none;stroke:black;stroke-width:1"/>
<polygon points="20.394682725593057,22.420627533609157 20.593089371902906,23.468199893622156 20.47577351767984,23.612056849826928" style="fill:none;stroke:black;stroke-width:1"/>
<polygon points="20.593089371902906,23.468199893622156 20.394682725593057,22.420627533609157 20.543973170158072,22.54941394287789" style="fill:none;stroke:black;stroke-width:1"/>
<polygon points="22.032700612139582,8.850460616490166 15.066700945586526,8.430688124796596 20.139475435510846,5.245205014608537" style="fill:none;stroke:black;stroke-width:1"/>
<polygon points="14.004906179975443,8.946263380124973 15.066700945586526,8.430688124796596 15.070867979075189,8.693227449229767" style="fill:none;stroke:black;stroke-width:1"/>
<polygon points="19.610520270853712,9.514167158268448 22.032700612139582,8.850460616490166 20.663757999453043,9.880573870598482" style="fill:none;stroke:black;stroke-width:1"/>
<polygon points="18.595643357712973,10.152395999003838 19.610520270853712,9.514167158268448 20.663757999453043,9.880573870598482" style="fill:none;stroke:black;stroke-width:1"/>
<polygon points="19.610520270853712,9.514167158268448 15.066700945586526,8.430688124796596 22.032700612139582,8.850460616490166" style="fill:none;stroke:black;stroke-width:1"/>
<polygon points="15.066700945586526,8.430688124796596 19.610520270853712,9.514167158268448 15.070867979075189,8.693227449229767" style="fill:none;stroke:black;stroke-width:1"/>
<polygon points="17.022537469043012,9.56291993351131 19.610520270853712,9.514167158268448 18.595643357712973,10.152395999003838" style="fill:none;stroke:black;stroke-width:1"/>
<polygon points="12.808657894979916,7.77586060124594 13.026436476184436,6.232701506957806 13.216798374393278,6.287877454928445" style="fill:none;stroke:black;stroke-width:1"/>
<polygon points="13.736058896851334,6.513615291743431 13.572044159575217,6.42886110471337 18.091557341371285,4.212079008891034" style="fill:none;stroke:black;stroke-width:1"/>
<polygon points="20.139475435510846,5.245205014608537 14.336003452885414,6.962581101636305 18.091557341371285,4.212079008891034" style="fill:none;stroke:black;stroke-width:1"/>
<polygon points="14.479261613735028,7.117032460309187 14.336003452885414,6.962581101636305 20.139475435510846,5.245205014608537" style="fill:none;stroke:black;stroke-width:1"/>
<polygon points="18.767209492317143,16.251306645977536 16.94726533581911,16.708680425355986 20.43110669211931,14.530794057798346" style="fill:none;stroke:black;stroke-width:1"/>
<polygon points="16.757091783064247,13.105416739093878 13.46404402646711,21.624922068953552 13.452957387146363,21.532880228741732" style="fill:none;stroke:black;stroke-width:1"/>
<polygon points="17.207293960792228,24.011134416915795 14.796642540659878,19.95819070321155 13.35145211483815,20.571900392204988" style="fill:none;stroke:black;stroke-width:1"/>
<polygon points="13.492432855157727,17.21674230798724 17.207293960792228,24.011134416915795 13.35145211483815,20.571900392204988" style="fill:none;stroke:black;stroke-width:1"/>
<polygon points="14.18358767716746,13.139672253679988 12.498028495844292,15.685058431948345 12.102990518983276,13.184672835809765" style="fill:none;stroke:black;stroke-width:1"/>
<polygon points="12.498028495844292,15.685058431948345 14.18358767716746,13.139672253679988 13.447677507428802,15.031059876193908" style="fill:none;stroke:black;stroke-width:1"/>
<polygon points="12.498028495844292,15.685058431948345 13.447677507428802,15.031059876193908 12.550504967263226,17.88803181888638" style="fill:none;stroke:black;stroke-width:1"/>
<polygon points="12.498028495844292,15.685058431948345 12.550504967263226,17.88803181888638 10.543687428143834,8.157378136984885" style="fill:none;stroke:black;stroke-width:1"/>
<polygon points="12.102990518983276,13.184672835809765 12.498028495844292,15.685058431948345 10.543687428143834,8.157378136984885" style="fill:none;stroke:black;stroke-width:1"/>
<polygon points="18.97956172086218,24.251712360341596 19.137086890875754,24.193150849380082 17.382641304891038,20.677425239301584" style="fill:none;stroke:black;stroke-width:1"/>
<polygon points="19.137086890875754,24.193150849380082 19.28685623180337,24.13576097413014 17.382641304891038,20.677425239301584" style="fill:none;stroke:black;stroke-width:1"/>
<polygon points="19.137086890875754,24.193150849380082 18.97956172086218,24.251712360341596 18.575294270841425,22.58763904589999" style="fill:none;stroke:black;stroke-width:1"/>
<polygon points="19.586392540970294,24.020987430363988 19.736160695553764,23.96360065848091 17.382641304891038,20.677425239301584" style="fill:none;stroke:black;stroke-width:1"/>
<polygon points="19.586392540970294,24.020987430363988 19.230940395744042,22.37745386626799 19.736160695553764,23.96360065848091" style="fill:none;stroke:black;stroke-width:1"/>
<polygon points="20.185465159304158,23.79144034283168 20.336975515992748,23.721586986407896 17.382641304891038,20.677425239301584" style="fill:none;stroke:black;stroke-width:1"/>
<polygon points="20.03569700472069,23.848827114714755 20.185465159304158,23.79144034283168 17.382641304891038,20.677425239301584" style="fill:none;stroke:black;stroke-width:1"/>
<polygon points="20.185465159304158,23.79144034283168 20.015172413793103,22.30344827586207 20.336975515992748,23.721586986407896" style="fill:none;stroke:black;stroke-width:1"/>
<polygon points="19.736160695553764,23.96360065848091 19.885928850137226,23.906213886597833 17.382641304891038,20.677425239301584" style="fill:none;stroke:black;stroke-width:1"/>
<polygon points="19.885928850137226,23.906213886597833 20.03569700472069,23.848827114714755 17.382641304891038,20.677425239301584" style="fill:none;stroke:black;stroke-width:1"/>
<polygon points="20.015172413793103,22.30344827586207 13.513990464768638,22.597001104547218 20.214517003902223,22.334524089284457" style="fill:none;stroke:black;stroke-width:1"/>
<polygon points="18.97956172086218,24.251712360341596 18.425526116257963,22.645025817783072 18.575294270841425,22.58763904589999" style="fill:none;stroke:black;stroke-width:1"/>
<polygon points="18.810627726376087,24.30375984128997 18.425526116257963,22.645025817783072 18.97956172086218,24.251712360341596" style="fill:none;stroke:black;stroke-width:1"/>
<polygon points="18.444661962507368,24.383351385773146 17.97622165250757,22.8171861334323 18.12598980709103,22.759799361549224" style="fill:none;stroke:black;stroke-width:1"/>
<polygon points="12.082197483432948,22.252673272824296 13.492432855157727,17.21674230798724 13.447677507428802,15.031059876193908" style="fill:none;stroke:black;stroke-width:1"/>
<polygon points="12.061695794816313,22.16947275239666 12.082197483432948,22.252673272824296 13.447677507428802,15.031059876193908" style="fill:none;stroke:black;stroke-width:1"/>
<polygon points="20.864594659337012,18.69957810865614 21.343074399394368,19.70677703294321 16.757091783064247,13.105416739093878" style="fill:none;stroke:black;stroke-width:1"/>
<polygon points="20.43110669211931,14.530794057798346 22.82089980311153,18.722203370737148 21.318088633745255,18.93312520153822" style="fill:none;stroke:black;stroke-width:1"/>
<polygon points="22.82089980311153,18.722203370737148 20.43110669211931,14.530794057798346 20.373540919911463,16.799752990363825" style="fill:none;stroke:black;stroke-width:1"/>
<polygon points="14.195870391331628,9.201569799271615 14.826019863293423,9.115988927435751 14.38516221555064,9.253921104626155" style="fill:none;stroke:black;stroke-width:1"/>
<polygon points="17.022537469043012,9.56291993351131 14.195870391331628,9.201569799271615 14.38516221555064,9.253921104626155" style="fill:none;stroke:black;stroke-width:1"/>
<polygon points="19.610520270853712,9.514167158268448 14.986083052947787,8.92953257425636 15.070867979075189,8.693227449229767" style="fill:none;stroke:black;stroke-width:1"/>
<polygon points="14.986083052947787,8.92953257425636 19.610520270853712,9.514167158268448 14.826019863293423,9.115988927435751" style="fill:none;stroke:black;stroke-width:1"/>
<polygon points="14.195870391331628,9.201569799271615 14.986083052947787,8.92953257425636 14.826019863293423,9.115988927435751" style="fill:none;stroke:black;stroke-width:1"/>
<polygon points="14.986083052947787,8.92953257425636 14.004906179975443,8.946263380124973 15.070867979075189,8.693227449229767" style="fill:none;stroke:black;stroke-width:1"/>
<polygon points="14.610572952396923,9.229740890873755 19.610520270853712,9.514167158268448 17.022537469043012,9.56291993351131" style="fill:none;stroke:black;stroke-width:1"/>
<polygon points="19.610520270853712,9.514167158268448 14.610572952396923,9.229740890873755 14.826019863293423,9.115988927435751" style="fill:none;stroke:black;stroke-width:1"/>
<polygon points="14.610572952396923,9.229740890873755 17.022537469043012,9.56291993351131 14.38516221555064,9.253921104626155" style="fill:none;stroke:black;stroke-width:1"/>
<polygon points="14.826019863293423,9.115988927435751 14.610572952396923,9.229740890873755 14.38516221555064,9.253921104626155" style="fill:none;stroke:black;stroke-width:1"/>
<polygon points="13.398812460473035,6.353439573311004 13.018496368040438,7.8573825677529125 13.216798374393278,6.287877454928445" style="fill:none;stroke:black;stroke-width:1"/>
<polygon points="13.018496368040438,7.8573825677529125 12.808657894979916,7.77586060124594 13.216798374393278,6.287877454928445" style="fill:none;stroke:black;stroke-width:1"/>
<polygon points="13.018496368040438,7.8573825677529125 13.398812460473035,6.353439573311004 13.572044159575217,6.42886110471337" style="fill:none;stroke:black;stroke-width:1"/>
<polygon points="13.026436476184436,6.232701506957806 12.579751558587294,7.698198432309462 12.828161340695004,6.188438486791199" style="fill:none;stroke:black;stroke-width:1"/>
<polygon points="12.808657894979916,7.77586060124594 12.579751558587294,7.698198432309462 13.026436476184436,6.232701506957806" style="fill:none;stroke:black;stroke-width:1"/>
<polygon points="12.579751558587294,7.698198432309462 12.808657894979916,7.77586060124594 12.335339618598969,7.624627239701224" style="fill:none;stroke:black;stroke-width:1"/>
<polygon points="14.038825616704115,6.70884494835944 13.890422097452888,6.607175377009075 18.091557341371285,4.212079008891034" style="fill:none;stroke:black;stroke-width:1"/>
<polygon points="13.890422097452888,6.607175377009075 13.736058896851334,6.513615291743431 18.091557341371285,4.212079008891034" style="fill:none;stroke:black;stroke-width:1"/>
<polygon points="14.188241846121365,6.826664911644051 14.038825616704115,6.70884494835944 18.091557341371285,4.212079008891034" style="fill:none;stroke:black;stroke-width:1"/>
<polygon points="14.336003452885414,6.962581101636305 14.188241846121365,6.826664911644051 18.091557341371285,4.212079008891034" style="fill:none;stroke:black;stroke-width:1"/>
<polygon points="12.409609657268343,6.1347582594385335 15.593228215461568,3.5904310231306686 17.626922988061505,2.6914046417379858" style="fill:none;stroke:black;stroke-width:1"/>
<polygon points="12.409609657268343,6.1347582594385335 12.190202259028101,6.126394567036698 15.593228215461568,3.5904310231306686" style="fill:none;stroke:black;stroke-width:1"/>
<polygon points="11.275188965736579,6.700864288815408 13.519375654619218,5.064944497904735 15.020706071016734,3.0318060466434695" style="fill:none;stroke:black;stroke-width:1"/>
<polygon points="11.569257901849689,7.382046843750365 14.434554667232327,9.611672708754174 13.519375654619218,5.064944497904735" style="fill:none;stroke:black;stroke-width:1"/>
<polygon points="11.386652295167089,7.198419594567978 11.569257901849689,7.382046843750365 13.519375654619218,5.064944497904735" style="fill:none;stroke:black;stroke-width:1"/>
<polygon points="20.442051823167297,17.179899776197857 20.43110669211931,14.530794057798346 21.318088633745255,18.93312520153822" style="fill:none;stroke:black;stroke-width:1"/>
<polygon points="20.442051823167297,17.179899776197857 18.767209492317143,16.251306645977536 20.43110669211931,14.530794057798346" style="fill:none;stroke:black;stroke-width:1"/>
<polygon points="14.309177844891302,16.779172028478552 15.332545736936066,15.09614554226777 20.43110669211931,14.530794057798346" style="fill:none;stroke:black;stroke-width:1"/>
<polygon points="14.377285778632361,18.27950163608616 14.309177844891302,16.779172028478552 20.43110669211931,14.530794057798346" style="fill:none;stroke:black;stroke-width:1"/>
<polygon points="16.94726533581911,16.708680425355986 15.990489643560373,18.23364318883324 20.43110669211931,14.530794057798346" style="fill:none;stroke:black;stroke-width:1"/>
<polygon points="15.990489643560373,18.23364318883324 14.377285778632361,18.27950163608616 20.43110669211931,14.530794057798346" style="fill:none;stroke:black;stroke-width:1"/>
<polygon points="19.324796021140315,13.08299252427885 15.135462458343,21.625196186814854 17.5521409298999,12.178316278954195" style="fill:none;stroke:black;stroke-width:1"/>
<polygon points="13.454001460044749,21.830411044824267 13.464681745770283,21.724555493929877 16.757091783064247,13.105416739093878" style="fill:none;stroke:black;stroke-width:1"/>
<polygon points="13.464681745770283,21.724555493929877 13.46404402646711,21.624922068953552 16.757091783064247,13.105416739093878" style="fill:none;stroke:black;stroke-width:1"/>
<polygon points="13.431312575979724,21.94102113614767 13.454001460044749,21.830411044824267 16.757091783064247,13.105416739093878" style="fill:none;stroke:black;stroke-width:1"/>
<polygon points="19.28685623180337,24.13576097413014 19.436624386386836,24.078374202247062 17.382641304891038,20.677425239301584" style="fill:none;stroke:black;stroke-width:1"/>
<polygon points="19.436624386386836,24.078374202247062 19.586392540970294,24.020987430363988 17.382641304891038,20.677425239301584" style="fill:none;stroke:black;stroke-width:1"/>
<polygon points="18.882501215650876,22.47254826812572 19.436624386386836,24.078374202247062 19.28685623180337,24.13576097413014" style="fill:none;stroke:black;stroke-width:1"/>
<polygon points="19.230940395744042,22.37745386626799 19.418597878290377,22.342540553052636 19.736160695553764,23.96360065848091" style="fill:none;stroke:black;stroke-width:1"/>
<polygon points="19.418597878290377,22.342540553052636 19.885928850137226,23.906213886597833 19.736160695553764,23.96360065848091" style="fill:none;stroke:black;stroke-width:1"/>
<polygon points="12.262359851957541,18.848439656079726 19.418597878290377,22.342540553052636 12.725121910710515,16.926595747684516" style="fill:none;stroke:black;stroke-width:1"/>
<polygon points="19.418597878290377,22.342540553052636 19.230940395744042,22.37745386626799 12.725121910710515,16.926595747684516" style="fill:none;stroke:black;stroke-width:1"/>
<polygon points="18.72507776512659,22.530210671501187 19.137086890875754,24.193150849380082 18.575294270841425,22.58763904589999" style="fill:none;stroke:black;stroke-width:1"/>
<polygon points="19.137086890875754,24.193150849380082 18.72507776512659,22.530210671501187 19.28685623180337,24.13576097413014" style="fill:none;stroke:black;stroke-width:1"/>
<polygon points="18.72507776512659,22.530210671501187 18.882501215650876,22.47254826812572 19.28685623180337,24.13576097413014" style="fill:none;stroke:black;stroke-width:1"/>
<polygon points="12.53327558059322,20.862926316371055 13.513990464768638,22.597001104547218 20.015172413793103,22.30344827586207" style="fill:none;stroke:black;stroke-width:1"/>
<polygon points="16.9754490001535,24.51796222516103 20.394682725593057,22.420627533609157 20.214517003902223,22.334524089284457" style="fill:none;stroke:black;stroke-width:1"/>
<polygon points="15.395203407096963,14.340575621194906 18.72507776512659,22.530210671501187 12.940367460939354,22.571211192562217" style="fill:none;stroke:black;stroke-width:1"/>
<polygon points="17.826453497924103,22.874572905315375 18.051446996311626,24.422002828081286 17.676685343340637,22.931959677198453" style="fill:none;stroke:black;stroke-width:1"/>
<polygon points="18.275757961674497,22.702412589666146 18.425526116257963,22.645025817783072 18.810627726376087,24.30375984128997" style="fill:none;stroke:black;stroke-width:1"/>
<polygon points="18.444661962507368,24.383351385773146 18.250694542385247,24.408414785620863 17.97622165250757,22.8171861334323" style="fill:none;stroke:black;stroke-width:1"/>
<polygon points="17.826453497924103,22.874572905315375 18.250694542385247,24.408414785620863 18.051446996311626,24.422002828081286" style="fill:none;stroke:black;stroke-width:1"/>
<polygon points="18.250694542385247,24.408414785620863 17.826453497924103,22.874572905315375 17.97622165250757,22.8171861334323" style="fill:none;stroke:black;stroke-width:1"/>
<polygon points="18.051446996311626,24.422002828081286 18.250694542385247,24.408414785620863 17.382641304891038,20.677425239301584" style="fill:none;stroke:black;stroke-width:1"/>
<polygon points="18.250694542385247,24.408414785620863 18.444661962507368,24.383351385773146 17.382641304891038,20.677425239301584" style="fill:none;stroke:black;stroke-width:1"/>
<polygon points="14.18358767716746,13.139672253679988 12.3031672386286,21.328197360680957 13.447677507428802,15.031059876193908" style="fill:none;stroke:black;stroke-width:1"/>
<polygon points="13.492432855157727,17.21674230798724 12.187740849487849,22.438923644304758 17.269061130741886,23.255200126407978" style="fill:none;stroke:black;stroke-width:1"/>
<polygon points="16.649358105433592,20.59574371290713 16.757091783064247,13.105416739093878 15.167759114658882,19.48692151478427" style="fill:none;stroke:black;stroke-width:1"/>
<polygon points="16.649358105433592,20.59574371290713 18.486629849329546,20.362921296580513 16.757091783064247,13.105416739093878" style="fill:none;stroke:black;stroke-width:1"/>
<polygon points="19.589830186143608,18.967389018191074 20.864594659337012,18.69957810865614 16.757091783064247,13.105416739093878" style="fill:none;stroke:black;stroke-width:1"/>
<polygon points="18.486629849329546,20.362921296580513 19.589830186143608,18.967389018191074 16.757091783064247,13.105416739093878" style="fill:none;stroke:black;stroke-width:1"/>
<polygon points="21.343074399394368,19.70677703294321 20.377381118754837,21.473123716121144 16.757091783064247,13.105416739093878" style="fill:none;stroke:black;stroke-width:1"/>
<polygon points="20.377381118754837,21.473123716121144 13.431312575979724,21.94102113614767 16.757091783064247,13.105416739093878" style="fill:none;stroke:black;stroke-width:1"/>
<polygon points="21.12878719761804,15.730527994288558 22.407762639493974,17.129330943021067 20.373540919911463,16.799752990363825" style="fill:none;stroke:black;stroke-width:1"/>
<polygon points="22.407762639493974,17.129330943021067 22.82089980311153,18.722203370737148 20.373540919911463,16.799752990363825" style="fill:none;stroke:black;stroke-width:1"/>
<polygon points="20.942789985799223,23.578331688705898 22.317557246027143,22.16963121040986 20.373540919911463,16.799752990363825" style="fill:none;stroke:black;stroke-width:1"/>
<polygon points="22.317557246027143,22.16963121040986 23.100540939534625,20.338169559760498 20.373540919911463,16.799752990363825" style="fill:none;stroke:black;stroke-width:1"/>
<polygon points="19.331705952696574,14.932248794789187 21.12878719761804,15.730527994288558 20.373540919911463,16.799752990363825" style="fill:none;stroke:black;stroke-width:1"/>
<polygon points="23.100540939534625,20.338169559760498 19.331705952696574,14.932248794789187 20.373540919911463,16.799752990363825" style="fill:none;stroke:black;stroke-width:1"/>
<polygon points="14.853527304628914,7.6959869666936935 14.740872304645983,7.4832964515887905 20.139475435510846,5.245205014608537" style="fill:none;stroke:black;stroke-width:1"/>
<polygon points="15.066700945586526,8.430688124796596 15.02032119602925,8.172836077642138 20.139475435510846,5.245205014608537" style="fill:none;stroke:black;stroke-width:1"/>
<polygon points="15.02032119602925,8.172836077642138 15.066700945586526,8.430688124796596 14.004906179975443,8.946263380124973" style="fill:none;stroke:black;stroke-width:1"/>
<polygon points="14.986083052947787,8.92953257425636 14.062721182336135,9.092373425060554 14.004906179975443,8.946263380124973" style="fill:none;stroke:black;stroke-width:1"/>
<polygon points="14.062721182336135,9.092373425060554 14.986083052947787,8.92953257425636 14.195870391331628,9.201569799271615" style="fill:none;stroke:black;stroke-width:1"/>
<polygon points="14.062721182336135,9.092373425060554 14.195870391331628,9.201569799271615 17.022537469043012,9.56291993351131" style="fill:none;stroke:black;stroke-width:1"/>
<polygon points="14.062721182336135,9.092373425060554 17.022537469043012,9.56291993351131 14.434554667232327,9.611672708754174" style="fill:none;stroke:black;stroke-width:1"/>
<polygon points="14.004906179975443,8.946263380124973 14.062721182336135,9.092373425060554 14.434554667232327,9.611672708754174" style="fill:none;stroke:black;stroke-width:1"/>
<polygon points="13.736058896851334,6.513615291743431 13.205704718032472,7.942533153072635 13.572044159575217,6.42886110471337" style="fill:none;stroke:black;stroke-width:1"/>
<polygon points="13.205704718032472,7.942533153072635 13.018496368040438,7.8573825677529125 13.572044159575217,6.42886110471337" style="fill:none;stroke:black;stroke-width:1"/>
<polygon points="12.409609657268343,6.1347582594385335 12.622407542773475,6.155615151820738 12.335339618598969,7.624627239701224" style="fill:none;stroke:black;stroke-width:1"/>
<polygon points="12.579751558587294,7.698198432309462 12.622407542773475,6.155615151820738 12.828161340695004,6.188438486791199" style="fill:none;stroke:black;stroke-width:1"/>
<polygon points="12.622407542773475,6.155615151820738 12.579751558587294,7.698198432309462 12.335339618598969,7.624627239701224" style="fill:none;stroke:black;stroke-width:1"/>
<polygon points="12.828161340695004,6.188438486791199 12.622407542773475,6.155615151820738 17.626922988061505,2.6914046417379858" style="fill:none;stroke:black;stroke-width:1"/>
<polygon points="12.622407542773475,6.155615151820738 12.409609657268343,6.1347582594385335 17.626922988061505,2.6914046417379858" style="fill:none;stroke:black;stroke-width:1"/>
<polygon points="11.283351720850801,6.96345908987057 11.386652295167089,7.198419594567978 13.519375654619218,5.064944497904735" style="fill:none;stroke:black;stroke-width:1"/>
<polygon points="11.275188965736579,6.700864288815408 11.283351720850801,6.96345908987057 13.519375654619218,5.064944497904735" style="fill:none;stroke:black;stroke-width:1"/>
<polygon points="11.283351720850801,6.96345908987057 11.275188965736579,6.700864288815408 11.386652295167089,7.198419594567978" style="fill:none;stroke:black;stroke-width:1"/>
<polygon points="11.569257901849689,7.382046843750365 11.815172413793103,7.491379310344827 14.434554667232327,9.611672708754174" style="fill:none;stroke:black;stroke-width:1"/>
<polygon points="11.815172413793103,7.491379310344827 14.004906179975443,8.946263380124973 14.434554667232327,9.611672708754174" style="fill:none;stroke:black;stroke-width:1"/>
<polygon points="11.815172413793103,7.491379310344827 11.569257901849689,7.382046843750365 11.52388685152968,6.277247137136941" style="fill:none;stroke:black;stroke-width:1"/>
<polygon points="11.815172413793103,7.491379310344827 13.205704718032472,7.942533153072635 14.004906179975443,8.946263380124973" style="fill:none;stroke:black;stroke-width:1"/>
<polygon points="13.205704718032472,7.942533153072635 11.815172413793103,7.491379310344827 13.018496368040438,7.8573825677529125" style="fill:none;stroke:black;stroke-width:1"/>
<polygon points="11.275188965736579,6.700864288815408 11.362527276470335,6.461606548497758 11.386652295167089,7.198419594567978" style="fill:none;stroke:black;stroke-width:1"/>
<polygon points="11.362527276470335,6.461606548497758 11.569257901849689,7.382046843750365 11.386652295167089,7.198419594567978" style="fill:none;stroke:black;stroke-width:1"/>
<polygon points="11.569257901849689,7.382046843750365 11.362527276470335,6.461606548497758 11.52388685152968,6.277247137136941" style="fill:none;stroke:black;stroke-width:1"/>
<polygon points="11.362527276470335,6.461606548497758 11.275188965736579,6.700864288815408 15.020706071016734,3.0318060466434695" style="fill:none;stroke:black;stroke-width:1"/>
<polygon points="15.593228215461568,3.5904310231306686 11.362527276470335,6.461606548497758 15.020706071016734,3.0318060466434695" style="fill:none;stroke:black;stroke-width:1"/>
<polygon points="11.52388685152968,6.277247137136941 11.362527276470335,6.461606548497758 15.593228215461568,3.5904310231306686" style="fill:none;stroke:black;stroke-width:1"/>
<polygon points="19.318243951440497,19.982375649144927 17.339608032771146,19.92501557590397 19.324796021140315,13.08299252427885" style="fill:none;stroke:black;stroke-width:1"/>
<polygon points="19.691309187662362,16.74291221184988 17.025081611981424,22.351188765632777 19.324796021140315,13.08299252427885" style="fill:none;stroke:black;stroke-width:1"/>
<polygon points="17.025081611981424,22.351188765632777 15.135462458343,21.625196186814854 19.324796021140315,13.08299252427885" style="fill:none;stroke:black;stroke-width:1"/>
<polygon points="17.46675884902534,24.30312412376268 17.64683341050256,24.389367618643934 14.796642540659878,19.95819070321155" style="fill:none;stroke:black;stroke-width:1"/>
<polygon points="17.207293960792228,24.011134416915795 17.317574662452927,24.174218800827973 14.796642540659878,19.95819070321155" style="fill:none;stroke:black;stroke-width:1"/>
<polygon points="17.317574662452927,24.174218800827973 17.46675884902534,24.30312412376268 14.796642540659878,19.95819070321155" style="fill:none;stroke:black;stroke-width:1"/>
<polygon points="17.46675884902534,24.30312412376268 17.317574662452927,24.174218800827973 17.269061130741886,23.255200126407978" style="fill:none;stroke:black;stroke-width:1"/>
<polygon points="17.180202794555356,23.42682802152223 13.492432855157727,17.21674230798724 17.269061130741886,23.255200126407978" style="fill:none;stroke:black;stroke-width:1"/>
<polygon points="17.180202794555356,23.42682802152223 17.134936077308446,23.620094104838927 13.492432855157727,17.21674230798724" style="fill:none;stroke:black;stroke-width:1"/>
<polygon points="17.134936077308446,23.620094104838927 17.180202794555356,23.42682802152223 17.207293960792228,24.011134416915795" style="fill:none;stroke:black;stroke-width:1"/>
<polygon points="17.317574662452927,24.174218800827973 17.180202794555356,23.42682802152223 17.269061130741886,23.255200126407978" style="fill:none;stroke:black;stroke-width:1"/>
<polygon points="17.180202794555356,23.42682802152223 17.317574662452927,24.174218800827973 17.207293960792228,24.011134416915795" style="fill:none;stroke:black;stroke-width:1"/>
<polygon points="17.14392985405015,23.822353739102116 17.207293960792228,24.011134416915795 13.492432855157727,17.21674230798724" style="fill:none;stroke:black;stroke-width:1"/>
<polygon points="17.134936077308446,23.620094104838927 17.14392985405015,23.822353739102116 13.492432855157727,17.21674230798724" style="fill:none;stroke:black;stroke-width:1"/>
<polygon points="17.14392985405015,23.822353739102116 17.134936077308446,23.620094104838927 17.207293960792228,24.011134416915795" style="fill:none;stroke:black;stroke-width:1"/>
<polygon points="19.051681800360456,22.42120955217017 19.436624386386836,24.078374202247062 18.882501215650876,22.47254826812572" style="fill:none;stroke:black;stroke-width:1"/>
<polygon points="19.230940395744042,22.37745386626799 19.051681800360456,22.42120955217017 12.725121910710515,16.926595747684516" style="fill:none;stroke:black;stroke-width:1"/>
<polygon points="19.586392540970294,24.020987430363988 19.051681800360456,22.42120955217017 19.230940395744042,22.37745386626799" style="fill:none;stroke:black;stroke-width:1"/>
<polygon points="19.436624386386836,24.078374202247062 19.051681800360456,22.42120955217017 19.586392540970294,24.020987430363988" style="fill:none;stroke:black;stroke-width:1"/>
<polygon points="19.885928850137226,23.906213886597833 19.61297512448818,22.317728955157563 20.03569700472069,23.848827114714755" style="fill:none;stroke:black;stroke-width:1"/>
<polygon points="19.418597878290377,22.342540553052636 19.61297512448818,22.317728955157563 19.885928850137226,23.906213886597833" style="fill:none;stroke:black;stroke-width:1"/>
<polygon points="12.53327558059322,20.862926316371055 19.61297512448818,22.317728955157563 12.262359851957541,18.848439656079726" style="fill:none;stroke:black;stroke-width:1"/>
<polygon points="19.61297512448818,22.317728955157563 19.418597878290377,22.342540553052636 12.262359851957541,18.848439656079726" style="fill:none;stroke:black;stroke-width:1"/>
<polygon points="13.513990464768638,22.597001104547218 15.046311664727098,23.866553923618486 20.214517003902223,22.334524089284457" style="fill:none;stroke:black;stroke-width:1"/>
<polygon points="15.046311664727098,23.866553923618486 16.9754490001535,24.51796222516103 20.214517003902223,22.334524089284457" style="fill:none;stroke:black;stroke-width:1"/>
<polygon points="20.394682725593057,22.420627533609157 19.10188462646945,24.411262665171066 20.942789985799223,23.578331688705898" style="fill:none;stroke:black;stroke-width:1"/>
<polygon points="16.9754490001535,24.51796222516103 19.10188462646945,24.411262665171066 20.394682725593057,22.420627533609157" style="fill:none;stroke:black;stroke-width:1"/>
<polygon points="19.051681800360456,22.42120955217017 13.810367136139496,15.372735979824142 12.725121910710515,16.926595747684516" style="fill:none;stroke:black;stroke-width:1"/>
<polygon points="13.810367136139496,15.372735979824142 19.051681800360456,22.42120955217017 18.882501215650876,22.47254826812572" style="fill:none;stroke:black;stroke-width:1"/>
<polygon points="18.72507776512659,22.530210671501187 13.810367136139496,15.372735979824142 18.882501215650876,22.47254826812572" style="fill:none;stroke:black;stroke-width:1"/>
<polygon points="15.395203407096963,14.340575621194906 13.810367136139496,15.372735979824142 18.72507776512659,22.530210671501187" style="fill:none;stroke:black;stroke-width:1"/>
<polygon points="18.631817082047732,24.348052960381665 18.444661962507368,24.383351385773146 18.12598980709103,22.759799361549224" style="fill:none;stroke:black;stroke-width:1"/>
<polygon points="18.275757961674497,22.702412589666146 18.631817082047732,24.348052960381665 18.12598980709103,22.759799361549224" style="fill:none;stroke:black;stroke-width:1"/>
<polygon points="18.631817082047732,24.348052960381665 18.275757961674497,22.702412589666146 18.810627726376087,24.30375984128997" style="fill:none;stroke:black;stroke-width:1"/>
<polygon points="18.631817082047732,24.348052960381665 18.810627726376087,24.30375984128997 17.382641304891038,20.677425239301584" style="fill:none;stroke:black;stroke-width:1"/>
<polygon points="18.444661962507368,24.383351385773146 18.631817082047732,24.348052960381665 17.382641304891038,20.677425239301584" style="fill:none;stroke:black;stroke-width:1"/>
<polygon points="13.104644981425434,21.12310243141495 14.18358767716746,13.139672253679988 14.898235074605324,12.226759843383133" style="fill:none;stroke:black;stroke-width:1"/>
<polygon points="13.171721361534678,21.15251291608461 13.104644981425434,21.12310243141495 14.898235074605324,12.226759843383133" style="fill:none;stroke:black;stroke-width:1"/>
<polygon points="12.146586767300928,22.38826608884873 12.187740849487849,22.438923644304758 13.492432855157727,17.21674230798724" style="fill:none;stroke:black;stroke-width:1"/>
<polygon points="14.615167505408966,7.2904579296356875 14.479261613735028,7.117032460309187 20.139475435510846,5.245205014608537" style="fill:none;stroke:black;stroke-width:1"/>
<polygon points="14.740872304645983,7.4832964515887905 14.615167505408966,7.2904579296356875 20.139475435510846,5.245205014608537" style="fill:none;stroke:black;stroke-width:1"/>
<polygon points="14.948797327910171,7.927026095485793 14.853527304628914,7.6959869666936935 20.139475435510846,5.245205014608537" style="fill:none;stroke:black;stroke-width:1"/>
<polygon points="15.02032119602925,8.172836077642138 14.948797327910171,7.927026095485793 20.139475435510846,5.245205014608537" style="fill:none;stroke:black;stroke-width:1"/>
<polygon points="13.890422097452888,6.607175377009075 13.367242690578557,8.032671337215909 13.736058896851334,6.513615291743431" style="fill:none;stroke:black;stroke-width:1"/>
<polygon points="13.367242690578557,8.032671337215909 13.205704718032472,7.942533153072635 13.736058896851334,6.513615291743431" style="fill:none;stroke:black;stroke-width:1"/>
<polygon points="13.367242690578557,8.032671337215909 13.890422097452888,6.607175377009075 14.038825616704115,6.70884494835944" style="fill:none;stroke:black;stroke-width:1"/>
<polygon points="13.205704718032472,7.942533153072635 13.367242690578557,8.032671337215909 14.004906179975443,8.946263380124973" style="fill:none;stroke:black;stroke-width:1"/>
<polygon points="12.07961951276534,7.555132673034215 12.409609657268343,6.1347582594385335 12.335339618598969,7.624627239701224" style="fill:none;stroke:black;stroke-width:1"/>
<polygon points="12.409609657268343,6.1347582594385335 12.07961951276534,7.555132673034215 12.190202259028101,6.126394567036698" style="fill:none;stroke:black;stroke-width:1"/>
<polygon points="12.808657894979916,7.77586060124594 12.07961951276534,7.555132673034215 12.335339618598969,7.624627239701224" style="fill:none;stroke:black;stroke-width:1"/>
<polygon points="13.018496368040438,7.8573825677529125 12.07961951276534,7.555132673034215 12.808657894979916,7.77586060124594" style="fill:none;stroke:black;stroke-width:1"/>
<polygon points="11.815172413793103,7.491379310344827 12.07961951276534,7.555132673034215 13.018496368040438,7.8573825677529125" style="fill:none;stroke:black;stroke-width:1"/>
<polygon points="12.190202259028101,6.126394567036698 11.964619922901239,6.131050832007347 15.593228215461568,3.5904310231306686" style="fill:none;stroke:black;stroke-width:1"/>
<polygon points="12.07961951276534,7.555132673034215 11.964619922901239,6.131050832007347 12.190202259028101,6.126394567036698" style="fill:none;stroke:black;stroke-width:1"/>
<polygon points="11.964619922901239,6.131050832007347 12.07961951276534,7.555132673034215 11.815172413793103,7.491379310344827" style="fill:none;stroke:black;stroke-width:1"/>
<polygon points="16.900134548840118,13.9828703329406 20.49301885583191,18.573077928311903 19.324796021140315,13.08299252427885" style="fill:none;stroke:black;stroke-width:1"/>
<polygon points="20.49301885583191,18.573077928311903 19.318243951440497,19.982375649144927 19.324796021140315,13.08299252427885" style="fill:none;stroke:black;stroke-width:1"/>
<polygon points="18.19929647992737,15.79275383218727 19.691309187662362,16.74291221184988 19.324796021140315,13.08299252427885" style="fill:none;stroke:black;stroke-width:1"/>
<polygon points="16.54095680991676,16.51801233848068 18.19929647992737,15.79275383218727 19.324796021140315,13.08299252427885" style="fill:none;stroke:black;stroke-width:1"/>
<polygon points="17.339608032771146,19.92501557590397 16.126918521723194,18.38561862913733 19.324796021140315,13.08299252427885" style="fill:none;stroke:black;stroke-width:1"/>
<polygon points="16.126918521723194,18.38561862913733 16.54095680991676,16.51801233848068 19.324796021140315,13.08299252427885" style="fill:none;stroke:black;stroke-width:1"/>
<polygon points="14.357795581350073,18.242919705361427 15.167759114658882,19.48692151478427 17.5521409298999,12.178316278954195" style="fill:none;stroke:black;stroke-width:1"/>
<polygon points="12.975430630915776,18.466015759877727 14.357795581350073,18.242919705361427 17.5521409298999,12.178316278954195" style="fill:none;stroke:black;stroke-width:1"/>
<polygon points="15.135462458343,21.625196186814854 13.72160615838029,20.26660778630889 17.5521409298999,12.178316278954195" style="fill:none;stroke:black;stroke-width:1"/>
<polygon points="13.72160615838029,20.26660778630889 12.975430630915776,18.466015759877727 17.5521409298999,12.178316278954195" style="fill:none;stroke:black;stroke-width:1"/>
<polygon points="18.051446996311626,24.422002828081286 17.84984763804111,24.424137931034483 17.676685343340637,22.931959677198453" style="fill:none;stroke:black;stroke-width:1"/>
<polygon points="17.84984763804111,24.424137931034483 17.525174986652047,23.001813033622234 17.676685343340637,22.931959677198453" style="fill:none;stroke:black;stroke-width:1"/>
<polygon points="17.84984763804111,24.424137931034483 18.051446996311626,24.422002828081286 14.796642540659878,19.95819070321155" style="fill:none;stroke:black;stroke-width:1"/>
<polygon points="17.64683341050256,24.389367618643934 17.84984763804111,24.424137931034483 14.796642540659878,19.95819070321155" style="fill:none;stroke:black;stroke-width:1"/>
<polygon points="17.84984763804111,24.424137931034483 17.64683341050256,24.389367618643934 17.46675884902534,24.30312412376268" style="fill:none;stroke:black;stroke-width:1"/>
<polygon points="19.61297512448818,22.317728955157563 19.812393010826177,22.304278415216224 20.03569700472069,23.848827114714755" style="fill:none;stroke:black;stroke-width:1"/>
<polygon points="20.185465159304158,23.79144034283168 19.812393010826177,22.304278415216224 20.015172413793103,22.30344827586207" style="fill:none;stroke:black;stroke-width:1"/>
<polygon points="19.812393010826177,22.304278415216224 20.185465159304158,23.79144034283168 20.03569700472069,23.848827114714755" style="fill:none;stroke:black;stroke-width:1"/>
<polygon points="19.812393010826177,22.304278415216224 12.53327558059322,20.862926316371055 20.015172413793103,22.30344827586207" style="fill:none;stroke:black;stroke-width:1"/>
<polygon points="19.812393010826177,22.304278415216224 19.61297512448818,22.317728955157563 12.53327558059322,20.862926316371055" style="fill:none;stroke:black;stroke-width:1"/>
<polygon points="13.231147504731368,21.186635244674772 13.171721361534678,21.15251291608461 14.898235074605324,12.226759843383133" style="fill:none;stroke:black;stroke-width:1"/>
<polygon points="16.757091783064247,13.105416739093878 13.368066414661747,21.31408689228966 14.898235074605324,12.226759843383133" style="fill:none;stroke:black;stroke-width:1"/>
<polygon points="13.368066414661747,21.31408689228966 13.326912332474825,21.263429336833635 14.898235074605324,12.226759843383133" style="fill:none;stroke:black;stroke-width:1"/>
<polygon points="12.672710030940127,21.099264958828165 12.57441469340763,21.133059607016612 14.18358767716746,13.139672253679988" style="fill:none;stroke:black;stroke-width:1"/>
<polygon points="12.57441469340763,21.133059607016612 12.478301475472541,21.18271370268635 14.18358767716746,13.139672253679988" style="fill:none;stroke:black;stroke-width:1"/>
<polygon points="12.38705146011845,21.247901058550852 12.3031672386286,21.328197360680957 14.18358767716746,13.139672253679988" style="fill:none;stroke:black;stroke-width:1"/>
<polygon points="12.478301475472541,21.18271370268635 12.38705146011845,21.247901058550852 14.18358767716746,13.139672253679988" style="fill:none;stroke:black;stroke-width:1"/>
<polygon points="12.082197483432948,22.252673272824296 12.1109318696721,22.325922171342597 13.492432855157727,17.21674230798724" style="fill:none;stroke:black;stroke-width:1"/>
<polygon points="12.1109318696721,22.325922171342597 12.146586767300928,22.38826608884873 13.492432855157727,17.21674230798724" style="fill:none;stroke:black;stroke-width:1"/>
<polygon points="17.84984763804111,24.424137931034483 17.386376984964954,23.1113431702032 17.525174986652047,23.001813033622234" style="fill:none;stroke:black;stroke-width:1"/>
<polygon points="17.386376984964954,23.1113431702032 17.46675884902534,24.30312412376268 17.269061130741886,23.255200126407978" style="fill:none;stroke:black;stroke-width:1"/>
<polygon points="17.386376984964954,23.1113431702032 17.84984763804111,24.424137931034483 17.46675884902534,24.30312412376268" style="fill:none;stroke:black;stroke-width:1"/>
<polygon points="12.187740849487849,22.438923644304758 12.232325755820439,22.478808868722705 17.269061130741886,23.255200126407978" style="fill:none;stroke:black;stroke-width:1"/>
<polygon points="12.232325755820439,22.478808868722705 17.386376984964954,23.1113431702032 17.269061130741886,23.255200126407978" style="fill:none;stroke:black;stroke-width:1"/>
<polygon points="17.386376984964954,23.1113431702032 12.232325755820439,22.478808868722705 12.283666493883665,22.5160894421626" style="fill:none;stroke:black;stroke-width:1"/>
<polygon points="12.565850430468736,22.618708272491535 17.826453497924103,22.874572905315375 17.676685343340637,22.931959677198453" style="fill:none;stroke:black;stroke-width:1"/>
<polygon points="14.188241846121365,6.826664911644051 13.510370360366666,8.135424001053556 14.038825616704115,6.70884494835944" style="fill:none;stroke:black;stroke-width:1"/>
<polygon points="13.510370360366666,8.135424001053556 13.367242690578557,8.032671337215909 14.038825616704115,6.70884494835944" style="fill:none;stroke:black;stroke-width:1"/>
<polygon points="13.367242690578557,8.032671337215909 13.510370360366666,8.135424001053556 14.004906179975443,8.946263380124973" style="fill:none;stroke:black;stroke-width:1"/>
<polygon points="11.735880762915041,6.163987145220624 11.815172413793103,7.491379310344827 11.52388685152968,6.277247137136941" style="fill:none;stroke:black;stroke-width:1"/>
<polygon points="11.735880762915041,6.163987145220624 11.964619922901239,6.131050832007347 11.815172413793103,7.491379310344827" style="fill:none;stroke:black;stroke-width:1"/>
<polygon points="11.735880762915041,6.163987145220624 11.52388685152968,6.277247137136941 15.593228215461568,3.5904310231306686" style="fill:none;stroke:black;stroke-width:1"/>
<polygon points="11.964619922901239,6.131050832007347 11.735880762915041,6.163987145220624 15.593228215461568,3.5904310231306686" style="fill:none;stroke:black;stroke-width:1"/>
<polygon points="13.326912332474825,21.263429336833635 13.282334597558815,21.223675019734575 14.898235074605324,12.226759843383133" style="fill:none;stroke:black;stroke-width:1"/>
<polygon points="13.282334597558815,21.223675019734575 13.231147504731368,21.186635244674772 14.898235074605324,12.226759843383133" style="fill:none;stroke:black;stroke-width:1"/>
<polygon points="13.403721312290571,21.376430809795796 16.757091783064247,13.105416739093878 13.432455698529726,21.449679708314093" style="fill:none;stroke:black;stroke-width:1"/>
<polygon points="13.403721312290571,21.376430809795796 13.368066414661747,21.31408689228966 16.757091783064247,13.105416739093878" style="fill:none;stroke:black;stroke-width:1"/>
<polygon points="12.770341619375875,21.081536221580798 12.672710030940127,21.099264958828165 14.18358767716746,13.139672253679988" style="fill:none;stroke:black;stroke-width:1"/>
<polygon points="12.863059047881002,21.07805914012195 12.770341619375875,21.081536221580798 14.18358767716746,13.139672253679988" style="fill:none;stroke:black;stroke-width:1"/>
<polygon points="12.94980743899745,21.084581367499624 12.863059047881002,21.07805914012195 14.18358767716746,13.139672253679988" style="fill:none;stroke:black;stroke-width:1"/>
<polygon points="12.050609155495563,22.077430912184838 12.061695794816313,22.16947275239666 13.447677507428802,15.031059876193908" style="fill:none;stroke:black;stroke-width:1"/>
<polygon points="12.04997143619239,21.977797487208516 12.050609155495563,22.077430912184838 13.447677507428802,15.031059876193908" style="fill:none;stroke:black;stroke-width:1"/>
<polygon points="12.08334060598295,21.76133184499072 12.060651721917925,21.871941936314123 13.447677507428802,15.031059876193908" style="fill:none;stroke:black;stroke-width:1"/>
<polygon points="12.060651721917925,21.871941936314123 12.04997143619239,21.977797487208516 13.447677507428802,15.031059876193908" style="fill:none;stroke:black;stroke-width:1"/>
<polygon points="12.3031672386286,21.328197360680957 12.228962019516828,21.423103313204706 13.447677507428802,15.031059876193908" style="fill:none;stroke:black;stroke-width:1"/>
<polygon points="12.228962019516828,21.423103313204706 12.166551724137932,21.53206896551724 13.447677507428802,15.031059876193908" style="fill:none;stroke:black;stroke-width:1"/>
<polygon points="12.118539298928843,21.647509780670177 12.08334060598295,21.76133184499072 13.447677507428802,15.031059876193908" style="fill:none;stroke:black;stroke-width:1"/>
<polygon points="12.166551724137932,21.53206896551724 12.118539298928843,21.647509780670177 13.447677507428802,15.031059876193908" style="fill:none;stroke:black;stroke-width:1"/>
<polygon points="17.525174986652047,23.001813033622234 12.48491811997798,22.60321323405256 17.676685343340637,22.931959677198453" style="fill:none;stroke:black;stroke-width:1"/>
<polygon points="12.48491811997798,22.60321323405256 12.565850430468736,22.618708272491535 17.676685343340637,22.931959677198453" style="fill:none;stroke:black;stroke-width:1"/>
<polygon points="17.826453497924103,22.874572905315375 12.652867111774977,22.625272178066012 17.97622165250757,22.8171861334323" style="fill:none;stroke:black;stroke-width:1"/>
<polygon points="12.565850430468736,22.618708272491535 12.652867111774977,22.625272178066012 17.826453497924103,22.874572905315375" style="fill:none;stroke:black;stroke-width:1"/>
<polygon points="17.97622165250757,22.8171861334323 12.652867111774977,22.625272178066012 18.12598980709103,22.759799361549224" style="fill:none;stroke:black;stroke-width:1"/>
<polygon points="13.637745156172429,8.249349226698852 14.188241846121365,6.826664911644051 14.336003452885414,6.962581101636305" style="fill:none;stroke:black;stroke-width:1"/>
<polygon points="13.637745156172429,8.249349226698852 13.510370360366666,8.135424001053556 14.188241846121365,6.826664911644051" style="fill:none;stroke:black;stroke-width:1"/>
<polygon points="13.637745156172429,8.249349226698852 14.336003452885414,6.962581101636305 14.479261613735028,7.117032460309187" style="fill:none;stroke:black;stroke-width:1"/>
<polygon points="13.510370360366666,8.135424001053556 13.637745156172429,8.249349226698852 14.004906179975443,8.946263380124973" style="fill:none;stroke:black;stroke-width:1"/>
<polygon points="13.104644981425434,21.12310243141495 13.030494388289213,21.099994903705138 14.18358767716746,13.139672253679988" style="fill:none;stroke:black;stroke-width:1"/>
<polygon points="13.030494388289213,21.099994903705138 12.94980743899745,21.084581367499624 14.18358767716746,13.139672253679988" style="fill:none;stroke:black;stroke-width:1"/>
<polygon points="17.386376984964954,23.1113431702032 12.34326921130694,22.550412745096192 17.525174986652047,23.001813033622234" style="fill:none;stroke:black;stroke-width:1"/>
<polygon points="12.34326921130694,22.550412745096192 17.386376984964954,23.1113431702032 12.283666493883665,22.5160894421626" style="fill:none;stroke:black;stroke-width:1"/>
<polygon points="12.745661381100483,22.62201617298306 18.275757961674497,22.702412589666146 18.12598980709103,22.759799361549224" style="fill:none;stroke:black;stroke-width:1"/>
<polygon points="12.652867111774977,22.625272178066012 12.745661381100483,22.62201617298306 18.12598980709103,22.759799361549224" style="fill:none;stroke:black;stroke-width:1"/>
<polygon points="18.275757961674497,22.702412589666146 12.745661381100483,22.62201617298306 18.425526116257963,22.645025817783072" style="fill:none;stroke:black;stroke-width:1"/>
<polygon points="14.615167505408966,7.2904579296356875 13.748412225267538,8.373295574097082 14.479261613735028,7.117032460309187" style="fill:none;stroke:black;stroke-width:1"/>
<polygon points="13.748412225267538,8.373295574097082 13.637745156172429,8.249349226698852 14.479261613735028,7.117032460309187" style="fill:none;stroke:black;stroke-width:1"/>
<polygon points="13.637745156172429,8.249349226698852 13.748412225267538,8.373295574097082 14.004906179975443,8.946263380124973" style="fill:none;stroke:black;stroke-width:1"/>
<polygon points="12.410545094633573,22.57998438007263 12.48491811997798,22.60321323405256 17.525174986652047,23.001813033622234" style="fill:none;stroke:black;stroke-width:1"/>
<polygon points="12.34326921130694,22.550412745096192 12.410545094633573,22.57998438007263 17.525174986652047,23.001813033622234" style="fill:none;stroke:black;stroke-width:1"/>
<polygon points="12.842621491528881,22.604850533949207 18.72507776512659,22.530210671501187 18.575294270841425,22.58763904589999" style="fill:none;stroke:black;stroke-width:1"/>
<polygon points="18.72507776512659,22.530210671501187 12.842621491528881,22.604850533949207 12.940367460939354,22.571211192562217" style="fill:none;stroke:black;stroke-width:1"/>
<polygon points="18.425526116257963,22.645025817783072 12.842621491528881,22.604850533949207 18.575294270841425,22.58763904589999" style="fill:none;stroke:black;stroke-width:1"/>
<polygon points="12.745661381100483,22.62201617298306 12.842621491528881,22.604850533949207 18.425526116257963,22.645025817783072" style="fill:none;stroke:black;stroke-width:1"/>
<polygon points="13.841416714923698,8.506111603193524 14.615167505408966,7.2904579296356875 14.740872304645983,7.4832964515887905" style="fill:none;stroke:black;stroke-width:1"/>
<polygon points="13.841416714923698,8.506111603193524 13.748412225267538,8.373295574097082 14.615167505408966,7.2904579296356875" style="fill:none;stroke:black;stroke-width:1"/>
<polygon points="13.841416714923698,8.506111603193524 14.740872304645983,7.4832964515887905 14.853527304628914,7.6959869666936935" style="fill:none;stroke:black;stroke-width:1"/>
<polygon points="13.748412225267538,8.373295574097082 13.970618545005951,8.79374694626219 14.004906179975443,8.946263380124973" style="fill:none;stroke:black;stroke-width:1"/>
<polygon points="13.841416714923698,8.506111603193524 13.970618545005951,8.79374694626219 13.748412225267538,8.373295574097082" style="fill:none;stroke:black;stroke-width:1"/>
<polygon points="13.970618545005951,8.79374694626219 15.02032119602925,8.172836077642138 14.004906179975443,8.946263380124973" style="fill:none;stroke:black;stroke-width:1"/>
<polygon points="13.970618545005951,8.79374694626219 14.948797327910171,7.927026095485793 15.02032119602925,8.172836077642138" style="fill:none;stroke:black;stroke-width:1"/>
<polygon points="14.948797327910171,7.927026095485793 13.915803772412604,8.646645873933466 14.853527304628914,7.6959869666936935" style="fill:none;stroke:black;stroke-width:1"/>
<polygon points="13.970618545005951,8.79374694626219 13.915803772412604,8.646645873933466 14.948797327910171,7.927026095485793" style="fill:none;stroke:black;stroke-width:1"/>
<polygon points="13.915803772412604,8.646645873933466 13.841416714923698,8.506111603193524 14.853527304628914,7.6959869666936935" style="fill:none;stroke:black;stroke-width:1"/>
<polygon points="13.915803772412604,8.646645873933466 13.970618545005951,8.79374694626219 13.841416714923698,8.506111603193524" style="fill:none;stroke:black;stroke-width:1"/>
<polygon points="13.431312575979724,21.94102113614767 20.377381118754837,21.473123716121144 13.39611388303383,22.054843200468216" style="fill:none;stroke:black;stroke-width:1"/>
<polygon points="13.39611388303383,22.054843200468216 20.377381118754837,21.473123716121144 18.835667032725823,22.712188867223688" style="fill:none;stroke:black;stroke-width:1"/>
<polygon points="13.211505277334414,22.375002531248924 20.686591309401027,15.410723085275865 19.189006764299656,14.380494931523067" style="fill:none;stroke:black;stroke-width:1"/>
<polygon points="13.211505277334414,22.375002531248924 19.189006764299656,14.380494931523067 13.127320610308528,22.455820948562327" style="fill:none;stroke:black;stroke-width:1"/>
<polygon points="21.68088435993736,16.922751800612282 13.211505277334414,22.375002531248924 13.286524596679469,22.279539800508992" style="fill:none;stroke:black;stroke-width:1"/>
<polygon points="13.211505277334414,22.375002531248924 21.68088435993736,16.922751800612282 20.686591309401027,15.410723085275865" style="fill:none;stroke:black;stroke-width:1"/>
<polygon points="17.341221215796537,13.98381648983432 13.036134001304765,22.52139560432378 13.127320610308528,22.455820948562327" style="fill:none;stroke:black;stroke-width:1"/>
<polygon points="19.189006764299656,14.380494931523067 17.341221215796537,13.98381648983432 13.127320610308528,22.455820948562327" style="fill:none;stroke:black;stroke-width:1"/>
<polygon points="13.036134001304765,22.52139560432378 17.341221215796537,13.98381648983432 12.940367460939354,22.571211192562217" style="fill:none;stroke:black;stroke-width:1"/>
<polygon points="17.341221215796537,13.98381648983432 15.395203407096963,14.340575621194906 12.940367460939354,22.571211192562217" style="fill:none;stroke:black;stroke-width:1"/>
<polygon points="19.10188462646945,24.411262665171066 22.016206896551722,18.759655172413794 20.942789985799223,23.578331688705898" style="fill:none;stroke:black;stroke-width:1"/>
<polygon points="22.016206896551722,18.759655172413794 12.262359851957541,18.848439656079726 12.725121910710515,16.926595747684516" style="fill:none;stroke:black;stroke-width:1"/>
<polygon points="19.589830186143608,18.967389018191074 22.016206896551722,18.759655172413794 20.864594659337012,18.69957810865614" style="fill:none;stroke:black;stroke-width:1"/>
<polygon points="22.016206896551722,18.759655172413794 12.53327558059322,20.862926316371055 12.262359851957541,18.848439656079726" style="fill:none;stroke:black;stroke-width:1"/>
<polygon points="22.016206896551722,18.759655172413794 20.442051823167297,17.179899776197857 21.318088633745255,18.93312520153822" style="fill:none;stroke:black;stroke-width:1"/>
<polygon points="22.016206896551722,18.759655172413794 22.407762639493974,17.129330943021067 21.12878719761804,15.730527994288558" style="fill:none;stroke:black;stroke-width:1"/>
<polygon points="22.016206896551722,18.759655172413794 16.900134548840118,13.9828703329406 15.332545736936066,15.09614554226777" style="fill:none;stroke:black;stroke-width:1"/>
<polygon points="19.331705952696574,14.932248794789187 22.016206896551722,18.759655172413794 21.12878719761804,15.730527994288558" style="fill:none;stroke:black;stroke-width:1"/>
<polygon points="22.016206896551722,18.759655172413794 17.341221215796537,13.98381648983432 19.189006764299656,14.380494931523067" style="fill:none;stroke:black;stroke-width:1"/>
<polygon points="22.82089980311153,18.722203370737148 22.016206896551722,18.759655172413794 21.318088633745255,18.93312520153822" style="fill:none;stroke:black;stroke-width:1"/>
<polygon points="18.767209492317143,16.251306645977536 22.016206896551722,18.759655172413794 16.94726533581911,16.708680425355986" style="fill:none;stroke:black;stroke-width:1"/>
<polygon points="14.309177844891302,16.779172028478552 22.016206896551722,18.759655172413794 15.332545736936066,15.09614554226777" style="fill:none;stroke:black;stroke-width:1"/>
<polygon points="22.016206896551722,18.759655172413794 15.990489643560373,18.23364318883324 16.94726533581911,16.708680425355986" style="fill:none;stroke:black;stroke-width:1"/>
<polygon points="22.016206896551722,18.759655172413794 17.025081611981424,22.351188765632777 19.691309187662362,16.74291221184988" style="fill:none;stroke:black;stroke-width:1"/>
<polygon points="22.016206896551722,18.759655172413794 15.046311664727098,23.866553923618486 13.513990464768638,22.597001104547218" style="fill:none;stroke:black;stroke-width:1"/>
<polygon points="22.016206896551722,18.759655172413794 16.649358105433592,20.59574371290713 15.167759114658882,19.48692151478427" style="fill:none;stroke:black;stroke-width:1"/>
<polygon points="22.016206896551722,18.759655172413794 21.343074399394368,19.70677703294321 20.864594659337012,18.69957810865614" style="fill:none;stroke:black;stroke-width:1"/>
<polygon points="20.377381118754837,21.473123716121144 22.016206896551722,18.759655172413794 18.835667032725823,22.712188867223688" style="fill:none;stroke:black;stroke-width:1"/>
<polygon points="22.016206896551722,18.759655172413794 22.317557246027143,22.16963121040986 20.942789985799223,23.578331688705898" style="fill:none;stroke:black;stroke-width:1"/>
<polygon points="20.442051823167297,17.179899776197857 22.016206896551722,18.759655172413794 18.767209492317143,16.251306645977536" style="fill:none;stroke:black;stroke-width:1"/>
<polygon points="22.016206896551722,18.759655172413794 14.309177844891302,16.779172028478552 14.377285778632361,18.27950163608616" style="fill:none;stroke:black;stroke-width:1"/>
<polygon points="15.990489643560373,18.23364318883324 22.016206896551722,18.759655172413794 14.377285778632361,18.27950163608616" style="fill:none;stroke:black;stroke-width:1"/>
<polygon points="13.810367136139496,15.372735979824142 22.016206896551722,18.759655172413794 12.725121910710515,16.926595747684516" style="fill:none;stroke:black;stroke-width:1"/>
<polygon points="22.016206896551722,18.759655172413794 20.49301885583191,18.573077928311903 16.900134548840118,13.9828703329406" style="fill:none;stroke:black;stroke-width:1"/>
<polygon points="12.53327558059322,20.862926316371055 22.016206896551722,18.759655172413794 13.513990464768638,22.597001104547218" style="fill:none;stroke:black;stroke-width:1"/>
<polygon points="22.016206896551722,18.759655172413794 16.126918521723194,18.38561862913733 17.339608032771146,19.92501557590397" style="fill:none;stroke:black;stroke-width:1"/>
<polygon points="20.686591309401027,15.410723085275865 22.016206896551722,18.759655172413794 19.189006764299656,14.380494931523067" style="fill:none;stroke:black;stroke-width:1"/>
<polygon points="21.68088435993736,16.922751800612282 22.016206896551722,18.759655172413794 20.686591309401027,15.410723085275865" style="fill:none;stroke:black;stroke-width:1"/>
<polygon points="16.649358105433592,20.59574371290713 22.016206896551722,18.759655172413794 18.486629849329546,20.362921296580513" style="fill:none;stroke:black;stroke-width:1"/>
<polygon points="22.016206896551722,18.759655172413794 19.589830186143608,18.967389018191074 18.486629849329546,20.362921296580513" style="fill:none;stroke:black;stroke-width:1"/>
<polygon points="22.016206896551722,18.759655172413794 20.377381118754837,21.473123716121144 21.343074399394368,19.70677703294321" style="fill:none;stroke:black;stroke-width:1"/>
<polygon points="22.407762639493974,17.129330943021067 22.016206896551722,18.759655172413794 22.82089980311153,18.722203370737148" style="fill:none;stroke:black;stroke-width:1"/>
<polygon points="22.317557246027143,22.16963121040986 22.016206896551722,18.759655172413794 23.100540939534625,20.338169559760498" style="fill:none;stroke:black;stroke-width:1"/>
<polygon points="22.016206896551722,18.759655172413794 19.331705952696574,14.932248794789187 23.100540939534625,20.338169559760498" style="fill:none;stroke:black;stroke-width:1"/>
<polygon points="19.318243951440497,19.982375649144927 22.016206896551722,18.759655172413794 17.339608032771146,19.92501557590397" style="fill:none;stroke:black;stroke-width:1"/>
<polygon points="18.19929647992737,15.79275383218727 22.016206896551722,18.759655172413794 19.691309187662362,16.74291221184988" style="fill:none;stroke:black;stroke-width:1"/>
<polygon points="17.025081611981424,22.351188765632777 22.016206896551722,18.759655172413794 15.135462458343,21.625196186814854" style="fill:none;stroke:black;stroke-width:1"/>
<polygon points="14.357795581350073,18.242919705361427 22.016206896551722,18.759655172413794 15.167759114658882,19.48692151478427" style="fill:none;stroke:black;stroke-width:1"/>
<polygon points="15.046311664727098,23.866553923618486 22.016206896551722,18.759655172413794 16.9754490001535,24.51796222516103" style="fill:none;stroke:black;stroke-width:1"/>
<polygon points="22.016206896551722,18.759655172413794 19.10188462646945,24.411262665171066 16.9754490001535,24.51796222516103" style="fill:none;stroke:black;stroke-width:1"/>
<polygon points="22.016206896551722,18.759655172413794 13.72160615838029,20.26660778630889 15.135462458343,21.625196186814854" style="fill:none;stroke:black;stroke-width:1"/>
<polygon points="17.341221215796537,13.98381648983432 22.016206896551722,18.759655172413794 15.395203407096963,14.340575621194906" style="fill:none;stroke:black;stroke-width:1"/>
<polygon points="22.016206896551722,18.759655172413794 13.810367136139496,15.372735979824142 15.395203407096963,14.340575621194906" style="fill:none;stroke:black;stroke-width:1"/>
<polygon points="20.49301885583191,18.573077928311903 22.016206896551722,18.759655172413794 19.318243951440497,19.982375649144927" style="fill:none;stroke:black;stroke-width:1"/>
<polygon points="22.016206896551722,18.759655172413794 18.19929647992737,15.79275383218727 16.54095680991676,16.51801233848068" style="fill:none;stroke:black;stroke-width:1"/>
<polygon points="16.126918521723194,18.38561862913733 22.016206896551722,18.759655172413794 16.54095680991676,16.51801233848068" style="fill:none;stroke:black;stroke-width:1"/>
<polygon points="22.016206896551722,18.759655172413794 14.357795581350073,18.242919705361427 12.975430630915776,18.466015759877727" style="fill:none;stroke:black;stroke-width:1"/>
<polygon points="13.72160615838029,20.26660778630889 22.016206896551722,18.759655172413794 12.975430630915776,18.466015759877727" style="fill:none;stroke:black;stroke-width:1"/>
<polygon points="22.016206896551722,18.759655172413794 13.34822432099901,22.170423630257222 13.39611388303383,22.054843200468216" style="fill:none;stroke:black;stroke-width:1"/>
<polygon points="22.016206896551722,18.759655172413794 13.39611388303383,22.054843200468216 18.835667032725823,22.712188867223688" style="fill:none;stroke:black;stroke-width:1"/>
<polygon points="13.34822432099901,22.170423630257222 22.016206896551722,18.759655172413794 13.286524596679469,22.279539800508992" style="fill:none;stroke:black;stroke-width:1"/>
<polygon points="22.016206896551722,18.759655172413794 21.68088435993736,16.922751800612282 13.286524596679469,22.279539800508992" style="fill:none;stroke:black;stroke-width:1"/>
<polygon points="12.842621491528881,22.604850533949207 13.432455698529726,21.449679708314093 13.452957387146363,21.532880228741732" style="fill:none;stroke:black;stroke-width:1"/>
<polygon points="13.46404402646711,21.624922068953552 12.842621491528881,22.604850533949207 13.452957387146363,21.532880228741732" style="fill:none;stroke:black;stroke-width:1"/>
<polygon points="12.842621491528881,22.604850533949207 12.060651721917925,21.871941936314123 12.08334060598295,21.76133184499072" style="fill:none;stroke:black;stroke-width:1"/>
<polygon points="12.842621491528881,22.604850533949207 13.036134001304765,22.52139560432378 12.940367460939354,22.571211192562217" style="fill:none;stroke:black;stroke-width:1"/>
<polygon points="12.842621491528881,22.604850533949207 13.464681745770283,21.724555493929877 13.454001460044749,21.830411044824267" style="fill:none;stroke:black;stroke-width:1"/>
<polygon points="13.431312575979724,21.94102113614767 12.842621491528881,22.604850533949207 13.454001460044749,21.830411044824267" style="fill:none;stroke:black;stroke-width:1"/>
<polygon points="12.842621491528881,22.604850533949207 13.403721312290571,21.376430809795796 13.432455698529726,21.449679708314093" style="fill:none;stroke:black;stroke-width:1"/>
<polygon points="12.842621491528881,22.604850533949207 13.34822432099901,22.170423630257222 13.286524596679469,22.279539800508992" style="fill:none;stroke:black;stroke-width:1"/>
<polygon points="13.036134001304765,22.52139560432378 12.842621491528881,22.604850533949207 13.127320610308528,22.455820948562327" style="fill:none;stroke:black;stroke-width:1"/>
<polygon points="13.211505277334414,22.375002531248924 12.842621491528881,22.604850533949207 13.286524596679469,22.279539800508992" style="fill:none;stroke:black;stroke-width:1"/>
<polygon points="12.842621491528881,22.604850533949207 12.082197483432948,22.252673272824296 12.061695794816313,22.16947275239666" style="fill:none;stroke:black;stroke-width:1"/>
<polygon points="13.464681745770283,21.724555493929877 12.842621491528881,22.604850533949207 13.46404402646711,21.624922068953552" style="fill:none;stroke:black;stroke-width:1"/>
<polygon points="13.34822432099901,22.170423630257222 12.842621491528881,22.604850533949207 13.39611388303383,22.054843200468216" style="fill:none;stroke:black;stroke-width:1"/>
<polygon points="12.842621491528881,22.604850533949207 13.431312575979724,21.94102113614767 13.39611388303383,22.054843200468216" style="fill:none;stroke:black;stroke-width:1"/>
<polygon points="13.231147504731368,21.186635244674772 12.842621491528881,22.604850533949207 13.171721361534678,21.15251291608461" style="fill:none;stroke:black;stroke-width:1"/>
<polygon points="12.842621491528881,22.604850533949207 13.282334597558815,21.223675019734575 13.326912332474825,21.263429336833635" style="fill:none;stroke:black;stroke-width:1"/>
<polygon points="12.38705146011845,21.247901058550852 12.842621491528881,22.604850533949207 12.3031672386286,21.328197360680957" style="fill:none;stroke:black;stroke-width:1"/>
<polygon points="12.842621491528881,22.604850533949207 13.211505277334414,22.375002531248924 13.127320610308528,22.455820948562327" style="fill:none;stroke:black;stroke-width:1"/>
<polygon points="12.842621491528881,22.604850533949207 12.232325755820439,22.478808868722705 12.187740849487849,22.438923644304758" style="fill:none;stroke:black;stroke-width:1"/>
<polygon points="12.842621491528881,22.604850533949207 13.104644981425434,21.12310243141495 13.171721361534678,21.15251291608461" style="fill:none;stroke:black;stroke-width:1"/>
<polygon points="12.842621491528881,22.604850533949207 12.57441469340763,21.133059607016612 12.672710030940127,21.099264958828165" style="fill:none;stroke:black;stroke-width:1"/>
<polygon points="12.842621491528881,22.604850533949207 12.34326921130694,22.550412745096192 12.283666493883665,22.5160894421626" style="fill:none;stroke:black;stroke-width:1"/>
<polygon points="12.146586767300928,22.38826608884873 12.842621491528881,22.604850533949207 12.187740849487849,22.438923644304758" style="fill:none;stroke:black;stroke-width:1"/>
<polygon points="12.842621491528881,22.604850533949207 12.1109318696721,22.325922171342597 12.082197483432948,22.252673272824296" style="fill:none;stroke:black;stroke-width:1"/>
<polygon points="12.842621491528881,22.604850533949207 13.030494388289213,21.099994903705138 13.104644981425434,21.12310243141495" style="fill:none;stroke:black;stroke-width:1"/>
<polygon points="13.368066414661747,21.31408689228966 12.842621491528881,22.604850533949207 13.326912332474825,21.263429336833635" style="fill:none;stroke:black;stroke-width:1"/>
<polygon points="12.770341619375875,21.081536221580798 12.842621491528881,22.604850533949207 12.672710030940127,21.099264958828165" style="fill:none;stroke:black;stroke-width:1"/>
<polygon points="12.57441469340763,21.133059607016612 12.842621491528881,22.604850533949207 12.478301475472541,21.18271370268635" style="fill:none;stroke:black;stroke-width:1"/>
<polygon points="12.842621491528881,22.604850533949207 12.38705146011845,21.247901058550852 12.478301475472541,21.18271370268635" style="fill:none;stroke:black;stroke-width:1"/>
<polygon points="12.050609155495563,22.077430912184838 12.842621491528881,22.604850533949207 12.061695794816313,22.16947275239666" style="fill:none;stroke:black;stroke-width:1"/>
<polygon points="12.842621491528881,22.604850533949207 12.228962019516828,21.423103313204706 12.3031672386286,21.328197360680957" style="fill:none;stroke:black;stroke-width:1"/>
<polygon points="12.1109318696721,22.325922171342597 12.842621491528881,22.604850533949207 12.146586767300928,22.38826608884873" style="fill:none;stroke:black;stroke-width:1"/>
<polygon points="12.232325755820439,22.478808868722705 12.842621491528881,22.604850533949207 12.283666493883665,22.5160894421626" style="fill:none;stroke:black;stroke-width:1"/>
<polygon points="12.118539298928843,21.647509780670177 12.842621491528881,22.604850533949207 12.08334060598295,21.76133184499072" style="fill:none;stroke:black;stroke-width:1"/>
<polygon points="13.282334597558815,21.223675019734575 12.842621491528881,22.604850533949207 13.231147504731368,21.186635244674772" style="fill:none;stroke:black;stroke-width:1"/>
<polygon points="13.403721312290571,21.376430809795796 12.842621491528881,22.604850533949207 13.368066414661747,21.31408689228966" style="fill:none;stroke:black;stroke-width:1"/>
<polygon points="12.842621491528881,22.604850533949207 12.770341619375875,21.081536221580798 12.863059047881002,21.07805914012195" style="fill:none;stroke:black;stroke-width:1"/>
<polygon points="12.94980743899745,21.084581367499624 12.842621491528881,22.604850533949207 12.863059047881002,21.07805914012195" style="fill:none;stroke:black;stroke-width:1"/>
<polygon points="12.842621491528881,22.604850533949207 12.050609155495563,22.077430912184838 12.04997143619239,21.977797487208516" style="fill:none;stroke:black;stroke-width:1"/>
<polygon points="12.060651721917925,21.871941936314123 12.842621491528881,22.604850533949207 12.04997143619239,21.977797487208516" style="fill:none;stroke:black;stroke-width:1"/>
<polygon points="12.228962019516828,21.423103313204706 12.842621491528881,22.604850533949207 12.166551724137932,21.53206896551724" style="fill:none;stroke:black;stroke-width:1"/>
<polygon points="12.842621491528881,22.604850533949207 12.118539298928843,21.647509780670177 12.166551724137932,21.53206896551724" style="fill:none;stroke:black;stroke-width:1"/>
<polygon points="12.48491811997798,22.60321323405256 12.842621491528881,22.604850533949207 12.565850430468736,22.618708272491535" style="fill:none;stroke:black;stroke-width:1"/>
<polygon points="12.842621491528881,22.604850533949207 12.652867111774977,22.625272178066012 12.565850430468736,22.618708272491535" style="fill:none;stroke:black;stroke-width:1"/>
<polygon points="13.030494388289213,21.099994903705138 12.842621491528881,22.604850533949207 12.94980743899745,21.084581367499624" style="fill:none;stroke:black;stroke-width:1"/>
<polygon points="12.410545094633573,22.57998438007263 12.842621491528881,22.604850533949207 12.48491811997798,22.60321323405256" style="fill:none;stroke:black;stroke-width:1"/>
<polygon points="12.842621491528881,22.604850533949207 12.745661381100483,22.62201617298306 12.652867111774977,22.625272178066012" style="fill:none;stroke:black;stroke-width:1"/>
<polygon points="12.842621491528881,22.604850533949207 12.410545094633573,22.57998438007263 12.34326921130694,22.550412745096192" style="fill:none;stroke:black;stroke-width:1"/>
</svg>
