<?xml version="1.0" encoding="UTF-8" standalone="no"?>
<svg xmlns="http://www.w3.org/2000/svg" version="1.1" width="800" height="800">
<polygon points="14.278083151297734,27.124966117474656 16.777675587282417,25.816231436819002 17.973750029320158,27.30930203084944" style="fill:none;stroke:black;stroke-width:1"/>
<polygon points="14.004396556166652,14.808703937353252 11.049041675188256,14.328457485564781 11.97038368447949,11.827262908798632" style="fill:none;stroke:black;stroke-width:1"/>
<polygon points="23.68125573518478,6.666972309116224 23.011789626608333,4.235248527129018 25.3094635340056,6.628083495865042" style="fill:none;stroke:black;stroke-width:1"/>
<polygon points="18.124987212538343,3.919824201332006 14.645458477592886,5.0139306597173805 16.917140135175263,1.8825311907955902" style="fill:none;stroke:black;stroke-width:1"/>
<polygon points="9.794914494371476,10.260433330344112 9.918965517241379,11.815172413793102 7.718399158767718,9.253190692799576" style="fill:none;stroke:black;stroke-width:1"/>
<polygon points="11.049041675188256,14.328457485564781 9.918965517241379,11.815172413793102 11.97038368447949,11.827262908798632" style="fill:none;stroke:black;stroke-width:1"/>
<polygon points="9.918965517241379,11.815172413793102 9.794914494371476,10.260433330344112 11.97038368447949,11.827262908798632" style="fill:none;stroke:black;stroke-width:1"/>
<polygon points="7.993176856071398,5.886890012514654 8.81049872383164,7.204943941725682 7.718399158767718,9.253190692799576" style="fill:none;stroke:black;stroke-width:1"/>
<polygon points="8.81049872383164,7.204943941725682 9.794914494371476,10.260433330344112 7.718399158767718,9.253190692799576" style="fill:none;stroke:black;stroke-width:1"/>
<polygon points="10.648491052770696,3.9496744606426573 8.81049872383164,7.204943941725682 7.993176856071398,5.886890012514654" style="fill:none;stroke:black;stroke-width:1"/>
<polygon points="20.891582823063867,25.78310070823821 19.883989777559268,24.617720547569473 22.53479704228619,21.90008509871445" style="fill:none;stroke:black;stroke-width:1"/>
<polygon points="19.883989777559268,24.617720547569473 20.891582823063867,25.78310070823821 17.973750029320158,27.30930203084944" style="fill:none;stroke:black;stroke-width:1"/>
<polygon points="16.777675587282417,25.816231436819002 19.883989777559268,24.617720547569473 17.973750029320158,27.30930203084944" style="fill:none;stroke:black;stroke-width:1"/>
<polygon points="21.037747969083114,20.948605880586353 22.569801484574313,19.261395507641453 22.53479704228619,21.90008509871445" style="fill:none;stroke:black;stroke-width:1"/>
<polygon points="19.883989777559268,24.617720547569473 21.037747969083114,20.948605880586353 22.53479704228619,21.90008509871445" style="fill:none;stroke:black;stroke-width:1"/>
<polygon points="15.420872282914202,11.850422383008457 14.004396556166652,14.808703937353252 11.97038368447949,11.827262908798632" style="fill:none;stroke:black;stroke-width:1"/>
<polygon points="14.004396556166652,14.808703937353252 15.420872282914202,11.850422383008457 17.466332759497945,14.789326511581677" style="fill:none;stroke:black;stroke-width:1"/>
<polygon points="23.68125573518478,6.666972309116224 20.789289830535154,5.234553246264205 23.011789626608333,4.235248527129018" style="fill:none;stroke:black;stroke-width:1"/>
<polygon points="16.917140135175263,1.8825311907955902 14.868038500107119,3.146513603711831 13.51823380282949,2.375075054577848" style="fill:none;stroke:black;stroke-width:1"/>
<polygon points="12.16961158381716,5.131310191005383 8.81049872383164,7.204943941725682 10.648491052770696,3.9496744606426573" style="fill:none;stroke:black;stroke-width:1"/>
<polygon points="8.81049872383164,7.204943941725682 12.16961158381716,5.131310191005383 9.794914494371476,10.260433330344112" style="fill:none;stroke:black;stroke-width:1"/>
<polygon points="12.16961158381716,5.131310191005383 10.648491052770696,3.9496744606426573 13.51823380282949,2.375075054577848" style="fill:none;stroke:black;stroke-width:1"/>
<polygon points="25.00765076934319,10.035941561432123 23.68125573518478,6.666972309116224 25.3094635340056,6.628083495865042" style="fill:none;stroke:black;stroke-width:1"/>
<polygon points="22.569801484574313,19.261395507641453 25.00765076934319,10.035941561432123 22.53479704228619,21.90008509871445" style="fill:none;stroke:black;stroke-width:1"/>
<polygon points="25.00765076934319,10.035941561432123 22.569801484574313,19.261395507641453 22.98819975455088,15.996256824980275" style="fill:none;stroke:black;stroke-width:1"/>
<polygon points="9.935196207593311,15.282242995537368 9.918965517241379,11.815172413793102 11.049041675188256,14.328457485564781" style="fill:none;stroke:black;stroke-width:1"/>
<polygon points="9.918965517241379,11.815172413793102 9.935196207593311,15.282242995537368 7.718399158767718,9.253190692799576" style="fill:none;stroke:black;stroke-width:1"/>
<polygon points="20.93284542509449,14.773093909052347 19.552718779966355,16.051197009711537 17.466332759497945,14.789326511581677" style="fill:none;stroke:black;stroke-width:1"/>
<polygon points="21.037747969083114,20.948605880586353 21.060442676847725,17.96549185584302 22.569801484574313,19.261395507641453" style="fill:none;stroke:black;stroke-width:1"/>
<polygon points="22.569801484574313,19.261395507641453 21.060442676847725,17.96549185584302 22.98819975455088,15.996256824980275" style="fill:none;stroke:black;stroke-width:1"/>
<polygon points="21.060442676847725,17.96549185584302 20.93284542509449,14.773093909052347 22.98819975455088,15.996256824980275" style="fill:none;stroke:black;stroke-width:1"/>
<polygon points="20.93284542509449,14.773093909052347 21.060442676847725,17.96549185584302 19.552718779966355,16.051197009711537" style="fill:none;stroke:black;stroke-width:1"/>
<polygon points="18.770620777132095,25.077218027667985 19.883989777559268,24.617720547569473 16.777675587282417,25.816231436819002" style="fill:none;stroke:black;stroke-width:1"/>
<polygon points="19.883989777559268,24.617720547569473 18.770620777132095,25.077218027667985 18.94744263261881,24.985653628522797" style="fill:none;stroke:black;stroke-width:1"/>
<polygon points="16.8449961173458,25.321503936515985 17.04391872049931,25.300684944136638 16.777675587282417,25.816231436819002" style="fill:none;stroke:black;stroke-width:1"/>
<polygon points="13.131182869234575,10.75666908350167 15.420872282914202,11.850422383008457 11.97038368447949,11.827262908798632" style="fill:none;stroke:black;stroke-width:1"/>
<polygon points="9.794914494371476,10.260433330344112 13.131182869234575,10.75666908350167 11.97038368447949,11.827262908798632" style="fill:none;stroke:black;stroke-width:1"/>
<polygon points="12.16961158381716,5.131310191005383 13.131182869234575,10.75666908350167 9.794914494371476,10.260433330344112" style="fill:none;stroke:black;stroke-width:1"/>
<polygon points="15.420872282914202,11.850422383008457 18.876650261614515,11.872958399601536 17.466332759497945,14.789326511581677" style="fill:none;stroke:black;stroke-width:1"/>
<polygon points="18.876650261614515,11.872958399601536 20.93284542509449,14.773093909052347 17.466332759497945,14.789326511581677" style="fill:none;stroke:black;stroke-width:1"/>
<polygon points="20.93284542509449,14.773093909052347 18.876650261614515,11.872958399601536 21.471503199781214,11.830005438274483" style="fill:none;stroke:black;stroke-width:1"/>
<polygon points="20.789289830535154,5.234553246264205 19.837304317334183,3.589193783539575 23.011789626608333,4.235248527129018" style="fill:none;stroke:black;stroke-width:1"/>
<polygon points="19.837304317334183,3.589193783539575 20.789289830535154,5.234553246264205 18.124987212538343,3.919824201332006" style="fill:none;stroke:black;stroke-width:1"/>
<polygon points="23.011789626608333,4.235248527129018 19.837304317334183,3.589193783539575 16.917140135175263,1.8825311907955902" style="fill:none;stroke:black;stroke-width:1"/>
<polygon points="19.837304317334183,3.589193783539575 18.124987212538343,3.919824201332006 16.917140135175263,1.8825311907955902" style="fill:none;stroke:black;stroke-width:1"/>
<polygon points="23.21972268277827,9.889016060400472 20.789289830535154,5.234553246264205 23.68125573518478,6.666972309116224" style="fill:none;stroke:black;stroke-width:1"/>
<polygon points="25.00765076934319,10.035941561432123 23.21972268277827,9.889016060400472 23.68125573518478,6.666972309116224" style="fill:none;stroke:black;stroke-width:1"/>
<polygon points="23.03852929963023,12.523753219052518 25.00765076934319,10.035941561432123 22.98819975455088,15.996256824980275" style="fill:none;stroke:black;stroke-width:1"/>
<polygon points="20.93284542509449,14.773093909052347 23.03852929963023,12.523753219052518 22.98819975455088,15.996256824980275" style="fill:none;stroke:black;stroke-width:1"/>
<polygon points="23.03852929963023,12.523753219052518 20.93284542509449,14.773093909052347 21.471503199781214,11.830005438274483" style="fill:none;stroke:black;stroke-width:1"/>
<polygon points="23.21972268277827,9.889016060400472 23.03852929963023,12.523753219052518 21.471503199781214,11.830005438274483" style="fill:none;stroke:black;stroke-width:1"/>
<polygon points="23.03852929963023,12.523753219052518 23.21972268277827,9.889016060400472 25.00765076934319,10.035941561432123" style="fill:none;stroke:black;stroke-width:1"/>
<polygon points="16.873233549629305,19.203522661787197 16.125263223522467,16.060166695637548 17.466332759497945,14.789326511581677" style="fill:none;stroke:black;stroke-width:1"/>
<polygon points="13.843050271723408,20.043986951243795 16.125263223522467,16.060166695637548 13.919909425424603,20.141741762050174" style="fill:none;stroke:black;stroke-width:1"/>
<polygon points="16.125263223522467,16.060166695637548 14.004396556166652,14.808703937353252 17.466332759497945,14.789326511581677" style="fill:none;stroke:black;stroke-width:1"/>
<polygon points="18.770620777132095,25.077218027667985 18.542068965517238,23.621379310344828 18.94744263261881,24.985653628522797" style="fill:none;stroke:black;stroke-width:1"/>
<polygon points="19.098126353079287,23.882306649485116 19.72565198025898,22.210048113528877 21.037747969083114,20.948605880586353" style="fill:none;stroke:black;stroke-width:1"/>
<polygon points="19.268758672063807,24.475332719461623 21.037747969083114,20.948605880586353 19.883989777559268,24.617720547569473" style="fill:none;stroke:black;stroke-width:1"/>
<polygon points="19.268758672063807,24.475332719461623 19.27024153955129,24.25975269475317 21.037747969083114,20.948605880586353" style="fill:none;stroke:black;stroke-width:1"/>
<polygon points="19.207224526442367,24.675897008202597 19.268758672063807,24.475332719461623 19.883989777559268,24.617720547569473" style="fill:none;stroke:black;stroke-width:1"/>
<polygon points="11.433576171352861,24.940318787372263 13.405372087586134,24.91451748350189 14.278083151297734,27.124966117474656" style="fill:none;stroke:black;stroke-width:1"/>
<polygon points="13.405372087586134,24.91451748350189 16.777675587282417,25.816231436819002 14.278083151297734,27.124966117474656" style="fill:none;stroke:black;stroke-width:1"/>
<polygon points="13.131182869234575,10.75666908350167 16.566749851172297,10.737167973404524 15.420872282914202,11.850422383008457" style="fill:none;stroke:black;stroke-width:1"/>
<polygon points="16.566749851172297,10.737167973404524 18.876650261614515,11.872958399601536 15.420872282914202,11.850422383008457" style="fill:none;stroke:black;stroke-width:1"/>
<polygon points="14.886485424997993,5.124137575098025 14.645458477592886,5.0139306597173805 18.124987212538343,3.919824201332006" style="fill:none;stroke:black;stroke-width:1"/>
<polygon points="15.117100218086534,5.248703606010292 14.886485424997993,5.124137575098025 18.124987212538343,3.919824201332006" style="fill:none;stroke:black;stroke-width:1"/>
<polygon points="15.54480610526922,5.53814060710278 15.336731047847335,5.386935650622453 18.124987212538343,3.919824201332006" style="fill:none;stroke:black;stroke-width:1"/>
<polygon points="15.336731047847335,5.386935650622453 15.117100218086534,5.248703606010292 18.124987212538343,3.919824201332006" style="fill:none;stroke:black;stroke-width:1"/>
<polygon points="21.060442676847725,17.96549185584302 18.625283829568943,17.273832877599954 19.552718779966355,16.051197009711537" style="fill:none;stroke:black;stroke-width:1"/>
<polygon points="18.038350659190616,17.8043648023936 18.625283829568943,17.273832877599954 21.060442676847725,17.96549185584302" style="fill:none;stroke:black;stroke-width:1"/>
<polygon points="13.405372087586134,24.91451748350189 16.015927803883724,25.368801131232512 16.777675587282417,25.816231436819002" style="fill:none;stroke:black;stroke-width:1"/>
<polygon points="11.69107100297152,18.52074516260771 11.719633165164863,21.35199582079758 10.431580345607438,21.41826241470586" style="fill:none;stroke:black;stroke-width:1"/>
<polygon points="11.719633165164863,21.35199582079758 11.433576171352861,24.940318787372263 10.431580345607438,21.41826241470586" style="fill:none;stroke:black;stroke-width:1"/>
<polygon points="12.695487719950291,16.073868901471993 9.935196207593311,15.282242995537368 11.049041675188256,14.328457485564781" style="fill:none;stroke:black;stroke-width:1"/>
<polygon points="14.004396556166652,14.808703937353252 12.695487719950291,16.073868901471993 11.049041675188256,14.328457485564781" style="fill:none;stroke:black;stroke-width:1"/>
<polygon points="19.27024153955129,24.25975269475317 19.210453340336457,24.057220648255853 21.037747969083114,20.948605880586353" style="fill:none;stroke:black;stroke-width:1"/>
<polygon points="19.210453340336457,24.057220648255853 19.098126353079287,23.882306649485116 21.037747969083114,20.948605880586353" style="fill:none;stroke:black;stroke-width:1"/>
<polygon points="19.210453340336457,24.057220648255853 19.207224526442367,24.675897008202597 19.098126353079287,23.882306649485116" style="fill:none;stroke:black;stroke-width:1"/>
<polygon points="19.268758672063807,24.475332719461623 19.210453340336457,24.057220648255853 19.27024153955129,24.25975269475317" style="fill:none;stroke:black;stroke-width:1"/>
<polygon points="19.210453340336457,24.057220648255853 19.268758672063807,24.475332719461623 19.207224526442367,24.675897008202597" style="fill:none;stroke:black;stroke-width:1"/>
<polygon points="19.098126353079287,23.882306649485116 18.942728876078103,23.74466685956691 19.72565198025898,22.210048113528877" style="fill:none;stroke:black;stroke-width:1"/>
<polygon points="18.942728876078103,23.74466685956691 18.542068965517238,23.621379310344828 18.75372920763123,23.653957439627188" style="fill:none;stroke:black;stroke-width:1"/>
<polygon points="18.542068965517238,23.621379310344828 18.942728876078103,23.74466685956691 18.94744263261881,24.985653628522797" style="fill:none;stroke:black;stroke-width:1"/>
<polygon points="19.095998504600214,24.848922361451535 19.883989777559268,24.617720547569473 18.94744263261881,24.985653628522797" style="fill:none;stroke:black;stroke-width:1"/>
<polygon points="19.095998504600214,24.848922361451535 19.207224526442367,24.675897008202597 19.883989777559268,24.617720547569473" style="fill:none;stroke:black;stroke-width:1"/>
<polygon points="19.207224526442367,24.675897008202597 19.095998504600214,24.848922361451535 19.098126353079287,23.882306649485116" style="fill:none;stroke:black;stroke-width:1"/>
<polygon points="18.942728876078103,23.74466685956691 19.095998504600214,24.848922361451535 18.94744263261881,24.985653628522797" style="fill:none;stroke:black;stroke-width:1"/>
<polygon points="19.095998504600214,24.848922361451535 18.942728876078103,23.74466685956691 19.098126353079287,23.882306649485116" style="fill:none;stroke:black;stroke-width:1"/>
<polygon points="23.21972268277827,9.889016060400472 17.035853202183862,8.319987791210746 20.789289830535154,5.234553246264205" style="fill:none;stroke:black;stroke-width:1"/>
<polygon points="15.711875784656948,8.576323327751078 17.035853202183862,8.319987791210746 17.021178667944774,8.615284032359337" style="fill:none;stroke:black;stroke-width:1"/>
<polygon points="20.00231683311004,10.717666863307379 23.21972268277827,9.889016060400472 21.471503199781214,11.830005438274483" style="fill:none;stroke:black;stroke-width:1"/>
<polygon points="18.876650261614515,11.872958399601536 20.00231683311004,10.717666863307379 21.471503199781214,11.830005438274483" style="fill:none;stroke:black;stroke-width:1"/>
<polygon points="20.00231683311004,10.717666863307379 17.035853202183862,8.319987791210746 23.21972268277827,9.889016060400472" style="fill:none;stroke:black;stroke-width:1"/>
<polygon points="17.035853202183862,8.319987791210746 20.00231683311004,10.717666863307379 17.021178667944774,8.615284032359337" style="fill:none;stroke:black;stroke-width:1"/>
<polygon points="16.566749851172297,10.737167973404524 20.00231683311004,10.717666863307379 18.876650261614515,11.872958399601536" style="fill:none;stroke:black;stroke-width:1"/>
<polygon points="14.376986950548723,6.541478876337657 14.886485424997993,5.124137575098025 15.117100218086534,5.248703606010292" style="fill:none;stroke:black;stroke-width:1"/>
<polygon points="15.74075358134102,5.701625373619551 15.54480610526922,5.53814060710278 18.124987212538343,3.919824201332006" style="fill:none;stroke:black;stroke-width:1"/>
<polygon points="20.789289830535154,5.234553246264205 16.40973018076788,6.475363564751673 18.124987212538343,3.919824201332006" style="fill:none;stroke:black;stroke-width:1"/>
<polygon points="16.549201357094105,6.7022249557291556 16.40973018076788,6.475363564751673 20.789289830535154,5.234553246264205" style="fill:none;stroke:black;stroke-width:1"/>
<polygon points="19.44132116777333,18.729040073764658 18.7309921603135,18.81947209531562 21.060442676847725,17.96549185584302" style="fill:none;stroke:black;stroke-width:1"/>
<polygon points="16.125263223522467,16.060166695637548 13.984380356368055,20.251129888362065 13.919909425424603,20.141741762050174" style="fill:none;stroke:black;stroke-width:1"/>
<polygon points="15.134214335016576,24.932193338516335 13.405372087586134,24.91451748350189 11.433576171352861,24.940318787372263" style="fill:none;stroke:black;stroke-width:1"/>
<polygon points="11.719633165164863,21.35199582079758 15.134214335016576,24.932193338516335 11.433576171352861,24.940318787372263" style="fill:none;stroke:black;stroke-width:1"/>
<polygon points="12.695487719950291,16.073868901471993 10.411211398337716,18.540510204791005 9.935196207593311,15.282242995537368" style="fill:none;stroke:black;stroke-width:1"/>
<polygon points="10.411211398337716,18.540510204791005 12.695487719950291,16.073868901471993 11.69107100297152,18.52074516260771" style="fill:none;stroke:black;stroke-width:1"/>
<polygon points="10.411211398337716,18.540510204791005 11.69107100297152,18.52074516260771 10.431580345607438,21.41826241470586" style="fill:none;stroke:black;stroke-width:1"/>
<polygon points="10.411211398337716,18.540510204791005 10.431580345607438,21.41826241470586 7.718399158767718,9.253190692799576" style="fill:none;stroke:black;stroke-width:1"/>
<polygon points="9.935196207593311,15.282242995537368 10.411211398337716,18.540510204791005 7.718399158767718,9.253190692799576" style="fill:none;stroke:black;stroke-width:1"/>
<polygon points="17.04391872049931,25.300684944136638 17.238277793863812,25.27726033975203 16.777675587282417,25.816231436819002" style="fill:none;stroke:black;stroke-width:1"/>
<polygon points="17.238277793863812,25.27726033975203 17.42953453559393,25.254304389652052 16.777675587282417,25.816231436819002" style="fill:none;stroke:black;stroke-width:1"/>
<polygon points="17.238277793863812,25.27726033975203 17.04391872049931,25.300684944136638 16.915325665463982,23.735055618359993" style="fill:none;stroke:black;stroke-width:1"/>
<polygon points="17.812047069978846,25.20839497214559 18.003303337171307,25.185440263392362 16.777675587282417,25.816231436819002" style="fill:none;stroke:black;stroke-width:1"/>
<polygon points="17.812047069978846,25.20839497214559 17.70298013686132,23.650981546507193 18.003303337171307,25.185440263392362" style="fill:none;stroke:black;stroke-width:1"/>
<polygon points="18.577072138748683,25.116576137132668 18.770620777132095,25.077218027667985 16.777675587282417,25.816231436819002" style="fill:none;stroke:black;stroke-width:1"/>
<polygon points="18.385815871556225,25.1395308458859 18.577072138748683,25.116576137132668 16.777675587282417,25.816231436819002" style="fill:none;stroke:black;stroke-width:1"/>
<polygon points="18.577072138748683,25.116576137132668 18.542068965517238,23.621379310344828 18.770620777132095,25.077218027667985" style="fill:none;stroke:black;stroke-width:1"/>
<polygon points="18.003303337171307,25.185440263392362 18.194559604363768,25.162485554639133 16.777675587282417,25.816231436819002" style="fill:none;stroke:black;stroke-width:1"/>
<polygon points="18.194559604363768,25.162485554639133 18.385815871556225,25.1395308458859 16.777675587282417,25.816231436819002" style="fill:none;stroke:black;stroke-width:1"/>
<polygon points="18.542068965517238,23.621379310344828 16.381833440126243,21.79409282904025 18.75372920763123,23.653957439627188" style="fill:none;stroke:black;stroke-width:1"/>
<polygon points="17.04391872049931,25.300684944136638 16.724069398271524,23.758010327113226 16.915325665463982,23.735055618359993" style="fill:none;stroke:black;stroke-width:1"/>
<polygon points="16.8449961173458,25.321503936515985 16.724069398271524,23.758010327113226 17.04391872049931,25.300684944136638" style="fill:none;stroke:black;stroke-width:1"/>
<polygon points="16.435911801080163,25.353340554309256 16.150300596694148,23.82687445337292 16.341556863886606,23.803919744619687" style="fill:none;stroke:black;stroke-width:1"/>
<polygon points="12.346811001061663,21.52095424121156 11.719633165164863,21.35199582079758 11.69107100297152,18.52074516260771" style="fill:none;stroke:black;stroke-width:1"/>
<polygon points="12.269951847360465,21.42319943040518 12.346811001061663,21.52095424121156 11.69107100297152,18.52074516260771" style="fill:none;stroke:black;stroke-width:1"/>
<polygon points="18.896607853701905,19.160515987886168 19.047897395341558,19.648617398663774 16.125263223522467,16.060166695637548" style="fill:none;stroke:black;stroke-width:1"/>
<polygon points="21.060442676847725,17.96549185584302 20.94312266702582,19.971720287514213 20.392465463530996,19.976565336191577" style="fill:none;stroke:black;stroke-width:1"/>
<polygon points="20.94312266702582,19.971720287514213 21.060442676847725,17.96549185584302 21.037747969083114,20.948605880586353" style="fill:none;stroke:black;stroke-width:1"/>
<polygon points="15.92342170627943,9.016185025372142 16.695495434211434,9.062001927416537 16.15262850727609,9.137034421263227" style="fill:none;stroke:black;stroke-width:1"/>
<polygon points="16.566749851172297,10.737167973404524 15.92342170627943,9.016185025372142 16.15262850727609,9.137034421263227" style="fill:none;stroke:black;stroke-width:1"/>
<polygon points="20.00231683311004,10.717666863307379 16.901434756462436,8.872307147446667 17.021178667944774,8.615284032359337" style="fill:none;stroke:black;stroke-width:1"/>
<polygon points="16.901434756462436,8.872307147446667 20.00231683311004,10.717666863307379 16.695495434211434,9.062001927416537" style="fill:none;stroke:black;stroke-width:1"/>
<polygon points="15.92342170627943,9.016185025372142 16.901434756462436,8.872307147446667 16.695495434211434,9.062001927416537" style="fill:none;stroke:black;stroke-width:1"/>
<polygon points="16.901434756462436,8.872307147446667 15.711875784656948,8.576323327751078 17.021178667944774,8.615284032359337" style="fill:none;stroke:black;stroke-width:1"/>
<polygon points="16.429360193308636,9.157184449908335 20.00231683311004,10.717666863307379 16.566749851172297,10.737167973404524" style="fill:none;stroke:black;stroke-width:1"/>
<polygon points="20.00231683311004,10.717666863307379 16.429360193308636,9.157184449908335 16.695495434211434,9.062001927416537" style="fill:none;stroke:black;stroke-width:1"/>
<polygon points="16.429360193308636,9.157184449908335 16.566749851172297,10.737167973404524 16.15262850727609,9.137034421263227" style="fill:none;stroke:black;stroke-width:1"/>
<polygon points="16.695495434211434,9.062001927416537 16.429360193308636,9.157184449908335 16.15262850727609,9.137034421263227" style="fill:none;stroke:black;stroke-width:1"/>
<polygon points="15.336731047847335,5.386935650622453 14.610168048447573,6.683131566665202 15.117100218086534,5.248703606010292" style="fill:none;stroke:black;stroke-width:1"/>
<polygon points="14.610168048447573,6.683131566665202 14.376986950548723,6.541478876337657 15.117100218086534,5.248703606010292" style="fill:none;stroke:black;stroke-width:1"/>
<polygon points="14.610168048447573,6.683131566665202 15.336731047847335,5.386935650622453 15.54480610526922,5.53814060710278" style="fill:none;stroke:black;stroke-width:1"/>
<polygon points="14.886485424997993,5.124137575098025 14.125250167453716,6.415819726262597 14.645458477592886,5.0139306597173805" style="fill:none;stroke:black;stroke-width:1"/>
<polygon points="14.376986950548723,6.541478876337657 14.125250167453716,6.415819726262597 14.886485424997993,5.124137575098025" style="fill:none;stroke:black;stroke-width:1"/>
<polygon points="14.125250167453716,6.415819726262597 14.376986950548723,6.541478876337657 13.85725704713461,6.307301064624807" style="fill:none;stroke:black;stroke-width:1"/>
<polygon points="16.095629125458736,6.062594067532006 15.924001667051552,5.876696848341035 18.124987212538343,3.919824201332006" style="fill:none;stroke:black;stroke-width:1"/>
<polygon points="15.924001667051552,5.876696848341035 15.74075358134102,5.701625373619551 18.124987212538343,3.919824201332006" style="fill:none;stroke:black;stroke-width:1"/>
<polygon points="16.258026934097337,6.262050994657393 16.095629125458736,6.062594067532006 18.124987212538343,3.919824201332006" style="fill:none;stroke:black;stroke-width:1"/>
<polygon points="16.40973018076788,6.475363564751673 16.258026934097337,6.262050994657393 18.124987212538343,3.919824201332006" style="fill:none;stroke:black;stroke-width:1"/>
<polygon points="14.13445535587767,4.839366582877862 14.868038500107119,3.146513603711831 16.917140135175263,1.8825311907955902" style="fill:none;stroke:black;stroke-width:1"/>
<polygon points="14.13445535587767,4.839366582877862 13.865622799589918,4.7763956250824435 14.868038500107119,3.146513603711831" style="fill:none;stroke:black;stroke-width:1"/>
<polygon points="12.71521093517194,5.2643062868449295 12.16961158381716,5.131310191005383 13.51823380282949,2.375075054577848" style="fill:none;stroke:black;stroke-width:1"/>
<polygon points="13.009279861476942,6.029479704182159 13.131182869234575,10.75666908350167 12.16961158381716,5.131310191005383" style="fill:none;stroke:black;stroke-width:1"/>
<polygon points="12.810466125593264,5.824455781195372 13.009279861476942,6.029479704182159 12.16961158381716,5.131310191005383" style="fill:none;stroke:black;stroke-width:1"/>
<polygon points="20.082153093683107,19.190053324992647 21.060442676847725,17.96549185584302 20.392465463530996,19.976565336191577" style="fill:none;stroke:black;stroke-width:1"/>
<polygon points="20.082153093683107,19.190053324992647 19.44132116777333,18.729040073764658 21.060442676847725,17.96549185584302" style="fill:none;stroke:black;stroke-width:1"/>
<polygon points="17.658108508802997,18.567151396017778 18.038350659190616,17.8043648023936 21.060442676847725,17.96549185584302" style="fill:none;stroke:black;stroke-width:1"/>
<polygon points="17.7030003374388,19.259800729261233 17.658108508802997,18.567151396017778 21.060442676847725,17.96549185584302" style="fill:none;stroke:black;stroke-width:1"/>
<polygon points="18.7309921603135,18.81947209531562 18.35419585742415,19.335457275533294 21.060442676847725,17.96549185584302" style="fill:none;stroke:black;stroke-width:1"/>
<polygon points="18.35419585742415,19.335457275533294 17.7030003374388,19.259800729261233 21.060442676847725,17.96549185584302" style="fill:none;stroke:black;stroke-width:1"/>
<polygon points="19.552718779966355,16.051197009711537 17.215092093690213,19.94355842840474 17.466332759497945,14.789326511581677" style="fill:none;stroke:black;stroke-width:1"/>
<polygon points="14.070932948434088,20.4980710034162 14.035102708341011,20.370506941995664 16.125263223522467,16.060166695637548" style="fill:none;stroke:black;stroke-width:1"/>
<polygon points="14.035102708341011,20.370506941995664 13.984380356368055,20.251129888362065 16.125263223522467,16.060166695637548" style="fill:none;stroke:black;stroke-width:1"/>
<polygon points="14.090962401238363,20.631891039085424 14.070932948434088,20.4980710034162 16.125263223522467,16.060166695637548" style="fill:none;stroke:black;stroke-width:1"/>
<polygon points="17.42953453559393,25.254304389652052 17.62079080278639,25.231349680898823 16.777675587282417,25.816231436819002" style="fill:none;stroke:black;stroke-width:1"/>
<polygon points="17.62079080278639,25.231349680898823 17.812047069978846,25.20839497214559 16.777675587282417,25.816231436819002" style="fill:none;stroke:black;stroke-width:1"/>
<polygon points="17.300906454105913,23.689019307250287 17.62079080278639,25.231349680898823 17.42953453559393,25.254304389652052" style="fill:none;stroke:black;stroke-width:1"/>
<polygon points="17.70298013686132,23.650981546507193 17.909392135238928,23.637016221221053 18.003303337171307,25.185440263392362" style="fill:none;stroke:black;stroke-width:1"/>
<polygon points="17.909392135238928,23.637016221221053 18.194559604363768,25.162485554639133 18.003303337171307,25.185440263392362" style="fill:none;stroke:black;stroke-width:1"/>
<polygon points="15.71107384454877,20.214621806558398 17.909392135238928,23.637016221221053 15.81998077197269,19.390523231155647" style="fill:none;stroke:black;stroke-width:1"/>
<polygon points="17.909392135238928,23.637016221221053 17.70298013686132,23.650981546507193 15.81998077197269,19.390523231155647" style="fill:none;stroke:black;stroke-width:1"/>
<polygon points="17.10658806853712,23.712084268600474 17.238277793863812,25.27726033975203 16.915325665463982,23.735055618359993" style="fill:none;stroke:black;stroke-width:1"/>
<polygon points="17.238277793863812,25.27726033975203 17.10658806853712,23.712084268600474 17.42953453559393,25.254304389652052" style="fill:none;stroke:black;stroke-width:1"/>
<polygon points="17.10658806853712,23.712084268600474 17.300906454105913,23.689019307250287 17.42953453559393,25.254304389652052" style="fill:none;stroke:black;stroke-width:1"/>
<polygon points="15.901975763563483,21.065790815897934 16.381833440126243,21.79409282904025 18.542068965517238,23.621379310344828" style="fill:none;stroke:black;stroke-width:1"/>
<polygon points="17.951086710414415,22.597704936385615 18.942728876078103,23.74466685956691 18.75372920763123,23.653957439627188" style="fill:none;stroke:black;stroke-width:1"/>
<polygon points="16.759318617057573,18.21906918769732 17.10658806853712,23.712084268600474 13.774909730156953,21.51132341624424" style="fill:none;stroke:black;stroke-width:1"/>
<polygon points="15.959044329501689,23.84982916212615 16.015927803883724,25.368801131232512 15.767788062309231,23.87278387087938" style="fill:none;stroke:black;stroke-width:1"/>
<polygon points="16.532813131079067,23.78096503586646 16.724069398271524,23.758010327113226 16.8449961173458,25.321503936515985" style="fill:none;stroke:black;stroke-width:1"/>
<polygon points="16.435911801080163,25.353340554309256 16.226975827672245,25.363365914248345 16.150300596694148,23.82687445337292" style="fill:none;stroke:black;stroke-width:1"/>
<polygon points="15.959044329501689,23.84982916212615 16.226975827672245,25.363365914248345 16.015927803883724,25.368801131232512" style="fill:none;stroke:black;stroke-width:1"/>
<polygon points="16.226975827672245,25.363365914248345 15.959044329501689,23.84982916212615 16.150300596694148,23.82687445337292" style="fill:none;stroke:black;stroke-width:1"/>
<polygon points="16.015927803883724,25.368801131232512 16.226975827672245,25.363365914248345 16.777675587282417,25.816231436819002" style="fill:none;stroke:black;stroke-width:1"/>
<polygon points="16.226975827672245,25.363365914248345 16.435911801080163,25.353340554309256 16.777675587282417,25.816231436819002" style="fill:none;stroke:black;stroke-width:1"/>
<polygon points="12.695487719950291,16.073868901471993 12.186829524604965,20.386761528898738 11.69107100297152,18.52074516260771" style="fill:none;stroke:black;stroke-width:1"/>
<polygon points="11.719633165164863,21.35199582079758 12.635333594013929,21.730861844943263 15.248861696457695,24.140437646560514" style="fill:none;stroke:black;stroke-width:1"/>
<polygon points="17.38967524986192,19.702412553081007 16.125263223522467,16.060166695637548 16.873233549629305,19.203522661787197" style="fill:none;stroke:black;stroke-width:1"/>
<polygon points="17.38967524986192,19.702412553081007 18.055925469165757,19.67375818918569 16.125263223522467,16.060166695637548" style="fill:none;stroke:black;stroke-width:1"/>
<polygon points="18.437169328676234,19.188116668057074 18.896607853701905,19.160515987886168 16.125263223522467,16.060166695637548" style="fill:none;stroke:black;stroke-width:1"/>
<polygon points="18.055925469165757,19.67375818918569 18.437169328676234,19.188116668057074 16.125263223522467,16.060166695637548" style="fill:none;stroke:black;stroke-width:1"/>
<polygon points="19.047897395341558,19.648617398663774 18.63251507665546,20.444732071074817 16.125263223522467,16.060166695637548" style="fill:none;stroke:black;stroke-width:1"/>
<polygon points="18.63251507665546,20.444732071074817 14.090962401238363,20.631891039085424 16.125263223522467,16.060166695637548" style="fill:none;stroke:black;stroke-width:1"/>
<polygon points="20.13758287135873,18.912096129797266 20.717831526363646,19.40714270665494 21.037747969083114,20.948605880586353" style="fill:none;stroke:black;stroke-width:1"/>
<polygon points="20.717831526363646,19.40714270665494 20.94312266702582,19.971720287514213 21.037747969083114,20.948605880586353" style="fill:none;stroke:black;stroke-width:1"/>
<polygon points="19.72565198025898,22.210048113528877 20.366785644192067,21.623144871385307 21.037747969083114,20.948605880586353" style="fill:none;stroke:black;stroke-width:1"/>
<polygon points="20.366785644192067,21.623144871385307 20.76755084448765,20.855888113253712 21.037747969083114,20.948605880586353" style="fill:none;stroke:black;stroke-width:1"/>
<polygon points="19.342552477312875,18.648145462042184 20.13758287135873,18.912096129797266 21.037747969083114,20.948605880586353" style="fill:none;stroke:black;stroke-width:1"/>
<polygon points="20.76755084448765,20.855888113253712 19.342552477312875,18.648145462042184 21.037747969083114,20.948605880586353" style="fill:none;stroke:black;stroke-width:1"/>
<polygon points="16.878847426821707,7.461033832524857 16.785297465208476,7.195366911990994 20.789289830535154,5.234553246264205" style="fill:none;stroke:black;stroke-width:1"/>
<polygon points="17.035853202183862,8.319987791210746 17.006075102753204,8.025087980747431 20.789289830535154,5.234553246264205" style="fill:none;stroke:black;stroke-width:1"/>
<polygon points="17.006075102753204,8.025087980747431 17.035853202183862,8.319987791210746 15.711875784656948,8.576323327751078" style="fill:none;stroke:black;stroke-width:1"/>
<polygon points="16.901434756462436,8.872307147446667 15.768086767418982,8.820539486248794 15.711875784656948,8.576323327751078" style="fill:none;stroke:black;stroke-width:1"/>
<polygon points="15.768086767418982,8.820539486248794 16.901434756462436,8.872307147446667 15.92342170627943,9.016185025372142" style="fill:none;stroke:black;stroke-width:1"/>
<polygon points="15.768086767418982,8.820539486248794 15.92342170627943,9.016185025372142 16.566749851172297,10.737167973404524" style="fill:none;stroke:black;stroke-width:1"/>
<polygon points="15.768086767418982,8.820539486248794 16.566749851172297,10.737167973404524 13.131182869234575,10.75666908350167" style="fill:none;stroke:black;stroke-width:1"/>
<polygon points="15.711875784656948,8.576323327751078 15.768086767418982,8.820539486248794 13.131182869234575,10.75666908350167" style="fill:none;stroke:black;stroke-width:1"/>
<polygon points="15.74075358134102,5.701625373619551 14.822494113178212,6.839630849060444 15.54480610526922,5.53814060710278" style="fill:none;stroke:black;stroke-width:1"/>
<polygon points="14.822494113178212,6.839630849060444 14.610168048447573,6.683131566665202 15.54480610526922,5.53814060710278" style="fill:none;stroke:black;stroke-width:1"/>
<polygon points="14.13445535587767,4.839366582877862 14.394591184882385,4.918775961700083 13.85725704713461,6.307301064624807" style="fill:none;stroke:black;stroke-width:1"/>
<polygon points="14.125250167453716,6.415819726262597 14.394591184882385,4.918775961700083 14.645458477592886,5.0139306597173805" style="fill:none;stroke:black;stroke-width:1"/>
<polygon points="14.394591184882385,4.918775961700083 14.125250167453716,6.415819726262597 13.85725704713461,6.307301064624807" style="fill:none;stroke:black;stroke-width:1"/>
<polygon points="14.645458477592886,5.0139306597173805 14.394591184882385,4.918775961700083 16.917140135175263,1.8825311907955902" style="fill:none;stroke:black;stroke-width:1"/>
<polygon points="14.394591184882385,4.918775961700083 14.13445535587767,4.839366582877862 16.917140135175263,1.8825311907955902" style="fill:none;stroke:black;stroke-width:1"/>
<polygon points="12.705793032437137,5.559675894013073 12.810466125593264,5.824455781195372 12.16961158381716,5.131310191005383" style="fill:none;stroke:black;stroke-width:1"/>
<polygon points="12.71521093517194,5.2643062868449295 12.705793032437137,5.559675894013073 12.16961158381716,5.131310191005383" style="fill:none;stroke:black;stroke-width:1"/>
<polygon points="12.705793032437137,5.559675894013073 12.71521093517194,5.2643062868449295 12.810466125593264,5.824455781195372" style="fill:none;stroke:black;stroke-width:1"/>
<polygon points="13.009279861476942,6.029479704182159 13.28206896551724,6.146551724137931 13.131182869234575,10.75666908350167" style="fill:none;stroke:black;stroke-width:1"/>
<polygon points="13.28206896551724,6.146551724137931 15.711875784656948,8.576323327751078 13.131182869234575,10.75666908350167" style="fill:none;stroke:black;stroke-width:1"/>
<polygon points="13.28206896551724,6.146551724137931 13.009279861476942,6.029479704182159 13.045961655536674,4.816462235279324" style="fill:none;stroke:black;stroke-width:1"/>
<polygon points="13.28206896551724,6.146551724137931 14.822494113178212,6.839630849060444 15.711875784656948,8.576323327751078" style="fill:none;stroke:black;stroke-width:1"/>
<polygon points="14.822494113178212,6.839630849060444 13.28206896551724,6.146551724137931 14.610168048447573,6.683131566665202" style="fill:none;stroke:black;stroke-width:1"/>
<polygon points="12.71521093517194,5.2643062868449295 12.838315528816514,5.003397938029557 12.810466125593264,5.824455781195372" style="fill:none;stroke:black;stroke-width:1"/>
<polygon points="12.838315528816514,5.003397938029557 13.009279861476942,6.029479704182159 12.810466125593264,5.824455781195372" style="fill:none;stroke:black;stroke-width:1"/>
<polygon points="13.009279861476942,6.029479704182159 12.838315528816514,5.003397938029557 13.045961655536674,4.816462235279324" style="fill:none;stroke:black;stroke-width:1"/>
<polygon points="12.838315528816514,5.003397938029557 12.71521093517194,5.2643062868449295 13.51823380282949,2.375075054577848" style="fill:none;stroke:black;stroke-width:1"/>
<polygon points="14.868038500107119,3.146513603711831 12.838315528816514,5.003397938029557 13.51823380282949,2.375075054577848" style="fill:none;stroke:black;stroke-width:1"/>
<polygon points="13.045961655536674,4.816462235279324 12.838315528816514,5.003397938029557 14.868038500107119,3.146513603711831" style="fill:none;stroke:black;stroke-width:1"/>
<polygon points="19.482024051142254,19.521539930211453 18.621911205419973,19.434121298279745 19.552718779966355,16.051197009711537" style="fill:none;stroke:black;stroke-width:1"/>
<polygon points="19.225059661004234,18.002449446693433 18.065125534439552,20.233955459931906 19.552718779966355,16.051197009711537" style="fill:none;stroke:black;stroke-width:1"/>
<polygon points="18.065125534439552,20.233955459931906 17.215092093690213,19.94355842840474 19.552718779966355,16.051197009711537" style="fill:none;stroke:black;stroke-width:1"/>
<polygon points="15.401847753769253,25.244833803381823 15.590810958130682,25.335599243544166 13.405372087586134,24.91451748350189" style="fill:none;stroke:black;stroke-width:1"/>
<polygon points="15.134214335016576,24.932193338516335 15.24649277996511,25.10714644799723 13.405372087586134,24.91451748350189" style="fill:none;stroke:black;stroke-width:1"/>
<polygon points="15.24649277996511,25.10714644799723 15.401847753769253,25.244833803381823 13.405372087586134,24.91451748350189" style="fill:none;stroke:black;stroke-width:1"/>
<polygon points="15.401847753769253,25.244833803381823 15.24649277996511,25.10714644799723 15.248861696457695,24.140437646560514" style="fill:none;stroke:black;stroke-width:1"/>
<polygon points="15.13762501050616,24.31345037497654 11.719633165164863,21.35199582079758 15.248861696457695,24.140437646560514" style="fill:none;stroke:black;stroke-width:1"/>
<polygon points="15.13762501050616,24.31345037497654 15.076024205241287,24.514028410158964 11.719633165164863,21.35199582079758" style="fill:none;stroke:black;stroke-width:1"/>
<polygon points="15.076024205241287,24.514028410158964 15.13762501050616,24.31345037497654 15.134214335016576,24.932193338516335" style="fill:none;stroke:black;stroke-width:1"/>
<polygon points="15.24649277996511,25.10714644799723 15.13762501050616,24.31345037497654 15.248861696457695,24.140437646560514" style="fill:none;stroke:black;stroke-width:1"/>
<polygon points="15.13762501050616,24.31345037497654 15.24649277996511,25.10714644799723 15.134214335016576,24.932193338516335" style="fill:none;stroke:black;stroke-width:1"/>
<polygon points="15.07448071722198,24.729630636065096 15.134214335016576,24.932193338516335 11.719633165164863,21.35199582079758" style="fill:none;stroke:black;stroke-width:1"/>
<polygon points="15.076024205241287,24.514028410158964 15.07448071722198,24.729630636065096 11.719633165164863,21.35199582079758" style="fill:none;stroke:black;stroke-width:1"/>
<polygon points="15.07448071722198,24.729630636065096 15.076024205241287,24.514028410158964 15.134214335016576,24.932193338516335" style="fill:none;stroke:black;stroke-width:1"/>
<polygon points="17.499927693348813,23.668483820868065 17.62079080278639,25.231349680898823 17.300906454105913,23.689019307250287" style="fill:none;stroke:black;stroke-width:1"/>
<polygon points="17.70298013686132,23.650981546507193 17.499927693348813,23.668483820868065 15.81998077197269,19.390523231155647" style="fill:none;stroke:black;stroke-width:1"/>
<polygon points="17.812047069978846,25.20839497214559 17.499927693348813,23.668483820868065 17.70298013686132,23.650981546507193" style="fill:none;stroke:black;stroke-width:1"/>
<polygon points="17.62079080278639,25.231349680898823 17.499927693348813,23.668483820868065 17.812047069978846,25.20839497214559" style="fill:none;stroke:black;stroke-width:1"/>
<polygon points="18.194559604363768,25.162485554639133 18.118492039077125,23.627091582063024 18.385815871556225,25.1395308458859" style="fill:none;stroke:black;stroke-width:1"/>
<polygon points="17.909392135238928,23.637016221221053 18.118492039077125,23.627091582063024 18.194559604363768,25.162485554639133" style="fill:none;stroke:black;stroke-width:1"/>
<polygon points="15.901975763563483,21.065790815897934 18.118492039077125,23.627091582063024 15.71107384454877,20.214621806558398" style="fill:none;stroke:black;stroke-width:1"/>
<polygon points="18.118492039077125,23.627091582063024 17.909392135238928,23.637016221221053 15.71107384454877,20.214621806558398" style="fill:none;stroke:black;stroke-width:1"/>
<polygon points="16.381833440126243,21.79409282904025 17.085988679951544,22.32533700749391 18.75372920763123,23.653957439627188" style="fill:none;stroke:black;stroke-width:1"/>
<polygon points="17.085988679951544,22.32533700749391 17.951086710414415,22.597704936385615 18.75372920763123,23.653957439627188" style="fill:none;stroke:black;stroke-width:1"/>
<polygon points="18.942728876078103,23.74466685956691 18.895846740234763,22.55502511238963 19.72565198025898,22.210048113528877" style="fill:none;stroke:black;stroke-width:1"/>
<polygon points="17.951086710414415,22.597704936385615 18.895846740234763,22.55502511238963 18.942728876078103,23.74466685956691" style="fill:none;stroke:black;stroke-width:1"/>
<polygon points="17.499927693348813,23.668483820868065 16.18542038388974,18.70450472137617 15.81998077197269,19.390523231155647" style="fill:none;stroke:black;stroke-width:1"/>
<polygon points="16.18542038388974,18.70450472137617 17.499927693348813,23.668483820868065 17.300906454105913,23.689019307250287" style="fill:none;stroke:black;stroke-width:1"/>
<polygon points="17.10658806853712,23.712084268600474 16.18542038388974,18.70450472137617 17.300906454105913,23.689019307250287" style="fill:none;stroke:black;stroke-width:1"/>
<polygon points="16.759318617057573,18.21906918769732 16.18542038388974,18.70450472137617 17.10658806853712,23.712084268600474" style="fill:none;stroke:black;stroke-width:1"/>
<polygon points="16.642122854255383,25.339221184152663 16.435911801080163,25.353340554309256 16.341556863886606,23.803919744619687" style="fill:none;stroke:black;stroke-width:1"/>
<polygon points="16.532813131079067,23.78096503586646 16.642122854255383,25.339221184152663 16.341556863886606,23.803919744619687" style="fill:none;stroke:black;stroke-width:1"/>
<polygon points="16.642122854255383,25.339221184152663 16.532813131079067,23.78096503586646 16.8449961173458,25.321503936515985" style="fill:none;stroke:black;stroke-width:1"/>
<polygon points="16.642122854255383,25.339221184152663 16.8449961173458,25.321503936515985 16.777675587282417,25.816231436819002" style="fill:none;stroke:black;stroke-width:1"/>
<polygon points="16.435911801080163,25.353340554309256 16.642122854255383,25.339221184152663 16.777675587282417,25.816231436819002" style="fill:none;stroke:black;stroke-width:1"/>
<polygon points="13.09332200663088,19.754525534519463 12.695487719950291,16.073868901471993 14.004396556166652,14.808703937353252" style="fill:none;stroke:black;stroke-width:1"/>
<polygon points="13.213595654966886,19.75448512011264 13.09332200663088,19.754525534519463 14.004396556166652,14.808703937353252" style="fill:none;stroke:black;stroke-width:1"/>
<polygon points="12.531300238246565,21.675926724889006 12.635333594013929,21.730861844943263 11.719633165164863,21.35199582079758" style="fill:none;stroke:black;stroke-width:1"/>
<polygon points="16.674902954699725,6.94232834550416 16.549201357094105,6.7022249557291556 20.789289830535154,5.234553246264205" style="fill:none;stroke:black;stroke-width:1"/>
<polygon points="16.785297465208476,7.195366911990994 16.674902954699725,6.94232834550416 20.789289830535154,5.234553246264205" style="fill:none;stroke:black;stroke-width:1"/>
<polygon points="16.95342078948861,7.738245356445023 16.878847426821707,7.461033832524857 20.789289830535154,5.234553246264205" style="fill:none;stroke:black;stroke-width:1"/>
<polygon points="17.006075102753204,8.025087980747431 16.95342078948861,7.738245356445023 20.789289830535154,5.234553246264205" style="fill:none;stroke:black;stroke-width:1"/>
<polygon points="15.924001667051552,5.876696848341035 15.01187459891216,7.010465838846014 15.74075358134102,5.701625373619551" style="fill:none;stroke:black;stroke-width:1"/>
<polygon points="15.01187459891216,7.010465838846014 14.822494113178212,6.839630849060444 15.74075358134102,5.701625373619551" style="fill:none;stroke:black;stroke-width:1"/>
<polygon points="15.01187459891216,7.010465838846014 15.924001667051552,5.876696848341035 16.095629125458736,6.062594067532006" style="fill:none;stroke:black;stroke-width:1"/>
<polygon points="14.822494113178212,6.839630849060444 15.01187459891216,7.010465838846014 15.711875784656948,8.576323327751078" style="fill:none;stroke:black;stroke-width:1"/>
<polygon points="13.575561008769059,6.216971627951169 14.13445535587767,4.839366582877862 13.85725704713461,6.307301064624807" style="fill:none;stroke:black;stroke-width:1"/>
<polygon points="14.13445535587767,4.839366582877862 13.575561008769059,6.216971627951169 13.865622799589918,4.7763956250824435" style="fill:none;stroke:black;stroke-width:1"/>
<polygon points="14.376986950548723,6.541478876337657 13.575561008769059,6.216971627951169 13.85725704713461,6.307301064624807" style="fill:none;stroke:black;stroke-width:1"/>
<polygon points="14.610168048447573,6.683131566665202 13.575561008769059,6.216971627951169 14.376986950548723,6.541478876337657" style="fill:none;stroke:black;stroke-width:1"/>
<polygon points="13.28206896551724,6.146551724137931 13.575561008769059,6.216971627951169 14.610168048447573,6.683131566665202" style="fill:none;stroke:black;stroke-width:1"/>
<polygon points="13.865622799589918,4.7763956250824435 13.588665325030295,4.730556190145554 14.868038500107119,3.146513603711831" style="fill:none;stroke:black;stroke-width:1"/>
<polygon points="13.575561008769059,6.216971627951169 13.588665325030295,4.730556190145554 13.865622799589918,4.7763956250824435" style="fill:none;stroke:black;stroke-width:1"/>
<polygon points="13.588665325030295,4.730556190145554 13.575561008769059,6.216971627951169 13.28206896551724,6.146551724137931" style="fill:none;stroke:black;stroke-width:1"/>
<polygon points="18.625283829568943,17.273832877599954 20.01197028811397,19.030392232105406 19.552718779966355,16.051197009711537" style="fill:none;stroke:black;stroke-width:1"/>
<polygon points="20.01197028811397,19.030392232105406 19.482024051142254,19.521539930211453 19.552718779966355,16.051197009711537" style="fill:none;stroke:black;stroke-width:1"/>
<polygon points="18.719481337752157,17.64580914565354 19.225059661004234,18.002449446693433 19.552718779966355,16.051197009711537" style="fill:none;stroke:black;stroke-width:1"/>
<polygon points="18.143717192640505,17.970584646042756 18.719481337752157,17.64580914565354 19.552718779966355,16.051197009711537" style="fill:none;stroke:black;stroke-width:1"/>
<polygon points="18.621911205419973,19.434121298279745 18.060637504923523,18.763001507528422 19.552718779966355,16.051197009711537" style="fill:none;stroke:black;stroke-width:1"/>
<polygon points="18.060637504923523,18.763001507528422 18.143717192640505,17.970584646042756 19.552718779966355,16.051197009711537" style="fill:none;stroke:black;stroke-width:1"/>
<polygon points="16.631783763866224,18.66054759279505 16.873233549629305,19.203522661787197 17.466332759497945,14.789326511581677" style="fill:none;stroke:black;stroke-width:1"/>
<polygon points="16.166409506585097,18.715113916729724 16.631783763866224,18.66054759279505 17.466332759497945,14.789326511581677" style="fill:none;stroke:black;stroke-width:1"/>
<polygon points="17.215092093690213,19.94355842840474 16.556106477412822,19.41192767647704 17.466332759497945,14.789326511581677" style="fill:none;stroke:black;stroke-width:1"/>
<polygon points="16.556106477412822,19.41192767647704 16.166409506585097,18.715113916729724 17.466332759497945,14.789326511581677" style="fill:none;stroke:black;stroke-width:1"/>
<polygon points="16.015927803883724,25.368801131232512 15.803939055216443,25.36965517241379 15.767788062309231,23.87278387087938" style="fill:none;stroke:black;stroke-width:1"/>
<polygon points="15.803939055216443,25.36965517241379 15.574239423925818,23.912141980344064 15.767788062309231,23.87278387087938" style="fill:none;stroke:black;stroke-width:1"/>
<polygon points="15.803939055216443,25.36965517241379 16.015927803883724,25.368801131232512 13.405372087586134,24.91451748350189" style="fill:none;stroke:black;stroke-width:1"/>
<polygon points="15.590810958130682,25.335599243544166 15.803939055216443,25.36965517241379 13.405372087586134,24.91451748350189" style="fill:none;stroke:black;stroke-width:1"/>
<polygon points="15.803939055216443,25.36965517241379 15.590810958130682,25.335599243544166 15.401847753769253,25.244833803381823" style="fill:none;stroke:black;stroke-width:1"/>
<polygon points="18.118492039077125,23.627091582063024 18.329608198971396,23.621711366086487 18.385815871556225,25.1395308458859" style="fill:none;stroke:black;stroke-width:1"/>
<polygon points="18.577072138748683,25.116576137132668 18.329608198971396,23.621711366086487 18.542068965517238,23.621379310344828" style="fill:none;stroke:black;stroke-width:1"/>
<polygon points="18.329608198971396,23.621711366086487 18.577072138748683,25.116576137132668 18.385815871556225,25.1395308458859" style="fill:none;stroke:black;stroke-width:1"/>
<polygon points="18.329608198971396,23.621711366086487 15.901975763563483,21.065790815897934 18.542068965517238,23.621379310344828" style="fill:none;stroke:black;stroke-width:1"/>
<polygon points="18.329608198971396,23.621711366086487 18.118492039077125,23.627091582063024 15.901975763563483,21.065790815897934" style="fill:none;stroke:black;stroke-width:1"/>
<polygon points="13.331551891539531,19.768134051548703 13.213595654966886,19.75448512011264 14.004396556166652,14.808703937353252" style="fill:none;stroke:black;stroke-width:1"/>
<polygon points="16.125263223522467,16.060166695637548 13.6585610345385,19.889014467566344 14.004396556166652,14.808703937353252" style="fill:none;stroke:black;stroke-width:1"/>
<polygon points="13.6585610345385,19.889014467566344 13.55452767877114,19.834079347512088 14.004396556166652,14.808703937353252" style="fill:none;stroke:black;stroke-width:1"/>
<polygon points="12.514357541809991,19.96829565408475 12.415003131581841,20.05438490358729 12.695487719950291,16.073868901471993" style="fill:none;stroke:black;stroke-width:1"/>
<polygon points="12.415003131581841,20.05438490358729 12.32609058015612,20.15377022549825 12.695487719950291,16.073868901471993" style="fill:none;stroke:black;stroke-width:1"/>
<polygon points="12.249488219631191,20.265067008906833 12.186829524604965,20.386761528898738 12.695487719950291,16.073868901471993" style="fill:none;stroke:black;stroke-width:1"/>
<polygon points="12.32609058015612,20.15377022549825 12.249488219631191,20.265067008906833 12.695487719950291,16.073868901471993" style="fill:none;stroke:black;stroke-width:1"/>
<polygon points="12.346811001061663,21.52095424121156 12.434502651634592,21.605614812663546 11.719633165164863,21.35199582079758" style="fill:none;stroke:black;stroke-width:1"/>
<polygon points="12.434502651634592,21.605614812663546 12.531300238246565,21.675926724889006 11.719633165164863,21.35199582079758" style="fill:none;stroke:black;stroke-width:1"/>
<polygon points="15.803939055216443,25.36965517241379 15.397417568439105,24.003706379489252 15.574239423925818,23.912141980344064" style="fill:none;stroke:black;stroke-width:1"/>
<polygon points="15.397417568439105,24.003706379489252 15.401847753769253,25.244833803381823 15.248861696457695,24.140437646560514" style="fill:none;stroke:black;stroke-width:1"/>
<polygon points="15.397417568439105,24.003706379489252 15.803939055216443,25.36965517241379 15.401847753769253,25.244833803381823" style="fill:none;stroke:black;stroke-width:1"/>
<polygon points="12.635333594013929,21.730861844943263 12.744394316388881,21.7702389855356 15.248861696457695,24.140437646560514" style="fill:none;stroke:black;stroke-width:1"/>
<polygon points="12.744394316388881,21.7702389855356 15.397417568439105,24.003706379489252 15.248861696457695,24.140437646560514" style="fill:none;stroke:black;stroke-width:1"/>
<polygon points="15.397417568439105,24.003706379489252 12.744394316388881,21.7702389855356 12.85837370790648,21.79695582318624" style="fill:none;stroke:black;stroke-width:1"/>
<polygon points="13.337674640861298,21.768103598346126 15.959044329501689,23.84982916212615 15.767788062309231,23.87278387087938" style="fill:none;stroke:black;stroke-width:1"/>
<polygon points="16.258026934097337,6.262050994657393 15.180339091447106,7.197632811688553 16.095629125458736,6.062594067532006" style="fill:none;stroke:black;stroke-width:1"/>
<polygon points="15.180339091447106,7.197632811688553 15.01187459891216,7.010465838846014 16.095629125458736,6.062594067532006" style="fill:none;stroke:black;stroke-width:1"/>
<polygon points="15.01187459891216,7.010465838846014 15.180339091447106,7.197632811688553 15.711875784656948,8.576323327751078" style="fill:none;stroke:black;stroke-width:1"/>
<polygon points="13.307554134866281,4.721927345001599 13.28206896551724,6.146551724137931 13.045961655536674,4.816462235279324" style="fill:none;stroke:black;stroke-width:1"/>
<polygon points="13.307554134866281,4.721927345001599 13.588665325030295,4.730556190145554 13.28206896551724,6.146551724137931" style="fill:none;stroke:black;stroke-width:1"/>
<polygon points="13.307554134866281,4.721927345001599 13.045961655536674,4.816462235279324 14.868038500107119,3.146513603711831" style="fill:none;stroke:black;stroke-width:1"/>
<polygon points="13.588665325030295,4.730556190145554 13.307554134866281,4.721927345001599 14.868038500107119,3.146513603711831" style="fill:none;stroke:black;stroke-width:1"/>
<polygon points="13.55452767877114,19.834079347512088 13.445469824962819,19.79475456984731 14.004396556166652,14.808703937353252" style="fill:none;stroke:black;stroke-width:1"/>
<polygon points="13.445469824962819,19.79475456984731 13.331551891539531,19.768134051548703 14.004396556166652,14.808703937353252" style="fill:none;stroke:black;stroke-width:1"/>
<polygon points="13.755358621150474,19.959326379791808 16.125263223522467,16.060166695637548 13.843050271723408,20.043986951243795" style="fill:none;stroke:black;stroke-width:1"/>
<polygon points="13.755358621150474,19.959326379791808 13.6585610345385,19.889014467566344 16.125263223522467,16.060166695637548" style="fill:none;stroke:black;stroke-width:1"/>
<polygon points="12.622068655438833,19.896729556550476 12.514357541809991,19.96829565408475 12.695487719950291,16.073868901471993" style="fill:none;stroke:black;stroke-width:1"/>
<polygon points="12.735353522918153,19.83997771192227 12.622068655438833,19.896729556550476 12.695487719950291,16.073868901471993" style="fill:none;stroke:black;stroke-width:1"/>
<polygon points="12.852588506925175,19.797212257650333 12.735353522918153,19.83997771192227 12.695487719950291,16.073868901471993" style="fill:none;stroke:black;stroke-width:1"/>
<polygon points="12.205480916417013,21.31381130409329 12.269951847360465,21.42319943040518 11.69107100297152,18.52074516260771" style="fill:none;stroke:black;stroke-width:1"/>
<polygon points="12.154758564444059,21.194434250459693 12.205480916417013,21.31381130409329 11.69107100297152,18.52074516260771" style="fill:none;stroke:black;stroke-width:1"/>
<polygon points="12.098898871546705,20.93305015336993 12.11892832435098,21.066870189039154 11.69107100297152,18.52074516260771" style="fill:none;stroke:black;stroke-width:1"/>
<polygon points="12.11892832435098,21.066870189039154 12.154758564444059,21.194434250459693 11.69107100297152,18.52074516260771" style="fill:none;stroke:black;stroke-width:1"/>
<polygon points="12.186829524604965,20.386761528898738 12.139498781820873,20.517241400108652 11.69107100297152,18.52074516260771" style="fill:none;stroke:black;stroke-width:1"/>
<polygon points="12.139498781820873,20.517241400108652 12.108620689655172,20.654827586206892 11.69107100297152,18.52074516260771" style="fill:none;stroke:black;stroke-width:1"/>
<polygon points="12.095329693585679,20.795003837441296 12.098898871546705,20.93305015336993 11.69107100297152,18.52074516260771" style="fill:none;stroke:black;stroke-width:1"/>
<polygon points="12.108620689655172,20.654827586206892 12.095329693585679,20.795003837441296 11.69107100297152,18.52074516260771" style="fill:none;stroke:black;stroke-width:1"/>
<polygon points="15.574239423925818,23.912141980344064 13.217729993772403,21.796577680842386 15.767788062309231,23.87278387087938" style="fill:none;stroke:black;stroke-width:1"/>
<polygon points="13.217729993772403,21.796577680842386 13.337674640861298,21.768103598346126 15.767788062309231,23.87278387087938" style="fill:none;stroke:black;stroke-width:1"/>
<polygon points="15.959044329501689,23.84982916212615 13.455016940944237,21.725354815352915 16.150300596694148,23.82687445337292" style="fill:none;stroke:black;stroke-width:1"/>
<polygon points="13.337674640861298,21.768103598346126 13.455016940944237,21.725354815352915 15.959044329501689,23.84982916212615" style="fill:none;stroke:black;stroke-width:1"/>
<polygon points="16.150300596694148,23.82687445337292 13.455016940944237,21.725354815352915 16.341556863886606,23.803919744619687" style="fill:none;stroke:black;stroke-width:1"/>
<polygon points="15.328076118215808,7.399500523751685 16.258026934097337,6.262050994657393 16.40973018076788,6.475363564751673" style="fill:none;stroke:black;stroke-width:1"/>
<polygon points="15.328076118215808,7.399500523751685 15.180339091447106,7.197632811688553 16.258026934097337,6.262050994657393" style="fill:none;stroke:black;stroke-width:1"/>
<polygon points="15.328076118215808,7.399500523751685 16.40973018076788,6.475363564751673 16.549201357094105,6.7022249557291556" style="fill:none;stroke:black;stroke-width:1"/>
<polygon points="15.180339091447106,7.197632811688553 15.328076118215808,7.399500523751685 15.711875784656948,8.576323327751078" style="fill:none;stroke:black;stroke-width:1"/>
<polygon points="13.09332200663088,19.754525534519463 12.972435009534474,19.768705574260686 12.695487719950291,16.073868901471993" style="fill:none;stroke:black;stroke-width:1"/>
<polygon points="12.972435009534474,19.768705574260686 12.852588506925175,19.797212257650333 12.695487719950291,16.073868901471993" style="fill:none;stroke:black;stroke-width:1"/>
<polygon points="15.397417568439105,24.003706379489252 12.97640057416976,21.81068514435968 15.574239423925818,23.912141980344064" style="fill:none;stroke:black;stroke-width:1"/>
<polygon points="12.97640057416976,21.81068514435968 15.397417568439105,24.003706379489252 12.85837370790648,21.79695582318624" style="fill:none;stroke:black;stroke-width:1"/>
<polygon points="13.56833254475171,21.668691401275066 16.532813131079067,23.78096503586646 16.341556863886606,23.803919744619687" style="fill:none;stroke:black;stroke-width:1"/>
<polygon points="13.455016940944237,21.725354815352915 13.56833254475171,21.668691401275066 16.341556863886606,23.803919744619687" style="fill:none;stroke:black;stroke-width:1"/>
<polygon points="16.532813131079067,23.78096503586646 13.56833254475171,21.668691401275066 16.724069398271524,23.758010327113226" style="fill:none;stroke:black;stroke-width:1"/>
<polygon points="16.674902954699725,6.94232834550416 15.45382929404944,7.614553922331832 16.549201357094105,6.7022249557291556" style="fill:none;stroke:black;stroke-width:1"/>
<polygon points="15.45382929404944,7.614553922331832 15.328076118215808,7.399500523751685 16.549201357094105,6.7022249557291556" style="fill:none;stroke:black;stroke-width:1"/>
<polygon points="15.328076118215808,7.399500523751685 15.45382929404944,7.614553922331832 15.711875784656948,8.576323327751078" style="fill:none;stroke:black;stroke-width:1"/>
<polygon points="13.096754023792721,21.81070919007557 13.217729993772403,21.796577680842386 15.574239423925818,23.912141980344064" style="fill:none;stroke:black;stroke-width:1"/>
<polygon points="12.97640057416976,21.81068514435968 13.096754023792721,21.81070919007557 15.574239423925818,23.912141980344064" style="fill:none;stroke:black;stroke-width:1"/>
<polygon points="13.67577506717761,21.5973505430262 17.10658806853712,23.712084268600474 16.915325665463982,23.735055618359993" style="fill:none;stroke:black;stroke-width:1"/>
<polygon points="17.10658806853712,23.712084268600474 13.67577506717761,21.5973505430262 13.774909730156953,21.51132341624424" style="fill:none;stroke:black;stroke-width:1"/>
<polygon points="16.724069398271524,23.758010327113226 13.67577506717761,21.5973505430262 16.915325665463982,23.735055618359993" style="fill:none;stroke:black;stroke-width:1"/>
<polygon points="13.56833254475171,21.668691401275066 13.67577506717761,21.5973505430262 16.724069398271524,23.758010327113226" style="fill:none;stroke:black;stroke-width:1"/>
<polygon points="15.556342233779189,7.84127795472542 16.674902954699725,6.94232834550416 16.785297465208476,7.195366911990994" style="fill:none;stroke:black;stroke-width:1"/>
<polygon points="15.556342233779189,7.84127795472542 15.45382929404944,7.614553922331832 16.674902954699725,6.94232834550416" style="fill:none;stroke:black;stroke-width:1"/>
<polygon points="15.556342233779189,7.84127795472542 16.785297465208476,7.195366911990994 16.878847426821707,7.461033832524857" style="fill:none;stroke:black;stroke-width:1"/>
<polygon points="15.45382929404944,7.614553922331832 15.686621864251764,8.32367771013862 15.711875784656948,8.576323327751078" style="fill:none;stroke:black;stroke-width:1"/>
<polygon points="15.556342233779189,7.84127795472542 15.686621864251764,8.32367771013862 15.45382929404944,7.614553922331832" style="fill:none;stroke:black;stroke-width:1"/>
<polygon points="15.686621864251764,8.32367771013862 17.006075102753204,8.025087980747431 15.711875784656948,8.576323327751078" style="fill:none;stroke:black;stroke-width:1"/>
<polygon points="15.686621864251764,8.32367771013862 16.95342078948861,7.738245356445023 17.006075102753204,8.025087980747431" style="fill:none;stroke:black;stroke-width:1"/>
<polygon points="16.95342078948861,7.738245356445023 15.634358552236238,8.078157568228875 16.878847426821707,7.461033832524857" style="fill:none;stroke:black;stroke-width:1"/>
<polygon points="15.686621864251764,8.32367771013862 15.634358552236238,8.078157568228875 16.95342078948861,7.738245356445023" style="fill:none;stroke:black;stroke-width:1"/>
<polygon points="15.634358552236238,8.078157568228875 15.556342233779189,7.84127795472542 16.878847426821707,7.461033832524857" style="fill:none;stroke:black;stroke-width:1"/>
<polygon points="15.634358552236238,8.078157568228875 15.686621864251764,8.32367771013862 15.556342233779189,7.84127795472542" style="fill:none;stroke:black;stroke-width:1"/>
<polygon points="14.090962401238363,20.631891039085424 18.63251507665546,20.444732071074817 14.09453157919939,20.769937355014058" style="fill:none;stroke:black;stroke-width:1"/>
<polygon points="14.09453157919939,20.769937355014058 18.63251507665546,20.444732071074817 17.99818078710447,21.032875621716247" style="fill:none;stroke:black;stroke-width:1"/>
<polygon points="14.003039481780238,21.17851842787321 18.756199152913936,18.392806649483987 18.186270341303672,18.070291387122733" style="fill:none;stroke:black;stroke-width:1"/>
<polygon points="14.003039481780238,21.17851842787321 18.186270341303672,18.070291387122733 13.9402606085396,21.300421793938433" style="fill:none;stroke:black;stroke-width:1"/>
<polygon points="19.136267717989085,18.90510064541814 14.003039481780238,21.17851842787321 14.050695864657644,21.047815845376824" style="fill:none;stroke:black;stroke-width:1"/>
<polygon points="14.003039481780238,21.17851842787321 19.136267717989085,18.90510064541814 18.756199152913936,18.392806649483987" style="fill:none;stroke:black;stroke-width:1"/>
<polygon points="17.487258476285717,17.996841851510016 13.863683610554803,21.4118734973058 13.9402606085396,21.300421793938433" style="fill:none;stroke:black;stroke-width:1"/>
<polygon points="18.186270341303672,18.070291387122733 17.487258476285717,17.996841851510016 13.9402606085396,21.300421793938433" style="fill:none;stroke:black;stroke-width:1"/>
<polygon points="13.863683610554803,21.4118734973058 17.487258476285717,17.996841851510016 13.774909730156953,21.51132341624424" style="fill:none;stroke:black;stroke-width:1"/>
<polygon points="17.487258476285717,17.996841851510016 16.759318617057573,18.21906918769732 13.774909730156953,21.51132341624424" style="fill:none;stroke:black;stroke-width:1"/>
<polygon points="18.895846740234763,22.55502511238963 19.264482758620687,19.545862068965516 19.72565198025898,22.210048113528877" style="fill:none;stroke:black;stroke-width:1"/>
<polygon points="19.264482758620687,19.545862068965516 15.71107384454877,20.214621806558398 15.81998077197269,19.390523231155647" style="fill:none;stroke:black;stroke-width:1"/>
<polygon points="18.437169328676234,19.188116668057074 19.264482758620687,19.545862068965516 18.896607853701905,19.160515987886168" style="fill:none;stroke:black;stroke-width:1"/>
<polygon points="19.264482758620687,19.545862068965516 15.901975763563483,21.065790815897934 15.71107384454877,20.214621806558398" style="fill:none;stroke:black;stroke-width:1"/>
<polygon points="19.264482758620687,19.545862068965516 20.082153093683107,19.190053324992647 20.392465463530996,19.976565336191577" style="fill:none;stroke:black;stroke-width:1"/>
<polygon points="19.264482758620687,19.545862068965516 20.717831526363646,19.40714270665494 20.13758287135873,18.912096129797266" style="fill:none;stroke:black;stroke-width:1"/>
<polygon points="19.264482758620687,19.545862068965516 18.625283829568943,17.273832877599954 18.038350659190616,17.8043648023936" style="fill:none;stroke:black;stroke-width:1"/>
<polygon points="19.342552477312875,18.648145462042184 19.264482758620687,19.545862068965516 20.13758287135873,18.912096129797266" style="fill:none;stroke:black;stroke-width:1"/>
<polygon points="19.264482758620687,19.545862068965516 17.487258476285717,17.996841851510016 18.186270341303672,18.070291387122733" style="fill:none;stroke:black;stroke-width:1"/>
<polygon points="20.94312266702582,19.971720287514213 19.264482758620687,19.545862068965516 20.392465463530996,19.976565336191577" style="fill:none;stroke:black;stroke-width:1"/>
<polygon points="19.44132116777333,18.729040073764658 19.264482758620687,19.545862068965516 18.7309921603135,18.81947209531562" style="fill:none;stroke:black;stroke-width:1"/>
<polygon points="17.658108508802997,18.567151396017778 19.264482758620687,19.545862068965516 18.038350659190616,17.8043648023936" style="fill:none;stroke:black;stroke-width:1"/>
<polygon points="19.264482758620687,19.545862068965516 18.35419585742415,19.335457275533294 18.7309921603135,18.81947209531562" style="fill:none;stroke:black;stroke-width:1"/>
<polygon points="19.264482758620687,19.545862068965516 18.065125534439552,20.233955459931906 19.225059661004234,18.002449446693433" style="fill:none;stroke:black;stroke-width:1"/>
<polygon points="19.264482758620687,19.545862068965516 17.085988679951544,22.32533700749391 16.381833440126243,21.79409282904025" style="fill:none;stroke:black;stroke-width:1"/>
<polygon points="19.264482758620687,19.545862068965516 17.38967524986192,19.702412553081007 16.873233549629305,19.203522661787197" style="fill:none;stroke:black;stroke-width:1"/>
<polygon points="19.264482758620687,19.545862068965516 19.047897395341558,19.648617398663774 18.896607853701905,19.160515987886168" style="fill:none;stroke:black;stroke-width:1"/>
<polygon points="18.63251507665546,20.444732071074817 19.264482758620687,19.545862068965516 17.99818078710447,21.032875621716247" style="fill:none;stroke:black;stroke-width:1"/>
<polygon points="19.264482758620687,19.545862068965516 20.366785644192067,21.623144871385307 19.72565198025898,22.210048113528877" style="fill:none;stroke:black;stroke-width:1"/>
<polygon points="20.082153093683107,19.190053324992647 19.264482758620687,19.545862068965516 19.44132116777333,18.729040073764658" style="fill:none;stroke:black;stroke-width:1"/>
<polygon points="19.264482758620687,19.545862068965516 17.658108508802997,18.567151396017778 17.7030003374388,19.259800729261233" style="fill:none;stroke:black;stroke-width:1"/>
<polygon points="18.35419585742415,19.335457275533294 19.264482758620687,19.545862068965516 17.7030003374388,19.259800729261233" style="fill:none;stroke:black;stroke-width:1"/>
<polygon points="16.18542038388974,18.70450472137617 19.264482758620687,19.545862068965516 15.81998077197269,19.390523231155647" style="fill:none;stroke:black;stroke-width:1"/>
<polygon points="19.264482758620687,19.545862068965516 20.01197028811397,19.030392232105406 18.625283829568943,17.273832877599954" style="fill:none;stroke:black;stroke-width:1"/>
<polygon points="15.901975763563483,21.065790815897934 19.264482758620687,19.545862068965516 16.381833440126243,21.79409282904025" style="fill:none;stroke:black;stroke-width:1"/>
<polygon points="19.264482758620687,19.545862068965516 18.060637504923523,18.763001507528422 18.621911205419973,19.434121298279745" style="fill:none;stroke:black;stroke-width:1"/>
<polygon points="18.756199152913936,18.392806649483987 19.264482758620687,19.545862068965516 18.186270341303672,18.070291387122733" style="fill:none;stroke:black;stroke-width:1"/>
<polygon points="19.136267717989085,18.90510064541814 19.264482758620687,19.545862068965516 18.756199152913936,18.392806649483987" style="fill:none;stroke:black;stroke-width:1"/>
<polygon points="17.38967524986192,19.702412553081007 19.264482758620687,19.545862068965516 18.055925469165757,19.67375818918569" style="fill:none;stroke:black;stroke-width:1"/>
<polygon points="19.264482758620687,19.545862068965516 18.437169328676234,19.188116668057074 18.055925469165757,19.67375818918569" style="fill:none;stroke:black;stroke-width:1"/>
<polygon points="19.264482758620687,19.545862068965516 18.63251507665546,20.444732071074817 19.047897395341558,19.648617398663774" style="fill:none;stroke:black;stroke-width:1"/>
<polygon points="20.717831526363646,19.40714270665494 19.264482758620687,19.545862068965516 20.94312266702582,19.971720287514213" style="fill:none;stroke:black;stroke-width:1"/>
<polygon points="20.366785644192067,21.623144871385307 19.264482758620687,19.545862068965516 20.76755084448765,20.855888113253712" style="fill:none;stroke:black;stroke-width:1"/>
<polygon points="19.264482758620687,19.545862068965516 19.342552477312875,18.648145462042184 20.76755084448765,20.855888113253712" style="fill:none;stroke:black;stroke-width:1"/>
<polygon points="19.482024051142254,19.521539930211453 19.264482758620687,19.545862068965516 18.621911205419973,19.434121298279745" style="fill:none;stroke:black;stroke-width:1"/>
<polygon points="18.719481337752157,17.64580914565354 19.264482758620687,19.545862068965516 19.225059661004234,18.002449446693433" style="fill:none;stroke:black;stroke-width:1"/>
<polygon points="18.065125534439552,20.233955459931906 19.264482758620687,19.545862068965516 17.215092093690213,19.94355842840474" style="fill:none;stroke:black;stroke-width:1"/>
<polygon points="16.631783763866224,18.66054759279505 19.264482758620687,19.545862068965516 16.873233549629305,19.203522661787197" style="fill:none;stroke:black;stroke-width:1"/>
<polygon points="17.085988679951544,22.32533700749391 19.264482758620687,19.545862068965516 17.951086710414415,22.597704936385615" style="fill:none;stroke:black;stroke-width:1"/>
<polygon points="19.264482758620687,19.545862068965516 18.895846740234763,22.55502511238963 17.951086710414415,22.597704936385615" style="fill:none;stroke:black;stroke-width:1"/>
<polygon points="19.264482758620687,19.545862068965516 16.556106477412822,19.41192767647704 17.215092093690213,19.94355842840474" style="fill:none;stroke:black;stroke-width:1"/>
<polygon points="17.487258476285717,17.996841851510016 19.264482758620687,19.545862068965516 16.759318617057573,18.21906918769732" style="fill:none;stroke:black;stroke-width:1"/>
<polygon points="19.264482758620687,19.545862068965516 16.18542038388974,18.70450472137617 16.759318617057573,18.21906918769732" style="fill:none;stroke:black;stroke-width:1"/>
<polygon points="20.01197028811397,19.030392232105406 19.264482758620687,19.545862068965516 19.482024051142254,19.521539930211453" style="fill:none;stroke:black;stroke-width:1"/>
<polygon points="19.264482758620687,19.545862068965516 18.719481337752157,17.64580914565354 18.143717192640505,17.970584646042756" style="fill:none;stroke:black;stroke-width:1"/>
<polygon points="18.060637504923523,18.763001507528422 19.264482758620687,19.545862068965516 18.143717192640505,17.970584646042756" style="fill:none;stroke:black;stroke-width:1"/>
<polygon points="19.264482758620687,19.545862068965516 16.631783763866224,18.66054759279505 16.166409506585097,18.715113916729724" style="fill:none;stroke:black;stroke-width:1"/>
<polygon points="16.556106477412822,19.41192767647704 19.264482758620687,19.545862068965516 16.166409506585097,18.715113916729724" style="fill:none;stroke:black;stroke-width:1"/>
<polygon points="19.264482758620687,19.545862068965516 14.081289728399604,20.910169452102885 14.09453157919939,20.769937355014058" style="fill:none;stroke:black;stroke-width:1"/>
<polygon points="19.264482758620687,19.545862068965516 14.09453157919939,20.769937355014058 17.99818078710447,21.032875621716247" style="fill:none;stroke:black;stroke-width:1"/>
<polygon points="14.081289728399604,20.910169452102885 19.264482758620687,19.545862068965516 14.050695864657644,21.047815845376824" style="fill:none;stroke:black;stroke-width:1"/>
<polygon points="19.264482758620687,19.545862068965516 19.136267717989085,18.90510064541814 14.050695864657644,21.047815845376824" style="fill:none;stroke:black;stroke-width:1"/>
<polygon points="13.67577506717761,21.5973505430262 13.843050271723408,20.043986951243795 13.919909425424603,20.141741762050174" style="fill:none;stroke:black;stroke-width:1"/>
<polygon points="13.984380356368055,20.251129888362065 13.67577506717761,21.5973505430262 13.919909425424603,20.141741762050174" style="fill:none;stroke:black;stroke-width:1"/>
<polygon points="13.67577506717761,21.5973505430262 12.11892832435098,21.066870189039154 12.098898871546705,20.93305015336993" style="fill:none;stroke:black;stroke-width:1"/>
<polygon points="13.67577506717761,21.5973505430262 13.863683610554803,21.4118734973058 13.774909730156953,21.51132341624424" style="fill:none;stroke:black;stroke-width:1"/>
<polygon points="13.67577506717761,21.5973505430262 14.035102708341011,20.370506941995664 14.070932948434088,20.4980710034162" style="fill:none;stroke:black;stroke-width:1"/>
<polygon points="14.090962401238363,20.631891039085424 13.67577506717761,21.5973505430262 14.070932948434088,20.4980710034162" style="fill:none;stroke:black;stroke-width:1"/>
<polygon points="13.67577506717761,21.5973505430262 13.755358621150474,19.959326379791808 13.843050271723408,20.043986951243795" style="fill:none;stroke:black;stroke-width:1"/>
<polygon points="13.67577506717761,21.5973505430262 14.081289728399604,20.910169452102885 14.050695864657644,21.047815845376824" style="fill:none;stroke:black;stroke-width:1"/>
<polygon points="13.863683610554803,21.4118734973058 13.67577506717761,21.5973505430262 13.9402606085396,21.300421793938433" style="fill:none;stroke:black;stroke-width:1"/>
<polygon points="14.003039481780238,21.17851842787321 13.67577506717761,21.5973505430262 14.050695864657644,21.047815845376824" style="fill:none;stroke:black;stroke-width:1"/>
<polygon points="13.67577506717761,21.5973505430262 12.346811001061663,21.52095424121156 12.269951847360465,21.42319943040518" style="fill:none;stroke:black;stroke-width:1"/>
<polygon points="14.035102708341011,20.370506941995664 13.67577506717761,21.5973505430262 13.984380356368055,20.251129888362065" style="fill:none;stroke:black;stroke-width:1"/>
<polygon points="14.081289728399604,20.910169452102885 13.67577506717761,21.5973505430262 14.09453157919939,20.769937355014058" style="fill:none;stroke:black;stroke-width:1"/>
<polygon points="13.67577506717761,21.5973505430262 14.090962401238363,20.631891039085424 14.09453157919939,20.769937355014058" style="fill:none;stroke:black;stroke-width:1"/>
<polygon points="13.331551891539531,19.768134051548703 13.67577506717761,21.5973505430262 13.213595654966886,19.75448512011264" style="fill:none;stroke:black;stroke-width:1"/>
<polygon points="13.67577506717761,21.5973505430262 13.445469824962819,19.79475456984731 13.55452767877114,19.834079347512088" style="fill:none;stroke:black;stroke-width:1"/>
<polygon points="12.249488219631191,20.265067008906833 13.67577506717761,21.5973505430262 12.186829524604965,20.386761528898738" style="fill:none;stroke:black;stroke-width:1"/>
<polygon points="13.67577506717761,21.5973505430262 14.003039481780238,21.17851842787321 13.9402606085396,21.300421793938433" style="fill:none;stroke:black;stroke-width:1"/>
<polygon points="13.67577506717761,21.5973505430262 12.744394316388881,21.7702389855356 12.635333594013929,21.730861844943263" style="fill:none;stroke:black;stroke-width:1"/>
<polygon points="13.67577506717761,21.5973505430262 13.09332200663088,19.754525534519463 13.213595654966886,19.75448512011264" style="fill:none;stroke:black;stroke-width:1"/>
<polygon points="13.67577506717761,21.5973505430262 12.415003131581841,20.05438490358729 12.514357541809991,19.96829565408475" style="fill:none;stroke:black;stroke-width:1"/>
<polygon points="13.67577506717761,21.5973505430262 12.97640057416976,21.81068514435968 12.85837370790648,21.79695582318624" style="fill:none;stroke:black;stroke-width:1"/>
<polygon points="12.531300238246565,21.675926724889006 13.67577506717761,21.5973505430262 12.635333594013929,21.730861844943263" style="fill:none;stroke:black;stroke-width:1"/>
<polygon points="13.67577506717761,21.5973505430262 12.434502651634592,21.605614812663546 12.346811001061663,21.52095424121156" style="fill:none;stroke:black;stroke-width:1"/>
<polygon points="13.67577506717761,21.5973505430262 12.972435009534474,19.768705574260686 13.09332200663088,19.754525534519463" style="fill:none;stroke:black;stroke-width:1"/>
<polygon points="13.6585610345385,19.889014467566344 13.67577506717761,21.5973505430262 13.55452767877114,19.834079347512088" style="fill:none;stroke:black;stroke-width:1"/>
<polygon points="12.622068655438833,19.896729556550476 13.67577506717761,21.5973505430262 12.514357541809991,19.96829565408475" style="fill:none;stroke:black;stroke-width:1"/>
<polygon points="12.415003131581841,20.05438490358729 13.67577506717761,21.5973505430262 12.32609058015612,20.15377022549825" style="fill:none;stroke:black;stroke-width:1"/>
<polygon points="13.67577506717761,21.5973505430262 12.249488219631191,20.265067008906833 12.32609058015612,20.15377022549825" style="fill:none;stroke:black;stroke-width:1"/>
<polygon points="12.205480916417013,21.31381130409329 13.67577506717761,21.5973505430262 12.269951847360465,21.42319943040518" style="fill:none;stroke:black;stroke-width:1"/>
<polygon points="13.67577506717761,21.5973505430262 12.139498781820873,20.517241400108652 12.186829524604965,20.386761528898738" style="fill:none;stroke:black;stroke-width:1"/>
<polygon points="12.434502651634592,21.605614812663546 13.67577506717761,21.5973505430262 12.531300238246565,21.675926724889006" style="fill:none;stroke:black;stroke-width:1"/>
<polygon points="12.744394316388881,21.7702389855356 13.67577506717761,21.5973505430262 12.85837370790648,21.79695582318624" style="fill:none;stroke:black;stroke-width:1"/>
<polygon points="12.095329693585679,20.795003837441296 13.67577506717761,21.5973505430262 12.098898871546705,20.93305015336993" style="fill:none;stroke:black;stroke-width:1"/>
<polygon points="13.445469824962819,19.79475456984731 13.67577506717761,21.5973505430262 13.331551891539531,19.768134051548703" style="fill:none;stroke:black;stroke-width:1"/>
<polygon points="13.755358621150474,19.959326379791808 13.67577506717761,21.5973505430262 13.6585610345385,19.889014467566344" style="fill:none;stroke:black;stroke-width:1"/>
<polygon points="13.67577506717761,21.5973505430262 12.622068655438833,19.896729556550476 12.735353522918153,19.83997771192227" style="fill:none;stroke:black;stroke-width:1"/>
<polygon points="12.852588506925175,19.797212257650333 13.67577506717761,21.5973505430262 12.735353522918153,19.83997771192227" style="fill:none;stroke:black;stroke-width:1"/>
<polygon points="13.67577506717761,21.5973505430262 12.205480916417013,21.31381130409329 12.154758564444059,21.194434250459693" style="fill:none;stroke:black;stroke-width:1"/>
<polygon points="12.11892832435098,21.066870189039154 13.67577506717761,21.5973505430262 12.154758564444059,21.194434250459693" style="fill:none;stroke:black;stroke-width:1"/>
<polygon points="12.139498781820873,20.517241400108652 13.67577506717761,21.5973505430262 12.108620689655172,20.654827586206892" style="fill:none;stroke:black;stroke-width:1"/>
<polygon points="13.67577506717761,21.5973505430262 12.095329693585679,20.795003837441296 12.108620689655172,20.654827586206892" style="fill:none;stroke:black;stroke-width:1"/>
<polygon points="13.217729993772403,21.796577680842386 13.67577506717761,21.5973505430262 13.337674640861298,21.768103598346126" style="fill:none;stroke:black;stroke-width:1"/>
<polygon points="13.67577506717761,21.5973505430262 13.455016940944237,21.725354815352915 13.337674640861298,21.768103598346126" style="fill:none;stroke:black;stroke-width:1"/>
<polygon points="12.972435009534474,19.768705574260686 13.67577506717761,21.5973505430262 12.852588506925175,19.797212257650333" style="fill:none;stroke:black;stroke-width:1"/>
<polygon points="13.096754023792721,21.81070919007557 13.67577506717761,21.5973505430262 13.217729993772403,21.796577680842386" style="fill:none;stroke:black;stroke-width:1"/>
<polygon points="13.67577506717761,21.5973505430262 13.56833254475171,21.668691401275066 13.455016940944237,21.725354815352915" style="fill:none;stroke:black;stroke-width:1"/>
<polygon points="13.67577506717761,21.5973505430262 13.096754023792721,21.81070919007557 12.97640057416976,21.81068514435968" style="fill:none;stroke:black;stroke-width:1"/>
</svg>
