<?xml version="1.0" encoding="UTF-8" standalone="no"?>
<svg xmlns="http://www.w3.org/2000/svg" version="1.1" width="800" height="800">
<polygon points="14.490527724073445,26.30918299300794 16.878503206883856,24.95976373723277 18.044910263195945,26.484305874134066" style="fill:none;stroke:black;stroke-width:1"/>
<polygon points="14.153369642573098,14.378379921691568 11.313802093985322,13.923601579826366 12.197294107223362,11.52907863599829" style="fill:none;stroke:black;stroke-width:1"/>
<polygon points="23.461116050571743,6.617106163254371 22.893983490586045,4.287262719355757 25.103261191029567,6.590419740210583" style="fill:none;stroke:black;stroke-width:1"/>
<polygon points="18.119415567343836,3.9685333359251773 14.342575621443238,5.209681964229684 17.03543727732297,2.017343432619323" style="fill:none;stroke:black;stroke-width:1"/>
<polygon points="10.149435213109289,10.095105353274006 10.276206896551725,11.59896551724138 8.189280536997071,9.070555266830462" style="fill:none;stroke:black;stroke-width:1"/>
<polygon points="11.313802093985322,13.923601579826366 10.276206896551725,11.59896551724138 12.197294107223362,11.52907863599829" style="fill:none;stroke:black;stroke-width:1"/>
<polygon points="10.276206896551725,11.59896551724138 10.149435213109289,10.095105353274006 12.197294107223362,11.52907863599829" style="fill:none;stroke:black;stroke-width:1"/>
<polygon points="8.456908477152268,5.844561935685109 9.208237424134712,7.167490862128483 8.189280536997071,9.070555266830462" style="fill:none;stroke:black;stroke-width:1"/>
<polygon points="9.208237424134712,7.167490862128483 10.149435213109289,10.095105353274006 8.189280536997071,9.070555266830462" style="fill:none;stroke:black;stroke-width:1"/>
<polygon points="11.009851456727258,3.990490327816163 9.208237424134712,7.167490862128483 8.456908477152268,5.844561935685109" style="fill:none;stroke:black;stroke-width:1"/>
<polygon points="20.852216001867056,25.0156909122484 19.864406180293297,23.81484860548139 22.434838137497703,21.283291364468024" style="fill:none;stroke:black;stroke-width:1"/>
<polygon points="19.864406180293297,23.81484860548139 20.852216001867056,25.0156909122484 18.044910263195945,26.484305874134066" style="fill:none;stroke:black;stroke-width:1"/>
<polygon points="16.878503206883856,24.95976373723277 19.864406180293297,23.81484860548139 18.044910263195945,26.484305874134066" style="fill:none;stroke:black;stroke-width:1"/>
<polygon points="20.927046794221173,20.257130398882598 22.472251855717893,18.7445320424284 22.434838137497703,21.283291364468024" style="fill:none;stroke:black;stroke-width:1"/>
<polygon points="19.864406180293297,23.81484860548139 20.927046794221173,20.257130398882598 22.434838137497703,21.283291364468024" style="fill:none;stroke:black;stroke-width:1"/>
<polygon points="15.510249079761145,11.55802797876057 14.153369642573098,14.378379921691568 12.197294107223362,11.52907863599829" style="fill:none;stroke:black;stroke-width:1"/>
<polygon points="14.153369642573098,14.378379921691568 15.510249079761145,11.55802797876057 17.480634121231606,14.354158139477098" style="fill:none;stroke:black;stroke-width:1"/>
<polygon points="23.461116050571743,6.617106163254371 20.68098743136444,5.236328540988261 22.893983490586045,4.287262719355757" style="fill:none;stroke:black;stroke-width:1"/>
<polygon points="17.03543727732297,2.017343432619323 14.988903452666193,3.2204998402816374 13.768645847527365,2.484530219922118" style="fill:none;stroke:black;stroke-width:1"/>
<polygon points="12.394572262284171,5.120249242155275 9.208237424134712,7.167490862128483 11.009851456727258,3.990490327816163" style="fill:none;stroke:black;stroke-width:1"/>
<polygon points="9.208237424134712,7.167490862128483 12.394572262284171,5.120249242155275 10.149435213109289,10.095105353274006" style="fill:none;stroke:black;stroke-width:1"/>
<polygon points="12.394572262284171,5.120249242155275 11.009851456727258,3.990490327816163 13.768645847527365,2.484530219922118" style="fill:none;stroke:black;stroke-width:1"/>
<polygon points="24.815536475094806,9.868499802029683 23.461116050571743,6.617106163254371 25.103261191029567,6.590419740210583" style="fill:none;stroke:black;stroke-width:1"/>
<polygon points="22.472251855717893,18.7445320424284 24.815536475094806,9.868499802029683 22.434838137497703,21.283291364468024" style="fill:none;stroke:black;stroke-width:1"/>
<polygon points="24.815536475094806,9.868499802029683 22.472251855717893,18.7445320424284 22.876344930410344,15.603742040854415" style="fill:none;stroke:black;stroke-width:1"/>
<polygon points="10.296495259491639,14.9326479689161 10.276206896551725,11.59896551724138 11.313802093985322,13.923601579826366" style="fill:none;stroke:black;stroke-width:1"/>
<polygon points="10.276206896551725,11.59896551724138 10.296495259491639,14.9326479689161 8.189280536997071,9.070555266830462" style="fill:none;stroke:black;stroke-width:1"/>
<polygon points="20.813619177721677,14.333867386315436 19.514731653495353,15.556496262139424 17.480634121231606,14.354158139477098" style="fill:none;stroke:black;stroke-width:1"/>
<polygon points="20.927046794221173,20.257130398882598 20.955553346059656,17.393042222835575 22.472251855717893,18.7445320424284" style="fill:none;stroke:black;stroke-width:1"/>
<polygon points="22.472251855717893,18.7445320424284 20.955553346059656,17.393042222835575 22.876344930410344,15.603742040854415" style="fill:none;stroke:black;stroke-width:1"/>
<polygon points="20.955553346059656,17.393042222835575 20.813619177721677,14.333867386315436 22.876344930410344,15.603742040854415" style="fill:none;stroke:black;stroke-width:1"/>
<polygon points="20.813619177721677,14.333867386315436 20.955553346059656,17.393042222835575 19.514731653495353,15.556496262139424" style="fill:none;stroke:black;stroke-width:1"/>
<polygon points="19.031679900275538,24.851279520791305 19.864406180293297,23.81484860548139 16.878503206883856,24.95976373723277" style="fill:none;stroke:black;stroke-width:1"/>
<polygon points="19.864406180293297,23.81484860548139 19.031679900275538,24.851279520791305 19.20216444679565,24.756720832073487" style="fill:none;stroke:black;stroke-width:1"/>
<polygon points="17.172601385517513,25.151879920644987 17.36652588722645,25.1258561801708 16.878503206883856,24.95976373723277" style="fill:none;stroke:black;stroke-width:1"/>
<polygon points="13.3484115022342,10.565836354377087 15.510249079761145,11.55802797876057 12.197294107223362,11.52907863599829" style="fill:none;stroke:black;stroke-width:1"/>
<polygon points="10.149435213109289,10.095105353274006 13.3484115022342,10.565836354377087 12.197294107223362,11.52907863599829" style="fill:none;stroke:black;stroke-width:1"/>
<polygon points="12.394572262284171,5.120249242155275 13.3484115022342,10.565836354377087 10.149435213109289,10.095105353274006" style="fill:none;stroke:black;stroke-width:1"/>
<polygon points="15.510249079761145,11.55802797876057 18.829815777630927,11.58619799950192 17.480634121231606,14.354158139477098" style="fill:none;stroke:black;stroke-width:1"/>
<polygon points="18.829815777630927,11.58619799950192 20.813619177721677,14.333867386315436 17.480634121231606,14.354158139477098" style="fill:none;stroke:black;stroke-width:1"/>
<polygon points="20.813619177721677,14.333867386315436 18.829815777630927,11.58619799950192 21.33687899972652,11.50510017699515" style="fill:none;stroke:black;stroke-width:1"/>
<polygon points="20.68098743136444,5.236328540988261 19.842636242939196,3.66139484358172 22.893983490586045,4.287262719355757" style="fill:none;stroke:black;stroke-width:1"/>
<polygon points="19.842636242939196,3.66139484358172 20.68098743136444,5.236328540988261 18.119415567343836,3.9685333359251773" style="fill:none;stroke:black;stroke-width:1"/>
<polygon points="22.893983490586045,4.287262719355757 19.842636242939196,3.66139484358172 17.03543727732297,2.017343432619323" style="fill:none;stroke:black;stroke-width:1"/>
<polygon points="19.842636242939196,3.66139484358172 18.119415567343836,3.9685333359251773 17.03543727732297,2.017343432619323" style="fill:none;stroke:black;stroke-width:1"/>
<polygon points="23.021885671005155,9.715923486415422 20.68098743136444,5.236328540988261 23.461116050571743,6.617106163254371" style="fill:none;stroke:black;stroke-width:1"/>
<polygon points="24.815536475094806,9.868499802029683 23.021885671005155,9.715923486415422 23.461116050571743,6.617106163254371" style="fill:none;stroke:black;stroke-width:1"/>
<polygon points="22.925661624537792,12.26351536169709 24.815536475094806,9.868499802029683 22.876344930410344,15.603742040854415" style="fill:none;stroke:black;stroke-width:1"/>
<polygon points="20.813619177721677,14.333867386315436 22.925661624537792,12.26351536169709 22.876344930410344,15.603742040854415" style="fill:none;stroke:black;stroke-width:1"/>
<polygon points="22.925661624537792,12.26351536169709 20.813619177721677,14.333867386315436 21.33687899972652,11.50510017699515" style="fill:none;stroke:black;stroke-width:1"/>
<polygon points="23.021885671005155,9.715923486415422 22.925661624537792,12.26351536169709 21.33687899972652,11.50510017699515" style="fill:none;stroke:black;stroke-width:1"/>
<polygon points="22.925661624537792,12.26351536169709 23.021885671005155,9.715923486415422 24.815536475094806,9.868499802029683" style="fill:none;stroke:black;stroke-width:1"/>
<polygon points="16.588987810467568,19.25075580395338 16.230567983446097,15.567708369546937 17.480634121231606,14.354158139477098" style="fill:none;stroke:black;stroke-width:1"/>
<polygon points="13.774617842857795,20.27826907742218 16.230567983446097,15.567708369546937 13.842084085711564,20.373598173165433" style="fill:none;stroke:black;stroke-width:1"/>
<polygon points="16.230567983446097,15.567708369546937 14.153369642573098,14.378379921691568 17.480634121231606,14.354158139477098" style="fill:none;stroke:black;stroke-width:1"/>
<polygon points="19.031679900275538,24.851279520791305 18.787586206896552,23.401724137931033 19.20216444679565,24.756720832073487" style="fill:none;stroke:black;stroke-width:1"/>
<polygon points="19.339100822592417,23.66015786505058 19.92850831451569,22.438095376058378 20.927046794221173,20.257130398882598" style="fill:none;stroke:black;stroke-width:1"/>
<polygon points="19.51180241271223,24.246662052753443 20.927046794221173,20.257130398882598 19.864406180293297,23.81484860548139" style="fill:none;stroke:black;stroke-width:1"/>
<polygon points="19.51180241271223,24.246662052753443 19.511513914273245,24.033311343618237 20.927046794221173,20.257130398882598" style="fill:none;stroke:black;stroke-width:1"/>
<polygon points="19.453007280004634,24.446004246239767 19.51180241271223,24.246662052753443 19.864406180293297,23.81484860548139" style="fill:none;stroke:black;stroke-width:1"/>
<polygon points="11.753222161933744,24.212249054844385 13.63725049643176,24.088463020120166 14.490527724073445,26.30918299300794" style="fill:none;stroke:black;stroke-width:1"/>
<polygon points="13.63725049643176,24.088463020120166 16.878503206883856,24.95976373723277 14.490527724073445,26.30918299300794" style="fill:none;stroke:black;stroke-width:1"/>
<polygon points="13.3484115022342,10.565836354377087 16.64271445415075,10.541459966755657 15.510249079761145,11.55802797876057" style="fill:none;stroke:black;stroke-width:1"/>
<polygon points="16.64271445415075,10.541459966755657 18.829815777630927,11.58619799950192 15.510249079761145,11.55802797876057" style="fill:none;stroke:black;stroke-width:1"/>
<polygon points="14.576477266862401,5.308898230407989 14.342575621443238,5.209681964229684 18.119415567343836,3.9685333359251773" style="fill:none;stroke:black;stroke-width:1"/>
<polygon points="14.80038324413766,5.4218992474966505 14.576477266862401,5.308898230407989 18.119415567343836,3.9685333359251773" style="fill:none;stroke:black;stroke-width:1"/>
<polygon points="15.216012447653554,5.686594023371212 15.013744616618286,5.5480196377372115 18.119415567343836,3.9685333359251773" style="fill:none;stroke:black;stroke-width:1"/>
<polygon points="15.013744616618286,5.5480196377372115 14.80038324413766,5.4218992474966505 18.119415567343836,3.9685333359251773" style="fill:none;stroke:black;stroke-width:1"/>
<polygon points="20.955553346059656,17.393042222835575 18.337758949447476,16.72533912015673 19.514731653495353,15.556496262139424" style="fill:none;stroke:black;stroke-width:1"/>
<polygon points="17.58738317214819,17.35299492570596 18.337758949447476,16.72533912015673 20.955553346059656,17.393042222835575" style="fill:none;stroke:black;stroke-width:1"/>
<polygon points="13.63725049643176,24.088463020120166 16.35518100262171,25.211001414040645 16.878503206883856,24.95976373723277" style="fill:none;stroke:black;stroke-width:1"/>
<polygon points="11.9838387537144,17.939130948205413 12.015099780163673,20.662786901995858 10.784734449216737,20.829890648735947" style="fill:none;stroke:black;stroke-width:1"/>
<polygon points="12.015099780163673,20.662786901995858 11.753222161933744,24.212249054844385 10.784734449216737,20.829890648735947" style="fill:none;stroke:black;stroke-width:1"/>
<polygon points="12.943504379486486,15.584836126839994 10.296495259491639,14.9326479689161 11.313802093985322,13.923601579826366" style="fill:none;stroke:black;stroke-width:1"/>
<polygon points="14.153369642573098,14.378379921691568 12.943504379486486,15.584836126839994 11.313802093985322,13.923601579826366" style="fill:none;stroke:black;stroke-width:1"/>
<polygon points="19.511513914273245,24.033311343618237 19.451106988212107,23.833083965215657 20.927046794221173,20.257130398882598" style="fill:none;stroke:black;stroke-width:1"/>
<polygon points="19.451106988212107,23.833083965215657 19.339100822592417,23.66015786505058 20.927046794221173,20.257130398882598" style="fill:none;stroke:black;stroke-width:1"/>
<polygon points="19.451106988212107,23.833083965215657 19.453007280004634,24.446004246239767 19.339100822592417,23.66015786505058" style="fill:none;stroke:black;stroke-width:1"/>
<polygon points="19.51180241271223,24.246662052753443 19.451106988212107,23.833083965215657 19.511513914273245,24.033311343618237" style="fill:none;stroke:black;stroke-width:1"/>
<polygon points="19.451106988212107,23.833083965215657 19.51180241271223,24.246662052753443 19.453007280004634,24.446004246239767" style="fill:none;stroke:black;stroke-width:1"/>
<polygon points="19.339100822592417,23.66015786505058 19.1847211843306,23.523993638573952 19.92850831451569,22.438095376058378" style="fill:none;stroke:black;stroke-width:1"/>
<polygon points="19.1847211843306,23.523993638573952 18.787586206896552,23.401724137931033 18.997193840343066,23.434051881236737" style="fill:none;stroke:black;stroke-width:1"/>
<polygon points="18.787586206896552,23.401724137931033 19.1847211843306,23.523993638573952 19.20216444679565,24.756720832073487" style="fill:none;stroke:black;stroke-width:1"/>
<polygon points="19.345513649150664,24.61880195014664 19.864406180293297,23.81484860548139 19.20216444679565,24.756720832073487" style="fill:none;stroke:black;stroke-width:1"/>
<polygon points="19.345513649150664,24.61880195014664 19.453007280004634,24.446004246239767 19.864406180293297,23.81484860548139" style="fill:none;stroke:black;stroke-width:1"/>
<polygon points="19.453007280004634,24.446004246239767 19.345513649150664,24.61880195014664 19.339100822592417,23.66015786505058" style="fill:none;stroke:black;stroke-width:1"/>
<polygon points="19.1847211843306,23.523993638573952 19.345513649150664,24.61880195014664 19.20216444679565,24.756720832073487" style="fill:none;stroke:black;stroke-width:1"/>
<polygon points="19.345513649150664,24.61880195014664 19.1847211843306,23.523993638573952 19.339100822592417,23.66015786505058" style="fill:none;stroke:black;stroke-width:1"/>
<polygon points="23.021885671005155,9.715923486415422 16.70766115941764,8.33843784680839 20.68098743136444,5.236328540988261" style="fill:none;stroke:black;stroke-width:1"/>
<polygon points="15.427380850543365,8.637980003146728 16.70766115941764,8.33843784680839 16.69612688646651,8.628274601837743" style="fill:none;stroke:black;stroke-width:1"/>
<polygon points="19.93701740606732,10.517083579134225 23.021885671005155,9.715923486415422 21.33687899972652,11.50510017699515" style="fill:none;stroke:black;stroke-width:1"/>
<polygon points="18.829815777630927,11.58619799950192 19.93701740606732,10.517083579134225 21.33687899972652,11.50510017699515" style="fill:none;stroke:black;stroke-width:1"/>
<polygon points="19.93701740606732,10.517083579134225 16.70766115941764,8.33843784680839 23.021885671005155,9.715923486415422" style="fill:none;stroke:black;stroke-width:1"/>
<polygon points="16.70766115941764,8.33843784680839 19.93701740606732,10.517083579134225 16.69612688646651,8.628274601837743" style="fill:none;stroke:black;stroke-width:1"/>
<polygon points="16.64271445415075,10.541459966755657 19.93701740606732,10.517083579134225 18.829815777630927,11.58619799950192" style="fill:none;stroke:black;stroke-width:1"/>
<polygon points="14.115598774620588,6.747209163822372 14.576477266862401,5.308898230407989 14.80038324413766,5.4218992474966505" style="fill:none;stroke:black;stroke-width:1"/>
<polygon points="15.406637800592739,5.8369570266401976 15.216012447653554,5.686594023371212 18.119415567343836,3.9685333359251773" style="fill:none;stroke:black;stroke-width:1"/>
<polygon points="20.68098743136444,5.236328540988261 16.06410905945414,6.556566487565779 18.119415567343836,3.9685333359251773" style="fill:none;stroke:black;stroke-width:1"/>
<polygon points="16.204211399867592,6.771359539825829 16.06410905945414,6.556566487565779 20.68098743136444,5.236328540988261" style="fill:none;stroke:black;stroke-width:1"/>
<polygon points="19.328969221863968,18.316084502466804 18.433704356231104,18.467673483655684 20.955553346059656,17.393042222835575" style="fill:none;stroke:black;stroke-width:1"/>
<polygon points="16.230567983446097,15.567708369546937 13.897657634717898,20.480095251793983 13.842084085711564,20.373598173165433" style="fill:none;stroke:black;stroke-width:1"/>
<polygon points="15.479727605979186,24.77868351824958 13.63725049643176,24.088463020120166 11.753222161933744,24.212249054844385" style="fill:none;stroke:black;stroke-width:1"/>
<polygon points="12.015099780163673,20.662786901995858 15.479727605979186,24.77868351824958 11.753222161933744,24.212249054844385" style="fill:none;stroke:black;stroke-width:1"/>
<polygon points="12.943504379486486,15.584836126839994 10.759014247922146,18.064601575983897 10.296495259491639,14.9326479689161" style="fill:none;stroke:black;stroke-width:1"/>
<polygon points="10.759014247922146,18.064601575983897 12.943504379486486,15.584836126839994 11.9838387537144,17.939130948205413" style="fill:none;stroke:black;stroke-width:1"/>
<polygon points="10.759014247922146,18.064601575983897 11.9838387537144,17.939130948205413 10.784734449216737,20.829890648735947" style="fill:none;stroke:black;stroke-width:1"/>
<polygon points="10.759014247922146,18.064601575983897 10.784734449216737,20.829890648735947 8.189280536997071,9.070555266830462" style="fill:none;stroke:black;stroke-width:1"/>
<polygon points="10.296495259491639,14.9326479689161 10.759014247922146,18.064601575983897 8.189280536997071,9.070555266830462" style="fill:none;stroke:black;stroke-width:1"/>
<polygon points="17.36652588722645,25.1258561801708 17.554745976699135,25.09657542469004 16.878503206883856,24.95976373723277" style="fill:none;stroke:black;stroke-width:1"/>
<polygon points="17.554745976699135,25.09657542469004 17.739088151628838,25.06788048706507 16.878503206883856,24.95976373723277" style="fill:none;stroke:black;stroke-width:1"/>
<polygon points="17.554745976699135,25.09657542469004 17.36652588722645,25.1258561801708 17.191987099693556,23.543819522949995" style="fill:none;stroke:black;stroke-width:1"/>
<polygon points="18.107771315144088,25.010493715181994 18.29211289690172,24.981800329240457 16.878503206883856,24.95976373723277" style="fill:none;stroke:black;stroke-width:1"/>
<polygon points="18.107771315144088,25.010493715181994 17.957640180008443,23.438726933133992 18.29211289690172,24.981800329240457" style="fill:none;stroke:black;stroke-width:1"/>
<polygon points="18.8451376421746,24.89572017141584 19.031679900275538,24.851279520791305 16.878503206883856,24.95976373723277" style="fill:none;stroke:black;stroke-width:1"/>
<polygon points="18.66079606041697,24.92441355735738 18.8451376421746,24.89572017141584 16.878503206883856,24.95976373723277" style="fill:none;stroke:black;stroke-width:1"/>
<polygon points="18.8451376421746,24.89572017141584 18.787586206896552,23.401724137931033 19.031679900275538,24.851279520791305" style="fill:none;stroke:black;stroke-width:1"/>
<polygon points="18.29211289690172,24.981800329240457 18.476454478659342,24.953106943298916 16.878503206883856,24.95976373723277" style="fill:none;stroke:black;stroke-width:1"/>
<polygon points="18.476454478659342,24.953106943298916 18.66079606041697,24.92441355735738 16.878503206883856,24.95976373723277" style="fill:none;stroke:black;stroke-width:1"/>
<polygon points="18.787586206896552,23.401724137931033 15.903859610899975,21.92791087495808 18.997193840343066,23.434051881236737" style="fill:none;stroke:black;stroke-width:1"/>
<polygon points="17.36652588722645,25.1258561801708 17.00764551793593,23.572512908891532 17.191987099693556,23.543819522949995" style="fill:none;stroke:black;stroke-width:1"/>
<polygon points="17.172601385517513,25.151879920644987 17.00764551793593,23.572512908891532 17.36652588722645,25.1258561801708" style="fill:none;stroke:black;stroke-width:1"/>
<polygon points="16.770703494651364,25.191675692886573 16.454620772663052,23.658593066716147 16.638962354420677,23.62989968077461" style="fill:none;stroke:black;stroke-width:1"/>
<polygon points="12.302708748123543,21.642907413147014 12.015099780163673,20.662786901995858 11.9838387537144,17.939130948205413" style="fill:none;stroke:black;stroke-width:1"/>
<polygon points="12.235242505269774,21.54757831740376 12.302708748123543,21.642907413147014 11.9838387537144,17.939130948205413" style="fill:none;stroke:black;stroke-width:1"/>
<polygon points="19.22460565464109,19.083693008014496 19.430426896017025,19.658310671043683 16.230567983446097,15.567708369546937" style="fill:none;stroke:black;stroke-width:1"/>
<polygon points="20.955553346059656,17.393042222835575 21.256085523040106,19.76346746805137 20.546735991900043,19.802658647082684" style="fill:none;stroke:black;stroke-width:1"/>
<polygon points="21.256085523040106,19.76346746805137 20.955553346059656,17.393042222835575 20.927046794221173,20.257130398882598" style="fill:none;stroke:black;stroke-width:1"/>
<polygon points="15.635496487121465,9.047082487688723 16.383916172391768,9.070999760753073 15.858050791988518,9.156515535157048" style="fill:none;stroke:black;stroke-width:1"/>
<polygon points="16.64271445415075,10.541459966755657 15.635496487121465,9.047082487688723 15.858050791988518,9.156515535157048" style="fill:none;stroke:black;stroke-width:1"/>
<polygon points="19.93701740606732,10.517083579134225 16.58220947254333,8.881844718581617 16.69612688646651,8.628274601837743" style="fill:none;stroke:black;stroke-width:1"/>
<polygon points="16.58220947254333,8.881844718581617 19.93701740606732,10.517083579134225 16.383916172391768,9.070999760753073" style="fill:none;stroke:black;stroke-width:1"/>
<polygon points="15.635496487121465,9.047082487688723 16.58220947254333,8.881844718581617 16.383916172391768,9.070999760753073" style="fill:none;stroke:black;stroke-width:1"/>
<polygon points="16.58220947254333,8.881844718581617 15.427380850543365,8.637980003146728 16.69612688646651,8.628274601837743" style="fill:none;stroke:black;stroke-width:1"/>
<polygon points="16.126228986490016,9.16927719006924 19.93701740606732,10.517083579134225 16.64271445415075,10.541459966755657" style="fill:none;stroke:black;stroke-width:1"/>
<polygon points="19.93701740606732,10.517083579134225 16.126228986490016,9.16927719006924 16.383916172391768,9.070999760753073" style="fill:none;stroke:black;stroke-width:1"/>
<polygon points="16.126228986490016,9.16927719006924 16.64271445415075,10.541459966755657 15.858050791988518,9.156515535157048" style="fill:none;stroke:black;stroke-width:1"/>
<polygon points="16.383916172391768,9.070999760753073 16.126228986490016,9.16927719006924 15.858050791988518,9.156515535157048" style="fill:none;stroke:black;stroke-width:1"/>
<polygon points="15.013744616618286,5.5480196377372115 14.344889435046385,6.878840066846488 14.80038324413766,5.4218992474966505" style="fill:none;stroke:black;stroke-width:1"/>
<polygon points="14.344889435046385,6.878840066846488 14.115598774620588,6.747209163822372 14.80038324413766,5.4218992474966505" style="fill:none;stroke:black;stroke-width:1"/>
<polygon points="14.344889435046385,6.878840066846488 15.013744616618286,5.5480196377372115 15.216012447653554,5.686594023371212" style="fill:none;stroke:black;stroke-width:1"/>
<polygon points="14.576477266862401,5.308898230407989 13.86766706597598,6.629549510603741 14.342575621443238,5.209681964229684" style="fill:none;stroke:black;stroke-width:1"/>
<polygon points="14.115598774620588,6.747209163822372 13.86766706597598,6.629549510603741 14.576477266862401,5.308898230407989" style="fill:none;stroke:black;stroke-width:1"/>
<polygon points="13.86766706597598,6.629549510603741 14.115598774620588,6.747209163822372 13.60360414237867,6.5268554271375425" style="fill:none;stroke:black;stroke-width:1"/>
<polygon points="15.752828540666298,6.1703025476699125 15.585071738785107,5.9984432697857075 18.119415567343836,3.9685333359251773" style="fill:none;stroke:black;stroke-width:1"/>
<polygon points="15.585071738785107,5.9984432697857075 15.406637800592739,5.8369570266401976 18.119415567343836,3.9685333359251773" style="fill:none;stroke:black;stroke-width:1"/>
<polygon points="15.913062752768008,6.35615331415517 15.752828540666298,6.1703025476699125 18.119415567343836,3.9685333359251773" style="fill:none;stroke:black;stroke-width:1"/>
<polygon points="16.06410905945414,6.556566487565779 15.913062752768008,6.35615331415517 18.119415567343836,3.9685333359251773" style="fill:none;stroke:black;stroke-width:1"/>
<polygon points="13.846981072776117,5.055265195637974 14.988903452666193,3.2204998402816374 17.03543727732297,2.017343432619323" style="fill:none;stroke:black;stroke-width:1"/>
<polygon points="13.846981072776117,5.055265195637974 13.586386042829615,5.001395448741485 14.988903452666193,3.2204998402816374" style="fill:none;stroke:black;stroke-width:1"/>
<polygon points="12.475207273599379,5.503732620506676 12.394572262284171,5.120249242155275 13.768645847527365,2.484530219922118" style="fill:none;stroke:black;stroke-width:1"/>
<polygon points="12.769276201539068,6.254907560776861 13.3484115022342,10.565836354377087 12.394572262284171,5.120249242155275" style="fill:none;stroke:black;stroke-width:1"/>
<polygon points="12.573163820522234,6.053449750090807 12.769276201539068,6.254907560776861 12.394572262284171,5.120249242155275" style="fill:none;stroke:black;stroke-width:1"/>
<polygon points="20.142136215263804,18.85502773352685 20.955553346059656,17.393042222835575 20.546735991900043,19.802658647082684" style="fill:none;stroke:black;stroke-width:1"/>
<polygon points="20.142136215263804,18.85502773352685 19.328969221863968,18.316084502466804 20.955553346059656,17.393042222835575" style="fill:none;stroke:black;stroke-width:1"/>
<polygon points="17.099953398151047,18.269154834761242 17.58738317214819,17.35299492570596 20.955553346059656,17.393042222835575" style="fill:none;stroke:black;stroke-width:1"/>
<polygon points="17.14871457763773,19.096417547065386 17.099953398151047,18.269154834761242 20.955553346059656,17.393042222835575" style="fill:none;stroke:black;stroke-width:1"/>
<polygon points="18.433704356231104,18.467673483655684 17.960244821780186,19.151821594416617 20.955553346059656,17.393042222835575" style="fill:none;stroke:black;stroke-width:1"/>
<polygon points="17.960244821780186,19.151821594416617 17.14871457763773,19.096417547065386 20.955553346059656,17.393042222835575" style="fill:none;stroke:black;stroke-width:1"/>
<polygon points="19.514731653495353,15.556496262139424 16.86848715446568,20.223831388139757 17.480634121231606,14.354158139477098" style="fill:none;stroke:black;stroke-width:1"/>
<polygon points="13.968111033702533,20.720127676984212 13.940032547912557,20.596181700651368 16.230567983446097,15.567708369546937" style="fill:none;stroke:black;stroke-width:1"/>
<polygon points="13.940032547912557,20.596181700651368 13.897657634717898,20.480095251793983 16.230567983446097,15.567708369546937" style="fill:none;stroke:black;stroke-width:1"/>
<polygon points="13.981020763695257,20.850079388595802 13.968111033702533,20.720127676984212 16.230567983446097,15.567708369546937" style="fill:none;stroke:black;stroke-width:1"/>
<polygon points="17.739088151628838,25.06788048706507 17.923429733386467,25.03918710112353 16.878503206883856,24.95976373723277" style="fill:none;stroke:black;stroke-width:1"/>
<polygon points="17.923429733386467,25.03918710112353 18.107771315144088,25.010493715181994 16.878503206883856,24.95976373723277" style="fill:none;stroke:black;stroke-width:1"/>
<polygon points="17.564505581030076,23.486274134062857 17.923429733386467,25.03918710112353 17.739088151628838,25.06788048706507" style="fill:none;stroke:black;stroke-width:1"/>
<polygon points="17.957640180008443,23.438726933133992 18.160926425747505,23.421270276526315 18.29211289690172,24.981800329240457" style="fill:none;stroke:black;stroke-width:1"/>
<polygon points="18.160926425747505,23.421270276526315 18.476454478659342,24.953106943298916 18.29211289690172,24.981800329240457" style="fill:none;stroke:black;stroke-width:1"/>
<polygon points="15.136288179116896,19.98692478147862 18.160926425747505,23.421270276526315 15.304170961762326,18.979868650577124" style="fill:none;stroke:black;stroke-width:1"/>
<polygon points="18.160926425747505,23.421270276526315 17.957640180008443,23.438726933133992 15.304170961762326,18.979868650577124" style="fill:none;stroke:black;stroke-width:1"/>
<polygon points="17.376336351302033,23.51510533575059 17.554745976699135,25.09657542469004 17.191987099693556,23.543819522949995" style="fill:none;stroke:black;stroke-width:1"/>
<polygon points="17.554745976699135,25.09657542469004 17.376336351302033,23.51510533575059 17.739088151628838,25.06788048706507" style="fill:none;stroke:black;stroke-width:1"/>
<polygon points="17.376336351302033,23.51510533575059 17.564505581030076,23.486274134062857 17.739088151628838,25.06788048706507" style="fill:none;stroke:black;stroke-width:1"/>
<polygon points="15.34052573306844,21.03198006597679 15.903859610899975,21.92791087495808 18.787586206896552,23.401724137931033" style="fill:none;stroke:black;stroke-width:1"/>
<polygon points="17.788480425370928,22.917747817848184 19.1847211843306,23.523993638573952 18.997193840343066,23.434051881236737" style="fill:none;stroke:black;stroke-width:1"/>
<polygon points="16.53196608206414,17.57265359328025 17.376336351302033,23.51510533575059 13.63581935195402,21.6879713789639" style="fill:none;stroke:black;stroke-width:1"/>
<polygon points="16.270279190905427,23.687286452657688 16.35518100262171,25.211001414040645 16.0859376091478,23.715979838599225" style="fill:none;stroke:black;stroke-width:1"/>
<polygon points="16.823303936178306,23.60120629483307 17.00764551793593,23.572512908891532 17.172601385517513,25.151879920644987" style="fill:none;stroke:black;stroke-width:1"/>
<polygon points="16.770703494651364,25.191675692886573 16.564262280124414,25.20420739281043 16.454620772663052,23.658593066716147" style="fill:none;stroke:black;stroke-width:1"/>
<polygon points="16.270279190905427,23.687286452657688 16.564262280124414,25.20420739281043 16.35518100262171,25.211001414040645" style="fill:none;stroke:black;stroke-width:1"/>
<polygon points="16.564262280124414,25.20420739281043 16.270279190905427,23.687286452657688 16.454620772663052,23.658593066716147" style="fill:none;stroke:black;stroke-width:1"/>
<polygon points="16.35518100262171,25.211001414040645 16.564262280124414,25.20420739281043 16.878503206883856,24.95976373723277" style="fill:none;stroke:black;stroke-width:1"/>
<polygon points="16.564262280124414,25.20420739281043 16.770703494651364,25.191675692886573 16.878503206883856,24.95976373723277" style="fill:none;stroke:black;stroke-width:1"/>
<polygon points="12.943504379486486,15.584836126839994 12.206219143608905,20.543667500862444 11.9838387537144,17.939130948205413" style="fill:none;stroke:black;stroke-width:1"/>
<polygon points="12.015099780163673,20.662786901995858 12.560734803259582,21.848872144836847 15.585561602171728,23.992898059868423" style="fill:none;stroke:black;stroke-width:1"/>
<polygon points="17.266289059123864,19.851301079718695 16.230567983446097,15.567708369546937 16.588987810467568,19.25075580395338" style="fill:none;stroke:black;stroke-width:1"/>
<polygon points="17.266289059123864,19.851301079718695 18.12770953252639,19.788618707084826 16.230567983446097,15.567708369546937" style="fill:none;stroke:black;stroke-width:1"/>
<polygon points="18.629279471587463,19.151328726412743 19.22460565464109,19.083693008014496 16.230567983446097,15.567708369546937" style="fill:none;stroke:black;stroke-width:1"/>
<polygon points="18.12770953252639,19.788618707084826 18.629279471587463,19.151328726412743 16.230567983446097,15.567708369546937" style="fill:none;stroke:black;stroke-width:1"/>
<polygon points="19.430426896017025,19.658310671043683 18.923326083672023,20.61613067858254 16.230567983446097,15.567708369546937" style="fill:none;stroke:black;stroke-width:1"/>
<polygon points="18.923326083672023,20.61613067858254 13.981020763695257,20.850079388595802 16.230567983446097,15.567708369546937" style="fill:none;stroke:black;stroke-width:1"/>
<polygon points="20.30278359240195,18.381834773879145 20.99948671188537,19.027507412715966 20.927046794221173,20.257130398882598" style="fill:none;stroke:black;stroke-width:1"/>
<polygon points="20.99948671188537,19.027507412715966 21.256085523040106,19.76346746805137 20.927046794221173,20.257130398882598" style="fill:none;stroke:black;stroke-width:1"/>
<polygon points="19.92850831451569,22.438095376058378 20.691914244497912,21.7142259278894 20.927046794221173,20.257130398882598" style="fill:none;stroke:black;stroke-width:1"/>
<polygon points="20.691914244497912,21.7142259278894 21.156382526995483,20.76960168767151 20.927046794221173,20.257130398882598" style="fill:none;stroke:black;stroke-width:1"/>
<polygon points="19.340744723210157,18.02882935083335 20.30278359240195,18.381834773879145 20.927046794221173,20.257130398882598" style="fill:none;stroke:black;stroke-width:1"/>
<polygon points="21.156382526995483,20.76960168767151 19.340744723210157,18.02882935083335 20.927046794221173,20.257130398882598" style="fill:none;stroke:black;stroke-width:1"/>
<polygon points="16.54129407312291,7.500192688219664 16.444559938448062,7.243355168590627 20.68098743136444,5.236328540988261" style="fill:none;stroke:black;stroke-width:1"/>
<polygon points="16.70766115941764,8.33843784680839 16.67511611829921,8.049712663563216 20.68098743136444,5.236328540988261" style="fill:none;stroke:black;stroke-width:1"/>
<polygon points="16.67511611829921,8.049712663563216 16.70766115941764,8.33843784680839 15.427380850543365,8.637980003146728" style="fill:none;stroke:black;stroke-width:1"/>
<polygon points="16.58220947254333,8.881844718581617 15.483859169905175,8.865845142717422 15.427380850543365,8.637980003146728" style="fill:none;stroke:black;stroke-width:1"/>
<polygon points="15.483859169905175,8.865845142717422 16.58220947254333,8.881844718581617 15.635496487121465,9.047082487688723" style="fill:none;stroke:black;stroke-width:1"/>
<polygon points="15.483859169905175,8.865845142717422 15.635496487121465,9.047082487688723 16.64271445415075,10.541459966755657" style="fill:none;stroke:black;stroke-width:1"/>
<polygon points="15.483859169905175,8.865845142717422 16.64271445415075,10.541459966755657 13.3484115022342,10.565836354377087" style="fill:none;stroke:black;stroke-width:1"/>
<polygon points="15.427380850543365,8.637980003146728 15.483859169905175,8.865845142717422 13.3484115022342,10.565836354377087" style="fill:none;stroke:black;stroke-width:1"/>
<polygon points="15.406637800592739,5.8369570266401976 14.553029213987255,7.023447899729142 15.216012447653554,5.686594023371212" style="fill:none;stroke:black;stroke-width:1"/>
<polygon points="14.553029213987255,7.023447899729142 14.344889435046385,6.878840066846488 15.216012447653554,5.686594023371212" style="fill:none;stroke:black;stroke-width:1"/>
<polygon points="13.846981072776117,5.055265195637974 14.099227244530901,5.124915826720192 13.60360414237867,6.5268554271375425" style="fill:none;stroke:black;stroke-width:1"/>
<polygon points="13.86766706597598,6.629549510603741 14.099227244530901,5.124915826720192 14.342575621443238,5.209681964229684" style="fill:none;stroke:black;stroke-width:1"/>
<polygon points="14.099227244530901,5.124915826720192 13.86766706597598,6.629549510603741 13.60360414237867,6.5268554271375425" style="fill:none;stroke:black;stroke-width:1"/>
<polygon points="14.342575621443238,5.209681964229684 14.099227244530901,5.124915826720192 17.03543727732297,2.017343432619323" style="fill:none;stroke:black;stroke-width:1"/>
<polygon points="14.099227244530901,5.124915826720192 13.846981072776117,5.055265195637974 17.03543727732297,2.017343432619323" style="fill:none;stroke:black;stroke-width:1"/>
<polygon points="12.468719480506083,5.793639759989323 12.573163820522234,6.053449750090807 12.394572262284171,5.120249242155275" style="fill:none;stroke:black;stroke-width:1"/>
<polygon points="12.475207273599379,5.503732620506676 12.468719480506083,5.793639759989323 12.394572262284171,5.120249242155275" style="fill:none;stroke:black;stroke-width:1"/>
<polygon points="12.468719480506083,5.793639759989323 12.475207273599379,5.503732620506676 12.573163820522234,6.053449750090807" style="fill:none;stroke:black;stroke-width:1"/>
<polygon points="12.769276201539068,6.254907560776861 13.037586206896552,6.370689655172415 13.3484115022342,10.565836354377087" style="fill:none;stroke:black;stroke-width:1"/>
<polygon points="13.037586206896552,6.370689655172415 15.427380850543365,8.637980003146728 13.3484115022342,10.565836354377087" style="fill:none;stroke:black;stroke-width:1"/>
<polygon points="13.037586206896552,6.370689655172415 12.769276201539068,6.254907560776861 12.792282521535508,5.059926385588927" style="fill:none;stroke:black;stroke-width:1"/>
<polygon points="13.037586206896552,6.370689655172415 14.553029213987255,7.023447899729142 15.427380850543365,8.637980003146728" style="fill:none;stroke:black;stroke-width:1"/>
<polygon points="14.553029213987255,7.023447899729142 13.037586206896552,6.370689655172415 14.344889435046385,6.878840066846488" style="fill:none;stroke:black;stroke-width:1"/>
<polygon points="12.475207273599379,5.503732620506676 12.592350820092152,5.246432706440924 12.573163820522234,6.053449750090807" style="fill:none;stroke:black;stroke-width:1"/>
<polygon points="12.592350820092152,5.246432706440924 12.769276201539068,6.254907560776861 12.573163820522234,6.053449750090807" style="fill:none;stroke:black;stroke-width:1"/>
<polygon points="12.769276201539068,6.254907560776861 12.592350820092152,5.246432706440924 12.792282521535508,5.059926385588927" style="fill:none;stroke:black;stroke-width:1"/>
<polygon points="12.592350820092152,5.246432706440924 12.475207273599379,5.503732620506676 13.768645847527365,2.484530219922118" style="fill:none;stroke:black;stroke-width:1"/>
<polygon points="14.988903452666193,3.2204998402816374 12.592350820092152,5.246432706440924 13.768645847527365,2.484530219922118" style="fill:none;stroke:black;stroke-width:1"/>
<polygon points="12.792282521535508,5.059926385588927 12.592350820092152,5.246432706440924 14.988903452666193,3.2204998402816374" style="fill:none;stroke:black;stroke-width:1"/>
<polygon points="19.454727367858634,19.598345883367035 18.4081940099785,19.515937011217115 19.514731653495353,15.556496262139424" style="fill:none;stroke:black;stroke-width:1"/>
<polygon points="19.30276791544726,17.792526574219508 17.89178488069653,20.58682767754872 19.514731653495353,15.556496262139424" style="fill:none;stroke:black;stroke-width:1"/>
<polygon points="17.89178488069653,20.58682767754872 16.86848715446568,20.223831388139757 19.514731653495353,15.556496262139424" style="fill:none;stroke:black;stroke-width:1"/>
<polygon points="15.745999602978602,25.087882190111966 15.93348136685933,25.17789397272746 13.63725049643176,24.088463020120166" style="fill:none;stroke:black;stroke-width:1"/>
<polygon points="15.479727605979186,24.77868351824958 15.59167309371308,24.951658506802353 13.63725049643176,24.088463020120166" style="fill:none;stroke:black;stroke-width:1"/>
<polygon points="15.59167309371308,24.951658506802353 15.745999602978602,25.087882190111966 13.63725049643176,24.088463020120166" style="fill:none;stroke:black;stroke-width:1"/>
<polygon points="15.745999602978602,25.087882190111966 15.59167309371308,24.951658506802353 15.585561602171728,23.992898059868423" style="fill:none;stroke:black;stroke-width:1"/>
<polygon points="15.478054641181025,24.165679982734154 12.015099780163673,20.662786901995858 15.585561602171728,23.992898059868423" style="fill:none;stroke:black;stroke-width:1"/>
<polygon points="15.478054641181025,24.165679982734154 15.419176183919147,24.36503935927229 12.015099780163673,20.662786901995858" style="fill:none;stroke:black;stroke-width:1"/>
<polygon points="15.419176183919147,24.36503935927229 15.478054641181025,24.165679982734154 15.479727605979186,24.77868351824958" style="fill:none;stroke:black;stroke-width:1"/>
<polygon points="15.59167309371308,24.951658506802353 15.478054641181025,24.165679982734154 15.585561602171728,23.992898059868423" style="fill:none;stroke:black;stroke-width:1"/>
<polygon points="15.478054641181025,24.165679982734154 15.59167309371308,24.951658506802353 15.479727605979186,24.77868351824958" style="fill:none;stroke:black;stroke-width:1"/>
<polygon points="15.419388906693342,24.5784178199046 15.479727605979186,24.77868351824958 12.015099780163673,20.662786901995858" style="fill:none;stroke:black;stroke-width:1"/>
<polygon points="15.419176183919147,24.36503935927229 15.419388906693342,24.5784178199046 12.015099780163673,20.662786901995858" style="fill:none;stroke:black;stroke-width:1"/>
<polygon points="15.419388906693342,24.5784178199046 15.419176183919147,24.36503935927229 15.479727605979186,24.77868351824958" style="fill:none;stroke:black;stroke-width:1"/>
<polygon points="17.758553377850756,23.460604776085084 17.923429733386467,25.03918710112353 17.564505581030076,23.486274134062857" style="fill:none;stroke:black;stroke-width:1"/>
<polygon points="17.957640180008443,23.438726933133992 17.758553377850756,23.460604776085084 15.304170961762326,18.979868650577124" style="fill:none;stroke:black;stroke-width:1"/>
<polygon points="18.107771315144088,25.010493715181994 17.758553377850756,23.460604776085084 17.957640180008443,23.438726933133992" style="fill:none;stroke:black;stroke-width:1"/>
<polygon points="17.923429733386467,25.03918710112353 17.758553377850756,23.460604776085084 18.107771315144088,25.010493715181994" style="fill:none;stroke:black;stroke-width:1"/>
<polygon points="18.476454478659342,24.953106943298916 18.3675725533123,23.408864477578778 18.66079606041697,24.92441355735738" style="fill:none;stroke:black;stroke-width:1"/>
<polygon points="18.160926425747505,23.421270276526315 18.3675725533123,23.408864477578778 18.476454478659342,24.953106943298916" style="fill:none;stroke:black;stroke-width:1"/>
<polygon points="15.34052573306844,21.03198006597679 18.3675725533123,23.408864477578778 15.136288179116896,19.98692478147862" style="fill:none;stroke:black;stroke-width:1"/>
<polygon points="18.3675725533123,23.408864477578778 18.160926425747505,23.421270276526315 15.136288179116896,19.98692478147862" style="fill:none;stroke:black;stroke-width:1"/>
<polygon points="15.903859610899975,21.92791087495808 16.746042510747472,22.582206493514672 18.997193840343066,23.434051881236737" style="fill:none;stroke:black;stroke-width:1"/>
<polygon points="16.746042510747472,22.582206493514672 17.788480425370928,22.917747817848184 18.997193840343066,23.434051881236737" style="fill:none;stroke:black;stroke-width:1"/>
<polygon points="19.1847211843306,23.523993638573952 18.930186387940545,22.864398037853203 19.92850831451569,22.438095376058378" style="fill:none;stroke:black;stroke-width:1"/>
<polygon points="17.788480425370928,22.917747817848184 18.930186387940545,22.864398037853203 19.1847211843306,23.523993638573952" style="fill:none;stroke:black;stroke-width:1"/>
<polygon points="17.758553377850756,23.460604776085084 15.789578175931364,18.149209931117504 15.304170961762326,18.979868650577124" style="fill:none;stroke:black;stroke-width:1"/>
<polygon points="15.789578175931364,18.149209931117504 17.758553377850756,23.460604776085084 17.564505581030076,23.486274134062857" style="fill:none;stroke:black;stroke-width:1"/>
<polygon points="17.376336351302033,23.51510533575059 15.789578175931364,18.149209931117504 17.564505581030076,23.486274134062857" style="fill:none;stroke:black;stroke-width:1"/>
<polygon points="16.53196608206414,17.57265359328025 15.789578175931364,18.149209931117504 17.376336351302033,23.51510533575059" style="fill:none;stroke:black;stroke-width:1"/>
<polygon points="16.97373855888744,25.174026480190832 16.770703494651364,25.191675692886573 16.638962354420677,23.62989968077461" style="fill:none;stroke:black;stroke-width:1"/>
<polygon points="16.823303936178306,23.60120629483307 16.97373855888744,25.174026480190832 16.638962354420677,23.62989968077461" style="fill:none;stroke:black;stroke-width:1"/>
<polygon points="16.97373855888744,25.174026480190832 16.823303936178306,23.60120629483307 17.172601385517513,25.151879920644987" style="fill:none;stroke:black;stroke-width:1"/>
<polygon points="16.97373855888744,25.174026480190832 17.172601385517513,25.151879920644987 16.878503206883856,24.95976373723277" style="fill:none;stroke:black;stroke-width:1"/>
<polygon points="16.770703494651364,25.191675692886573 16.97373855888744,25.174026480190832 16.878503206883856,24.95976373723277" style="fill:none;stroke:black;stroke-width:1"/>
<polygon points="13.095209169096641,19.982621684002044 12.943504379486486,15.584836126839994 14.153369642573098,14.378379921691568" style="fill:none;stroke:black;stroke-width:1"/>
<polygon points="13.20661660606152,19.987489752774636 13.095209169096641,19.982621684002044 14.153369642573098,14.378379921691568" style="fill:none;stroke:black;stroke-width:1"/>
<polygon points="12.467181326422294,21.794649952215625 12.560734803259582,21.848872144836847 12.015099780163673,20.662786901995858" style="fill:none;stroke:black;stroke-width:1"/>
<polygon points="16.331613713151267,7.0003499428594145 16.204211399867592,6.771359539825829 20.68098743136444,5.236328540988261" style="fill:none;stroke:black;stroke-width:1"/>
<polygon points="16.444559938448062,7.243355168590627 16.331613713151267,7.0003499428594145 20.68098743136444,5.236328540988261" style="fill:none;stroke:black;stroke-width:1"/>
<polygon points="16.61931687922554,7.769708812951818 16.54129407312291,7.500192688219664 20.68098743136444,5.236328540988261" style="fill:none;stroke:black;stroke-width:1"/>
<polygon points="16.67511611829921,8.049712663563216 16.61931687922554,7.769708812951818 20.68098743136444,5.236328540988261" style="fill:none;stroke:black;stroke-width:1"/>
<polygon points="15.585071738785107,5.9984432697857075 14.73776928085656,7.180833421907663 15.406637800592739,5.8369570266401976" style="fill:none;stroke:black;stroke-width:1"/>
<polygon points="14.73776928085656,7.180833421907663 14.553029213987255,7.023447899729142 15.406637800592739,5.8369570266401976" style="fill:none;stroke:black;stroke-width:1"/>
<polygon points="14.73776928085656,7.180833421907663 15.585071738785107,5.9984432697857075 15.752828540666298,6.1703025476699125" style="fill:none;stroke:black;stroke-width:1"/>
<polygon points="14.553029213987255,7.023447899729142 14.73776928085656,7.180833421907663 15.427380850543365,8.637980003146728" style="fill:none;stroke:black;stroke-width:1"/>
<polygon points="13.326237426101773,6.439998468798343 13.846981072776117,5.055265195637974 13.60360414237867,6.5268554271375425" style="fill:none;stroke:black;stroke-width:1"/>
<polygon points="13.846981072776117,5.055265195637974 13.326237426101773,6.439998468798343 13.586386042829615,5.001395448741485" style="fill:none;stroke:black;stroke-width:1"/>
<polygon points="14.115598774620588,6.747209163822372 13.326237426101773,6.439998468798343 13.60360414237867,6.5268554271375425" style="fill:none;stroke:black;stroke-width:1"/>
<polygon points="14.344889435046385,6.878840066846488 13.326237426101773,6.439998468798343 14.115598774620588,6.747209163822372" style="fill:none;stroke:black;stroke-width:1"/>
<polygon points="13.037586206896552,6.370689655172415 13.326237426101773,6.439998468798343 14.344889435046385,6.878840066846488" style="fill:none;stroke:black;stroke-width:1"/>
<polygon points="13.586386042829615,5.001395448741485 13.317991091342119,4.963971963789186 14.988903452666193,3.2204998402816374" style="fill:none;stroke:black;stroke-width:1"/>
<polygon points="13.326237426101773,6.439998468798343 13.317991091342119,4.963971963789186 13.586386042829615,5.001395448741485" style="fill:none;stroke:black;stroke-width:1"/>
<polygon points="13.317991091342119,4.963971963789186 13.326237426101773,6.439998468798343 13.037586206896552,6.370689655172415" style="fill:none;stroke:black;stroke-width:1"/>
<polygon points="18.337758949447476,16.72533912015673 20.092145049400298,18.95417318147316 19.514731653495353,15.556496262139424" style="fill:none;stroke:black;stroke-width:1"/>
<polygon points="20.092145049400298,18.95417318147316 19.454727367858634,19.598345883367035 19.514731653495353,15.556496262139424" style="fill:none;stroke:black;stroke-width:1"/>
<polygon points="18.632783861448026,17.336966593409162 19.30276791544726,17.792526574219508 19.514731653495353,15.556496262139424" style="fill:none;stroke:black;stroke-width:1"/>
<polygon points="17.87659046218655,17.728489261449077 18.632783861448026,17.336966593409162 19.514731653495353,15.556496262139424" style="fill:none;stroke:black;stroke-width:1"/>
<polygon points="18.4081940099785,19.515937011217115 17.738351007723466,18.700104361129906 19.514731653495353,15.556496262139424" style="fill:none;stroke:black;stroke-width:1"/>
<polygon points="17.738351007723466,18.700104361129906 17.87659046218655,17.728489261449077 19.514731653495353,15.556496262139424" style="fill:none;stroke:black;stroke-width:1"/>
<polygon points="16.252785733446867,18.590942944889452 16.588987810467568,19.25075580395338 17.480634121231606,14.354158139477098" style="fill:none;stroke:black;stroke-width:1"/>
<polygon points="15.634579693973546,18.673597557254393 16.252785733446867,18.590942944889452 17.480634121231606,14.354158139477098" style="fill:none;stroke:black;stroke-width:1"/>
<polygon points="16.86848715446568,20.223831388139757 16.083689757574067,19.554374361449014 17.480634121231606,14.354158139477098" style="fill:none;stroke:black;stroke-width:1"/>
<polygon points="16.083689757574067,19.554374361449014 15.634579693973546,18.673597557254393 17.480634121231606,14.354158139477098" style="fill:none;stroke:black;stroke-width:1"/>
<polygon points="16.35518100262171,25.211001414040645 16.144923819020555,25.21206896551724 16.0859376091478,23.715979838599225" style="fill:none;stroke:black;stroke-width:1"/>
<polygon points="16.144923819020555,25.21206896551724 15.899395351046858,23.76042048922376 16.0859376091478,23.715979838599225" style="fill:none;stroke:black;stroke-width:1"/>
<polygon points="16.144923819020555,25.21206896551724 16.35518100262171,25.211001414040645 13.63725049643176,24.088463020120166" style="fill:none;stroke:black;stroke-width:1"/>
<polygon points="15.93348136685933,25.17789397272746 16.144923819020555,25.21206896551724 13.63725049643176,24.088463020120166" style="fill:none;stroke:black;stroke-width:1"/>
<polygon points="16.144923819020555,25.21206896551724 15.93348136685933,25.17789397272746 15.745999602978602,25.087882190111966" style="fill:none;stroke:black;stroke-width:1"/>
<polygon points="18.3675725533123,23.408864477578778 18.576739000947196,23.40213920760811 18.66079606041697,24.92441355735738" style="fill:none;stroke:black;stroke-width:1"/>
<polygon points="18.8451376421746,24.89572017141584 18.576739000947196,23.40213920760811 18.787586206896552,23.401724137931033" style="fill:none;stroke:black;stroke-width:1"/>
<polygon points="18.576739000947196,23.40213920760811 18.8451376421746,24.89572017141584 18.66079606041697,24.92441355735738" style="fill:none;stroke:black;stroke-width:1"/>
<polygon points="18.576739000947196,23.40213920760811 15.34052573306844,21.03198006597679 18.787586206896552,23.401724137931033" style="fill:none;stroke:black;stroke-width:1"/>
<polygon points="18.576739000947196,23.40213920760811 18.3675725533123,23.408864477578778 15.34052573306844,21.03198006597679" style="fill:none;stroke:black;stroke-width:1"/>
<polygon points="13.314817827071504,20.004550917069714 13.20661660606152,19.987489752774636 14.153369642573098,14.378379921691568" style="fill:none;stroke:black;stroke-width:1"/>
<polygon points="16.230567983446097,15.567708369546937 13.610145264559044,20.126526538353566 14.153369642573098,14.378379921691568" style="fill:none;stroke:black;stroke-width:1"/>
<polygon points="13.610145264559044,20.126526538353566 13.516591787721755,20.07230434573235 14.153369642573098,14.378379921691568" style="fill:none;stroke:black;stroke-width:1"/>
<polygon points="12.540749623331681,20.156790538208654 12.441571725219475,20.23416402082551 12.943504379486486,15.584836126839994" style="fill:none;stroke:black;stroke-width:1"/>
<polygon points="12.441571725219475,20.23416402082551 12.351459062708857,20.3252608050296 12.943504379486486,15.584836126839994" style="fill:none;stroke:black;stroke-width:1"/>
<polygon points="12.272415426379068,20.4288726838475 12.206219143608905,20.543667500862444 12.943504379486486,15.584836126839994" style="fill:none;stroke:black;stroke-width:1"/>
<polygon points="12.351459062708857,20.3252608050296 12.272415426379068,20.4288726838475 12.943504379486486,15.584836126839994" style="fill:none;stroke:black;stroke-width:1"/>
<polygon points="12.302708748123543,21.642907413147014 12.380574187974178,21.725666039110056 12.015099780163673,20.662786901995858" style="fill:none;stroke:black;stroke-width:1"/>
<polygon points="12.380574187974178,21.725666039110056 12.467181326422294,21.794649952215625 12.015099780163673,20.662786901995858" style="fill:none;stroke:black;stroke-width:1"/>
<polygon points="16.144923819020555,25.21206896551724 15.728910804526748,23.85497917794158 15.899395351046858,23.76042048922376" style="fill:none;stroke:black;stroke-width:1"/>
<polygon points="15.728910804526748,23.85497917794158 15.745999602978602,25.087882190111966 15.585561602171728,23.992898059868423" style="fill:none;stroke:black;stroke-width:1"/>
<polygon points="15.728910804526748,23.85497917794158 16.144923819020555,25.21206896551724 15.745999602978602,25.087882190111966" style="fill:none;stroke:black;stroke-width:1"/>
<polygon points="12.560734803259582,21.848872144836847 12.659049556294143,21.88833396606678 15.585561602171728,23.992898059868423" style="fill:none;stroke:black;stroke-width:1"/>
<polygon points="12.659049556294143,21.88833396606678 15.728910804526748,23.85497917794158 15.585561602171728,23.992898059868423" style="fill:none;stroke:black;stroke-width:1"/>
<polygon points="15.728910804526748,23.85497917794158 12.659049556294143,21.88833396606678 12.762589172236012,21.91681142634897" style="fill:none;stroke:black;stroke-width:1"/>
<polygon points="13.209037272462538,21.90987104403703 16.270279190905427,23.687286452657688 16.0859376091478,23.715979838599225" style="fill:none;stroke:black;stroke-width:1"/>
<polygon points="15.913062752768008,6.35615331415517 14.902010969600365,7.353931343249387 15.752828540666298,6.1703025476699125" style="fill:none;stroke:black;stroke-width:1"/>
<polygon points="14.902010969600365,7.353931343249387 14.73776928085656,7.180833421907663 15.752828540666298,6.1703025476699125" style="fill:none;stroke:black;stroke-width:1"/>
<polygon points="14.73776928085656,7.180833421907663 14.902010969600365,7.353931343249387 15.427380850543365,8.637980003146728" style="fill:none;stroke:black;stroke-width:1"/>
<polygon points="13.04560857287441,4.962270645038103 13.037586206896552,6.370689655172415 12.792282521535508,5.059926385588927" style="fill:none;stroke:black;stroke-width:1"/>
<polygon points="13.04560857287441,4.962270645038103 13.317991091342119,4.963971963789186 13.037586206896552,6.370689655172415" style="fill:none;stroke:black;stroke-width:1"/>
<polygon points="13.04560857287441,4.962270645038103 12.792282521535508,5.059926385588927 14.988903452666193,3.2204998402816374" style="fill:none;stroke:black;stroke-width:1"/>
<polygon points="13.317991091342119,4.963971963789186 13.04560857287441,4.962270645038103 14.988903452666193,3.2204998402816374" style="fill:none;stroke:black;stroke-width:1"/>
<polygon points="13.516591787721755,20.07230434573235 13.418280620395485,20.032907978161855 14.153369642573098,14.378379921691568" style="fill:none;stroke:black;stroke-width:1"/>
<polygon points="13.418280620395485,20.032907978161855 13.314817827071504,20.004550917069714 14.153369642573098,14.378379921691568" style="fill:none;stroke:black;stroke-width:1"/>
<polygon points="13.69675240300716,20.19551045145914 16.230567983446097,15.567708369546937 13.774617842857795,20.27826907742218" style="fill:none;stroke:black;stroke-width:1"/>
<polygon points="13.69675240300716,20.19551045145914 13.610145264559044,20.126526538353566 16.230567983446097,15.567708369546937" style="fill:none;stroke:black;stroke-width:1"/>
<polygon points="12.646780816095006,20.09419733405553 12.540749623331681,20.156790538208654 12.943504379486486,15.584836126839994" style="fill:none;stroke:black;stroke-width:1"/>
<polygon points="12.756637777078629,20.046324616622215 12.646780816095006,20.09419733405553 12.943504379486486,15.584836126839994" style="fill:none;stroke:black;stroke-width:1"/>
<polygon points="12.868791662270555,20.01177377595855 12.756637777078629,20.046324616622215 12.943504379486486,15.584836126839994" style="fill:none;stroke:black;stroke-width:1"/>
<polygon points="12.17966895626344,21.441081238775215 12.235242505269774,21.54757831740376 11.9838387537144,17.939130948205413" style="fill:none;stroke:black;stroke-width:1"/>
<polygon points="12.137294043068781,21.32499478991783 12.17966895626344,21.441081238775215 11.9838387537144,17.939130948205413" style="fill:none;stroke:black;stroke-width:1"/>
<polygon points="12.09630582728608,21.071097101973393 12.109215557278805,21.201048813584983 11.9838387537144,17.939130948205413" style="fill:none;stroke:black;stroke-width:1"/>
<polygon points="12.109215557278805,21.201048813584983 12.137294043068781,21.32499478991783 11.9838387537144,17.939130948205413" style="fill:none;stroke:black;stroke-width:1"/>
<polygon points="12.206219143608905,20.543667500862444 12.154409321436866,20.668218385624662 11.9838387537144,17.939130948205413" style="fill:none;stroke:black;stroke-width:1"/>
<polygon points="12.154409321436866,20.668218385624662 12.118275862068966,20.80103448275862 11.9838387537144,17.939130948205413" style="fill:none;stroke:black;stroke-width:1"/>
<polygon points="12.099197961142872,20.937088161312776 12.09630582728608,21.071097101973393 11.9838387537144,17.939130948205413" style="fill:none;stroke:black;stroke-width:1"/>
<polygon points="12.118275862068966,20.80103448275862 12.099197961142872,20.937088161312776 11.9838387537144,17.939130948205413" style="fill:none;stroke:black;stroke-width:1"/>
<polygon points="15.899395351046858,23.76042048922376 13.095594681473331,21.93101693971075 16.0859376091478,23.715979838599225" style="fill:none;stroke:black;stroke-width:1"/>
<polygon points="13.095594681473331,21.93101693971075 13.209037272462538,21.90987104403703 16.0859376091478,23.715979838599225" style="fill:none;stroke:black;stroke-width:1"/>
<polygon points="16.270279190905427,23.687286452657688 13.321325302749361,21.875341042471764 16.454620772663052,23.658593066716147" style="fill:none;stroke:black;stroke-width:1"/>
<polygon points="13.209037272462538,21.90987104403703 13.321325302749361,21.875341042471764 16.270279190905427,23.687286452657688" style="fill:none;stroke:black;stroke-width:1"/>
<polygon points="16.454620772663052,23.658593066716147 13.321325302749361,21.875341042471764 16.638962354420677,23.62989968077461" style="fill:none;stroke:black;stroke-width:1"/>
<polygon points="15.046354291208578,7.54114197424288 15.913062752768008,6.35615331415517 16.06410905945414,6.556566487565779" style="fill:none;stroke:black;stroke-width:1"/>
<polygon points="15.046354291208578,7.54114197424288 14.902010969600365,7.353931343249387 15.913062752768008,6.35615331415517" style="fill:none;stroke:black;stroke-width:1"/>
<polygon points="15.046354291208578,7.54114197424288 16.06410905945414,6.556566487565779 16.204211399867592,6.771359539825829" style="fill:none;stroke:black;stroke-width:1"/>
<polygon points="14.902010969600365,7.353931343249387 15.046354291208578,7.54114197424288 15.427380850543365,8.637980003146728" style="fill:none;stroke:black;stroke-width:1"/>
<polygon points="13.095209169096641,19.982621684002044 12.982111572660264,19.990587129168098 12.943504379486486,15.584836126839994" style="fill:none;stroke:black;stroke-width:1"/>
<polygon points="12.982111572660264,19.990587129168098 12.868791662270555,20.01177377595855 12.943504379486486,15.584836126839994" style="fill:none;stroke:black;stroke-width:1"/>
<polygon points="15.728910804526748,23.85497917794158 12.870878680359292,21.933973077815768 15.899395351046858,23.76042048922376" style="fill:none;stroke:black;stroke-width:1"/>
<polygon points="12.870878680359292,21.933973077815768 15.728910804526748,23.85497917794158 12.762589172236012,21.91681142634897" style="fill:none;stroke:black;stroke-width:1"/>
<polygon points="13.431220684143174,21.827578863226396 16.823303936178306,23.60120629483307 16.638962354420677,23.62989968077461" style="fill:none;stroke:black;stroke-width:1"/>
<polygon points="13.321325302749361,21.875341042471764 13.431220684143174,21.827578863226396 16.638962354420677,23.62989968077461" style="fill:none;stroke:black;stroke-width:1"/>
<polygon points="16.823303936178306,23.60120629483307 13.431220684143174,21.827578863226396 17.00764551793593,23.572512908891532" style="fill:none;stroke:black;stroke-width:1"/>
<polygon points="16.331613713151267,7.0003499428594145 15.169593115919124,7.741010864292707 16.204211399867592,6.771359539825829" style="fill:none;stroke:black;stroke-width:1"/>
<polygon points="15.169593115919124,7.741010864292707 15.046354291208578,7.54114197424288 16.204211399867592,6.771359539825829" style="fill:none;stroke:black;stroke-width:1"/>
<polygon points="15.046354291208578,7.54114197424288 15.169593115919124,7.741010864292707 15.427380850543365,8.637980003146728" style="fill:none;stroke:black;stroke-width:1"/>
<polygon points="12.982385868932864,21.938921721741746 13.095594681473331,21.93101693971075 15.899395351046858,23.76042048922376" style="fill:none;stroke:black;stroke-width:1"/>
<polygon points="12.870878680359292,21.933973077815768 12.982385868932864,21.938921721741746 15.899395351046858,23.76042048922376" style="fill:none;stroke:black;stroke-width:1"/>
<polygon points="13.536916137902823,21.765267208180035 17.376336351302033,23.51510533575059 17.191987099693556,23.543819522949995" style="fill:none;stroke:black;stroke-width:1"/>
<polygon points="17.376336351302033,23.51510533575059 13.536916137902823,21.765267208180035 13.63581935195402,21.6879713789639" style="fill:none;stroke:black;stroke-width:1"/>
<polygon points="17.00764551793593,23.572512908891532 13.536916137902823,21.765267208180035 17.191987099693556,23.543819522949995" style="fill:none;stroke:black;stroke-width:1"/>
<polygon points="13.431220684143174,21.827578863226396 13.536916137902823,21.765267208180035 17.00764551793593,23.572512908891532" style="fill:none;stroke:black;stroke-width:1"/>
<polygon points="15.270521313969942,7.952083562803438 16.331613713151267,7.0003499428594145 16.444559938448062,7.243355168590627" style="fill:none;stroke:black;stroke-width:1"/>
<polygon points="15.270521313969942,7.952083562803438 15.169593115919124,7.741010864292707 16.331613713151267,7.0003499428594145" style="fill:none;stroke:black;stroke-width:1"/>
<polygon points="15.270521313969942,7.952083562803438 16.444559938448062,7.243355168590627 16.54129407312291,7.500192688219664" style="fill:none;stroke:black;stroke-width:1"/>
<polygon points="15.169593115919124,7.741010864292707 15.40062131104413,8.402022582825882 15.427380850543365,8.637980003146728" style="fill:none;stroke:black;stroke-width:1"/>
<polygon points="15.270521313969942,7.952083562803438 15.40062131104413,8.402022582825882 15.169593115919124,7.741010864292707" style="fill:none;stroke:black;stroke-width:1"/>
<polygon points="15.40062131104413,8.402022582825882 16.67511611829921,8.049712663563216 15.427380850543365,8.637980003146728" style="fill:none;stroke:black;stroke-width:1"/>
<polygon points="15.40062131104413,8.402022582825882 16.61931687922554,7.769708812951818 16.67511611829921,8.049712663563216" style="fill:none;stroke:black;stroke-width:1"/>
<polygon points="16.61931687922554,7.769708812951818 15.347932755598967,8.172905619179641 16.54129407312291,7.500192688219664" style="fill:none;stroke:black;stroke-width:1"/>
<polygon points="15.40062131104413,8.402022582825882 15.347932755598967,8.172905619179641 16.61931687922554,7.769708812951818" style="fill:none;stroke:black;stroke-width:1"/>
<polygon points="15.347932755598967,8.172905619179641 15.270521313969942,7.952083562803438 16.54129407312291,7.500192688219664" style="fill:none;stroke:black;stroke-width:1"/>
<polygon points="15.347932755598967,8.172905619179641 15.40062131104413,8.402022582825882 15.270521313969942,7.952083562803438" style="fill:none;stroke:black;stroke-width:1"/>
<polygon points="13.981020763695257,20.850079388595802 18.923326083672023,20.61613067858254 13.978128629838464,20.984088329256416" style="fill:none;stroke:black;stroke-width:1"/>
<polygon points="13.978128629838464,20.984088329256416 18.923326083672023,20.61613067858254 18.137761828041363,21.312761162634153" style="fill:none;stroke:black;stroke-width:1"/>
<polygon points="13.871117114372602,21.377932445102495 19.07793117899512,17.895792722115967 18.353393078469672,17.455325311189455" style="fill:none;stroke:black;stroke-width:1"/>
<polygon points="13.871117114372602,21.377932445102495 18.353393078469672,17.455325311189455 13.804770608834422,21.492988319709085" style="fill:none;stroke:black;stroke-width:1"/>
<polygon points="19.56037049164713,18.574709171283832 13.871117114372602,21.377932445102495 13.923333986661282,21.253103171232183" style="fill:none;stroke:black;stroke-width:1"/>
<polygon points="13.871117114372602,21.377932445102495 19.56037049164713,18.574709171283832 19.07793117899512,17.895792722115967" style="fill:none;stroke:black;stroke-width:1"/>
<polygon points="17.462918932870856,17.328004291230734 13.725758675679797,21.596793848475464 13.804770608834422,21.492988319709085" style="fill:none;stroke:black;stroke-width:1"/>
<polygon points="18.353393078469672,17.455325311189455 17.462918932870856,17.328004291230734 13.804770608834422,21.492988319709085" style="fill:none;stroke:black;stroke-width:1"/>
<polygon points="13.725758675679797,21.596793848475464 17.462918932870856,17.328004291230734 13.63581935195402,21.6879713789639" style="fill:none;stroke:black;stroke-width:1"/>
<polygon points="17.462918932870856,17.328004291230734 16.53196608206414,17.57265359328025 13.63581935195402,21.6879713789639" style="fill:none;stroke:black;stroke-width:1"/>
<polygon points="18.930186387940545,22.864398037853203 19.723103448275864,19.414827586206897 19.92850831451569,22.438095376058378" style="fill:none;stroke:black;stroke-width:1"/>
<polygon points="19.723103448275864,19.414827586206897 15.136288179116896,19.98692478147862 15.304170961762326,18.979868650577124" style="fill:none;stroke:black;stroke-width:1"/>
<polygon points="18.629279471587463,19.151328726412743 19.723103448275864,19.414827586206897 19.22460565464109,19.083693008014496" style="fill:none;stroke:black;stroke-width:1"/>
<polygon points="19.723103448275864,19.414827586206897 15.34052573306844,21.03198006597679 15.136288179116896,19.98692478147862" style="fill:none;stroke:black;stroke-width:1"/>
<polygon points="19.723103448275864,19.414827586206897 20.142136215263804,18.85502773352685 20.546735991900043,19.802658647082684" style="fill:none;stroke:black;stroke-width:1"/>
<polygon points="19.723103448275864,19.414827586206897 20.99948671188537,19.027507412715966 20.30278359240195,18.381834773879145" style="fill:none;stroke:black;stroke-width:1"/>
<polygon points="19.723103448275864,19.414827586206897 18.337758949447476,16.72533912015673 17.58738317214819,17.35299492570596" style="fill:none;stroke:black;stroke-width:1"/>
<polygon points="19.340744723210157,18.02882935083335 19.723103448275864,19.414827586206897 20.30278359240195,18.381834773879145" style="fill:none;stroke:black;stroke-width:1"/>
<polygon points="19.723103448275864,19.414827586206897 17.462918932870856,17.328004291230734 18.353393078469672,17.455325311189455" style="fill:none;stroke:black;stroke-width:1"/>
<polygon points="21.256085523040106,19.76346746805137 19.723103448275864,19.414827586206897 20.546735991900043,19.802658647082684" style="fill:none;stroke:black;stroke-width:1"/>
<polygon points="19.328969221863968,18.316084502466804 19.723103448275864,19.414827586206897 18.433704356231104,18.467673483655684" style="fill:none;stroke:black;stroke-width:1"/>
<polygon points="17.099953398151047,18.269154834761242 19.723103448275864,19.414827586206897 17.58738317214819,17.35299492570596" style="fill:none;stroke:black;stroke-width:1"/>
<polygon points="19.723103448275864,19.414827586206897 17.960244821780186,19.151821594416617 18.433704356231104,18.467673483655684" style="fill:none;stroke:black;stroke-width:1"/>
<polygon points="19.723103448275864,19.414827586206897 17.89178488069653,20.58682767754872 19.30276791544726,17.792526574219508" style="fill:none;stroke:black;stroke-width:1"/>
<polygon points="19.723103448275864,19.414827586206897 16.746042510747472,22.582206493514672 15.903859610899975,21.92791087495808" style="fill:none;stroke:black;stroke-width:1"/>
<polygon points="19.723103448275864,19.414827586206897 17.266289059123864,19.851301079718695 16.588987810467568,19.25075580395338" style="fill:none;stroke:black;stroke-width:1"/>
<polygon points="19.723103448275864,19.414827586206897 19.430426896017025,19.658310671043683 19.22460565464109,19.083693008014496" style="fill:none;stroke:black;stroke-width:1"/>
<polygon points="18.923326083672023,20.61613067858254 19.723103448275864,19.414827586206897 18.137761828041363,21.312761162634153" style="fill:none;stroke:black;stroke-width:1"/>
<polygon points="19.723103448275864,19.414827586206897 20.691914244497912,21.7142259278894 19.92850831451569,22.438095376058378" style="fill:none;stroke:black;stroke-width:1"/>
<polygon points="20.142136215263804,18.85502773352685 19.723103448275864,19.414827586206897 19.328969221863968,18.316084502466804" style="fill:none;stroke:black;stroke-width:1"/>
<polygon points="19.723103448275864,19.414827586206897 17.099953398151047,18.269154834761242 17.14871457763773,19.096417547065386" style="fill:none;stroke:black;stroke-width:1"/>
<polygon points="17.960244821780186,19.151821594416617 19.723103448275864,19.414827586206897 17.14871457763773,19.096417547065386" style="fill:none;stroke:black;stroke-width:1"/>
<polygon points="15.789578175931364,18.149209931117504 19.723103448275864,19.414827586206897 15.304170961762326,18.979868650577124" style="fill:none;stroke:black;stroke-width:1"/>
<polygon points="19.723103448275864,19.414827586206897 20.092145049400298,18.95417318147316 18.337758949447476,16.72533912015673" style="fill:none;stroke:black;stroke-width:1"/>
<polygon points="15.34052573306844,21.03198006597679 19.723103448275864,19.414827586206897 15.903859610899975,21.92791087495808" style="fill:none;stroke:black;stroke-width:1"/>
<polygon points="19.723103448275864,19.414827586206897 17.738351007723466,18.700104361129906 18.4081940099785,19.515937011217115" style="fill:none;stroke:black;stroke-width:1"/>
<polygon points="19.07793117899512,17.895792722115967 19.723103448275864,19.414827586206897 18.353393078469672,17.455325311189455" style="fill:none;stroke:black;stroke-width:1"/>
<polygon points="19.56037049164713,18.574709171283832 19.723103448275864,19.414827586206897 19.07793117899512,17.895792722115967" style="fill:none;stroke:black;stroke-width:1"/>
<polygon points="17.266289059123864,19.851301079718695 19.723103448275864,19.414827586206897 18.12770953252639,19.788618707084826" style="fill:none;stroke:black;stroke-width:1"/>
<polygon points="19.723103448275864,19.414827586206897 18.629279471587463,19.151328726412743 18.12770953252639,19.788618707084826" style="fill:none;stroke:black;stroke-width:1"/>
<polygon points="19.723103448275864,19.414827586206897 18.923326083672023,20.61613067858254 19.430426896017025,19.658310671043683" style="fill:none;stroke:black;stroke-width:1"/>
<polygon points="20.99948671188537,19.027507412715966 19.723103448275864,19.414827586206897 21.256085523040106,19.76346746805137" style="fill:none;stroke:black;stroke-width:1"/>
<polygon points="20.691914244497912,21.7142259278894 19.723103448275864,19.414827586206897 21.156382526995483,20.76960168767151" style="fill:none;stroke:black;stroke-width:1"/>
<polygon points="19.723103448275864,19.414827586206897 19.340744723210157,18.02882935083335 21.156382526995483,20.76960168767151" style="fill:none;stroke:black;stroke-width:1"/>
<polygon points="19.454727367858634,19.598345883367035 19.723103448275864,19.414827586206897 18.4081940099785,19.515937011217115" style="fill:none;stroke:black;stroke-width:1"/>
<polygon points="18.632783861448026,17.336966593409162 19.723103448275864,19.414827586206897 19.30276791544726,17.792526574219508" style="fill:none;stroke:black;stroke-width:1"/>
<polygon points="17.89178488069653,20.58682767754872 19.723103448275864,19.414827586206897 16.86848715446568,20.223831388139757" style="fill:none;stroke:black;stroke-width:1"/>
<polygon points="16.252785733446867,18.590942944889452 19.723103448275864,19.414827586206897 16.588987810467568,19.25075580395338" style="fill:none;stroke:black;stroke-width:1"/>
<polygon points="16.746042510747472,22.582206493514672 19.723103448275864,19.414827586206897 17.788480425370928,22.917747817848184" style="fill:none;stroke:black;stroke-width:1"/>
<polygon points="19.723103448275864,19.414827586206897 18.930186387940545,22.864398037853203 17.788480425370928,22.917747817848184" style="fill:none;stroke:black;stroke-width:1"/>
<polygon points="19.723103448275864,19.414827586206897 16.083689757574067,19.554374361449014 16.86848715446568,20.223831388139757" style="fill:none;stroke:black;stroke-width:1"/>
<polygon points="17.462918932870856,17.328004291230734 19.723103448275864,19.414827586206897 16.53196608206414,17.57265359328025" style="fill:none;stroke:black;stroke-width:1"/>
<polygon points="19.723103448275864,19.414827586206897 15.789578175931364,18.149209931117504 16.53196608206414,17.57265359328025" style="fill:none;stroke:black;stroke-width:1"/>
<polygon points="20.092145049400298,18.95417318147316 19.723103448275864,19.414827586206897 19.454727367858634,19.598345883367035" style="fill:none;stroke:black;stroke-width:1"/>
<polygon points="19.723103448275864,19.414827586206897 18.632783861448026,17.336966593409162 17.87659046218655,17.728489261449077" style="fill:none;stroke:black;stroke-width:1"/>
<polygon points="17.738351007723466,18.700104361129906 19.723103448275864,19.414827586206897 17.87659046218655,17.728489261449077" style="fill:none;stroke:black;stroke-width:1"/>
<polygon points="19.723103448275864,19.414827586206897 16.252785733446867,18.590942944889452 15.634579693973546,18.673597557254393" style="fill:none;stroke:black;stroke-width:1"/>
<polygon points="16.083689757574067,19.554374361449014 19.723103448275864,19.414827586206897 15.634579693973546,18.673597557254393" style="fill:none;stroke:black;stroke-width:1"/>
<polygon points="19.723103448275864,19.414827586206897 13.959112160499505,21.12021181512861 13.978128629838464,20.984088329256416" style="fill:none;stroke:black;stroke-width:1"/>
<polygon points="19.723103448275864,19.414827586206897 13.978128629838464,20.984088329256416 18.137761828041363,21.312761162634153" style="fill:none;stroke:black;stroke-width:1"/>
<polygon points="13.959112160499505,21.12021181512861 19.723103448275864,19.414827586206897 13.923333986661282,21.253103171232183" style="fill:none;stroke:black;stroke-width:1"/>
<polygon points="19.723103448275864,19.414827586206897 19.56037049164713,18.574709171283832 13.923333986661282,21.253103171232183" style="fill:none;stroke:black;stroke-width:1"/>
<polygon points="13.536916137902823,21.765267208180035 13.774617842857795,20.27826907742218 13.842084085711564,20.373598173165433" style="fill:none;stroke:black;stroke-width:1"/>
<polygon points="13.897657634717898,20.480095251793983 13.536916137902823,21.765267208180035 13.842084085711564,20.373598173165433" style="fill:none;stroke:black;stroke-width:1"/>
<polygon points="13.536916137902823,21.765267208180035 12.109215557278805,21.201048813584983 12.09630582728608,21.071097101973393" style="fill:none;stroke:black;stroke-width:1"/>
<polygon points="13.536916137902823,21.765267208180035 13.725758675679797,21.596793848475464 13.63581935195402,21.6879713789639" style="fill:none;stroke:black;stroke-width:1"/>
<polygon points="13.536916137902823,21.765267208180035 13.940032547912557,20.596181700651368 13.968111033702533,20.720127676984212" style="fill:none;stroke:black;stroke-width:1"/>
<polygon points="13.981020763695257,20.850079388595802 13.536916137902823,21.765267208180035 13.968111033702533,20.720127676984212" style="fill:none;stroke:black;stroke-width:1"/>
<polygon points="13.536916137902823,21.765267208180035 13.69675240300716,20.19551045145914 13.774617842857795,20.27826907742218" style="fill:none;stroke:black;stroke-width:1"/>
<polygon points="13.536916137902823,21.765267208180035 13.959112160499505,21.12021181512861 13.923333986661282,21.253103171232183" style="fill:none;stroke:black;stroke-width:1"/>
<polygon points="13.725758675679797,21.596793848475464 13.536916137902823,21.765267208180035 13.804770608834422,21.492988319709085" style="fill:none;stroke:black;stroke-width:1"/>
<polygon points="13.871117114372602,21.377932445102495 13.536916137902823,21.765267208180035 13.923333986661282,21.253103171232183" style="fill:none;stroke:black;stroke-width:1"/>
<polygon points="13.536916137902823,21.765267208180035 12.302708748123543,21.642907413147014 12.235242505269774,21.54757831740376" style="fill:none;stroke:black;stroke-width:1"/>
<polygon points="13.940032547912557,20.596181700651368 13.536916137902823,21.765267208180035 13.897657634717898,20.480095251793983" style="fill:none;stroke:black;stroke-width:1"/>
<polygon points="13.959112160499505,21.12021181512861 13.536916137902823,21.765267208180035 13.978128629838464,20.984088329256416" style="fill:none;stroke:black;stroke-width:1"/>
<polygon points="13.536916137902823,21.765267208180035 13.981020763695257,20.850079388595802 13.978128629838464,20.984088329256416" style="fill:none;stroke:black;stroke-width:1"/>
<polygon points="13.314817827071504,20.004550917069714 13.536916137902823,21.765267208180035 13.20661660606152,19.987489752774636" style="fill:none;stroke:black;stroke-width:1"/>
<polygon points="13.536916137902823,21.765267208180035 13.418280620395485,20.032907978161855 13.516591787721755,20.07230434573235" style="fill:none;stroke:black;stroke-width:1"/>
<polygon points="12.272415426379068,20.4288726838475 13.536916137902823,21.765267208180035 12.206219143608905,20.543667500862444" style="fill:none;stroke:black;stroke-width:1"/>
<polygon points="13.536916137902823,21.765267208180035 13.871117114372602,21.377932445102495 13.804770608834422,21.492988319709085" style="fill:none;stroke:black;stroke-width:1"/>
<polygon points="13.536916137902823,21.765267208180035 12.659049556294143,21.88833396606678 12.560734803259582,21.848872144836847" style="fill:none;stroke:black;stroke-width:1"/>
<polygon points="13.536916137902823,21.765267208180035 13.095209169096641,19.982621684002044 13.20661660606152,19.987489752774636" style="fill:none;stroke:black;stroke-width:1"/>
<polygon points="13.536916137902823,21.765267208180035 12.441571725219475,20.23416402082551 12.540749623331681,20.156790538208654" style="fill:none;stroke:black;stroke-width:1"/>
<polygon points="13.536916137902823,21.765267208180035 12.870878680359292,21.933973077815768 12.762589172236012,21.91681142634897" style="fill:none;stroke:black;stroke-width:1"/>
<polygon points="12.467181326422294,21.794649952215625 13.536916137902823,21.765267208180035 12.560734803259582,21.848872144836847" style="fill:none;stroke:black;stroke-width:1"/>
<polygon points="13.536916137902823,21.765267208180035 12.380574187974178,21.725666039110056 12.302708748123543,21.642907413147014" style="fill:none;stroke:black;stroke-width:1"/>
<polygon points="13.536916137902823,21.765267208180035 12.982111572660264,19.990587129168098 13.095209169096641,19.982621684002044" style="fill:none;stroke:black;stroke-width:1"/>
<polygon points="13.610145264559044,20.126526538353566 13.536916137902823,21.765267208180035 13.516591787721755,20.07230434573235" style="fill:none;stroke:black;stroke-width:1"/>
<polygon points="12.646780816095006,20.09419733405553 13.536916137902823,21.765267208180035 12.540749623331681,20.156790538208654" style="fill:none;stroke:black;stroke-width:1"/>
<polygon points="12.441571725219475,20.23416402082551 13.536916137902823,21.765267208180035 12.351459062708857,20.3252608050296" style="fill:none;stroke:black;stroke-width:1"/>
<polygon points="13.536916137902823,21.765267208180035 12.272415426379068,20.4288726838475 12.351459062708857,20.3252608050296" style="fill:none;stroke:black;stroke-width:1"/>
<polygon points="12.17966895626344,21.441081238775215 13.536916137902823,21.765267208180035 12.235242505269774,21.54757831740376" style="fill:none;stroke:black;stroke-width:1"/>
<polygon points="13.536916137902823,21.765267208180035 12.154409321436866,20.668218385624662 12.206219143608905,20.543667500862444" style="fill:none;stroke:black;stroke-width:1"/>
<polygon points="12.380574187974178,21.725666039110056 13.536916137902823,21.765267208180035 12.467181326422294,21.794649952215625" style="fill:none;stroke:black;stroke-width:1"/>
<polygon points="12.659049556294143,21.88833396606678 13.536916137902823,21.765267208180035 12.762589172236012,21.91681142634897" style="fill:none;stroke:black;stroke-width:1"/>
<polygon points="12.099197961142872,20.937088161312776 13.536916137902823,21.765267208180035 12.09630582728608,21.071097101973393" style="fill:none;stroke:black;stroke-width:1"/>
<polygon points="13.418280620395485,20.032907978161855 13.536916137902823,21.765267208180035 13.314817827071504,20.004550917069714" style="fill:none;stroke:black;stroke-width:1"/>
<polygon points="13.69675240300716,20.19551045145914 13.536916137902823,21.765267208180035 13.610145264559044,20.126526538353566" style="fill:none;stroke:black;stroke-width:1"/>
<polygon points="13.536916137902823,21.765267208180035 12.646780816095006,20.09419733405553 12.756637777078629,20.046324616622215" style="fill:none;stroke:black;stroke-width:1"/>
<polygon points="12.868791662270555,20.01177377595855 13.536916137902823,21.765267208180035 12.756637777078629,20.046324616622215" style="fill:none;stroke:black;stroke-width:1"/>
<polygon points="13.536916137902823,21.765267208180035 12.17966895626344,21.441081238775215 12.137294043068781,21.32499478991783" style="fill:none;stroke:black;stroke-width:1"/>
<polygon points="12.109215557278805,21.201048813584983 13.536916137902823,21.765267208180035 12.137294043068781,21.32499478991783" style="fill:none;stroke:black;stroke-width:1"/>
<polygon points="12.154409321436866,20.668218385624662 13.536916137902823,21.765267208180035 12.118275862068966,20.80103448275862" style="fill:none;stroke:black;stroke-width:1"/>
<polygon points="13.536916137902823,21.765267208180035 12.099197961142872,20.937088161312776 12.118275862068966,20.80103448275862" style="fill:none;stroke:black;stroke-width:1"/>
<polygon points="13.095594681473331,21.93101693971075 13.536916137902823,21.765267208180035 13.209037272462538,21.90987104403703" style="fill:none;stroke:black;stroke-width:1"/>
<polygon points="13.536916137902823,21.765267208180035 13.321325302749361,21.875341042471764 13.209037272462538,21.90987104403703" style="fill:none;stroke:black;stroke-width:1"/>
<polygon points="12.982111572660264,19.990587129168098 13.536916137902823,21.765267208180035 12.868791662270555,20.01177377595855" style="fill:none;stroke:black;stroke-width:1"/>
<polygon points="12.982385868932864,21.938921721741746 13.536916137902823,21.765267208180035 13.095594681473331,21.93101693971075" style="fill:none;stroke:black;stroke-width:1"/>
<polygon points="13.536916137902823,21.765267208180035 13.431220684143174,21.827578863226396 13.321325302749361,21.875341042471764" style="fill:none;stroke:black;stroke-width:1"/>
<polygon points="13.536916137902823,21.765267208180035 12.982385868932864,21.938921721741746 12.870878680359292,21.933973077815768" style="fill:none;stroke:black;stroke-width:1"/>
</svg>
