<?xml version="1.0" encoding="UTF-8" standalone="no"?>
<svg xmlns="http://www.w3.org/2000/svg" version="1.1" width="800" height="800">
<polygon points="14.915416869624863,24.677616744074506 17.080158446086728,23.246828338060297 18.18723073094752,24.834313560703308" style="fill:none;stroke:black;stroke-width:1"/>
<polygon points="14.451315815385989,13.517731890368193 11.84332293157945,13.113889768349532 12.651114952711106,10.932710090397604" style="fill:none;stroke:black;stroke-width:1"/>
<polygon points="23.020836681345664,6.517373871530664 22.658371218541472,4.3912911038092375 24.69085650507749,6.515092228901665" style="fill:none;stroke:black;stroke-width:1"/>
<polygon points="18.108272276954814,4.06595160511152 13.736809909143943,5.60118457325429 17.272031561618384,2.286967916266788" style="fill:none;stroke:black;stroke-width:1"/>
<polygon points="10.858476650584915,9.764449399133788 10.990689655172414,11.16655172413793 9.131043293455775,8.70528441489223" style="fill:none;stroke:black;stroke-width:1"/>
<polygon points="11.84332293157945,13.113889768349532 10.990689655172414,11.16655172413793 12.651114952711106,10.932710090397604" style="fill:none;stroke:black;stroke-width:1"/>
<polygon points="10.990689655172414,11.16655172413793 10.858476650584915,9.764449399133788 12.651114952711106,10.932710090397604" style="fill:none;stroke:black;stroke-width:1"/>
<polygon points="9.384371719314007,5.759905782026016 10.003714824740854,7.092584702934085 9.131043293455775,8.70528441489223" style="fill:none;stroke:black;stroke-width:1"/>
<polygon points="10.003714824740854,7.092584702934085 10.858476650584915,9.764449399133788 9.131043293455775,8.70528441489223" style="fill:none;stroke:black;stroke-width:1"/>
<polygon points="11.732572264640382,4.072122062163174 10.003714824740854,7.092584702934085 9.384371719314007,5.759905782026016" style="fill:none;stroke:black;stroke-width:1"/>
<polygon points="20.77348235947343,23.48087132026878 19.82523898576135,22.209104721305224 22.234920327920722,20.04970389597517" style="fill:none;stroke:black;stroke-width:1"/>
<polygon points="19.82523898576135,22.209104721305224 20.77348235947343,23.48087132026878 18.18723073094752,24.834313560703308" style="fill:none;stroke:black;stroke-width:1"/>
<polygon points="17.080158446086728,23.246828338060297 19.82523898576135,22.209104721305224 18.18723073094752,24.834313560703308" style="fill:none;stroke:black;stroke-width:1"/>
<polygon points="20.70564444449729,18.87417943547509 22.277152598005053,17.71080511200229 22.234920327920722,20.04970389597517" style="fill:none;stroke:black;stroke-width:1"/>
<polygon points="19.82523898576135,22.209104721305224 20.70564444449729,18.87417943547509 22.234920327920722,20.04970389597517" style="fill:none;stroke:black;stroke-width:1"/>
<polygon points="15.689002673455024,10.973239170264797 14.451315815385989,13.517731890368193 12.651114952711106,10.932710090397604" style="fill:none;stroke:black;stroke-width:1"/>
<polygon points="14.451315815385989,13.517731890368193 15.689002673455024,10.973239170264797 17.509236844698922,13.483821395267936" style="fill:none;stroke:black;stroke-width:1"/>
<polygon points="23.020836681345664,6.517373871530664 20.464382633023,5.239879130436371 22.658371218541472,4.3912911038092375" style="fill:none;stroke:black;stroke-width:1"/>
<polygon points="17.272031561618384,2.286967916266788 15.230633357784342,3.3684723134212495 14.269469936923112,2.7034405506106585" style="fill:none;stroke:black;stroke-width:1"/>
<polygon points="12.844493619218188,5.098127344455059 10.003714824740854,7.092584702934085 11.732572264640382,4.072122062163174" style="fill:none;stroke:black;stroke-width:1"/>
<polygon points="10.003714824740854,7.092584702934085 12.844493619218188,5.098127344455059 10.858476650584915,9.764449399133788" style="fill:none;stroke:black;stroke-width:1"/>
<polygon points="12.844493619218188,5.098127344455059 11.732572264640382,4.072122062163174 14.269469936923112,2.7034405506106585" style="fill:none;stroke:black;stroke-width:1"/>
<polygon points="24.431307886598027,9.533616283224804 23.020836681345664,6.517373871530664 24.69085650507749,6.515092228901665" style="fill:none;stroke:black;stroke-width:1"/>
<polygon points="22.277152598005053,17.71080511200229 24.431307886598027,9.533616283224804 22.234920327920722,20.04970389597517" style="fill:none;stroke:black;stroke-width:1"/>
<polygon points="24.431307886598027,9.533616283224804 22.277152598005053,17.71080511200229 22.652635282129264,14.818712472602698" style="fill:none;stroke:black;stroke-width:1"/>
<polygon points="11.019093363288293,14.233457915673567 10.990689655172414,11.16655172413793 11.84332293157945,13.113889768349532" style="fill:none;stroke:black;stroke-width:1"/>
<polygon points="10.990689655172414,11.16655172413793 11.019093363288293,14.233457915673567 9.131043293455775,8.70528441489223" style="fill:none;stroke:black;stroke-width:1"/>
<polygon points="20.575166682976047,13.45541434084161 19.43875740055334,14.567094766995194 17.509236844698922,13.483821395267936" style="fill:none;stroke:black;stroke-width:1"/>
<polygon points="20.70564444449729,18.87417943547509 20.745774684483518,16.248142956820683 22.277152598005053,17.71080511200229" style="fill:none;stroke:black;stroke-width:1"/>
<polygon points="22.277152598005053,17.71080511200229 20.745774684483518,16.248142956820683 22.652635282129264,14.818712472602698" style="fill:none;stroke:black;stroke-width:1"/>
<polygon points="20.745774684483518,16.248142956820683 20.575166682976047,13.45541434084161 22.652635282129264,14.818712472602698" style="fill:none;stroke:black;stroke-width:1"/>
<polygon points="20.575166682976047,13.45541434084161 20.745774684483518,16.248142956820683 19.43875740055334,14.567094766995194" style="fill:none;stroke:black;stroke-width:1"/>
<polygon points="19.55379814656242,24.39940250703794 19.82523898576135,22.209104721305224 17.080158446086728,23.246828338060297" style="fill:none;stroke:black;stroke-width:1"/>
<polygon points="19.82523898576135,22.209104721305224 19.55379814656242,24.39940250703794 19.711608075149325,24.298855239174863" style="fill:none;stroke:black;stroke-width:1"/>
<polygon points="17.827811921860942,24.812631888902978 18.011740220680743,24.776198652239113 17.080158446086728,23.246828338060297" style="fill:none;stroke:black;stroke-width:1"/>
<polygon points="13.782868768233449,10.18417089612792 15.689002673455024,10.973239170264797 12.651114952711106,10.932710090397604" style="fill:none;stroke:black;stroke-width:1"/>
<polygon points="10.858476650584915,9.764449399133788 13.782868768233449,10.18417089612792 12.651114952711106,10.932710090397604" style="fill:none;stroke:black;stroke-width:1"/>
<polygon points="12.844493619218188,5.098127344455059 13.782868768233449,10.18417089612792 10.858476650584915,9.764449399133788" style="fill:none;stroke:black;stroke-width:1"/>
<polygon points="15.689002673455024,10.973239170264797 18.736146809663744,11.012677199302686 17.509236844698922,13.483821395267936" style="fill:none;stroke:black;stroke-width:1"/>
<polygon points="18.736146809663744,11.012677199302686 20.575166682976047,13.45541434084161 17.509236844698922,13.483821395267936" style="fill:none;stroke:black;stroke-width:1"/>
<polygon points="20.575166682976047,13.45541434084161 18.736146809663744,11.012677199302686 21.067630599617125,10.855289654436483" style="fill:none;stroke:black;stroke-width:1"/>
<polygon points="20.464382633023,5.239879130436371 19.853300094149223,3.80579696366601 22.658371218541472,4.3912911038092375" style="fill:none;stroke:black;stroke-width:1"/>
<polygon points="19.853300094149223,3.80579696366601 20.464382633023,5.239879130436371 18.108272276954814,4.06595160511152" style="fill:none;stroke:black;stroke-width:1"/>
<polygon points="22.658371218541472,4.3912911038092375 19.853300094149223,3.80579696366601 17.272031561618384,2.286967916266788" style="fill:none;stroke:black;stroke-width:1"/>
<polygon points="19.853300094149223,3.80579696366601 18.108272276954814,4.06595160511152 17.272031561618384,2.286967916266788" style="fill:none;stroke:black;stroke-width:1"/>
<polygon points="22.626211647458923,9.36973833844532 20.464382633023,5.239879130436371 23.020836681345664,6.517373871530664" style="fill:none;stroke:black;stroke-width:1"/>
<polygon points="24.431307886598027,9.533616283224804 22.626211647458923,9.36973833844532 23.020836681345664,6.517373871530664" style="fill:none;stroke:black;stroke-width:1"/>
<polygon points="22.699926274352904,11.743039646986237 24.431307886598027,9.533616283224804 22.652635282129264,14.818712472602698" style="fill:none;stroke:black;stroke-width:1"/>
<polygon points="20.575166682976047,13.45541434084161 22.699926274352904,11.743039646986237 22.652635282129264,14.818712472602698" style="fill:none;stroke:black;stroke-width:1"/>
<polygon points="22.699926274352904,11.743039646986237 20.575166682976047,13.45541434084161 21.067630599617125,10.855289654436483" style="fill:none;stroke:black;stroke-width:1"/>
<polygon points="22.626211647458923,9.36973833844532 22.699926274352904,11.743039646986237 21.067630599617125,10.855289654436483" style="fill:none;stroke:black;stroke-width:1"/>
<polygon points="22.699926274352904,11.743039646986237 22.626211647458923,9.36973833844532 24.431307886598027,9.533616283224804" style="fill:none;stroke:black;stroke-width:1"/>
<polygon points="16.02049633214409,19.345222088285734 16.441177503293357,14.582791717365712 17.509236844698922,13.483821395267936" style="fill:none;stroke:black;stroke-width:1"/>
<polygon points="13.637752985126568,20.746833329778944 16.441177503293357,14.582791717365712 13.68643340628548,20.837310995395953" style="fill:none;stroke:black;stroke-width:1"/>
<polygon points="16.441177503293357,14.582791717365712 14.451315815385989,13.517731890368193 17.509236844698922,13.483821395267936" style="fill:none;stroke:black;stroke-width:1"/>
<polygon points="19.55379814656242,24.39940250703794 19.27862068965517,22.962413793103444 19.711608075149325,24.298855239174863" style="fill:none;stroke:black;stroke-width:1"/>
<polygon points="19.82104976161868,23.215860296181503 20.334220983029105,22.894189901117382 20.70564444449729,18.87417943547509" style="fill:none;stroke:black;stroke-width:1"/>
<polygon points="19.99788989400906,23.78932071933708 20.70564444449729,18.87417943547509 19.82523898576135,22.209104721305224" style="fill:none;stroke:black;stroke-width:1"/>
<polygon points="19.99788989400906,23.78932071933708 19.994058663717155,23.580428641348366 20.70564444449729,18.87417943547509" style="fill:none;stroke:black;stroke-width:1"/>
<polygon points="19.944572787129168,23.986218722314106 19.99788989400906,23.78932071933708 19.82523898576135,22.209104721305224" style="fill:none;stroke:black;stroke-width:1"/>
<polygon points="12.392514143095504,22.756109589788625 14.101007314123004,22.43635409335672 14.915416869624863,24.677616744074506" style="fill:none;stroke:black;stroke-width:1"/>
<polygon points="14.101007314123004,22.43635409335672 17.080158446086728,23.246828338060297 14.915416869624863,24.677616744074506" style="fill:none;stroke:black;stroke-width:1"/>
<polygon points="13.782868768233449,10.18417089612792 16.794643660107653,10.150043953457917 15.689002673455024,10.973239170264797" style="fill:none;stroke:black;stroke-width:1"/>
<polygon points="16.794643660107653,10.150043953457917 18.736146809663744,11.012677199302686 15.689002673455024,10.973239170264797" style="fill:none;stroke:black;stroke-width:1"/>
<polygon points="13.956460950591214,5.678419541027916 13.736809909143943,5.60118457325429 18.108272276954814,4.06595160511152" style="fill:none;stroke:black;stroke-width:1"/>
<polygon points="14.166949296239906,5.768290530469368 13.956460950591214,5.678419541027916 18.108272276954814,4.06595160511152" style="fill:none;stroke:black;stroke-width:1"/>
<polygon points="14.558425132422219,5.9835008559080745 14.367771754160186,5.870187611966728 18.108272276954814,4.06595160511152" style="fill:none;stroke:black;stroke-width:1"/>
<polygon points="14.367771754160186,5.870187611966728 14.166949296239906,5.768290530469368 18.108272276954814,4.06595160511152" style="fill:none;stroke:black;stroke-width:1"/>
<polygon points="20.745774684483518,16.248142956820683 17.76270918920453,15.628351605270277 19.43875740055334,14.567094766995194" style="fill:none;stroke:black;stroke-width:1"/>
<polygon points="16.68544819806334,16.450255172330685 17.76270918920453,15.628351605270277 20.745774684483518,16.248142956820683" style="fill:none;stroke:black;stroke-width:1"/>
<polygon points="14.101007314123004,22.43635409335672 17.033687400097676,24.895401979656896 17.080158446086728,23.246828338060297" style="fill:none;stroke:black;stroke-width:1"/>
<polygon points="12.56937425520016,16.77590251940081 12.606033010161294,19.284369064392408 11.491042656435333,19.65314711679612" style="fill:none;stroke:black;stroke-width:1"/>
<polygon points="12.606033010161294,19.284369064392408 12.392514143095504,22.756109589788625 11.491042656435333,19.65314711679612" style="fill:none;stroke:black;stroke-width:1"/>
<polygon points="13.439537698558873,14.60677057757599 11.019093363288293,14.233457915673567 11.84332293157945,13.113889768349532" style="fill:none;stroke:black;stroke-width:1"/>
<polygon points="14.451315815385989,13.517731890368193 13.439537698558873,14.60677057757599 11.84332293157945,13.113889768349532" style="fill:none;stroke:black;stroke-width:1"/>
<polygon points="19.994058663717155,23.580428641348366 19.93241428396341,23.384810599135267 20.70564444449729,18.87417943547509" style="fill:none;stroke:black;stroke-width:1"/>
<polygon points="19.93241428396341,23.384810599135267 19.82104976161868,23.215860296181503 20.70564444449729,18.87417943547509" style="fill:none;stroke:black;stroke-width:1"/>
<polygon points="19.93241428396341,23.384810599135267 19.944572787129168,23.986218722314106 19.82104976161868,23.215860296181503" style="fill:none;stroke:black;stroke-width:1"/>
<polygon points="19.99788989400906,23.78932071933708 19.93241428396341,23.384810599135267 19.994058663717155,23.580428641348366" style="fill:none;stroke:black;stroke-width:1"/>
<polygon points="19.93241428396341,23.384810599135267 19.99788989400906,23.78932071933708 19.944572787129168,23.986218722314106" style="fill:none;stroke:black;stroke-width:1"/>
<polygon points="19.82104976161868,23.215860296181503 19.66870580083558,23.082647196588034 20.334220983029105,22.894189901117382" style="fill:none;stroke:black;stroke-width:1"/>
<polygon points="19.66870580083558,23.082647196588034 19.27862068965517,22.962413793103444 19.484123105766727,22.994240764455824" style="fill:none;stroke:black;stroke-width:1"/>
<polygon points="19.27862068965517,22.962413793103444 19.66870580083558,23.082647196588034 19.711608075149325,24.298855239174863" style="fill:none;stroke:black;stroke-width:1"/>
<polygon points="19.84454393825156,24.158561127536842 19.82523898576135,22.209104721305224 19.711608075149325,24.298855239174863" style="fill:none;stroke:black;stroke-width:1"/>
<polygon points="19.84454393825156,24.158561127536842 19.944572787129168,23.986218722314106 19.82523898576135,22.209104721305224" style="fill:none;stroke:black;stroke-width:1"/>
<polygon points="19.944572787129168,23.986218722314106 19.84454393825156,24.158561127536842 19.82104976161868,23.215860296181503" style="fill:none;stroke:black;stroke-width:1"/>
<polygon points="19.66870580083558,23.082647196588034 19.84454393825156,24.158561127536842 19.711608075149325,24.298855239174863" style="fill:none;stroke:black;stroke-width:1"/>
<polygon points="19.84454393825156,24.158561127536842 19.66870580083558,23.082647196588034 19.82104976161868,23.215860296181503" style="fill:none;stroke:black;stroke-width:1"/>
<polygon points="22.626211647458923,9.36973833844532 16.051277073885192,8.375337958003671 20.464382633023,5.239879130436371" style="fill:none;stroke:black;stroke-width:1"/>
<polygon points="14.858390982316195,8.761293353938026 16.051277073885192,8.375337958003671 16.04602332350998,8.654255740794552" style="fill:none;stroke:black;stroke-width:1"/>
<polygon points="19.806418551981874,10.115917010787914 22.626211647458923,9.36973833844532 21.067630599617125,10.855289654436483" style="fill:none;stroke:black;stroke-width:1"/>
<polygon points="18.736146809663744,11.012677199302686 19.806418551981874,10.115917010787914 21.067630599617125,10.855289654436483" style="fill:none;stroke:black;stroke-width:1"/>
<polygon points="19.806418551981874,10.115917010787914 16.051277073885192,8.375337958003671 22.626211647458923,9.36973833844532" style="fill:none;stroke:black;stroke-width:1"/>
<polygon points="16.051277073885192,8.375337958003671 19.806418551981874,10.115917010787914 16.04602332350998,8.654255740794552" style="fill:none;stroke:black;stroke-width:1"/>
<polygon points="16.794643660107653,10.150043953457917 19.806418551981874,10.115917010787914 18.736146809663744,11.012677199302686" style="fill:none;stroke:black;stroke-width:1"/>
<polygon points="13.592822422764318,7.158669738791798 13.956460950591214,5.678419541027916 14.166949296239906,5.768290530469368" style="fill:none;stroke:black;stroke-width:1"/>
<polygon points="14.738406239096177,6.107620332681491 14.558425132422219,5.9835008559080745 18.108272276954814,4.06595160511152" style="fill:none;stroke:black;stroke-width:1"/>
<polygon points="20.464382633023,5.239879130436371 15.37286681682665,6.718972333193989 18.108272276954814,4.06595160511152" style="fill:none;stroke:black;stroke-width:1"/>
<polygon points="15.514231485414566,6.909628708019172 15.37286681682665,6.718972333193989 20.464382633023,5.239879130436371" style="fill:none;stroke:black;stroke-width:1"/>
<polygon points="19.104265330045237,17.490173359871097 17.839128748066305,17.764076260335806 20.745774684483518,16.248142956820683" style="fill:none;stroke:black;stroke-width:1"/>
<polygon points="16.441177503293357,14.582791717365712 13.724212191417582,20.93802597865781 13.68643340628548,20.837310995395953" style="fill:none;stroke:black;stroke-width:1"/>
<polygon points="16.170754147904404,24.471663877716065 14.101007314123004,22.43635409335672 12.392514143095504,22.756109589788625" style="fill:none;stroke:black;stroke-width:1"/>
<polygon points="12.606033010161294,19.284369064392408 16.170754147904404,24.471663877716065 12.392514143095504,22.756109589788625" style="fill:none;stroke:black;stroke-width:1"/>
<polygon points="13.439537698558873,14.60677057757599 11.454619947091004,17.112784318369673 11.019093363288293,14.233457915673567" style="fill:none;stroke:black;stroke-width:1"/>
<polygon points="11.454619947091004,17.112784318369673 13.439537698558873,14.60677057757599 12.56937425520016,16.77590251940081" style="fill:none;stroke:black;stroke-width:1"/>
<polygon points="11.454619947091004,17.112784318369673 12.56937425520016,16.77590251940081 11.491042656435333,19.65314711679612" style="fill:none;stroke:black;stroke-width:1"/>
<polygon points="11.454619947091004,17.112784318369673 11.491042656435333,19.65314711679612 9.131043293455775,8.70528441489223" style="fill:none;stroke:black;stroke-width:1"/>
<polygon points="11.019093363288293,14.233457915673567 11.454619947091004,17.112784318369673 9.131043293455775,8.70528441489223" style="fill:none;stroke:black;stroke-width:1"/>
<polygon points="18.011740220680743,24.776198652239113 18.187682342369783,24.735205594566054 17.080158446086728,23.246828338060297" style="fill:none;stroke:black;stroke-width:1"/>
<polygon points="18.187682342369783,24.735205594566054 18.35819538369865,24.695032681891092 17.080158446086728,23.246828338060297" style="fill:none;stroke:black;stroke-width:1"/>
<polygon points="18.187682342369783,24.735205594566054 18.011740220680743,24.776198652239113 17.745309968152704,23.161347332129992" style="fill:none;stroke:black;stroke-width:1"/>
<polygon points="18.69921980547457,24.614691201254786 18.869732016362537,24.574520460936633 17.080158446086728,23.246828338060297" style="fill:none;stroke:black;stroke-width:1"/>
<polygon points="18.69921980547457,24.614691201254786 18.46696026630268,23.01421770638759 18.869732016362537,24.574520460936633" style="fill:none;stroke:black;stroke-width:1"/>
<polygon points="19.38126864902642,24.454008239982173 19.55379814656242,24.39940250703794 17.080158446086728,23.246828338060297" style="fill:none;stroke:black;stroke-width:1"/>
<polygon points="19.210756438138457,24.494178980300326 19.38126864902642,24.454008239982173 17.080158446086728,23.246828338060297" style="fill:none;stroke:black;stroke-width:1"/>
<polygon points="19.38126864902642,24.454008239982173 19.27862068965517,22.962413793103444 19.55379814656242,24.39940250703794" style="fill:none;stroke:black;stroke-width:1"/>
<polygon points="18.869732016362537,24.574520460936633 19.040244227250497,24.53434972061848 17.080158446086728,23.246828338060297" style="fill:none;stroke:black;stroke-width:1"/>
<polygon points="19.040244227250497,24.53434972061848 19.210756438138457,24.494178980300326 17.080158446086728,23.246828338060297" style="fill:none;stroke:black;stroke-width:1"/>
<polygon points="19.27862068965517,22.962413793103444 14.947911952447438,22.195546966793735 19.484123105766727,22.994240764455824" style="fill:none;stroke:black;stroke-width:1"/>
<polygon points="18.011740220680743,24.776198652239113 17.57479775726474,23.201518072448145 17.745309968152704,23.161347332129992" style="fill:none;stroke:black;stroke-width:1"/>
<polygon points="17.827811921860942,24.812631888902978 17.57479775726474,23.201518072448145 18.011740220680743,24.776198652239113" style="fill:none;stroke:black;stroke-width:1"/>
<polygon points="17.440286881793764,24.868345970041197 17.063261124600857,23.322030293402605 17.233773335488817,23.281859553084452" style="fill:none;stroke:black;stroke-width:1"/>
<polygon points="12.214504242247305,21.886813757017926 12.606033010161294,19.284369064392408 12.56937425520016,16.77590251940081" style="fill:none;stroke:black;stroke-width:1"/>
<polygon points="12.165823821088388,21.796336091400917 12.214504242247305,21.886813757017926 12.56937425520016,16.77590251940081" style="fill:none;stroke:black;stroke-width:1"/>
<polygon points="19.88060125651946,18.930047048271152 20.195485897367963,19.67769721580349 16.441177503293357,14.582791717365712" style="fill:none;stroke:black;stroke-width:1"/>
<polygon points="20.745774684483518,16.248142956820683 21.882011235068674,19.346961829125682 20.855277048638126,19.454845268864897" style="fill:none;stroke:black;stroke-width:1"/>
<polygon points="21.882011235068674,19.346961829125682 20.745774684483518,16.248142956820683 20.70564444449729,18.87417943547509" style="fill:none;stroke:black;stroke-width:1"/>
<polygon points="15.05964604880553,9.108877412321878 15.76075764875243,9.088995427426145 15.268895361413366,9.19547776294469" style="fill:none;stroke:black;stroke-width:1"/>
<polygon points="16.794643660107653,10.150043953457917 15.05964604880553,9.108877412321878 15.268895361413366,9.19547776294469" style="fill:none;stroke:black;stroke-width:1"/>
<polygon points="19.806418551981874,10.115917010787914 15.943758904705112,8.900919860851513 16.04602332350998,8.654255740794552" style="fill:none;stroke:black;stroke-width:1"/>
<polygon points="15.943758904705112,8.900919860851513 19.806418551981874,10.115917010787914 15.76075764875243,9.088995427426145" style="fill:none;stroke:black;stroke-width:1"/>
<polygon points="15.05964604880553,9.108877412321878 15.943758904705112,8.900919860851513 15.76075764875243,9.088995427426145" style="fill:none;stroke:black;stroke-width:1"/>
<polygon points="15.943758904705112,8.900919860851513 14.858390982316195,8.761293353938026 16.04602332350998,8.654255740794552" style="fill:none;stroke:black;stroke-width:1"/>
<polygon points="15.51996657285278,9.193462670391046 19.806418551981874,10.115917010787914 16.794643660107653,10.150043953457917" style="fill:none;stroke:black;stroke-width:1"/>
<polygon points="19.806418551981874,10.115917010787914 15.51996657285278,9.193462670391046 15.76075764875243,9.088995427426145" style="fill:none;stroke:black;stroke-width:1"/>
<polygon points="15.51996657285278,9.193462670391046 16.794643660107653,10.150043953457917 15.268895361413366,9.19547776294469" style="fill:none;stroke:black;stroke-width:1"/>
<polygon points="15.76075764875243,9.088995427426145 15.51996657285278,9.193462670391046 15.268895361413366,9.19547776294469" style="fill:none;stroke:black;stroke-width:1"/>
<polygon points="14.367771754160186,5.870187611966728 13.814332208244005,7.270257067209057 14.166949296239906,5.768290530469368" style="fill:none;stroke:black;stroke-width:1"/>
<polygon points="13.814332208244005,7.270257067209057 13.592822422764318,7.158669738791798 14.166949296239906,5.768290530469368" style="fill:none;stroke:black;stroke-width:1"/>
<polygon points="13.814332208244005,7.270257067209057 14.367771754160186,5.870187611966728 14.558425132422219,5.9835008559080745" style="fill:none;stroke:black;stroke-width:1"/>
<polygon points="13.956460950591214,5.678419541027916 13.352500863020506,7.057009079286029 13.736809909143943,5.60118457325429" style="fill:none;stroke:black;stroke-width:1"/>
<polygon points="13.592822422764318,7.158669738791798 13.352500863020506,7.057009079286029 13.956460950591214,5.678419541027916" style="fill:none;stroke:black;stroke-width:1"/>
<polygon points="13.352500863020506,7.057009079286029 13.592822422764318,7.158669738791798 13.09629833286679,6.965964152163014" style="fill:none;stroke:black;stroke-width:1"/>
<polygon points="15.067227371081426,6.385719507945723 14.907211882252218,6.241936112675054 18.108272276954814,4.06595160511152" style="fill:none;stroke:black;stroke-width:1"/>
<polygon points="14.907211882252218,6.241936112675054 14.738406239096177,6.107620332681491 18.108272276954814,4.06595160511152" style="fill:none;stroke:black;stroke-width:1"/>
<polygon points="15.223134390109351,6.544357953150722 15.067227371081426,6.385719507945723 18.108272276954814,4.06595160511152" style="fill:none;stroke:black;stroke-width:1"/>
<polygon points="15.37286681682665,6.718972333193989 15.223134390109351,6.544357953150722 18.108272276954814,4.06595160511152" style="fill:none;stroke:black;stroke-width:1"/>
<polygon points="13.272032506573007,5.487062421158197 15.230633357784342,3.3684723134212495 17.272031561618384,2.286967916266788" style="fill:none;stroke:black;stroke-width:1"/>
<polygon points="13.272032506573007,5.487062421158197 13.02791252930901,5.451395096059571 15.230633357784342,3.3684723134212495" style="fill:none;stroke:black;stroke-width:1"/>
<polygon points="11.995199950454259,5.982585287830169 12.844493619218188,5.098127344455059 14.269469936923112,2.7034405506106585" style="fill:none;stroke:black;stroke-width:1"/>
<polygon points="12.289268881663315,6.705763273966262 13.782868768233449,10.18417089612792 12.844493619218188,5.098127344455059" style="fill:none;stroke:black;stroke-width:1"/>
<polygon points="12.098559210380175,6.511437687881674 12.289268881663315,6.705763273966262 12.844493619218188,5.098127344455059" style="fill:none;stroke:black;stroke-width:1"/>
<polygon points="20.2621024584252,18.184976550595252 20.745774684483518,16.248142956820683 20.855277048638126,19.454845268864897" style="fill:none;stroke:black;stroke-width:1"/>
<polygon points="20.2621024584252,18.184976550595252 19.104265330045237,17.490173359871097 20.745774684483518,16.248142956820683" style="fill:none;stroke:black;stroke-width:1"/>
<polygon points="15.983643176847147,17.673161712248167 16.68544819806334,16.450255172330685 20.745774684483518,16.248142956820683" style="fill:none;stroke:black;stroke-width:1"/>
<polygon points="16.040143058035582,18.769651182673694 15.983643176847147,17.673161712248167 20.745774684483518,16.248142956820683" style="fill:none;stroke:black;stroke-width:1"/>
<polygon points="17.839128748066305,17.764076260335806 17.172342750492263,18.784550232183268 20.745774684483518,16.248142956820683" style="fill:none;stroke:black;stroke-width:1"/>
<polygon points="17.172342750492263,18.784550232183268 16.040143058035582,18.769651182673694 20.745774684483518,16.248142956820683" style="fill:none;stroke:black;stroke-width:1"/>
<polygon points="19.43875740055334,14.567094766995194 16.175277276016608,20.784377307609795 17.509236844698922,13.483821395267936" style="fill:none;stroke:black;stroke-width:1"/>
<polygon points="13.762467204239417,21.164241024120233 13.749892227055646,21.04753121796277 16.441177503293357,14.582791717365712" style="fill:none;stroke:black;stroke-width:1"/>
<polygon points="13.749892227055646,21.04753121796277 13.724212191417582,20.93802597865781 16.441177503293357,14.582791717365712" style="fill:none;stroke:black;stroke-width:1"/>
<polygon points="13.761137488609043,21.286456087616546 13.762467204239417,21.164241024120233 16.441177503293357,14.582791717365712" style="fill:none;stroke:black;stroke-width:1"/>
<polygon points="18.35819538369865,24.695032681891092 18.528707594586614,24.65486194157294 17.080158446086728,23.246828338060297" style="fill:none;stroke:black;stroke-width:1"/>
<polygon points="18.528707594586614,24.65486194157294 18.69921980547457,24.614691201254786 17.080158446086728,23.246828338060297" style="fill:none;stroke:black;stroke-width:1"/>
<polygon points="18.091703834878395,23.080783787688 18.528707594586614,24.65486194157294 18.35819538369865,24.695032681891092" style="fill:none;stroke:black;stroke-width:1"/>
<polygon points="18.46696026630268,23.01421770638759 18.66399500676465,22.98977838713684 18.869732016362537,24.574520460936633" style="fill:none;stroke:black;stroke-width:1"/>
<polygon points="18.66399500676465,22.98977838713684 19.040244227250497,24.53434972061848 18.869732016362537,24.574520460936633" style="fill:none;stroke:black;stroke-width:1"/>
<polygon points="13.986716848253154,19.531530731319062 18.66399500676465,22.98977838713684 14.272551341341602,18.15855948942008" style="fill:none;stroke:black;stroke-width:1"/>
<polygon points="18.66399500676465,22.98977838713684 18.46696026630268,23.01421770638759 14.272551341341602,18.15855948942008" style="fill:none;stroke:black;stroke-width:1"/>
<polygon points="17.915832916831853,23.12114747005083 18.187682342369783,24.735205594566054 17.745309968152704,23.161347332129992" style="fill:none;stroke:black;stroke-width:1"/>
<polygon points="18.187682342369783,24.735205594566054 17.915832916831853,23.12114747005083 18.35819538369865,24.695032681891092" style="fill:none;stroke:black;stroke-width:1"/>
<polygon points="17.915832916831853,23.12114747005083 18.091703834878395,23.080783787688 18.35819538369865,24.695032681891092" style="fill:none;stroke:black;stroke-width:1"/>
<polygon points="14.21762567207835,20.964358566134493 14.947911952447438,22.195546966793735 19.27862068965517,22.962413793103444" style="fill:none;stroke:black;stroke-width:1"/>
<polygon points="17.463267855283956,23.55783358077332 19.66870580083558,23.082647196588034 19.484123105766727,22.994240764455824" style="fill:none;stroke:black;stroke-width:1"/>
<polygon points="16.07726101207727,16.27982240444611 17.915832916831853,23.12114747005083 13.357638595548153,22.041267304403227" style="fill:none;stroke:black;stroke-width:1"/>
<polygon points="16.892748913712897,23.36220103372076 17.033687400097676,24.895401979656896 16.722236702824933,23.40237177403891" style="fill:none;stroke:black;stroke-width:1"/>
<polygon points="17.404285546376784,23.2416888127663 17.57479775726474,23.201518072448145 17.827811921860942,24.812631888902978" style="fill:none;stroke:black;stroke-width:1"/>
<polygon points="17.440286881793764,24.868345970041197 17.238835185028748,24.885890349934602 17.063261124600857,23.322030293402605" style="fill:none;stroke:black;stroke-width:1"/>
<polygon points="16.892748913712897,23.36220103372076 17.238835185028748,24.885890349934602 17.033687400097676,24.895401979656896" style="fill:none;stroke:black;stroke-width:1"/>
<polygon points="17.238835185028748,24.885890349934602 16.892748913712897,23.36220103372076 17.063261124600857,23.322030293402605" style="fill:none;stroke:black;stroke-width:1"/>
<polygon points="17.033687400097676,24.895401979656896 17.238835185028748,24.885890349934602 17.080158446086728,23.246828338060297" style="fill:none;stroke:black;stroke-width:1"/>
<polygon points="17.238835185028748,24.885890349934602 17.440286881793764,24.868345970041197 17.080158446086728,23.246828338060297" style="fill:none;stroke:black;stroke-width:1"/>
<polygon points="13.439537698558873,14.60677057757599 12.244998381616782,20.85747944478985 12.56937425520016,16.77590251940081" style="fill:none;stroke:black;stroke-width:1"/>
<polygon points="12.606033010161294,19.284369064392408 12.411537221750889,22.08489274462401 16.258961413599792,23.697818886484246" style="fill:none;stroke:black;stroke-width:1"/>
<polygon points="17.019516677647754,20.149078132994067 16.441177503293357,14.582791717365712 16.02049633214409,19.345222088285734" style="fill:none;stroke:black;stroke-width:1"/>
<polygon points="17.019516677647754,20.149078132994067 18.27127765924765,20.0183397428831 16.441177503293357,14.582791717365712" style="fill:none;stroke:black;stroke-width:1"/>
<polygon points="19.01349975740992,19.077752843124074 19.88060125651946,18.930047048271152 16.441177503293357,14.582791717365712" style="fill:none;stroke:black;stroke-width:1"/>
<polygon points="18.27127765924765,20.0183397428831 19.01349975740992,19.077752843124074 16.441177503293357,14.582791717365712" style="fill:none;stroke:black;stroke-width:1"/>
<polygon points="20.195485897367963,19.67769721580349 19.50494809770515,20.95892789359798 16.441177503293357,14.582791717365712" style="fill:none;stroke:black;stroke-width:1"/>
<polygon points="19.50494809770515,20.95892789359798 13.761137488609043,21.286456087616546 16.441177503293357,14.582791717365712" style="fill:none;stroke:black;stroke-width:1"/>
<polygon points="20.633185034488385,17.32131206204291 21.56279708292881,18.268236824838006 20.70564444449729,18.87417943547509" style="fill:none;stroke:black;stroke-width:1"/>
<polygon points="21.56279708292881,18.268236824838006 21.882011235068674,19.346961829125682 20.70564444449729,18.87417943547509" style="fill:none;stroke:black;stroke-width:1"/>
<polygon points="20.334220983029105,22.894189901117382 21.342171445109603,21.896388040897584 20.70564444449729,18.87417943547509" style="fill:none;stroke:black;stroke-width:1"/>
<polygon points="21.342171445109603,21.896388040897584 21.934045892011138,20.5970288365071 20.70564444449729,18.87417943547509" style="fill:none;stroke:black;stroke-width:1"/>
<polygon points="19.337129215004722,16.790197128415684 20.633185034488385,17.32131206204291 20.70564444449729,18.87417943547509" style="fill:none;stroke:black;stroke-width:1"/>
<polygon points="21.934045892011138,20.5970288365071 19.337129215004722,16.790197128415684 20.70564444449729,18.87417943547509" style="fill:none;stroke:black;stroke-width:1"/>
<polygon points="15.86618736572531,7.578510399609275 15.763084884927228,7.339331681789892 20.464382633023,5.239879130436371" style="fill:none;stroke:black;stroke-width:1"/>
<polygon points="16.051277073885192,8.375337958003671 16.01319814939123,8.098962029194784 20.464382633023,5.239879130436371" style="fill:none;stroke:black;stroke-width:1"/>
<polygon points="16.01319814939123,8.098962029194784 16.051277073885192,8.375337958003671 14.858390982316195,8.761293353938026" style="fill:none;stroke:black;stroke-width:1"/>
<polygon points="15.943758904705112,8.900919860851513 14.91540397487756,8.956456455654674 14.858390982316195,8.761293353938026" style="fill:none;stroke:black;stroke-width:1"/>
<polygon points="14.91540397487756,8.956456455654674 15.943758904705112,8.900919860851513 15.05964604880553,9.108877412321878" style="fill:none;stroke:black;stroke-width:1"/>
<polygon points="14.91540397487756,8.956456455654674 15.05964604880553,9.108877412321878 16.794643660107653,10.150043953457917" style="fill:none;stroke:black;stroke-width:1"/>
<polygon points="14.91540397487756,8.956456455654674 16.794643660107653,10.150043953457917 13.782868768233449,10.18417089612792" style="fill:none;stroke:black;stroke-width:1"/>
<polygon points="14.858390982316195,8.761293353938026 14.91540397487756,8.956456455654674 13.782868768233449,10.18417089612792" style="fill:none;stroke:black;stroke-width:1"/>
<polygon points="14.738406239096177,6.107620332681491 14.01409941560534,7.39108200106654 14.558425132422219,5.9835008559080745" style="fill:none;stroke:black;stroke-width:1"/>
<polygon points="14.01409941560534,7.39108200106654 13.814332208244005,7.270257067209057 14.558425132422219,5.9835008559080745" style="fill:none;stroke:black;stroke-width:1"/>
<polygon points="13.272032506573007,5.487062421158197 13.50849936382793,5.537195556760411 13.09629833286679,6.965964152163014" style="fill:none;stroke:black;stroke-width:1"/>
<polygon points="13.352500863020506,7.057009079286029 13.50849936382793,5.537195556760411 13.736809909143943,5.60118457325429" style="fill:none;stroke:black;stroke-width:1"/>
<polygon points="13.50849936382793,5.537195556760411 13.352500863020506,7.057009079286029 13.09629833286679,6.965964152163014" style="fill:none;stroke:black;stroke-width:1"/>
<polygon points="13.736809909143943,5.60118457325429 13.50849936382793,5.537195556760411 17.272031561618384,2.286967916266788" style="fill:none;stroke:black;stroke-width:1"/>
<polygon points="13.50849936382793,5.537195556760411 13.272032506573007,5.487062421158197 17.272031561618384,2.286967916266788" style="fill:none;stroke:black;stroke-width:1"/>
<polygon points="11.99457237664397,6.261567491941821 12.098559210380175,6.511437687881674 12.844493619218188,5.098127344455059" style="fill:none;stroke:black;stroke-width:1"/>
<polygon points="11.995199950454259,5.982585287830169 11.99457237664397,6.261567491941821 12.844493619218188,5.098127344455059" style="fill:none;stroke:black;stroke-width:1"/>
<polygon points="11.99457237664397,6.261567491941821 11.995199950454259,5.982585287830169 12.098559210380175,6.511437687881674" style="fill:none;stroke:black;stroke-width:1"/>
<polygon points="12.289268881663315,6.705763273966262 12.548620689655172,6.818965517241379 13.782868768233449,10.18417089612792" style="fill:none;stroke:black;stroke-width:1"/>
<polygon points="12.548620689655172,6.818965517241379 14.858390982316195,8.761293353938026 13.782868768233449,10.18417089612792" style="fill:none;stroke:black;stroke-width:1"/>
<polygon points="12.548620689655172,6.818965517241379 12.289268881663315,6.705763273966262 12.284924253533177,5.546854686208132" style="fill:none;stroke:black;stroke-width:1"/>
<polygon points="12.548620689655172,6.818965517241379 14.01409941560534,7.39108200106654 14.858390982316195,8.761293353938026" style="fill:none;stroke:black;stroke-width:1"/>
<polygon points="14.01409941560534,7.39108200106654 12.548620689655172,6.818965517241379 13.814332208244005,7.270257067209057" style="fill:none;stroke:black;stroke-width:1"/>
<polygon points="11.995199950454259,5.982585287830169 12.100421402643425,5.7325022432636565 12.098559210380175,6.511437687881674" style="fill:none;stroke:black;stroke-width:1"/>
<polygon points="12.100421402643425,5.7325022432636565 12.289268881663315,6.705763273966262 12.098559210380175,6.511437687881674" style="fill:none;stroke:black;stroke-width:1"/>
<polygon points="12.289268881663315,6.705763273966262 12.100421402643425,5.7325022432636565 12.284924253533177,5.546854686208132" style="fill:none;stroke:black;stroke-width:1"/>
<polygon points="12.100421402643425,5.7325022432636565 11.995199950454259,5.982585287830169 14.269469936923112,2.7034405506106585" style="fill:none;stroke:black;stroke-width:1"/>
<polygon points="15.230633357784342,3.3684723134212495 12.100421402643425,5.7325022432636565 14.269469936923112,2.7034405506106585" style="fill:none;stroke:black;stroke-width:1"/>
<polygon points="12.284924253533177,5.546854686208132 12.100421402643425,5.7325022432636565 15.230633357784342,3.3684723134212495" style="fill:none;stroke:black;stroke-width:1"/>
<polygon points="19.400134001291377,19.75195778967819 17.980759619095558,19.679568437091856 19.43875740055334,14.567094766995194" style="fill:none;stroke:black;stroke-width:1"/>
<polygon points="19.458184424333297,17.37268082927166 17.545103573210486,21.292572112782345 19.43875740055334,14.567094766995194" style="fill:none;stroke:black;stroke-width:1"/>
<polygon points="17.545103573210486,21.292572112782345 16.175277276016608,20.784377307609795 19.43875740055334,14.567094766995194" style="fill:none;stroke:black;stroke-width:1"/>
<polygon points="16.434303301397296,24.773978963572247 16.61882218431662,24.86248343109405 14.101007314123004,22.43635409335672" style="fill:none;stroke:black;stroke-width:1"/>
<polygon points="16.170754147904404,24.471663877716065 16.282033721209018,24.6406826244126 14.101007314123004,22.43635409335672" style="fill:none;stroke:black;stroke-width:1"/>
<polygon points="16.282033721209018,24.6406826244126 16.434303301397296,24.773978963572247 14.101007314123004,22.43635409335672" style="fill:none;stroke:black;stroke-width:1"/>
<polygon points="16.434303301397296,24.773978963572247 16.282033721209018,24.6406826244126 16.258961413599792,23.697818886484246" style="fill:none;stroke:black;stroke-width:1"/>
<polygon points="16.158913902530756,23.870139198249387 12.606033010161294,19.284369064392408 16.258961413599792,23.697818886484246" style="fill:none;stroke:black;stroke-width:1"/>
<polygon points="16.158913902530756,23.870139198249387 16.105480141274867,24.067061257498946 12.606033010161294,19.284369064392408" style="fill:none;stroke:black;stroke-width:1"/>
<polygon points="16.105480141274867,24.067061257498946 16.158913902530756,23.870139198249387 16.170754147904404,24.471663877716065" style="fill:none;stroke:black;stroke-width:1"/>
<polygon points="16.282033721209018,24.6406826244126 16.158913902530756,23.870139198249387 16.258961413599792,23.697818886484246" style="fill:none;stroke:black;stroke-width:1"/>
<polygon points="16.158913902530756,23.870139198249387 16.282033721209018,24.6406826244126 16.170754147904404,24.471663877716065" style="fill:none;stroke:black;stroke-width:1"/>
<polygon points="16.109205285636065,24.275992187583608 16.170754147904404,24.471663877716065 12.606033010161294,19.284369064392408" style="fill:none;stroke:black;stroke-width:1"/>
<polygon points="16.105480141274867,24.067061257498946 16.109205285636065,24.275992187583608 12.606033010161294,19.284369064392408" style="fill:none;stroke:black;stroke-width:1"/>
<polygon points="16.109205285636065,24.275992187583608 16.105480141274867,24.067061257498946 16.170754147904404,24.471663877716065" style="fill:none;stroke:black;stroke-width:1"/>
<polygon points="18.275804746854632,23.044846686519115 18.528707594586614,24.65486194157294 18.091703834878395,23.080783787688" style="fill:none;stroke:black;stroke-width:1"/>
<polygon points="18.46696026630268,23.01421770638759 18.275804746854632,23.044846686519115 14.272551341341602,18.15855948942008" style="fill:none;stroke:black;stroke-width:1"/>
<polygon points="18.69921980547457,24.614691201254786 18.275804746854632,23.044846686519115 18.46696026630268,23.01421770638759" style="fill:none;stroke:black;stroke-width:1"/>
<polygon points="18.528707594586614,24.65486194157294 18.275804746854632,23.044846686519115 18.69921980547457,24.614691201254786" style="fill:none;stroke:black;stroke-width:1"/>
<polygon points="19.040244227250497,24.53434972061848 18.86573358178265,22.97241026861029 19.210756438138457,24.494178980300326" style="fill:none;stroke:black;stroke-width:1"/>
<polygon points="18.66399500676465,22.98977838713684 18.86573358178265,22.97241026861029 19.040244227250497,24.53434972061848" style="fill:none;stroke:black;stroke-width:1"/>
<polygon points="14.21762567207835,20.964358566134493 18.86573358178265,22.97241026861029 13.986716848253154,19.531530731319062" style="fill:none;stroke:black;stroke-width:1"/>
<polygon points="18.86573358178265,22.97241026861029 18.66399500676465,22.98977838713684 13.986716848253154,19.531530731319062" style="fill:none;stroke:black;stroke-width:1"/>
<polygon points="14.947911952447438,22.195546966793735 16.06615017233932,23.095945465556195 19.484123105766727,22.994240764455824" style="fill:none;stroke:black;stroke-width:1"/>
<polygon points="16.06615017233932,23.095945465556195 17.463267855283956,23.55783358077332 19.484123105766727,22.994240764455824" style="fill:none;stroke:black;stroke-width:1"/>
<polygon points="19.66870580083558,23.082647196588034 18.998865683352108,23.483143888780344 20.334220983029105,22.894189901117382" style="fill:none;stroke:black;stroke-width:1"/>
<polygon points="17.463267855283956,23.55783358077332 18.998865683352108,23.483143888780344 19.66870580083558,23.082647196588034" style="fill:none;stroke:black;stroke-width:1"/>
<polygon points="18.275804746854632,23.044846686519115 14.997893760014618,17.03862035060016 14.272551341341602,18.15855948942008" style="fill:none;stroke:black;stroke-width:1"/>
<polygon points="14.997893760014618,17.03862035060016 18.275804746854632,23.044846686519115 18.091703834878395,23.080783787688" style="fill:none;stroke:black;stroke-width:1"/>
<polygon points="17.915832916831853,23.12114747005083 14.997893760014618,17.03862035060016 18.091703834878395,23.080783787688" style="fill:none;stroke:black;stroke-width:1"/>
<polygon points="16.07726101207727,16.27982240444611 14.997893760014618,17.03862035060016 17.915832916831853,23.12114747005083" style="fill:none;stroke:black;stroke-width:1"/>
<polygon points="17.636969968151554,24.843637072267164 17.440286881793764,24.868345970041197 17.233773335488817,23.281859553084452" style="fill:none;stroke:black;stroke-width:1"/>
<polygon points="17.404285546376784,23.2416888127663 17.636969968151554,24.843637072267164 17.233773335488817,23.281859553084452" style="fill:none;stroke:black;stroke-width:1"/>
<polygon points="17.636969968151554,24.843637072267164 17.404285546376784,23.2416888127663 17.827811921860942,24.812631888902978" style="fill:none;stroke:black;stroke-width:1"/>
<polygon points="17.636969968151554,24.843637072267164 17.827811921860942,24.812631888902978 17.080158446086728,23.246828338060297" style="fill:none;stroke:black;stroke-width:1"/>
<polygon points="17.440286881793764,24.868345970041197 17.636969968151554,24.843637072267164 17.080158446086728,23.246828338060297" style="fill:none;stroke:black;stroke-width:1"/>
<polygon points="13.098983494028156,20.438813982967204 13.439537698558873,14.60677057757599 14.451315815385989,13.517731890368193" style="fill:none;stroke:black;stroke-width:1"/>
<polygon points="13.192658508250782,20.453499018098626 13.098983494028156,20.438813982967204 14.451315815385989,13.517731890368193" style="fill:none;stroke:black;stroke-width:1"/>
<polygon points="12.338943502773747,22.032096406868863 12.411537221750889,22.08489274462401 12.606033010161294,19.284369064392408" style="fill:none;stroke:black;stroke-width:1"/>
<polygon points="15.645035230054345,7.116393137569924 15.514231485414566,6.909628708019172 20.464382633023,5.239879130436371" style="fill:none;stroke:black;stroke-width:1"/>
<polygon points="15.763084884927228,7.339331681789892 15.645035230054345,7.116393137569924 20.464382633023,5.239879130436371" style="fill:none;stroke:black;stroke-width:1"/>
<polygon points="15.95110905869939,7.8326357259654085 15.86618736572531,7.578510399609275 20.464382633023,5.239879130436371" style="fill:none;stroke:black;stroke-width:1"/>
<polygon points="16.01319814939123,8.098962029194784 15.95110905869939,7.8326357259654085 20.464382633023,5.239879130436371" style="fill:none;stroke:black;stroke-width:1"/>
<polygon points="14.907211882252218,6.241936112675054 14.18955864474536,7.521568588030961 14.738406239096177,6.107620332681491" style="fill:none;stroke:black;stroke-width:1"/>
<polygon points="14.18955864474536,7.521568588030961 14.01409941560534,7.39108200106654 14.738406239096177,6.107620332681491" style="fill:none;stroke:black;stroke-width:1"/>
<polygon points="14.18955864474536,7.521568588030961 14.907211882252218,6.241936112675054 15.067227371081426,6.385719507945723" style="fill:none;stroke:black;stroke-width:1"/>
<polygon points="14.01409941560534,7.39108200106654 14.18955864474536,7.521568588030961 14.858390982316195,8.761293353938026" style="fill:none;stroke:black;stroke-width:1"/>
<polygon points="12.8275902607672,6.8860521504926915 13.272032506573007,5.487062421158197 13.09629833286679,6.965964152163014" style="fill:none;stroke:black;stroke-width:1"/>
<polygon points="13.272032506573007,5.487062421158197 12.8275902607672,6.8860521504926915 13.02791252930901,5.451395096059571" style="fill:none;stroke:black;stroke-width:1"/>
<polygon points="13.592822422764318,7.158669738791798 12.8275902607672,6.8860521504926915 13.09629833286679,6.965964152163014" style="fill:none;stroke:black;stroke-width:1"/>
<polygon points="13.814332208244005,7.270257067209057 12.8275902607672,6.8860521504926915 13.592822422764318,7.158669738791798" style="fill:none;stroke:black;stroke-width:1"/>
<polygon points="12.548620689655172,6.818965517241379 12.8275902607672,6.8860521504926915 13.814332208244005,7.270257067209057" style="fill:none;stroke:black;stroke-width:1"/>
<polygon points="13.02791252930901,5.451395096059571 12.776642623965767,5.43080351107645 15.230633357784342,3.3684723134212495" style="fill:none;stroke:black;stroke-width:1"/>
<polygon points="12.8275902607672,6.8860521504926915 12.776642623965767,5.43080351107645 13.02791252930901,5.451395096059571" style="fill:none;stroke:black;stroke-width:1"/>
<polygon points="12.776642623965767,5.43080351107645 12.8275902607672,6.8860521504926915 12.548620689655172,6.818965517241379" style="fill:none;stroke:black;stroke-width:1"/>
<polygon points="17.76270918920453,15.628351605270277 20.252494571972942,18.801735080208655 19.43875740055334,14.567094766995194" style="fill:none;stroke:black;stroke-width:1"/>
<polygon points="20.252494571972942,18.801735080208655 19.400134001291377,19.75195778967819 19.43875740055334,14.567094766995194" style="fill:none;stroke:black;stroke-width:1"/>
<polygon points="18.459388908839763,16.719281488920405 19.458184424333297,17.37268082927166 19.43875740055334,14.567094766995194" style="fill:none;stroke:black;stroke-width:1"/>
<polygon points="17.342337001278633,17.24429849226172 18.459388908839763,16.719281488920405 19.43875740055334,14.567094766995194" style="fill:none;stroke:black;stroke-width:1"/>
<polygon points="17.980759619095558,19.679568437091856 17.09377801332336,18.574310068332874 19.43875740055334,14.567094766995194" style="fill:none;stroke:black;stroke-width:1"/>
<polygon points="17.09377801332336,18.574310068332874 17.342337001278633,17.24429849226172 19.43875740055334,14.567094766995194" style="fill:none;stroke:black;stroke-width:1"/>
<polygon points="15.494789672608148,18.45173364907824 16.02049633214409,19.345222088285734 17.509236844698922,13.483821395267936" style="fill:none;stroke:black;stroke-width:1"/>
<polygon points="14.570920068750436,18.590564838303727 15.494789672608148,18.45173364907824 17.509236844698922,13.483821395267936" style="fill:none;stroke:black;stroke-width:1"/>
<polygon points="16.175277276016608,20.784377307609795 15.138856317896556,19.839267731392965 17.509236844698922,13.483821395267936" style="fill:none;stroke:black;stroke-width:1"/>
<polygon points="15.138856317896556,19.839267731392965 14.570920068750436,18.590564838303727 17.509236844698922,13.483821395267936" style="fill:none;stroke:black;stroke-width:1"/>
<polygon points="17.033687400097676,24.895401979656896 16.826893346628776,24.896896551724133 16.722236702824933,23.40237177403891" style="fill:none;stroke:black;stroke-width:1"/>
<polygon points="16.826893346628776,24.896896551724133 16.549707205288932,23.456977506983144 16.722236702824933,23.40237177403891" style="fill:none;stroke:black;stroke-width:1"/>
<polygon points="16.826893346628776,24.896896551724133 17.033687400097676,24.895401979656896 14.101007314123004,22.43635409335672" style="fill:none;stroke:black;stroke-width:1"/>
<polygon points="16.61882218431662,24.86248343109405 16.826893346628776,24.896896551724133 14.101007314123004,22.43635409335672" style="fill:none;stroke:black;stroke-width:1"/>
<polygon points="16.826893346628776,24.896896551724133 16.61882218431662,24.86248343109405 16.434303301397296,24.773978963572247" style="fill:none;stroke:black;stroke-width:1"/>
<polygon points="18.86573358178265,22.97241026861029 19.071000604898785,22.962994890651352 19.210756438138457,24.494178980300326" style="fill:none;stroke:black;stroke-width:1"/>
<polygon points="19.38126864902642,24.454008239982173 19.071000604898785,22.962994890651352 19.27862068965517,22.962413793103444" style="fill:none;stroke:black;stroke-width:1"/>
<polygon points="19.071000604898785,22.962994890651352 19.38126864902642,24.454008239982173 19.210756438138457,24.494178980300326" style="fill:none;stroke:black;stroke-width:1"/>
<polygon points="19.071000604898785,22.962994890651352 14.21762567207835,20.964358566134493 19.27862068965517,22.962413793103444" style="fill:none;stroke:black;stroke-width:1"/>
<polygon points="19.071000604898785,22.962994890651352 18.86573358178265,22.97241026861029 14.21762567207835,20.964358566134493" style="fill:none;stroke:black;stroke-width:1"/>
<polygon points="13.28134969813545,20.477384648111737 13.192658508250782,20.453499018098626 14.451315815385989,13.517731890368193" style="fill:none;stroke:black;stroke-width:1"/>
<polygon points="16.441177503293357,14.582791717365712 13.513313724600124,20.601550679928003 14.451315815385989,13.517731890368193" style="fill:none;stroke:black;stroke-width:1"/>
<polygon points="13.513313724600124,20.601550679928003 13.440720005622982,20.548754342172863 14.451315815385989,13.517731890368193" style="fill:none;stroke:black;stroke-width:1"/>
<polygon points="12.593533786375058,20.533780306456457 12.494708912494735,20.59372225530195 13.439537698558873,14.60677057757599" style="fill:none;stroke:black;stroke-width:1"/>
<polygon points="12.494708912494735,20.59372225530195 12.402196027814329,20.668241964092296 13.439537698558873,14.60677057757599" style="fill:none;stroke:black;stroke-width:1"/>
<polygon points="12.31826983987482,20.75648403372884 12.244998381616782,20.85747944478985 13.439537698558873,14.60677057757599" style="fill:none;stroke:black;stroke-width:1"/>
<polygon points="12.402196027814329,20.668241964092296 12.31826983987482,20.75648403372884 13.439537698558873,14.60677057757599" style="fill:none;stroke:black;stroke-width:1"/>
<polygon points="12.214504242247305,21.886813757017926 12.272717260653348,21.965768492003072 12.606033010161294,19.284369064392408" style="fill:none;stroke:black;stroke-width:1"/>
<polygon points="12.272717260653348,21.965768492003072 12.338943502773747,22.032096406868863 12.606033010161294,19.284369064392408" style="fill:none;stroke:black;stroke-width:1"/>
<polygon points="16.826893346628776,24.896896551724133 16.39189727670203,23.55752477484623 16.549707205288932,23.456977506983144" style="fill:none;stroke:black;stroke-width:1"/>
<polygon points="16.39189727670203,23.55752477484623 16.434303301397296,24.773978963572247 16.258961413599792,23.697818886484246" style="fill:none;stroke:black;stroke-width:1"/>
<polygon points="16.39189727670203,23.55752477484623 16.826893346628776,24.896896551724133 16.434303301397296,24.773978963572247" style="fill:none;stroke:black;stroke-width:1"/>
<polygon points="12.411537221750889,22.08489274462401 12.488360036104659,22.124523927129147 16.258961413599792,23.697818886484246" style="fill:none;stroke:black;stroke-width:1"/>
<polygon points="12.488360036104659,22.124523927129147 16.39189727670203,23.55752477484623 16.258961413599792,23.697818886484246" style="fill:none;stroke:black;stroke-width:1"/>
<polygon points="16.39189727670203,23.55752477484623 12.488360036104659,22.124523927129147 12.571020100895073,22.156522632674417" style="fill:none;stroke:black;stroke-width:1"/>
<polygon points="12.951762535665017,22.193405935418827 16.892748913712897,23.36220103372076 16.722236702824933,23.40237177403891" style="fill:none;stroke:black;stroke-width:1"/>
<polygon points="15.223134390109351,6.544357953150722 14.345354725906885,7.666528406371055 15.067227371081426,6.385719507945723" style="fill:none;stroke:black;stroke-width:1"/>
<polygon points="14.345354725906885,7.666528406371055 14.18955864474536,7.521568588030961 15.067227371081426,6.385719507945723" style="fill:none;stroke:black;stroke-width:1"/>
<polygon points="14.18955864474536,7.521568588030961 14.345354725906885,7.666528406371055 14.858390982316195,8.761293353938026" style="fill:none;stroke:black;stroke-width:1"/>
<polygon points="12.521717448890662,5.442957245111112 12.548620689655172,6.818965517241379 12.284924253533177,5.546854686208132" style="fill:none;stroke:black;stroke-width:1"/>
<polygon points="12.521717448890662,5.442957245111112 12.776642623965767,5.43080351107645 12.548620689655172,6.818965517241379" style="fill:none;stroke:black;stroke-width:1"/>
<polygon points="12.521717448890662,5.442957245111112 12.284924253533177,5.546854686208132 15.230633357784342,3.3684723134212495" style="fill:none;stroke:black;stroke-width:1"/>
<polygon points="12.776642623965767,5.43080351107645 12.521717448890662,5.442957245111112 15.230633357784342,3.3684723134212495" style="fill:none;stroke:black;stroke-width:1"/>
<polygon points="13.440720005622982,20.548754342172863 13.363902211260816,20.509214794790942 14.451315815385989,13.517731890368193" style="fill:none;stroke:black;stroke-width:1"/>
<polygon points="13.363902211260816,20.509214794790942 13.28134969813545,20.477384648111737 14.451315815385989,13.517731890368193" style="fill:none;stroke:black;stroke-width:1"/>
<polygon points="13.579539966720525,20.667878594793798 16.441177503293357,14.582791717365712 13.637752985126568,20.746833329778944" style="fill:none;stroke:black;stroke-width:1"/>
<polygon points="13.579539966720525,20.667878594793798 13.513313724600124,20.601550679928003 16.441177503293357,14.582791717365712" style="fill:none;stroke:black;stroke-width:1"/>
<polygon points="12.696205137407354,20.489132889065637 12.593533786375058,20.533780306456457 13.439537698558873,14.60677057757599" style="fill:none;stroke:black;stroke-width:1"/>
<polygon points="12.799206285399578,20.45901842602211 12.696205137407354,20.489132889065637 13.439537698558873,14.60677057757599" style="fill:none;stroke:black;stroke-width:1"/>
<polygon points="12.901197972961313,20.440896812574977 12.799206285399578,20.45901842602211 13.439537698558873,14.60677057757599" style="fill:none;stroke:black;stroke-width:1"/>
<polygon points="12.128045035956287,21.695621108139065 12.165823821088388,21.796336091400917 12.56937425520016,16.77590251940081" style="fill:none;stroke:black;stroke-width:1"/>
<polygon points="12.102365000318223,21.586115868834103 12.128045035956287,21.695621108139065 12.56937425520016,16.77590251940081" style="fill:none;stroke:black;stroke-width:1"/>
<polygon points="12.091119738764826,21.347190999180324 12.089790023134452,21.469406062676637 12.56937425520016,16.77590251940081" style="fill:none;stroke:black;stroke-width:1"/>
<polygon points="12.089790023134452,21.469406062676637 12.102365000318223,21.586115868834103 12.56937425520016,16.77590251940081" style="fill:none;stroke:black;stroke-width:1"/>
<polygon points="12.244998381616782,20.85747944478985 12.18423040066885,20.970172356656676 12.56937425520016,16.77590251940081" style="fill:none;stroke:black;stroke-width:1"/>
<polygon points="12.18423040066885,20.970172356656676 12.13758620689655,21.093448275862066 12.56937425520016,16.77590251940081" style="fill:none;stroke:black;stroke-width:1"/>
<polygon points="12.10693449625726,21.221256809055735 12.091119738764826,21.347190999180324 12.56937425520016,16.77590251940081" style="fill:none;stroke:black;stroke-width:1"/>
<polygon points="12.13758620689655,21.093448275862066 12.10693449625726,21.221256809055735 12.56937425520016,16.77590251940081" style="fill:none;stroke:black;stroke-width:1"/>
<polygon points="16.549707205288932,23.456977506983144 12.85132405687519,22.199895457447475 16.722236702824933,23.40237177403891" style="fill:none;stroke:black;stroke-width:1"/>
<polygon points="12.85132405687519,22.199895457447475 12.951762535665017,22.193405935418827 16.722236702824933,23.40237177403891" style="fill:none;stroke:black;stroke-width:1"/>
<polygon points="16.892748913712897,23.36220103372076 13.053942026359607,22.175313496709464 17.063261124600857,23.322030293402605" style="fill:none;stroke:black;stroke-width:1"/>
<polygon points="12.951762535665017,22.193405935418827 13.053942026359607,22.175313496709464 16.892748913712897,23.36220103372076" style="fill:none;stroke:black;stroke-width:1"/>
<polygon points="17.063261124600857,23.322030293402605 13.053942026359607,22.175313496709464 17.233773335488817,23.281859553084452" style="fill:none;stroke:black;stroke-width:1"/>
<polygon points="14.482910637194118,7.824424875225269 15.223134390109351,6.544357953150722 15.37286681682665,6.718972333193989" style="fill:none;stroke:black;stroke-width:1"/>
<polygon points="14.482910637194118,7.824424875225269 14.345354725906885,7.666528406371055 15.223134390109351,6.544357953150722" style="fill:none;stroke:black;stroke-width:1"/>
<polygon points="14.482910637194118,7.824424875225269 15.37286681682665,6.718972333193989 15.514231485414566,6.909628708019172" style="fill:none;stroke:black;stroke-width:1"/>
<polygon points="14.345354725906885,7.666528406371055 14.482910637194118,7.824424875225269 14.858390982316195,8.761293353938026" style="fill:none;stroke:black;stroke-width:1"/>
<polygon points="13.098983494028156,20.438813982967204 13.001464698911844,20.434350238982915 13.439537698558873,14.60677057757599" style="fill:none;stroke:black;stroke-width:1"/>
<polygon points="13.001464698911844,20.434350238982915 12.901197972961313,20.440896812574977 13.439537698558873,14.60677057757599" style="fill:none;stroke:black;stroke-width:1"/>
<polygon points="16.39189727670203,23.55752477484623 12.659834892738349,22.180548944727935 16.549707205288932,23.456977506983144" style="fill:none;stroke:black;stroke-width:1"/>
<polygon points="12.659834892738349,22.180548944727935 16.39189727670203,23.55752477484623 12.571020100895073,22.156522632674417" style="fill:none;stroke:black;stroke-width:1"/>
<polygon points="13.156996962926097,22.14535378712906 17.404285546376784,23.2416888127663 17.233773335488817,23.281859553084452" style="fill:none;stroke:black;stroke-width:1"/>
<polygon points="13.053942026359607,22.175313496709464 13.156996962926097,22.14535378712906 17.233773335488817,23.281859553084452" style="fill:none;stroke:black;stroke-width:1"/>
<polygon points="17.404285546376784,23.2416888127663 13.156996962926097,22.14535378712906 17.57479775726474,23.201518072448145" style="fill:none;stroke:black;stroke-width:1"/>
<polygon points="15.645035230054345,7.116393137569924 14.601120759658489,7.9939247482144555 15.514231485414566,6.909628708019172" style="fill:none;stroke:black;stroke-width:1"/>
<polygon points="14.601120759658489,7.9939247482144555 14.482910637194118,7.824424875225269 15.514231485414566,6.909628708019172" style="fill:none;stroke:black;stroke-width:1"/>
<polygon points="14.482910637194118,7.824424875225269 14.601120759658489,7.9939247482144555 14.858390982316195,8.761293353938026" style="fill:none;stroke:black;stroke-width:1"/>
<polygon points="12.753649559213146,22.195346785074097 12.85132405687519,22.199895457447475 16.549707205288932,23.456977506983144" style="fill:none;stroke:black;stroke-width:1"/>
<polygon points="12.659834892738349,22.180548944727935 12.753649559213146,22.195346785074097 16.549707205288932,23.456977506983144" style="fill:none;stroke:black;stroke-width:1"/>
<polygon points="13.259198279353246,22.1011005384877 17.915832916831853,23.12114747005083 17.745309968152704,23.161347332129992" style="fill:none;stroke:black;stroke-width:1"/>
<polygon points="17.915832916831853,23.12114747005083 13.259198279353246,22.1011005384877 13.357638595548153,22.041267304403227" style="fill:none;stroke:black;stroke-width:1"/>
<polygon points="17.57479775726474,23.201518072448145 13.259198279353246,22.1011005384877 17.745309968152704,23.161347332129992" style="fill:none;stroke:black;stroke-width:1"/>
<polygon points="13.156996962926097,22.14535378712906 13.259198279353246,22.1011005384877 17.57479775726474,23.201518072448145" style="fill:none;stroke:black;stroke-width:1"/>
<polygon points="14.698879474351443,8.173694778959472 15.645035230054345,7.116393137569924 15.763084884927228,7.339331681789892" style="fill:none;stroke:black;stroke-width:1"/>
<polygon points="14.698879474351443,8.173694778959472 14.601120759658489,7.9939247482144555 15.645035230054345,7.116393137569924" style="fill:none;stroke:black;stroke-width:1"/>
<polygon points="14.698879474351443,8.173694778959472 15.763084884927228,7.339331681789892 15.86618736572531,7.578510399609275" style="fill:none;stroke:black;stroke-width:1"/>
<polygon points="14.601120759658489,7.9939247482144555 14.828620204628859,8.558712328200404 14.858390982316195,8.761293353938026" style="fill:none;stroke:black;stroke-width:1"/>
<polygon points="14.698879474351443,8.173694778959472 14.828620204628859,8.558712328200404 14.601120759658489,7.9939247482144555" style="fill:none;stroke:black;stroke-width:1"/>
<polygon points="14.828620204628859,8.558712328200404 16.01319814939123,8.098962029194784 14.858390982316195,8.761293353938026" style="fill:none;stroke:black;stroke-width:1"/>
<polygon points="14.828620204628859,8.558712328200404 15.95110905869939,7.8326357259654085 16.01319814939123,8.098962029194784" style="fill:none;stroke:black;stroke-width:1"/>
<polygon points="15.95110905869939,7.8326357259654085 14.775081162324419,8.36240172108117 15.86618736572531,7.578510399609275" style="fill:none;stroke:black;stroke-width:1"/>
<polygon points="14.828620204628859,8.558712328200404 14.775081162324419,8.36240172108117 15.95110905869939,7.8326357259654085" style="fill:none;stroke:black;stroke-width:1"/>
<polygon points="14.775081162324419,8.36240172108117 14.698879474351443,8.173694778959472 15.86618736572531,7.578510399609275" style="fill:none;stroke:black;stroke-width:1"/>
<polygon points="14.775081162324419,8.36240172108117 14.828620204628859,8.558712328200404 14.698879474351443,8.173694778959472" style="fill:none;stroke:black;stroke-width:1"/>
<polygon points="13.761137488609043,21.286456087616546 19.50494809770515,20.95892789359798 13.745322731116609,21.412390277741135" style="fill:none;stroke:black;stroke-width:1"/>
<polygon points="13.745322731116609,21.412390277741135 19.50494809770515,20.95892789359798 18.41692390991515,21.872532244469966" style="fill:none;stroke:black;stroke-width:1"/>
<polygon points="13.607272379557326,21.776760479561066 19.721395231157484,16.901764867379924 18.687638552801666,16.2253931593229" style="fill:none;stroke:black;stroke-width:1"/>
<polygon points="13.607272379557326,21.776760479561066 18.687638552801666,16.2253931593229 13.533790609424063,21.87812137125038" style="fill:none;stroke:black;stroke-width:1"/>
<polygon points="20.40857603896322,17.91392622301521 13.607272379557326,21.776760479561066 13.668610230668556,21.66367782294291" style="fill:none;stroke:black;stroke-width:1"/>
<polygon points="13.607272379557326,21.776760479561066 20.40857603896322,17.91392622301521 19.721395231157484,16.901764867379924" style="fill:none;stroke:black;stroke-width:1"/>
<polygon points="17.414239846041127,15.990329170672167 13.449908805929784,21.96663455081479 13.533790609424063,21.87812137125038" style="fill:none;stroke:black;stroke-width:1"/>
<polygon points="18.687638552801666,16.2253931593229 17.414239846041127,15.990329170672167 13.533790609424063,21.87812137125038" style="fill:none;stroke:black;stroke-width:1"/>
<polygon points="13.449908805929784,21.96663455081479 17.414239846041127,15.990329170672167 13.357638595548153,22.041267304403227" style="fill:none;stroke:black;stroke-width:1"/>
<polygon points="17.414239846041127,15.990329170672167 16.07726101207727,16.27982240444611 13.357638595548153,22.041267304403227" style="fill:none;stroke:black;stroke-width:1"/>
<polygon points="18.998865683352108,23.483143888780344 20.640344827586205,19.152758620689653 20.334220983029105,22.894189901117382" style="fill:none;stroke:black;stroke-width:1"/>
<polygon points="20.640344827586205,19.152758620689653 13.986716848253154,19.531530731319062 14.272551341341602,18.15855948942008" style="fill:none;stroke:black;stroke-width:1"/>
<polygon points="19.01349975740992,19.077752843124074 20.640344827586205,19.152758620689653 19.88060125651946,18.930047048271152" style="fill:none;stroke:black;stroke-width:1"/>
<polygon points="20.640344827586205,19.152758620689653 14.21762567207835,20.964358566134493 13.986716848253154,19.531530731319062" style="fill:none;stroke:black;stroke-width:1"/>
<polygon points="20.640344827586205,19.152758620689653 20.2621024584252,18.184976550595252 20.855277048638126,19.454845268864897" style="fill:none;stroke:black;stroke-width:1"/>
<polygon points="20.640344827586205,19.152758620689653 21.56279708292881,18.268236824838006 20.633185034488385,17.32131206204291" style="fill:none;stroke:black;stroke-width:1"/>
<polygon points="20.640344827586205,19.152758620689653 17.76270918920453,15.628351605270277 16.68544819806334,16.450255172330685" style="fill:none;stroke:black;stroke-width:1"/>
<polygon points="19.337129215004722,16.790197128415684 20.640344827586205,19.152758620689653 20.633185034488385,17.32131206204291" style="fill:none;stroke:black;stroke-width:1"/>
<polygon points="20.640344827586205,19.152758620689653 17.414239846041127,15.990329170672167 18.687638552801666,16.2253931593229" style="fill:none;stroke:black;stroke-width:1"/>
<polygon points="21.882011235068674,19.346961829125682 20.640344827586205,19.152758620689653 20.855277048638126,19.454845268864897" style="fill:none;stroke:black;stroke-width:1"/>
<polygon points="19.104265330045237,17.490173359871097 20.640344827586205,19.152758620689653 17.839128748066305,17.764076260335806" style="fill:none;stroke:black;stroke-width:1"/>
<polygon points="15.983643176847147,17.673161712248167 20.640344827586205,19.152758620689653 16.68544819806334,16.450255172330685" style="fill:none;stroke:black;stroke-width:1"/>
<polygon points="20.640344827586205,19.152758620689653 17.172342750492263,18.784550232183268 17.839128748066305,17.764076260335806" style="fill:none;stroke:black;stroke-width:1"/>
<polygon points="20.640344827586205,19.152758620689653 17.545103573210486,21.292572112782345 19.458184424333297,17.37268082927166" style="fill:none;stroke:black;stroke-width:1"/>
<polygon points="20.640344827586205,19.152758620689653 16.06615017233932,23.095945465556195 14.947911952447438,22.195546966793735" style="fill:none;stroke:black;stroke-width:1"/>
<polygon points="20.640344827586205,19.152758620689653 17.019516677647754,20.149078132994067 16.02049633214409,19.345222088285734" style="fill:none;stroke:black;stroke-width:1"/>
<polygon points="20.640344827586205,19.152758620689653 20.195485897367963,19.67769721580349 19.88060125651946,18.930047048271152" style="fill:none;stroke:black;stroke-width:1"/>
<polygon points="19.50494809770515,20.95892789359798 20.640344827586205,19.152758620689653 18.41692390991515,21.872532244469966" style="fill:none;stroke:black;stroke-width:1"/>
<polygon points="20.640344827586205,19.152758620689653 21.342171445109603,21.896388040897584 20.334220983029105,22.894189901117382" style="fill:none;stroke:black;stroke-width:1"/>
<polygon points="20.2621024584252,18.184976550595252 20.640344827586205,19.152758620689653 19.104265330045237,17.490173359871097" style="fill:none;stroke:black;stroke-width:1"/>
<polygon points="20.640344827586205,19.152758620689653 15.983643176847147,17.673161712248167 16.040143058035582,18.769651182673694" style="fill:none;stroke:black;stroke-width:1"/>
<polygon points="17.172342750492263,18.784550232183268 20.640344827586205,19.152758620689653 16.040143058035582,18.769651182673694" style="fill:none;stroke:black;stroke-width:1"/>
<polygon points="14.997893760014618,17.03862035060016 20.640344827586205,19.152758620689653 14.272551341341602,18.15855948942008" style="fill:none;stroke:black;stroke-width:1"/>
<polygon points="20.640344827586205,19.152758620689653 20.252494571972942,18.801735080208655 17.76270918920453,15.628351605270277" style="fill:none;stroke:black;stroke-width:1"/>
<polygon points="14.21762567207835,20.964358566134493 20.640344827586205,19.152758620689653 14.947911952447438,22.195546966793735" style="fill:none;stroke:black;stroke-width:1"/>
<polygon points="20.640344827586205,19.152758620689653 17.09377801332336,18.574310068332874 17.980759619095558,19.679568437091856" style="fill:none;stroke:black;stroke-width:1"/>
<polygon points="19.721395231157484,16.901764867379924 20.640344827586205,19.152758620689653 18.687638552801666,16.2253931593229" style="fill:none;stroke:black;stroke-width:1"/>
<polygon points="20.40857603896322,17.91392622301521 20.640344827586205,19.152758620689653 19.721395231157484,16.901764867379924" style="fill:none;stroke:black;stroke-width:1"/>
<polygon points="17.019516677647754,20.149078132994067 20.640344827586205,19.152758620689653 18.27127765924765,20.0183397428831" style="fill:none;stroke:black;stroke-width:1"/>
<polygon points="20.640344827586205,19.152758620689653 19.01349975740992,19.077752843124074 18.27127765924765,20.0183397428831" style="fill:none;stroke:black;stroke-width:1"/>
<polygon points="20.640344827586205,19.152758620689653 19.50494809770515,20.95892789359798 20.195485897367963,19.67769721580349" style="fill:none;stroke:black;stroke-width:1"/>
<polygon points="21.56279708292881,18.268236824838006 20.640344827586205,19.152758620689653 21.882011235068674,19.346961829125682" style="fill:none;stroke:black;stroke-width:1"/>
<polygon points="21.342171445109603,21.896388040897584 20.640344827586205,19.152758620689653 21.934045892011138,20.5970288365071" style="fill:none;stroke:black;stroke-width:1"/>
<polygon points="20.640344827586205,19.152758620689653 19.337129215004722,16.790197128415684 21.934045892011138,20.5970288365071" style="fill:none;stroke:black;stroke-width:1"/>
<polygon points="19.400134001291377,19.75195778967819 20.640344827586205,19.152758620689653 17.980759619095558,19.679568437091856" style="fill:none;stroke:black;stroke-width:1"/>
<polygon points="18.459388908839763,16.719281488920405 20.640344827586205,19.152758620689653 19.458184424333297,17.37268082927166" style="fill:none;stroke:black;stroke-width:1"/>
<polygon points="17.545103573210486,21.292572112782345 20.640344827586205,19.152758620689653 16.175277276016608,20.784377307609795" style="fill:none;stroke:black;stroke-width:1"/>
<polygon points="15.494789672608148,18.45173364907824 20.640344827586205,19.152758620689653 16.02049633214409,19.345222088285734" style="fill:none;stroke:black;stroke-width:1"/>
<polygon points="16.06615017233932,23.095945465556195 20.640344827586205,19.152758620689653 17.463267855283956,23.55783358077332" style="fill:none;stroke:black;stroke-width:1"/>
<polygon points="20.640344827586205,19.152758620689653 18.998865683352108,23.483143888780344 17.463267855283956,23.55783358077332" style="fill:none;stroke:black;stroke-width:1"/>
<polygon points="20.640344827586205,19.152758620689653 15.138856317896556,19.839267731392965 16.175277276016608,20.784377307609795" style="fill:none;stroke:black;stroke-width:1"/>
<polygon points="17.414239846041127,15.990329170672167 20.640344827586205,19.152758620689653 16.07726101207727,16.27982240444611" style="fill:none;stroke:black;stroke-width:1"/>
<polygon points="20.640344827586205,19.152758620689653 14.997893760014618,17.03862035060016 16.07726101207727,16.27982240444611" style="fill:none;stroke:black;stroke-width:1"/>
<polygon points="20.252494571972942,18.801735080208655 20.640344827586205,19.152758620689653 19.400134001291377,19.75195778967819" style="fill:none;stroke:black;stroke-width:1"/>
<polygon points="20.640344827586205,19.152758620689653 18.459388908839763,16.719281488920405 17.342337001278633,17.24429849226172" style="fill:none;stroke:black;stroke-width:1"/>
<polygon points="17.09377801332336,18.574310068332874 20.640344827586205,19.152758620689653 17.342337001278633,17.24429849226172" style="fill:none;stroke:black;stroke-width:1"/>
<polygon points="20.640344827586205,19.152758620689653 15.494789672608148,18.45173364907824 14.570920068750436,18.590564838303727" style="fill:none;stroke:black;stroke-width:1"/>
<polygon points="15.138856317896556,19.839267731392965 20.640344827586205,19.152758620689653 14.570920068750436,18.590564838303727" style="fill:none;stroke:black;stroke-width:1"/>
<polygon points="20.640344827586205,19.152758620689653 13.714757024699306,21.540296541180055 13.745322731116609,21.412390277741135" style="fill:none;stroke:black;stroke-width:1"/>
<polygon points="20.640344827586205,19.152758620689653 13.745322731116609,21.412390277741135 18.41692390991515,21.872532244469966" style="fill:none;stroke:black;stroke-width:1"/>
<polygon points="13.714757024699306,21.540296541180055 20.640344827586205,19.152758620689653 13.668610230668556,21.66367782294291" style="fill:none;stroke:black;stroke-width:1"/>
<polygon points="20.640344827586205,19.152758620689653 20.40857603896322,17.91392622301521 13.668610230668556,21.66367782294291" style="fill:none;stroke:black;stroke-width:1"/>
<polygon points="13.259198279353246,22.1011005384877 13.637752985126568,20.746833329778944 13.68643340628548,20.837310995395953" style="fill:none;stroke:black;stroke-width:1"/>
<polygon points="13.724212191417582,20.93802597865781 13.259198279353246,22.1011005384877 13.68643340628548,20.837310995395953" style="fill:none;stroke:black;stroke-width:1"/>
<polygon points="13.259198279353246,22.1011005384877 12.089790023134452,21.469406062676637 12.091119738764826,21.347190999180324" style="fill:none;stroke:black;stroke-width:1"/>
<polygon points="13.259198279353246,22.1011005384877 13.449908805929784,21.96663455081479 13.357638595548153,22.041267304403227" style="fill:none;stroke:black;stroke-width:1"/>
<polygon points="13.259198279353246,22.1011005384877 13.749892227055646,21.04753121796277 13.762467204239417,21.164241024120233" style="fill:none;stroke:black;stroke-width:1"/>
<polygon points="13.761137488609043,21.286456087616546 13.259198279353246,22.1011005384877 13.762467204239417,21.164241024120233" style="fill:none;stroke:black;stroke-width:1"/>
<polygon points="13.259198279353246,22.1011005384877 13.579539966720525,20.667878594793798 13.637752985126568,20.746833329778944" style="fill:none;stroke:black;stroke-width:1"/>
<polygon points="13.259198279353246,22.1011005384877 13.714757024699306,21.540296541180055 13.668610230668556,21.66367782294291" style="fill:none;stroke:black;stroke-width:1"/>
<polygon points="13.449908805929784,21.96663455081479 13.259198279353246,22.1011005384877 13.533790609424063,21.87812137125038" style="fill:none;stroke:black;stroke-width:1"/>
<polygon points="13.607272379557326,21.776760479561066 13.259198279353246,22.1011005384877 13.668610230668556,21.66367782294291" style="fill:none;stroke:black;stroke-width:1"/>
<polygon points="13.259198279353246,22.1011005384877 12.214504242247305,21.886813757017926 12.165823821088388,21.796336091400917" style="fill:none;stroke:black;stroke-width:1"/>
<polygon points="13.749892227055646,21.04753121796277 13.259198279353246,22.1011005384877 13.724212191417582,20.93802597865781" style="fill:none;stroke:black;stroke-width:1"/>
<polygon points="13.714757024699306,21.540296541180055 13.259198279353246,22.1011005384877 13.745322731116609,21.412390277741135" style="fill:none;stroke:black;stroke-width:1"/>
<polygon points="13.259198279353246,22.1011005384877 13.761137488609043,21.286456087616546 13.745322731116609,21.412390277741135" style="fill:none;stroke:black;stroke-width:1"/>
<polygon points="13.28134969813545,20.477384648111737 13.259198279353246,22.1011005384877 13.192658508250782,20.453499018098626" style="fill:none;stroke:black;stroke-width:1"/>
<polygon points="13.259198279353246,22.1011005384877 13.363902211260816,20.509214794790942 13.440720005622982,20.548754342172863" style="fill:none;stroke:black;stroke-width:1"/>
<polygon points="12.31826983987482,20.75648403372884 13.259198279353246,22.1011005384877 12.244998381616782,20.85747944478985" style="fill:none;stroke:black;stroke-width:1"/>
<polygon points="13.259198279353246,22.1011005384877 13.607272379557326,21.776760479561066 13.533790609424063,21.87812137125038" style="fill:none;stroke:black;stroke-width:1"/>
<polygon points="13.259198279353246,22.1011005384877 12.488360036104659,22.124523927129147 12.411537221750889,22.08489274462401" style="fill:none;stroke:black;stroke-width:1"/>
<polygon points="13.259198279353246,22.1011005384877 13.098983494028156,20.438813982967204 13.192658508250782,20.453499018098626" style="fill:none;stroke:black;stroke-width:1"/>
<polygon points="13.259198279353246,22.1011005384877 12.494708912494735,20.59372225530195 12.593533786375058,20.533780306456457" style="fill:none;stroke:black;stroke-width:1"/>
<polygon points="13.259198279353246,22.1011005384877 12.659834892738349,22.180548944727935 12.571020100895073,22.156522632674417" style="fill:none;stroke:black;stroke-width:1"/>
<polygon points="12.338943502773747,22.032096406868863 13.259198279353246,22.1011005384877 12.411537221750889,22.08489274462401" style="fill:none;stroke:black;stroke-width:1"/>
<polygon points="13.259198279353246,22.1011005384877 12.272717260653348,21.965768492003072 12.214504242247305,21.886813757017926" style="fill:none;stroke:black;stroke-width:1"/>
<polygon points="13.259198279353246,22.1011005384877 13.001464698911844,20.434350238982915 13.098983494028156,20.438813982967204" style="fill:none;stroke:black;stroke-width:1"/>
<polygon points="13.513313724600124,20.601550679928003 13.259198279353246,22.1011005384877 13.440720005622982,20.548754342172863" style="fill:none;stroke:black;stroke-width:1"/>
<polygon points="12.696205137407354,20.489132889065637 13.259198279353246,22.1011005384877 12.593533786375058,20.533780306456457" style="fill:none;stroke:black;stroke-width:1"/>
<polygon points="12.494708912494735,20.59372225530195 13.259198279353246,22.1011005384877 12.402196027814329,20.668241964092296" style="fill:none;stroke:black;stroke-width:1"/>
<polygon points="13.259198279353246,22.1011005384877 12.31826983987482,20.75648403372884 12.402196027814329,20.668241964092296" style="fill:none;stroke:black;stroke-width:1"/>
<polygon points="12.128045035956287,21.695621108139065 13.259198279353246,22.1011005384877 12.165823821088388,21.796336091400917" style="fill:none;stroke:black;stroke-width:1"/>
<polygon points="13.259198279353246,22.1011005384877 12.18423040066885,20.970172356656676 12.244998381616782,20.85747944478985" style="fill:none;stroke:black;stroke-width:1"/>
<polygon points="12.272717260653348,21.965768492003072 13.259198279353246,22.1011005384877 12.338943502773747,22.032096406868863" style="fill:none;stroke:black;stroke-width:1"/>
<polygon points="12.488360036104659,22.124523927129147 13.259198279353246,22.1011005384877 12.571020100895073,22.156522632674417" style="fill:none;stroke:black;stroke-width:1"/>
<polygon points="12.10693449625726,21.221256809055735 13.259198279353246,22.1011005384877 12.091119738764826,21.347190999180324" style="fill:none;stroke:black;stroke-width:1"/>
<polygon points="13.363902211260816,20.509214794790942 13.259198279353246,22.1011005384877 13.28134969813545,20.477384648111737" style="fill:none;stroke:black;stroke-width:1"/>
<polygon points="13.579539966720525,20.667878594793798 13.259198279353246,22.1011005384877 13.513313724600124,20.601550679928003" style="fill:none;stroke:black;stroke-width:1"/>
<polygon points="13.259198279353246,22.1011005384877 12.696205137407354,20.489132889065637 12.799206285399578,20.45901842602211" style="fill:none;stroke:black;stroke-width:1"/>
<polygon points="12.901197972961313,20.440896812574977 13.259198279353246,22.1011005384877 12.799206285399578,20.45901842602211" style="fill:none;stroke:black;stroke-width:1"/>
<polygon points="13.259198279353246,22.1011005384877 12.128045035956287,21.695621108139065 12.102365000318223,21.586115868834103" style="fill:none;stroke:black;stroke-width:1"/>
<polygon points="12.089790023134452,21.469406062676637 13.259198279353246,22.1011005384877 12.102365000318223,21.586115868834103" style="fill:none;stroke:black;stroke-width:1"/>
<polygon points="12.18423040066885,20.970172356656676 13.259198279353246,22.1011005384877 12.13758620689655,21.093448275862066" style="fill:none;stroke:black;stroke-width:1"/>
<polygon points="13.259198279353246,22.1011005384877 12.10693449625726,21.221256809055735 12.13758620689655,21.093448275862066" style="fill:none;stroke:black;stroke-width:1"/>
<polygon points="12.85132405687519,22.199895457447475 13.259198279353246,22.1011005384877 12.951762535665017,22.193405935418827" style="fill:none;stroke:black;stroke-width:1"/>
<polygon points="13.259198279353246,22.1011005384877 13.053942026359607,22.175313496709464 12.951762535665017,22.193405935418827" style="fill:none;stroke:black;stroke-width:1"/>
<polygon points="13.001464698911844,20.434350238982915 13.259198279353246,22.1011005384877 12.901197972961313,20.440896812574977" style="fill:none;stroke:black;stroke-width:1"/>
<polygon points="12.753649559213146,22.195346785074097 13.259198279353246,22.1011005384877 12.85132405687519,22.199895457447475" style="fill:none;stroke:black;stroke-width:1"/>
<polygon points="13.259198279353246,22.1011005384877 13.156996962926097,22.14535378712906 13.053942026359607,22.175313496709464" style="fill:none;stroke:black;stroke-width:1"/>
<polygon points="13.259198279353246,22.1011005384877 12.753649559213146,22.195346785074097 12.659834892738349,22.180548944727935" style="fill:none;stroke:black;stroke-width:1"/>
</svg>
