<?xml version="1.0" encoding="UTF-8" standalone="no"?>
<svg xmlns="http://www.w3.org/2000/svg" version="1.1" width="800" height="800">
<polygon points="15.765195160727705,21.414484246207646 17.483468924492477,19.82095753971535 18.471871666450674,21.5343289338418" style="fill:none;stroke:black;stroke-width:1"/>
<polygon points="15.04720816101177,11.796435827721448 12.902364606767708,11.494466145395865 13.558756643686598,9.739972999196237" style="fill:none;stroke:black;stroke-width:1"/>
<polygon points="22.14027794289351,6.317909288083252 22.187146674452322,4.599347872716196 23.866047133173346,6.364437206283831" style="fill:none;stroke:black;stroke-width:1"/>
<polygon points="18.085985696176774,4.260788143484205 12.525278484545359,6.384189791303503 17.745220130209212,2.8262168835617185" style="fill:none;stroke:black;stroke-width:1"/>
<polygon points="12.276559525536168,9.103137490853355 12.419655172413794,10.301724137931034 11.014568806373187,7.97474271101577" style="fill:none;stroke:black;stroke-width:1"/>
<polygon points="12.902364606767708,11.494466145395865 12.419655172413794,10.301724137931034 13.558756643686598,9.739972999196237" style="fill:none;stroke:black;stroke-width:1"/>
<polygon points="12.419655172413794,10.301724137931034 12.276559525536168,9.103137490853355 13.558756643686598,9.739972999196237" style="fill:none;stroke:black;stroke-width:1"/>
<polygon points="11.239298203637485,5.5905934747078305 11.594669625953138,6.942772384545289 11.014568806373187,7.97474271101577" style="fill:none;stroke:black;stroke-width:1"/>
<polygon points="11.594669625953138,6.942772384545289 12.276559525536168,9.103137490853355 11.014568806373187,7.97474271101577" style="fill:none;stroke:black;stroke-width:1"/>
<polygon points="13.178013880466628,4.235385530857197 11.594669625953138,6.942772384545289 11.239298203637485,5.5905934747078305" style="fill:none;stroke:black;stroke-width:1"/>
<polygon points="20.61601507468618,20.411232136309536 19.746904596697455,18.997616952952892 21.835084708766768,17.582528958989464" style="fill:none;stroke:black;stroke-width:1"/>
<polygon points="19.746904596697455,18.997616952952892 20.61601507468618,20.411232136309536 18.471871666450674,21.5343289338418" style="fill:none;stroke:black;stroke-width:1"/>
<polygon points="17.483468924492477,19.82095753971535 19.746904596697455,18.997616952952892 18.471871666450674,21.5343289338418" style="fill:none;stroke:black;stroke-width:1"/>
<polygon points="20.262839745049522,16.10827750866007 21.88695408257937,15.643351251150072 21.835084708766768,17.582528958989464" style="fill:none;stroke:black;stroke-width:1"/>
<polygon points="19.746904596697455,18.997616952952892 20.262839745049522,16.10827750866007 21.835084708766768,17.582528958989464" style="fill:none;stroke:black;stroke-width:1"/>
<polygon points="16.046509860842786,9.803661553273255 15.04720816101177,11.796435827721448 13.558756643686598,9.739972999196237" style="fill:none;stroke:black;stroke-width:1"/>
<polygon points="15.04720816101177,11.796435827721448 16.046509860842786,9.803661553273255 17.566442291633557,11.743147906849616" style="fill:none;stroke:black;stroke-width:1"/>
<polygon points="22.14027794289351,6.317909288083252 20.031173036340128,5.246980309332592 22.187146674452322,4.599347872716196" style="fill:none;stroke:black;stroke-width:1"/>
<polygon points="17.745220130209212,2.8262168835617185 15.714093168020643,3.6644172597004747 15.271118115714609,3.1412612119877394" style="fill:none;stroke:black;stroke-width:1"/>
<polygon points="13.744336333086228,5.053883549054627 11.594669625953138,6.942772384545289 13.178013880466628,4.235385530857197" style="fill:none;stroke:black;stroke-width:1"/>
<polygon points="11.594669625953138,6.942772384545289 13.744336333086228,5.053883549054627 12.276559525536168,9.103137490853355" style="fill:none;stroke:black;stroke-width:1"/>
<polygon points="13.744336333086228,5.053883549054627 13.178013880466628,4.235385530857197 15.271118115714609,3.1412612119877394" style="fill:none;stroke:black;stroke-width:1"/>
<polygon points="23.662850709604477,8.863849245615045 22.14027794289351,6.317909288083252 23.866047133173346,6.364437206283831" style="fill:none;stroke:black;stroke-width:1"/>
<polygon points="21.88695408257937,15.643351251150072 23.662850709604477,8.863849245615045 21.835084708766768,17.582528958989464" style="fill:none;stroke:black;stroke-width:1"/>
<polygon points="23.662850709604477,8.863849245615045 21.88695408257937,15.643351251150072 22.20521598556711,13.248653336099265" style="fill:none;stroke:black;stroke-width:1"/>
<polygon points="12.464289570881604,12.8350778091885 12.419655172413794,10.301724137931034 12.902364606767708,11.494466145395865" style="fill:none;stroke:black;stroke-width:1"/>
<polygon points="12.419655172413794,10.301724137931034 12.464289570881604,12.8350778091885 11.014568806373187,7.97474271101577" style="fill:none;stroke:black;stroke-width:1"/>
<polygon points="20.098261693484794,11.698508249893958 19.28680889466931,12.588291776706736 17.566442291633557,11.743147906849616" style="fill:none;stroke:black;stroke-width:1"/>
<polygon points="20.262839745049522,16.10827750866007 20.32621736133124,13.9583444247909 21.88695408257937,15.643351251150072" style="fill:none;stroke:black;stroke-width:1"/>
<polygon points="21.88695408257937,15.643351251150072 20.32621736133124,13.9583444247909 22.20521598556711,13.248653336099265" style="fill:none;stroke:black;stroke-width:1"/>
<polygon points="20.32621736133124,13.9583444247909 20.098261693484794,11.698508249893958 22.20521598556711,13.248653336099265" style="fill:none;stroke:black;stroke-width:1"/>
<polygon points="20.098261693484794,11.698508249893958 20.32621736133124,13.9583444247909 19.28680889466931,12.588291776706736" style="fill:none;stroke:black;stroke-width:1"/>
<polygon points="20.598034639136188,23.495648479531216 19.746904596697455,18.997616952952892 17.483468924492477,19.82095753971535" style="fill:none;stroke:black;stroke-width:1"/>
<polygon points="19.746904596697455,18.997616952952892 20.598034639136188,23.495648479531216 20.73049533185668,23.38312405337762" style="fill:none;stroke:black;stroke-width:1"/>
<polygon points="19.1382329945478,24.134135825418966 19.302168887589325,24.076883596375755 17.483468924492477,19.82095753971535" style="fill:none;stroke:black;stroke-width:1"/>
<polygon points="14.651783300231951,9.42083997962959 16.046509860842786,9.803661553273255 13.558756643686598,9.739972999196237" style="fill:none;stroke:black;stroke-width:1"/>
<polygon points="12.276559525536168,9.103137490853355 14.651783300231951,9.42083997962959 13.558756643686598,9.739972999196237" style="fill:none;stroke:black;stroke-width:1"/>
<polygon points="13.744336333086228,5.053883549054627 14.651783300231951,9.42083997962959 12.276559525536168,9.103137490853355" style="fill:none;stroke:black;stroke-width:1"/>
<polygon points="16.046509860842786,9.803661553273255 18.54880887372938,9.865635598904223 17.566442291633557,11.743147906849616" style="fill:none;stroke:black;stroke-width:1"/>
<polygon points="18.54880887372938,9.865635598904223 20.098261693484794,11.698508249893958 17.566442291633557,11.743147906849616" style="fill:none;stroke:black;stroke-width:1"/>
<polygon points="20.098261693484794,11.698508249893958 18.54880887372938,9.865635598904223 20.52913379939835,9.55566860931915" style="fill:none;stroke:black;stroke-width:1"/>
<polygon points="20.031173036340128,5.246980309332592 19.874627796569282,4.094601203834592 22.187146674452322,4.599347872716196" style="fill:none;stroke:black;stroke-width:1"/>
<polygon points="19.874627796569282,4.094601203834592 20.031173036340128,5.246980309332592 18.085985696176774,4.260788143484205" style="fill:none;stroke:black;stroke-width:1"/>
<polygon points="22.187146674452322,4.599347872716196 19.874627796569282,4.094601203834592 17.745220130209212,2.8262168835617185" style="fill:none;stroke:black;stroke-width:1"/>
<polygon points="19.874627796569282,4.094601203834592 18.085985696176774,4.260788143484205 17.745220130209212,2.8262168835617185" style="fill:none;stroke:black;stroke-width:1"/>
<polygon points="21.834863600366468,8.677368042505115 20.031173036340128,5.246980309332592 22.14027794289351,6.317909288083252" style="fill:none;stroke:black;stroke-width:1"/>
<polygon points="23.662850709604477,8.863849245615045 21.834863600366468,8.677368042505115 22.14027794289351,6.317909288083252" style="fill:none;stroke:black;stroke-width:1"/>
<polygon points="22.248455573983144,10.702088217564528 23.662850709604477,8.863849245615045 22.20521598556711,13.248653336099265" style="fill:none;stroke:black;stroke-width:1"/>
<polygon points="20.098261693484794,11.698508249893958 22.248455573983144,10.702088217564528 22.20521598556711,13.248653336099265" style="fill:none;stroke:black;stroke-width:1"/>
<polygon points="22.248455573983144,10.702088217564528 20.098261693484794,11.698508249893958 20.52913379939835,9.55566860931915" style="fill:none;stroke:black;stroke-width:1"/>
<polygon points="21.834863600366468,8.677368042505115 22.248455573983144,10.702088217564528 20.52913379939835,9.55566860931915" style="fill:none;stroke:black;stroke-width:1"/>
<polygon points="22.248455573983144,10.702088217564528 21.834863600366468,8.677368042505115 23.662850709604477,8.863849245615045" style="fill:none;stroke:black;stroke-width:1"/>
<polygon points="14.883513375497145,19.534154656950452 16.862396542987874,12.612958413003266 17.566442291633557,11.743147906849616" style="fill:none;stroke:black;stroke-width:1"/>
<polygon points="13.364023269664115,21.68396183449248 16.862396542987874,12.612958413003266 13.375132047433322,21.764736639856988" style="fill:none;stroke:black;stroke-width:1"/>
<polygon points="16.862396542987874,12.612958413003266 15.04720816101177,11.796435827721448 17.566442291633557,11.743147906849616" style="fill:none;stroke:black;stroke-width:1"/>
<polygon points="20.598034639136188,23.495648479531216 20.260689655172413,22.083793103448276 20.73049533185668,23.38312405337762" style="fill:none;stroke:black;stroke-width:1"/>
<polygon points="20.784947639671202,22.327265158443353 21.14564632005593,23.806378951235402 20.262839745049522,16.10827750866007" style="fill:none;stroke:black;stroke-width:1"/>
<polygon points="20.970064856602725,22.87463805250436 20.262839745049522,16.10827750866007 19.746904596697455,18.997616952952892" style="fill:none;stroke:black;stroke-width:1"/>
<polygon points="20.970064856602725,22.87463805250436 20.959148162604983,22.67466323680863 20.262839745049522,16.10827750866007" style="fill:none;stroke:black;stroke-width:1"/>
<polygon points="20.927703801378236,23.066647674462786 20.970064856602725,22.87463805250436 19.746904596697455,18.997616952952892" style="fill:none;stroke:black;stroke-width:1"/>
<polygon points="13.67109810541903,19.84383065967711 15.0285209495055,19.132136239829826 15.765195160727705,21.414484246207646" style="fill:none;stroke:black;stroke-width:1"/>
<polygon points="15.0285209495055,19.132136239829826 17.483468924492477,19.82095753971535 15.765195160727705,21.414484246207646" style="fill:none;stroke:black;stroke-width:1"/>
<polygon points="14.651783300231951,9.42083997962959 17.098502072021464,9.367211926862442 16.046509860842786,9.803661553273255" style="fill:none;stroke:black;stroke-width:1"/>
<polygon points="17.098502072021464,9.367211926862442 18.54880887372938,9.865635598904223 16.046509860842786,9.803661553273255" style="fill:none;stroke:black;stroke-width:1"/>
<polygon points="12.716428318048843,6.417462162267769 12.525278484545359,6.384189791303503 18.085985696176774,4.260788143484205" style="fill:none;stroke:black;stroke-width:1"/>
<polygon points="12.900081400444401,6.461073096414804 12.716428318048843,6.417462162267769 18.085985696176774,4.260788143484205" style="fill:none;stroke:black;stroke-width:1"/>
<polygon points="13.243250501959551,6.577314520981801 13.075826029243984,6.514523560425761 18.085985696176774,4.260788143484205" style="fill:none;stroke:black;stroke-width:1"/>
<polygon points="13.075826029243984,6.514523560425761 12.900081400444401,6.461073096414804 18.085985696176774,4.260788143484205" style="fill:none;stroke:black;stroke-width:1"/>
<polygon points="20.32621736133124,13.9583444247909 16.612609668718648,13.434376575497375 19.28680889466931,12.588291776706736" style="fill:none;stroke:black;stroke-width:1"/>
<polygon points="14.881578249893643,14.644775665580132 16.612609668718648,13.434376575497375 20.32621736133124,13.9583444247909" style="fill:none;stroke:black;stroke-width:1"/>
<polygon points="15.0285209495055,19.132136239829826 18.39070019504961,24.26420311088941 17.483468924492477,19.82095753971535" style="fill:none;stroke:black;stroke-width:1"/>
<polygon points="13.740445258171682,14.449445661791607 13.787899470156537,16.527533389185518 12.903659070872525,17.299660052916465" style="fill:none;stroke:black;stroke-width:1"/>
<polygon points="13.787899470156537,16.527533389185518 13.67109810541903,19.84383065967711 12.903659070872525,17.299660052916465" style="fill:none;stroke:black;stroke-width:1"/>
<polygon points="14.431604336703654,12.650639479047989 12.464289570881604,12.8350778091885 12.902364606767708,11.494466145395865" style="fill:none;stroke:black;stroke-width:1"/>
<polygon points="15.04720816101177,11.796435827721448 14.431604336703654,12.650639479047989 12.902364606767708,11.494466145395865" style="fill:none;stroke:black;stroke-width:1"/>
<polygon points="20.959148162604983,22.67466323680863 20.895028875466014,22.488263866974492 20.262839745049522,16.10827750866007" style="fill:none;stroke:black;stroke-width:1"/>
<polygon points="20.895028875466014,22.488263866974492 20.784947639671202,22.327265158443353 20.262839745049522,16.10827750866007" style="fill:none;stroke:black;stroke-width:1"/>
<polygon points="20.895028875466014,22.488263866974492 20.927703801378236,23.066647674462786 20.784947639671202,22.327265158443353" style="fill:none;stroke:black;stroke-width:1"/>
<polygon points="20.970064856602725,22.87463805250436 20.895028875466014,22.488263866974492 20.959148162604983,22.67466323680863" style="fill:none;stroke:black;stroke-width:1"/>
<polygon points="20.895028875466014,22.488263866974492 20.970064856602725,22.87463805250436 20.927703801378236,23.066647674462786" style="fill:none;stroke:black;stroke-width:1"/>
<polygon points="20.784947639671202,22.327265158443353 20.636675033845545,22.1999543126162 21.14564632005593,23.806378951235402" style="fill:none;stroke:black;stroke-width:1"/>
<polygon points="20.636675033845545,22.1999543126162 20.260689655172413,22.083793103448276 20.45798163661405,22.114618530894003" style="fill:none;stroke:black;stroke-width:1"/>
<polygon points="20.260689655172413,22.083793103448276 20.636675033845545,22.1999543126162 20.73049533185668,23.38312405337762" style="fill:none;stroke:black;stroke-width:1"/>
<polygon points="20.842604516453356,23.238079482317254 19.746904596697455,18.997616952952892 20.73049533185668,23.38312405337762" style="fill:none;stroke:black;stroke-width:1"/>
<polygon points="20.842604516453356,23.238079482317254 20.927703801378236,23.066647674462786 19.746904596697455,18.997616952952892" style="fill:none;stroke:black;stroke-width:1"/>
<polygon points="20.927703801378236,23.066647674462786 20.842604516453356,23.238079482317254 20.784947639671202,22.327265158443353" style="fill:none;stroke:black;stroke-width:1"/>
<polygon points="20.636675033845545,22.1999543126162 20.842604516453356,23.238079482317254 20.73049533185668,23.38312405337762" style="fill:none;stroke:black;stroke-width:1"/>
<polygon points="20.842604516453356,23.238079482317254 20.636675033845545,22.1999543126162 20.784947639671202,22.327265158443353" style="fill:none;stroke:black;stroke-width:1"/>
<polygon points="21.834863600366468,8.677368042505115 14.738508902820302,8.449138180394238 20.031173036340128,5.246980309332592" style="fill:none;stroke:black;stroke-width:1"/>
<polygon points="13.72041124586186,9.007920055520621 14.738508902820302,8.449138180394238 14.745816197596925,8.70621801870817" style="fill:none;stroke:black;stroke-width:1"/>
<polygon points="19.54522084381099,9.313583874095293 21.834863600366468,8.677368042505115 20.52913379939835,9.55566860931915" style="fill:none;stroke:black;stroke-width:1"/>
<polygon points="18.54880887372938,9.865635598904223 19.54522084381099,9.313583874095293 20.52913379939835,9.55566860931915" style="fill:none;stroke:black;stroke-width:1"/>
<polygon points="19.54522084381099,9.313583874095293 14.738508902820302,8.449138180394238 21.834863600366468,8.677368042505115" style="fill:none;stroke:black;stroke-width:1"/>
<polygon points="14.738508902820302,8.449138180394238 19.54522084381099,9.313583874095293 14.745816197596925,8.70621801870817" style="fill:none;stroke:black;stroke-width:1"/>
<polygon points="17.098502072021464,9.367211926862442 19.54522084381099,9.313583874095293 18.54880887372938,9.865635598904223" style="fill:none;stroke:black;stroke-width:1"/>
<polygon points="12.547269719051782,7.981590888730652 12.716428318048843,6.417462162267769 12.900081400444401,6.461073096414804" style="fill:none;stroke:black;stroke-width:1"/>
<polygon points="13.401943116103052,6.648946944764079 13.243250501959551,6.577314520981801 18.085985696176774,4.260788143484205" style="fill:none;stroke:black;stroke-width:1"/>
<polygon points="20.031173036340128,5.246980309332592 13.990382331571672,7.04378402445041 18.085985696176774,4.260788143484205" style="fill:none;stroke:black;stroke-width:1"/>
<polygon points="14.134271656508517,7.186167044405859 13.990382331571672,7.04378402445041 20.031173036340128,5.246980309332592" style="fill:none;stroke:black;stroke-width:1"/>
<polygon points="18.654857546407776,15.838351074679684 16.64997753173671,16.356881813696045 20.32621736133124,13.9583444247909" style="fill:none;stroke:black;stroke-width:1"/>
<polygon points="16.862396542987874,12.612958413003266 13.377321304816954,21.85388743238547 13.375132047433322,21.764736639856988" style="fill:none;stroke:black;stroke-width:1"/>
<polygon points="17.55280723175484,23.85762459664904 15.0285209495055,19.132136239829826 13.67109810541903,19.84383065967711" style="fill:none;stroke:black;stroke-width:1"/>
<polygon points="13.787899470156537,16.527533389185518 17.55280723175484,23.85762459664904 13.67109810541903,19.84383065967711" style="fill:none;stroke:black;stroke-width:1"/>
<polygon points="14.431604336703654,12.650639479047989 12.84583134542872,15.209149803141237 12.464289570881604,12.8350778091885" style="fill:none;stroke:black;stroke-width:1"/>
<polygon points="12.84583134542872,15.209149803141237 14.431604336703654,12.650639479047989 13.740445258171682,14.449445661791607" style="fill:none;stroke:black;stroke-width:1"/>
<polygon points="12.84583134542872,15.209149803141237 13.740445258171682,14.449445661791607 12.903659070872525,17.299660052916465" style="fill:none;stroke:black;stroke-width:1"/>
<polygon points="12.84583134542872,15.209149803141237 12.903659070872525,17.299660052916465 11.014568806373187,7.97474271101577" style="fill:none;stroke:black;stroke-width:1"/>
<polygon points="12.464289570881604,12.8350778091885 12.84583134542872,15.209149803141237 11.014568806373187,7.97474271101577" style="fill:none;stroke:black;stroke-width:1"/>
<polygon points="19.302168887589325,24.076883596375755 19.453555073711076,24.012465934318087 17.483468924492477,19.82095753971535" style="fill:none;stroke:black;stroke-width:1"/>
<polygon points="19.453555073711076,24.012465934318087 19.596409847838274,23.94933707154315 17.483468924492477,19.82095753971535" style="fill:none;stroke:black;stroke-width:1"/>
<polygon points="19.453555073711076,24.012465934318087 19.302168887589325,24.076883596375755 18.851955705071,22.396402950489993" style="fill:none;stroke:black;stroke-width:1"/>
<polygon points="19.88211678613554,23.823086173400384 20.024970255284174,23.759960724328998 17.483468924492477,19.82095753971535" style="fill:none;stroke:black;stroke-width:1"/>
<polygon points="19.88211678613554,23.823086173400384 19.48560043889116,22.165199252894787 20.024970255284174,23.759960724328998" style="fill:none;stroke:black;stroke-width:1"/>
<polygon points="20.453530662730067,23.570584377114848 20.598034639136188,23.495648479531216 17.483468924492477,19.82095753971535" style="fill:none;stroke:black;stroke-width:1"/>
<polygon points="20.310677193581434,23.63370982618623 20.453530662730067,23.570584377114848 17.483468924492477,19.82095753971535" style="fill:none;stroke:black;stroke-width:1"/>
<polygon points="20.453530662730067,23.570584377114848 20.260689655172413,22.083793103448276 20.598034639136188,23.495648479531216" style="fill:none;stroke:black;stroke-width:1"/>
<polygon points="20.024970255284174,23.759960724328998 20.1678237244328,23.696835275257616 17.483468924492477,19.82095753971535" style="fill:none;stroke:black;stroke-width:1"/>
<polygon points="20.1678237244328,23.696835275257616 20.310677193581434,23.63370982618623 17.483468924492477,19.82095753971535" style="fill:none;stroke:black;stroke-width:1"/>
<polygon points="20.260689655172413,22.083793103448276 13.036016635542369,22.730819150465045 20.45798163661405,22.114618530894003" style="fill:none;stroke:black;stroke-width:1"/>
<polygon points="19.302168887589325,24.076883596375755 18.709102235922366,22.459528399561375 18.851955705071,22.396402950489993" style="fill:none;stroke:black;stroke-width:1"/>
<polygon points="19.1382329945478,24.134135825418966 18.709102235922366,22.459528399561375 19.302168887589325,24.076883596375755" style="fill:none;stroke:black;stroke-width:1"/>
<polygon points="18.779453656078566,24.221686524350456 18.28054182847647,22.64890474677553 18.4233952976251,22.585779297704143" style="fill:none;stroke:black;stroke-width:1"/>
<polygon points="12.038095230494829,22.374626444759755 13.787899470156537,16.527533389185518 13.740445258171682,14.449445661791607" style="fill:none;stroke:black;stroke-width:1"/>
<polygon points="12.02698645272562,22.293851639395243 12.038095230494829,22.374626444759755 13.740445258171682,14.449445661791607" style="fill:none;stroke:black;stroke-width:1"/>
<polygon points="21.192592460276195,18.62275512878447 21.725603900069835,19.716470305323117 16.862396542987874,12.612958413003266" style="fill:none;stroke:black;stroke-width:1"/>
<polygon points="20.32621736133124,13.9583444247909 23.13386265912581,18.513950551274302 21.472359162114298,18.759218512429328" style="fill:none;stroke:black;stroke-width:1"/>
<polygon points="23.13386265912581,18.513950551274302 20.32621736133124,13.9583444247909 20.262839745049522,16.10827750866007" style="fill:none;stroke:black;stroke-width:1"/>
<polygon points="13.907945172173662,9.232467261588193 14.514440601473755,9.124986760772288 14.090584500263065,9.273402218519976" style="fill:none;stroke:black;stroke-width:1"/>
<polygon points="17.098502072021464,9.367211926862442 13.907945172173662,9.232467261588193 14.090584500263065,9.273402218519976" style="fill:none;stroke:black;stroke-width:1"/>
<polygon points="19.54522084381099,9.313583874095293 14.666857769028681,8.93907014539131 14.745816197596925,8.70621801870817" style="fill:none;stroke:black;stroke-width:1"/>
<polygon points="14.666857769028681,8.93907014539131 19.54522084381099,9.313583874095293 14.514440601473755,9.124986760772288" style="fill:none;stroke:black;stroke-width:1"/>
<polygon points="13.907945172173662,9.232467261588193 14.666857769028681,8.93907014539131 14.514440601473755,9.124986760772288" style="fill:none;stroke:black;stroke-width:1"/>
<polygon points="14.666857769028681,8.93907014539131 13.72041124586186,9.007920055520621 14.745816197596925,8.70621801870817" style="fill:none;stroke:black;stroke-width:1"/>
<polygon points="14.307441745578302,9.241833631034659 19.54522084381099,9.313583874095293 17.098502072021464,9.367211926862442" style="fill:none;stroke:black;stroke-width:1"/>
<polygon points="19.54522084381099,9.313583874095293 14.307441745578302,9.241833631034659 14.514440601473755,9.124986760772288" style="fill:none;stroke:black;stroke-width:1"/>
<polygon points="14.307441745578302,9.241833631034659 17.098502072021464,9.367211926862442 14.090584500263065,9.273402218519976" style="fill:none;stroke:black;stroke-width:1"/>
<polygon points="14.514440601473755,9.124986760772288 14.307441745578302,9.241833631034659 14.090584500263065,9.273402218519976" style="fill:none;stroke:black;stroke-width:1"/>
<polygon points="13.075826029243984,6.514523560425761 12.75321775463925,8.053091067934197 12.900081400444401,6.461073096414804" style="fill:none;stroke:black;stroke-width:1"/>
<polygon points="12.75321775463925,8.053091067934197 12.547269719051782,7.981590888730652 12.900081400444401,6.461073096414804" style="fill:none;stroke:black;stroke-width:1"/>
<polygon points="12.75321775463925,8.053091067934197 13.075826029243984,6.514523560425761 13.243250501959551,6.577314520981801" style="fill:none;stroke:black;stroke-width:1"/>
<polygon points="12.716428318048843,6.417462162267769 12.322168457109559,7.911928216650606 12.525278484545359,6.384189791303503" style="fill:none;stroke:black;stroke-width:1"/>
<polygon points="12.547269719051782,7.981590888730652 12.322168457109559,7.911928216650606 12.716428318048843,6.417462162267769" style="fill:none;stroke:black;stroke-width:1"/>
<polygon points="12.322168457109559,7.911928216650606 12.547269719051782,7.981590888730652 12.081686713843027,7.844181602213959" style="fill:none;stroke:black;stroke-width:1"/>
<polygon points="13.696025031911677,6.816553428497345 13.551492169186444,6.728921798453749 18.085985696176774,4.260788143484205" style="fill:none;stroke:black;stroke-width:1"/>
<polygon points="13.551492169186444,6.728921798453749 13.401943116103052,6.648946944764079 18.085985696176774,4.260788143484205" style="fill:none;stroke:black;stroke-width:1"/>
<polygon points="13.843277664792037,6.920767231141827 13.696025031911677,6.816553428497345 18.085985696176774,4.260788143484205" style="fill:none;stroke:black;stroke-width:1"/>
<polygon points="13.990382331571672,7.04378402445041 13.843277664792037,6.920767231141827 18.085985696176774,4.260788143484205" style="fill:none;stroke:black;stroke-width:1"/>
<polygon points="12.12213537416679,6.350656872198645 15.714093168020643,3.6644172597004747 17.745220130209212,2.8262168835617185" style="fill:none;stroke:black;stroke-width:1"/>
<polygon points="12.12213537416679,6.350656872198645 11.9109655022678,6.35139439069574 15.714093168020643,3.6644172597004747" style="fill:none;stroke:black;stroke-width:1"/>
<polygon points="11.035185304164019,6.9402906224771534 13.744336333086228,5.053883549054627 15.271118115714609,3.1412612119877394" style="fill:none;stroke:black;stroke-width:1"/>
<polygon points="11.329254241911814,7.607474700345065 14.651783300231951,9.42083997962959 13.744336333086228,5.053883549054627" style="fill:none;stroke:black;stroke-width:1"/>
<polygon points="11.14934999009606,7.427413563463412 11.329254241911814,7.607474700345065 13.744336333086228,5.053883549054627" style="fill:none;stroke:black;stroke-width:1"/>
<polygon points="20.502034944747997,16.844874184732056 20.32621736133124,13.9583444247909 21.472359162114298,18.759218512429328" style="fill:none;stroke:black;stroke-width:1"/>
<polygon points="20.502034944747997,16.844874184732056 18.654857546407776,15.838351074679684 20.32621736133124,13.9583444247909" style="fill:none;stroke:black;stroke-width:1"/>
<polygon points="13.751022734239353,16.481175467222016 14.881578249893643,14.644775665580132 20.32621736133124,13.9583444247909" style="fill:none;stroke:black;stroke-width:1"/>
<polygon points="13.823000018831289,18.116118453890312 13.751022734239353,16.481175467222016 20.32621736133124,13.9583444247909" style="fill:none;stroke:black;stroke-width:1"/>
<polygon points="16.64997753173671,16.356881813696045 15.596538607916411,18.050007507716565 20.32621736133124,13.9583444247909" style="fill:none;stroke:black;stroke-width:1"/>
<polygon points="15.596538607916411,18.050007507716565 13.823000018831289,18.116118453890312 20.32621736133124,13.9583444247909" style="fill:none;stroke:black;stroke-width:1"/>
<polygon points="19.28680889466931,12.588291776706736 14.788857519118464,21.905469146549876 17.566442291633557,11.743147906849616" style="fill:none;stroke:black;stroke-width:1"/>
<polygon points="13.351179545313192,22.05246771839228 13.36961158534183,21.950230252585577 16.862396542987874,12.612958413003266" style="fill:none;stroke:black;stroke-width:1"/>
<polygon points="13.36961158534183,21.950230252585577 13.377321304816954,21.85388743238547 16.862396542987874,12.612958413003266" style="fill:none;stroke:black;stroke-width:1"/>
<polygon points="13.321370938436619,22.159209485658046 13.351179545313192,22.05246771839228 16.862396542987874,12.612958413003266" style="fill:none;stroke:black;stroke-width:1"/>
<polygon points="19.596409847838274,23.94933707154315 19.739263316986907,23.886211622471766 17.483468924492477,19.82095753971535" style="fill:none;stroke:black;stroke-width:1"/>
<polygon points="19.739263316986907,23.886211622471766 19.88211678613554,23.823086173400384 17.483468924492477,19.82095753971535" style="fill:none;stroke:black;stroke-width:1"/>
<polygon points="19.14610034257504,22.26980309493829 19.739263316986907,23.886211622471766 19.596409847838274,23.94933707154315" style="fill:none;stroke:black;stroke-width:1"/>
<polygon points="19.48560043889116,22.165199252894787 19.670132168798947,22.126794608357898 20.024970255284174,23.759960724328998" style="fill:none;stroke:black;stroke-width:1"/>
<polygon points="19.670132168798947,22.126794608357898 20.1678237244328,23.696835275257616 20.024970255284174,23.759960724328998" style="fill:none;stroke:black;stroke-width:1"/>
<polygon points="11.687574186525671,18.62074263099995 19.670132168798947,22.126794608357898 12.209312100500153,16.515941167105993" style="fill:none;stroke:black;stroke-width:1"/>
<polygon points="19.670132168798947,22.126794608357898 19.48560043889116,22.165199252894787 12.209312100500153,16.515941167105993" style="fill:none;stroke:black;stroke-width:1"/>
<polygon points="18.9948260478915,22.333231738651307 19.453555073711076,24.012465934318087 18.851955705071,22.396402950489993" style="fill:none;stroke:black;stroke-width:1"/>
<polygon points="19.453555073711076,24.012465934318087 18.9948260478915,22.333231738651307 19.596409847838274,23.94933707154315" style="fill:none;stroke:black;stroke-width:1"/>
<polygon points="18.9948260478915,22.333231738651307 19.14610034257504,22.26980309493829 19.596409847838274,23.94933707154315" style="fill:none;stroke:black;stroke-width:1"/>
<polygon points="11.971825550098178,20.829115566449907 13.036016635542369,22.730819150465045 20.260689655172413,22.083793103448276" style="fill:none;stroke:black;stroke-width:1"/>
<polygon points="16.812842715110012,24.838005106623598 20.636675033845545,22.1999543126162 20.45798163661405,22.114618530894003" style="fill:none;stroke:black;stroke-width:1"/>
<polygon points="15.167850872103529,13.694160026777839 18.9948260478915,22.333231738651307 12.801277082736423,22.747859155281876" style="fill:none;stroke:black;stroke-width:1"/>
<polygon points="18.13768835932784,22.712030195846914 18.39070019504961,24.26420311088941 17.994834890179206,22.775155644918296" style="fill:none;stroke:black;stroke-width:1"/>
<polygon points="18.566248766773732,22.52265384863276 18.709102235922366,22.459528399561375 19.1382329945478,24.134135825418966" style="fill:none;stroke:black;stroke-width:1"/>
<polygon points="18.779453656078566,24.221686524350456 18.587980994837416,24.249256264182947 18.28054182847647,22.64890474677553" style="fill:none;stroke:black;stroke-width:1"/>
<polygon points="18.13768835932784,22.712030195846914 18.587980994837416,24.249256264182947 18.39070019504961,24.26420311088941" style="fill:none;stroke:black;stroke-width:1"/>
<polygon points="18.587980994837416,24.249256264182947 18.13768835932784,22.712030195846914 18.28054182847647,22.64890474677553" style="fill:none;stroke:black;stroke-width:1"/>
<polygon points="18.39070019504961,24.26420311088941 18.587980994837416,24.249256264182947 17.483468924492477,19.82095753971535" style="fill:none;stroke:black;stroke-width:1"/>
<polygon points="18.587980994837416,24.249256264182947 18.779453656078566,24.221686524350456 17.483468924492477,19.82095753971535" style="fill:none;stroke:black;stroke-width:1"/>
<polygon points="14.431604336703654,12.650639479047989 12.322556857632538,21.48510333264466 13.740445258171682,14.449445661791607" style="fill:none;stroke:black;stroke-width:1"/>
<polygon points="13.787899470156537,16.527533389185518 12.113142058733501,22.556933944198335 17.605761036455917,23.107660539715887" style="fill:none;stroke:black;stroke-width:1"/>
<polygon points="16.52597191469554,20.744632239544814 16.862396542987874,12.612958413003266 14.883513375497145,19.534154656950452" style="fill:none;stroke:black;stroke-width:1"/>
<polygon points="16.52597191469554,20.744632239544814 18.558413912690177,20.47778181447965 16.862396542987874,12.612958413003266" style="fill:none;stroke:black;stroke-width:1"/>
<polygon points="19.78194032905484,18.930601076546743 21.192592460276195,18.62275512878447 16.862396542987874,12.612958413003266" style="fill:none;stroke:black;stroke-width:1"/>
<polygon points="18.558413912690177,20.47778181447965 19.78194032905484,18.930601076546743 16.862396542987874,12.612958413003266" style="fill:none;stroke:black;stroke-width:1"/>
<polygon points="21.725603900069835,19.716470305323117 20.668192125771398,21.64452232362887 16.862396542987874,12.612958413003266" style="fill:none;stroke:black;stroke-width:1"/>
<polygon points="20.668192125771398,21.64452232362887 13.321370938436619,22.159209485658046 16.862396542987874,12.612958413003266" style="fill:none;stroke:black;stroke-width:1"/>
<polygon points="21.29398791866126,15.20026663837044 22.689417825015695,16.74969564908209 20.262839745049522,16.10827750866007" style="fill:none;stroke:black;stroke-width:1"/>
<polygon points="22.689417825015695,16.74969564908209 23.13386265912581,18.513950551274302 20.262839745049522,16.10827750866007" style="fill:none;stroke:black;stroke-width:1"/>
<polygon points="21.14564632005593,23.806378951235402 22.642685846332988,22.26071226691395 20.262839745049522,16.10827750866007" style="fill:none;stroke:black;stroke-width:1"/>
<polygon points="22.642685846332988,22.26071226691395 23.489372622042453,20.251883134178293 20.262839745049522,16.10827750866007" style="fill:none;stroke:black;stroke-width:1"/>
<polygon points="19.329898198593856,14.312932683580353 21.29398791866126,15.20026663837044 20.262839745049522,16.10827750866007" style="fill:none;stroke:black;stroke-width:1"/>
<polygon points="23.489372622042453,20.251883134178293 19.329898198593856,14.312932683580353 20.262839745049522,16.10827750866007" style="fill:none;stroke:black;stroke-width:1"/>
<polygon points="14.515973950930114,7.7351458223885 14.400134777885567,7.531284708188423 20.031173036340128,5.246980309332592" style="fill:none;stroke:black;stroke-width:1"/>
<polygon points="14.738508902820302,8.449138180394238 14.68936221157526,8.197460760457924 20.031173036340128,5.246980309332592" style="fill:none;stroke:black;stroke-width:1"/>
<polygon points="14.68936221157526,8.197460760457924 14.738508902820302,8.449138180394238 13.72041124586186,9.007920055520621" style="fill:none;stroke:black;stroke-width:1"/>
<polygon points="14.666857769028681,8.93907014539131 13.77849358482233,9.13767908152918 13.72041124586186,9.007920055520621" style="fill:none;stroke:black;stroke-width:1"/>
<polygon points="13.77849358482233,9.13767908152918 14.666857769028681,8.93907014539131 13.907945172173662,9.232467261588193" style="fill:none;stroke:black;stroke-width:1"/>
<polygon points="13.77849358482233,9.13767908152918 13.907945172173662,9.232467261588193 17.098502072021464,9.367211926862442" style="fill:none;stroke:black;stroke-width:1"/>
<polygon points="13.77849358482233,9.13767908152918 17.098502072021464,9.367211926862442 14.651783300231951,9.42083997962959" style="fill:none;stroke:black;stroke-width:1"/>
<polygon points="13.72041124586186,9.007920055520621 13.77849358482233,9.13767908152918 14.651783300231951,9.42083997962959" style="fill:none;stroke:black;stroke-width:1"/>
<polygon points="13.401943116103052,6.648946944764079 12.936239818841514,8.126350203741334 13.243250501959551,6.577314520981801" style="fill:none;stroke:black;stroke-width:1"/>
<polygon points="12.936239818841514,8.126350203741334 12.75321775463925,8.053091067934197 13.243250501959551,6.577314520981801" style="fill:none;stroke:black;stroke-width:1"/>
<polygon points="12.12213537416679,6.350656872198645 12.327043602421991,6.3617550168408465 12.081686713843027,7.844181602213959" style="fill:none;stroke:black;stroke-width:1"/>
<polygon points="12.322168457109559,7.911928216650606 12.327043602421991,6.3617550168408465 12.525278484545359,6.384189791303503" style="fill:none;stroke:black;stroke-width:1"/>
<polygon points="12.327043602421991,6.3617550168408465 12.322168457109559,7.911928216650606 12.081686713843027,7.844181602213959" style="fill:none;stroke:black;stroke-width:1"/>
<polygon points="12.525278484545359,6.384189791303503 12.327043602421991,6.3617550168408465 17.745220130209212,2.8262168835617185" style="fill:none;stroke:black;stroke-width:1"/>
<polygon points="12.327043602421991,6.3617550168408465 12.12213537416679,6.350656872198645 17.745220130209212,2.8262168835617185" style="fill:none;stroke:black;stroke-width:1"/>
<polygon points="11.046278168919745,7.19742295584682 11.14934999009606,7.427413563463412 13.744336333086228,5.053883549054627" style="fill:none;stroke:black;stroke-width:1"/>
<polygon points="11.035185304164019,6.9402906224771534 11.046278168919745,7.19742295584682 13.744336333086228,5.053883549054627" style="fill:none;stroke:black;stroke-width:1"/>
<polygon points="11.046278168919745,7.19742295584682 11.035185304164019,6.9402906224771534 11.14934999009606,7.427413563463412" style="fill:none;stroke:black;stroke-width:1"/>
<polygon points="11.329254241911814,7.607474700345065 11.570689655172414,7.7155172413793105 14.651783300231951,9.42083997962959" style="fill:none;stroke:black;stroke-width:1"/>
<polygon points="11.570689655172414,7.7155172413793105 13.72041124586186,9.007920055520621 14.651783300231951,9.42083997962959" style="fill:none;stroke:black;stroke-width:1"/>
<polygon points="11.570689655172414,7.7155172413793105 11.329254241911814,7.607474700345065 11.270207717528514,6.520711287446543" style="fill:none;stroke:black;stroke-width:1"/>
<polygon points="11.570689655172414,7.7155172413793105 12.936239818841514,8.126350203741334 13.72041124586186,9.007920055520621" style="fill:none;stroke:black;stroke-width:1"/>
<polygon points="12.936239818841514,8.126350203741334 11.570689655172414,7.7155172413793105 12.75321775463925,8.053091067934197" style="fill:none;stroke:black;stroke-width:1"/>
<polygon points="11.035185304164019,6.9402906224771534 11.116562567745973,6.704641316909125 11.14934999009606,7.427413563463412" style="fill:none;stroke:black;stroke-width:1"/>
<polygon points="11.116562567745973,6.704641316909125 11.329254241911814,7.607474700345065 11.14934999009606,7.427413563463412" style="fill:none;stroke:black;stroke-width:1"/>
<polygon points="11.329254241911814,7.607474700345065 11.116562567745973,6.704641316909125 11.270207717528514,6.520711287446543" style="fill:none;stroke:black;stroke-width:1"/>
<polygon points="11.116562567745973,6.704641316909125 11.035185304164019,6.9402906224771534 15.271118115714609,3.1412612119877394" style="fill:none;stroke:black;stroke-width:1"/>
<polygon points="15.714093168020643,3.6644172597004747 11.116562567745973,6.704641316909125 15.271118115714609,3.1412612119877394" style="fill:none;stroke:black;stroke-width:1"/>
<polygon points="11.270207717528514,6.520711287446543 11.116562567745973,6.704641316909125 15.714093168020643,3.6644172597004747" style="fill:none;stroke:black;stroke-width:1"/>
<polygon points="19.29094726815687,20.059181602300505 17.125890837329674,20.006831288841337 19.28680889466931,12.588291776706736" style="fill:none;stroke:black;stroke-width:1"/>
<polygon points="19.769017442105383,16.532989339375952 16.851740958238402,22.70406098324959 19.28680889466931,12.588291776706736" style="fill:none;stroke:black;stroke-width:1"/>
<polygon points="16.851740958238402,22.70406098324959 14.788857519118464,21.905469146549876 19.28680889466931,12.588291776706736" style="fill:none;stroke:black;stroke-width:1"/>
<polygon points="17.810910698234686,24.14617251049282 17.989503819231203,24.231662347827232 15.0285209495055,19.132136239829826" style="fill:none;stroke:black;stroke-width:1"/>
<polygon points="17.55280723175484,23.85762459664904 17.662754976200894,24.0187308596331 15.0285209495055,19.132136239829826" style="fill:none;stroke:black;stroke-width:1"/>
<polygon points="17.662754976200894,24.0187308596331 17.810910698234686,24.14617251049282 15.0285209495055,19.132136239829826" style="fill:none;stroke:black;stroke-width:1"/>
<polygon points="17.810910698234686,24.14617251049282 17.662754976200894,24.0187308596331 17.605761036455917,23.107660539715887" style="fill:none;stroke:black;stroke-width:1"/>
<polygon points="17.52063242523022,23.279057629279848 13.787899470156537,16.527533389185518 17.605761036455917,23.107660539715887" style="fill:none;stroke:black;stroke-width:1"/>
<polygon points="17.52063242523022,23.279057629279848 17.478088055986305,23.471105053952257 13.787899470156537,16.527533389185518" style="fill:none;stroke:black;stroke-width:1"/>
<polygon points="17.478088055986305,23.471105053952257 17.52063242523022,23.279057629279848 17.55280723175484,23.85762459664904" style="fill:none;stroke:black;stroke-width:1"/>
<polygon points="17.662754976200894,24.0187308596331 17.52063242523022,23.279057629279848 17.605761036455917,23.107660539715887" style="fill:none;stroke:black;stroke-width:1"/>
<polygon points="17.52063242523022,23.279057629279848 17.662754976200894,24.0187308596331 17.55280723175484,23.85762459664904" style="fill:none;stroke:black;stroke-width:1"/>
<polygon points="17.48883804352151,23.671140922941618 17.55280723175484,23.85762459664904 13.787899470156537,16.527533389185518" style="fill:none;stroke:black;stroke-width:1"/>
<polygon points="17.478088055986305,23.471105053952257 17.48883804352151,23.671140922941618 13.787899470156537,16.527533389185518" style="fill:none;stroke:black;stroke-width:1"/>
<polygon points="17.48883804352151,23.671140922941618 17.478088055986305,23.471105053952257 17.55280723175484,23.85762459664904" style="fill:none;stroke:black;stroke-width:1"/>
<polygon points="19.310307484862392,22.213330507387184 19.739263316986907,23.886211622471766 19.14610034257504,22.26980309493829" style="fill:none;stroke:black;stroke-width:1"/>
<polygon points="19.48560043889116,22.165199252894787 19.310307484862392,22.213330507387184 12.209312100500153,16.515941167105993" style="fill:none;stroke:black;stroke-width:1"/>
<polygon points="19.88211678613554,23.823086173400384 19.310307484862392,22.213330507387184 19.48560043889116,22.165199252894787" style="fill:none;stroke:black;stroke-width:1"/>
<polygon points="19.739263316986907,23.886211622471766 19.310307484862392,22.213330507387184 19.88211678613554,23.823086173400384" style="fill:none;stroke:black;stroke-width:1"/>
<polygon points="20.1678237244328,23.696835275257616 19.862055638723355,22.099501850673317 20.310677193581434,23.63370982618623" style="fill:none;stroke:black;stroke-width:1"/>
<polygon points="19.670132168798947,22.126794608357898 19.862055638723355,22.099501850673317 20.1678237244328,23.696835275257616" style="fill:none;stroke:black;stroke-width:1"/>
<polygon points="11.971825550098178,20.829115566449907 19.862055638723355,22.099501850673317 11.687574186525671,18.62074263099995" style="fill:none;stroke:black;stroke-width:1"/>
<polygon points="19.862055638723355,22.099501850673317 19.670132168798947,22.126794608357898 11.687574186525671,18.62074263099995" style="fill:none;stroke:black;stroke-width:1"/>
<polygon points="13.036016635542369,22.730819150465045 14.706365495523023,24.123423409639248 20.45798163661405,22.114618530894003" style="fill:none;stroke:black;stroke-width:1"/>
<polygon points="14.706365495523023,24.123423409639248 16.812842715110012,24.838005106623598 20.45798163661405,22.114618530894003" style="fill:none;stroke:black;stroke-width:1"/>
<polygon points="20.636675033845545,22.1999543126162 19.13622427417523,24.720635590634636 21.14564632005593,23.806378951235402" style="fill:none;stroke:black;stroke-width:1"/>
<polygon points="16.812842715110012,24.838005106623598 19.13622427417523,24.720635590634636 20.636675033845545,22.1999543126162" style="fill:none;stroke:black;stroke-width:1"/>
<polygon points="19.310307484862392,22.213330507387184 13.414524928181123,14.817441189565471 12.209312100500153,16.515941167105993" style="fill:none;stroke:black;stroke-width:1"/>
<polygon points="13.414524928181123,14.817441189565471 19.310307484862392,22.213330507387184 19.14610034257504,22.26980309493829" style="fill:none;stroke:black;stroke-width:1"/>
<polygon points="18.9948260478915,22.333231738651307 13.414524928181123,14.817441189565471 19.14610034257504,22.26980309493829" style="fill:none;stroke:black;stroke-width:1"/>
<polygon points="15.167850872103529,13.694160026777839 13.414524928181123,14.817441189565471 18.9948260478915,22.333231738651307" style="fill:none;stroke:black;stroke-width:1"/>
<polygon points="18.96343278667979,24.18285825641983 18.779453656078566,24.221686524350456 18.4233952976251,22.585779297704143" style="fill:none;stroke:black;stroke-width:1"/>
<polygon points="18.566248766773732,22.52265384863276 18.96343278667979,24.18285825641983 18.4233952976251,22.585779297704143" style="fill:none;stroke:black;stroke-width:1"/>
<polygon points="18.96343278667979,24.18285825641983 18.566248766773732,22.52265384863276 19.1382329945478,24.134135825418966" style="fill:none;stroke:black;stroke-width:1"/>
<polygon points="18.96343278667979,24.18285825641983 19.1382329945478,24.134135825418966 17.483468924492477,19.82095753971535" style="fill:none;stroke:black;stroke-width:1"/>
<polygon points="18.779453656078566,24.221686524350456 18.96343278667979,24.18285825641983 17.483468924492477,19.82095753971535" style="fill:none;stroke:black;stroke-width:1"/>
<polygon points="13.106532143891192,21.35119858089753 14.431604336703654,12.650639479047989 15.04720816101177,11.796435827721448" style="fill:none;stroke:black;stroke-width:1"/>
<polygon points="13.16474231262931,21.385517548746606 13.106532143891192,21.35119858089753 15.04720816101177,11.796435827721448" style="fill:none;stroke:black;stroke-width:1"/>
<polygon points="12.082467855476654,22.50698931617535 12.113142058733501,22.556933944198335 13.787899470156537,16.527533389185518" style="fill:none;stroke:black;stroke-width:1"/>
<polygon points="14.271878263860504,7.348479526990943 14.134271656508517,7.186167044405859 20.031173036340128,5.246980309332592" style="fill:none;stroke:black;stroke-width:1"/>
<polygon points="14.400134777885567,7.531284708188423 14.271878263860504,7.348479526990943 20.031173036340128,5.246980309332592" style="fill:none;stroke:black;stroke-width:1"/>
<polygon points="14.614693417647098,7.958489551992589 14.515973950930114,7.7351458223885 20.031173036340128,5.246980309332592" style="fill:none;stroke:black;stroke-width:1"/>
<polygon points="14.68936221157526,8.197460760457924 14.614693417647098,7.958489551992589 20.031173036340128,5.246980309332592" style="fill:none;stroke:black;stroke-width:1"/>
<polygon points="13.551492169186444,6.728921798453749 13.093137372522959,8.203038920277557 13.401943116103052,6.648946944764079" style="fill:none;stroke:black;stroke-width:1"/>
<polygon points="13.093137372522959,8.203038920277557 12.936239818841514,8.126350203741334 13.401943116103052,6.648946944764079" style="fill:none;stroke:black;stroke-width:1"/>
<polygon points="13.093137372522959,8.203038920277557 13.551492169186444,6.728921798453749 13.696025031911677,6.816553428497345" style="fill:none;stroke:black;stroke-width:1"/>
<polygon points="12.936239818841514,8.126350203741334 13.093137372522959,8.203038920277557 13.72041124586186,9.007920055520621" style="fill:none;stroke:black;stroke-width:1"/>
<polygon points="11.830295930098057,7.7781595138813895 12.12213537416679,6.350656872198645 12.081686713843027,7.844181602213959" style="fill:none;stroke:black;stroke-width:1"/>
<polygon points="12.12213537416679,6.350656872198645 11.830295930098057,7.7781595138813895 11.9109655022678,6.35139439069574" style="fill:none;stroke:black;stroke-width:1"/>
<polygon points="12.547269719051782,7.981590888730652 11.830295930098057,7.7781595138813895 12.081686713843027,7.844181602213959" style="fill:none;stroke:black;stroke-width:1"/>
<polygon points="12.75321775463925,8.053091067934197 11.830295930098057,7.7781595138813895 12.547269719051782,7.981590888730652" style="fill:none;stroke:black;stroke-width:1"/>
<polygon points="11.570689655172414,7.7155172413793105 11.830295930098057,7.7781595138813895 12.75321775463925,8.053091067934197" style="fill:none;stroke:black;stroke-width:1"/>
<polygon points="11.9109655022678,6.35139439069574 11.693945689213065,6.364466605650978 15.714093168020643,3.6644172597004747" style="fill:none;stroke:black;stroke-width:1"/>
<polygon points="11.830295930098057,7.7781595138813895 11.693945689213065,6.364466605650978 11.9109655022678,6.35139439069574" style="fill:none;stroke:black;stroke-width:1"/>
<polygon points="11.693945689213065,6.364466605650978 11.830295930098057,7.7781595138813895 11.570689655172414,7.7155172413793105" style="fill:none;stroke:black;stroke-width:1"/>
<polygon points="16.612609668718648,13.434376575497375 20.573193617118232,18.496858877679653 19.28680889466931,12.588291776706736" style="fill:none;stroke:black;stroke-width:1"/>
<polygon points="20.573193617118232,18.496858877679653 19.29094726815687,20.059181602300505 19.28680889466931,12.588291776706736" style="fill:none;stroke:black;stroke-width:1"/>
<polygon points="18.112599003623238,15.483911279942891 19.769017442105383,16.532989339375952 19.28680889466931,12.588291776706736" style="fill:none;stroke:black;stroke-width:1"/>
<polygon points="16.2738300794628,16.275916953887002 18.112599003623238,15.483911279942891 19.28680889466931,12.588291776706736" style="fill:none;stroke:black;stroke-width:1"/>
<polygon points="17.125890837329674,20.006831288841337 15.804632024523139,18.322721482738814 19.28680889466931,12.588291776706736" style="fill:none;stroke:black;stroke-width:1"/>
<polygon points="15.804632024523139,18.322721482738814 16.2738300794628,16.275916953887002 19.28680889466931,12.588291776706736" style="fill:none;stroke:black;stroke-width:1"/>
<polygon points="13.978797550930716,18.173315057455824 14.883513375497145,19.534154656950452 17.566442291633557,11.743147906849616" style="fill:none;stroke:black;stroke-width:1"/>
<polygon points="12.443600818304223,18.424499400402393 13.978797550930716,18.173315057455824 17.566442291633557,11.743147906849616" style="fill:none;stroke:black;stroke-width:1"/>
<polygon points="14.788857519118464,21.905469146549876 13.249189438541533,20.40905447128086 17.566442291633557,11.743147906849616" style="fill:none;stroke:black;stroke-width:1"/>
<polygon points="13.249189438541533,20.40905447128086 12.443600818304223,18.424499400402393 17.566442291633557,11.743147906849616" style="fill:none;stroke:black;stroke-width:1"/>
<polygon points="18.39070019504961,24.26420311088941 18.19083240184522,24.266551724137926 17.994834890179206,22.775155644918296" style="fill:none;stroke:black;stroke-width:1"/>
<polygon points="18.19083240184522,24.266551724137926 17.850330913773085,22.85009154250193 17.994834890179206,22.775155644918296" style="fill:none;stroke:black;stroke-width:1"/>
<polygon points="18.19083240184522,24.266551724137926 18.39070019504961,24.26420311088941 15.0285209495055,19.132136239829826" style="fill:none;stroke:black;stroke-width:1"/>
<polygon points="17.989503819231203,24.231662347827232 18.19083240184522,24.266551724137926 15.0285209495055,19.132136239829826" style="fill:none;stroke:black;stroke-width:1"/>
<polygon points="18.19083240184522,24.266551724137926 17.989503819231203,24.231662347827232 17.810910698234686,24.14617251049282" style="fill:none;stroke:black;stroke-width:1"/>
<polygon points="19.862055638723355,22.099501850673317 20.059523812801974,22.084706256737842 20.310677193581434,23.63370982618623" style="fill:none;stroke:black;stroke-width:1"/>
<polygon points="20.453530662730067,23.570584377114848 20.059523812801974,22.084706256737842 20.260689655172413,22.083793103448276" style="fill:none;stroke:black;stroke-width:1"/>
<polygon points="20.059523812801974,22.084706256737842 20.453530662730067,23.570584377114848 20.310677193581434,23.63370982618623" style="fill:none;stroke:black;stroke-width:1"/>
<polygon points="20.059523812801974,22.084706256737842 11.971825550098178,20.829115566449907 20.260689655172413,22.083793103448276" style="fill:none;stroke:black;stroke-width:1"/>
<polygon points="20.059523812801974,22.084706256737842 19.862055638723355,22.099501850673317 11.971825550098178,20.829115566449907" style="fill:none;stroke:black;stroke-width:1"/>
<polygon points="13.21441344026334,21.423052110195783 13.16474231262931,21.385517548746606 15.04720816101177,11.796435827721448" style="fill:none;stroke:black;stroke-width:1"/>
<polygon points="16.862396542987874,12.612958413003266 13.319650644682287,21.551598963076877 15.04720816101177,11.796435827721448" style="fill:none;stroke:black;stroke-width:1"/>
<polygon points="13.319650644682287,21.551598963076877 13.288976441425437,21.501654335053892 15.04720816101177,11.796435827721448" style="fill:none;stroke:black;stroke-width:1"/>
<polygon points="12.699102112461816,21.287759842952067 12.600983287045263,21.31283872425483 14.431604336703654,12.650639479047989" style="fill:none;stroke:black;stroke-width:1"/>
<polygon points="12.600983287045263,21.31283872425483 12.503669958025279,21.354204282217694 14.431604336703654,12.650639479047989" style="fill:none;stroke:black;stroke-width:1"/>
<polygon points="12.409978666866326,21.41170673349152 12.322556857632538,21.48510333264466 14.431604336703654,12.650639479047989" style="fill:none;stroke:black;stroke-width:1"/>
<polygon points="12.503669958025279,21.354204282217694 12.409978666866326,21.41170673349152 14.431604336703654,12.650639479047989" style="fill:none;stroke:black;stroke-width:1"/>
<polygon points="12.038095230494829,22.374626444759755 12.057003406011685,22.445973397789103 13.787899470156537,16.527533389185518" style="fill:none;stroke:black;stroke-width:1"/>
<polygon points="12.057003406011685,22.445973397789103 12.082467855476654,22.50698931617535 13.787899470156537,16.527533389185518" style="fill:none;stroke:black;stroke-width:1"/>
<polygon points="18.19083240184522,24.266551724137926 17.717870221052593,22.962615968655523 17.850330913773085,22.85009154250193" style="fill:none;stroke:black;stroke-width:1"/>
<polygon points="17.717870221052593,22.962615968655523 17.810910698234686,24.14617251049282 17.605761036455917,23.107660539715887" style="fill:none;stroke:black;stroke-width:1"/>
<polygon points="17.717870221052593,22.962615968655523 18.19083240184522,24.266551724137926 17.810910698234686,24.14617251049282" style="fill:none;stroke:black;stroke-width:1"/>
<polygon points="12.113142058733501,22.556933944198335 12.146980995725697,22.59690384925389 17.605761036455917,23.107660539715887" style="fill:none;stroke:black;stroke-width:1"/>
<polygon points="12.146980995725697,22.59690384925389 17.717870221052593,22.962615968655523 17.605761036455917,23.107660539715887" style="fill:none;stroke:black;stroke-width:1"/>
<polygon points="17.717870221052593,22.962615968655523 12.146980995725697,22.59690384925389 12.187881958213197,22.635945045325325" style="fill:none;stroke:black;stroke-width:1"/>
<polygon points="12.437213062069976,22.760475718182434 18.13768835932784,22.712030195846914 17.994834890179206,22.775155644918296" style="fill:none;stroke:black;stroke-width:1"/>
<polygon points="13.843277664792037,6.920767231141827 13.232042238519927,8.29172253261439 13.696025031911677,6.816553428497345" style="fill:none;stroke:black;stroke-width:1"/>
<polygon points="13.232042238519927,8.29172253261439 13.093137372522959,8.203038920277557 13.696025031911677,6.816553428497345" style="fill:none;stroke:black;stroke-width:1"/>
<polygon points="13.093137372522959,8.203038920277557 13.232042238519927,8.29172253261439 13.72041124586186,9.007920055520621" style="fill:none;stroke:black;stroke-width:1"/>
<polygon points="11.473935200923169,6.404330445257128 11.570689655172414,7.7155172413793105 11.270207717528514,6.520711287446543" style="fill:none;stroke:black;stroke-width:1"/>
<polygon points="11.473935200923169,6.404330445257128 11.693945689213065,6.364466605650978 11.570689655172414,7.7155172413793105" style="fill:none;stroke:black;stroke-width:1"/>
<polygon points="11.473935200923169,6.404330445257128 11.270207717528514,6.520711287446543 15.714093168020643,3.6644172597004747" style="fill:none;stroke:black;stroke-width:1"/>
<polygon points="11.693945689213065,6.364466605650978 11.473935200923169,6.404330445257128 15.714093168020643,3.6644172597004747" style="fill:none;stroke:black;stroke-width:1"/>
<polygon points="13.288976441425437,21.501654335053892 13.25514539299148,21.461828428049117 15.04720816101177,11.796435827721448" style="fill:none;stroke:black;stroke-width:1"/>
<polygon points="13.25514539299148,21.461828428049117 13.21441344026334,21.423052110195783 15.04720816101177,11.796435827721448" style="fill:none;stroke:black;stroke-width:1"/>
<polygon points="13.345115094147253,21.612614881463127 16.862396542987874,12.612958413003266 13.364023269664115,21.68396183449248" style="fill:none;stroke:black;stroke-width:1"/>
<polygon points="13.345115094147253,21.612614881463127 13.319650644682287,21.551598963076877 16.862396542987874,12.612958413003266" style="fill:none;stroke:black;stroke-width:1"/>
<polygon points="12.795053780032049,21.279003999085848 12.699102112461816,21.287759842952067 14.431604336703654,12.650639479047989" style="fill:none;stroke:black;stroke-width:1"/>
<polygon points="12.884343302041477,21.284406044821896 12.795053780032049,21.279003999085848 14.431604336703654,12.650639479047989" style="fill:none;stroke:black;stroke-width:1"/>
<polygon points="12.966010594342828,21.29914288580784 12.884343302041477,21.284406044821896 14.431604336703654,12.650639479047989" style="fill:none;stroke:black;stroke-width:1"/>
<polygon points="12.024797195341987,22.20470084686676 12.02698645272562,22.293851639395243 13.740445258171682,14.449445661791607" style="fill:none;stroke:black;stroke-width:1"/>
<polygon points="12.032506914817112,22.10835802666665 12.024797195341987,22.20470084686676 13.740445258171682,14.449445661791607" style="fill:none;stroke:black;stroke-width:1"/>
<polygon points="12.080747561722323,21.899378793594185 12.050938954845748,22.006120560859948 13.740445258171682,14.449445661791607" style="fill:none;stroke:black;stroke-width:1"/>
<polygon points="12.050938954845748,22.006120560859948 12.032506914817112,22.10835802666665 13.740445258171682,14.449445661791607" style="fill:none;stroke:black;stroke-width:1"/>
<polygon points="12.322556857632538,21.48510333264466 12.243872559132821,21.574080298720716 13.740445258171682,14.449445661791607" style="fill:none;stroke:black;stroke-width:1"/>
<polygon points="12.243872559132821,21.574080298720716 12.176206896551724,21.678275862068965 13.740445258171682,14.449445661791607" style="fill:none;stroke:black;stroke-width:1"/>
<polygon points="12.122407566486036,21.789594104541653 12.080747561722323,21.899378793594185 13.740445258171682,14.449445661791607" style="fill:none;stroke:black;stroke-width:1"/>
<polygon points="12.176206896551724,21.678275862068965 12.122407566486036,21.789594104541653 13.740445258171682,14.449445661791607" style="fill:none;stroke:black;stroke-width:1"/>
<polygon points="17.850330913773085,22.85009154250193 12.36278280767891,22.737652492920922 17.994834890179206,22.775155644918296" style="fill:none;stroke:black;stroke-width:1"/>
<polygon points="12.36278280767891,22.737652492920922 12.437213062069976,22.760475718182434 17.994834890179206,22.775155644918296" style="fill:none;stroke:black;stroke-width:1"/>
<polygon points="18.13768835932784,22.712030195846914 12.5191754735801,22.775258405184864 18.28054182847647,22.64890474677553" style="fill:none;stroke:black;stroke-width:1"/>
<polygon points="12.437213062069976,22.760475718182434 12.5191754735801,22.775258405184864 18.13768835932784,22.712030195846914" style="fill:none;stroke:black;stroke-width:1"/>
<polygon points="18.28054182847647,22.64890474677553 12.5191754735801,22.775258405184864 18.4233952976251,22.585779297704143" style="fill:none;stroke:black;stroke-width:1"/>
<polygon points="13.3560233291652,8.390990677190047 13.843277664792037,6.920767231141827 13.990382331571672,7.04378402445041" style="fill:none;stroke:black;stroke-width:1"/>
<polygon points="13.3560233291652,8.390990677190047 13.232042238519927,8.29172253261439 13.843277664792037,6.920767231141827" style="fill:none;stroke:black;stroke-width:1"/>
<polygon points="13.3560233291652,8.390990677190047 13.990382331571672,7.04378402445041 14.134271656508517,7.186167044405859" style="fill:none;stroke:black;stroke-width:1"/>
<polygon points="13.232042238519927,8.29172253261439 13.3560233291652,8.390990677190047 13.72041124586186,9.007920055520621" style="fill:none;stroke:black;stroke-width:1"/>
<polygon points="13.106532143891192,21.35119858089753 13.040170951415003,21.321876458612547 14.431604336703654,12.650639479047989" style="fill:none;stroke:black;stroke-width:1"/>
<polygon points="13.040170951415003,21.321876458612547 12.966010594342828,21.29914288580784 14.431604336703654,12.650639479047989" style="fill:none;stroke:black;stroke-width:1"/>
<polygon points="17.717870221052593,22.962615968655523 12.23774731749647,22.67370067855228 17.850330913773085,22.85009154250193" style="fill:none;stroke:black;stroke-width:1"/>
<polygon points="12.23774731749647,22.67370067855228 17.717870221052593,22.962615968655523 12.187881958213197,22.635945045325325" style="fill:none;stroke:black;stroke-width:1"/>
<polygon points="12.608549520491946,22.78090363493439 18.566248766773732,22.52265384863276 18.4233952976251,22.585779297704143" style="fill:none;stroke:black;stroke-width:1"/>
<polygon points="12.5191754735801,22.775258405184864 12.608549520491946,22.78090363493439 18.4233952976251,22.585779297704143" style="fill:none;stroke:black;stroke-width:1"/>
<polygon points="18.566248766773732,22.52265384863276 12.608549520491946,22.78090363493439 18.709102235922366,22.459528399561375" style="fill:none;stroke:black;stroke-width:1"/>
<polygon points="14.271878263860504,7.348479526990943 13.464176047137222,8.499752516057956 14.134271656508517,7.186167044405859" style="fill:none;stroke:black;stroke-width:1"/>
<polygon points="13.464176047137222,8.499752516057956 13.3560233291652,8.390990677190047 14.134271656508517,7.186167044405859" style="fill:none;stroke:black;stroke-width:1"/>
<polygon points="13.3560233291652,8.390990677190047 13.464176047137222,8.499752516057956 13.72041124586186,9.007920055520621" style="fill:none;stroke:black;stroke-width:1"/>
<polygon points="12.296176939773712,22.70819691173881 12.36278280767891,22.737652492920922 17.850330913773085,22.85009154250193" style="fill:none;stroke:black;stroke-width:1"/>
<polygon points="12.23774731749647,22.67370067855228 12.296176939773712,22.70819691173881 17.850330913773085,22.85009154250193" style="fill:none;stroke:black;stroke-width:1"/>
<polygon points="12.703762562254093,22.772767199103043 18.9948260478915,22.333231738651307 18.851955705071,22.396402950489993" style="fill:none;stroke:black;stroke-width:1"/>
<polygon points="18.9948260478915,22.333231738651307 12.703762562254093,22.772767199103043 12.801277082736423,22.747859155281876" style="fill:none;stroke:black;stroke-width:1"/>
<polygon points="18.709102235922366,22.459528399561375 12.703762562254093,22.772767199103043 18.851955705071,22.396402950489993" style="fill:none;stroke:black;stroke-width:1"/>
<polygon points="12.608549520491946,22.78090363493439 12.703762562254093,22.772767199103043 18.709102235922366,22.459528399561375" style="fill:none;stroke:black;stroke-width:1"/>
<polygon points="13.55559579511445,8.616917211271542 14.271878263860504,7.348479526990943 14.400134777885567,7.531284708188423" style="fill:none;stroke:black;stroke-width:1"/>
<polygon points="13.55559579511445,8.616917211271542 13.464176047137222,8.499752516057956 14.271878263860504,7.348479526990943" style="fill:none;stroke:black;stroke-width:1"/>
<polygon points="13.55559579511445,8.616917211271542 14.400134777885567,7.531284708188423 14.515973950930114,7.7351458223885" style="fill:none;stroke:black;stroke-width:1"/>
<polygon points="13.464176047137222,8.499752516057956 13.684617991798318,8.87209181894945 13.72041124586186,9.007920055520621" style="fill:none;stroke:black;stroke-width:1"/>
<polygon points="13.55559579511445,8.616917211271542 13.684617991798318,8.87209181894945 13.464176047137222,8.499752516057956" style="fill:none;stroke:black;stroke-width:1"/>
<polygon points="13.684617991798318,8.87209181894945 14.68936221157526,8.197460760457924 13.72041124586186,9.007920055520621" style="fill:none;stroke:black;stroke-width:1"/>
<polygon points="13.684617991798318,8.87209181894945 14.614693417647098,7.958489551992589 14.68936221157526,8.197460760457924" style="fill:none;stroke:black;stroke-width:1"/>
<polygon points="14.614693417647098,7.958489551992589 13.62937797577533,8.74139392488423 14.515973950930114,7.7351458223885" style="fill:none;stroke:black;stroke-width:1"/>
<polygon points="13.684617991798318,8.87209181894945 13.62937797577533,8.74139392488423 14.614693417647098,7.958489551992589" style="fill:none;stroke:black;stroke-width:1"/>
<polygon points="13.62937797577533,8.74139392488423 13.55559579511445,8.616917211271542 14.515973950930114,7.7351458223885" style="fill:none;stroke:black;stroke-width:1"/>
<polygon points="13.62937797577533,8.74139392488423 13.684617991798318,8.87209181894945 13.55559579511445,8.616917211271542" style="fill:none;stroke:black;stroke-width:1"/>
<polygon points="13.321370938436619,22.159209485658046 20.668192125771398,21.64452232362887 13.279710933672904,22.268994174710578" style="fill:none;stroke:black;stroke-width:1"/>
<polygon points="13.279710933672904,22.268994174710578 20.668192125771398,21.64452232362887 18.975248073662716,22.992074408141598" style="fill:none;stroke:black;stroke-width:1"/>
<polygon points="13.079582909926774,22.574416548478204 21.00832333548221,14.913709157907846 19.356129501465652,13.765528855589789" style="fill:none;stroke:black;stroke-width:1"/>
<polygon points="13.079582909926774,22.574416548478204 19.356129501465652,13.765528855589789 12.99183061060335,22.64838747433297" style="fill:none;stroke:black;stroke-width:1"/>
<polygon points="22.1049871335954,16.592360326477973 13.079582909926774,22.574416548478204 13.159162718683104,22.48482712636435" style="fill:none;stroke:black;stroke-width:1"/>
<polygon points="13.079582909926774,22.574416548478204 22.1049871335954,16.592360326477973 21.00832333548221,14.913709157907846" style="fill:none;stroke:black;stroke-width:1"/>
<polygon points="17.316881672381676,13.314978929555037 12.898209066429757,22.706315955493444 12.99183061060335,22.64838747433297" style="fill:none;stroke:black;stroke-width:1"/>
<polygon points="19.356129501465652,13.765528855589789 17.316881672381676,13.314978929555037 12.99183061060335,22.64838747433297" style="fill:none;stroke:black;stroke-width:1"/>
<polygon points="12.898209066429757,22.706315955493444 17.316881672381676,13.314978929555037 12.801277082736423,22.747859155281876" style="fill:none;stroke:black;stroke-width:1"/>
<polygon points="17.316881672381676,13.314978929555037 15.167850872103529,13.694160026777839 12.801277082736423,22.747859155281876" style="fill:none;stroke:black;stroke-width:1"/>
<polygon points="19.13622427417523,24.720635590634636 22.4748275862069,18.628620689655172 21.14564632005593,23.806378951235402" style="fill:none;stroke:black;stroke-width:1"/>
<polygon points="22.4748275862069,18.628620689655172 11.687574186525671,18.62074263099995 12.209312100500153,16.515941167105993" style="fill:none;stroke:black;stroke-width:1"/>
<polygon points="19.78194032905484,18.930601076546743 22.4748275862069,18.628620689655172 21.192592460276195,18.62275512878447" style="fill:none;stroke:black;stroke-width:1"/>
<polygon points="22.4748275862069,18.628620689655172 11.971825550098178,20.829115566449907 11.687574186525671,18.62074263099995" style="fill:none;stroke:black;stroke-width:1"/>
<polygon points="22.4748275862069,18.628620689655172 20.502034944747997,16.844874184732056 21.472359162114298,18.759218512429328" style="fill:none;stroke:black;stroke-width:1"/>
<polygon points="22.4748275862069,18.628620689655172 22.689417825015695,16.74969564908209 21.29398791866126,15.20026663837044" style="fill:none;stroke:black;stroke-width:1"/>
<polygon points="22.4748275862069,18.628620689655172 16.612609668718648,13.434376575497375 14.881578249893643,14.644775665580132" style="fill:none;stroke:black;stroke-width:1"/>
<polygon points="19.329898198593856,14.312932683580353 22.4748275862069,18.628620689655172 21.29398791866126,15.20026663837044" style="fill:none;stroke:black;stroke-width:1"/>
<polygon points="22.4748275862069,18.628620689655172 17.316881672381676,13.314978929555037 19.356129501465652,13.765528855589789" style="fill:none;stroke:black;stroke-width:1"/>
<polygon points="23.13386265912581,18.513950551274302 22.4748275862069,18.628620689655172 21.472359162114298,18.759218512429328" style="fill:none;stroke:black;stroke-width:1"/>
<polygon points="18.654857546407776,15.838351074679684 22.4748275862069,18.628620689655172 16.64997753173671,16.356881813696045" style="fill:none;stroke:black;stroke-width:1"/>
<polygon points="13.751022734239353,16.481175467222016 22.4748275862069,18.628620689655172 14.881578249893643,14.644775665580132" style="fill:none;stroke:black;stroke-width:1"/>
<polygon points="22.4748275862069,18.628620689655172 15.596538607916411,18.050007507716565 16.64997753173671,16.356881813696045" style="fill:none;stroke:black;stroke-width:1"/>
<polygon points="22.4748275862069,18.628620689655172 16.851740958238402,22.70406098324959 19.769017442105383,16.532989339375952" style="fill:none;stroke:black;stroke-width:1"/>
<polygon points="22.4748275862069,18.628620689655172 14.706365495523023,24.123423409639248 13.036016635542369,22.730819150465045" style="fill:none;stroke:black;stroke-width:1"/>
<polygon points="22.4748275862069,18.628620689655172 16.52597191469554,20.744632239544814 14.883513375497145,19.534154656950452" style="fill:none;stroke:black;stroke-width:1"/>
<polygon points="22.4748275862069,18.628620689655172 21.725603900069835,19.716470305323117 21.192592460276195,18.62275512878447" style="fill:none;stroke:black;stroke-width:1"/>
<polygon points="20.668192125771398,21.64452232362887 22.4748275862069,18.628620689655172 18.975248073662716,22.992074408141598" style="fill:none;stroke:black;stroke-width:1"/>
<polygon points="22.4748275862069,18.628620689655172 22.642685846332988,22.26071226691395 21.14564632005593,23.806378951235402" style="fill:none;stroke:black;stroke-width:1"/>
<polygon points="20.502034944747997,16.844874184732056 22.4748275862069,18.628620689655172 18.654857546407776,15.838351074679684" style="fill:none;stroke:black;stroke-width:1"/>
<polygon points="22.4748275862069,18.628620689655172 13.751022734239353,16.481175467222016 13.823000018831289,18.116118453890312" style="fill:none;stroke:black;stroke-width:1"/>
<polygon points="15.596538607916411,18.050007507716565 22.4748275862069,18.628620689655172 13.823000018831289,18.116118453890312" style="fill:none;stroke:black;stroke-width:1"/>
<polygon points="13.414524928181123,14.817441189565471 22.4748275862069,18.628620689655172 12.209312100500153,16.515941167105993" style="fill:none;stroke:black;stroke-width:1"/>
<polygon points="22.4748275862069,18.628620689655172 20.573193617118232,18.496858877679653 16.612609668718648,13.434376575497375" style="fill:none;stroke:black;stroke-width:1"/>
<polygon points="11.971825550098178,20.829115566449907 22.4748275862069,18.628620689655172 13.036016635542369,22.730819150465045" style="fill:none;stroke:black;stroke-width:1"/>
<polygon points="22.4748275862069,18.628620689655172 15.804632024523139,18.322721482738814 17.125890837329674,20.006831288841337" style="fill:none;stroke:black;stroke-width:1"/>
<polygon points="21.00832333548221,14.913709157907846 22.4748275862069,18.628620689655172 19.356129501465652,13.765528855589789" style="fill:none;stroke:black;stroke-width:1"/>
<polygon points="22.1049871335954,16.592360326477973 22.4748275862069,18.628620689655172 21.00832333548221,14.913709157907846" style="fill:none;stroke:black;stroke-width:1"/>
<polygon points="16.52597191469554,20.744632239544814 22.4748275862069,18.628620689655172 18.558413912690177,20.47778181447965" style="fill:none;stroke:black;stroke-width:1"/>
<polygon points="22.4748275862069,18.628620689655172 19.78194032905484,18.930601076546743 18.558413912690177,20.47778181447965" style="fill:none;stroke:black;stroke-width:1"/>
<polygon points="22.4748275862069,18.628620689655172 20.668192125771398,21.64452232362887 21.725603900069835,19.716470305323117" style="fill:none;stroke:black;stroke-width:1"/>
<polygon points="22.689417825015695,16.74969564908209 22.4748275862069,18.628620689655172 23.13386265912581,18.513950551274302" style="fill:none;stroke:black;stroke-width:1"/>
<polygon points="22.642685846332988,22.26071226691395 22.4748275862069,18.628620689655172 23.489372622042453,20.251883134178293" style="fill:none;stroke:black;stroke-width:1"/>
<polygon points="22.4748275862069,18.628620689655172 19.329898198593856,14.312932683580353 23.489372622042453,20.251883134178293" style="fill:none;stroke:black;stroke-width:1"/>
<polygon points="19.29094726815687,20.059181602300505 22.4748275862069,18.628620689655172 17.125890837329674,20.006831288841337" style="fill:none;stroke:black;stroke-width:1"/>
<polygon points="18.112599003623238,15.483911279942891 22.4748275862069,18.628620689655172 19.769017442105383,16.532989339375952" style="fill:none;stroke:black;stroke-width:1"/>
<polygon points="16.851740958238402,22.70406098324959 22.4748275862069,18.628620689655172 14.788857519118464,21.905469146549876" style="fill:none;stroke:black;stroke-width:1"/>
<polygon points="13.978797550930716,18.173315057455824 22.4748275862069,18.628620689655172 14.883513375497145,19.534154656950452" style="fill:none;stroke:black;stroke-width:1"/>
<polygon points="14.706365495523023,24.123423409639248 22.4748275862069,18.628620689655172 16.812842715110012,24.838005106623598" style="fill:none;stroke:black;stroke-width:1"/>
<polygon points="22.4748275862069,18.628620689655172 19.13622427417523,24.720635590634636 16.812842715110012,24.838005106623598" style="fill:none;stroke:black;stroke-width:1"/>
<polygon points="22.4748275862069,18.628620689655172 13.249189438541533,20.40905447128086 14.788857519118464,21.905469146549876" style="fill:none;stroke:black;stroke-width:1"/>
<polygon points="17.316881672381676,13.314978929555037 22.4748275862069,18.628620689655172 15.167850872103529,13.694160026777839" style="fill:none;stroke:black;stroke-width:1"/>
<polygon points="22.4748275862069,18.628620689655172 13.414524928181123,14.817441189565471 15.167850872103529,13.694160026777839" style="fill:none;stroke:black;stroke-width:1"/>
<polygon points="20.573193617118232,18.496858877679653 22.4748275862069,18.628620689655172 19.29094726815687,20.059181602300505" style="fill:none;stroke:black;stroke-width:1"/>
<polygon points="22.4748275862069,18.628620689655172 18.112599003623238,15.483911279942891 16.2738300794628,16.275916953887002" style="fill:none;stroke:black;stroke-width:1"/>
<polygon points="15.804632024523139,18.322721482738814 22.4748275862069,18.628620689655172 16.2738300794628,16.275916953887002" style="fill:none;stroke:black;stroke-width:1"/>
<polygon points="22.4748275862069,18.628620689655172 13.978797550930716,18.173315057455824 12.443600818304223,18.424499400402393" style="fill:none;stroke:black;stroke-width:1"/>
<polygon points="13.249189438541533,20.40905447128086 22.4748275862069,18.628620689655172 12.443600818304223,18.424499400402393" style="fill:none;stroke:black;stroke-width:1"/>
<polygon points="22.4748275862069,18.628620689655172 13.22604675309891,22.380465993282943 13.279710933672904,22.268994174710578" style="fill:none;stroke:black;stroke-width:1"/>
<polygon points="22.4748275862069,18.628620689655172 13.279710933672904,22.268994174710578 18.975248073662716,22.992074408141598" style="fill:none;stroke:black;stroke-width:1"/>
<polygon points="13.22604675309891,22.380465993282943 22.4748275862069,18.628620689655172 13.159162718683104,22.48482712636435" style="fill:none;stroke:black;stroke-width:1"/>
<polygon points="22.4748275862069,18.628620689655172 22.1049871335954,16.592360326477973 13.159162718683104,22.48482712636435" style="fill:none;stroke:black;stroke-width:1"/>
<polygon points="12.703762562254093,22.772767199103043 13.364023269664115,21.68396183449248 13.375132047433322,21.764736639856988" style="fill:none;stroke:black;stroke-width:1"/>
<polygon points="13.377321304816954,21.85388743238547 12.703762562254093,22.772767199103043 13.375132047433322,21.764736639856988" style="fill:none;stroke:black;stroke-width:1"/>
<polygon points="12.703762562254093,22.772767199103043 12.050938954845748,22.006120560859948 12.080747561722323,21.899378793594185" style="fill:none;stroke:black;stroke-width:1"/>
<polygon points="12.703762562254093,22.772767199103043 12.898209066429757,22.706315955493444 12.801277082736423,22.747859155281876" style="fill:none;stroke:black;stroke-width:1"/>
<polygon points="12.703762562254093,22.772767199103043 13.36961158534183,21.950230252585577 13.351179545313192,22.05246771839228" style="fill:none;stroke:black;stroke-width:1"/>
<polygon points="13.321370938436619,22.159209485658046 12.703762562254093,22.772767199103043 13.351179545313192,22.05246771839228" style="fill:none;stroke:black;stroke-width:1"/>
<polygon points="12.703762562254093,22.772767199103043 13.345115094147253,21.612614881463127 13.364023269664115,21.68396183449248" style="fill:none;stroke:black;stroke-width:1"/>
<polygon points="12.703762562254093,22.772767199103043 13.22604675309891,22.380465993282943 13.159162718683104,22.48482712636435" style="fill:none;stroke:black;stroke-width:1"/>
<polygon points="12.898209066429757,22.706315955493444 12.703762562254093,22.772767199103043 12.99183061060335,22.64838747433297" style="fill:none;stroke:black;stroke-width:1"/>
<polygon points="13.079582909926774,22.574416548478204 12.703762562254093,22.772767199103043 13.159162718683104,22.48482712636435" style="fill:none;stroke:black;stroke-width:1"/>
<polygon points="12.703762562254093,22.772767199103043 12.038095230494829,22.374626444759755 12.02698645272562,22.293851639395243" style="fill:none;stroke:black;stroke-width:1"/>
<polygon points="13.36961158534183,21.950230252585577 12.703762562254093,22.772767199103043 13.377321304816954,21.85388743238547" style="fill:none;stroke:black;stroke-width:1"/>
<polygon points="13.22604675309891,22.380465993282943 12.703762562254093,22.772767199103043 13.279710933672904,22.268994174710578" style="fill:none;stroke:black;stroke-width:1"/>
<polygon points="12.703762562254093,22.772767199103043 13.321370938436619,22.159209485658046 13.279710933672904,22.268994174710578" style="fill:none;stroke:black;stroke-width:1"/>
<polygon points="13.21441344026334,21.423052110195783 12.703762562254093,22.772767199103043 13.16474231262931,21.385517548746606" style="fill:none;stroke:black;stroke-width:1"/>
<polygon points="12.703762562254093,22.772767199103043 13.25514539299148,21.461828428049117 13.288976441425437,21.501654335053892" style="fill:none;stroke:black;stroke-width:1"/>
<polygon points="12.409978666866326,21.41170673349152 12.703762562254093,22.772767199103043 12.322556857632538,21.48510333264466" style="fill:none;stroke:black;stroke-width:1"/>
<polygon points="12.703762562254093,22.772767199103043 13.079582909926774,22.574416548478204 12.99183061060335,22.64838747433297" style="fill:none;stroke:black;stroke-width:1"/>
<polygon points="12.703762562254093,22.772767199103043 12.146980995725697,22.59690384925389 12.113142058733501,22.556933944198335" style="fill:none;stroke:black;stroke-width:1"/>
<polygon points="12.703762562254093,22.772767199103043 13.106532143891192,21.35119858089753 13.16474231262931,21.385517548746606" style="fill:none;stroke:black;stroke-width:1"/>
<polygon points="12.703762562254093,22.772767199103043 12.600983287045263,21.31283872425483 12.699102112461816,21.287759842952067" style="fill:none;stroke:black;stroke-width:1"/>
<polygon points="12.703762562254093,22.772767199103043 12.23774731749647,22.67370067855228 12.187881958213197,22.635945045325325" style="fill:none;stroke:black;stroke-width:1"/>
<polygon points="12.082467855476654,22.50698931617535 12.703762562254093,22.772767199103043 12.113142058733501,22.556933944198335" style="fill:none;stroke:black;stroke-width:1"/>
<polygon points="12.703762562254093,22.772767199103043 12.057003406011685,22.445973397789103 12.038095230494829,22.374626444759755" style="fill:none;stroke:black;stroke-width:1"/>
<polygon points="12.703762562254093,22.772767199103043 13.040170951415003,21.321876458612547 13.106532143891192,21.35119858089753" style="fill:none;stroke:black;stroke-width:1"/>
<polygon points="13.319650644682287,21.551598963076877 12.703762562254093,22.772767199103043 13.288976441425437,21.501654335053892" style="fill:none;stroke:black;stroke-width:1"/>
<polygon points="12.795053780032049,21.279003999085848 12.703762562254093,22.772767199103043 12.699102112461816,21.287759842952067" style="fill:none;stroke:black;stroke-width:1"/>
<polygon points="12.600983287045263,21.31283872425483 12.703762562254093,22.772767199103043 12.503669958025279,21.354204282217694" style="fill:none;stroke:black;stroke-width:1"/>
<polygon points="12.703762562254093,22.772767199103043 12.409978666866326,21.41170673349152 12.503669958025279,21.354204282217694" style="fill:none;stroke:black;stroke-width:1"/>
<polygon points="12.024797195341987,22.20470084686676 12.703762562254093,22.772767199103043 12.02698645272562,22.293851639395243" style="fill:none;stroke:black;stroke-width:1"/>
<polygon points="12.703762562254093,22.772767199103043 12.243872559132821,21.574080298720716 12.322556857632538,21.48510333264466" style="fill:none;stroke:black;stroke-width:1"/>
<polygon points="12.057003406011685,22.445973397789103 12.703762562254093,22.772767199103043 12.082467855476654,22.50698931617535" style="fill:none;stroke:black;stroke-width:1"/>
<polygon points="12.146980995725697,22.59690384925389 12.703762562254093,22.772767199103043 12.187881958213197,22.635945045325325" style="fill:none;stroke:black;stroke-width:1"/>
<polygon points="12.122407566486036,21.789594104541653 12.703762562254093,22.772767199103043 12.080747561722323,21.899378793594185" style="fill:none;stroke:black;stroke-width:1"/>
<polygon points="13.25514539299148,21.461828428049117 12.703762562254093,22.772767199103043 13.21441344026334,21.423052110195783" style="fill:none;stroke:black;stroke-width:1"/>
<polygon points="13.345115094147253,21.612614881463127 12.703762562254093,22.772767199103043 13.319650644682287,21.551598963076877" style="fill:none;stroke:black;stroke-width:1"/>
<polygon points="12.703762562254093,22.772767199103043 12.795053780032049,21.279003999085848 12.884343302041477,21.284406044821896" style="fill:none;stroke:black;stroke-width:1"/>
<polygon points="12.966010594342828,21.29914288580784 12.703762562254093,22.772767199103043 12.884343302041477,21.284406044821896" style="fill:none;stroke:black;stroke-width:1"/>
<polygon points="12.703762562254093,22.772767199103043 12.024797195341987,22.20470084686676 12.032506914817112,22.10835802666665" style="fill:none;stroke:black;stroke-width:1"/>
<polygon points="12.050938954845748,22.006120560859948 12.703762562254093,22.772767199103043 12.032506914817112,22.10835802666665" style="fill:none;stroke:black;stroke-width:1"/>
<polygon points="12.243872559132821,21.574080298720716 12.703762562254093,22.772767199103043 12.176206896551724,21.678275862068965" style="fill:none;stroke:black;stroke-width:1"/>
<polygon points="12.703762562254093,22.772767199103043 12.122407566486036,21.789594104541653 12.176206896551724,21.678275862068965" style="fill:none;stroke:black;stroke-width:1"/>
<polygon points="12.36278280767891,22.737652492920922 12.703762562254093,22.772767199103043 12.437213062069976,22.760475718182434" style="fill:none;stroke:black;stroke-width:1"/>
<polygon points="12.703762562254093,22.772767199103043 12.5191754735801,22.775258405184864 12.437213062069976,22.760475718182434" style="fill:none;stroke:black;stroke-width:1"/>
<polygon points="13.040170951415003,21.321876458612547 12.703762562254093,22.772767199103043 12.966010594342828,21.29914288580784" style="fill:none;stroke:black;stroke-width:1"/>
<polygon points="12.296176939773712,22.70819691173881 12.703762562254093,22.772767199103043 12.36278280767891,22.737652492920922" style="fill:none;stroke:black;stroke-width:1"/>
<polygon points="12.703762562254093,22.772767199103043 12.608549520491946,22.78090363493439 12.5191754735801,22.775258405184864" style="fill:none;stroke:black;stroke-width:1"/>
<polygon points="12.703762562254093,22.772767199103043 12.296176939773712,22.70819691173881 12.23774731749647,22.67370067855228" style="fill:none;stroke:black;stroke-width:1"/>
</svg>
