<?xml version="1.0" encoding="UTF-8" standalone="no"?>
<svg xmlns="http://www.w3.org/2000/svg" version="1.1" width="800" height="800">
<polygon points="17.03986259738197,16.519785499407355 18.08843464210109,14.682151342197931 18.898833069705404,16.58435199354953" style="fill:none;stroke:black;stroke-width:1"/>
<polygon points="15.941046679450443,9.214491733751327 14.490927119550097,9.065330710965364 14.920219180149832,7.950867362394185" style="fill:none;stroke:black;stroke-width:1"/>
<polygon points="20.819439835215274,6.018712412912132 21.480309858318595,4.911433026076634 22.628833075317125,6.138454672357079" style="fill:none;stroke:black;stroke-width:1"/>
<polygon points="18.052555825009716,4.553042951043232 10.707981347647479,7.558697618377321 18.455002983095454,3.635090334504114" style="fill:none;stroke:black;stroke-width:1"/>
<polygon points="14.403683837963047,8.111169628432704 14.563103448275864,9.00448275862069 13.839857075749302,6.878930155201079" style="fill:none;stroke:black;stroke-width:1"/>
<polygon points="14.490927119550097,9.065330710965364 14.563103448275864,9.00448275862069 14.920219180149832,7.950867362394185" style="fill:none;stroke:black;stroke-width:1"/>
<polygon points="14.563103448275864,9.00448275862069 14.403683837963047,8.111169628432704 14.920219180149832,7.950867362394185" style="fill:none;stroke:black;stroke-width:1"/>
<polygon points="14.0216879301227,5.336625013730553 13.981101827771562,6.718053906962094 13.839857075749302,6.878930155201079" style="fill:none;stroke:black;stroke-width:1"/>
<polygon points="13.981101827771562,6.718053906962094 14.403683837963047,8.111169628432704 13.839857075749302,6.878930155201079" style="fill:none;stroke:black;stroke-width:1"/>
<polygon points="15.346176304205995,4.4802807338982324 13.981101827771562,6.718053906962094 14.0216879301227,5.336625013730553" style="fill:none;stroke:black;stroke-width:1"/>
<polygon points="20.379814147505307,15.806773360370679 19.629403013101616,14.180385300424394 21.235331280035833,13.881766553510905" style="fill:none;stroke:black;stroke-width:1"/>
<polygon points="19.629403013101616,14.180385300424394 20.379814147505307,15.806773360370679 18.898833069705404,16.58435199354953" style="fill:none;stroke:black;stroke-width:1"/>
<polygon points="18.08843464210109,14.682151342197931 19.629403013101616,14.180385300424394 18.898833069705404,16.58435199354953" style="fill:none;stroke:black;stroke-width:1"/>
<polygon points="19.598632695877875,11.959424618437543 21.301656309440844,12.542170459871748 21.235331280035833,13.881766553510905" style="fill:none;stroke:black;stroke-width:1"/>
<polygon points="19.629403013101616,14.180385300424394 19.598632695877875,11.959424618437543 21.235331280035833,13.881766553510905" style="fill:none;stroke:black;stroke-width:1"/>
<polygon points="16.58277064192443,8.049295127785939 15.941046679450443,9.214491733751327 14.920219180149832,7.950867362394185" style="fill:none;stroke:black;stroke-width:1"/>
<polygon points="15.941046679450443,9.214491733751327 16.58277064192443,8.049295127785939 17.65225046203551,9.132137674222133" style="fill:none;stroke:black;stroke-width:1"/>
<polygon points="20.819439835215274,6.018712412912132 19.381358641315817,5.2576320776769245 21.480309858318595,4.911433026076634" style="fill:none;stroke:black;stroke-width:1"/>
<polygon points="18.455002983095454,3.635090334504114 16.439282883375096,4.108334679119311 16.77359038390185,3.7979922040533607" style="fill:none;stroke:black;stroke-width:1"/>
<polygon points="15.094100403888282,4.98751785595398 13.981101827771562,6.718053906962094 15.346176304205995,4.4802807338982324" style="fill:none;stroke:black;stroke-width:1"/>
<polygon points="13.981101827771562,6.718053906962094 15.094100403888282,4.98751785595398 14.403683837963047,8.111169628432704" style="fill:none;stroke:black;stroke-width:1"/>
<polygon points="15.094100403888282,4.98751785595398 15.346176304205995,4.4802807338982324 16.77359038390185,3.7979922040533607" style="fill:none;stroke:black;stroke-width:1"/>
<polygon points="22.510164944114152,7.859198689200404 20.819439835215274,6.018712412912132 22.628833075317125,6.138454672357079" style="fill:none;stroke:black;stroke-width:1"/>
<polygon points="21.301656309440844,12.542170459871748 22.510164944114152,7.859198689200404 21.235331280035833,13.881766553510905" style="fill:none;stroke:black;stroke-width:1"/>
<polygon points="22.510164944114152,7.859198689200404 21.301656309440844,12.542170459871748 21.534087040723882,10.89356463134411" style="fill:none;stroke:black;stroke-width:1"/>
<polygon points="14.63208388227157,10.737507649460897 14.563103448275864,9.00448275862069 14.490927119550097,9.065330710965364" style="fill:none;stroke:black;stroke-width:1"/>
<polygon points="14.563103448275864,9.00448275862069 14.63208388227157,10.737507649460897 13.839857075749302,6.878930155201079" style="fill:none;stroke:black;stroke-width:1"/>
<polygon points="19.382904209247904,9.06314911347248 19.058886135843267,9.620087291274048 17.65225046203551,9.132137674222133" style="fill:none;stroke:black;stroke-width:1"/>
<polygon points="19.598632695877875,11.959424618437543 19.696881376602825,10.523646626746224 21.301656309440844,12.542170459871748" style="fill:none;stroke:black;stroke-width:1"/>
<polygon points="21.301656309440844,12.542170459871748 19.696881376602825,10.523646626746224 21.534087040723882,10.89356463134411" style="fill:none;stroke:black;stroke-width:1"/>
<polygon points="19.696881376602825,10.523646626746224 19.382904209247904,9.06314911347248 21.534087040723882,10.89356463134411" style="fill:none;stroke:black;stroke-width:1"/>
<polygon points="19.382904209247904,9.06314911347248 19.696881376602825,10.523646626746224 19.058886135843267,9.620087291274048" style="fill:none;stroke:black;stroke-width:1"/>
<polygon points="22.164389377996834,22.140017438271126 19.629403013101616,14.180385300424394 18.08843464210109,14.682151342197931" style="fill:none;stroke:black;stroke-width:1"/>
<polygon points="19.629403013101616,14.180385300424394 22.164389377996834,22.140017438271126 22.25882621691771,22.00952727468176" style="fill:none;stroke:black;stroke-width:1"/>
<polygon points="21.103864603578085,23.11639173019295 21.23781188795219,23.027911012580713 18.08843464210109,14.682151342197931" style="fill:none;stroke:black;stroke-width:1"/>
<polygon points="15.955155098229703,8.275843604882095 16.58277064192443,8.049295127785939 14.920219180149832,7.950867362394185" style="fill:none;stroke:black;stroke-width:1"/>
<polygon points="14.403683837963047,8.111169628432704 15.955155098229703,8.275843604882095 14.920219180149832,7.950867362394185" style="fill:none;stroke:black;stroke-width:1"/>
<polygon points="15.094100403888282,4.98751785595398 15.955155098229703,8.275843604882095 14.403683837963047,8.111169628432704" style="fill:none;stroke:black;stroke-width:1"/>
<polygon points="16.58277064192443,8.049295127785939 18.267801969827836,8.145073198306525 17.65225046203551,9.132137674222133" style="fill:none;stroke:black;stroke-width:1"/>
<polygon points="18.267801969827836,8.145073198306525 19.382904209247904,9.06314911347248 17.65225046203551,9.132137674222133" style="fill:none;stroke:black;stroke-width:1"/>
<polygon points="19.382904209247904,9.06314911347248 18.267801969827836,8.145073198306525 19.721388599070174,7.606237041643149" style="fill:none;stroke:black;stroke-width:1"/>
<polygon points="19.381358641315817,5.2576320776769245 19.90661935019937,4.527807564087464 21.480309858318595,4.911433026076634" style="fill:none;stroke:black;stroke-width:1"/>
<polygon points="19.90661935019937,4.527807564087464 19.381358641315817,5.2576320776769245 18.052555825009716,4.553042951043232" style="fill:none;stroke:black;stroke-width:1"/>
<polygon points="21.480309858318595,4.911433026076634 19.90661935019937,4.527807564087464 18.455002983095454,3.635090334504114" style="fill:none;stroke:black;stroke-width:1"/>
<polygon points="19.90661935019937,4.527807564087464 18.052555825009716,4.553042951043232 18.455002983095454,3.635090334504114" style="fill:none;stroke:black;stroke-width:1"/>
<polygon points="20.647841529727778,7.638812598594809 19.381358641315817,5.2576320776769245 20.819439835215274,6.018712412912132" style="fill:none;stroke:black;stroke-width:1"/>
<polygon points="22.510164944114152,7.859198689200404 20.647841529727778,7.638812598594809 20.819439835215274,6.018712412912132" style="fill:none;stroke:black;stroke-width:1"/>
<polygon points="21.571249523428495,9.140661073431968 22.510164944114152,7.859198689200404 21.534087040723882,10.89356463134411" style="fill:none;stroke:black;stroke-width:1"/>
<polygon points="19.382904209247904,9.06314911347248 21.571249523428495,9.140661073431968 21.534087040723882,10.89356463134411" style="fill:none;stroke:black;stroke-width:1"/>
<polygon points="21.571249523428495,9.140661073431968 19.382904209247904,9.06314911347248 19.721388599070174,7.606237041643149" style="fill:none;stroke:black;stroke-width:1"/>
<polygon points="20.647841529727778,7.638812598594809 21.571249523428495,9.140661073431968 19.721388599070174,7.606237041643149" style="fill:none;stroke:black;stroke-width:1"/>
<polygon points="21.571249523428495,9.140661073431968 20.647841529727778,7.638812598594809 22.510164944114152,7.859198689200404" style="fill:none;stroke:black;stroke-width:1"/>
<polygon points="13.178038940526722,19.817553509947526 17.49422510252965,9.658208456459594 17.65225046203551,9.132137674222133" style="fill:none;stroke:black;stroke-width:1"/>
<polygon points="12.953428696470432,23.089654591562777 17.49422510252965,9.658208456459594 12.908180009155078,23.155875106548542" style="fill:none;stroke:black;stroke-width:1"/>
<polygon points="17.49422510252965,9.658208456459594 15.941046679450443,9.214491733751327 17.65225046203551,9.132137674222133" style="fill:none;stroke:black;stroke-width:1"/>
<polygon points="22.164389377996834,22.140017438271126 21.733793103448274,20.765862068965518 22.25882621691771,22.00952727468176" style="fill:none;stroke:black;stroke-width:1"/>
<polygon points="22.230794456749983,20.994372451836128 22.362784325596174,25.17466252641242 19.598632695877875,11.959424618437543" style="fill:none;stroke:black;stroke-width:1"/>
<polygon points="22.428327300493223,21.502614052255275 19.598632695877875,11.959424618437543 19.629403013101616,14.180385300424394" style="fill:none;stroke:black;stroke-width:1"/>
<polygon points="22.428327300493223,21.502614052255275 22.406782410936724,21.316015129999023 19.598632695877875,11.959424618437543" style="fill:none;stroke:black;stroke-width:1"/>
<polygon points="22.40240032275183,21.687291102685805 22.428327300493223,21.502614052255275 19.629403013101616,14.180385300424394" style="fill:none;stroke:black;stroke-width:1"/>
<polygon points="15.58897404890432,15.475412264509831 16.419791402579243,14.17580945953948 17.03986259738197,16.519785499407355" style="fill:none;stroke:black;stroke-width:1"/>
<polygon points="16.419791402579243,14.17580945953948 18.08843464210109,14.682151342197931 17.03986259738197,16.519785499407355" style="fill:none;stroke:black;stroke-width:1"/>
<polygon points="15.955155098229703,8.275843604882095 17.55428968989218,8.192963886969228 16.58277064192443,8.049295127785939" style="fill:none;stroke:black;stroke-width:1"/>
<polygon points="17.55428968989218,8.192963886969228 18.267801969827836,8.145073198306525 16.58277064192443,8.049295127785939" style="fill:none;stroke:black;stroke-width:1"/>
<polygon points="10.856379369235288,7.52602609412755 10.707981347647479,7.558697618377321 18.052555825009716,4.553042951043232" style="fill:none;stroke:black;stroke-width:1"/>
<polygon points="10.999779556751143,7.500246945332957 10.856379369235288,7.52602609412755 18.052555825009716,4.553042951043232" style="fill:none;stroke:black;stroke-width:1"/>
<polygon points="11.270488556265546,7.468035018592389 11.137907441869684,7.481027483114313 18.052555825009716,4.553042951043232" style="fill:none;stroke:black;stroke-width:1"/>
<polygon points="11.137907441869684,7.481027483114313 10.999779556751143,7.500246945332957 18.052555825009716,4.553042951043232" style="fill:none;stroke:black;stroke-width:1"/>
<polygon points="19.696881376602825,10.523646626746224 14.887460387989817,10.14341403083802 19.058886135843267,9.620087291274048" style="fill:none;stroke:black;stroke-width:1"/>
<polygon points="12.175773327639094,11.936556405454306 14.887460387989817,10.14341403083802 19.696881376602825,10.523646626746224" style="fill:none;stroke:black;stroke-width:1"/>
<polygon points="16.419791402579243,14.17580945953948 20.426219387477516,23.317404807738185 18.08843464210109,14.682151342197931" style="fill:none;stroke:black;stroke-width:1"/>
<polygon points="15.497051762628963,10.9597603753778 15.5606991601494,12.392279876375174 15.022583692528315,13.769429457096983" style="fill:none;stroke:black;stroke-width:1"/>
<polygon points="15.5606991601494,12.392279876375174 15.58897404890432,15.475412264509831 15.022583692528315,13.769429457096983" style="fill:none;stroke:black;stroke-width:1"/>
<polygon points="15.919704293920818,9.716442831255984 14.63208388227157,10.737507649460897 14.490927119550097,9.065330710965364" style="fill:none;stroke:black;stroke-width:1"/>
<polygon points="15.941046679450443,9.214491733751327 15.919704293920818,9.716442831255984 14.490927119550097,9.065330710965364" style="fill:none;stroke:black;stroke-width:1"/>
<polygon points="22.406782410936724,21.316015129999023 22.338950762719918,21.14344376873332 19.598632695877875,11.959424618437543" style="fill:none;stroke:black;stroke-width:1"/>
<polygon points="22.338950762719918,21.14344376873332 22.230794456749983,20.994372451836128 19.598632695877875,11.959424618437543" style="fill:none;stroke:black;stroke-width:1"/>
<polygon points="22.338950762719918,21.14344376873332 22.40240032275183,21.687291102685805 22.230794456749983,20.994372451836128" style="fill:none;stroke:black;stroke-width:1"/>
<polygon points="22.428327300493223,21.502614052255275 22.338950762719918,21.14344376873332 22.406782410936724,21.316015129999023" style="fill:none;stroke:black;stroke-width:1"/>
<polygon points="22.338950762719918,21.14344376873332 22.428327300493223,21.502614052255275 22.40240032275183,21.687291102685805" style="fill:none;stroke:black;stroke-width:1"/>
<polygon points="22.230794456749983,20.994372451836128 22.088628883360496,20.875914986658444 22.362784325596174,25.17466252641242" style="fill:none;stroke:black;stroke-width:1"/>
<polygon points="22.088628883360496,20.875914986658444 21.733793103448274,20.765862068965518 21.91876943288504,20.795185180551268" style="fill:none;stroke:black;stroke-width:1"/>
<polygon points="21.733793103448274,20.765862068965518 22.088628883360496,20.875914986658444 22.25882621691771,22.00952727468176" style="fill:none;stroke:black;stroke-width:1"/>
<polygon points="22.339695383756045,21.857357014487874 19.629403013101616,14.180385300424394 22.25882621691771,22.00952727468176" style="fill:none;stroke:black;stroke-width:1"/>
<polygon points="22.339695383756045,21.857357014487874 22.40240032275183,21.687291102685805 19.629403013101616,14.180385300424394" style="fill:none;stroke:black;stroke-width:1"/>
<polygon points="22.40240032275183,21.687291102685805 22.339695383756045,21.857357014487874 22.230794456749983,20.994372451836128" style="fill:none;stroke:black;stroke-width:1"/>
<polygon points="22.088628883360496,20.875914986658444 22.339695383756045,21.857357014487874 22.25882621691771,22.00952727468176" style="fill:none;stroke:black;stroke-width:1"/>
<polygon points="22.339695383756045,21.857357014487874 22.088628883360496,20.875914986658444 22.230794456749983,20.994372451836128" style="fill:none;stroke:black;stroke-width:1"/>
<polygon points="20.647841529727778,7.638812598594809 12.769356646222963,8.559838513980088 19.381358641315817,5.2576320776769245" style="fill:none;stroke:black;stroke-width:1"/>
<polygon points="12.013441641180352,9.377860107894517 12.769356646222963,8.559838513980088 12.795505508727338,8.784161435578598" style="fill:none;stroke:black;stroke-width:1"/>
<polygon points="19.153424281554663,8.11008416905636 20.647841529727778,7.638812598594809 19.721388599070174,7.606237041643149" style="fill:none;stroke:black;stroke-width:1"/>
<polygon points="18.267801969827836,8.145073198306525 19.153424281554663,8.11008416905636 19.721388599070174,7.606237041643149" style="fill:none;stroke:black;stroke-width:1"/>
<polygon points="19.153424281554663,8.11008416905636 12.769356646222963,8.559838513980088 20.647841529727778,7.638812598594809" style="fill:none;stroke:black;stroke-width:1"/>
<polygon points="12.769356646222963,8.559838513980088 19.153424281554663,8.11008416905636 12.795505508727338,8.784161435578598" style="fill:none;stroke:black;stroke-width:1"/>
<polygon points="17.55428968989218,8.192963886969228 19.153424281554663,8.11008416905636 18.267801969827836,8.145073198306525" style="fill:none;stroke:black;stroke-width:1"/>
<polygon points="10.978940663482973,9.215972613638934 10.856379369235288,7.52602609412755 10.999779556751143,7.500246945332957" style="fill:none;stroke:black;stroke-width:1"/>
<polygon points="11.397248431613367,7.460936862887959 11.270488556265546,7.468035018592389 18.052555825009716,4.553042951043232" style="fill:none;stroke:black;stroke-width:1"/>
<polygon points="19.381358641315817,5.2576320776769245 11.916655603689204,7.531001561335041 18.052555825009716,4.553042951043232" style="fill:none;stroke:black;stroke-width:1"/>
<polygon points="12.064331913149442,7.6009745489858895 11.916655603689204,7.531001561335041 19.381358641315817,5.2576320776769245" style="fill:none;stroke:black;stroke-width:1"/>
<polygon points="17.980745870951587,13.360617646892567 14.866250707242319,14.24609014373641 19.696881376602825,10.523646626746224" style="fill:none;stroke:black;stroke-width:1"/>
<polygon points="17.49422510252965,9.658208456459594 12.85698497491601,23.227679612976956 12.908180009155078,23.155875106548542" style="fill:none;stroke:black;stroke-width:1"/>
<polygon points="19.62588685753049,22.936565675048495 16.419791402579243,14.17580945953948 15.58897404890432,15.475412264509831" style="fill:none;stroke:black;stroke-width:1"/>
<polygon points="15.5606991601494,12.392279876375174 19.62588685753049,22.936565675048495 15.58897404890432,15.475412264509831" style="fill:none;stroke:black;stroke-width:1"/>
<polygon points="15.919704293920818,9.716442831255984 14.932648442935296,12.353698030298577 14.63208388227157,10.737507649460897" style="fill:none;stroke:black;stroke-width:1"/>
<polygon points="14.932648442935296,12.353698030298577 15.919704293920818,9.716442831255984 15.497051762628963,10.9597603753778" style="fill:none;stroke:black;stroke-width:1"/>
<polygon points="14.932648442935296,12.353698030298577 15.497051762628963,10.9597603753778 15.022583692528315,13.769429457096983" style="fill:none;stroke:black;stroke-width:1"/>
<polygon points="14.932648442935296,12.353698030298577 15.022583692528315,13.769429457096983 13.839857075749302,6.878930155201079" style="fill:none;stroke:black;stroke-width:1"/>
<polygon points="14.63208388227157,10.737507649460897 14.932648442935296,12.353698030298577 13.839857075749302,6.878930155201079" style="fill:none;stroke:black;stroke-width:1"/>
<polygon points="21.23781188795219,23.027911012580713 21.352364170723014,22.928356443946136 18.08843464210109,14.682151342197931" style="fill:none;stroke:black;stroke-width:1"/>
<polygon points="21.352364170723014,22.928356443946136 21.453731544047713,22.830793656021235 18.08843464210109,14.682151342197931" style="fill:none;stroke:black;stroke-width:1"/>
<polygon points="21.352364170723014,22.928356443946136 21.23781188795219,23.027911012580713 20.51192431044844,21.248986378029983" style="fill:none;stroke:black;stroke-width:1"/>
<polygon points="21.656462257126986,22.635678631618774 21.757827613666628,22.538121119417546 18.08843464210109,14.682151342197931" style="fill:none;stroke:black;stroke-width:1"/>
<polygon points="21.656462257126986,22.635678631618774 21.01356069777388,20.891671572655582 21.757827613666628,22.538121119417546" style="fill:none;stroke:black;stroke-width:1"/>
<polygon points="22.06192368328554,22.245448582813857 22.164389377996834,22.140017438271126 18.08843464210109,14.682151342197931" style="fill:none;stroke:black;stroke-width:1"/>
<polygon points="21.960558326745897,22.343006095015085 22.06192368328554,22.245448582813857 18.08843464210109,14.682151342197931" style="fill:none;stroke:black;stroke-width:1"/>
<polygon points="22.06192368328554,22.245448582813857 21.733793103448274,20.765862068965518 22.164389377996834,22.140017438271126" style="fill:none;stroke:black;stroke-width:1"/>
<polygon points="21.757827613666628,22.538121119417546 21.859192970206262,22.44056360721632 18.08843464210109,14.682151342197931" style="fill:none;stroke:black;stroke-width:1"/>
<polygon points="21.859192970206262,22.44056360721632 21.960558326745897,22.343006095015085 18.08843464210109,14.682151342197931" style="fill:none;stroke:black;stroke-width:1"/>
<polygon points="21.733793103448274,20.765862068965518 10.168173660184763,23.53372742597201 21.91876943288504,20.795185180551268" style="fill:none;stroke:black;stroke-width:1"/>
<polygon points="21.23781188795219,23.027911012580713 20.4105589539088,21.346543890231217 20.51192431044844,21.248986378029983" style="fill:none;stroke:black;stroke-width:1"/>
<polygon points="21.103864603578085,23.11639173019295 20.4105589539088,21.346543890231217 21.23781188795219,23.027911012580713" style="fill:none;stroke:black;stroke-width:1"/>
<polygon points="20.788203817505767,23.251697355814343 20.10646288428989,21.639216426834906 20.207828240829524,21.541658914633675" style="fill:none;stroke:black;stroke-width:1"/>
<polygon points="11.773481712866115,23.10634547637249 15.5606991601494,12.392279876375174 15.497051762628963,10.9597603753778" style="fill:none;stroke:black;stroke-width:1"/>
<polygon points="11.818730400181465,23.04012496138672 11.773481712866115,23.10634547637249 15.497051762628963,10.9597603753778" style="fill:none;stroke:black;stroke-width:1"/>
<polygon points="23.160579265911302,18.16181724955444 24.020780904122645,19.774629939602555 17.49422510252965,9.658208456459594" style="fill:none;stroke:black;stroke-width:1"/>
<polygon points="19.696881376602825,10.523646626746224 25.011639795211515,17.264433634497237 22.397982332328553,17.715778377775973" style="fill:none;stroke:black;stroke-width:1"/>
<polygon points="25.011639795211515,17.264433634497237 19.696881376602825,10.523646626746224 19.598632695877875,11.959424618437543" style="fill:none;stroke:black;stroke-width:1"/>
<polygon points="12.180393857225855,9.417852035487666 12.644965030555742,9.178973760791502 12.323118208537611,9.390288901882904" style="fill:none;stroke:black;stroke-width:1"/>
<polygon points="17.55428968989218,8.192963886969228 12.180393857225855,9.417852035487666 12.323118208537611,9.390288901882904" style="fill:none;stroke:black;stroke-width:1"/>
<polygon points="19.153424281554663,8.11008416905636 12.751506065514034,8.996295572201003 12.795505508727338,8.784161435578598" style="fill:none;stroke:black;stroke-width:1"/>
<polygon points="12.751506065514034,8.996295572201003 19.153424281554663,8.11008416905636 12.644965030555742,9.178973760791502" style="fill:none;stroke:black;stroke-width:1"/>
<polygon points="12.180393857225855,9.417852035487666 12.751506065514034,8.996295572201003 12.644965030555742,9.178973760791502" style="fill:none;stroke:black;stroke-width:1"/>
<polygon points="12.751506065514034,8.996295572201003 12.013441641180352,9.377860107894517 12.795505508727338,8.784161435578598" style="fill:none;stroke:black;stroke-width:1"/>
<polygon points="12.488654504666588,9.314390072000077 19.153424281554663,8.11008416905636 17.55428968989218,8.192963886969228" style="fill:none;stroke:black;stroke-width:1"/>
<polygon points="19.153424281554663,8.11008416905636 12.488654504666588,9.314390072000077 12.644965030555742,9.178973760791502" style="fill:none;stroke:black;stroke-width:1"/>
<polygon points="12.488654504666588,9.314390072000077 17.55428968989218,8.192963886969228 12.323118208537611,9.390288901882904" style="fill:none;stroke:black;stroke-width:1"/>
<polygon points="12.644965030555742,9.178973760791502 12.488654504666588,9.314390072000077 12.323118208537611,9.390288901882904" style="fill:none;stroke:black;stroke-width:1"/>
<polygon points="11.137907441869684,7.481027483114313 11.161546074232117,9.227342069021907 10.999779556751143,7.500246945332957" style="fill:none;stroke:black;stroke-width:1"/>
<polygon points="11.161546074232117,9.227342069021907 10.978940663482973,9.215972613638934 10.999779556751143,7.500246945332957" style="fill:none;stroke:black;stroke-width:1"/>
<polygon points="11.161546074232117,9.227342069021907 11.137907441869684,7.481027483114313 11.270488556265546,7.468035018592389" style="fill:none;stroke:black;stroke-width:1"/>
<polygon points="10.856379369235288,7.52602609412755 10.776669848243136,9.194306922697471 10.707981347647479,7.558697618377321" style="fill:none;stroke:black;stroke-width:1"/>
<polygon points="10.978940663482973,9.215972613638934 10.776669848243136,9.194306922697471 10.856379369235288,7.52602609412755" style="fill:none;stroke:black;stroke-width:1"/>
<polygon points="10.776669848243136,9.194306922697471 10.978940663482973,9.215972613638934 10.559769285307386,9.161507777290376" style="fill:none;stroke:black;stroke-width:1"/>
<polygon points="11.639221523157056,7.462804309324779 11.517912599587778,7.45940032712179 18.052555825009716,4.553042951043232" style="fill:none;stroke:black;stroke-width:1"/>
<polygon points="11.517912599587778,7.45940032712179 11.397248431613367,7.460936862887959 18.052555825009716,4.553042951043232" style="fill:none;stroke:black;stroke-width:1"/>
<polygon points="11.773492576816064,7.485381148128484 11.639221523157056,7.462804309324779 18.052555825009716,4.553042951043232" style="fill:none;stroke:black;stroke-width:1"/>
<polygon points="11.916655603689204,7.531001561335041 11.773492576816064,7.485381148128484 18.052555825009716,4.553042951043232" style="fill:none;stroke:black;stroke-width:1"/>
<polygon points="10.397289675557463,7.646048548759316 16.439282883375096,4.108334679119311 18.455002983095454,3.635090334504114" style="fill:none;stroke:black;stroke-width:1"/>
<polygon points="10.397289675557463,7.646048548759316 10.235544961705983,7.701393332649995 16.439282883375096,4.108334679119311" style="fill:none;stroke:black;stroke-width:1"/>
<polygon points="9.595163334728658,8.37684862444763 15.094100403888282,4.98751785595398 16.77359038390185,3.7979922040533607" style="fill:none;stroke:black;stroke-width:1"/>
<polygon points="9.88923228228456,8.96004183991327 15.955155098229703,8.275843604882095 15.094100403888282,4.98751785595398" style="fill:none;stroke:black;stroke-width:1"/>
<polygon points="9.725536159669884,8.801377376836017 9.88923228228456,8.96004183991327 15.094100403888282,4.98751785595398" style="fill:none;stroke:black;stroke-width:1"/>
<polygon points="20.861933674232183,14.834720635937265 19.696881376602825,10.523646626746224 22.397982332328553,17.715778377775973" style="fill:none;stroke:black;stroke-width:1"/>
<polygon points="20.861933674232183,14.834720635937265 17.980745870951587,13.360617646892567 19.696881376602825,10.523646626746224" style="fill:none;stroke:black;stroke-width:1"/>
<polygon points="10.402092070327662,14.693196099682787 12.175773327639094,11.936556405454306 19.696881376602825,10.523646626746224" style="fill:none;stroke:black;stroke-width:1"/>
<polygon points="10.497285460024848,17.13581936071524 10.402092070327662,14.693196099682787 19.696881376602825,10.523646626746224" style="fill:none;stroke:black;stroke-width:1"/>
<polygon points="14.866250707242319,14.24609014373641 13.232832394052636,16.94819342101651 19.696881376602825,10.523646626746224" style="fill:none;stroke:black;stroke-width:1"/>
<polygon points="13.232832394052636,16.94819342101651 10.497285460024848,17.13581936071524 19.696881376602825,10.523646626746224" style="fill:none;stroke:black;stroke-width:1"/>
<polygon points="19.058886135843267,9.620087291274048 12.709227883771247,23.58710690495999 17.65225046203551,9.132137674222133" style="fill:none;stroke:black;stroke-width:1"/>
<polygon points="12.734248056923853,23.384807759800353 12.799190622771102,23.30427880451979 17.49422510252965,9.658208456459594" style="fill:none;stroke:black;stroke-width:1"/>
<polygon points="12.799190622771102,23.30427880451979 12.85698497491601,23.227679612976956 17.49422510252965,9.658208456459594" style="fill:none;stroke:black;stroke-width:1"/>
<polygon points="12.661721113177979,23.468339582720283 12.734248056923853,23.384807759800353 17.49422510252965,9.658208456459594" style="fill:none;stroke:black;stroke-width:1"/>
<polygon points="21.453731544047713,22.830793656021235 21.55509690058735,22.733236143820005 18.08843464210109,14.682151342197931" style="fill:none;stroke:black;stroke-width:1"/>
<polygon points="21.55509690058735,22.733236143820005 21.656462257126986,22.635678631618774 18.08843464210109,14.682151342197931" style="fill:none;stroke:black;stroke-width:1"/>
<polygon points="20.727695104120006,21.05333205581372 21.55509690058735,22.733236143820005 21.453731544047713,22.830793656021235" style="fill:none;stroke:black;stroke-width:1"/>
<polygon points="21.01356069777388,20.891671572655582 21.179337911850393,20.832318940189477 21.757827613666628,22.538121119417546" style="fill:none;stroke:black;stroke-width:1"/>
<polygon points="21.179337911850393,20.832318940189477 21.859192970206262,22.44056360721632 21.757827613666628,22.538121119417546" style="fill:none;stroke:black;stroke-width:1"/>
<polygon points="8.238860193934443,17.254560480521274 21.179337911850393,20.832318940189477 9.114453239237978,14.052013683634861" style="fill:none;stroke:black;stroke-width:1"/>
<polygon points="21.179337911850393,20.832318940189477 21.01356069777388,20.891671572655582 9.114453239237978,14.052013683634861" style="fill:none;stroke:black;stroke-width:1"/>
<polygon points="20.613315744480964,21.151358141552016 21.352364170723014,22.928356443946136 20.51192431044844,21.248986378029983" style="fill:none;stroke:black;stroke-width:1"/>
<polygon points="21.352364170723014,22.928356443946136 20.613315744480964,21.151358141552016 21.453731544047713,22.830793656021235" style="fill:none;stroke:black;stroke-width:1"/>
<polygon points="20.613315744480964,21.151358141552016 20.727695104120006,21.05333205581372 21.453731544047713,22.830793656021235" style="fill:none;stroke:black;stroke-width:1"/>
<polygon points="8.603125367127914,20.626251066923025 10.168173660184763,23.53372742597201 21.733793103448274,20.765862068965518" style="fill:none;stroke:black;stroke-width:1"/>
<polygon points="15.837205004849096,26.758262395399008 22.088628883360496,20.875914986658444 21.91876943288504,20.795185180551268" style="fill:none;stroke:black;stroke-width:1"/>
<polygon points="13.803735662142916,9.815666460275429 20.613315744480964,21.151358141552016 11.966734813518825,23.80774693159985" style="fill:none;stroke:black;stroke-width:1"/>
<polygon points="20.00509752775025,21.736773939036137 20.426219387477516,23.317404807738185 19.90373217121061,21.834331451237368" style="fill:none;stroke:black;stroke-width:1"/>
<polygon points="20.309193597369163,21.444101402432445 20.4105589539088,21.346543890231217 21.103864603578085,23.11639173019295" style="fill:none;stroke:black;stroke-width:1"/>
<polygon points="20.788203817505767,23.251697355814343 20.611699709550418,23.29430513555547 20.10646288428989,21.639216426834906" style="fill:none;stroke:black;stroke-width:1"/>
<polygon points="20.00509752775025,21.736773939036137 20.611699709550418,23.29430513555547 20.426219387477516,23.317404807738185" style="fill:none;stroke:black;stroke-width:1"/>
<polygon points="20.611699709550418,23.29430513555547 20.00509752775025,21.736773939036137 20.10646288428989,21.639216426834906" style="fill:none;stroke:black;stroke-width:1"/>
<polygon points="20.426219387477516,23.317404807738185 20.611699709550418,23.29430513555547 18.08843464210109,14.682151342197931" style="fill:none;stroke:black;stroke-width:1"/>
<polygon points="20.611699709550418,23.29430513555547 20.788203817505767,23.251697355814343 18.08843464210109,14.682151342197931" style="fill:none;stroke:black;stroke-width:1"/>
<polygon points="15.919704293920818,9.716442831255984 12.43889457165617,22.42653916442687 15.497051762628963,10.9597603753778" style="fill:none;stroke:black;stroke-width:1"/>
<polygon points="15.5606991601494,12.392279876375174 11.665549314207421,23.264995743559822 19.625960470740104,22.22242301956335" style="fill:none;stroke:black;stroke-width:1"/>
<polygon points="15.785654770267211,21.637963399370932 17.49422510252965,9.658208456459594 13.178038940526722,19.817553509947526" style="fill:none;stroke:black;stroke-width:1"/>
<polygon points="15.785654770267211,21.637963399370932 18.989118292853963,21.166944921874478 17.49422510252965,9.658208456459594" style="fill:none;stroke:black;stroke-width:1"/>
<polygon points="20.934601186522215,18.70987342668074 23.160579265911302,18.16181724955444 17.49422510252965,9.658208456459594" style="fill:none;stroke:black;stroke-width:1"/>
<polygon points="18.989118292853963,21.166944921874478 20.934601186522215,18.70987342668074 17.49422510252965,9.658208456459594" style="fill:none;stroke:black;stroke-width:1"/>
<polygon points="24.020780904122645,19.774629939602555 22.413058167870776,22.672913968675196 17.49422510252965,9.658208456459594" style="fill:none;stroke:black;stroke-width:1"/>
<polygon points="22.413058167870776,22.672913968675196 12.661721113177979,23.468339582720283 17.49422510252965,9.658208456459594" style="fill:none;stroke:black;stroke-width:1"/>
<polygon points="22.285192244920566,12.018698502861731 24.379348938146023,14.471883885448214 19.598632695877875,11.959424618437543" style="fill:none;stroke:black;stroke-width:1"/>
<polygon points="24.379348938146023,14.471883885448214 25.011639795211515,17.264433634497237 19.598632695877875,11.959424618437543" style="fill:none;stroke:black;stroke-width:1"/>
<polygon points="22.362784325596174,25.17466252641242 24.593457448168056,22.807198605938503 19.598632695877875,11.959424618437543" style="fill:none;stroke:black;stroke-width:1"/>
<polygon points="24.593457448168056,22.807198605938503 25.822362717089426,19.73416458068508 19.598632695877875,11.959424618437543" style="fill:none;stroke:black;stroke-width:1"/>
<polygon points="19.31905167397755,10.597036016327355 22.285192244920566,12.018698502861731 19.598632695877875,11.959424618437543" style="fill:none;stroke:black;stroke-width:1"/>
<polygon points="25.822362717089426,19.73416458068508 19.31905167397755,10.597036016327355 19.598632695877875,11.959424618437543" style="fill:none;stroke:black;stroke-width:1"/>
<polygon points="12.490653828737319,7.9700989565573375 12.355709617323075,7.819214247786219 19.381358641315817,5.2576320776769245" style="fill:none;stroke:black;stroke-width:1"/>
<polygon points="12.769356646222963,8.559838513980088 12.703608304851304,8.345208857352631 19.381358641315817,5.2576320776769245" style="fill:none;stroke:black;stroke-width:1"/>
<polygon points="12.703608304851304,8.345208857352631 12.769356646222963,8.559838513980088 12.013441641180352,9.377860107894517" style="fill:none;stroke:black;stroke-width:1"/>
<polygon points="12.751506065514034,8.996295572201003 12.073127999739484,9.409513020340938 12.013441641180352,9.377860107894517" style="fill:none;stroke:black;stroke-width:1"/>
<polygon points="12.073127999739484,9.409513020340938 12.751506065514034,8.996295572201003 12.180393857225855,9.417852035487666" style="fill:none;stroke:black;stroke-width:1"/>
<polygon points="12.073127999739484,9.409513020340938 12.180393857225855,9.417852035487666 17.55428968989218,8.192963886969228" style="fill:none;stroke:black;stroke-width:1"/>
<polygon points="12.073127999739484,9.409513020340938 17.55428968989218,8.192963886969228 15.955155098229703,8.275843604882095" style="fill:none;stroke:black;stroke-width:1"/>
<polygon points="12.013441641180352,9.377860107894517 12.073127999739484,9.409513020340938 15.955155098229703,8.275843604882095" style="fill:none;stroke:black;stroke-width:1"/>
<polygon points="11.397248431613367,7.460936862887959 11.319450423695773,9.229252507753525 11.270488556265546,7.468035018592389" style="fill:none;stroke:black;stroke-width:1"/>
<polygon points="11.319450423695773,9.229252507753525 11.161546074232117,9.227342069021907 11.270488556265546,7.468035018592389" style="fill:none;stroke:black;stroke-width:1"/>
<polygon points="10.397289675557463,7.646048548759316 10.554859960313081,7.598594206961501 10.559769285307386,9.161507777290376" style="fill:none;stroke:black;stroke-width:1"/>
<polygon points="10.776669848243136,9.194306922697471 10.554859960313081,7.598594206961501 10.707981347647479,7.558697618377321" style="fill:none;stroke:black;stroke-width:1"/>
<polygon points="10.554859960313081,7.598594206961501 10.776669848243136,9.194306922697471 10.559769285307386,9.161507777290376" style="fill:none;stroke:black;stroke-width:1"/>
<polygon points="10.707981347647479,7.558697618377321 10.554859960313081,7.598594206961501 18.455002983095454,3.635090334504114" style="fill:none;stroke:black;stroke-width:1"/>
<polygon points="10.554859960313081,7.598594206961501 10.397289675557463,7.646048548759316 18.455002983095454,3.635090334504114" style="fill:none;stroke:black;stroke-width:1"/>
<polygon points="9.623836857333409,8.601206151704314 9.725536159669884,8.801377376836017 15.094100403888282,4.98751785595398" style="fill:none;stroke:black;stroke-width:1"/>
<polygon points="9.595163334728658,8.37684862444763 9.623836857333409,8.601206151704314 15.094100403888282,4.98751785595398" style="fill:none;stroke:black;stroke-width:1"/>
<polygon points="9.623836857333409,8.601206151704314 9.595163334728658,8.37684862444763 9.725536159669884,8.801377376836017" style="fill:none;stroke:black;stroke-width:1"/>
<polygon points="9.88923228228456,8.96004183991327 10.103793103448275,9.060344827586206 15.955155098229703,8.275843604882095" style="fill:none;stroke:black;stroke-width:1"/>
<polygon points="10.103793103448275,9.060344827586206 12.013441641180352,9.377860107894517 15.955155098229703,8.275843604882095" style="fill:none;stroke:black;stroke-width:1"/>
<polygon points="10.103793103448275,9.060344827586206 9.88923228228456,8.96004183991327 9.74813291352152,7.98149618930416" style="fill:none;stroke:black;stroke-width:1"/>
<polygon points="10.103793103448275,9.060344827586206 11.319450423695773,9.229252507753525 12.013441641180352,9.377860107894517" style="fill:none;stroke:black;stroke-width:1"/>
<polygon points="11.319450423695773,9.229252507753525 10.103793103448275,9.060344827586206 11.161546074232117,9.227342069021907" style="fill:none;stroke:black;stroke-width:1"/>
<polygon points="9.595163334728658,8.37684862444763 9.640774315399796,8.162849927377327 9.725536159669884,8.801377376836017" style="fill:none;stroke:black;stroke-width:1"/>
<polygon points="9.640774315399796,8.162849927377327 9.88923228228456,8.96004183991327 9.725536159669884,8.801377376836017" style="fill:none;stroke:black;stroke-width:1"/>
<polygon points="9.88923228228456,8.96004183991327 9.640774315399796,8.162849927377327 9.74813291352152,7.98149618930416" style="fill:none;stroke:black;stroke-width:1"/>
<polygon points="9.640774315399796,8.162849927377327 9.595163334728658,8.37684862444763 16.77359038390185,3.7979922040533607" style="fill:none;stroke:black;stroke-width:1"/>
<polygon points="16.439282883375096,4.108334679119311 9.640774315399796,8.162849927377327 16.77359038390185,3.7979922040533607" style="fill:none;stroke:black;stroke-width:1"/>
<polygon points="9.74813291352152,7.98149618930416 9.640774315399796,8.162849927377327 16.439282883375096,4.108334679119311" style="fill:none;stroke:black;stroke-width:1"/>
<polygon points="19.12716716845511,20.52001732123398 15.843587664680843,20.49772556646556 19.058886135843267,9.620087291274048" style="fill:none;stroke:black;stroke-width:1"/>
<polygon points="20.235266968763504,15.273452104532398 15.811697035780272,24.82129428895046 19.058886135843267,9.620087291274048" style="fill:none;stroke:black;stroke-width:1"/>
<polygon points="15.811697035780272,24.82129428895046 12.709227883771247,23.58710690495999 19.058886135843267,9.620087291274048" style="fill:none;stroke:black;stroke-width:1"/>
<polygon points="19.875821793490772,23.204462830873673 20.04552627160308,23.285430722926996 16.419791402579243,14.17580945953948" style="fill:none;stroke:black;stroke-width:1"/>
<polygon points="19.62588685753049,22.936565675048495 19.73383685868871,23.085803212463844 16.419791402579243,14.17580945953948" style="fill:none;stroke:black;stroke-width:1"/>
<polygon points="19.73383685868871,23.085803212463844 19.875821793490772,23.204462830873673 16.419791402579243,14.17580945953948" style="fill:none;stroke:black;stroke-width:1"/>
<polygon points="19.875821793490772,23.204462830873673 19.73383685868871,23.085803212463844 19.625960470740104,22.22242301956335" style="fill:none;stroke:black;stroke-width:1"/>
<polygon points="19.56321020927942,22.392435275825534 15.5606991601494,12.392279876375174 19.625960470740104,22.22242301956335" style="fill:none;stroke:black;stroke-width:1"/>
<polygon points="19.56321020927942,22.392435275825534 19.53699992805346,22.577170748632227 15.5606991601494,12.392279876375174" style="fill:none;stroke:black;stroke-width:1"/>
<polygon points="19.53699992805346,22.577170748632227 19.56321020927942,22.392435275825534 19.62588685753049,22.936565675048495" style="fill:none;stroke:black;stroke-width:1"/>
<polygon points="19.73383685868871,23.085803212463844 19.56321020927942,22.392435275825534 19.625960470740104,22.22242301956335" style="fill:none;stroke:black;stroke-width:1"/>
<polygon points="19.56321020927942,22.392435275825534 19.73383685868871,23.085803212463844 19.62588685753049,22.936565675048495" style="fill:none;stroke:black;stroke-width:1"/>
<polygon points="19.55828718034968,22.763864025978638 19.62588685753049,22.936565675048495 15.5606991601494,12.392279876375174" style="fill:none;stroke:black;stroke-width:1"/>
<polygon points="19.53699992805346,22.577170748632227 19.55828718034968,22.763864025978638 15.5606991601494,12.392279876375174" style="fill:none;stroke:black;stroke-width:1"/>
<polygon points="19.55828718034968,22.763864025978638 19.53699992805346,22.577170748632227 19.62588685753049,22.936565675048495" style="fill:none;stroke:black;stroke-width:1"/>
<polygon points="20.86206159187403,20.966056238689283 21.55509690058735,22.733236143820005 20.727695104120006,21.05333205581372" style="fill:none;stroke:black;stroke-width:1"/>
<polygon points="21.01356069777388,20.891671572655582 20.86206159187403,20.966056238689283 9.114453239237978,14.052013683634861" style="fill:none;stroke:black;stroke-width:1"/>
<polygon points="21.656462257126986,22.635678631618774 20.86206159187403,20.966056238689283 21.01356069777388,20.891671572655582" style="fill:none;stroke:black;stroke-width:1"/>
<polygon points="21.55509690058735,22.733236143820005 20.86206159187403,20.966056238689283 21.656462257126986,22.635678631618774" style="fill:none;stroke:black;stroke-width:1"/>
<polygon points="21.859192970206262,22.44056360721632 21.356538724134406,20.790139223767852 21.960558326745897,22.343006095015085" style="fill:none;stroke:black;stroke-width:1"/>
<polygon points="21.179337911850393,20.832318940189477 21.356538724134406,20.790139223767852 21.859192970206262,22.44056360721632" style="fill:none;stroke:black;stroke-width:1"/>
<polygon points="8.603125367127914,20.626251066923025 21.356538724134406,20.790139223767852 8.238860193934443,17.254560480521274" style="fill:none;stroke:black;stroke-width:1"/>
<polygon points="21.356538724134406,20.790139223767852 21.179337911850393,20.832318940189477 8.238860193934443,17.254560480521274" style="fill:none;stroke:black;stroke-width:1"/>
<polygon points="10.168173660184763,23.53372742597201 12.666688480298575,25.66464032576382 21.91876943288504,20.795185180551268" style="fill:none;stroke:black;stroke-width:1"/>
<polygon points="12.666688480298575,25.66464032576382 15.837205004849096,26.758262395399008 21.91876943288504,20.795185180551268" style="fill:none;stroke:black;stroke-width:1"/>
<polygon points="22.088628883360496,20.875914986658444 19.342262160409916,26.576873143416073 22.362784325596174,25.17466252641242" style="fill:none;stroke:black;stroke-width:1"/>
<polygon points="15.837205004849096,26.758262395399008 19.342262160409916,26.576873143416073 22.088628883360496,20.875914986658444" style="fill:none;stroke:black;stroke-width:1"/>
<polygon points="20.86206159187403,20.966056238689283 11.039471680430879,11.48567244801344 9.114453239237978,14.052013683634861" style="fill:none;stroke:black;stroke-width:1"/>
<polygon points="11.039471680430879,11.48567244801344 20.86206159187403,20.966056238689283 20.727695104120006,21.05333205581372" style="fill:none;stroke:black;stroke-width:1"/>
<polygon points="20.613315744480964,21.151358141552016 11.039471680430879,11.48567244801344 20.727695104120006,21.05333205581372" style="fill:none;stroke:black;stroke-width:1"/>
<polygon points="13.803735662142916,9.815666460275429 11.039471680430879,11.48567244801344 20.613315744480964,21.151358141552016" style="fill:none;stroke:black;stroke-width:1"/>
<polygon points="20.953127014472134,23.191690032648832 20.788203817505767,23.251697355814343 20.207828240829524,21.541658914633675" style="fill:none;stroke:black;stroke-width:1"/>
<polygon points="20.309193597369163,21.444101402432445 20.953127014472134,23.191690032648832 20.207828240829524,21.541658914633675" style="fill:none;stroke:black;stroke-width:1"/>
<polygon points="20.953127014472134,23.191690032648832 20.309193597369163,21.444101402432445 21.103864603578085,23.11639173019295" style="fill:none;stroke:black;stroke-width:1"/>
<polygon points="20.953127014472134,23.191690032648832 21.103864603578085,23.11639173019295 18.08843464210109,14.682151342197931" style="fill:none;stroke:black;stroke-width:1"/>
<polygon points="20.788203817505767,23.251697355814343 20.953127014472134,23.191690032648832 18.08843464210109,14.682151342197931" style="fill:none;stroke:black;stroke-width:1"/>
<polygon points="13.117855118685746,22.719775477793014 15.919704293920818,9.716442831255984 15.941046679450443,9.214491733751327" style="fill:none;stroke:black;stroke-width:1"/>
<polygon points="13.122868019197103,22.783545344718572 13.117855118685746,22.719775477793014 15.941046679450443,9.214491733751327" style="fill:none;stroke:black;stroke-width:1"/>
<polygon points="11.697754384531015,23.21932868013507 11.665549314207421,23.264995743559822 15.5606991601494,12.392279876375174" style="fill:none;stroke:black;stroke-width:1"/>
<polygon points="12.212142814569743,7.69660911112247 12.064331913149442,7.6009745489858895 19.381358641315817,5.2576320776769245" style="fill:none;stroke:black;stroke-width:1"/>
<polygon points="12.355709617323075,7.819214247786219 12.212142814569743,7.69660911112247 19.381358641315817,5.2576320776769245" style="fill:none;stroke:black;stroke-width:1"/>
<polygon points="12.61006995606866,8.14727029103336 12.490653828737319,7.9700989565573375 19.381358641315817,5.2576320776769245" style="fill:none;stroke:black;stroke-width:1"/>
<polygon points="12.703608304851304,8.345208857352631 12.61006995606866,8.14727029103336 19.381358641315817,5.2576320776769245" style="fill:none;stroke:black;stroke-width:1"/>
<polygon points="11.517912599587778,7.45940032712179 11.448505464189356,9.225244418647453 11.397248431613367,7.460936862887959" style="fill:none;stroke:black;stroke-width:1"/>
<polygon points="11.448505464189356,9.225244418647453 11.319450423695773,9.229252507753525 11.397248431613367,7.460936862887959" style="fill:none;stroke:black;stroke-width:1"/>
<polygon points="11.448505464189356,9.225244418647453 11.517912599587778,7.45940032712179 11.639221523157056,7.462804309324779" style="fill:none;stroke:black;stroke-width:1"/>
<polygon points="11.319450423695773,9.229252507753525 11.448505464189356,9.225244418647453 12.013441641180352,9.377860107894517" style="fill:none;stroke:black;stroke-width:1"/>
<polygon points="10.334354434094337,9.116320558964436 10.397289675557463,7.646048548759316 10.559769285307386,9.161507777290376" style="fill:none;stroke:black;stroke-width:1"/>
<polygon points="10.397289675557463,7.646048548759316 10.334354434094337,9.116320558964436 10.235544961705983,7.701393332649995" style="fill:none;stroke:black;stroke-width:1"/>
<polygon points="10.978940663482973,9.215972613638934 10.334354434094337,9.116320558964436 10.559769285307386,9.161507777290376" style="fill:none;stroke:black;stroke-width:1"/>
<polygon points="11.161546074232117,9.227342069021907 10.334354434094337,9.116320558964436 10.978940663482973,9.215972613638934" style="fill:none;stroke:black;stroke-width:1"/>
<polygon points="10.103793103448275,9.060344827586206 10.334354434094337,9.116320558964436 11.161546074232117,9.227342069021907" style="fill:none;stroke:black;stroke-width:1"/>
<polygon points="10.235544961705983,7.701393332649995 10.069900287084009,7.76496124751277 16.439282883375096,4.108334679119311" style="fill:none;stroke:black;stroke-width:1"/>
<polygon points="10.334354434094337,9.116320558964436 10.069900287084009,7.76496124751277 10.235544961705983,7.701393332649995" style="fill:none;stroke:black;stroke-width:1"/>
<polygon points="10.069900287084009,7.76496124751277 10.334354434094337,9.116320558964436 10.103793103448275,9.060344827586206" style="fill:none;stroke:black;stroke-width:1"/>
<polygon points="14.887460387989817,10.14341403083802 21.054242184836166,18.03954457388615 19.058886135843267,9.620087291274048" style="fill:none;stroke:black;stroke-width:1"/>
<polygon points="21.054242184836166,18.03954457388615 19.12716716845511,20.52001732123398 19.058886135843267,9.620087291274048" style="fill:none;stroke:black;stroke-width:1"/>
<polygon points="17.592414145798447,13.630855966476616 20.235266968763504,15.273452104532398 19.058886135843267,9.620087291274048" style="fill:none;stroke:black;stroke-width:1"/>
<polygon points="14.671069696739053,14.823344646324927 17.592414145798447,13.630855966476616 19.058886135843267,9.620087291274048" style="fill:none;stroke:black;stroke-width:1"/>
<polygon points="15.843587664680843,20.49772556646556 13.870913041322808,17.945338604347725 19.058886135843267,9.620087291274048" style="fill:none;stroke:black;stroke-width:1"/>
<polygon points="13.870913041322808,17.945338604347725 14.671069696739053,14.823344646324927 19.058886135843267,9.620087291274048" style="fill:none;stroke:black;stroke-width:1"/>
<polygon points="11.704809368414566,17.755687170022195 13.178038940526722,19.817553509947526 17.65225046203551,9.132137674222133" style="fill:none;stroke:black;stroke-width:1"/>
<polygon points="9.252621942634901,18.175401243550397 11.704809368414566,17.755687170022195 17.65225046203551,9.132137674222133" style="fill:none;stroke:black;stroke-width:1"/>
<polygon points="12.709227883771247,23.58710690495999 10.414689119509001,21.263734581112715 17.65225046203551,9.132137674222133" style="fill:none;stroke:black;stroke-width:1"/>
<polygon points="10.414689119509001,21.263734581112715 9.252621942634901,18.175401243550397 17.65225046203551,9.132137674222133" style="fill:none;stroke:black;stroke-width:1"/>
<polygon points="20.426219387477516,23.317404807738185 20.236740984669886,23.32103448275862 19.90373217121061,21.834331451237368" style="fill:none;stroke:black;stroke-width:1"/>
<polygon points="20.236740984669886,23.32103448275862 19.801266476499315,21.939762595780095 19.90373217121061,21.834331451237368" style="fill:none;stroke:black;stroke-width:1"/>
<polygon points="20.236740984669886,23.32103448275862 20.426219387477516,23.317404807738185 16.419791402579243,14.17580945953948" style="fill:none;stroke:black;stroke-width:1"/>
<polygon points="20.04552627160308,23.285430722926996 20.236740984669886,23.32103448275862 16.419791402579243,14.17580945953948" style="fill:none;stroke:black;stroke-width:1"/>
<polygon points="20.236740984669886,23.32103448275862 20.04552627160308,23.285430722926996 19.875821793490772,23.204462830873673" style="fill:none;stroke:black;stroke-width:1"/>
<polygon points="21.356538724134406,20.790139223767852 21.542308624656755,20.767273305867576 21.960558326745897,22.343006095015085" style="fill:none;stroke:black;stroke-width:1"/>
<polygon points="22.06192368328554,22.245448582813857 21.542308624656755,20.767273305867576 21.733793103448274,20.765862068965518" style="fill:none;stroke:black;stroke-width:1"/>
<polygon points="21.542308624656755,20.767273305867576 22.06192368328554,22.245448582813857 21.960558326745897,22.343006095015085" style="fill:none;stroke:black;stroke-width:1"/>
<polygon points="21.542308624656755,20.767273305867576 8.603125367127914,20.626251066923025 21.733793103448274,20.765862068965518" style="fill:none;stroke:black;stroke-width:1"/>
<polygon points="21.542308624656755,20.767273305867576 21.356538724134406,20.790139223767852 8.603125367127914,20.626251066923025" style="fill:none;stroke:black;stroke-width:1"/>
<polygon points="13.114009053455177,22.84155330332185 13.122868019197103,22.783545344718572 15.941046679450443,9.214491733751327" style="fill:none;stroke:black;stroke-width:1"/>
<polygon points="17.49422510252965,9.658208456459594 13.02915602480553,22.976671387800188 15.941046679450443,9.214491733751327" style="fill:none;stroke:black;stroke-width:1"/>
<polygon points="13.02915602480553,22.976671387800188 13.061361095129122,22.931004324375436 15.941046679450443,9.214491733751327" style="fill:none;stroke:black;stroke-width:1"/>
<polygon points="12.85745460159195,22.418729147695483 12.760394848871051,22.391513427684156 15.919704293920818,9.716442831255984" style="fill:none;stroke:black;stroke-width:1"/>
<polygon points="12.760394848871051,22.391513427684156 12.6558808533417,22.383147759405794 15.919704293920818,9.716442831255984" style="fill:none;stroke:black;stroke-width:1"/>
<polygon points="12.547541907353587,22.39454078313554 12.43889457165617,22.42653916442687 15.919704293920818,9.716442831255984" style="fill:none;stroke:black;stroke-width:1"/>
<polygon points="12.6558808533417,22.383147759405794 12.547541907353587,22.39454078313554 15.919704293920818,9.716442831255984" style="fill:none;stroke:black;stroke-width:1"/>
<polygon points="11.773481712866115,23.10634547637249 11.733432624049193,23.166280756468147 15.5606991601494,12.392279876375174" style="fill:none;stroke:black;stroke-width:1"/>
<polygon points="11.733432624049193,23.166280756468147 11.697754384531015,23.21932868013507 15.5606991601494,12.392279876375174" style="fill:none;stroke:black;stroke-width:1"/>
<polygon points="20.236740984669886,23.32103448275862 19.706829637578437,22.070252759369467 19.801266476499315,21.939762595780095" style="fill:none;stroke:black;stroke-width:1"/>
<polygon points="19.706829637578437,22.070252759369467 19.875821793490772,23.204462830873673 19.625960470740104,22.22242301956335" style="fill:none;stroke:black;stroke-width:1"/>
<polygon points="19.706829637578437,22.070252759369467 20.236740984669886,23.32103448275862 19.875821793490772,23.204462830873673" style="fill:none;stroke:black;stroke-width:1"/>
<polygon points="11.665549314207421,23.264995743559822 11.634912435157254,23.305473732440994 19.625960470740104,22.22242301956335" style="fill:none;stroke:black;stroke-width:1"/>
<polygon points="11.634912435157254,23.305473732440994 19.706829637578437,22.070252759369467 19.625960470740104,22.22242301956335" style="fill:none;stroke:black;stroke-width:1"/>
<polygon points="19.706829637578437,22.070252759369467 11.634912435157254,23.305473732440994 11.613174744190381,23.35507866430168" style="fill:none;stroke:black;stroke-width:1"/>
<polygon points="11.665388851677413,23.611080392327843 20.00509752775025,21.736773939036137 19.90373217121061,21.834331451237368" style="fill:none;stroke:black;stroke-width:1"/>
<polygon points="11.773492576816064,7.485381148128484 11.562073507439486,9.22951372197939 11.639221523157056,7.462804309324779" style="fill:none;stroke:black;stroke-width:1"/>
<polygon points="11.562073507439486,9.22951372197939 11.448505464189356,9.225244418647453 11.639221523157056,7.462804309324779" style="fill:none;stroke:black;stroke-width:1"/>
<polygon points="11.448505464189356,9.225244418647453 11.562073507439486,9.22951372197939 12.013441641180352,9.377860107894517" style="fill:none;stroke:black;stroke-width:1"/>
<polygon points="9.902261828971925,7.846390245476153 10.103793103448275,9.060344827586206 9.74813291352152,7.98149618930416" style="fill:none;stroke:black;stroke-width:1"/>
<polygon points="9.902261828971925,7.846390245476153 10.069900287084009,7.76496124751277 10.103793103448275,9.060344827586206" style="fill:none;stroke:black;stroke-width:1"/>
<polygon points="9.902261828971925,7.846390245476153 9.74813291352152,7.98149618930416 16.439282883375096,4.108334679119311" style="fill:none;stroke:black;stroke-width:1"/>
<polygon points="10.069900287084009,7.76496124751277 9.902261828971925,7.846390245476153 16.439282883375096,4.108334679119311" style="fill:none;stroke:black;stroke-width:1"/>
<polygon points="13.061361095129122,22.931004324375436 13.092010165587476,22.890748877936375 15.941046679450443,9.214491733751327" style="fill:none;stroke:black;stroke-width:1"/>
<polygon points="13.092010165587476,22.890748877936375 13.114009053455177,22.84155330332185 15.941046679450443,9.214491733751327" style="fill:none;stroke:black;stroke-width:1"/>
<polygon points="12.99347778528735,23.029719311467115 17.49422510252965,9.658208456459594 12.953428696470432,23.089654591562777" style="fill:none;stroke:black;stroke-width:1"/>
<polygon points="12.99347778528735,23.029719311467115 13.02915602480553,22.976671387800188 17.49422510252965,9.658208456459594" style="fill:none;stroke:black;stroke-width:1"/>
<polygon points="12.94332674396909,22.463810664116167 12.85745460159195,22.418729147695483 15.919704293920818,9.716442831255984" style="fill:none;stroke:black;stroke-width:1"/>
<polygon points="13.012048827004325,22.522487473021577 12.94332674396909,22.463810664116167 15.919704293920818,9.716442831255984" style="fill:none;stroke:black;stroke-width:1"/>
<polygon points="13.063229526415103,22.58651199565713 13.012048827004325,22.522487473021577 15.919704293920818,9.716442831255984" style="fill:none;stroke:black;stroke-width:1"/>
<polygon points="11.869925434420535,22.96832045495831 11.818730400181465,23.04012496138672 15.497051762628963,10.9597603753778" style="fill:none;stroke:black;stroke-width:1"/>
<polygon points="11.927719786565442,22.891721263415473 11.869925434420535,22.96832045495831 15.497051762628963,10.9597603753778" style="fill:none;stroke:black;stroke-width:1"/>
<polygon points="12.065189296158566,22.727660485214976 11.992662352412694,22.811192308134913 15.497051762628963,10.9597603753778" style="fill:none;stroke:black;stroke-width:1"/>
<polygon points="11.992662352412694,22.811192308134913 11.927719786565442,22.891721263415473 15.497051762628963,10.9597603753778" style="fill:none;stroke:black;stroke-width:1"/>
<polygon points="12.43889457165617,22.42653916442687 12.333335796828777,22.479942211816766 15.497051762628963,10.9597603753778" style="fill:none;stroke:black;stroke-width:1"/>
<polygon points="12.333335796828777,22.479942211816766 12.234137931034482,22.55551724137931 15.497051762628963,10.9597603753778" style="fill:none;stroke:black;stroke-width:1"/>
<polygon points="12.1456171718292,22.642100047770526 12.065189296158566,22.727660485214976 15.497051762628963,10.9597603753778" style="fill:none;stroke:black;stroke-width:1"/>
<polygon points="12.234137931034482,22.55551724137931 12.1456171718292,22.642100047770526 15.497051762628963,10.9597603753778" style="fill:none;stroke:black;stroke-width:1"/>
<polygon points="19.801266476499315,21.939762595780095 11.629970933884488,23.544288046131093 19.90373217121061,21.834331451237368" style="fill:none;stroke:black;stroke-width:1"/>
<polygon points="11.629970933884488,23.544288046131093 11.665388851677413,23.611080392327843 19.90373217121061,21.834331451237368" style="fill:none;stroke:black;stroke-width:1"/>
<polygon points="20.00509752775025,21.736773939036137 11.717025644410839,23.67517576789796 20.10646288428989,21.639216426834906" style="fill:none;stroke:black;stroke-width:1"/>
<polygon points="11.665388851677413,23.611080392327843 11.717025644410839,23.67517576789796 20.00509752775025,21.736773939036137" style="fill:none;stroke:black;stroke-width:1"/>
<polygon points="20.10646288428989,21.639216426834906 11.717025644410839,23.67517576789796 20.207828240829524,21.541658914633675" style="fill:none;stroke:black;stroke-width:1"/>
<polygon points="11.665692367121821,9.240839380137214 11.773492576816064,7.485381148128484 11.916655603689204,7.531001561335041" style="fill:none;stroke:black;stroke-width:1"/>
<polygon points="11.665692367121821,9.240839380137214 11.562073507439486,9.22951372197939 11.773492576816064,7.485381148128484" style="fill:none;stroke:black;stroke-width:1"/>
<polygon points="11.665692367121821,9.240839380137214 11.916655603689204,7.531001561335041 12.064331913149442,7.6009745489858895" style="fill:none;stroke:black;stroke-width:1"/>
<polygon points="11.562073507439486,9.22951372197939 11.665692367121821,9.240839380137214 12.013441641180352,9.377860107894517" style="fill:none;stroke:black;stroke-width:1"/>
<polygon points="13.117855118685746,22.719775477793014 13.098230330169741,22.653165788056995 15.919704293920818,9.716442831255984" style="fill:none;stroke:black;stroke-width:1"/>
<polygon points="13.098230330169741,22.653165788056995 13.063229526415103,22.58651199565713 15.919704293920818,9.716442831255984" style="fill:none;stroke:black;stroke-width:1"/>
<polygon points="19.706829637578437,22.070252759369467 11.604615954633648,23.413428279288787 19.801266476499315,21.939762595780095" style="fill:none;stroke:black;stroke-width:1"/>
<polygon points="11.604615954633648,23.413428279288787 19.706829637578437,22.070252759369467 11.613174744190381,23.35507866430168" style="fill:none;stroke:black;stroke-width:1"/>
<polygon points="11.785878356840719,23.734228406642384 20.309193597369163,21.444101402432445 20.207828240829524,21.541658914633675" style="fill:none;stroke:black;stroke-width:1"/>
<polygon points="11.717025644410839,23.67517576789796 11.785878356840719,23.734228406642384 20.207828240829524,21.541658914633675" style="fill:none;stroke:black;stroke-width:1"/>
<polygon points="20.309193597369163,21.444101402432445 11.785878356840719,23.734228406642384 20.4105589539088,21.346543890231217" style="fill:none;stroke:black;stroke-width:1"/>
<polygon points="12.212142814569743,7.69660911112247 11.75875897835532,9.258494167823203 12.064331913149442,7.6009745489858895" style="fill:none;stroke:black;stroke-width:1"/>
<polygon points="11.75875897835532,9.258494167823203 11.665692367121821,9.240839380137214 12.064331913149442,7.6009745489858895" style="fill:none;stroke:black;stroke-width:1"/>
<polygon points="11.665692367121821,9.240839380137214 11.75875897835532,9.258494167823203 12.013441641180352,9.377860107894517" style="fill:none;stroke:black;stroke-width:1"/>
<polygon points="11.609968010614562,23.47747210173587 11.629970933884488,23.544288046131093 19.801266476499315,21.939762595780095" style="fill:none;stroke:black;stroke-width:1"/>
<polygon points="11.604615954633648,23.413428279288787 11.609968010614562,23.47747210173587 19.801266476499315,21.939762595780095" style="fill:none;stroke:black;stroke-width:1"/>
<polygon points="11.870608986605363,23.78026719002605 20.613315744480964,21.151358141552016 20.51192431044844,21.248986378029983" style="fill:none;stroke:black;stroke-width:1"/>
<polygon points="20.613315744480964,21.151358141552016 11.870608986605363,23.78026719002605 11.966734813518825,23.80774693159985" style="fill:none;stroke:black;stroke-width:1"/>
<polygon points="20.4105589539088,21.346543890231217 11.870608986605363,23.78026719002605 20.51192431044844,21.248986378029983" style="fill:none;stroke:black;stroke-width:1"/>
<polygon points="11.785878356840719,23.734228406642384 11.870608986605363,23.78026719002605 20.4105589539088,21.346543890231217" style="fill:none;stroke:black;stroke-width:1"/>
<polygon points="11.840670276258958,9.281750859739645 12.212142814569743,7.69660911112247 12.355709617323075,7.819214247786219" style="fill:none;stroke:black;stroke-width:1"/>
<polygon points="11.840670276258958,9.281750859739645 11.75875897835532,9.258494167823203 12.212142814569743,7.69660911112247" style="fill:none;stroke:black;stroke-width:1"/>
<polygon points="11.840670276258958,9.281750859739645 12.355709617323075,7.819214247786219 12.490653828737319,7.9700989565573375" style="fill:none;stroke:black;stroke-width:1"/>
<polygon points="11.75875897835532,9.258494167823203 11.968614672552507,9.342161055073017 12.013441641180352,9.377860107894517" style="fill:none;stroke:black;stroke-width:1"/>
<polygon points="11.840670276258958,9.281750859739645 11.968614672552507,9.342161055073017 11.75875897835532,9.258494167823203" style="fill:none;stroke:black;stroke-width:1"/>
<polygon points="11.968614672552507,9.342161055073017 12.703608304851304,8.345208857352631 12.013441641180352,9.377860107894517" style="fill:none;stroke:black;stroke-width:1"/>
<polygon points="11.968614672552507,9.342161055073017 12.61006995606866,8.14727029103336 12.703608304851304,8.345208857352631" style="fill:none;stroke:black;stroke-width:1"/>
<polygon points="12.61006995606866,8.14727029103336 11.910823195951696,9.309882230588821 12.490653828737319,7.9700989565573375" style="fill:none;stroke:black;stroke-width:1"/>
<polygon points="11.968614672552507,9.342161055073017 11.910823195951696,9.309882230588821 12.61006995606866,8.14727029103336" style="fill:none;stroke:black;stroke-width:1"/>
<polygon points="11.910823195951696,9.309882230588821 11.840670276258958,9.281750859739645 12.490653828737319,7.9700989565573375" style="fill:none;stroke:black;stroke-width:1"/>
<polygon points="11.910823195951696,9.309882230588821 11.968614672552507,9.342161055073017 11.840670276258958,9.281750859739645" style="fill:none;stroke:black;stroke-width:1"/>
<polygon points="12.661721113177979,23.468339582720283 22.413058167870776,22.672913968675196 12.581293237507346,23.553900020164733" style="fill:none;stroke:black;stroke-width:1"/>
<polygon points="12.581293237507346,23.553900020164733 22.413058167870776,22.672913968675196 19.81273431928407,24.671387653649038" style="fill:none;stroke:black;stroke-width:1"/>
<polygon points="12.28804870548095,23.770900651853918 22.9387154919693,11.931625593699724 20.358865924461636,10.075732399990123" style="fill:none;stroke:black;stroke-width:1"/>
<polygon points="12.28804870548095,23.770900651853918 20.358865924461636,10.075732399990123 12.178890612372278,23.803786628956857" style="fill:none;stroke:black;stroke-width:1"/>
<polygon points="24.649603775543675,14.610011481672114 12.28804870548095,23.770900651853918 12.394991450704927,23.71655108149652" style="fill:none;stroke:black;stroke-width:1"/>
<polygon points="12.28804870548095,23.770900651853918 24.649603775543675,14.610011481672114 22.9387154919693,11.931625593699724" style="fill:none;stroke:black;stroke-width:1"/>
<polygon points="17.170844411892496,9.301953567879341 12.070659457179719,23.815838062511425 12.178890612372278,23.803786628956857" style="fill:none;stroke:black;stroke-width:1"/>
<polygon points="20.358865924461636,10.075732399990123 17.170844411892496,9.301953567879341 12.178890612372278,23.803786628956857" style="fill:none;stroke:black;stroke-width:1"/>
<polygon points="12.070659457179719,23.815838062511425 17.170844411892496,9.301953567879341 11.966734813518825,23.80774693159985" style="fill:none;stroke:black;stroke-width:1"/>
<polygon points="17.170844411892496,9.301953567879341 13.803735662142916,9.815666460275429 11.966734813518825,23.80774693159985" style="fill:none;stroke:black;stroke-width:1"/>
<polygon points="19.342262160409916,26.576873143416073 25.226551724137934,17.842413793103447 22.362784325596174,25.17466252641242" style="fill:none;stroke:black;stroke-width:1"/>
<polygon points="25.226551724137934,17.842413793103447 8.238860193934443,17.254560480521274 9.114453239237978,14.052013683634861" style="fill:none;stroke:black;stroke-width:1"/>
<polygon points="20.934601186522215,18.70987342668074 25.226551724137934,17.842413793103447 23.160579265911302,18.16181724955444" style="fill:none;stroke:black;stroke-width:1"/>
<polygon points="25.226551724137934,17.842413793103447 8.603125367127914,20.626251066923025 8.238860193934443,17.254560480521274" style="fill:none;stroke:black;stroke-width:1"/>
<polygon points="25.226551724137934,17.842413793103447 20.861933674232183,14.834720635937265 22.397982332328553,17.715778377775973" style="fill:none;stroke:black;stroke-width:1"/>
<polygon points="25.226551724137934,17.842413793103447 24.379348938146023,14.471883885448214 22.285192244920566,12.018698502861731" style="fill:none;stroke:black;stroke-width:1"/>
<polygon points="25.226551724137934,17.842413793103447 14.887460387989817,10.14341403083802 12.175773327639094,11.936556405454306" style="fill:none;stroke:black;stroke-width:1"/>
<polygon points="19.31905167397755,10.597036016327355 25.226551724137934,17.842413793103447 22.285192244920566,12.018698502861731" style="fill:none;stroke:black;stroke-width:1"/>
<polygon points="25.226551724137934,17.842413793103447 17.170844411892496,9.301953567879341 20.358865924461636,10.075732399990123" style="fill:none;stroke:black;stroke-width:1"/>
<polygon points="25.011639795211515,17.264433634497237 25.226551724137934,17.842413793103447 22.397982332328553,17.715778377775973" style="fill:none;stroke:black;stroke-width:1"/>
<polygon points="17.980745870951587,13.360617646892567 25.226551724137934,17.842413793103447 14.866250707242319,14.24609014373641" style="fill:none;stroke:black;stroke-width:1"/>
<polygon points="10.402092070327662,14.693196099682787 25.226551724137934,17.842413793103447 12.175773327639094,11.936556405454306" style="fill:none;stroke:black;stroke-width:1"/>
<polygon points="25.226551724137934,17.842413793103447 13.232832394052636,16.94819342101651 14.866250707242319,14.24609014373641" style="fill:none;stroke:black;stroke-width:1"/>
<polygon points="25.226551724137934,17.842413793103447 15.811697035780272,24.82129428895046 20.235266968763504,15.273452104532398" style="fill:none;stroke:black;stroke-width:1"/>
<polygon points="25.226551724137934,17.842413793103447 12.666688480298575,25.66464032576382 10.168173660184763,23.53372742597201" style="fill:none;stroke:black;stroke-width:1"/>
<polygon points="25.226551724137934,17.842413793103447 15.785654770267211,21.637963399370932 13.178038940526722,19.817553509947526" style="fill:none;stroke:black;stroke-width:1"/>
<polygon points="25.226551724137934,17.842413793103447 24.020780904122645,19.774629939602555 23.160579265911302,18.16181724955444" style="fill:none;stroke:black;stroke-width:1"/>
<polygon points="22.413058167870776,22.672913968675196 25.226551724137934,17.842413793103447 19.81273431928407,24.671387653649038" style="fill:none;stroke:black;stroke-width:1"/>
<polygon points="25.226551724137934,17.842413793103447 24.593457448168056,22.807198605938503 22.362784325596174,25.17466252641242" style="fill:none;stroke:black;stroke-width:1"/>
<polygon points="20.861933674232183,14.834720635937265 25.226551724137934,17.842413793103447 17.980745870951587,13.360617646892567" style="fill:none;stroke:black;stroke-width:1"/>
<polygon points="25.226551724137934,17.842413793103447 10.402092070327662,14.693196099682787 10.497285460024848,17.13581936071524" style="fill:none;stroke:black;stroke-width:1"/>
<polygon points="13.232832394052636,16.94819342101651 25.226551724137934,17.842413793103447 10.497285460024848,17.13581936071524" style="fill:none;stroke:black;stroke-width:1"/>
<polygon points="11.039471680430879,11.48567244801344 25.226551724137934,17.842413793103447 9.114453239237978,14.052013683634861" style="fill:none;stroke:black;stroke-width:1"/>
<polygon points="25.226551724137934,17.842413793103447 21.054242184836166,18.03954457388615 14.887460387989817,10.14341403083802" style="fill:none;stroke:black;stroke-width:1"/>
<polygon points="8.603125367127914,20.626251066923025 25.226551724137934,17.842413793103447 10.168173660184763,23.53372742597201" style="fill:none;stroke:black;stroke-width:1"/>
<polygon points="25.226551724137934,17.842413793103447 13.870913041322808,17.945338604347725 15.843587664680843,20.49772556646556" style="fill:none;stroke:black;stroke-width:1"/>
<polygon points="22.9387154919693,11.931625593699724 25.226551724137934,17.842413793103447 20.358865924461636,10.075732399990123" style="fill:none;stroke:black;stroke-width:1"/>
<polygon points="24.649603775543675,14.610011481672114 25.226551724137934,17.842413793103447 22.9387154919693,11.931625593699724" style="fill:none;stroke:black;stroke-width:1"/>
<polygon points="15.785654770267211,21.637963399370932 25.226551724137934,17.842413793103447 18.989118292853963,21.166944921874478" style="fill:none;stroke:black;stroke-width:1"/>
<polygon points="25.226551724137934,17.842413793103447 20.934601186522215,18.70987342668074 18.989118292853963,21.166944921874478" style="fill:none;stroke:black;stroke-width:1"/>
<polygon points="25.226551724137934,17.842413793103447 22.413058167870776,22.672913968675196 24.020780904122645,19.774629939602555" style="fill:none;stroke:black;stroke-width:1"/>
<polygon points="24.379348938146023,14.471883885448214 25.226551724137934,17.842413793103447 25.011639795211515,17.264433634497237" style="fill:none;stroke:black;stroke-width:1"/>
<polygon points="24.593457448168056,22.807198605938503 25.226551724137934,17.842413793103447 25.822362717089426,19.73416458068508" style="fill:none;stroke:black;stroke-width:1"/>
<polygon points="25.226551724137934,17.842413793103447 19.31905167397755,10.597036016327355 25.822362717089426,19.73416458068508" style="fill:none;stroke:black;stroke-width:1"/>
<polygon points="19.12716716845511,20.52001732123398 25.226551724137934,17.842413793103447 15.843587664680843,20.49772556646556" style="fill:none;stroke:black;stroke-width:1"/>
<polygon points="17.592414145798447,13.630855966476616 25.226551724137934,17.842413793103447 20.235266968763504,15.273452104532398" style="fill:none;stroke:black;stroke-width:1"/>
<polygon points="15.811697035780272,24.82129428895046 25.226551724137934,17.842413793103447 12.709227883771247,23.58710690495999" style="fill:none;stroke:black;stroke-width:1"/>
<polygon points="11.704809368414566,17.755687170022195 25.226551724137934,17.842413793103447 13.178038940526722,19.817553509947526" style="fill:none;stroke:black;stroke-width:1"/>
<polygon points="12.666688480298575,25.66464032576382 25.226551724137934,17.842413793103447 15.837205004849096,26.758262395399008" style="fill:none;stroke:black;stroke-width:1"/>
<polygon points="25.226551724137934,17.842413793103447 19.342262160409916,26.576873143416073 15.837205004849096,26.758262395399008" style="fill:none;stroke:black;stroke-width:1"/>
<polygon points="25.226551724137934,17.842413793103447 10.414689119509001,21.263734581112715 12.709227883771247,23.58710690495999" style="fill:none;stroke:black;stroke-width:1"/>
<polygon points="17.170844411892496,9.301953567879341 25.226551724137934,17.842413793103447 13.803735662142916,9.815666460275429" style="fill:none;stroke:black;stroke-width:1"/>
<polygon points="25.226551724137934,17.842413793103447 11.039471680430879,11.48567244801344 13.803735662142916,9.815666460275429" style="fill:none;stroke:black;stroke-width:1"/>
<polygon points="21.054242184836166,18.03954457388615 25.226551724137934,17.842413793103447 19.12716716845511,20.52001732123398" style="fill:none;stroke:black;stroke-width:1"/>
<polygon points="25.226551724137934,17.842413793103447 17.592414145798447,13.630855966476616 14.671069696739053,14.823344646324927" style="fill:none;stroke:black;stroke-width:1"/>
<polygon points="13.870913041322808,17.945338604347725 25.226551724137934,17.842413793103447 14.671069696739053,14.823344646324927" style="fill:none;stroke:black;stroke-width:1"/>
<polygon points="25.226551724137934,17.842413793103447 11.704809368414566,17.755687170022195 9.252621942634901,18.175401243550397" style="fill:none;stroke:black;stroke-width:1"/>
<polygon points="10.414689119509001,21.263734581112715 25.226551724137934,17.842413793103447 9.252621942634901,18.175401243550397" style="fill:none;stroke:black;stroke-width:1"/>
<polygon points="25.226551724137934,17.842413793103447 12.492981345698317,23.640720171437273 12.581293237507346,23.553900020164733" style="fill:none;stroke:black;stroke-width:1"/>
<polygon points="25.226551724137934,17.842413793103447 12.581293237507346,23.553900020164733 19.81273431928407,24.671387653649038" style="fill:none;stroke:black;stroke-width:1"/>
<polygon points="12.492981345698317,23.640720171437273 25.226551724137934,17.842413793103447 12.394991450704927,23.71655108149652" style="fill:none;stroke:black;stroke-width:1"/>
<polygon points="25.226551724137934,17.842413793103447 24.649603775543675,14.610011481672114 12.394991450704927,23.71655108149652" style="fill:none;stroke:black;stroke-width:1"/>
<polygon points="11.870608986605363,23.78026719002605 12.953428696470432,23.089654591562777 12.908180009155078,23.155875106548542" style="fill:none;stroke:black;stroke-width:1"/>
<polygon points="12.85698497491601,23.227679612976956 11.870608986605363,23.78026719002605 12.908180009155078,23.155875106548542" style="fill:none;stroke:black;stroke-width:1"/>
<polygon points="11.870608986605363,23.78026719002605 11.992662352412694,22.811192308134913 12.065189296158566,22.727660485214976" style="fill:none;stroke:black;stroke-width:1"/>
<polygon points="11.870608986605363,23.78026719002605 12.070659457179719,23.815838062511425 11.966734813518825,23.80774693159985" style="fill:none;stroke:black;stroke-width:1"/>
<polygon points="11.870608986605363,23.78026719002605 12.799190622771102,23.30427880451979 12.734248056923853,23.384807759800353" style="fill:none;stroke:black;stroke-width:1"/>
<polygon points="12.661721113177979,23.468339582720283 11.870608986605363,23.78026719002605 12.734248056923853,23.384807759800353" style="fill:none;stroke:black;stroke-width:1"/>
<polygon points="11.870608986605363,23.78026719002605 12.99347778528735,23.029719311467115 12.953428696470432,23.089654591562777" style="fill:none;stroke:black;stroke-width:1"/>
<polygon points="11.870608986605363,23.78026719002605 12.492981345698317,23.640720171437273 12.394991450704927,23.71655108149652" style="fill:none;stroke:black;stroke-width:1"/>
<polygon points="12.070659457179719,23.815838062511425 11.870608986605363,23.78026719002605 12.178890612372278,23.803786628956857" style="fill:none;stroke:black;stroke-width:1"/>
<polygon points="12.28804870548095,23.770900651853918 11.870608986605363,23.78026719002605 12.394991450704927,23.71655108149652" style="fill:none;stroke:black;stroke-width:1"/>
<polygon points="11.870608986605363,23.78026719002605 11.773481712866115,23.10634547637249 11.818730400181465,23.04012496138672" style="fill:none;stroke:black;stroke-width:1"/>
<polygon points="12.799190622771102,23.30427880451979 11.870608986605363,23.78026719002605 12.85698497491601,23.227679612976956" style="fill:none;stroke:black;stroke-width:1"/>
<polygon points="12.492981345698317,23.640720171437273 11.870608986605363,23.78026719002605 12.581293237507346,23.553900020164733" style="fill:none;stroke:black;stroke-width:1"/>
<polygon points="11.870608986605363,23.78026719002605 12.661721113177979,23.468339582720283 12.581293237507346,23.553900020164733" style="fill:none;stroke:black;stroke-width:1"/>
<polygon points="13.114009053455177,22.84155330332185 11.870608986605363,23.78026719002605 13.122868019197103,22.783545344718572" style="fill:none;stroke:black;stroke-width:1"/>
<polygon points="11.870608986605363,23.78026719002605 13.092010165587476,22.890748877936375 13.061361095129122,22.931004324375436" style="fill:none;stroke:black;stroke-width:1"/>
<polygon points="12.547541907353587,22.39454078313554 11.870608986605363,23.78026719002605 12.43889457165617,22.42653916442687" style="fill:none;stroke:black;stroke-width:1"/>
<polygon points="11.870608986605363,23.78026719002605 12.28804870548095,23.770900651853918 12.178890612372278,23.803786628956857" style="fill:none;stroke:black;stroke-width:1"/>
<polygon points="11.870608986605363,23.78026719002605 11.634912435157254,23.305473732440994 11.665549314207421,23.264995743559822" style="fill:none;stroke:black;stroke-width:1"/>
<polygon points="11.870608986605363,23.78026719002605 13.117855118685746,22.719775477793014 13.122868019197103,22.783545344718572" style="fill:none;stroke:black;stroke-width:1"/>
<polygon points="11.870608986605363,23.78026719002605 12.760394848871051,22.391513427684156 12.85745460159195,22.418729147695483" style="fill:none;stroke:black;stroke-width:1"/>
<polygon points="11.870608986605363,23.78026719002605 11.604615954633648,23.413428279288787 11.613174744190381,23.35507866430168" style="fill:none;stroke:black;stroke-width:1"/>
<polygon points="11.697754384531015,23.21932868013507 11.870608986605363,23.78026719002605 11.665549314207421,23.264995743559822" style="fill:none;stroke:black;stroke-width:1"/>
<polygon points="11.870608986605363,23.78026719002605 11.733432624049193,23.166280756468147 11.773481712866115,23.10634547637249" style="fill:none;stroke:black;stroke-width:1"/>
<polygon points="11.870608986605363,23.78026719002605 13.098230330169741,22.653165788056995 13.117855118685746,22.719775477793014" style="fill:none;stroke:black;stroke-width:1"/>
<polygon points="13.02915602480553,22.976671387800188 11.870608986605363,23.78026719002605 13.061361095129122,22.931004324375436" style="fill:none;stroke:black;stroke-width:1"/>
<polygon points="12.94332674396909,22.463810664116167 11.870608986605363,23.78026719002605 12.85745460159195,22.418729147695483" style="fill:none;stroke:black;stroke-width:1"/>
<polygon points="12.760394848871051,22.391513427684156 11.870608986605363,23.78026719002605 12.6558808533417,22.383147759405794" style="fill:none;stroke:black;stroke-width:1"/>
<polygon points="11.870608986605363,23.78026719002605 12.547541907353587,22.39454078313554 12.6558808533417,22.383147759405794" style="fill:none;stroke:black;stroke-width:1"/>
<polygon points="11.869925434420535,22.96832045495831 11.870608986605363,23.78026719002605 11.818730400181465,23.04012496138672" style="fill:none;stroke:black;stroke-width:1"/>
<polygon points="11.870608986605363,23.78026719002605 12.333335796828777,22.479942211816766 12.43889457165617,22.42653916442687" style="fill:none;stroke:black;stroke-width:1"/>
<polygon points="11.733432624049193,23.166280756468147 11.870608986605363,23.78026719002605 11.697754384531015,23.21932868013507" style="fill:none;stroke:black;stroke-width:1"/>
<polygon points="11.634912435157254,23.305473732440994 11.870608986605363,23.78026719002605 11.613174744190381,23.35507866430168" style="fill:none;stroke:black;stroke-width:1"/>
<polygon points="12.1456171718292,22.642100047770526 11.870608986605363,23.78026719002605 12.065189296158566,22.727660485214976" style="fill:none;stroke:black;stroke-width:1"/>
<polygon points="13.092010165587476,22.890748877936375 11.870608986605363,23.78026719002605 13.114009053455177,22.84155330332185" style="fill:none;stroke:black;stroke-width:1"/>
<polygon points="12.99347778528735,23.029719311467115 11.870608986605363,23.78026719002605 13.02915602480553,22.976671387800188" style="fill:none;stroke:black;stroke-width:1"/>
<polygon points="11.870608986605363,23.78026719002605 12.94332674396909,22.463810664116167 13.012048827004325,22.522487473021577" style="fill:none;stroke:black;stroke-width:1"/>
<polygon points="13.063229526415103,22.58651199565713 11.870608986605363,23.78026719002605 13.012048827004325,22.522487473021577" style="fill:none;stroke:black;stroke-width:1"/>
<polygon points="11.870608986605363,23.78026719002605 11.869925434420535,22.96832045495831 11.927719786565442,22.891721263415473" style="fill:none;stroke:black;stroke-width:1"/>
<polygon points="11.992662352412694,22.811192308134913 11.870608986605363,23.78026719002605 11.927719786565442,22.891721263415473" style="fill:none;stroke:black;stroke-width:1"/>
<polygon points="12.333335796828777,22.479942211816766 11.870608986605363,23.78026719002605 12.234137931034482,22.55551724137931" style="fill:none;stroke:black;stroke-width:1"/>
<polygon points="11.870608986605363,23.78026719002605 12.1456171718292,22.642100047770526 12.234137931034482,22.55551724137931" style="fill:none;stroke:black;stroke-width:1"/>
<polygon points="11.629970933884488,23.544288046131093 11.870608986605363,23.78026719002605 11.665388851677413,23.611080392327843" style="fill:none;stroke:black;stroke-width:1"/>
<polygon points="11.870608986605363,23.78026719002605 11.717025644410839,23.67517576789796 11.665388851677413,23.611080392327843" style="fill:none;stroke:black;stroke-width:1"/>
<polygon points="13.098230330169741,22.653165788056995 11.870608986605363,23.78026719002605 13.063229526415103,22.58651199565713" style="fill:none;stroke:black;stroke-width:1"/>
<polygon points="11.609968010614562,23.47747210173587 11.870608986605363,23.78026719002605 11.629970933884488,23.544288046131093" style="fill:none;stroke:black;stroke-width:1"/>
<polygon points="11.870608986605363,23.78026719002605 11.785878356840719,23.734228406642384 11.717025644410839,23.67517576789796" style="fill:none;stroke:black;stroke-width:1"/>
<polygon points="11.870608986605363,23.78026719002605 11.609968010614562,23.47747210173587 11.604615954633648,23.413428279288787" style="fill:none;stroke:black;stroke-width:1"/>
</svg>
