<?xml version="1.0" encoding="UTF-8" standalone="no"?>
<svg xmlns="http://www.w3.org/2000/svg" version="1.1" width="800" height="800">
<polygon points="18.951863752363362,9.177737379206912 18.995883218514024,6.973942045921801 19.539275174587495,9.159386583111123" style="fill:none;stroke:black;stroke-width:1"/>
<polygon points="17.28180445710845,5.341575592796145 16.873770888723676,5.421627559319613 16.962412984844686,5.267208907191103" style="fill:none;stroke:black;stroke-width:1"/>
<polygon points="18.83818267369792,5.569917100155452 20.420054634118006,5.379560756117291 20.773011988532794,5.79948087146695" style="fill:none;stroke:black;stroke-width:1"/>
<polygon points="18.002411018259128,4.991425162381773 7.982035642300656,9.32045935898805 19.519677262424818,4.848400510917708" style="fill:none;stroke:black;stroke-width:1"/>
<polygon points="17.59437030660337,6.6232178348017285 17.778275862068966,7.058620689655172 18.077789479813475,5.235211321479041" style="fill:none;stroke:black;stroke-width:1"/>
<polygon points="16.873770888723676,5.421627559319613 17.778275862068966,7.058620689655172 16.962412984844686,5.267208907191103" style="fill:none;stroke:black;stroke-width:1"/>
<polygon points="17.778275862068966,7.058620689655172 17.59437030660337,6.6232178348017285 16.962412984844686,5.267208907191103" style="fill:none;stroke:black;stroke-width:1"/>
<polygon points="18.195272519850526,4.955672322264637 17.5607501304992,6.380976190587303 18.077789479813475,5.235211321479041" style="fill:none;stroke:black;stroke-width:1"/>
<polygon points="17.5607501304992,6.380976190587303 17.59437030660337,6.6232178348017285 18.077789479813475,5.235211321479041" style="fill:none;stroke:black;stroke-width:1"/>
<polygon points="18.598419939815052,4.847623538459784 17.5607501304992,6.380976190587303 18.195272519850526,4.955672322264637" style="fill:none;stroke:black;stroke-width:1"/>
<polygon points="20.025512756733992,8.900085196462387 19.45315063770785,6.954537821631643 20.33570113693943,8.330622945293065" style="fill:none;stroke:black;stroke-width:1"/>
<polygon points="19.45315063770785,6.954537821631643 20.025512756733992,8.900085196462387 19.539275174587495,9.159386583111123" style="fill:none;stroke:black;stroke-width:1"/>
<polygon points="18.995883218514024,6.973942045921801 19.45315063770785,6.954537821631643 19.539275174587495,9.159386583111123" style="fill:none;stroke:black;stroke-width:1"/>
<polygon points="18.6023221221204,5.736145283103751 20.423709649733055,7.890399272954255 20.33570113693943,8.330622945293065" style="fill:none;stroke:black;stroke-width:1"/>
<polygon points="19.45315063770785,6.954537821631643 18.6023221221204,5.736145283103751 20.33570113693943,8.330622945293065" style="fill:none;stroke:black;stroke-width:1"/>
<polygon points="17.387161813546896,5.417745489554964 17.28180445710845,5.341575592796145 16.962412984844686,5.267208907191103" style="fill:none;stroke:black;stroke-width:1"/>
<polygon points="17.28180445710845,5.341575592796145 17.387161813546896,5.417745489554964 17.78096271763844,5.215622325280906" style="fill:none;stroke:black;stroke-width:1"/>
<polygon points="18.83818267369792,5.569917100155452 18.406637048779352,5.273609730193423 20.420054634118006,5.379560756117291" style="fill:none;stroke:black;stroke-width:1"/>
<polygon points="19.519677262424818,4.848400510917708 17.527067456406773,4.774210808247567 19.02729878618272,4.783088692151793" style="fill:none;stroke:black;stroke-width:1"/>
<polygon points="17.11874651009137,4.887969316303008 17.5607501304992,6.380976190587303 18.598419939815052,4.847623538459784" style="fill:none;stroke:black;stroke-width:1"/>
<polygon points="17.5607501304992,6.380976190587303 17.11874651009137,4.887969316303008 17.59437030660337,6.6232178348017285" style="fill:none;stroke:black;stroke-width:1"/>
<polygon points="17.11874651009137,4.887969316303008 18.598419939815052,4.847623538459784 19.02729878618272,4.783088692151793" style="fill:none;stroke:black;stroke-width:1"/>
<polygon points="20.78113629587866,6.352222854578445 18.83818267369792,5.569917100155452 20.773011988532794,5.79948087146695" style="fill:none;stroke:black;stroke-width:1"/>
<polygon points="20.423709649733055,7.890399272954255 20.78113629587866,6.352222854578445 20.33570113693943,8.330622945293065" style="fill:none;stroke:black;stroke-width:1"/>
<polygon points="20.78113629587866,6.352222854578445 20.423709649733055,7.890399272954255 20.527393623459034,7.3609315742113814" style="fill:none;stroke:black;stroke-width:1"/>
<polygon points="17.88377534935652,7.5911524098694905 17.778275862068966,7.058620689655172 16.873770888723676,5.421627559319613" style="fill:none;stroke:black;stroke-width:1"/>
<polygon points="17.778275862068966,7.058620689655172 17.88377534935652,7.5911524098694905 18.077789479813475,5.235211321479041" style="fill:none;stroke:black;stroke-width:1"/>
<polygon points="18.309867982892573,5.110110408840264 18.717001997604203,5.1677805631250155 17.78096271763844,5.215622325280906" style="fill:none;stroke:black;stroke-width:1"/>
<polygon points="18.6023221221204,5.736145283103751 18.752877399510204,5.371599929679211 20.423709649733055,7.890399272954255" style="fill:none;stroke:black;stroke-width:1"/>
<polygon points="20.423709649733055,7.890399272954255 18.752877399510204,5.371599929679211 20.527393623459034,7.3609315742113814" style="fill:none;stroke:black;stroke-width:1"/>
<polygon points="18.752877399510204,5.371599929679211 18.309867982892573,5.110110408840264 20.527393623459034,7.3609315742113814" style="fill:none;stroke:black;stroke-width:1"/>
<polygon points="18.309867982892573,5.110110408840264 18.752877399510204,5.371599929679211 18.717001997604203,5.1677805631250155" style="fill:none;stroke:black;stroke-width:1"/>
<polygon points="24.513921486287806,20.106570876380992 19.45315063770785,6.954537821631643 18.995883218514024,6.973942045921801" style="fill:none;stroke:black;stroke-width:1"/>
<polygon points="19.45315063770785,6.954537821631643 24.513921486287806,20.106570876380992 24.55132254450926,19.94913210663796" style="fill:none;stroke:black;stroke-width:1"/>
<polygon points="24.052312017123516,21.589775587353923 24.141276388496493,21.454452136888147 18.995883218514024,6.973942045921801" style="fill:none;stroke:black;stroke-width:1"/>
<polygon points="17.910212795226332,6.558349042760848 17.387161813546896,5.417745489554964 16.962412984844686,5.267208907191103" style="fill:none;stroke:black;stroke-width:1"/>
<polygon points="17.59437030660337,6.6232178348017285 17.910212795226332,6.558349042760848 16.962412984844686,5.267208907191103" style="fill:none;stroke:black;stroke-width:1"/>
<polygon points="17.11874651009137,4.887969316303008 17.910212795226332,6.558349042760848 17.59437030660337,6.6232178348017285" style="fill:none;stroke:black;stroke-width:1"/>
<polygon points="17.387161813546896,5.417745489554964 17.84629161397552,5.5642295974099785 17.78096271763844,5.215622325280906" style="fill:none;stroke:black;stroke-width:1"/>
<polygon points="17.84629161397552,5.5642295974099785 18.309867982892573,5.110110408840264 17.78096271763844,5.215622325280906" style="fill:none;stroke:black;stroke-width:1"/>
<polygon points="18.309867982892573,5.110110408840264 17.84629161397552,5.5642295974099785 18.50977079857791,4.682089690129146" style="fill:none;stroke:black;stroke-width:1"/>
<polygon points="18.406637048779352,5.273609730193423 19.9546066806445,5.177617104466771 20.420054634118006,5.379560756117291" style="fill:none;stroke:black;stroke-width:1"/>
<polygon points="19.9546066806445,5.177617104466771 18.406637048779352,5.273609730193423 18.002411018259128,4.991425162381773" style="fill:none;stroke:black;stroke-width:1"/>
<polygon points="20.420054634118006,5.379560756117291 19.9546066806445,5.177617104466771 19.519677262424818,4.848400510917708" style="fill:none;stroke:black;stroke-width:1"/>
<polygon points="19.9546066806445,5.177617104466771 18.002411018259128,4.991425162381773 19.519677262424818,4.848400510917708" style="fill:none;stroke:black;stroke-width:1"/>
<polygon points="18.86730842376975,6.080979432729348 18.406637048779352,5.273609730193423 18.83818267369792,5.569917100155452" style="fill:none;stroke:black;stroke-width:1"/>
<polygon points="20.78113629587866,6.352222854578445 18.86730842376975,6.080979432729348 18.83818267369792,5.569917100155452" style="fill:none;stroke:black;stroke-width:1"/>
<polygon points="20.555440447596524,6.798520357233123 20.78113629587866,6.352222854578445 20.527393623459034,7.3609315742113814" style="fill:none;stroke:black;stroke-width:1"/>
<polygon points="18.309867982892573,5.110110408840264 20.555440447596524,6.798520357233123 20.527393623459034,7.3609315742113814" style="fill:none;stroke:black;stroke-width:1"/>
<polygon points="20.555440447596524,6.798520357233123 18.309867982892573,5.110110408840264 18.50977079857791,4.682089690129146" style="fill:none;stroke:black;stroke-width:1"/>
<polygon points="18.86730842376975,6.080979432729348 20.555440447596524,6.798520357233123 18.50977079857791,4.682089690129146" style="fill:none;stroke:black;stroke-width:1"/>
<polygon points="20.555440447596524,6.798520357233123 18.86730842376975,6.080979432729348 20.78113629587866,6.352222854578445" style="fill:none;stroke:black;stroke-width:1"/>
<polygon points="10.619827288071084,20.242651789443137 18.441967941842318,5.226083521644086 17.78096271763844,5.215622325280906" style="fill:none;stroke:black;stroke-width:1"/>
<polygon points="12.33753683667991,25.198193727168224 18.441967941842318,5.226083521644086 12.207751951737716,25.242582806585876" style="fill:none;stroke:black;stroke-width:1"/>
<polygon points="18.441967941842318,5.226083521644086 17.28180445710845,5.341575592796145 17.78096271763844,5.215622325280906" style="fill:none;stroke:black;stroke-width:1"/>
<polygon points="24.513921486287806,20.106570876380992 23.943448275862067,18.78896551724138 24.55132254450926,19.94913210663796" style="fill:none;stroke:black;stroke-width:1"/>
<polygon points="24.39956468236816,18.99503339192529 24.188491333906537,27.22708788917795 18.6023221221204,5.736145283103751" style="fill:none;stroke:black;stroke-width:1"/>
<polygon points="24.61572096632897,19.444578051881653 18.6023221221204,5.736145283103751 19.45315063770785,6.954537821631643" style="fill:none;stroke:black;stroke-width:1"/>
<polygon points="24.61572096632897,19.444578051881653 24.578233783434335,19.27804296978461 18.6023221221204,5.736145283103751" style="fill:none;stroke:black;stroke-width:1"/>
<polygon points="24.614445104812226,19.618256245020333 24.61572096632897,19.444578051881653 19.45315063770785,6.954537821631643" style="fill:none;stroke:black;stroke-width:1"/>
<polygon points="18.465787964132254,8.922784671758913 18.506697082189856,6.741319289103961 18.951863752363362,9.177737379206912" style="fill:none;stroke:black;stroke-width:1"/>
<polygon points="18.506697082189856,6.741319289103961 18.995883218514024,6.973942045921801 18.951863752363362,9.177737379206912" style="fill:none;stroke:black;stroke-width:1"/>
<polygon points="17.910212795226332,6.558349042760848 18.23797111669825,6.431591827129406 17.387161813546896,5.417745489554964" style="fill:none;stroke:black;stroke-width:1"/>
<polygon points="18.23797111669825,6.431591827129406 17.84629161397552,5.5642295974099785 17.387161813546896,5.417745489554964" style="fill:none;stroke:black;stroke-width:1"/>
<polygon points="8.06630594601495,9.188871991917221 7.982035642300656,9.32045935898805 18.002411018259128,4.991425162381773" style="fill:none;stroke:black;stroke-width:1"/>
<polygon points="8.149326791211255,9.059007718710188 8.06630594601495,9.188871991917221 18.002411018259128,4.991425162381773" style="fill:none;stroke:black;stroke-width:1"/>
<polygon points="8.31134563772454,8.804115765008275 8.231029560808231,8.93078336714714 18.002411018259128,4.991425162381773" style="fill:none;stroke:black;stroke-width:1"/>
<polygon points="8.231029560808231,8.93078336714714 8.149326791211255,9.059007718710188 18.002411018259128,4.991425162381773" style="fill:none;stroke:black;stroke-width:1"/>
<polygon points="18.752877399510204,5.371599929679211 12.299736466896574,5.206970213848987 18.717001997604203,5.1677805631250155" style="fill:none;stroke:black;stroke-width:1"/>
<polygon points="8.11706594425727,7.874227515265564 12.299736466896574,5.206970213848987 18.752877399510204,5.371599929679211" style="fill:none;stroke:black;stroke-width:1"/>
<polygon points="18.506697082189856,6.741319289103961 23.479498176119375,21.897207353011346 18.995883218514024,6.973942045921801" style="fill:none;stroke:black;stroke-width:1"/>
<polygon points="18.131961519314885,5.725232445757088 18.219898695138696,6.189399607159658 18.200970625011998,8.474083563367758" style="fill:none;stroke:black;stroke-width:1"/>
<polygon points="18.219898695138696,6.189399607159658 18.465787964132254,8.922784671758913 18.200970625011998,8.474083563367758" style="fill:none;stroke:black;stroke-width:1"/>
<polygon points="18.151854229746565,5.3151478595679755 17.88377534935652,7.5911524098694905 16.873770888723676,5.421627559319613" style="fill:none;stroke:black;stroke-width:1"/>
<polygon points="17.28180445710845,5.341575592796145 18.151854229746565,5.3151478595679755 16.873770888723676,5.421627559319613" style="fill:none;stroke:black;stroke-width:1"/>
<polygon points="24.578233783434335,19.27804296978461 24.50483359360078,19.12621362137157 18.6023221221204,5.736145283103751" style="fill:none;stroke:black;stroke-width:1"/>
<polygon points="24.50483359360078,19.12621362137157 24.39956468236816,18.99503339192529 18.6023221221204,5.736145283103751" style="fill:none;stroke:black;stroke-width:1"/>
<polygon points="24.50483359360078,19.12621362137157 24.614445104812226,19.618256245020333 24.39956468236816,18.99503339192529" style="fill:none;stroke:black;stroke-width:1"/>
<polygon points="24.61572096632897,19.444578051881653 24.50483359360078,19.12621362137157 24.578233783434335,19.27804296978461" style="fill:none;stroke:black;stroke-width:1"/>
<polygon points="24.50483359360078,19.12621362137157 24.61572096632897,19.444578051881653 24.614445104812226,19.618256245020333" style="fill:none;stroke:black;stroke-width:1"/>
<polygon points="24.39956468236816,18.99503339192529 24.26655965763292,18.889855997721813 24.188491333906537,27.22708788917795" style="fill:none;stroke:black;stroke-width:1"/>
<polygon points="24.26655965763292,18.889855997721813 23.943448275862067,18.78896551724138 24.109951127291524,18.81603515503717" style="fill:none;stroke:black;stroke-width:1"/>
<polygon points="23.943448275862067,18.78896551724138 24.26655965763292,18.889855997721813 24.55132254450926,19.94913210663796" style="fill:none;stroke:black;stroke-width:1"/>
<polygon points="24.585331684710077,19.78627331274379 19.45315063770785,6.954537821631643 24.55132254450926,19.94913210663796" style="fill:none;stroke:black;stroke-width:1"/>
<polygon points="24.585331684710077,19.78627331274379 24.614445104812226,19.618256245020333 19.45315063770785,6.954537821631643" style="fill:none;stroke:black;stroke-width:1"/>
<polygon points="24.614445104812226,19.618256245020333 24.585331684710077,19.78627331274379 24.39956468236816,18.99503339192529" style="fill:none;stroke:black;stroke-width:1"/>
<polygon points="24.26655965763292,18.889855997721813 24.585331684710077,19.78627331274379 24.55132254450926,19.94913210663796" style="fill:none;stroke:black;stroke-width:1"/>
<polygon points="24.585331684710077,19.78627331274379 24.26655965763292,18.889855997721813 24.39956468236816,18.99503339192529" style="fill:none;stroke:black;stroke-width:1"/>
<polygon points="18.86730842376975,6.080979432729348 9.815628261326957,8.725889014358861 18.406637048779352,5.273609730193423" style="fill:none;stroke:black;stroke-width:1"/>
<polygon points="9.452987234158092,9.93277018645536 9.815628261326957,8.725889014358861 9.870039475422958,8.90107656088424" style="fill:none;stroke:black;stroke-width:1"/>
<polygon points="18.56572943817017,6.304834611497962 18.86730842376975,6.080979432729348 18.50977079857791,4.682089690129146" style="fill:none;stroke:black;stroke-width:1"/>
<polygon points="17.84629161397552,5.5642295974099785 18.56572943817017,6.304834611497962 18.50977079857791,4.682089690129146" style="fill:none;stroke:black;stroke-width:1"/>
<polygon points="18.56572943817017,6.304834611497962 9.815628261326957,8.725889014358861 18.86730842376975,6.080979432729348" style="fill:none;stroke:black;stroke-width:1"/>
<polygon points="9.815628261326957,8.725889014358861 18.56572943817017,6.304834611497962 9.870039475422958,8.90107656088424" style="fill:none;stroke:black;stroke-width:1"/>
<polygon points="18.23797111669825,6.431591827129406 18.56572943817017,6.304834611497962 17.84629161397552,5.5642295974099785" style="fill:none;stroke:black;stroke-width:1"/>
<polygon points="8.626447080129763,11.067545201001357 8.06630594601495,9.188871991917221 8.149326791211255,9.059007718710188" style="fill:none;stroke:black;stroke-width:1"/>
<polygon points="8.390206404878835,8.678921740073779 8.31134563772454,8.804115765008275 18.002411018259128,4.991425162381773" style="fill:none;stroke:black;stroke-width:1"/>
<polygon points="18.406637048779352,5.273609730193423 8.806065511865501,8.261827866661989 18.002411018259128,4.991425162381773" style="fill:none;stroke:black;stroke-width:1"/>
<polygon points="8.959422298110827,8.223185805855936 8.806065511865501,8.261827866661989 18.406637048779352,5.273609730193423" style="fill:none;stroke:black;stroke-width:1"/>
<polygon points="16.969578357767304,9.644017505211886 12.190660470500731,11.079902638796954 18.752877399510204,5.371599929679211" style="fill:none;stroke:black;stroke-width:1"/>
<polygon points="18.441967941842318,5.226083521644086 12.076480480064593,25.288367883864186 12.207751951737716,25.242582806585876" style="fill:none;stroke:black;stroke-width:1"/>
<polygon points="22.735506296193964,21.554977292647685 18.506697082189856,6.741319289103961 18.465787964132254,8.922784671758913" style="fill:none;stroke:black;stroke-width:1"/>
<polygon points="18.219898695138696,6.189399607159658 22.735506296193964,21.554977292647685 18.465787964132254,8.922784671758913" style="fill:none;stroke:black;stroke-width:1"/>
<polygon points="18.151854229746565,5.3151478595679755 18.06287408919516,8.070520371034588 17.88377534935652,7.5911524098694905" style="fill:none;stroke:black;stroke-width:1"/>
<polygon points="18.06287408919516,8.070520371034588 18.151854229746565,5.3151478595679755 18.131961519314885,5.725232445757088" style="fill:none;stroke:black;stroke-width:1"/>
<polygon points="18.06287408919516,8.070520371034588 18.131961519314885,5.725232445757088 18.200970625011998,8.474083563367758" style="fill:none;stroke:black;stroke-width:1"/>
<polygon points="18.06287408919516,8.070520371034588 18.200970625011998,8.474083563367758 18.077789479813475,5.235211321479041" style="fill:none;stroke:black;stroke-width:1"/>
<polygon points="17.88377534935652,7.5911524098694905 18.06287408919516,8.070520371034588 18.077789479813475,5.235211321479041" style="fill:none;stroke:black;stroke-width:1"/>
<polygon points="24.141276388496493,21.454452136888147 24.200577816240926,21.302192208388206 18.995883218514024,6.973942045921801" style="fill:none;stroke:black;stroke-width:1"/>
<polygon points="24.200577816240926,21.302192208388206 24.239714088361872,21.152978532738363 18.995883218514024,6.973942045921801" style="fill:none;stroke:black;stroke-width:1"/>
<polygon points="24.200577816240926,21.302192208388206 24.141276388496493,21.454452136888147 23.001877218514597,19.52786151933998" style="fill:none;stroke:black;stroke-width:1"/>
<polygon points="24.31798046361416,20.854567318946362 24.357113651240308,20.705361712050365 18.995883218514024,6.973942045921801" style="fill:none;stroke:black;stroke-width:1"/>
<polygon points="24.31798046361416,20.854567318946362 23.30550108609796,18.98138005229677 24.357113651240308,20.705361712050365" style="fill:none;stroke:black;stroke-width:1"/>
<polygon points="24.474513214118744,20.257744891362364 24.513921486287806,20.106570876380992 18.995883218514024,6.973942045921801" style="fill:none;stroke:black;stroke-width:1"/>
<polygon points="24.4353800264926,20.406950498258364 24.474513214118744,20.257744891362364 18.995883218514024,6.973942045921801" style="fill:none;stroke:black;stroke-width:1"/>
<polygon points="24.474513214118744,20.257744891362364 23.943448275862067,18.78896551724138 24.513921486287806,20.106570876380992" style="fill:none;stroke:black;stroke-width:1"/>
<polygon points="24.357113651240308,20.705361712050365 24.39624683886645,20.556156105154365 18.995883218514024,6.973942045921801" style="fill:none;stroke:black;stroke-width:1"/>
<polygon points="24.39624683886645,20.556156105154365 24.4353800264926,20.406950498258364 18.995883218514024,6.973942045921801" style="fill:none;stroke:black;stroke-width:1"/>
<polygon points="23.943448275862067,18.78896551724138 5.866409197148353,24.738089839232458 24.109951127291524,18.81603515503717" style="fill:none;stroke:black;stroke-width:1"/>
<polygon points="24.141276388496493,21.454452136888147 22.962744030888455,19.67706712623598 23.001877218514597,19.52786151933998" style="fill:none;stroke:black;stroke-width:1"/>
<polygon points="24.052312017123516,21.589775587353923 22.962744030888455,19.67706712623598 24.141276388496493,21.454452136888147" style="fill:none;stroke:black;stroke-width:1"/>
<polygon points="23.80132905964657,21.796713603010172 22.845344468010012,20.124683946923977 22.88447765563616,19.975478340027976" style="fill:none;stroke:black;stroke-width:1"/>
<polygon points="11.37656143642304,24.203924023791593 18.219898695138696,6.189399607159658 18.131961519314885,5.725232445757088" style="fill:none;stroke:black;stroke-width:1"/>
<polygon points="11.506346321365234,24.15953494437394 11.37656143642304,24.203924023791593 18.131961519314885,5.725232445757088" style="fill:none;stroke:black;stroke-width:1"/>
<polygon points="26.112559474363962,17.470410430709396 27.46354641020186,19.86186939102171 18.441967941842318,5.226083521644086" style="fill:none;stroke:black;stroke-width:1"/>
<polygon points="18.752877399510204,5.371599929679211 27.828305499340075,15.390158259331637 23.78641708764994,16.15061817579594" style="fill:none;stroke:black;stroke-width:1"/>
<polygon points="27.828305499340075,15.390158259331637 18.752877399510204,5.371599929679211 18.6023221221204,5.736145283103751" style="fill:none;stroke:black;stroke-width:1"/>
<polygon points="9.589066884804149,9.695929196336873 9.840751674178724,9.259954260820326 9.67191877094943,9.565618926927296" style="fill:none;stroke:black;stroke-width:1"/>
<polygon points="18.23797111669825,6.431591827129406 9.589066884804149,9.695929196336873 9.67191877094943,9.565618926927296" style="fill:none;stroke:black;stroke-width:1"/>
<polygon points="18.56572943817017,6.304834611497962 9.878478510242061,9.082133712415544 9.870039475422958,8.90107656088424" style="fill:none;stroke:black;stroke-width:1"/>
<polygon points="9.878478510242061,9.082133712415544 18.56572943817017,6.304834611497962 9.840751674178724,9.259954260820326" style="fill:none;stroke:black;stroke-width:1"/>
<polygon points="9.589066884804149,9.695929196336873 9.878478510242061,9.082133712415544 9.840751674178724,9.259954260820326" style="fill:none;stroke:black;stroke-width:1"/>
<polygon points="9.878478510242061,9.082133712415544 9.452987234158092,9.93277018645536 9.870039475422958,8.90107656088424" style="fill:none;stroke:black;stroke-width:1"/>
<polygon points="9.760473643299015,9.423224733448205 18.56572943817017,6.304834611497962 18.23797111669825,6.431591827129406" style="fill:none;stroke:black;stroke-width:1"/>
<polygon points="18.56572943817017,6.304834611497962 9.760473643299015,9.423224733448205 9.840751674178724,9.259954260820326" style="fill:none;stroke:black;stroke-width:1"/>
<polygon points="9.760473643299015,9.423224733448205 18.23797111669825,6.431591827129406 9.67191877094943,9.565618926927296" style="fill:none;stroke:black;stroke-width:1"/>
<polygon points="9.840751674178724,9.259954260820326 9.760473643299015,9.423224733448205 9.67191877094943,9.565618926927296" style="fill:none;stroke:black;stroke-width:1"/>
<polygon points="8.231029560808231,8.93078336714714 8.774038553621413,10.988718570653472 8.149326791211255,9.059007718710188" style="fill:none;stroke:black;stroke-width:1"/>
<polygon points="8.774038553621413,10.988718570653472 8.626447080129763,11.067545201001357 8.149326791211255,9.059007718710188" style="fill:none;stroke:black;stroke-width:1"/>
<polygon points="8.774038553621413,10.988718570653472 8.231029560808231,8.93078336714714 8.31134563772454,8.804115765008275" style="fill:none;stroke:black;stroke-width:1"/>
<polygon points="8.06630594601495,9.188871991917221 8.458421934943503,11.117874981767768 7.982035642300656,9.32045935898805" style="fill:none;stroke:black;stroke-width:1"/>
<polygon points="8.626447080129763,11.067545201001357 8.458421934943503,11.117874981767768 8.06630594601495,9.188871991917221" style="fill:none;stroke:black;stroke-width:1"/>
<polygon points="8.458421934943503,11.117874981767768 8.626447080129763,11.067545201001357 8.276893142503924,11.137497039905002" style="fill:none;stroke:black;stroke-width:1"/>
<polygon points="8.554016260025122,8.43218063056593 8.467543245189779,8.55511812012385 18.002411018259128,4.991425162381773" style="fill:none;stroke:black;stroke-width:1"/>
<polygon points="8.467543245189779,8.55511812012385 8.390206404878835,8.678921740073779 18.002411018259128,4.991425162381773" style="fill:none;stroke:black;stroke-width:1"/>
<polygon points="8.668814944852105,8.33230202360847 8.554016260025122,8.43218063056593 18.002411018259128,4.991425162381773" style="fill:none;stroke:black;stroke-width:1"/>
<polygon points="8.806065511865501,8.261827866661989 8.668814944852105,8.33230202360847 18.002411018259128,4.991425162381773" style="fill:none;stroke:black;stroke-width:1"/>
<polygon points="7.81002112764347,9.589136063600323 17.527067456406773,4.774210808247567 19.519677262424818,4.848400510917708" style="fill:none;stroke:black;stroke-width:1"/>
<polygon points="7.81002112764347,9.589136063600323 7.72241415086326,9.726391745581378 17.527067456406773,4.774210808247567" style="fill:none;stroke:black;stroke-width:1"/>
<polygon points="7.435130380575616,10.531685627403348 17.11874651009137,4.887969316303008 19.02729878618272,4.783088692151793" style="fill:none;stroke:black;stroke-width:1"/>
<polygon points="7.72919934284368,10.988892549265579 17.910212795226332,6.558349042760848 17.11874651009137,4.887969316303008" style="fill:none;stroke:black;stroke-width:1"/>
<polygon points="7.589815414030621,10.862323096894926 7.72919934284368,10.988892549265579 17.11874651009137,4.887969316303008" style="fill:none;stroke:black;stroke-width:1"/>
<polygon points="21.40178176845847,11.819490312745073 18.752877399510204,5.371599929679211 23.78641708764994,16.15061817579594" style="fill:none;stroke:black;stroke-width:1"/>
<polygon points="21.40178176845847,11.819490312745073 16.969578357767304,9.644017505211886 18.752877399510204,5.371599929679211" style="fill:none;stroke:black;stroke-width:1"/>
<polygon points="5.378696074460123,12.011227048373943 8.11706594425727,7.874227515265564 18.752877399510204,5.371599929679211" style="fill:none;stroke:black;stroke-width:1"/>
<polygon points="5.508713621815188,15.665370720952621 5.378696074460123,12.011227048373943 18.752877399510204,5.371599929679211" style="fill:none;stroke:black;stroke-width:1"/>
<polygon points="12.190660470500731,11.079902638796954 9.687273073256973,15.295472290966424 18.752877399510204,5.371599929679211" style="fill:none;stroke:black;stroke-width:1"/>
<polygon points="9.687273073256973,15.295472290966424 5.508713621815188,15.665370720952621 18.752877399510204,5.371599929679211" style="fill:none;stroke:black;stroke-width:1"/>
<polygon points="18.717001997604203,5.1677805631250155 9.589783430750423,26.109563542575167 17.78096271763844,5.215622325280906" style="fill:none;stroke:black;stroke-width:1"/>
<polygon points="11.808850824339844,25.383317821912456 11.943559178915011,25.335351632421105 18.441967941842318,5.226083521644086" style="fill:none;stroke:black;stroke-width:1"/>
<polygon points="11.943559178915011,25.335351632421105 12.076480480064593,25.288367883864186 18.441967941842318,5.226083521644086" style="fill:none;stroke:black;stroke-width:1"/>
<polygon points="11.67224637529002,25.43203472831365 11.808850824339844,25.383317821912456 18.441967941842318,5.226083521644086" style="fill:none;stroke:black;stroke-width:1"/>
<polygon points="24.239714088361872,21.152978532738363 24.278847275988014,21.00377292584236 18.995883218514024,6.973942045921801" style="fill:none;stroke:black;stroke-width:1"/>
<polygon points="24.278847275988014,21.00377292584236 24.31798046361416,20.854567318946362 18.995883218514024,6.973942045921801" style="fill:none;stroke:black;stroke-width:1"/>
<polygon points="23.100087246437457,19.228625497126867 24.278847275988014,21.00377292584236 24.239714088361872,21.152978532738363" style="fill:none;stroke:black;stroke-width:1"/>
<polygon points="23.30550108609796,18.98138005229677 23.44314652642756,18.89060543793685 24.357113651240308,20.705361712050365" style="fill:none;stroke:black;stroke-width:1"/>
<polygon points="23.44314652642756,18.89060543793685 24.39624683886645,20.556156105154365 24.357113651240308,20.705361712050365" style="fill:none;stroke:black;stroke-width:1"/>
<polygon points="3.0657892050475994,15.20528725480326 23.44314652642756,18.89060543793685 4.472164947344717,10.35612245842816" style="fill:none;stroke:black;stroke-width:1"/>
<polygon points="23.44314652642756,18.89060543793685 23.30550108609796,18.98138005229677 4.472164947344717,10.35612245842816" style="fill:none;stroke:black;stroke-width:1"/>
<polygon points="23.041050289365167,19.378547745903084 24.200577816240926,21.302192208388206 23.001877218514597,19.52786151933998" style="fill:none;stroke:black;stroke-width:1"/>
<polygon points="24.200577816240926,21.302192208388206 23.041050289365167,19.378547745903084 24.239714088361872,21.152978532738363" style="fill:none;stroke:black;stroke-width:1"/>
<polygon points="23.041050289365167,19.378547745903084 23.100087246437457,19.228625497126867 24.239714088361872,21.152978532738363" style="fill:none;stroke:black;stroke-width:1"/>
<polygon points="3.550075092672518,20.321954317632702 5.866409197148353,24.738089839232458 23.943448275862067,18.78896551724138" style="fill:none;stroke:black;stroke-width:1"/>
<polygon points="14.373748439457719,29.63864832856213 24.26655965763292,18.889855997721813 24.109951127291524,18.81603515503717" style="fill:none;stroke:black;stroke-width:1"/>
<polygon points="11.757562847201998,3.997926110521811 23.041050289365167,19.378547745903084 10.714921409692428,25.39757859607681" style="fill:none;stroke:black;stroke-width:1"/>
<polygon points="22.80621128038387,20.273889553819977 23.479498176119375,21.897207353011346 22.76707809275772,20.423095160715974" style="fill:none;stroke:black;stroke-width:1"/>
<polygon points="22.92361084326231,19.826272733131976 22.962744030888455,19.67706712623598 24.052312017123516,21.589775587353923" style="fill:none;stroke:black;stroke-width:1"/>
<polygon points="23.80132905964657,21.796713603010172 23.64727778161992,21.861878442614245 22.845344468010012,20.124683946923977" style="fill:none;stroke:black;stroke-width:1"/>
<polygon points="22.80621128038387,20.273889553819977 23.64727778161992,21.861878442614245 23.479498176119375,21.897207353011346" style="fill:none;stroke:black;stroke-width:1"/>
<polygon points="23.64727778161992,21.861878442614245 22.80621128038387,20.273889553819977 22.845344468010012,20.124683946923977" style="fill:none;stroke:black;stroke-width:1"/>
<polygon points="23.479498176119375,21.897207353011346 23.64727778161992,21.861878442614245 18.995883218514024,6.973942045921801" style="fill:none;stroke:black;stroke-width:1"/>
<polygon points="23.64727778161992,21.861878442614245 23.80132905964657,21.796713603010172 18.995883218514024,6.973942045921801" style="fill:none;stroke:black;stroke-width:1"/>
<polygon points="18.151854229746565,5.3151478595679755 12.613401142691618,23.838692912100196 18.131961519314885,5.725232445757088" style="fill:none;stroke:black;stroke-width:1"/>
<polygon points="18.219898695138696,6.189399607159658 10.994160197418301,24.327088442602058 22.656259622166385,20.894566739334543" style="fill:none;stroke:black;stroke-width:1"/>
<polygon points="14.675179053624719,22.97796013911011 18.441967941842318,5.226083521644086 10.619827288071084,20.242651789443137" style="fill:none;stroke:black;stroke-width:1"/>
<polygon points="14.675179053624719,22.97796013911011 19.635174863099646,22.200689582966714 18.441967941842318,5.226083521644086" style="fill:none;stroke:black;stroke-width:1"/>
<polygon points="22.663592472723273,18.37878195188174 26.112559474363962,17.470410430709396 18.441967941842318,5.226083521644086" style="fill:none;stroke:black;stroke-width:1"/>
<polygon points="19.635174863099646,22.200689582966714 22.663592472723273,18.37878195188174 18.441967941842318,5.226083521644086" style="fill:none;stroke:black;stroke-width:1"/>
<polygon points="27.46354641020186,19.86186939102171 25.030357231019842,24.21550143624469 18.441967941842318,5.226083521644086" style="fill:none;stroke:black;stroke-width:1"/>
<polygon points="25.030357231019842,24.21550143624469 11.67224637529002,25.43203472831365 18.441967941842318,5.226083521644086" style="fill:none;stroke:black;stroke-width:1"/>
<polygon points="23.771998734309527,7.2463462995986685 26.914245607841515,11.055166239997396 18.6023221221204,5.736145283103751" style="fill:none;stroke:black;stroke-width:1"/>
<polygon points="26.914245607841515,11.055166239997396 27.828305499340075,15.390158259331637 18.6023221221204,5.736145283103751" style="fill:none;stroke:black;stroke-width:1"/>
<polygon points="24.188491333906537,27.22708788917795 27.519614850920668,23.626928114475326 18.6023221221204,5.736145283103751" style="fill:none;stroke:black;stroke-width:1"/>
<polygon points="27.519614850920668,23.626928114475326 29.32184785965988,18.957586750445255 18.6023221221204,5.736145283103751" style="fill:none;stroke:black;stroke-width:1"/>
<polygon points="19.302781887053097,5.023191015447855 23.771998734309527,7.2463462995986685 18.6023221221204,5.736145283103751" style="fill:none;stroke:black;stroke-width:1"/>
<polygon points="29.32184785965988,18.957586750445255 19.302781887053097,5.023191015447855 18.6023221221204,5.736145283103751" style="fill:none;stroke:black;stroke-width:1"/>
<polygon points="9.452673645448124,8.322528657810594 9.289071876479335,8.251108557182913 18.406637048779352,5.273609730193423" style="fill:none;stroke:black;stroke-width:1"/>
<polygon points="9.815628261326957,8.725889014358861 9.724977444765372,8.566831002694691 18.406637048779352,5.273609730193423" style="fill:none;stroke:black;stroke-width:1"/>
<polygon points="9.724977444765372,8.566831002694691 9.815628261326957,8.725889014358861 9.452987234158092,9.93277018645536" style="fill:none;stroke:black;stroke-width:1"/>
<polygon points="9.878478510242061,9.082133712415544 9.515079622115215,9.817263928558578 9.452987234158092,9.93277018645536" style="fill:none;stroke:black;stroke-width:1"/>
<polygon points="9.515079622115215,9.817263928558578 9.878478510242061,9.082133712415544 9.589066884804149,9.695929196336873" style="fill:none;stroke:black;stroke-width:1"/>
<polygon points="9.515079622115215,9.817263928558578 9.589066884804149,9.695929196336873 18.23797111669825,6.431591827129406" style="fill:none;stroke:black;stroke-width:1"/>
<polygon points="9.515079622115215,9.817263928558578 18.23797111669825,6.431591827129406 17.910212795226332,6.558349042760848" style="fill:none;stroke:black;stroke-width:1"/>
<polygon points="9.452987234158092,9.93277018645536 9.515079622115215,9.817263928558578 17.910212795226332,6.558349042760848" style="fill:none;stroke:black;stroke-width:1"/>
<polygon points="8.390206404878835,8.678921740073779 8.89426633097716,10.883605963771812 8.31134563772454,8.804115765008275" style="fill:none;stroke:black;stroke-width:1"/>
<polygon points="8.89426633097716,10.883605963771812 8.774038553621413,10.988718570653472 8.31134563772454,8.804115765008275" style="fill:none;stroke:black;stroke-width:1"/>
<polygon points="7.81002112764347,9.589136063600323 7.896584497149717,9.453852992142481 8.276893142503924,11.137497039905002" style="fill:none;stroke:black;stroke-width:1"/>
<polygon points="8.458421934943503,11.117874981767768 7.896584497149717,9.453852992142481 7.982035642300656,9.32045935898805" style="fill:none;stroke:black;stroke-width:1"/>
<polygon points="7.896584497149717,9.453852992142481 8.458421934943503,11.117874981767768 8.276893142503924,11.137497039905002" style="fill:none;stroke:black;stroke-width:1"/>
<polygon points="7.982035642300656,9.32045935898805 7.896584497149717,9.453852992142481 19.519677262424818,4.848400510917708" style="fill:none;stroke:black;stroke-width:1"/>
<polygon points="7.896584497149717,9.453852992142481 7.81002112764347,9.589136063600323 19.519677262424818,4.848400510917708" style="fill:none;stroke:black;stroke-width:1"/>
<polygon points="7.4901748899539,10.70688094549056 7.589815414030621,10.862323096894926 17.11874651009137,4.887969316303008" style="fill:none;stroke:black;stroke-width:1"/>
<polygon points="7.435130380575616,10.531685627403348 7.4901748899539,10.70688094549056 17.11874651009137,4.887969316303008" style="fill:none;stroke:black;stroke-width:1"/>
<polygon points="7.4901748899539,10.70688094549056 7.435130380575616,10.531685627403348 7.589815414030621,10.862323096894926" style="fill:none;stroke:black;stroke-width:1"/>
<polygon points="7.72919934284368,10.988892549265579 7.903448275862069,11.077586206896552 17.910212795226332,6.558349042760848" style="fill:none;stroke:black;stroke-width:1"/>
<polygon points="7.903448275862069,11.077586206896552 9.452987234158092,9.93277018645536 17.910212795226332,6.558349042760848" style="fill:none;stroke:black;stroke-width:1"/>
<polygon points="7.903448275862069,11.077586206896552 7.72919934284368,10.988892549265579 7.465020707511028,10.172673542090584" style="fill:none;stroke:black;stroke-width:1"/>
<polygon points="7.903448275862069,11.077586206896552 8.89426633097716,10.883605963771812 9.452987234158092,9.93277018645536" style="fill:none;stroke:black;stroke-width:1"/>
<polygon points="8.89426633097716,10.883605963771812 7.903448275862069,11.077586206896552 8.774038553621413,10.988718570653472" style="fill:none;stroke:black;stroke-width:1"/>
<polygon points="7.435130380575616,10.531685627403348 7.427091936880528,10.350162843079628 7.589815414030621,10.862323096894926" style="fill:none;stroke:black;stroke-width:1"/>
<polygon points="7.427091936880528,10.350162843079628 7.72919934284368,10.988892549265579 7.589815414030621,10.862323096894926" style="fill:none;stroke:black;stroke-width:1"/>
<polygon points="7.72919934284368,10.988892549265579 7.427091936880528,10.350162843079628 7.465020707511028,10.172673542090584" style="fill:none;stroke:black;stroke-width:1"/>
<polygon points="7.427091936880528,10.350162843079628 7.435130380575616,10.531685627403348 19.02729878618272,4.783088692151793" style="fill:none;stroke:black;stroke-width:1"/>
<polygon points="17.527067456406773,4.774210808247567 7.427091936880528,10.350162843079628 19.02729878618272,4.783088692151793" style="fill:none;stroke:black;stroke-width:1"/>
<polygon points="7.465020707511028,10.172673542090584 7.427091936880528,10.350162843079628 17.527067456406773,4.774210808247567" style="fill:none;stroke:black;stroke-width:1"/>
<polygon points="18.881497018902472,21.21127089963419 13.920132905707598,21.234066982901894 18.717001997604203,5.1677805631250155" style="fill:none;stroke:black;stroke-width:1"/>
<polygon points="20.93464125875069,13.384146252267064 14.251631152093076,27.99714424750177 18.717001997604203,5.1677805631250155" style="fill:none;stroke:black;stroke-width:1"/>
<polygon points="14.251631152093076,27.99714424750177 9.589783430750423,26.109563542575167 18.717001997604203,5.1677805631250155" style="fill:none;stroke:black;stroke-width:1"/>
<polygon points="22.973188436374905,21.791898311444957 23.1295599501609,21.86608328557665 18.506697082189856,6.741319289103961" style="fill:none;stroke:black;stroke-width:1"/>
<polygon points="22.735506296193964,21.554977292647685 22.840459682420438,21.68641174170996 18.506697082189856,6.741319289103961" style="fill:none;stroke:black;stroke-width:1"/>
<polygon points="22.840459682420438,21.68641174170996 22.973188436374905,21.791898311444957 18.506697082189856,6.741319289103961" style="fill:none;stroke:black;stroke-width:1"/>
<polygon points="22.973188436374905,21.791898311444957 22.840459682420438,21.68641174170996 22.656259622166385,20.894566739334543" style="fill:none;stroke:black;stroke-width:1"/>
<polygon points="22.627076885353215,21.062501745644067 18.219898695138696,6.189399607159658 22.656259622166385,20.894566739334543" style="fill:none;stroke:black;stroke-width:1"/>
<polygon points="22.627076885353215,21.062501745644067 22.6253677361542,21.236269290652178 18.219898695138696,6.189399607159658" style="fill:none;stroke:black;stroke-width:1"/>
<polygon points="22.6253677361542,21.236269290652178 22.627076885353215,21.062501745644067 22.735506296193964,21.554977292647685" style="fill:none;stroke:black;stroke-width:1"/>
<polygon points="22.840459682420438,21.68641174170996 22.627076885353215,21.062501745644067 22.656259622166385,20.894566739334543" style="fill:none;stroke:black;stroke-width:1"/>
<polygon points="22.627076885353215,21.062501745644067 22.840459682420438,21.68641174170996 22.735506296193964,21.554977292647685" style="fill:none;stroke:black;stroke-width:1"/>
<polygon points="22.662460885591933,21.402948680534166 22.735506296193964,21.554977292647685 18.219898695138696,6.189399607159658" style="fill:none;stroke:black;stroke-width:1"/>
<polygon points="22.6253677361542,21.236269290652178 22.662460885591933,21.402948680534166 18.219898695138696,6.189399607159658" style="fill:none;stroke:black;stroke-width:1"/>
<polygon points="22.662460885591933,21.402948680534166 22.6253677361542,21.236269290652178 22.735506296193964,21.554977292647685" style="fill:none;stroke:black;stroke-width:1"/>
<polygon points="23.189692752391494,19.095144835642433 24.278847275988014,21.00377292584236 23.100087246437457,19.228625497126867" style="fill:none;stroke:black;stroke-width:1"/>
<polygon points="23.30550108609796,18.98138005229677 23.189692752391494,19.095144835642433 4.472164947344717,10.35612245842816" style="fill:none;stroke:black;stroke-width:1"/>
<polygon points="24.31798046361416,20.854567318946362 23.189692752391494,19.095144835642433 23.30550108609796,18.98138005229677" style="fill:none;stroke:black;stroke-width:1"/>
<polygon points="24.278847275988014,21.00377292584236 23.189692752391494,19.095144835642433 24.31798046361416,20.854567318946362" style="fill:none;stroke:black;stroke-width:1"/>
<polygon points="24.39624683886645,20.556156105154365 23.59826335225099,18.826095283409657 24.4353800264926,20.406950498258364" style="fill:none;stroke:black;stroke-width:1"/>
<polygon points="23.44314652642756,18.89060543793685 23.59826335225099,18.826095283409657 24.39624683886645,20.556156105154365" style="fill:none;stroke:black;stroke-width:1"/>
<polygon points="3.550075092672518,20.321954317632702 23.59826335225099,18.826095283409657 3.0657892050475994,15.20528725480326" style="fill:none;stroke:black;stroke-width:1"/>
<polygon points="23.59826335225099,18.826095283409657 23.44314652642756,18.89060543793685 3.0657892050475994,15.20528725480326" style="fill:none;stroke:black;stroke-width:1"/>
<polygon points="5.866409197148353,24.738089839232458 9.607172957461904,27.976465699950683 24.109951127291524,18.81603515503717" style="fill:none;stroke:black;stroke-width:1"/>
<polygon points="9.607172957461904,27.976465699950683 14.373748439457719,29.63864832856213 24.109951127291524,18.81603515503717" style="fill:none;stroke:black;stroke-width:1"/>
<polygon points="24.26655965763292,18.889855997721813 19.651318989761943,29.361229472588224 24.188491333906537,27.22708788917795" style="fill:none;stroke:black;stroke-width:1"/>
<polygon points="14.373748439457719,29.63864832856213 19.651318989761943,29.361229472588224 24.26655965763292,18.889855997721813" style="fill:none;stroke:black;stroke-width:1"/>
<polygon points="23.189692752391494,19.095144835642433 7.476891808805514,6.488019335685392 4.472164947344717,10.35612245842816" style="fill:none;stroke:black;stroke-width:1"/>
<polygon points="7.476891808805514,6.488019335685392 23.189692752391494,19.095144835642433 23.100087246437457,19.228625497126867" style="fill:none;stroke:black;stroke-width:1"/>
<polygon points="23.041050289365167,19.378547745903084 7.476891808805514,6.488019335685392 23.100087246437457,19.228625497126867" style="fill:none;stroke:black;stroke-width:1"/>
<polygon points="11.757562847201998,3.997926110521811 7.476891808805514,6.488019335685392 23.041050289365167,19.378547745903084" style="fill:none;stroke:black;stroke-width:1"/>
<polygon points="23.937668356160657,21.70493769699233 23.80132905964657,21.796713603010172 22.88447765563616,19.975478340027976" style="fill:none;stroke:black;stroke-width:1"/>
<polygon points="22.92361084326231,19.826272733131976 23.937668356160657,21.70493769699233 22.88447765563616,19.975478340027976" style="fill:none;stroke:black;stroke-width:1"/>
<polygon points="23.937668356160657,21.70493769699233 22.92361084326231,19.826272733131976 24.052312017123516,21.589775587353923" style="fill:none;stroke:black;stroke-width:1"/>
<polygon points="23.937668356160657,21.70493769699233 24.052312017123516,21.589775587353923 18.995883218514024,6.973942045921801" style="fill:none;stroke:black;stroke-width:1"/>
<polygon points="23.80132905964657,21.796713603010172 23.937668356160657,21.70493769699233 18.995883218514024,6.973942045921801" style="fill:none;stroke:black;stroke-width:1"/>
<polygon points="13.134839580877577,24.772640823136243 18.151854229746565,5.3151478595679755 17.28180445710845,5.341575592796145" style="fill:none;stroke:black;stroke-width:1"/>
<polygon points="13.06005657904879,24.880587038676527 13.134839580877577,24.772640823136243 17.28180445710845,5.341575592796145" style="fill:none;stroke:black;stroke-width:1"/>
<polygon points="11.120684178112555,24.287837726074656 10.994160197418301,24.327088442602058 18.219898695138696,6.189399607159658" style="fill:none;stroke:black;stroke-width:1"/>
<polygon points="9.122539640633601,8.21880348731976 8.959422298110827,8.223185805855936 18.406637048779352,5.273609730193423" style="fill:none;stroke:black;stroke-width:1"/>
<polygon points="9.289071876479335,8.251108557182913 9.122539640633601,8.21880348731976 18.406637048779352,5.273609730193423" style="fill:none;stroke:black;stroke-width:1"/>
<polygon points="9.603134763700998,8.430441399594516 9.452673645448124,8.322528657810594 18.406637048779352,5.273609730193423" style="fill:none;stroke:black;stroke-width:1"/>
<polygon points="9.724977444765372,8.566831002694691 9.603134763700998,8.430441399594516 18.406637048779352,5.273609730193423" style="fill:none;stroke:black;stroke-width:1"/>
<polygon points="8.467543245189779,8.55511812012385 8.981557601688952,10.758552666202295 8.390206404878835,8.678921740073779" style="fill:none;stroke:black;stroke-width:1"/>
<polygon points="8.981557601688952,10.758552666202295 8.89426633097716,10.883605963771812 8.390206404878835,8.678921740073779" style="fill:none;stroke:black;stroke-width:1"/>
<polygon points="8.981557601688952,10.758552666202295 8.467543245189779,8.55511812012385 8.554016260025122,8.43218063056593" style="fill:none;stroke:black;stroke-width:1"/>
<polygon points="8.89426633097716,10.883605963771812 8.981557601688952,10.758552666202295 9.452987234158092,9.93277018645536" style="fill:none;stroke:black;stroke-width:1"/>
<polygon points="8.09044219008876,11.123562126589004 7.81002112764347,9.589136063600323 8.276893142503924,11.137497039905002" style="fill:none;stroke:black;stroke-width:1"/>
<polygon points="7.81002112764347,9.589136063600323 8.09044219008876,11.123562126589004 7.72241415086326,9.726391745581378" style="fill:none;stroke:black;stroke-width:1"/>
<polygon points="8.626447080129763,11.067545201001357 8.09044219008876,11.123562126589004 8.276893142503924,11.137497039905002" style="fill:none;stroke:black;stroke-width:1"/>
<polygon points="8.774038553621413,10.988718570653472 8.09044219008876,11.123562126589004 8.626447080129763,11.067545201001357" style="fill:none;stroke:black;stroke-width:1"/>
<polygon points="7.903448275862069,11.077586206896552 8.09044219008876,11.123562126589004 8.774038553621413,10.988718570653472" style="fill:none;stroke:black;stroke-width:1"/>
<polygon points="7.72241415086326,9.726391745581378 7.633832183890425,9.865703210305458 17.527067456406773,4.774210808247567" style="fill:none;stroke:black;stroke-width:1"/>
<polygon points="8.09044219008876,11.123562126589004 7.633832183890425,9.865703210305458 7.72241415086326,9.726391745581378" style="fill:none;stroke:black;stroke-width:1"/>
<polygon points="7.633832183890425,9.865703210305458 8.09044219008876,11.123562126589004 7.903448275862069,11.077586206896552" style="fill:none;stroke:black;stroke-width:1"/>
<polygon points="12.299736466896574,5.206970213848987 21.77581503641307,17.353573118195897 18.717001997604203,5.1677805631250155" style="fill:none;stroke:black;stroke-width:1"/>
<polygon points="21.77581503641307,17.353573118195897 18.881497018902472,21.21127089963419 18.717001997604203,5.1677805631250155" style="fill:none;stroke:black;stroke-width:1"/>
<polygon points="16.812136859061262,10.851272996277206 20.93464125875069,13.384146252267064 18.717001997604203,5.1677805631250155" style="fill:none;stroke:black;stroke-width:1"/>
<polygon points="12.26692912265343,12.644486184981814 16.812136859061262,10.851272996277206 18.717001997604203,5.1677805631250155" style="fill:none;stroke:black;stroke-width:1"/>
<polygon points="13.920132905707598,21.234066982901894 10.970334566522311,17.379264286761085 18.717001997604203,5.1677805631250155" style="fill:none;stroke:black;stroke-width:1"/>
<polygon points="10.970334566522311,17.379264286761085 12.26692912265343,12.644486184981814 18.717001997604203,5.1677805631250155" style="fill:none;stroke:black;stroke-width:1"/>
<polygon points="8.293827094640337,17.12924533887175 10.619827288071084,20.242651789443137 17.78096271763844,5.215622325280906" style="fill:none;stroke:black;stroke-width:1"/>
<polygon points="4.4661536291309165,17.801754008272397 8.293827094640337,17.12924533887175 17.78096271763844,5.215622325280906" style="fill:none;stroke:black;stroke-width:1"/>
<polygon points="9.589783430750423,26.109563542575167 6.162938640960202,22.545754745860485 17.78096271763844,5.215622325280906" style="fill:none;stroke:black;stroke-width:1"/>
<polygon points="6.162938640960202,22.545754745860485 4.4661536291309165,17.801754008272397 17.78096271763844,5.215622325280906" style="fill:none;stroke:black;stroke-width:1"/>
<polygon points="23.479498176119375,21.897207353011346 23.305603858906885,21.902758620689653 22.76707809275772,20.423095160715974" style="fill:none;stroke:black;stroke-width:1"/>
<polygon points="23.305603858906885,21.902758620689653 22.727669820588662,20.574269175697346 22.76707809275772,20.423095160715974" style="fill:none;stroke:black;stroke-width:1"/>
<polygon points="23.305603858906885,21.902758620689653 23.479498176119375,21.897207353011346 18.506697082189856,6.741319289103961" style="fill:none;stroke:black;stroke-width:1"/>
<polygon points="23.1295599501609,21.86608328557665 23.305603858906885,21.902758620689653 18.506697082189856,6.741319289103961" style="fill:none;stroke:black;stroke-width:1"/>
<polygon points="23.305603858906885,21.902758620689653 23.1295599501609,21.86608328557665 22.973188436374905,21.791898311444957" style="fill:none;stroke:black;stroke-width:1"/>
<polygon points="23.59826335225099,18.826095283409657 23.76648584243892,18.791123879562175 24.4353800264926,20.406950498258364" style="fill:none;stroke:black;stroke-width:1"/>
<polygon points="24.474513214118744,20.257744891362364 23.76648584243892,18.791123879562175 23.943448275862067,18.78896551724138" style="fill:none;stroke:black;stroke-width:1"/>
<polygon points="23.76648584243892,18.791123879562175 24.474513214118744,20.257744891362364 24.4353800264926,20.406950498258364" style="fill:none;stroke:black;stroke-width:1"/>
<polygon points="23.76648584243892,18.791123879562175 3.550075092672518,20.321954317632702 23.943448275862067,18.78896551724138" style="fill:none;stroke:black;stroke-width:1"/>
<polygon points="23.76648584243892,18.791123879562175 23.59826335225099,18.826095283409657 3.550075092672518,20.321954317632702" style="fill:none;stroke:black;stroke-width:1"/>
<polygon points="12.96340247324293,24.96930509301095 13.06005657904879,24.880587038676527 17.28180445710845,5.341575592796145" style="fill:none;stroke:black;stroke-width:1"/>
<polygon points="18.441967941842318,5.226083521644086 12.593414094990395,25.114280024885154 17.28180445710845,5.341575592796145" style="fill:none;stroke:black;stroke-width:1"/>
<polygon points="12.593414094990395,25.114280024885154 12.719938075684647,25.07502930835776 17.28180445710845,5.341575592796145" style="fill:none;stroke:black;stroke-width:1"/>
<polygon points="13.09498333528715,24.115183104810605 12.999512191609735,24.00952548282814 18.151854229746565,5.3151478595679755" style="fill:none;stroke:black;stroke-width:1"/>
<polygon points="12.999512191609735,24.00952548282814 12.884197196316334,23.926562975187938 18.151854229746565,5.3151478595679755" style="fill:none;stroke:black;stroke-width:1"/>
<polygon points="12.753886768084472,23.868791857601572 12.613401142691618,23.838692912100196 18.151854229746565,5.3151478595679755" style="fill:none;stroke:black;stroke-width:1"/>
<polygon points="12.884197196316334,23.926562975187938 12.753886768084472,23.868791857601572 18.151854229746565,5.3151478595679755" style="fill:none;stroke:black;stroke-width:1"/>
<polygon points="11.37656143642304,24.203924023791593 11.248076451105455,24.246741794486717 18.219898695138696,6.189399607159658" style="fill:none;stroke:black;stroke-width:1"/>
<polygon points="11.248076451105455,24.246741794486717 11.120684178112555,24.287837726074656 18.219898695138696,6.189399607159658" style="fill:none;stroke:black;stroke-width:1"/>
<polygon points="23.305603858906885,21.902758620689653 22.690268762367207,20.731707945440384 22.727669820588662,20.574269175697346" style="fill:none;stroke:black;stroke-width:1"/>
<polygon points="22.690268762367207,20.731707945440384 22.973188436374905,21.791898311444957 22.656259622166385,20.894566739334543" style="fill:none;stroke:black;stroke-width:1"/>
<polygon points="22.690268762367207,20.731707945440384 23.305603858906885,21.902758620689653 22.973188436374905,21.791898311444957" style="fill:none;stroke:black;stroke-width:1"/>
<polygon points="10.994160197418301,24.327088442602058 10.866809594304588,24.368328557221652 22.656259622166385,20.894566739334543" style="fill:none;stroke:black;stroke-width:1"/>
<polygon points="10.866809594304588,24.368328557221652 22.690268762367207,20.731707945440384 22.656259622166385,20.894566739334543" style="fill:none;stroke:black;stroke-width:1"/>
<polygon points="22.690268762367207,20.731707945440384 10.866809594304588,24.368328557221652 10.751113923156158,24.433779092766216" style="fill:none;stroke:black;stroke-width:1"/>
<polygon points="10.507652536088568,24.886987403545948 22.80621128038387,20.273889553819977 22.76707809275772,20.423095160715974" style="fill:none;stroke:black;stroke-width:1"/>
<polygon points="8.668814944852105,8.33230202360847 9.057120410818825,10.636200506026896 8.554016260025122,8.43218063056593" style="fill:none;stroke:black;stroke-width:1"/>
<polygon points="9.057120410818825,10.636200506026896 8.981557601688952,10.758552666202295 8.554016260025122,8.43218063056593" style="fill:none;stroke:black;stroke-width:1"/>
<polygon points="8.981557601688952,10.758552666202295 9.057120410818825,10.636200506026896 9.452987234158092,9.93277018645536" style="fill:none;stroke:black;stroke-width:1"/>
<polygon points="7.544751771045062,10.00947994580469 7.903448275862069,11.077586206896552 7.465020707511028,10.172673542090584" style="fill:none;stroke:black;stroke-width:1"/>
<polygon points="7.544751771045062,10.00947994580469 7.633832183890425,9.865703210305458 7.903448275862069,11.077586206896552" style="fill:none;stroke:black;stroke-width:1"/>
<polygon points="7.544751771045062,10.00947994580469 7.465020707511028,10.172673542090584 17.527067456406773,4.774210808247567" style="fill:none;stroke:black;stroke-width:1"/>
<polygon points="7.633832183890425,9.865703210305458 7.544751771045062,10.00947994580469 17.527067456406773,4.774210808247567" style="fill:none;stroke:black;stroke-width:1"/>
<polygon points="12.719938075684647,25.07502930835776 12.847307324481468,25.03412955276727 17.28180445710845,5.341575592796145" style="fill:none;stroke:black;stroke-width:1"/>
<polygon points="12.847307324481468,25.03412955276727 12.96340247324293,24.96930509301095 17.28180445710845,5.341575592796145" style="fill:none;stroke:black;stroke-width:1"/>
<polygon points="12.466021821997495,25.1553759564731 18.441967941842318,5.226083521644086 12.33753683667991,25.198193727168224" style="fill:none;stroke:black;stroke-width:1"/>
<polygon points="12.466021821997495,25.1553759564731 12.593414094990395,25.114280024885154 18.441967941842318,5.226083521644086" style="fill:none;stroke:black;stroke-width:1"/>
<polygon points="13.165736189874652,24.241020661661643 13.09498333528715,24.115183104810605 18.151854229746565,5.3151478595679755" style="fill:none;stroke:black;stroke-width:1"/>
<polygon points="13.203607114448598,24.379609615321094 13.165736189874652,24.241020661661643 18.151854229746565,5.3151478595679755" style="fill:none;stroke:black;stroke-width:1"/>
<polygon points="13.209057924523513,24.517565660431064 13.203607114448598,24.379609615321094 18.151854229746565,5.3151478595679755" style="fill:none;stroke:black;stroke-width:1"/>
<polygon points="11.637617793038357,24.113749867095628 11.506346321365234,24.15953494437394 18.131961519314885,5.725232445757088" style="fill:none;stroke:black;stroke-width:1"/>
<polygon points="11.770539094187939,24.06676611853871 11.637617793038357,24.113749867095628 18.131961519314885,5.725232445757088" style="fill:none;stroke:black;stroke-width:1"/>
<polygon points="12.04185189781293,23.970083022646165 11.905247448763106,24.01879992904736 18.131961519314885,5.725232445757088" style="fill:none;stroke:black;stroke-width:1"/>
<polygon points="11.905247448763106,24.01879992904736 11.770539094187939,24.06676611853871 18.131961519314885,5.725232445757088" style="fill:none;stroke:black;stroke-width:1"/>
<polygon points="12.613401142691618,23.838692912100196 12.46753065337271,23.838735081460843 18.131961519314885,5.725232445757088" style="fill:none;stroke:black;stroke-width:1"/>
<polygon points="12.46753065337271,23.838735081460843 12.321034482758622,23.871379310344828 18.131961519314885,5.725232445757088" style="fill:none;stroke:black;stroke-width:1"/>
<polygon points="12.180431579843946,23.920858962613845 12.04185189781293,23.970083022646165 18.131961519314885,5.725232445757088" style="fill:none;stroke:black;stroke-width:1"/>
<polygon points="12.321034482758622,23.871379310344828 12.180431579843946,23.920858962613845 18.131961519314885,5.725232445757088" style="fill:none;stroke:black;stroke-width:1"/>
<polygon points="22.727669820588662,20.574269175697346 10.530753123192854,24.75424137594635 22.76707809275772,20.423095160715974" style="fill:none;stroke:black;stroke-width:1"/>
<polygon points="10.530753123192854,24.75424137594635 10.507652536088568,24.886987403545948 22.76707809275772,20.423095160715974" style="fill:none;stroke:black;stroke-width:1"/>
<polygon points="22.80621128038387,20.273889553819977 10.51380090065695,25.025051811967607 22.845344468010012,20.124683946923977" style="fill:none;stroke:black;stroke-width:1"/>
<polygon points="10.507652536088568,24.886987403545948 10.51380090065695,25.025051811967607 22.80621128038387,20.273889553819977" style="fill:none;stroke:black;stroke-width:1"/>
<polygon points="22.845344468010012,20.124683946923977 10.51380090065695,25.025051811967607 22.88447765563616,19.975478340027976" style="fill:none;stroke:black;stroke-width:1"/>
<polygon points="9.130195924056752,10.515612434557964 8.668814944852105,8.33230202360847 8.806065511865501,8.261827866661989" style="fill:none;stroke:black;stroke-width:1"/>
<polygon points="9.130195924056752,10.515612434557964 9.057120410818825,10.636200506026896 8.668814944852105,8.33230202360847" style="fill:none;stroke:black;stroke-width:1"/>
<polygon points="9.130195924056752,10.515612434557964 8.806065511865501,8.261827866661989 8.959422298110827,8.223185805855936" style="fill:none;stroke:black;stroke-width:1"/>
<polygon points="9.057120410818825,10.636200506026896 9.130195924056752,10.515612434557964 9.452987234158092,9.93277018645536" style="fill:none;stroke:black;stroke-width:1"/>
<polygon points="13.134839580877577,24.772640823136243 13.185319398301848,24.650099782223666 18.151854229746565,5.3151478595679755" style="fill:none;stroke:black;stroke-width:1"/>
<polygon points="13.185319398301848,24.650099782223666 13.209057924523513,24.517565660431064 18.151854229746565,5.3151478595679755" style="fill:none;stroke:black;stroke-width:1"/>
<polygon points="22.690268762367207,20.731707945440384 10.654918910339417,24.52301968039356 22.727669820588662,20.574269175697346" style="fill:none;stroke:black;stroke-width:1"/>
<polygon points="10.654918910339417,24.52301968039356 22.690268762367207,20.731707945440384 10.751113923156158,24.433779092766216" style="fill:none;stroke:black;stroke-width:1"/>
<polygon points="10.551871611363879,25.164215564204373 22.92361084326231,19.826272733131976 22.88447765563616,19.975478340027976" style="fill:none;stroke:black;stroke-width:1"/>
<polygon points="10.51380090065695,25.025051811967607 10.551871611363879,25.164215564204373 22.88447765563616,19.975478340027976" style="fill:none;stroke:black;stroke-width:1"/>
<polygon points="22.92361084326231,19.826272733131976 10.551871611363879,25.164215564204373 22.962744030888455,19.67706712623598" style="fill:none;stroke:black;stroke-width:1"/>
<polygon points="9.122539640633601,8.21880348731976 9.200633375182468,10.396606645471074 8.959422298110827,8.223185805855936" style="fill:none;stroke:black;stroke-width:1"/>
<polygon points="9.200633375182468,10.396606645471074 9.130195924056752,10.515612434557964 8.959422298110827,8.223185805855936" style="fill:none;stroke:black;stroke-width:1"/>
<polygon points="9.130195924056752,10.515612434557964 9.200633375182468,10.396606645471074 9.452987234158092,9.93277018645536" style="fill:none;stroke:black;stroke-width:1"/>
<polygon points="10.580654616875835,24.631384886731464 10.530753123192854,24.75424137594635 22.727669820588662,20.574269175697346" style="fill:none;stroke:black;stroke-width:1"/>
<polygon points="10.654918910339417,24.52301968039356 10.580654616875835,24.631384886731464 22.727669820588662,20.574269175697346" style="fill:none;stroke:black;stroke-width:1"/>
<polygon points="10.620878623132267,25.29151717641056 23.041050289365167,19.378547745903084 23.001877218514597,19.52786151933998" style="fill:none;stroke:black;stroke-width:1"/>
<polygon points="23.041050289365167,19.378547745903084 10.620878623132267,25.29151717641056 10.714921409692428,25.39757859607681" style="fill:none;stroke:black;stroke-width:1"/>
<polygon points="22.962744030888455,19.67706712623598 10.620878623132267,25.29151717641056 23.001877218514597,19.52786151933998" style="fill:none;stroke:black;stroke-width:1"/>
<polygon points="10.551871611363879,25.164215564204373 10.620878623132267,25.29151717641056 22.962744030888455,19.67706712623598" style="fill:none;stroke:black;stroke-width:1"/>
<polygon points="9.26828199797572,10.279001332441801 9.122539640633601,8.21880348731976 9.289071876479335,8.251108557182913" style="fill:none;stroke:black;stroke-width:1"/>
<polygon points="9.26828199797572,10.279001332441801 9.200633375182468,10.396606645471074 9.122539640633601,8.21880348731976" style="fill:none;stroke:black;stroke-width:1"/>
<polygon points="9.26828199797572,10.279001332441801 9.289071876479335,8.251108557182913 9.452673645448124,8.322528657810594" style="fill:none;stroke:black;stroke-width:1"/>
<polygon points="9.200633375182468,10.396606645471074 9.394609693683789,10.04726490925837 9.452987234158092,9.93277018645536" style="fill:none;stroke:black;stroke-width:1"/>
<polygon points="9.26828199797572,10.279001332441801 9.394609693683789,10.04726490925837 9.200633375182468,10.396606645471074" style="fill:none;stroke:black;stroke-width:1"/>
<polygon points="9.394609693683789,10.04726490925837 9.724977444765372,8.566831002694691 9.452987234158092,9.93277018645536" style="fill:none;stroke:black;stroke-width:1"/>
<polygon points="9.394609693683789,10.04726490925837 9.603134763700998,8.430441399594516 9.724977444765372,8.566831002694691" style="fill:none;stroke:black;stroke-width:1"/>
<polygon points="9.603134763700998,8.430441399594516 9.332991026216245,10.162614689145707 9.452673645448124,8.322528657810594" style="fill:none;stroke:black;stroke-width:1"/>
<polygon points="9.394609693683789,10.04726490925837 9.332991026216245,10.162614689145707 9.603134763700998,8.430441399594516" style="fill:none;stroke:black;stroke-width:1"/>
<polygon points="9.332991026216245,10.162614689145707 9.26828199797572,10.279001332441801 9.452673645448124,8.322528657810594" style="fill:none;stroke:black;stroke-width:1"/>
<polygon points="9.332991026216245,10.162614689145707 9.394609693683789,10.04726490925837 9.26828199797572,10.279001332441801" style="fill:none;stroke:black;stroke-width:1"/>
<polygon points="11.67224637529002,25.43203472831365 25.030357231019842,24.21550143624469 11.533666693259006,25.481258788345972" style="fill:none;stroke:black;stroke-width:1"/>
<polygon points="11.533666693259006,25.481258788345972 25.030357231019842,24.21550143624469 21.068963687716096,27.1903575219102" style="fill:none;stroke:black;stroke-width:1"/>
<polygon points="11.100747398812212,25.565626806917486 25.834303726699936,7.458500247387539 21.862970558955613,4.54103771659062" style="fill:none;stroke:black;stroke-width:1"/>
<polygon points="11.100747398812212,25.565626806917486 21.862970558955613,4.54103771659062 10.95948061502567,25.53688536089269" style="fill:none;stroke:black;stroke-width:1"/>
<polygon points="28.466528738466085,11.636488214463325 11.100747398812212,25.565626806917486 11.24873454873766,25.56413701419477" style="fill:none;stroke:black;stroke-width:1"/>
<polygon points="11.100747398812212,25.565626806917486 28.466528738466085,11.636488214463325 25.834303726699936,7.458500247387539" style="fill:none;stroke:black;stroke-width:1"/>
<polygon points="16.951788521158726,3.2824155253657974 10.829335043304662,25.480121223038395 10.95948061502567,25.53688536089269" style="fill:none;stroke:black;stroke-width:1"/>
<polygon points="21.862970558955613,4.54103771659062 16.951788521158726,3.2824155253657974 10.95948061502567,25.53688536089269" style="fill:none;stroke:black;stroke-width:1"/>
<polygon points="10.829335043304662,25.480121223038395 16.951788521158726,3.2824155253657974 10.714921409692428,25.39757859607681" style="fill:none;stroke:black;stroke-width:1"/>
<polygon points="16.951788521158726,3.2824155253657974 11.757562847201998,3.997926110521811 10.714921409692428,25.39757859607681" style="fill:none;stroke:black;stroke-width:1"/>
<polygon points="19.651318989761943,29.361229472588224 29.354137931034483,16.663103448275862 24.188491333906537,27.22708788917795" style="fill:none;stroke:black;stroke-width:1"/>
<polygon points="29.354137931034483,16.663103448275862 3.0657892050475994,15.20528725480326 4.472164947344717,10.35612245842816" style="fill:none;stroke:black;stroke-width:1"/>
<polygon points="22.663592472723273,18.37878195188174 29.354137931034483,16.663103448275862 26.112559474363962,17.470410430709396" style="fill:none;stroke:black;stroke-width:1"/>
<polygon points="29.354137931034483,16.663103448275862 3.550075092672518,20.321954317632702 3.0657892050475994,15.20528725480326" style="fill:none;stroke:black;stroke-width:1"/>
<polygon points="29.354137931034483,16.663103448275862 21.40178176845847,11.819490312745073 23.78641708764994,16.15061817579594" style="fill:none;stroke:black;stroke-width:1"/>
<polygon points="29.354137931034483,16.663103448275862 26.914245607841515,11.055166239997396 23.771998734309527,7.2463462995986685" style="fill:none;stroke:black;stroke-width:1"/>
<polygon points="29.354137931034483,16.663103448275862 12.299736466896574,5.206970213848987 8.11706594425727,7.874227515265564" style="fill:none;stroke:black;stroke-width:1"/>
<polygon points="19.302781887053097,5.023191015447855 29.354137931034483,16.663103448275862 23.771998734309527,7.2463462995986685" style="fill:none;stroke:black;stroke-width:1"/>
<polygon points="29.354137931034483,16.663103448275862 16.951788521158726,3.2824155253657974 21.862970558955613,4.54103771659062" style="fill:none;stroke:black;stroke-width:1"/>
<polygon points="27.828305499340075,15.390158259331637 29.354137931034483,16.663103448275862 23.78641708764994,16.15061817579594" style="fill:none;stroke:black;stroke-width:1"/>
<polygon points="16.969578357767304,9.644017505211886 29.354137931034483,16.663103448275862 12.190660470500731,11.079902638796954" style="fill:none;stroke:black;stroke-width:1"/>
<polygon points="5.378696074460123,12.011227048373943 29.354137931034483,16.663103448275862 8.11706594425727,7.874227515265564" style="fill:none;stroke:black;stroke-width:1"/>
<polygon points="29.354137931034483,16.663103448275862 9.687273073256973,15.295472290966424 12.190660470500731,11.079902638796954" style="fill:none;stroke:black;stroke-width:1"/>
<polygon points="29.354137931034483,16.663103448275862 14.251631152093076,27.99714424750177 20.93464125875069,13.384146252267064" style="fill:none;stroke:black;stroke-width:1"/>
<polygon points="29.354137931034483,16.663103448275862 9.607172957461904,27.976465699950683 5.866409197148353,24.738089839232458" style="fill:none;stroke:black;stroke-width:1"/>
<polygon points="29.354137931034483,16.663103448275862 14.675179053624719,22.97796013911011 10.619827288071084,20.242651789443137" style="fill:none;stroke:black;stroke-width:1"/>
<polygon points="29.354137931034483,16.663103448275862 27.46354641020186,19.86186939102171 26.112559474363962,17.470410430709396" style="fill:none;stroke:black;stroke-width:1"/>
<polygon points="25.030357231019842,24.21550143624469 29.354137931034483,16.663103448275862 21.068963687716096,27.1903575219102" style="fill:none;stroke:black;stroke-width:1"/>
<polygon points="29.354137931034483,16.663103448275862 27.519614850920668,23.626928114475326 24.188491333906537,27.22708788917795" style="fill:none;stroke:black;stroke-width:1"/>
<polygon points="21.40178176845847,11.819490312745073 29.354137931034483,16.663103448275862 16.969578357767304,9.644017505211886" style="fill:none;stroke:black;stroke-width:1"/>
<polygon points="29.354137931034483,16.663103448275862 5.378696074460123,12.011227048373943 5.508713621815188,15.665370720952621" style="fill:none;stroke:black;stroke-width:1"/>
<polygon points="9.687273073256973,15.295472290966424 29.354137931034483,16.663103448275862 5.508713621815188,15.665370720952621" style="fill:none;stroke:black;stroke-width:1"/>
<polygon points="7.476891808805514,6.488019335685392 29.354137931034483,16.663103448275862 4.472164947344717,10.35612245842816" style="fill:none;stroke:black;stroke-width:1"/>
<polygon points="29.354137931034483,16.663103448275862 21.77581503641307,17.353573118195897 12.299736466896574,5.206970213848987" style="fill:none;stroke:black;stroke-width:1"/>
<polygon points="3.550075092672518,20.321954317632702 29.354137931034483,16.663103448275862 5.866409197148353,24.738089839232458" style="fill:none;stroke:black;stroke-width:1"/>
<polygon points="29.354137931034483,16.663103448275862 10.970334566522311,17.379264286761085 13.920132905707598,21.234066982901894" style="fill:none;stroke:black;stroke-width:1"/>
<polygon points="25.834303726699936,7.458500247387539 29.354137931034483,16.663103448275862 21.862970558955613,4.54103771659062" style="fill:none;stroke:black;stroke-width:1"/>
<polygon points="28.466528738466085,11.636488214463325 29.354137931034483,16.663103448275862 25.834303726699936,7.458500247387539" style="fill:none;stroke:black;stroke-width:1"/>
<polygon points="14.675179053624719,22.97796013911011 29.354137931034483,16.663103448275862 19.635174863099646,22.200689582966714" style="fill:none;stroke:black;stroke-width:1"/>
<polygon points="29.354137931034483,16.663103448275862 22.663592472723273,18.37878195188174 19.635174863099646,22.200689582966714" style="fill:none;stroke:black;stroke-width:1"/>
<polygon points="29.354137931034483,16.663103448275862 25.030357231019842,24.21550143624469 27.46354641020186,19.86186939102171" style="fill:none;stroke:black;stroke-width:1"/>
<polygon points="26.914245607841515,11.055166239997396 29.354137931034483,16.663103448275862 27.828305499340075,15.390158259331637" style="fill:none;stroke:black;stroke-width:1"/>
<polygon points="27.519614850920668,23.626928114475326 29.354137931034483,16.663103448275862 29.32184785965988,18.957586750445255" style="fill:none;stroke:black;stroke-width:1"/>
<polygon points="29.354137931034483,16.663103448275862 19.302781887053097,5.023191015447855 29.32184785965988,18.957586750445255" style="fill:none;stroke:black;stroke-width:1"/>
<polygon points="18.881497018902472,21.21127089963419 29.354137931034483,16.663103448275862 13.920132905707598,21.234066982901894" style="fill:none;stroke:black;stroke-width:1"/>
<polygon points="16.812136859061262,10.851272996277206 29.354137931034483,16.663103448275862 20.93464125875069,13.384146252267064" style="fill:none;stroke:black;stroke-width:1"/>
<polygon points="14.251631152093076,27.99714424750177 29.354137931034483,16.663103448275862 9.589783430750423,26.109563542575167" style="fill:none;stroke:black;stroke-width:1"/>
<polygon points="8.293827094640337,17.12924533887175 29.354137931034483,16.663103448275862 10.619827288071084,20.242651789443137" style="fill:none;stroke:black;stroke-width:1"/>
<polygon points="9.607172957461904,27.976465699950683 29.354137931034483,16.663103448275862 14.373748439457719,29.63864832856213" style="fill:none;stroke:black;stroke-width:1"/>
<polygon points="29.354137931034483,16.663103448275862 19.651318989761943,29.361229472588224 14.373748439457719,29.63864832856213" style="fill:none;stroke:black;stroke-width:1"/>
<polygon points="29.354137931034483,16.663103448275862 6.162938640960202,22.545754745860485 9.589783430750423,26.109563542575167" style="fill:none;stroke:black;stroke-width:1"/>
<polygon points="16.951788521158726,3.2824155253657974 29.354137931034483,16.663103448275862 11.757562847201998,3.997926110521811" style="fill:none;stroke:black;stroke-width:1"/>
<polygon points="29.354137931034483,16.663103448275862 7.476891808805514,6.488019335685392 11.757562847201998,3.997926110521811" style="fill:none;stroke:black;stroke-width:1"/>
<polygon points="21.77581503641307,17.353573118195897 29.354137931034483,16.663103448275862 18.881497018902472,21.21127089963419" style="fill:none;stroke:black;stroke-width:1"/>
<polygon points="29.354137931034483,16.663103448275862 16.812136859061262,10.851272996277206 12.26692912265343,12.644486184981814" style="fill:none;stroke:black;stroke-width:1"/>
<polygon points="10.970334566522311,17.379264286761085 29.354137931034483,16.663103448275862 12.26692912265343,12.644486184981814" style="fill:none;stroke:black;stroke-width:1"/>
<polygon points="29.354137931034483,16.663103448275862 8.293827094640337,17.12924533887175 4.4661536291309165,17.801754008272397" style="fill:none;stroke:black;stroke-width:1"/>
<polygon points="6.162938640960202,22.545754745860485 29.354137931034483,16.663103448275862 4.4661536291309165,17.801754008272397" style="fill:none;stroke:black;stroke-width:1"/>
<polygon points="29.354137931034483,16.663103448275862 11.393383234597426,25.531101438668774 11.533666693259006,25.481258788345972" style="fill:none;stroke:black;stroke-width:1"/>
<polygon points="29.354137931034483,16.663103448275862 11.533666693259006,25.481258788345972 21.068963687716096,27.1903575219102" style="fill:none;stroke:black;stroke-width:1"/>
<polygon points="11.393383234597426,25.531101438668774 29.354137931034483,16.663103448275862 11.24873454873766,25.56413701419477" style="fill:none;stroke:black;stroke-width:1"/>
<polygon points="29.354137931034483,16.663103448275862 28.466528738466085,11.636488214463325 11.24873454873766,25.56413701419477" style="fill:none;stroke:black;stroke-width:1"/>
<polygon points="10.620878623132267,25.29151717641056 12.33753683667991,25.198193727168224 12.207751951737716,25.242582806585876" style="fill:none;stroke:black;stroke-width:1"/>
<polygon points="12.076480480064593,25.288367883864186 10.620878623132267,25.29151717641056 12.207751951737716,25.242582806585876" style="fill:none;stroke:black;stroke-width:1"/>
<polygon points="10.620878623132267,25.29151717641056 11.905247448763106,24.01879992904736 12.04185189781293,23.970083022646165" style="fill:none;stroke:black;stroke-width:1"/>
<polygon points="10.620878623132267,25.29151717641056 10.829335043304662,25.480121223038395 10.714921409692428,25.39757859607681" style="fill:none;stroke:black;stroke-width:1"/>
<polygon points="10.620878623132267,25.29151717641056 11.943559178915011,25.335351632421105 11.808850824339844,25.383317821912456" style="fill:none;stroke:black;stroke-width:1"/>
<polygon points="11.67224637529002,25.43203472831365 10.620878623132267,25.29151717641056 11.808850824339844,25.383317821912456" style="fill:none;stroke:black;stroke-width:1"/>
<polygon points="10.620878623132267,25.29151717641056 12.466021821997495,25.1553759564731 12.33753683667991,25.198193727168224" style="fill:none;stroke:black;stroke-width:1"/>
<polygon points="10.620878623132267,25.29151717641056 11.393383234597426,25.531101438668774 11.24873454873766,25.56413701419477" style="fill:none;stroke:black;stroke-width:1"/>
<polygon points="10.829335043304662,25.480121223038395 10.620878623132267,25.29151717641056 10.95948061502567,25.53688536089269" style="fill:none;stroke:black;stroke-width:1"/>
<polygon points="11.100747398812212,25.565626806917486 10.620878623132267,25.29151717641056 11.24873454873766,25.56413701419477" style="fill:none;stroke:black;stroke-width:1"/>
<polygon points="10.620878623132267,25.29151717641056 11.37656143642304,24.203924023791593 11.506346321365234,24.15953494437394" style="fill:none;stroke:black;stroke-width:1"/>
<polygon points="11.943559178915011,25.335351632421105 10.620878623132267,25.29151717641056 12.076480480064593,25.288367883864186" style="fill:none;stroke:black;stroke-width:1"/>
<polygon points="11.393383234597426,25.531101438668774 10.620878623132267,25.29151717641056 11.533666693259006,25.481258788345972" style="fill:none;stroke:black;stroke-width:1"/>
<polygon points="10.620878623132267,25.29151717641056 11.67224637529002,25.43203472831365 11.533666693259006,25.481258788345972" style="fill:none;stroke:black;stroke-width:1"/>
<polygon points="12.96340247324293,24.96930509301095 10.620878623132267,25.29151717641056 13.06005657904879,24.880587038676527" style="fill:none;stroke:black;stroke-width:1"/>
<polygon points="10.620878623132267,25.29151717641056 12.847307324481468,25.03412955276727 12.719938075684647,25.07502930835776" style="fill:none;stroke:black;stroke-width:1"/>
<polygon points="12.753886768084472,23.868791857601572 10.620878623132267,25.29151717641056 12.613401142691618,23.838692912100196" style="fill:none;stroke:black;stroke-width:1"/>
<polygon points="10.620878623132267,25.29151717641056 11.100747398812212,25.565626806917486 10.95948061502567,25.53688536089269" style="fill:none;stroke:black;stroke-width:1"/>
<polygon points="10.620878623132267,25.29151717641056 10.866809594304588,24.368328557221652 10.994160197418301,24.327088442602058" style="fill:none;stroke:black;stroke-width:1"/>
<polygon points="10.620878623132267,25.29151717641056 13.134839580877577,24.772640823136243 13.06005657904879,24.880587038676527" style="fill:none;stroke:black;stroke-width:1"/>
<polygon points="10.620878623132267,25.29151717641056 12.999512191609735,24.00952548282814 13.09498333528715,24.115183104810605" style="fill:none;stroke:black;stroke-width:1"/>
<polygon points="10.620878623132267,25.29151717641056 10.654918910339417,24.52301968039356 10.751113923156158,24.433779092766216" style="fill:none;stroke:black;stroke-width:1"/>
<polygon points="11.120684178112555,24.287837726074656 10.620878623132267,25.29151717641056 10.994160197418301,24.327088442602058" style="fill:none;stroke:black;stroke-width:1"/>
<polygon points="10.620878623132267,25.29151717641056 11.248076451105455,24.246741794486717 11.37656143642304,24.203924023791593" style="fill:none;stroke:black;stroke-width:1"/>
<polygon points="10.620878623132267,25.29151717641056 13.185319398301848,24.650099782223666 13.134839580877577,24.772640823136243" style="fill:none;stroke:black;stroke-width:1"/>
<polygon points="12.593414094990395,25.114280024885154 10.620878623132267,25.29151717641056 12.719938075684647,25.07502930835776" style="fill:none;stroke:black;stroke-width:1"/>
<polygon points="13.165736189874652,24.241020661661643 10.620878623132267,25.29151717641056 13.09498333528715,24.115183104810605" style="fill:none;stroke:black;stroke-width:1"/>
<polygon points="12.999512191609735,24.00952548282814 10.620878623132267,25.29151717641056 12.884197196316334,23.926562975187938" style="fill:none;stroke:black;stroke-width:1"/>
<polygon points="10.620878623132267,25.29151717641056 12.753886768084472,23.868791857601572 12.884197196316334,23.926562975187938" style="fill:none;stroke:black;stroke-width:1"/>
<polygon points="11.637617793038357,24.113749867095628 10.620878623132267,25.29151717641056 11.506346321365234,24.15953494437394" style="fill:none;stroke:black;stroke-width:1"/>
<polygon points="10.620878623132267,25.29151717641056 12.46753065337271,23.838735081460843 12.613401142691618,23.838692912100196" style="fill:none;stroke:black;stroke-width:1"/>
<polygon points="11.248076451105455,24.246741794486717 10.620878623132267,25.29151717641056 11.120684178112555,24.287837726074656" style="fill:none;stroke:black;stroke-width:1"/>
<polygon points="10.866809594304588,24.368328557221652 10.620878623132267,25.29151717641056 10.751113923156158,24.433779092766216" style="fill:none;stroke:black;stroke-width:1"/>
<polygon points="12.180431579843946,23.920858962613845 10.620878623132267,25.29151717641056 12.04185189781293,23.970083022646165" style="fill:none;stroke:black;stroke-width:1"/>
<polygon points="12.847307324481468,25.03412955276727 10.620878623132267,25.29151717641056 12.96340247324293,24.96930509301095" style="fill:none;stroke:black;stroke-width:1"/>
<polygon points="12.466021821997495,25.1553759564731 10.620878623132267,25.29151717641056 12.593414094990395,25.114280024885154" style="fill:none;stroke:black;stroke-width:1"/>
<polygon points="10.620878623132267,25.29151717641056 13.165736189874652,24.241020661661643 13.203607114448598,24.379609615321094" style="fill:none;stroke:black;stroke-width:1"/>
<polygon points="13.209057924523513,24.517565660431064 10.620878623132267,25.29151717641056 13.203607114448598,24.379609615321094" style="fill:none;stroke:black;stroke-width:1"/>
<polygon points="10.620878623132267,25.29151717641056 11.637617793038357,24.113749867095628 11.770539094187939,24.06676611853871" style="fill:none;stroke:black;stroke-width:1"/>
<polygon points="11.905247448763106,24.01879992904736 10.620878623132267,25.29151717641056 11.770539094187939,24.06676611853871" style="fill:none;stroke:black;stroke-width:1"/>
<polygon points="12.46753065337271,23.838735081460843 10.620878623132267,25.29151717641056 12.321034482758622,23.871379310344828" style="fill:none;stroke:black;stroke-width:1"/>
<polygon points="10.620878623132267,25.29151717641056 12.180431579843946,23.920858962613845 12.321034482758622,23.871379310344828" style="fill:none;stroke:black;stroke-width:1"/>
<polygon points="10.530753123192854,24.75424137594635 10.620878623132267,25.29151717641056 10.507652536088568,24.886987403545948" style="fill:none;stroke:black;stroke-width:1"/>
<polygon points="10.620878623132267,25.29151717641056 10.51380090065695,25.025051811967607 10.507652536088568,24.886987403545948" style="fill:none;stroke:black;stroke-width:1"/>
<polygon points="13.185319398301848,24.650099782223666 10.620878623132267,25.29151717641056 13.209057924523513,24.517565660431064" style="fill:none;stroke:black;stroke-width:1"/>
<polygon points="10.580654616875835,24.631384886731464 10.620878623132267,25.29151717641056 10.530753123192854,24.75424137594635" style="fill:none;stroke:black;stroke-width:1"/>
<polygon points="10.620878623132267,25.29151717641056 10.551871611363879,25.164215564204373 10.51380090065695,25.025051811967607" style="fill:none;stroke:black;stroke-width:1"/>
<polygon points="10.620878623132267,25.29151717641056 10.580654616875835,24.631384886731464 10.654918910339417,24.52301968039356" style="fill:none;stroke:black;stroke-width:1"/>
</svg>
