<?xml version="1.0" encoding="UTF-8" standalone="no"?>
<svg xmlns="http://www.w3.org/2000/svg" version="1.1" width="800" height="800">
<polygon points="13.640749432970603,29.572315490874804 16.475192728478113,28.38563453557772 17.760269327692797,29.78429050099558" style="fill:none;stroke:black;stroke-width:1"/>
<polygon points="13.557477296947317,16.099675984338315 10.254760418797066,15.543025202780035 11.289652416247874,12.72181572719966" style="fill:none;stroke:black;stroke-width:1"/>
<polygon points="24.3416747890239,6.816570746701784 23.365208034675202,4.0792059504488 25.928070562933712,6.741074762828418" style="fill:none;stroke:black;stroke-width:1"/>
<polygon points="18.141702148121873,3.7736967975524927 15.554107046041826,4.426676746180472 16.56224870873214,1.4780944653243926" style="fill:none;stroke:black;stroke-width:1"/>
<polygon points="8.731352338158036,10.75641726155444 8.847241379310345,12.463793103448275 6.3057550240796605,9.801096970706922" style="fill:none;stroke:black;stroke-width:1"/>
<polygon points="10.254760418797066,15.543025202780035 8.847241379310345,12.463793103448275 11.289652416247874,12.72181572719966" style="fill:none;stroke:black;stroke-width:1"/>
<polygon points="8.847241379310345,12.463793103448275 8.731352338158036,10.75641726155444 11.289652416247874,12.72181572719966" style="fill:none;stroke:black;stroke-width:1"/>
<polygon points="6.601981992828789,6.013874243003294 7.617282622922429,7.31730318051728 6.3057550240796605,9.801096970706922" style="fill:none;stroke:black;stroke-width:1"/>
<polygon points="7.617282622922429,7.31730318051728 8.731352338158036,10.75641726155444 6.3057550240796605,9.801096970706922" style="fill:none;stroke:black;stroke-width:1"/>
<polygon points="9.564409840901012,3.82722685912214 7.617282622922429,7.31730318051728 6.601981992828789,6.013874243003294" style="fill:none;stroke:black;stroke-width:1"/>
<polygon points="21.009683286654308,28.085330096207638 19.942740569357195,27.026336373833725 22.83467375665166,23.75046630145373" style="fill:none;stroke:black;stroke-width:1"/>
<polygon points="19.942740569357195,27.026336373833725 21.009683286654308,28.085330096207638 17.760269327692797,29.78429050099558" style="fill:none;stroke:black;stroke-width:1"/>
<polygon points="16.475192728478113,28.38563453557772 19.942740569357195,27.026336373833725 17.760269327692797,29.78429050099558" style="fill:none;stroke:black;stroke-width:1"/>
<polygon points="21.36985149366894,23.02303232569762 22.862450371143577,20.81198590328062 22.83467375665166,23.75046630145373" style="fill:none;stroke:black;stroke-width:1"/>
<polygon points="19.942740569357195,27.026336373833725 21.36985149366894,23.02303232569762 22.83467375665166,23.75046630145373" style="fill:none;stroke:black;stroke-width:1"/>
<polygon points="15.152741892373381,12.727605595752117 13.557477296947317,16.099675984338315 11.289652416247874,12.72181572719966" style="fill:none;stroke:black;stroke-width:1"/>
<polygon points="13.557477296947317,16.099675984338315 15.152741892373381,12.727605595752117 17.423428674296968,16.094831627895424" style="fill:none;stroke:black;stroke-width:1"/>
<polygon points="24.3416747890239,6.816570746701784 21.11419702804731,5.229227362092039 23.365208034675202,4.0792059504488" style="fill:none;stroke:black;stroke-width:1"/>
<polygon points="16.56224870873214,1.4780944653243926 14.505443642429894,2.924554894002413 12.76699766873587,2.0467095585450377" style="fill:none;stroke:black;stroke-width:1"/>
<polygon points="11.494729548416133,5.164493037555706 7.617282622922429,7.31730318051728 9.564409840901012,3.82722685912214" style="fill:none;stroke:black;stroke-width:1"/>
<polygon points="7.617282622922429,7.31730318051728 11.494729548416133,5.164493037555706 8.731352338158036,10.75641726155444" style="fill:none;stroke:black;stroke-width:1"/>
<polygon points="11.494729548416133,5.164493037555706 9.564409840901012,3.82722685912214 12.76699766873587,2.0467095585450377" style="fill:none;stroke:black;stroke-width:1"/>
<polygon points="25.583993652088356,10.538266839639444 24.3416747890239,6.816570746701784 25.928070562933712,6.741074762828418" style="fill:none;stroke:black;stroke-width:1"/>
<polygon points="22.862450371143577,20.81198590328062 25.583993652088356,10.538266839639444 22.83467375665166,23.75046630145373" style="fill:none;stroke:black;stroke-width:1"/>
<polygon points="25.583993652088356,10.538266839639444 22.862450371143577,20.81198590328062 23.3237642269725,17.173801177357852" style="fill:none;stroke:black;stroke-width:1"/>
<polygon points="8.851299051898328,16.33102807540117 8.847241379310345,12.463793103448275 10.254760418797066,15.543025202780035" style="fill:none;stroke:black;stroke-width:1"/>
<polygon points="8.847241379310345,12.463793103448275 8.851299051898328,16.33102807540117 6.3057550240796605,9.801096970706922" style="fill:none;stroke:black;stroke-width:1"/>
<polygon points="21.290524167212936,16.090773477263088 19.666680159379382,17.535299252427883 17.423428674296968,16.094831627895424" style="fill:none;stroke:black;stroke-width:1"/>
<polygon points="21.36985149366894,23.02303232569762 21.37511066921193,19.68284075486536 22.862450371143577,20.81198590328062" style="fill:none;stroke:black;stroke-width:1"/>
<polygon points="22.862450371143577,20.81198590328062 21.37511066921193,19.68284075486536 23.3237642269725,17.173801177357852" style="fill:none;stroke:black;stroke-width:1"/>
<polygon points="21.37511066921193,19.68284075486536 21.290524167212936,16.090773477263088 23.3237642269725,17.173801177357852" style="fill:none;stroke:black;stroke-width:1"/>
<polygon points="21.290524167212936,16.090773477263088 21.37511066921193,19.68284075486536 19.666680159379382,17.535299252427883" style="fill:none;stroke:black;stroke-width:1"/>
<polygon points="17.987443407701775,25.755033548298034 19.942740569357195,27.026336373833725 16.475192728478113,28.38563453557772" style="fill:none;stroke:black;stroke-width:1"/>
<polygon points="19.942740569357195,27.026336373833725 17.987443407701775,25.755033548298034 18.183277190088294,25.67245201787073" style="fill:none;stroke:black;stroke-width:1"/>
<polygon points="15.862180312830658,25.830375984129 16.076097220317877,25.825171236034162 16.475192728478113,28.38563453557772" style="fill:none;stroke:black;stroke-width:1"/>
<polygon points="12.479496970235699,11.32916727087542 15.152741892373381,12.727605595752117 11.289652416247874,12.72181572719966" style="fill:none;stroke:black;stroke-width:1"/>
<polygon points="8.731352338158036,10.75641726155444 12.479496970235699,11.32916727087542 11.289652416247874,12.72181572719966" style="fill:none;stroke:black;stroke-width:1"/>
<polygon points="11.494729548416133,5.164493037555706 12.479496970235699,11.32916727087542 8.731352338158036,10.75641726155444" style="fill:none;stroke:black;stroke-width:1"/>
<polygon points="15.152741892373381,12.727605595752117 19.017153713565293,12.733239599900386 17.423428674296968,16.094831627895424" style="fill:none;stroke:black;stroke-width:1"/>
<polygon points="19.017153713565293,12.733239599900386 21.290524167212936,16.090773477263088 17.423428674296968,16.094831627895424" style="fill:none;stroke:black;stroke-width:1"/>
<polygon points="21.290524167212936,16.090773477263088 19.017153713565293,12.733239599900386 21.875375799945303,12.804721222112484" style="fill:none;stroke:black;stroke-width:1"/>
<polygon points="21.11419702804731,5.229227362092039 19.821308540519137,3.3725906034131388 23.365208034675202,4.0792059504488" style="fill:none;stroke:black;stroke-width:1"/>
<polygon points="19.821308540519137,3.3725906034131388 21.11419702804731,5.229227362092039 18.141702148121873,3.7736967975524927" style="fill:none;stroke:black;stroke-width:1"/>
<polygon points="23.365208034675202,4.0792059504488 19.821308540519137,3.3725906034131388 16.56224870873214,1.4780944653243926" style="fill:none;stroke:black;stroke-width:1"/>
<polygon points="19.821308540519137,3.3725906034131388 18.141702148121873,3.7736967975524927 16.56224870873214,1.4780944653243926" style="fill:none;stroke:black;stroke-width:1"/>
<polygon points="23.813233718097614,10.408293782355628 21.11419702804731,5.229227362092039 24.3416747890239,6.816570746701784" style="fill:none;stroke:black;stroke-width:1"/>
<polygon points="25.583993652088356,10.538266839639444 23.813233718097614,10.408293782355628 24.3416747890239,6.816570746701784" style="fill:none;stroke:black;stroke-width:1"/>
<polygon points="23.377132324907556,13.3044667911188 25.583993652088356,10.538266839639444 23.3237642269725,17.173801177357852" style="fill:none;stroke:black;stroke-width:1"/>
<polygon points="21.290524167212936,16.090773477263088 23.377132324907556,13.3044667911188 23.3237642269725,17.173801177357852" style="fill:none;stroke:black;stroke-width:1"/>
<polygon points="23.377132324907556,13.3044667911188 21.290524167212936,16.090773477263088 21.875375799945303,12.804721222112484" style="fill:none;stroke:black;stroke-width:1"/>
<polygon points="23.813233718097614,10.408293782355628 23.377132324907556,13.3044667911188 21.875375799945303,12.804721222112484" style="fill:none;stroke:black;stroke-width:1"/>
<polygon points="23.377132324907556,13.3044667911188 23.813233718097614,10.408293782355628 25.583993652088356,10.538266839639444" style="fill:none;stroke:black;stroke-width:1"/>
<polygon points="17.725970767114518,19.061823235288664 15.809348943751582,17.537541673909388 17.423428674296968,16.094831627895424" style="fill:none;stroke:black;stroke-width:1"/>
<polygon points="14.048347558320248,19.341140572708646 15.809348943751582,17.537541673909388 14.153385444563725,19.4461725287044" style="fill:none;stroke:black;stroke-width:1"/>
<polygon points="15.809348943751582,17.537541673909388 13.557477296947317,16.099675984338315 17.423428674296968,16.094831627895424" style="fill:none;stroke:black;stroke-width:1"/>
<polygon points="17.987443407701775,25.755033548298034 17.80551724137931,24.280344827586205 18.183277190088294,25.67245201787073" style="fill:none;stroke:black;stroke-width:1"/>
<polygon points="18.375202944539897,24.54875300278873 19.117082977488863,21.525906325940365 21.36985149366894,23.02303232569762" style="fill:none;stroke:black;stroke-width:1"/>
<polygon points="18.539627450118562,25.161344719586165 21.36985149366894,23.02303232569762 19.942740569357195,27.026336373833725" style="fill:none;stroke:black;stroke-width:1"/>
<polygon points="18.539627450118562,25.161344719586165 18.54642441538542,24.939076748157976 21.36985149366894,23.02303232569762" style="fill:none;stroke:black;stroke-width:1"/>
<polygon points="18.46987626575557,25.365575294091087 18.539627450118562,25.161344719586165 19.942740569357195,27.026336373833725" style="fill:none;stroke:black;stroke-width:1"/>
<polygon points="10.474638199610219,27.124527984955904 12.709736861049263,27.392680873647066 13.640749432970603,29.572315490874804" style="fill:none;stroke:black;stroke-width:1"/>
<polygon points="12.709736861049263,27.392680873647066 16.475192728478113,28.38563453557772 13.640749432970603,29.572315490874804" style="fill:none;stroke:black;stroke-width:1"/>
<polygon points="12.479496970235699,11.32916727087542 16.33885604223694,11.324291993351133 15.152741892373381,12.727605595752117" style="fill:none;stroke:black;stroke-width:1"/>
<polygon points="16.33885604223694,11.324291993351133 19.017153713565293,12.733239599900386 15.152741892373381,12.727605595752117" style="fill:none;stroke:black;stroke-width:1"/>
<polygon points="15.816509899404775,4.569855609168135 15.554107046041826,4.426676746180472 18.141702148121873,3.7736967975524927" style="fill:none;stroke:black;stroke-width:1"/>
<polygon points="16.067251139933166,4.729116681551216 15.816509899404775,4.569855609168135 18.141702148121873,3.7736967975524927" style="fill:none;stroke:black;stroke-width:1"/>
<polygon points="16.531187078116226,5.092780358297486 16.305690341534486,4.903683689278177 18.141702148121873,3.7736967975524927" style="fill:none;stroke:black;stroke-width:1"/>
<polygon points="16.305690341534486,4.903683689278177 16.067251139933166,4.729116681551216 18.141702148121873,3.7736967975524927" style="fill:none;stroke:black;stroke-width:1"/>
<polygon points="21.37511066921193,19.68284075486536 19.48785846993336,18.919314149929633 19.666680159379382,17.535299252427883" style="fill:none;stroke:black;stroke-width:1"/>
<polygon points="19.391253120317888,19.15847443245651 19.48785846993336,18.919314149929633 21.37511066921193,19.68284075486536" style="fill:none;stroke:black;stroke-width:1"/>
<polygon points="12.709736861049263,27.392680873647066 14.998168207669773,25.84220028280813 16.475192728478113,28.38563453557772" style="fill:none;stroke:black;stroke-width:1"/>
<polygon points="10.812767750742879,20.26558780581462 10.83323332016843,23.419622577202755 9.372118034779545,23.183377712615602" style="fill:none;stroke:black;stroke-width:1"/>
<polygon points="10.83323332016843,23.419622577202755 10.474638199610219,27.124527984955904 9.372118034779545,23.183377712615602" style="fill:none;stroke:black;stroke-width:1"/>
<polygon points="11.95143774134171,17.540967225368 8.851299051898328,16.33102807540117 10.254760418797066,15.543025202780035" style="fill:none;stroke:black;stroke-width:1"/>
<polygon points="13.557477296947317,16.099675984338315 11.95143774134171,17.540967225368 10.254760418797066,15.543025202780035" style="fill:none;stroke:black;stroke-width:1"/>
<polygon points="18.54642441538542,24.939076748157976 18.488492396709503,24.729630697376436 21.36985149366894,23.02303232569762" style="fill:none;stroke:black;stroke-width:1"/>
<polygon points="18.488492396709503,24.729630697376436 18.375202944539897,24.54875300278873 21.36985149366894,23.02303232569762" style="fill:none;stroke:black;stroke-width:1"/>
<polygon points="18.488492396709503,24.729630697376436 18.46987626575557,25.365575294091087 18.375202944539897,24.54875300278873" style="fill:none;stroke:black;stroke-width:1"/>
<polygon points="18.539627450118562,25.161344719586165 18.488492396709503,24.729630697376436 18.54642441538542,24.939076748157976" style="fill:none;stroke:black;stroke-width:1"/>
<polygon points="18.488492396709503,24.729630697376436 18.539627450118562,25.161344719586165 18.46987626575557,25.365575294091087" style="fill:none;stroke:black;stroke-width:1"/>
<polygon points="18.375202944539897,24.54875300278873 18.21675195132063,24.40668652254579 19.117082977488863,21.525906325940365" style="fill:none;stroke:black;stroke-width:1"/>
<polygon points="18.21675195132063,24.40668652254579 17.80551724137931,24.280344827586205 18.02333530949574,24.31367411479856" style="fill:none;stroke:black;stroke-width:1"/>
<polygon points="17.80551724137931,24.280344827586205 18.21675195132063,24.40668652254579 18.183277190088294,25.67245201787073" style="fill:none;stroke:black;stroke-width:1"/>
<polygon points="18.347453070948873,25.53928359536623 19.942740569357195,27.026336373833725 18.183277190088294,25.67245201787073" style="fill:none;stroke:black;stroke-width:1"/>
<polygon points="18.347453070948873,25.53928359536623 18.46987626575557,25.365575294091087 19.942740569357195,27.026336373833725" style="fill:none;stroke:black;stroke-width:1"/>
<polygon points="18.46987626575557,25.365575294091087 18.347453070948873,25.53928359536623 18.375202944539897,24.54875300278873" style="fill:none;stroke:black;stroke-width:1"/>
<polygon points="18.21675195132063,24.40668652254579 18.347453070948873,25.53928359536623 18.183277190088294,25.67245201787073" style="fill:none;stroke:black;stroke-width:1"/>
<polygon points="18.347453070948873,25.53928359536623 18.21675195132063,24.40668652254579 18.375202944539897,24.54875300278873" style="fill:none;stroke:black;stroke-width:1"/>
<polygon points="23.813233718097614,10.408293782355628 18.020429330482532,8.264637624417823 21.11419702804731,5.229227362092039" style="fill:none;stroke:black;stroke-width:1"/>
<polygon points="16.565360586997702,8.391353301564132 18.020429330482532,8.264637624417823 17.99633401237957,8.576312323924126" style="fill:none;stroke:black;stroke-width:1"/>
<polygon points="20.198215114238206,11.319416715826847 23.813233718097614,10.408293782355628 21.875375799945303,12.804721222112484" style="fill:none;stroke:black;stroke-width:1"/>
<polygon points="19.017153713565293,12.733239599900386 20.198215114238206,11.319416715826847 21.875375799945303,12.804721222112484" style="fill:none;stroke:black;stroke-width:1"/>
<polygon points="20.198215114238206,11.319416715826847 18.020429330482532,8.264637624417823 23.813233718097614,10.408293782355628" style="fill:none;stroke:black;stroke-width:1"/>
<polygon points="18.020429330482532,8.264637624417823 20.198215114238206,11.319416715826847 17.99633401237957,8.576312323924126" style="fill:none;stroke:black;stroke-width:1"/>
<polygon points="16.33885604223694,11.324291993351133 20.198215114238206,11.319416715826847 19.017153713565293,12.733239599900386" style="fill:none;stroke:black;stroke-width:1"/>
<polygon points="15.161151478333126,5.924288013883517 15.816509899404775,4.569855609168135 16.067251139933166,4.729116681551216" style="fill:none;stroke:black;stroke-width:1"/>
<polygon points="16.743100923585864,5.295630414557611 16.531187078116226,5.092780358297486 18.141702148121873,3.7736967975524927" style="fill:none;stroke:black;stroke-width:1"/>
<polygon points="21.11419702804731,5.229227362092039 17.446593544709117,6.231754796309358 18.141702148121873,3.7736967975524927" style="fill:none;stroke:black;stroke-width:1"/>
<polygon points="17.58417122877364,6.494821203439142 17.446593544709117,6.231754796309358 21.11419702804731,5.229227362092039" style="fill:none;stroke:black;stroke-width:1"/>
<polygon points="19.778377005501426,19.967906787658215 19.6228555725607,19.87486793029544 21.37511066921193,19.68284075486536" style="fill:none;stroke:black;stroke-width:1"/>
<polygon points="15.809348943751582,17.537541673909388 14.244548521318528,19.564233798066326 14.153385444563725,19.4461725287044" style="fill:none;stroke:black;stroke-width:1"/>
<polygon points="14.097674522128752,25.39272279931661 12.709736861049263,27.392680873647066 10.474638199610219,27.124527984955904" style="fill:none;stroke:black;stroke-width:1"/>
<polygon points="10.83323332016843,23.419622577202755 14.097674522128752,25.39272279931661 10.474638199610219,27.124527984955904" style="fill:none;stroke:black;stroke-width:1"/>
<polygon points="11.95143774134171,17.540967225368 9.367802849584429,19.968236091212336 8.851299051898328,16.33102807540117" style="fill:none;stroke:black;stroke-width:1"/>
<polygon points="9.367802849584429,19.968236091212336 11.95143774134171,17.540967225368 10.812767750742879,20.26558780581462" style="fill:none;stroke:black;stroke-width:1"/>
<polygon points="9.367802849584429,19.968236091212336 10.812767750742879,20.26558780581462 9.372118034779545,23.183377712615602" style="fill:none;stroke:black;stroke-width:1"/>
<polygon points="9.367802849584429,19.968236091212336 9.372118034779545,23.183377712615602 6.3057550240796605,9.801096970706922" style="fill:none;stroke:black;stroke-width:1"/>
<polygon points="8.851299051898328,16.33102807540117 9.367802849584429,19.968236091212336 6.3057550240796605,9.801096970706922" style="fill:none;stroke:black;stroke-width:1"/>
<polygon points="16.076097220317877,25.825171236034162 16.28887324535784,25.81931508493801 16.475192728478113,28.38563453557772" style="fill:none;stroke:black;stroke-width:1"/>
<polygon points="16.28887324535784,25.81931508493801 16.500873687489214,25.813576097413016 16.475192728478113,28.38563453557772" style="fill:none;stroke:black;stroke-width:1"/>
<polygon points="16.28887324535784,25.81931508493801 16.076097220317877,25.825171236034162 16.085341362775264,24.30876390459" style="fill:none;stroke:black;stroke-width:1"/>
<polygon points="16.924874334483125,25.8020987430364 17.136874657980083,25.79636006584809 16.475192728478113,28.38563453557772" style="fill:none;stroke:black;stroke-width:1"/>
<polygon points="16.924874334483125,25.8020987430364 16.939000007419967,24.2877453866268 17.136874657980083,25.79636006584809" style="fill:none;stroke:black;stroke-width:1"/>
<polygon points="17.772875628470953,25.77914403428317 17.987443407701775,25.755033548298034 16.475192728478113,28.38563453557772" style="fill:none;stroke:black;stroke-width:1"/>
<polygon points="17.560875304973994,25.78488271147148 17.772875628470953,25.77914403428317 16.475192728478113,28.38563453557772" style="fill:none;stroke:black;stroke-width:1"/>
<polygon points="17.772875628470953,25.77914403428317 17.80551724137931,24.280344827586205 17.987443407701775,25.755033548298034" style="fill:none;stroke:black;stroke-width:1"/>
<polygon points="17.136874657980083,25.79636006584809 17.34887498147704,25.790621388659787 16.475192728478113,28.38563453557772" style="fill:none;stroke:black;stroke-width:1"/>
<polygon points="17.34887498147704,25.790621388659787 17.560875304973994,25.78488271147148 16.475192728478113,28.38563453557772" style="fill:none;stroke:black;stroke-width:1"/>
<polygon points="17.80551724137931,24.280344827586205 17.815754927805045,21.392638691286773 18.02333530949574,24.31367411479856" style="fill:none;stroke:black;stroke-width:1"/>
<polygon points="16.076097220317877,25.825171236034162 15.873341039278309,24.314502581778306 16.085341362775264,24.30876390459" style="fill:none;stroke:black;stroke-width:1"/>
<polygon points="15.862180312830658,25.830375984129 15.873341039278309,24.314502581778306 16.076097220317877,25.825171236034162" style="fill:none;stroke:black;stroke-width:1"/>
<polygon points="15.431536720366564,25.838335138577317 15.237340068787441,24.33171861334323 15.449340392284396,24.325979936154923" style="fill:none;stroke:black;stroke-width:1"/>
<polygon points="12.47911775987602,21.155094725405192 10.83323332016843,23.419622577202755 10.812767750742879,20.26558780581462" style="fill:none;stroke:black;stroke-width:1"/>
<polygon points="12.374079873632544,21.050062769409443 12.47911775987602,21.155094725405192 10.812767750742879,20.26558780581462" style="fill:none;stroke:black;stroke-width:1"/>
<polygon points="17.912614450884355,19.390984927501187 17.900308893315156,19.619537581524057 15.809348943751582,17.537541673909388" style="fill:none;stroke:black;stroke-width:1"/>
<polygon points="21.37511066921193,19.68284075486536 20.00423409898297,20.59647874590275 19.92965387842387,20.498285403518253" style="fill:none;stroke:black;stroke-width:1"/>
<polygon points="20.00423409898297,20.59647874590275 21.37511066921193,19.68284075486536 21.36985149366894,23.02303232569762" style="fill:none;stroke:black;stroke-width:1"/>
<polygon points="16.787197363753336,8.923492638422408 17.630233219670444,9.03500842740693 17.036361653138822,9.078591079581763" style="fill:none;stroke:black;stroke-width:1"/>
<polygon points="16.33885604223694,11.324291993351133 16.787197363753336,8.923492638422408 17.036361653138822,9.078591079581763" style="fill:none;stroke:black;stroke-width:1"/>
<polygon points="20.198215114238206,11.319416715826847 17.859110608219762,8.843694434041822 17.99633401237957,8.576312323924126" style="fill:none;stroke:black;stroke-width:1"/>
<polygon points="17.859110608219762,8.843694434041822 20.198215114238206,11.319416715826847 17.630233219670444,9.03500842740693" style="fill:none;stroke:black;stroke-width:1"/>
<polygon points="16.787197363753336,8.923492638422408 17.859110608219762,8.843694434041822 17.630233219670444,9.03500842740693" style="fill:none;stroke:black;stroke-width:1"/>
<polygon points="17.859110608219762,8.843694434041822 16.565360586997702,8.391353301564132 17.99633401237957,8.576312323924126" style="fill:none;stroke:black;stroke-width:1"/>
<polygon points="17.338753813764495,9.120906229425628 20.198215114238206,11.319416715826847 16.33885604223694,11.324291993351133" style="fill:none;stroke:black;stroke-width:1"/>
<polygon points="20.198215114238206,11.319416715826847 17.338753813764495,9.120906229425628 17.630233219670444,9.03500842740693" style="fill:none;stroke:black;stroke-width:1"/>
<polygon points="17.338753813764495,9.120906229425628 16.33885604223694,11.324291993351133 17.036361653138822,9.078591079581763" style="fill:none;stroke:black;stroke-width:1"/>
<polygon points="17.630233219670444,9.03500842740693 17.338753813764495,9.120906229425628 17.036361653138822,9.078591079581763" style="fill:none;stroke:black;stroke-width:1"/>
<polygon points="16.305690341534486,4.903683689278177 15.406003888651142,6.096006066121348 16.067251139933166,4.729116681551216" style="fill:none;stroke:black;stroke-width:1"/>
<polygon points="15.406003888651142,6.096006066121348 15.161151478333126,5.924288013883517 16.067251139933166,4.729116681551216" style="fill:none;stroke:black;stroke-width:1"/>
<polygon points="15.406003888651142,6.096006066121348 16.305690341534486,4.903683689278177 16.531187078116226,5.092780358297486" style="fill:none;stroke:black;stroke-width:1"/>
<polygon points="15.816509899404775,4.569855609168135 14.897999471886928,5.774630373239165 15.554107046041826,4.426676746180472" style="fill:none;stroke:black;stroke-width:1"/>
<polygon points="15.161151478333126,5.924288013883517 14.897999471886928,5.774630373239165 15.816509899404775,4.569855609168135" style="fill:none;stroke:black;stroke-width:1"/>
<polygon points="14.897999471886928,5.774630373239165 15.161151478333126,5.924288013883517 14.61821576140243,5.648637977086597" style="fill:none;stroke:black;stroke-width:1"/>
<polygon points="17.124030879836045,5.739468627118289 16.940791451850888,5.511457584007014 18.141702148121873,3.7736967975524927" style="fill:none;stroke:black;stroke-width:1"/>
<polygon points="16.940791451850888,5.511457584007014 16.743100923585864,5.295630414557611 18.141702148121873,3.7736967975524927" style="fill:none;stroke:black;stroke-width:1"/>
<polygon points="17.292919478085324,5.979744036164066 17.124030879836045,5.739468627118289 18.141702148121873,3.7736967975524927" style="fill:none;stroke:black;stroke-width:1"/>
<polygon points="17.446593544709117,6.231754796309358 17.292919478085324,5.979744036164066 18.141702148121873,3.7736967975524927" style="fill:none;stroke:black;stroke-width:1"/>
<polygon points="14.996878205182336,4.191670744597527 14.505443642429894,2.924554894002413 16.56224870873214,1.4780944653243926" style="fill:none;stroke:black;stroke-width:1"/>
<polygon points="14.996878205182336,4.191670744597527 14.703333069870824,4.101396154105316 14.505443642429894,2.924554894002413" style="fill:none;stroke:black;stroke-width:1"/>
<polygon points="13.43522191988962,4.54602728585969 11.494729548416133,5.164493037555706 12.76699766873587,2.0467095585450377" style="fill:none;stroke:black;stroke-width:1"/>
<polygon points="13.72929084129057,5.353196134398057 12.479496970235699,11.32916727087542 11.494729548416133,5.164493037555706" style="fill:none;stroke:black;stroke-width:1"/>
<polygon points="13.522373040806352,5.1374738745090704 13.72929084129057,5.353196134398057 11.494729548416133,5.164493037555706" style="fill:none;stroke:black;stroke-width:1"/>
<polygon points="19.90220372894101,20.19513009939005 21.37511066921193,19.68284075486536 19.92965387842387,20.498285403518253" style="fill:none;stroke:black;stroke-width:1"/>
<polygon points="19.90220372894101,20.19513009939005 19.778377005501426,19.967906787658215 21.37511066921193,19.68284075486536" style="fill:none;stroke:black;stroke-width:1"/>
<polygon points="19.33257384075884,19.461141079787396 19.391253120317888,19.15847443245651 21.37511066921193,19.68284075486536" style="fill:none;stroke:black;stroke-width:1"/>
<polygon points="19.365857616842025,19.749950275848775 19.33257384075884,19.461141079787396 21.37511066921193,19.68284075486536" style="fill:none;stroke:black;stroke-width:1"/>
<polygon points="19.6228555725607,19.87486793029544 19.536048964356038,19.886364318883324 21.37511066921193,19.68284075486536" style="fill:none;stroke:black;stroke-width:1"/>
<polygon points="19.536048964356038,19.886364318883324 19.365857616842025,19.749950275848775 21.37511066921193,19.68284075486536" style="fill:none;stroke:black;stroke-width:1"/>
<polygon points="19.666680159379382,17.535299252427883 18.254906911363825,19.10273954919968 17.423428674296968,16.094831627895424" style="fill:none;stroke:black;stroke-width:1"/>
<polygon points="14.379398692628758,19.831900982712163 14.320313189626376,19.69348266602856 15.809348943751582,17.537541673909388" style="fill:none;stroke:black;stroke-width:1"/>
<polygon points="14.320313189626376,19.69348266602856 14.244548521318528,19.564233798066326 15.809348943751582,17.537541673909388" style="fill:none;stroke:black;stroke-width:1"/>
<polygon points="14.420787313867685,19.97732599055431 14.379398692628758,19.831900982712163 15.809348943751582,17.537541673909388" style="fill:none;stroke:black;stroke-width:1"/>
<polygon points="16.500873687489214,25.813576097413016 16.712874010986173,25.807837420224708 16.475192728478113,28.38563453557772" style="fill:none;stroke:black;stroke-width:1"/>
<polygon points="16.712874010986173,25.807837420224708 16.924874334483125,25.8020987430364 16.475192728478113,28.38563453557772" style="fill:none;stroke:black;stroke-width:1"/>
<polygon points="16.51010907333343,24.297254826812573 16.712874010986173,25.807837420224708 16.500873687489214,25.813576097413016" style="fill:none;stroke:black;stroke-width:1"/>
<polygon points="16.939000007419967,24.2877453866268 17.15478926371321,24.28425405530526 17.136874657980083,25.79636006584809" style="fill:none;stroke:black;stroke-width:1"/>
<polygon points="17.15478926371321,24.28425405530526 17.34887498147704,25.790621388659787 17.136874657980083,25.79636006584809" style="fill:none;stroke:black;stroke-width:1"/>
<polygon points="17.435430840844383,20.89771288179774 17.15478926371321,24.28425405530526 17.367410202603775,20.622486972891213" style="fill:none;stroke:black;stroke-width:1"/>
<polygon points="17.15478926371321,24.28425405530526 16.939000007419967,24.2877453866268 17.367410202603775,20.622486972891213" style="fill:none;stroke:black;stroke-width:1"/>
<polygon points="16.29734322024239,24.30302106715012 16.28887324535784,25.81931508493801 16.085341362775264,24.30876390459" style="fill:none;stroke:black;stroke-width:1"/>
<polygon points="16.28887324535784,25.81931508493801 16.29734322024239,24.30302106715012 16.500873687489214,25.813576097413016" style="fill:none;stroke:black;stroke-width:1"/>
<polygon points="16.29734322024239,24.30302106715012 16.51010907333343,24.297254826812573 16.500873687489214,25.813576097413016" style="fill:none;stroke:black;stroke-width:1"/>
<polygon points="17.586325855048617,21.167223065661375 17.815754927805045,21.392638691286773 17.80551724137931,24.280344827586205" style="fill:none;stroke:black;stroke-width:1"/>
<polygon points="18.438905565544875,21.63757629199791 18.21675195132063,24.40668652254579 18.02333530949574,24.31367411479856" style="fill:none;stroke:black;stroke-width:1"/>
<polygon points="17.441376222037885,20.158315970948525 16.29734322024239,24.30302106715012 14.192180864765753,20.981379528085256" style="fill:none;stroke:black;stroke-width:1"/>
<polygon points="15.025339745290484,24.33745729053154 14.998168207669773,25.84220028280813 14.813339421793529,24.343195967719844" style="fill:none;stroke:black;stroke-width:1"/>
<polygon points="15.661340715781353,24.320241258966615 15.873341039278309,24.314502581778306 15.862180312830658,25.830375984129" style="fill:none;stroke:black;stroke-width:1"/>
<polygon points="15.431536720366564,25.838335138577317 15.215116470315744,25.840841478562087 15.237340068787441,24.33171861334323" style="fill:none;stroke:black;stroke-width:1"/>
<polygon points="15.025339745290484,24.33745729053154 15.215116470315744,25.840841478562087 14.998168207669773,25.84220028280813" style="fill:none;stroke:black;stroke-width:1"/>
<polygon points="15.215116470315744,25.840841478562087 15.025339745290484,24.33745729053154 15.237340068787441,24.33171861334323" style="fill:none;stroke:black;stroke-width:1"/>
<polygon points="14.998168207669773,25.84220028280813 15.215116470315744,25.840841478562087 16.475192728478113,28.38563453557772" style="fill:none;stroke:black;stroke-width:1"/>
<polygon points="15.215116470315744,25.840841478562087 15.431536720366564,25.838335138577317 16.475192728478113,28.38563453557772" style="fill:none;stroke:black;stroke-width:1"/>
<polygon points="11.95143774134171,17.540967225368 12.12866066759315,19.916043613007638 10.812767750742879,20.26558780581462" style="fill:none;stroke:black;stroke-width:1"/>
<polygon points="10.83323332016843,23.419622577202755 12.85912996627697,21.376830945262526 14.238761979315603,24.583056406636786" style="fill:none;stroke:black;stroke-width:1"/>
<polygon points="17.759833822076082,19.25574697316795 15.809348943751582,17.537541673909388 17.725970767114518,19.061823235288664" style="fill:none;stroke:black;stroke-width:1"/>
<polygon points="17.759833822076082,19.25574697316795 17.840573279083866,19.329176635488277 15.809348943751582,17.537541673909388" style="fill:none;stroke:black;stroke-width:1"/>
<polygon points="17.86083889994255,19.298480492990077 17.912614450884355,19.390984927501187 15.809348943751582,17.537541673909388" style="fill:none;stroke:black;stroke-width:1"/>
<polygon points="17.840573279083866,19.329176635488277 17.86083889994255,19.298480492990077 15.809348943751582,17.537541673909388" style="fill:none;stroke:black;stroke-width:1"/>
<polygon points="17.900308893315156,19.619537581524057 17.76008205560577,19.930536248551654 15.809348943751582,17.537541673909388" style="fill:none;stroke:black;stroke-width:1"/>
<polygon points="17.76008205560577,19.930536248551654 14.420787313867685,19.97732599055431 15.809348943751582,17.537541673909388" style="fill:none;stroke:black;stroke-width:1"/>
<polygon points="19.64198070822908,20.50288019755162 19.872865969798486,20.546048588471884 21.36985149366894,23.02303232569762" style="fill:none;stroke:black;stroke-width:1"/>
<polygon points="19.872865969798486,20.546048588471884 20.00423409898297,20.59647874590275 21.36985149366894,23.02303232569762" style="fill:none;stroke:black;stroke-width:1"/>
<polygon points="19.117082977488863,21.525906325940365 19.39139984327453,21.349901701873037 21.36985149366894,23.02303232569762" style="fill:none;stroke:black;stroke-width:1"/>
<polygon points="19.39139984327453,21.349901701873037 19.601055796964168,21.114747390000318 21.36985149366894,23.02303232569762" style="fill:none;stroke:black;stroke-width:1"/>
<polygon points="19.347975739621027,20.506093795668686 19.64198070822908,20.50288019755162 21.36985149366894,23.02303232569762" style="fill:none;stroke:black;stroke-width:1"/>
<polygon points="19.601055796964168,21.114747390000318 19.347975739621027,20.506093795668686 21.36985149366894,23.02303232569762" style="fill:none;stroke:black;stroke-width:1"/>
<polygon points="17.89150748791811,7.343557265440438 17.807510045489725,7.051402142192097 21.11419702804731,5.229227362092039" style="fill:none;stroke:black;stroke-width:1"/>
<polygon points="18.020429330482532,8.264637624417823 17.998952056115183,7.951213932300078 21.11419702804731,5.229227362092039" style="fill:none;stroke:black;stroke-width:1"/>
<polygon points="17.998952056115183,7.951213932300078 18.020429330482532,8.264637624417823 16.565360586997702,8.391353301564132" style="fill:none;stroke:black;stroke-width:1"/>
<polygon points="17.859110608219762,8.843694434041822 16.620769559960404,8.684622516842914 16.565360586997702,8.391353301564132" style="fill:none;stroke:black;stroke-width:1"/>
<polygon points="16.620769559960404,8.684622516842914 17.859110608219762,8.843694434041822 16.787197363753336,8.923492638422408" style="fill:none;stroke:black;stroke-width:1"/>
<polygon points="16.620769559960404,8.684622516842914 16.787197363753336,8.923492638422408 16.33885604223694,11.324291993351133" style="fill:none;stroke:black;stroke-width:1"/>
<polygon points="16.620769559960404,8.684622516842914 16.33885604223694,11.324291993351133 12.479496970235699,11.32916727087542" style="fill:none;stroke:black;stroke-width:1"/>
<polygon points="16.565360586997702,8.391353301564132 16.620769559960404,8.684622516842914 12.479496970235699,11.32916727087542" style="fill:none;stroke:black;stroke-width:1"/>
<polygon points="16.743100923585864,5.295630414557611 15.630888810751085,6.288179697054349 16.531187078116226,5.092780358297486" style="fill:none;stroke:black;stroke-width:1"/>
<polygon points="15.630888810751085,6.288179697054349 15.406003888651142,6.096006066121348 16.531187078116226,5.092780358297486" style="fill:none;stroke:black;stroke-width:1"/>
<polygon points="14.996878205182336,4.191670744597527 15.280683005936842,4.300356366639757 14.61821576140243,5.648637977086597" style="fill:none;stroke:black;stroke-width:1"/>
<polygon points="14.897999471886928,5.774630373239165 15.280683005936842,4.300356366639757 15.554107046041826,4.426676746180472" style="fill:none;stroke:black;stroke-width:1"/>
<polygon points="15.280683005936842,4.300356366639757 14.897999471886928,5.774630373239165 14.61821576140243,5.648637977086597" style="fill:none;stroke:black;stroke-width:1"/>
<polygon points="15.554107046041826,4.426676746180472 15.280683005936842,4.300356366639757 16.56224870873214,1.4780944653243926" style="fill:none;stroke:black;stroke-width:1"/>
<polygon points="15.280683005936842,4.300356366639757 14.996878205182336,4.191670744597527 16.56224870873214,1.4780944653243926" style="fill:none;stroke:black;stroke-width:1"/>
<polygon points="13.417013688230309,4.857784296084325 13.522373040806352,5.1374738745090704 11.494729548416133,5.164493037555706" style="fill:none;stroke:black;stroke-width:1"/>
<polygon points="13.43522191988962,4.54602728585969 13.417013688230309,4.857784296084325 11.494729548416133,5.164493037555706" style="fill:none;stroke:black;stroke-width:1"/>
<polygon points="13.417013688230309,4.857784296084325 13.43522191988962,4.54602728585969 13.522373040806352,5.1374738745090704" style="fill:none;stroke:black;stroke-width:1"/>
<polygon points="13.72929084129057,5.353196134398057 14.015517241379312,5.474137931034483 12.479496970235699,11.32916727087542" style="fill:none;stroke:black;stroke-width:1"/>
<polygon points="14.015517241379312,5.474137931034483 16.565360586997702,8.391353301564132 12.479496970235699,11.32916727087542" style="fill:none;stroke:black;stroke-width:1"/>
<polygon points="14.015517241379312,5.474137931034483 13.72929084129057,5.353196134398057 13.806999057540173,4.086069784350515" style="fill:none;stroke:black;stroke-width:1"/>
<polygon points="14.015517241379312,5.474137931034483 15.630888810751085,6.288179697054349 16.565360586997702,8.391353301564132" style="fill:none;stroke:black;stroke-width:1"/>
<polygon points="15.630888810751085,6.288179697054349 14.015517241379312,5.474137931034483 15.406003888651142,6.096006066121348" style="fill:none;stroke:black;stroke-width:1"/>
<polygon points="13.43522191988962,4.54602728585969 13.576209654989604,4.274293632795456 13.522373040806352,5.1374738745090704" style="fill:none;stroke:black;stroke-width:1"/>
<polygon points="13.576209654989604,4.274293632795456 13.72929084129057,5.353196134398057 13.522373040806352,5.1374738745090704" style="fill:none;stroke:black;stroke-width:1"/>
<polygon points="13.72929084129057,5.353196134398057 13.576209654989604,4.274293632795456 13.806999057540173,4.086069784350515" style="fill:none;stroke:black;stroke-width:1"/>
<polygon points="13.576209654989604,4.274293632795456 13.43522191988962,4.54602728585969 12.76699766873587,2.0467095585450377" style="fill:none;stroke:black;stroke-width:1"/>
<polygon points="14.505443642429894,2.924554894002413 13.576209654989604,4.274293632795456 12.76699766873587,2.0467095585450377" style="fill:none;stroke:black;stroke-width:1"/>
<polygon points="13.806999057540173,4.086069784350515 13.576209654989604,4.274293632795456 14.505443642429894,2.924554894002413" style="fill:none;stroke:black;stroke-width:1"/>
<polygon points="19.563914100993138,19.291122070744716 19.26306279174439,19.188674159467634 19.666680159379382,17.535299252427883" style="fill:none;stroke:black;stroke-width:1"/>
<polygon points="18.991934897675176,18.632218064115214 18.58514749566862,19.175338807081474 19.666680159379382,17.535299252427883" style="fill:none;stroke:black;stroke-width:1"/>
<polygon points="18.58514749566862,19.175338807081474 18.254906911363825,19.10273954919968 19.666680159379382,17.535299252427883" style="fill:none;stroke:black;stroke-width:1"/>
<polygon points="14.369392206141212,25.715688643191395 14.562799731944745,25.808715055994284 12.709736861049263,27.392680873647066" style="fill:none;stroke:black;stroke-width:1"/>
<polygon points="14.097674522128752,25.39272279931661 14.2109518387212,25.57361027158186 12.709736861049263,27.392680873647066" style="fill:none;stroke:black;stroke-width:1"/>
<polygon points="14.2109518387212,25.57361027158186 14.369392206141212,25.715688643191395 12.709736861049263,27.392680873647066" style="fill:none;stroke:black;stroke-width:1"/>
<polygon points="14.369392206141212,25.715688643191395 14.2109518387212,25.57361027158186 14.238761979315603,24.583056406636786" style="fill:none;stroke:black;stroke-width:1"/>
<polygon points="14.116336118481563,24.756761551703697 10.83323332016843,23.419622577202755 14.238761979315603,24.583056406636786" style="fill:none;stroke:black;stroke-width:1"/>
<polygon points="14.116336118481563,24.756761551703697 14.04656826920771,24.96099556281898 10.83323332016843,23.419622577202755" style="fill:none;stroke:black;stroke-width:1"/>
<polygon points="14.04656826920771,24.96099556281898 14.116336118481563,24.756761551703697 14.097674522128752,25.39272279931661" style="fill:none;stroke:black;stroke-width:1"/>
<polygon points="14.2109518387212,25.57361027158186 14.116336118481563,24.756761551703697 14.238761979315603,24.583056406636786" style="fill:none;stroke:black;stroke-width:1"/>
<polygon points="14.116336118481563,24.756761551703697 14.2109518387212,25.57361027158186 14.097674522128752,25.39272279931661" style="fill:none;stroke:black;stroke-width:1"/>
<polygon points="14.039756148807896,25.18326908454659 14.097674522128752,25.39272279931661 10.83323332016843,23.419622577202755" style="fill:none;stroke:black;stroke-width:1"/>
<polygon points="14.04656826920771,24.96099556281898 14.039756148807896,25.18326908454659 10.83323332016843,23.419622577202755" style="fill:none;stroke:black;stroke-width:1"/>
<polygon points="14.039756148807896,25.18326908454659 14.04656826920771,24.96099556281898 14.097674522128752,25.39272279931661" style="fill:none;stroke:black;stroke-width:1"/>
<polygon points="16.724050639842996,24.292120955217015 16.712874010986173,25.807837420224708 16.51010907333343,24.297254826812573" style="fill:none;stroke:black;stroke-width:1"/>
<polygon points="16.939000007419967,24.2877453866268 16.724050639842996,24.292120955217015 17.367410202603775,20.622486972891213" style="fill:none;stroke:black;stroke-width:1"/>
<polygon points="16.924874334483125,25.8020987430364 16.724050639842996,24.292120955217015 16.939000007419967,24.2877453866268" style="fill:none;stroke:black;stroke-width:1"/>
<polygon points="16.712874010986173,25.807837420224708 16.724050639842996,24.292120955217015 16.924874334483125,25.8020987430364" style="fill:none;stroke:black;stroke-width:1"/>
<polygon points="17.34887498147704,25.790621388659787 17.371250496371598,24.281772895515754 17.560875304973994,25.78488271147148" style="fill:none;stroke:black;stroke-width:1"/>
<polygon points="17.15478926371321,24.28425405530526 17.371250496371598,24.281772895515754 17.34887498147704,25.790621388659787" style="fill:none;stroke:black;stroke-width:1"/>
<polygon points="17.586325855048617,21.167223065661375 17.371250496371598,24.281772895515754 17.435430840844383,20.89771288179774" style="fill:none;stroke:black;stroke-width:1"/>
<polygon points="17.371250496371598,24.281772895515754 17.15478926371321,24.28425405530526 17.435430840844383,20.89771288179774" style="fill:none;stroke:black;stroke-width:1"/>
<polygon points="17.815754927805045,21.392638691286773 18.10582718756377,21.554728549431623 18.02333530949574,24.31367411479856" style="fill:none;stroke:black;stroke-width:1"/>
<polygon points="18.10582718756377,21.554728549431623 18.438905565544875,21.63757629199791 18.02333530949574,24.31367411479856" style="fill:none;stroke:black;stroke-width:1"/>
<polygon points="18.21675195132063,24.40668652254579 18.792827797117422,21.626906335998914 19.117082977488863,21.525906325940365" style="fill:none;stroke:black;stroke-width:1"/>
<polygon points="18.438905565544875,21.63757629199791 18.792827797117422,21.626906335998914 18.21675195132063,24.40668652254579" style="fill:none;stroke:black;stroke-width:1"/>
<polygon points="16.724050639842996,24.292120955217015 17.37294700776486,20.37038909215219 17.367410202603775,20.622486972891213" style="fill:none;stroke:black;stroke-width:1"/>
<polygon points="17.37294700776486,20.37038909215219 16.724050639842996,24.292120955217015 16.51010907333343,24.297254826812573" style="fill:none;stroke:black;stroke-width:1"/>
<polygon points="16.29734322024239,24.30302106715012 17.37294700776486,20.37038909215219 16.51010907333343,24.297254826812573" style="fill:none;stroke:black;stroke-width:1"/>
<polygon points="17.441376222037885,20.158315970948525 17.37294700776486,20.37038909215219 16.29734322024239,24.30302106715012" style="fill:none;stroke:black;stroke-width:1"/>
<polygon points="15.64727574035921,25.83480529603817 15.431536720366564,25.838335138577317 15.449340392284396,24.325979936154923" style="fill:none;stroke:black;stroke-width:1"/>
<polygon points="15.661340715781353,24.320241258966615 15.64727574035921,25.83480529603817 15.449340392284396,24.325979936154923" style="fill:none;stroke:black;stroke-width:1"/>
<polygon points="15.64727574035921,25.83480529603817 15.661340715781353,24.320241258966615 15.862180312830658,25.830375984129" style="fill:none;stroke:black;stroke-width:1"/>
<polygon points="15.64727574035921,25.83480529603817 15.862180312830658,25.830375984129 16.475192728478113,28.38563453557772" style="fill:none;stroke:black;stroke-width:1"/>
<polygon points="15.431536720366564,25.838335138577317 15.64727574035921,25.83480529603817 16.475192728478113,28.38563453557772" style="fill:none;stroke:black;stroke-width:1"/>
<polygon points="13.087660519233603,19.07023708607172 11.95143774134171,17.540967225368 13.557477296947317,16.099675984338315" style="fill:none;stroke:black;stroke-width:1"/>
<polygon points="13.23453280168299,19.055471222126656 13.087660519233603,19.07023708607172 13.557477296947317,16.099675984338315" style="fill:none;stroke:black;stroke-width:1"/>
<polygon points="12.723656973719388,21.319757042909142 12.85912996627697,21.376830945262526 10.83323332016843,23.419622577202755" style="fill:none;stroke:black;stroke-width:1"/>
<polygon points="17.704770679345106,6.768263553438397 17.58417122877364,6.494821203439142 21.11419702804731,5.229227362092039" style="fill:none;stroke:black;stroke-width:1"/>
<polygon points="17.807510045489725,7.051402142192097 17.704770679345106,6.768263553438397 21.11419702804731,5.229227362092039" style="fill:none;stroke:black;stroke-width:1"/>
<polygon points="17.95573252027783,7.643854986924638 17.89150748791811,7.343557265440438 21.11419702804731,5.229227362092039" style="fill:none;stroke:black;stroke-width:1"/>
<polygon points="17.998952056115183,7.951213932300078 17.95573252027783,7.643854986924638 21.11419702804731,5.229227362092039" style="fill:none;stroke:black;stroke-width:1"/>
<polygon points="16.940791451850888,5.511457584007014 15.834190553078962,6.499363089661067 16.743100923585864,5.295630414557611" style="fill:none;stroke:black;stroke-width:1"/>
<polygon points="15.834190553078962,6.499363089661067 15.630888810751085,6.288179697054349 16.743100923585864,5.295630414557611" style="fill:none;stroke:black;stroke-width:1"/>
<polygon points="15.834190553078962,6.499363089661067 16.940791451850888,5.511457584007014 17.124030879836045,5.739468627118289" style="fill:none;stroke:black;stroke-width:1"/>
<polygon points="15.630888810751085,6.288179697054349 15.834190553078962,6.499363089661067 16.565360586997702,8.391353301564132" style="fill:none;stroke:black;stroke-width:1"/>
<polygon points="14.323531756770919,5.547891105409646 14.996878205182336,4.191670744597527 14.61821576140243,5.648637977086597" style="fill:none;stroke:black;stroke-width:1"/>
<polygon points="14.996878205182336,4.191670744597527 14.323531756770919,5.547891105409646 14.703333069870824,4.101396154105316" style="fill:none;stroke:black;stroke-width:1"/>
<polygon points="15.161151478333126,5.924288013883517 14.323531756770919,5.547891105409646 14.61821576140243,5.648637977086597" style="fill:none;stroke:black;stroke-width:1"/>
<polygon points="15.406003888651142,6.096006066121348 14.323531756770919,5.547891105409646 15.161151478333126,5.924288013883517" style="fill:none;stroke:black;stroke-width:1"/>
<polygon points="14.015517241379312,5.474137931034483 14.323531756770919,5.547891105409646 15.406003888651142,6.096006066121348" style="fill:none;stroke:black;stroke-width:1"/>
<polygon points="14.703333069870824,4.101396154105316 14.400688026094823,4.030308869214659 14.505443642429894,2.924554894002413" style="fill:none;stroke:black;stroke-width:1"/>
<polygon points="14.323531756770919,5.547891105409646 14.400688026094823,4.030308869214659 14.703333069870824,4.101396154105316" style="fill:none;stroke:black;stroke-width:1"/>
<polygon points="14.400688026094823,4.030308869214659 14.323531756770919,5.547891105409646 14.015517241379312,5.474137931034483" style="fill:none;stroke:black;stroke-width:1"/>
<polygon points="19.48785846993336,18.919314149929633 19.771446004255008,19.259049384002157 19.666680159379382,17.535299252427883" style="fill:none;stroke:black;stroke-width:1"/>
<polygon points="19.771446004255008,19.259049384002157 19.563914100993138,19.291122070744716 19.666680159379382,17.535299252427883" style="fill:none;stroke:black;stroke-width:1"/>
<polygon points="18.979573766664554,18.57233680238668 18.991934897675176,18.632218064115214 19.666680159379382,17.535299252427883" style="fill:none;stroke:black;stroke-width:1"/>
<polygon points="18.945097384002384,18.696870799823795 18.979573766664554,18.57233680238668 19.666680159379382,17.535299252427883" style="fill:none;stroke:black;stroke-width:1"/>
<polygon points="19.26306279174439,19.188674159467634 19.02749699652369,18.95169294672397 19.666680159379382,17.535299252427883" style="fill:none;stroke:black;stroke-width:1"/>
<polygon points="19.02749699652369,18.95169294672397 18.945097384002384,18.696870799823795 19.666680159379382,17.535299252427883" style="fill:none;stroke:black;stroke-width:1"/>
<polygon points="17.768777855124302,18.869361536511867 17.725970767114518,19.061823235288664 17.423428674296968,16.094831627895424" style="fill:none;stroke:black;stroke-width:1"/>
<polygon points="17.76189894441976,18.839662995155724 17.768777855124302,18.869361536511867 17.423428674296968,16.094831627895424" style="fill:none;stroke:black;stroke-width:1"/>
<polygon points="18.254906911363825,19.10273954919968 17.97335663692909,18.984587621561115 17.423428674296968,16.094831627895424" style="fill:none;stroke:black;stroke-width:1"/>
<polygon points="17.97335663692909,18.984587621561115 17.76189894441976,18.839662995155724 17.423428674296968,16.094831627895424" style="fill:none;stroke:black;stroke-width:1"/>
<polygon points="14.998168207669773,25.84220028280813 14.780984763804112,25.84241379310345 14.813339421793529,24.343195967719844" style="fill:none;stroke:black;stroke-width:1"/>
<polygon points="14.780984763804112,25.84241379310345 14.598771642562703,24.36730645370498 14.813339421793529,24.343195967719844" style="fill:none;stroke:black;stroke-width:1"/>
<polygon points="14.780984763804112,25.84241379310345 14.998168207669773,25.84220028280813 12.709736861049263,27.392680873647066" style="fill:none;stroke:black;stroke-width:1"/>
<polygon points="14.562799731944745,25.808715055994284 14.780984763804112,25.84241379310345 12.709736861049263,27.392680873647066" style="fill:none;stroke:black;stroke-width:1"/>
<polygon points="14.780984763804112,25.84241379310345 14.562799731944745,25.808715055994284 14.369392206141212,25.715688643191395" style="fill:none;stroke:black;stroke-width:1"/>
<polygon points="17.371250496371598,24.281772895515754 17.588215793044007,24.28042784152162 17.560875304973994,25.78488271147148" style="fill:none;stroke:black;stroke-width:1"/>
<polygon points="17.772875628470953,25.77914403428317 17.588215793044007,24.28042784152162 17.80551724137931,24.280344827586205" style="fill:none;stroke:black;stroke-width:1"/>
<polygon points="17.588215793044007,24.28042784152162 17.772875628470953,25.77914403428317 17.560875304973994,25.78488271147148" style="fill:none;stroke:black;stroke-width:1"/>
<polygon points="17.588215793044007,24.28042784152162 17.586325855048617,21.167223065661375 17.80551724137931,24.280344827586205" style="fill:none;stroke:black;stroke-width:1"/>
<polygon points="17.588215793044007,24.28042784152162 17.371250496371598,24.281772895515754 17.586325855048617,21.167223065661375" style="fill:none;stroke:black;stroke-width:1"/>
<polygon points="13.381754084943616,19.058883454985672 13.23453280168299,19.055471222126656 13.557477296947317,16.099675984338315" style="fill:none;stroke:black;stroke-width:1"/>
<polygon points="15.809348943751582,17.537541673909388 13.803808344476883,19.176478255204692 13.557477296947317,16.099675984338315" style="fill:none;stroke:black;stroke-width:1"/>
<polygon points="13.803808344476883,19.176478255204692 13.6683353519193,19.119404352851316 13.557477296947317,16.099675984338315" style="fill:none;stroke:black;stroke-width:1"/>
<polygon points="12.435181297244926,19.40281100171304 12.335297350668947,19.51504755187263 11.95143774134171,17.540967225368" style="fill:none;stroke:black;stroke-width:1"/>
<polygon points="12.335297350668947,19.51504755187263 12.249985132497908,19.639298486904206 11.95143774134171,17.540967225368" style="fill:none;stroke:black;stroke-width:1"/>
<polygon points="12.180706599387563,19.77364998408482 12.12866066759315,19.916043613007638 11.95143774134171,17.540967225368" style="fill:none;stroke:black;stroke-width:1"/>
<polygon points="12.249985132497908,19.639298486904206 12.180706599387563,19.77364998408482 11.95143774134171,17.540967225368" style="fill:none;stroke:black;stroke-width:1"/>
<polygon points="12.47911775987602,21.155094725405192 12.596288042615841,21.245461133324028 10.83323332016843,23.419622577202755" style="fill:none;stroke:black;stroke-width:1"/>
<polygon points="12.596288042615841,21.245461133324028 12.723656973719388,21.319757042909142 10.83323332016843,23.419622577202755" style="fill:none;stroke:black;stroke-width:1"/>
<polygon points="14.780984763804112,25.84241379310345 14.402937860176184,24.449887984132285 14.598771642562703,24.36730645370498" style="fill:none;stroke:black;stroke-width:1"/>
<polygon points="14.402937860176184,24.449887984132285 14.369392206141212,25.715688643191395 14.238761979315603,24.583056406636786" style="fill:none;stroke:black;stroke-width:1"/>
<polygon points="14.402937860176184,24.449887984132285 14.780984763804112,25.84241379310345 14.369392206141212,25.715688643191395" style="fill:none;stroke:black;stroke-width:1"/>
<polygon points="12.85912996627697,21.376830945262526 13.000428596673105,21.415954043942044 14.238761979315603,24.583056406636786" style="fill:none;stroke:black;stroke-width:1"/>
<polygon points="13.000428596673105,21.415954043942044 14.402937860176184,24.449887984132285 14.238761979315603,24.583056406636786" style="fill:none;stroke:black;stroke-width:1"/>
<polygon points="14.402937860176184,24.449887984132285 13.000428596673105,21.415954043942044 13.14572731491789,21.437389013698066" style="fill:none;stroke:black;stroke-width:1"/>
<polygon points="13.723586746057581,21.342801261273422 15.025339745290484,24.33745729053154 14.813339421793529,24.343195967719844" style="fill:none;stroke:black;stroke-width:1"/>
<polygon points="17.292919478085324,5.979744036164066 16.015323456987325,6.728737217006053 17.124030879836045,5.739468627118289" style="fill:none;stroke:black;stroke-width:1"/>
<polygon points="16.015323456987325,6.728737217006053 15.834190553078962,6.499363089661067 17.124030879836045,5.739468627118289" style="fill:none;stroke:black;stroke-width:1"/>
<polygon points="15.834190553078962,6.499363089661067 16.015323456987325,6.728737217006053 16.565360586997702,8.391353301564132" style="fill:none;stroke:black;stroke-width:1"/>
<polygon points="14.093390820841906,4.000897444892087 14.015517241379312,5.474137931034483 13.806999057540173,4.086069784350515" style="fill:none;stroke:black;stroke-width:1"/>
<polygon points="14.093390820841906,4.000897444892087 14.400688026094823,4.030308869214659 14.015517241379312,5.474137931034483" style="fill:none;stroke:black;stroke-width:1"/>
<polygon points="14.093390820841906,4.000897444892087 13.806999057540173,4.086069784350515 14.505443642429894,2.924554894002413" style="fill:none;stroke:black;stroke-width:1"/>
<polygon points="14.400688026094823,4.030308869214659 14.093390820841906,4.000897444892087 14.505443642429894,2.924554894002413" style="fill:none;stroke:black;stroke-width:1"/>
<polygon points="13.6683353519193,19.119404352851316 13.527037438664824,19.08029434490368 13.557477296947317,16.099675984338315" style="fill:none;stroke:black;stroke-width:1"/>
<polygon points="13.527037438664824,19.08029434490368 13.381754084943616,19.058883454985672 13.557477296947317,16.099675984338315" style="fill:none;stroke:black;stroke-width:1"/>
<polygon points="13.931177275580428,19.250774164789817 15.809348943751582,17.537541673909388 14.048347558320248,19.341140572708646" style="fill:none;stroke:black;stroke-width:1"/>
<polygon points="13.931177275580428,19.250774164789817 13.803808344476883,19.176478255204692 15.809348943751582,17.537541673909388" style="fill:none;stroke:black;stroke-width:1"/>
<polygon points="12.547932173470313,19.304326224035318 12.435181297244926,19.40281100171304 11.95143774134171,17.540967225368" style="fill:none;stroke:black;stroke-width:1"/>
<polygon points="12.67150076043673,19.22093699782243 12.547932173470313,19.304326224035318 11.95143774134171,17.540967225368" style="fill:none;stroke:black;stroke-width:1"/>
<polygon points="12.80397904088904,19.15352770272569 12.67150076043673,19.22093699782243 11.95143774134171,17.540967225368" style="fill:none;stroke:black;stroke-width:1"/>
<polygon points="12.28291679687774,20.93200150004752 12.374079873632544,21.050062769409443 10.812767750742879,20.26558780581462" style="fill:none;stroke:black;stroke-width:1"/>
<polygon points="12.207152128569893,20.802752632085284 12.28291679687774,20.93200150004752 10.812767750742879,20.26558780581462" style="fill:none;stroke:black;stroke-width:1"/>
<polygon points="12.106678004328584,20.518909307559532 12.148066625567509,20.664334315401675 10.812767750742879,20.26558780581462" style="fill:none;stroke:black;stroke-width:1"/>
<polygon points="12.148066625567509,20.664334315401675 12.207152128569893,20.802752632085284 10.812767750742879,20.26558780581462" style="fill:none;stroke:black;stroke-width:1"/>
<polygon points="12.12866066759315,19.916043613007638 12.094767162972897,20.06431044356063 10.812767750742879,20.26558780581462" style="fill:none;stroke:black;stroke-width:1"/>
<polygon points="12.094767162972897,20.06431044356063 12.079655172413792,20.216206896551725 10.812767750742879,20.26558780581462" style="fill:none;stroke:black;stroke-width:1"/>
<polygon points="12.083724890914096,20.36875086582686 12.106678004328584,20.518909307559532 10.812767750742879,20.26558780581462" style="fill:none;stroke:black;stroke-width:1"/>
<polygon points="12.079655172413792,20.216206896551725 12.083724890914096,20.36875086582686 10.812767750742879,20.26558780581462" style="fill:none;stroke:black;stroke-width:1"/>
<polygon points="14.598771642562703,24.36730645370498 13.584135930669614,21.393259904237308 14.813339421793529,24.343195967719844" style="fill:none;stroke:black;stroke-width:1"/>
<polygon points="13.584135930669614,21.393259904237308 13.723586746057581,21.342801261273422 14.813339421793529,24.343195967719844" style="fill:none;stroke:black;stroke-width:1"/>
<polygon points="15.025339745290484,24.33745729053154 13.856091855528868,21.275396133996367 15.237340068787441,24.33171861334323" style="fill:none;stroke:black;stroke-width:1"/>
<polygon points="13.723586746057581,21.342801261273422 13.856091855528868,21.275396133996367 15.025339745290484,24.33745729053154" style="fill:none;stroke:black;stroke-width:1"/>
<polygon points="15.237340068787441,24.33171861334323 13.856091855528868,21.275396133996367 15.449340392284396,24.325979936154923" style="fill:none;stroke:black;stroke-width:1"/>
<polygon points="16.1732415992375,6.974576172278102 17.292919478085324,5.979744036164066 17.446593544709117,6.231754796309358" style="fill:none;stroke:black;stroke-width:1"/>
<polygon points="16.1732415992375,6.974576172278102 16.015323456987325,6.728737217006053 17.292919478085324,5.979744036164066" style="fill:none;stroke:black;stroke-width:1"/>
<polygon points="16.1732415992375,6.974576172278102 17.446593544709117,6.231754796309358 17.58417122877364,6.494821203439142" style="fill:none;stroke:black;stroke-width:1"/>
<polygon points="16.015323456987325,6.728737217006053 16.1732415992375,6.974576172278102 16.565360586997702,8.391353301564132" style="fill:none;stroke:black;stroke-width:1"/>
<polygon points="13.087660519233603,19.07023708607172 12.943405320157106,19.103060909538467 11.95143774134171,17.540967225368" style="fill:none;stroke:black;stroke-width:1"/>
<polygon points="12.943405320157106,19.103060909538467 12.80397904088904,19.15352770272569 11.95143774134171,17.540967225368" style="fill:none;stroke:black;stroke-width:1"/>
<polygon points="14.402937860176184,24.449887984132285 13.292966255601172,21.440821343991427 14.598771642562703,24.36730645370498" style="fill:none;stroke:black;stroke-width:1"/>
<polygon points="13.292966255601172,21.440821343991427 14.402937860176184,24.449887984132285 13.14572731491789,21.437389013698066" style="fill:none;stroke:black;stroke-width:1"/>
<polygon points="13.979668126577325,21.192029015421067 15.661340715781353,24.320241258966615 15.449340392284396,24.325979936154923" style="fill:none;stroke:black;stroke-width:1"/>
<polygon points="13.856091855528868,21.275396133996367 13.979668126577325,21.192029015421067 15.449340392284396,24.325979936154923" style="fill:none;stroke:black;stroke-width:1"/>
<polygon points="15.661340715781353,24.320241258966615 13.979668126577325,21.192029015421067 15.873341039278309,24.314502581778306" style="fill:none;stroke:black;stroke-width:1"/>
<polygon points="17.704770679345106,6.768263553438397 16.30653782844039,7.23518309644921 17.58417122877364,6.494821203439142" style="fill:none;stroke:black;stroke-width:1"/>
<polygon points="16.30653782844039,7.23518309644921 16.1732415992375,6.974576172278102 17.58417122877364,6.494821203439142" style="fill:none;stroke:black;stroke-width:1"/>
<polygon points="16.1732415992375,6.974576172278102 16.30653782844039,7.23518309644921 16.565360586997702,8.391353301564132" style="fill:none;stroke:black;stroke-width:1"/>
<polygon points="13.4398584883723,21.426071595077037 13.584135930669614,21.393259904237308 14.598771642562703,24.36730645370498" style="fill:none;stroke:black;stroke-width:1"/>
<polygon points="13.292966255601172,21.440821343991427 13.4398584883723,21.426071595077037 14.598771642562703,24.36730645370498" style="fill:none;stroke:black;stroke-width:1"/>
<polygon points="14.092351855001978,21.093600547564698 16.29734322024239,24.30302106715012 16.085341362775264,24.30876390459" style="fill:none;stroke:black;stroke-width:1"/>
<polygon points="16.29734322024239,24.30302106715012 14.092351855001978,21.093600547564698 14.192180864765753,20.981379528085256" style="fill:none;stroke:black;stroke-width:1"/>
<polygon points="15.873341039278309,24.314502581778306 14.092351855001978,21.093600547564698 16.085341362775264,24.30876390459" style="fill:none;stroke:black;stroke-width:1"/>
<polygon points="13.979668126577325,21.192029015421067 14.092351855001978,21.093600547564698 15.873341039278309,24.314502581778306" style="fill:none;stroke:black;stroke-width:1"/>
<polygon points="16.413804993206938,7.508861130491369 17.704770679345106,6.768263553438397 17.807510045489725,7.051402142192097" style="fill:none;stroke:black;stroke-width:1"/>
<polygon points="16.413804993206938,7.508861130491369 16.30653782844039,7.23518309644921 17.704770679345106,6.768263553438397" style="fill:none;stroke:black;stroke-width:1"/>
<polygon points="16.413804993206938,7.508861130491369 17.807510045489725,7.051402142192097 17.89150748791811,7.343557265440438" style="fill:none;stroke:black;stroke-width:1"/>
<polygon points="16.30653782844039,7.23518309644921 16.54462352387467,8.088643092076836 16.565360586997702,8.391353301564132" style="fill:none;stroke:black;stroke-width:1"/>
<polygon points="16.413804993206938,7.508861130491369 16.54462352387467,8.088643092076836 16.30653782844039,7.23518309644921" style="fill:none;stroke:black;stroke-width:1"/>
<polygon points="16.54462352387467,8.088643092076836 17.998952056115183,7.951213932300078 16.565360586997702,8.391353301564132" style="fill:none;stroke:black;stroke-width:1"/>
<polygon points="16.54462352387467,8.088643092076836 17.95573252027783,7.643854986924638 17.998952056115183,7.951213932300078" style="fill:none;stroke:black;stroke-width:1"/>
<polygon points="17.95573252027783,7.643854986924638 16.493635942148057,7.79391341537658 17.89150748791811,7.343557265440438" style="fill:none;stroke:black;stroke-width:1"/>
<polygon points="16.54462352387467,8.088643092076836 16.493635942148057,7.79391341537658 17.95573252027783,7.643854986924638" style="fill:none;stroke:black;stroke-width:1"/>
<polygon points="16.493635942148057,7.79391341537658 16.413804993206938,7.508861130491369 17.89150748791811,7.343557265440438" style="fill:none;stroke:black;stroke-width:1"/>
<polygon points="16.493635942148057,7.79391341537658 16.54462352387467,8.088643092076836 16.413804993206938,7.508861130491369" style="fill:none;stroke:black;stroke-width:1"/>
<polygon points="14.420787313867685,19.97732599055431 17.76008205560577,19.930536248551654 14.44374042728217,20.12748443228698" style="fill:none;stroke:black;stroke-width:1"/>
<polygon points="14.44374042728217,20.12748443228698 17.76008205560577,19.930536248551654 17.579437664293796,20.19321899896253" style="fill:none;stroke:black;stroke-width:1"/>
<polygon points="14.398806584003154,20.580276376185353 17.791003074670392,19.88384843158805 17.684902129805685,19.91518961492257" style="fill:none;stroke:black;stroke-width:1"/>
<polygon points="14.398806584003154,20.580276376185353 17.684902129805685,19.91518961492257 14.346730607655136,20.722722216626497" style="fill:none;stroke:black;stroke-width:1"/>
<polygon points="17.86395939701495,19.896275067821072 14.398806584003154,20.580276376185353 14.432781498646735,20.43195386781074" style="fill:none;stroke:black;stroke-width:1"/>
<polygon points="14.398806584003154,20.580276376185353 17.86395939701495,19.896275067821072 17.791003074670392,19.88384843158805" style="fill:none;stroke:black;stroke-width:1"/>
<polygon points="17.560277106530307,20.003354532347863 14.277458415179824,20.857112443796808 14.346730607655136,20.722722216626497" style="fill:none;stroke:black;stroke-width:1"/>
<polygon points="17.684902129805685,19.91518961492257 17.560277106530307,20.003354532347863 14.346730607655136,20.722722216626497" style="fill:none;stroke:black;stroke-width:1"/>
<polygon points="14.277458415179824,20.857112443796808 17.560277106530307,20.003354532347863 14.192180864765753,20.981379528085256" style="fill:none;stroke:black;stroke-width:1"/>
<polygon points="17.560277106530307,20.003354532347863 17.441376222037885,20.158315970948525 14.192180864765753,20.981379528085256" style="fill:none;stroke:black;stroke-width:1"/>
<polygon points="18.792827797117422,21.626906335998914 17.888620689655173,19.93896551724138 19.117082977488863,21.525906325940365" style="fill:none;stroke:black;stroke-width:1"/>
<polygon points="17.888620689655173,19.93896551724138 17.435430840844383,20.89771288179774 17.367410202603775,20.622486972891213" style="fill:none;stroke:black;stroke-width:1"/>
<polygon points="17.86083889994255,19.298480492990077 17.888620689655173,19.93896551724138 17.912614450884355,19.390984927501187" style="fill:none;stroke:black;stroke-width:1"/>
<polygon points="17.888620689655173,19.93896551724138 17.586325855048617,21.167223065661375 17.435430840844383,20.89771288179774" style="fill:none;stroke:black;stroke-width:1"/>
<polygon points="17.888620689655173,19.93896551724138 19.90220372894101,20.19513009939005 19.92965387842387,20.498285403518253" style="fill:none;stroke:black;stroke-width:1"/>
<polygon points="17.888620689655173,19.93896551724138 19.872865969798486,20.546048588471884 19.64198070822908,20.50288019755162" style="fill:none;stroke:black;stroke-width:1"/>
<polygon points="17.888620689655173,19.93896551724138 19.48785846993336,18.919314149929633 19.391253120317888,19.15847443245651" style="fill:none;stroke:black;stroke-width:1"/>
<polygon points="19.347975739621027,20.506093795668686 17.888620689655173,19.93896551724138 19.64198070822908,20.50288019755162" style="fill:none;stroke:black;stroke-width:1"/>
<polygon points="17.888620689655173,19.93896551724138 17.560277106530307,20.003354532347863 17.684902129805685,19.91518961492257" style="fill:none;stroke:black;stroke-width:1"/>
<polygon points="20.00423409898297,20.59647874590275 17.888620689655173,19.93896551724138 19.92965387842387,20.498285403518253" style="fill:none;stroke:black;stroke-width:1"/>
<polygon points="19.778377005501426,19.967906787658215 17.888620689655173,19.93896551724138 19.6228555725607,19.87486793029544" style="fill:none;stroke:black;stroke-width:1"/>
<polygon points="19.33257384075884,19.461141079787396 17.888620689655173,19.93896551724138 19.391253120317888,19.15847443245651" style="fill:none;stroke:black;stroke-width:1"/>
<polygon points="17.888620689655173,19.93896551724138 19.536048964356038,19.886364318883324 19.6228555725607,19.87486793029544" style="fill:none;stroke:black;stroke-width:1"/>
<polygon points="17.888620689655173,19.93896551724138 18.58514749566862,19.175338807081474 18.991934897675176,18.632218064115214" style="fill:none;stroke:black;stroke-width:1"/>
<polygon points="17.888620689655173,19.93896551724138 18.10582718756377,21.554728549431623 17.815754927805045,21.392638691286773" style="fill:none;stroke:black;stroke-width:1"/>
<polygon points="17.888620689655173,19.93896551724138 17.759833822076082,19.25574697316795 17.725970767114518,19.061823235288664" style="fill:none;stroke:black;stroke-width:1"/>
<polygon points="17.888620689655173,19.93896551724138 17.900308893315156,19.619537581524057 17.912614450884355,19.390984927501187" style="fill:none;stroke:black;stroke-width:1"/>
<polygon points="17.76008205560577,19.930536248551654 17.888620689655173,19.93896551724138 17.579437664293796,20.19321899896253" style="fill:none;stroke:black;stroke-width:1"/>
<polygon points="17.888620689655173,19.93896551724138 19.39139984327453,21.349901701873037 19.117082977488863,21.525906325940365" style="fill:none;stroke:black;stroke-width:1"/>
<polygon points="19.90220372894101,20.19513009939005 17.888620689655173,19.93896551724138 19.778377005501426,19.967906787658215" style="fill:none;stroke:black;stroke-width:1"/>
<polygon points="17.888620689655173,19.93896551724138 19.33257384075884,19.461141079787396 19.365857616842025,19.749950275848775" style="fill:none;stroke:black;stroke-width:1"/>
<polygon points="19.536048964356038,19.886364318883324 17.888620689655173,19.93896551724138 19.365857616842025,19.749950275848775" style="fill:none;stroke:black;stroke-width:1"/>
<polygon points="17.37294700776486,20.37038909215219 17.888620689655173,19.93896551724138 17.367410202603775,20.622486972891213" style="fill:none;stroke:black;stroke-width:1"/>
<polygon points="17.888620689655173,19.93896551724138 19.771446004255008,19.259049384002157 19.48785846993336,18.919314149929633" style="fill:none;stroke:black;stroke-width:1"/>
<polygon points="17.586325855048617,21.167223065661375 17.888620689655173,19.93896551724138 17.815754927805045,21.392638691286773" style="fill:none;stroke:black;stroke-width:1"/>
<polygon points="17.888620689655173,19.93896551724138 19.02749699652369,18.95169294672397 19.26306279174439,19.188674159467634" style="fill:none;stroke:black;stroke-width:1"/>
<polygon points="17.791003074670392,19.88384843158805 17.888620689655173,19.93896551724138 17.684902129805685,19.91518961492257" style="fill:none;stroke:black;stroke-width:1"/>
<polygon points="17.86395939701495,19.896275067821072 17.888620689655173,19.93896551724138 17.791003074670392,19.88384843158805" style="fill:none;stroke:black;stroke-width:1"/>
<polygon points="17.759833822076082,19.25574697316795 17.888620689655173,19.93896551724138 17.840573279083866,19.329176635488277" style="fill:none;stroke:black;stroke-width:1"/>
<polygon points="17.888620689655173,19.93896551724138 17.86083889994255,19.298480492990077 17.840573279083866,19.329176635488277" style="fill:none;stroke:black;stroke-width:1"/>
<polygon points="17.888620689655173,19.93896551724138 17.76008205560577,19.930536248551654 17.900308893315156,19.619537581524057" style="fill:none;stroke:black;stroke-width:1"/>
<polygon points="19.872865969798486,20.546048588471884 17.888620689655173,19.93896551724138 20.00423409898297,20.59647874590275" style="fill:none;stroke:black;stroke-width:1"/>
<polygon points="19.39139984327453,21.349901701873037 17.888620689655173,19.93896551724138 19.601055796964168,21.114747390000318" style="fill:none;stroke:black;stroke-width:1"/>
<polygon points="17.888620689655173,19.93896551724138 19.347975739621027,20.506093795668686 19.601055796964168,21.114747390000318" style="fill:none;stroke:black;stroke-width:1"/>
<polygon points="19.563914100993138,19.291122070744716 17.888620689655173,19.93896551724138 19.26306279174439,19.188674159467634" style="fill:none;stroke:black;stroke-width:1"/>
<polygon points="18.979573766664554,18.57233680238668 17.888620689655173,19.93896551724138 18.991934897675176,18.632218064115214" style="fill:none;stroke:black;stroke-width:1"/>
<polygon points="18.58514749566862,19.175338807081474 17.888620689655173,19.93896551724138 18.254906911363825,19.10273954919968" style="fill:none;stroke:black;stroke-width:1"/>
<polygon points="17.768777855124302,18.869361536511867 17.888620689655173,19.93896551724138 17.725970767114518,19.061823235288664" style="fill:none;stroke:black;stroke-width:1"/>
<polygon points="18.10582718756377,21.554728549431623 17.888620689655173,19.93896551724138 18.438905565544875,21.63757629199791" style="fill:none;stroke:black;stroke-width:1"/>
<polygon points="17.888620689655173,19.93896551724138 18.792827797117422,21.626906335998914 18.438905565544875,21.63757629199791" style="fill:none;stroke:black;stroke-width:1"/>
<polygon points="17.888620689655173,19.93896551724138 17.97335663692909,18.984587621561115 18.254906911363825,19.10273954919968" style="fill:none;stroke:black;stroke-width:1"/>
<polygon points="17.560277106530307,20.003354532347863 17.888620689655173,19.93896551724138 17.441376222037885,20.158315970948525" style="fill:none;stroke:black;stroke-width:1"/>
<polygon points="17.888620689655173,19.93896551724138 17.37294700776486,20.37038909215219 17.441376222037885,20.158315970948525" style="fill:none;stroke:black;stroke-width:1"/>
<polygon points="19.771446004255008,19.259049384002157 17.888620689655173,19.93896551724138 19.563914100993138,19.291122070744716" style="fill:none;stroke:black;stroke-width:1"/>
<polygon points="17.888620689655173,19.93896551724138 18.979573766664554,18.57233680238668 18.945097384002384,18.696870799823795" style="fill:none;stroke:black;stroke-width:1"/>
<polygon points="19.02749699652369,18.95169294672397 17.888620689655173,19.93896551724138 18.945097384002384,18.696870799823795" style="fill:none;stroke:black;stroke-width:1"/>
<polygon points="17.888620689655173,19.93896551724138 17.768777855124302,18.869361536511867 17.76189894441976,18.839662995155724" style="fill:none;stroke:black;stroke-width:1"/>
<polygon points="17.97335663692909,18.984587621561115 17.888620689655173,19.93896551724138 17.76189894441976,18.839662995155724" style="fill:none;stroke:black;stroke-width:1"/>
<polygon points="17.888620689655173,19.93896551724138 14.447822432099901,20.280042363025725 14.44374042728217,20.12748443228698" style="fill:none;stroke:black;stroke-width:1"/>
<polygon points="17.888620689655173,19.93896551724138 14.44374042728217,20.12748443228698 17.579437664293796,20.19321899896253" style="fill:none;stroke:black;stroke-width:1"/>
<polygon points="14.447822432099901,20.280042363025725 17.888620689655173,19.93896551724138 14.432781498646735,20.43195386781074" style="fill:none;stroke:black;stroke-width:1"/>
<polygon points="17.888620689655173,19.93896551724138 17.86395939701495,19.896275067821072 14.432781498646735,20.43195386781074" style="fill:none;stroke:black;stroke-width:1"/>
<polygon points="14.092351855001978,21.093600547564698 14.048347558320248,19.341140572708646 14.153385444563725,19.4461725287044" style="fill:none;stroke:black;stroke-width:1"/>
<polygon points="14.244548521318528,19.564233798066326 14.092351855001978,21.093600547564698 14.153385444563725,19.4461725287044" style="fill:none;stroke:black;stroke-width:1"/>
<polygon points="14.092351855001978,21.093600547564698 12.148066625567509,20.664334315401675 12.106678004328584,20.518909307559532" style="fill:none;stroke:black;stroke-width:1"/>
<polygon points="14.092351855001978,21.093600547564698 14.277458415179824,20.857112443796808 14.192180864765753,20.981379528085256" style="fill:none;stroke:black;stroke-width:1"/>
<polygon points="14.092351855001978,21.093600547564698 14.320313189626376,19.69348266602856 14.379398692628758,19.831900982712163" style="fill:none;stroke:black;stroke-width:1"/>
<polygon points="14.420787313867685,19.97732599055431 14.092351855001978,21.093600547564698 14.379398692628758,19.831900982712163" style="fill:none;stroke:black;stroke-width:1"/>
<polygon points="14.092351855001978,21.093600547564698 13.931177275580428,19.250774164789817 14.048347558320248,19.341140572708646" style="fill:none;stroke:black;stroke-width:1"/>
<polygon points="14.092351855001978,21.093600547564698 14.447822432099901,20.280042363025725 14.432781498646735,20.43195386781074" style="fill:none;stroke:black;stroke-width:1"/>
<polygon points="14.277458415179824,20.857112443796808 14.092351855001978,21.093600547564698 14.346730607655136,20.722722216626497" style="fill:none;stroke:black;stroke-width:1"/>
<polygon points="14.398806584003154,20.580276376185353 14.092351855001978,21.093600547564698 14.432781498646735,20.43195386781074" style="fill:none;stroke:black;stroke-width:1"/>
<polygon points="14.092351855001978,21.093600547564698 12.47911775987602,21.155094725405192 12.374079873632544,21.050062769409443" style="fill:none;stroke:black;stroke-width:1"/>
<polygon points="14.320313189626376,19.69348266602856 14.092351855001978,21.093600547564698 14.244548521318528,19.564233798066326" style="fill:none;stroke:black;stroke-width:1"/>
<polygon points="14.447822432099901,20.280042363025725 14.092351855001978,21.093600547564698 14.44374042728217,20.12748443228698" style="fill:none;stroke:black;stroke-width:1"/>
<polygon points="14.092351855001978,21.093600547564698 14.420787313867685,19.97732599055431 14.44374042728217,20.12748443228698" style="fill:none;stroke:black;stroke-width:1"/>
<polygon points="13.381754084943616,19.058883454985672 14.092351855001978,21.093600547564698 13.23453280168299,19.055471222126656" style="fill:none;stroke:black;stroke-width:1"/>
<polygon points="14.092351855001978,21.093600547564698 13.527037438664824,19.08029434490368 13.6683353519193,19.119404352851316" style="fill:none;stroke:black;stroke-width:1"/>
<polygon points="12.180706599387563,19.77364998408482 14.092351855001978,21.093600547564698 12.12866066759315,19.916043613007638" style="fill:none;stroke:black;stroke-width:1"/>
<polygon points="14.092351855001978,21.093600547564698 14.398806584003154,20.580276376185353 14.346730607655136,20.722722216626497" style="fill:none;stroke:black;stroke-width:1"/>
<polygon points="14.092351855001978,21.093600547564698 13.000428596673105,21.415954043942044 12.85912996627697,21.376830945262526" style="fill:none;stroke:black;stroke-width:1"/>
<polygon points="14.092351855001978,21.093600547564698 13.087660519233603,19.07023708607172 13.23453280168299,19.055471222126656" style="fill:none;stroke:black;stroke-width:1"/>
<polygon points="14.092351855001978,21.093600547564698 12.335297350668947,19.51504755187263 12.435181297244926,19.40281100171304" style="fill:none;stroke:black;stroke-width:1"/>
<polygon points="14.092351855001978,21.093600547564698 13.292966255601172,21.440821343991427 13.14572731491789,21.437389013698066" style="fill:none;stroke:black;stroke-width:1"/>
<polygon points="12.723656973719388,21.319757042909142 14.092351855001978,21.093600547564698 12.85912996627697,21.376830945262526" style="fill:none;stroke:black;stroke-width:1"/>
<polygon points="14.092351855001978,21.093600547564698 12.596288042615841,21.245461133324028 12.47911775987602,21.155094725405192" style="fill:none;stroke:black;stroke-width:1"/>
<polygon points="14.092351855001978,21.093600547564698 12.943405320157106,19.103060909538467 13.087660519233603,19.07023708607172" style="fill:none;stroke:black;stroke-width:1"/>
<polygon points="13.803808344476883,19.176478255204692 14.092351855001978,21.093600547564698 13.6683353519193,19.119404352851316" style="fill:none;stroke:black;stroke-width:1"/>
<polygon points="12.547932173470313,19.304326224035318 14.092351855001978,21.093600547564698 12.435181297244926,19.40281100171304" style="fill:none;stroke:black;stroke-width:1"/>
<polygon points="12.335297350668947,19.51504755187263 14.092351855001978,21.093600547564698 12.249985132497908,19.639298486904206" style="fill:none;stroke:black;stroke-width:1"/>
<polygon points="14.092351855001978,21.093600547564698 12.180706599387563,19.77364998408482 12.249985132497908,19.639298486904206" style="fill:none;stroke:black;stroke-width:1"/>
<polygon points="12.28291679687774,20.93200150004752 14.092351855001978,21.093600547564698 12.374079873632544,21.050062769409443" style="fill:none;stroke:black;stroke-width:1"/>
<polygon points="14.092351855001978,21.093600547564698 12.094767162972897,20.06431044356063 12.12866066759315,19.916043613007638" style="fill:none;stroke:black;stroke-width:1"/>
<polygon points="12.596288042615841,21.245461133324028 14.092351855001978,21.093600547564698 12.723656973719388,21.319757042909142" style="fill:none;stroke:black;stroke-width:1"/>
<polygon points="13.000428596673105,21.415954043942044 14.092351855001978,21.093600547564698 13.14572731491789,21.437389013698066" style="fill:none;stroke:black;stroke-width:1"/>
<polygon points="12.083724890914096,20.36875086582686 14.092351855001978,21.093600547564698 12.106678004328584,20.518909307559532" style="fill:none;stroke:black;stroke-width:1"/>
<polygon points="13.527037438664824,19.08029434490368 14.092351855001978,21.093600547564698 13.381754084943616,19.058883454985672" style="fill:none;stroke:black;stroke-width:1"/>
<polygon points="13.931177275580428,19.250774164789817 14.092351855001978,21.093600547564698 13.803808344476883,19.176478255204692" style="fill:none;stroke:black;stroke-width:1"/>
<polygon points="14.092351855001978,21.093600547564698 12.547932173470313,19.304326224035318 12.67150076043673,19.22093699782243" style="fill:none;stroke:black;stroke-width:1"/>
<polygon points="12.80397904088904,19.15352770272569 14.092351855001978,21.093600547564698 12.67150076043673,19.22093699782243" style="fill:none;stroke:black;stroke-width:1"/>
<polygon points="14.092351855001978,21.093600547564698 12.28291679687774,20.93200150004752 12.207152128569893,20.802752632085284" style="fill:none;stroke:black;stroke-width:1"/>
<polygon points="12.148066625567509,20.664334315401675 14.092351855001978,21.093600547564698 12.207152128569893,20.802752632085284" style="fill:none;stroke:black;stroke-width:1"/>
<polygon points="12.094767162972897,20.06431044356063 14.092351855001978,21.093600547564698 12.079655172413792,20.216206896551725" style="fill:none;stroke:black;stroke-width:1"/>
<polygon points="14.092351855001978,21.093600547564698 12.083724890914096,20.36875086582686 12.079655172413792,20.216206896551725" style="fill:none;stroke:black;stroke-width:1"/>
<polygon points="13.584135930669614,21.393259904237308 14.092351855001978,21.093600547564698 13.723586746057581,21.342801261273422" style="fill:none;stroke:black;stroke-width:1"/>
<polygon points="14.092351855001978,21.093600547564698 13.856091855528868,21.275396133996367 13.723586746057581,21.342801261273422" style="fill:none;stroke:black;stroke-width:1"/>
<polygon points="12.943405320157106,19.103060909538467 14.092351855001978,21.093600547564698 12.80397904088904,19.15352770272569" style="fill:none;stroke:black;stroke-width:1"/>
<polygon points="13.4398584883723,21.426071595077037 14.092351855001978,21.093600547564698 13.584135930669614,21.393259904237308" style="fill:none;stroke:black;stroke-width:1"/>
<polygon points="14.092351855001978,21.093600547564698 13.979668126577325,21.192029015421067 13.856091855528868,21.275396133996367" style="fill:none;stroke:black;stroke-width:1"/>
<polygon points="14.092351855001978,21.093600547564698 13.4398584883723,21.426071595077037 13.292966255601172,21.440821343991427" style="fill:none;stroke:black;stroke-width:1"/>
</svg>
