<?xml version="1.0" encoding="UTF-8" standalone="no"?>
<svg xmlns="http://www.w3.org/2000/svg" version="1.1" width="800" height="800">
<polygon points="16.190084306279125,19.782917997274215 17.68512416369535,18.108022140542875 18.61419213420225,19.884336620411037" style="fill:none;stroke:black;stroke-width:1"/>
<polygon points="15.345154333824661,10.935787796398074 13.43188544436184,10.684754333919031 14.012577489174344,9.143604453595552" style="fill:none;stroke:black;stroke-width:1"/>
<polygon points="21.69999857366743,6.218176996359545 21.951534402407745,4.703376257169675 23.45364244722127,6.289109694974913" style="fill:none;stroke:black;stroke-width:1"/>
<polygon points="18.074842405787756,4.3582064126705475 11.919512772246064,6.775692400328109 17.981814414504626,3.095841367209184" style="fill:none;stroke:black;stroke-width:1"/>
<polygon points="12.985600963011795,8.772481536713137 13.134137931034484,9.869310344827586 11.956331562831892,7.609471859077539" style="fill:none;stroke:black;stroke-width:1"/>
<polygon points="13.43188544436184,10.684754333919031 13.134137931034484,9.869310344827586 14.012577489174344,9.143604453595552" style="fill:none;stroke:black;stroke-width:1"/>
<polygon points="13.134137931034484,9.869310344827586 12.985600963011795,8.772481536713137 14.012577489174344,9.143604453595552" style="fill:none;stroke:black;stroke-width:1"/>
<polygon points="12.166761445799223,5.505937321048739 12.39014702655928,6.867866225350891 11.956331562831892,7.609471859077539" style="fill:none;stroke:black;stroke-width:1"/>
<polygon points="12.39014702655928,6.867866225350891 12.985600963011795,8.772481536713137 11.956331562831892,7.609471859077539" style="fill:none;stroke:black;stroke-width:1"/>
<polygon points="13.90073468837975,4.317017265204209 12.39014702655928,6.867866225350891 12.166761445799223,5.505937321048739" style="fill:none;stroke:black;stroke-width:1"/>
<polygon points="20.537281432292556,18.876412544329916 19.707737402165506,17.391873068776725 21.63516689918979,16.34894149049661" style="fill:none;stroke:black;stroke-width:1"/>
<polygon points="19.707737402165506,17.391873068776725 20.537281432292556,18.876412544329916 18.61419213420225,19.884336620411037" style="fill:none;stroke:black;stroke-width:1"/>
<polygon points="17.68512416369535,18.108022140542875 19.707737402165506,17.391873068776725 18.61419213420225,19.884336620411037" style="fill:none;stroke:black;stroke-width:1"/>
<polygon points="20.041437395325637,14.72532654525256 21.691854824866525,14.609624320723963 21.63516689918979,16.34894149049661" style="fill:none;stroke:black;stroke-width:1"/>
<polygon points="19.707737402165506,17.391873068776725 20.041437395325637,14.72532654525256 21.63516689918979,16.34894149049661" style="fill:none;stroke:black;stroke-width:1"/>
<polygon points="16.22526345453667,9.218872744777482 15.345154333824661,10.935787796398074 14.012577489174344,9.143604453595552" style="fill:none;stroke:black;stroke-width:1"/>
<polygon points="15.345154333824661,10.935787796398074 16.22526345453667,9.218872744777482 17.595045015100876,10.872811162640454" style="fill:none;stroke:black;stroke-width:1"/>
<polygon points="21.69999857366743,6.218176996359545 19.814568237998692,5.250530898780703 21.951534402407745,4.703376257169675" style="fill:none;stroke:black;stroke-width:1"/>
<polygon points="17.981814414504626,3.095841367209184 15.955823073138795,3.812389732840087 15.771942205110356,3.36017154267628" style="fill:none;stroke:black;stroke-width:1"/>
<polygon points="14.194257690020246,5.031761651354412 12.39014702655928,6.867866225350891 13.90073468837975,4.317017265204209" style="fill:none;stroke:black;stroke-width:1"/>
<polygon points="12.39014702655928,6.867866225350891 14.194257690020246,5.031761651354412 12.985600963011795,8.772481536713137" style="fill:none;stroke:black;stroke-width:1"/>
<polygon points="14.194257690020246,5.031761651354412 13.90073468837975,4.317017265204209 15.771942205110356,3.36017154267628" style="fill:none;stroke:black;stroke-width:1"/>
<polygon points="23.278622121107702,8.528965726810164 21.69999857366743,6.218176996359545 23.45364244722127,6.289109694974913" style="fill:none;stroke:black;stroke-width:1"/>
<polygon points="21.691854824866525,14.609624320723963 23.278622121107702,8.528965726810164 21.63516689918979,16.34894149049661" style="fill:none;stroke:black;stroke-width:1"/>
<polygon points="23.278622121107702,8.528965726810164 21.691854824866525,14.609624320723963 21.981506337286035,12.463623767847546" style="fill:none;stroke:black;stroke-width:1"/>
<polygon points="13.18688767467826,12.135887755945966 13.134137931034484,9.869310344827586 13.43188544436184,10.684754333919031" style="fill:none;stroke:black;stroke-width:1"/>
<polygon points="13.134137931034484,9.869310344827586 13.18688767467826,12.135887755945966 11.956331562831892,7.609471859077539" style="fill:none;stroke:black;stroke-width:1"/>
<polygon points="19.859809198739164,10.820055204420132 19.210834641727295,11.598890281562507 17.595045015100876,10.872811162640454" style="fill:none;stroke:black;stroke-width:1"/>
<polygon points="20.041437395325637,14.72532654525256 20.1164386997551,12.813445158776007 21.691854824866525,14.609624320723963" style="fill:none;stroke:black;stroke-width:1"/>
<polygon points="21.691854824866525,14.609624320723963 20.1164386997551,12.813445158776007 21.981506337286035,12.463623767847546" style="fill:none;stroke:black;stroke-width:1"/>
<polygon points="20.1164386997551,12.813445158776007 19.859809198739164,10.820055204420132 21.981506337286035,12.463623767847546" style="fill:none;stroke:black;stroke-width:1"/>
<polygon points="19.859809198739164,10.820055204420132 20.1164386997551,12.813445158776007 19.210834641727295,11.598890281562507" style="fill:none;stroke:black;stroke-width:1"/>
<polygon points="21.120152885423067,23.04377146577785 19.707737402165506,17.391873068776725 17.68512416369535,18.108022140542875" style="fill:none;stroke:black;stroke-width:1"/>
<polygon points="19.707737402165506,17.391873068776725 21.120152885423067,23.04377146577785 21.23993896021036,22.925258460479" style="fill:none;stroke:black;stroke-width:1"/>
<polygon points="19.79344353089123,23.794887793676963 19.947383221043612,23.727226068444075 17.68512416369535,18.108022140542875" style="fill:none;stroke:black;stroke-width:1"/>
<polygon points="15.086240566231204,9.039174521380424 16.22526345453667,9.218872744777482 14.012577489174344,9.143604453595552" style="fill:none;stroke:black;stroke-width:1"/>
<polygon points="12.985600963011795,8.772481536713137 15.086240566231204,9.039174521380424 14.012577489174344,9.143604453595552" style="fill:none;stroke:black;stroke-width:1"/>
<polygon points="14.194257690020246,5.031761651354412 15.086240566231204,9.039174521380424 12.985600963011795,8.772481536713137" style="fill:none;stroke:black;stroke-width:1"/>
<polygon points="16.22526345453667,9.218872744777482 18.4551399057622,9.29211479870499 17.595045015100876,10.872811162640454" style="fill:none;stroke:black;stroke-width:1"/>
<polygon points="18.4551399057622,9.29211479870499 19.859809198739164,10.820055204420132 17.595045015100876,10.872811162640454" style="fill:none;stroke:black;stroke-width:1"/>
<polygon points="19.859809198739164,10.820055204420132 18.4551399057622,9.29211479870499 20.259885399288954,8.905858086760482" style="fill:none;stroke:black;stroke-width:1"/>
<polygon points="19.814568237998692,5.250530898780703 19.88529164777931,4.239003323918882 21.951534402407745,4.703376257169675" style="fill:none;stroke:black;stroke-width:1"/>
<polygon points="19.88529164777931,4.239003323918882 19.814568237998692,5.250530898780703 18.074842405787756,4.3582064126705475" style="fill:none;stroke:black;stroke-width:1"/>
<polygon points="21.951534402407745,4.703376257169675 19.88529164777931,4.239003323918882 17.981814414504626,3.095841367209184" style="fill:none;stroke:black;stroke-width:1"/>
<polygon points="19.88529164777931,4.239003323918882 18.074842405787756,4.3582064126705475 17.981814414504626,3.095841367209184" style="fill:none;stroke:black;stroke-width:1"/>
<polygon points="21.43918957682024,8.331182894535013 19.814568237998692,5.250530898780703 21.69999857366743,6.218176996359545" style="fill:none;stroke:black;stroke-width:1"/>
<polygon points="23.278622121107702,8.528965726810164 21.43918957682024,8.331182894535013 21.69999857366743,6.218176996359545" style="fill:none;stroke:black;stroke-width:1"/>
<polygon points="22.02272022379826,10.181612502853675 23.278622121107702,8.528965726810164 21.981506337286035,12.463623767847546" style="fill:none;stroke:black;stroke-width:1"/>
<polygon points="19.859809198739164,10.820055204420132 22.02272022379826,10.181612502853675 21.981506337286035,12.463623767847546" style="fill:none;stroke:black;stroke-width:1"/>
<polygon points="22.02272022379826,10.181612502853675 19.859809198739164,10.820055204420132 20.259885399288954,8.905858086760482" style="fill:none;stroke:black;stroke-width:1"/>
<polygon points="21.43918957682024,8.331182894535013 22.02272022379826,10.181612502853675 20.259885399288954,8.905858086760482" style="fill:none;stroke:black;stroke-width:1"/>
<polygon points="22.02272022379826,10.181612502853675 21.43918957682024,8.331182894535013 23.278622121107702,8.528965726810164" style="fill:none;stroke:black;stroke-width:1"/>
<polygon points="14.31502189717367,19.62862094128281 17.073006062835134,11.628041760822043 17.595045015100876,10.872811162640454" style="fill:none;stroke:black;stroke-width:1"/>
<polygon points="13.227158411932887,22.152526086849242 17.073006062835134,11.628041760822043 13.21948136800724,22.228449462087507" style="fill:none;stroke:black;stroke-width:1"/>
<polygon points="17.073006062835134,11.628041760822043 15.345154333824661,10.935787796398074 17.595045015100876,10.872811162640454" style="fill:none;stroke:black;stroke-width:1"/>
<polygon points="21.120152885423067,23.04377146577785 20.751724137931035,21.64448275862069 21.23993896021036,22.925258460479" style="fill:none;stroke:black;stroke-width:1"/>
<polygon points="21.266896578697462,21.882967589574278 21.551358988569348,24.262473476294407 20.041437395325637,14.72532654525256" style="fill:none;stroke:black;stroke-width:1"/>
<polygon points="21.456152337899557,22.417296719088 20.041437395325637,14.72532654525256 19.707737402165506,17.391873068776725" style="fill:none;stroke:black;stroke-width:1"/>
<polygon points="21.456152337899557,22.417296719088 21.4416929120489,22.22178053453876 20.041437395325637,14.72532654525256" style="fill:none;stroke:black;stroke-width:1"/>
<polygon points="21.419269308502763,22.606862150537125 21.456152337899557,22.417296719088 19.707737402165506,17.391873068776725" style="fill:none;stroke:black;stroke-width:1"/>
<polygon points="14.310390086580796,18.387691194621347 15.492277767196747,17.480027313066376 16.190084306279125,19.782917997274215" style="fill:none;stroke:black;stroke-width:1"/>
<polygon points="15.492277767196747,17.480027313066376 17.68512416369535,18.108022140542875 16.190084306279125,19.782917997274215" style="fill:none;stroke:black;stroke-width:1"/>
<polygon points="15.086240566231204,9.039174521380424 17.25043127797837,8.975795913564703 16.22526345453667,9.218872744777482" style="fill:none;stroke:black;stroke-width:1"/>
<polygon points="17.25043127797837,8.975795913564703 18.4551399057622,9.29211479870499 16.22526345453667,9.218872744777482" style="fill:none;stroke:black;stroke-width:1"/>
<polygon points="12.096412001777658,6.786983472887696 11.919512772246064,6.775692400328109 18.074842405787756,4.3582064126705475" style="fill:none;stroke:black;stroke-width:1"/>
<polygon points="12.266647452546648,6.807464379387522 12.096412001777658,6.786983472887696 18.074842405787756,4.3582064126705475" style="fill:none;stroke:black;stroke-width:1"/>
<polygon points="12.585663186728215,6.8742213535186645 12.429853166785884,6.836691534655278 18.074842405787756,4.3582064126705475" style="fill:none;stroke:black;stroke-width:1"/>
<polygon points="12.429853166785884,6.836691534655278 12.266647452546648,6.807464379387522 18.074842405787756,4.3582064126705475" style="fill:none;stroke:black;stroke-width:1"/>
<polygon points="20.1164386997551,12.813445158776007 16.037559908475703,12.337389060610922 19.210834641727295,11.598890281562507" style="fill:none;stroke:black;stroke-width:1"/>
<polygon points="13.979643275808792,13.742035912204857 16.037559908475703,12.337389060610922 20.1164386997551,12.813445158776007" style="fill:none;stroke:black;stroke-width:1"/>
<polygon points="15.492277767196747,17.480027313066376 19.069206592525582,23.948603676505673 17.68512416369535,18.108022140542875" style="fill:none;stroke:black;stroke-width:1"/>
<polygon points="14.325980759657442,13.286217232987003 14.378832700154158,15.149115551582069 13.609967278091123,16.122916520976638" style="fill:none;stroke:black;stroke-width:1"/>
<polygon points="14.378832700154158,15.149115551582069 14.310390086580796,18.387691194621347 13.609967278091123,16.122916520976638" style="fill:none;stroke:black;stroke-width:1"/>
<polygon points="14.927637655776042,11.672573929783987 13.18688767467826,12.135887755945966 13.43188544436184,10.684754333919031" style="fill:none;stroke:black;stroke-width:1"/>
<polygon points="15.345154333824661,10.935787796398074 14.927637655776042,11.672573929783987 13.43188544436184,10.684754333919031" style="fill:none;stroke:black;stroke-width:1"/>
<polygon points="21.4416929120489,22.22178053453876 21.376336171217318,22.0399905008941 20.041437395325637,14.72532654525256" style="fill:none;stroke:black;stroke-width:1"/>
<polygon points="21.376336171217318,22.0399905008941 21.266896578697462,21.882967589574278 20.041437395325637,14.72532654525256" style="fill:none;stroke:black;stroke-width:1"/>
<polygon points="21.376336171217318,22.0399905008941 21.419269308502763,22.606862150537125 21.266896578697462,21.882967589574278" style="fill:none;stroke:black;stroke-width:1"/>
<polygon points="21.456152337899557,22.417296719088 21.376336171217318,22.0399905008941 21.4416929120489,22.22178053453876" style="fill:none;stroke:black;stroke-width:1"/>
<polygon points="21.376336171217318,22.0399905008941 21.456152337899557,22.417296719088 21.419269308502763,22.606862150537125" style="fill:none;stroke:black;stroke-width:1"/>
<polygon points="21.266896578697462,21.882967589574278 21.120659650350532,21.75860787063028 21.551358988569348,24.262473476294407" style="fill:none;stroke:black;stroke-width:1"/>
<polygon points="21.120659650350532,21.75860787063028 20.751724137931035,21.64448275862069 20.944910902037716,21.67480741411309" style="fill:none;stroke:black;stroke-width:1"/>
<polygon points="20.751724137931035,21.64448275862069 21.120659650350532,21.75860787063028 21.23993896021036,22.925258460479" style="fill:none;stroke:black;stroke-width:1"/>
<polygon points="21.34163480555425,22.77783865970746 19.707737402165506,17.391873068776725 21.23993896021036,22.925258460479" style="fill:none;stroke:black;stroke-width:1"/>
<polygon points="21.34163480555425,22.77783865970746 21.419269308502763,22.606862150537125 19.707737402165506,17.391873068776725" style="fill:none;stroke:black;stroke-width:1"/>
<polygon points="21.419269308502763,22.606862150537125 21.34163480555425,22.77783865970746 21.266896578697462,21.882967589574278" style="fill:none;stroke:black;stroke-width:1"/>
<polygon points="21.120659650350532,21.75860787063028 21.34163480555425,22.77783865970746 21.23993896021036,22.925258460479" style="fill:none;stroke:black;stroke-width:1"/>
<polygon points="21.34163480555425,22.77783865970746 21.120659650350532,21.75860787063028 21.266896578697462,21.882967589574278" style="fill:none;stroke:black;stroke-width:1"/>
<polygon points="21.43918957682024,8.331182894535013 14.082124817287855,8.486038291589521 19.814568237998692,5.250530898780703" style="fill:none;stroke:black;stroke-width:1"/>
<polygon points="13.15142137763469,9.131233406311921 14.082124817287855,8.486038291589521 14.095712634640396,8.73219915766498" style="fill:none;stroke:black;stroke-width:1"/>
<polygon points="19.414621989725546,8.912417305748981 21.43918957682024,8.331182894535013 20.259885399288954,8.905858086760482" style="fill:none;stroke:black;stroke-width:1"/>
<polygon points="18.4551399057622,9.29211479870499 19.414621989725546,8.912417305748981 20.259885399288954,8.905858086760482" style="fill:none;stroke:black;stroke-width:1"/>
<polygon points="19.414621989725546,8.912417305748981 14.082124817287855,8.486038291589521 21.43918957682024,8.331182894535013" style="fill:none;stroke:black;stroke-width:1"/>
<polygon points="14.082124817287855,8.486038291589521 19.414621989725546,8.912417305748981 14.095712634640396,8.73219915766498" style="fill:none;stroke:black;stroke-width:1"/>
<polygon points="17.25043127797837,8.975795913564703 19.414621989725546,8.912417305748981 18.4551399057622,9.29211479870499" style="fill:none;stroke:black;stroke-width:1"/>
<polygon points="12.024493367195511,8.393051463700079 12.096412001777658,6.786983472887696 12.266647452546648,6.807464379387522" style="fill:none;stroke:black;stroke-width:1"/>
<polygon points="12.73371155460649,6.919610250805372 12.585663186728215,6.8742213535186645 18.074842405787756,4.3582064126705475" style="fill:none;stroke:black;stroke-width:1"/>
<polygon points="19.814568237998692,5.250530898780703 13.299140088944181,7.206189870078621 18.074842405787756,4.3582064126705475" style="fill:none;stroke:black;stroke-width:1"/>
<polygon points="13.44429174205549,7.324436212599203 13.299140088944181,7.206189870078621 19.814568237998692,5.250530898780703" style="fill:none;stroke:black;stroke-width:1"/>
<polygon points="18.43015365458905,15.012439932083979 16.055401923571914,15.653284590376169 20.1164386997551,12.813445158776007" style="fill:none;stroke:black;stroke-width:1"/>
<polygon points="17.073006062835134,11.628041760822043 13.20387586151664,22.3118181592493 13.21948136800724,22.228449462087507" style="fill:none;stroke:black;stroke-width:1"/>
<polygon points="18.243833773680056,23.550604956115524 15.492277767196747,17.480027313066376 14.310390086580796,18.387691194621347" style="fill:none;stroke:black;stroke-width:1"/>
<polygon points="14.378832700154158,15.149115551582069 18.243833773680056,23.550604956115524 14.310390086580796,18.387691194621347" style="fill:none;stroke:black;stroke-width:1"/>
<polygon points="14.927637655776042,11.672573929783987 13.54143704459758,14.257332545527017 13.18688767467826,12.135887755945966" style="fill:none;stroke:black;stroke-width:1"/>
<polygon points="13.54143704459758,14.257332545527017 14.927637655776042,11.672573929783987 14.325980759657442,13.286217232987003" style="fill:none;stroke:black;stroke-width:1"/>
<polygon points="13.54143704459758,14.257332545527017 14.325980759657442,13.286217232987003 13.609967278091123,16.122916520976638" style="fill:none;stroke:black;stroke-width:1"/>
<polygon points="13.54143704459758,14.257332545527017 13.609967278091123,16.122916520976638 11.956331562831892,7.609471859077539" style="fill:none;stroke:black;stroke-width:1"/>
<polygon points="13.18688767467826,12.135887755945966 13.54143704459758,14.257332545527017 11.956331562831892,7.609471859077539" style="fill:none;stroke:black;stroke-width:1"/>
<polygon points="19.947383221043612,23.727226068444075 20.086491439381724,23.651096104194103 17.68512416369535,18.108022140542875" style="fill:none;stroke:black;stroke-width:1"/>
<polygon points="20.086491439381724,23.651096104194103 20.21551707990809,23.57648926636918 17.68512416369535,18.108022140542875" style="fill:none;stroke:black;stroke-width:1"/>
<polygon points="20.086491439381724,23.651096104194103 19.947383221043612,23.727226068444075 19.405278573530143,22.01393075966999" style="fill:none;stroke:black;stroke-width:1"/>
<polygon points="20.47356527646602,23.427283659473183 20.60258937474499,23.35268085602518 17.68512416369535,18.108022140542875" style="fill:none;stroke:black;stroke-width:1"/>
<polygon points="20.47356527646602,23.427283659473183 19.9949205251854,21.740690026148386 20.60258937474499,23.35268085602518" style="fill:none;stroke:black;stroke-width:1"/>
<polygon points="20.989661669581892,23.128872445681182 21.120152885423067,23.04377146577785 17.68512416369535,18.108022140542875" style="fill:none;stroke:black;stroke-width:1"/>
<polygon points="20.860637571302924,23.203475249129184 20.989661669581892,23.128872445681182 17.68512416369535,18.108022140542875" style="fill:none;stroke:black;stroke-width:1"/>
<polygon points="20.989661669581892,23.128872445681182 20.751724137931035,21.64448275862069 21.120152885423067,23.04377146577785" style="fill:none;stroke:black;stroke-width:1"/>
<polygon points="20.60258937474499,23.35268085602518 20.731613473023955,23.278078052577182 17.68512416369535,18.108022140542875" style="fill:none;stroke:black;stroke-width:1"/>
<polygon points="20.731613473023955,23.278078052577182 20.860637571302924,23.203475249129184 17.68512416369535,18.108022140542875" style="fill:none;stroke:black;stroke-width:1"/>
<polygon points="20.751724137931035,21.64448275862069 12.080068977089834,22.9984552423007 20.944910902037716,21.67480741411309" style="fill:none;stroke:black;stroke-width:1"/>
<polygon points="19.947383221043612,23.727226068444075 19.27625447525118,22.08853356311799 19.405278573530143,22.01393075966999" style="fill:none;stroke:black;stroke-width:1"/>
<polygon points="19.79344353089123,23.794887793676963 19.27625447525118,22.08853356311799 19.947383221043612,23.727226068444075" style="fill:none;stroke:black;stroke-width:1"/>
<polygon points="19.44903704322097,23.898356801505088 18.889182180414274,22.31234197346199 19.018206278693242,22.237739170013988" style="fill:none;stroke:black;stroke-width:1"/>
<polygon points="11.94989072461859,22.618532788630667 14.378832700154158,15.149115551582069 14.325980759657442,13.286217232987003" style="fill:none;stroke:black;stroke-width:1"/>
<polygon points="11.957567768544234,22.5426094133924 11.94989072461859,22.618532788630667 14.325980759657442,13.286217232987003" style="fill:none;stroke:black;stroke-width:1"/>
<polygon points="21.848588062154565,18.469109169041126 22.490662901420773,19.735856850082932 17.073006062835134,11.628041760822043" style="fill:none;stroke:black;stroke-width:1"/>
<polygon points="20.1164386997551,12.813445158776007 23.75978837115438,18.097444912348614 21.780900218852384,18.41140513421154" style="fill:none;stroke:black;stroke-width:1"/>
<polygon points="23.75978837115438,18.097444912348614 20.1164386997551,12.813445158776007 20.041437395325637,14.72532654525256" style="fill:none;stroke:black;stroke-width:1"/>
<polygon points="13.332094733857726,9.294262186221351 13.891282077834417,9.14298242744536 13.501429069687912,9.312364446307619" style="fill:none;stroke:black;stroke-width:1"/>
<polygon points="17.25043127797837,8.975795913564703 13.332094733857726,9.294262186221351 13.501429069687912,9.312364446307619" style="fill:none;stroke:black;stroke-width:1"/>
<polygon points="19.414621989725546,8.912417305748981 14.028407201190465,8.958145287661207 14.095712634640396,8.73219915766498" style="fill:none;stroke:black;stroke-width:1"/>
<polygon points="14.028407201190465,8.958145287661207 19.414621989725546,8.912417305748981 13.891282077834417,9.14298242744536" style="fill:none;stroke:black;stroke-width:1"/>
<polygon points="13.332094733857726,9.294262186221351 14.028407201190465,8.958145287661207 13.891282077834417,9.14298242744536" style="fill:none;stroke:black;stroke-width:1"/>
<polygon points="14.028407201190465,8.958145287661207 13.15142137763469,9.131233406311921 14.095712634640396,8.73219915766498" style="fill:none;stroke:black;stroke-width:1"/>
<polygon points="13.701179331941066,9.266019111356464 19.414621989725546,8.912417305748981 17.25043127797837,8.975795913564703" style="fill:none;stroke:black;stroke-width:1"/>
<polygon points="19.414621989725546,8.912417305748981 13.701179331941066,9.266019111356464 13.891282077834417,9.14298242744536" style="fill:none;stroke:black;stroke-width:1"/>
<polygon points="13.701179331941066,9.266019111356464 17.25043127797837,8.975795913564703 13.501429069687912,9.312364446307619" style="fill:none;stroke:black;stroke-width:1"/>
<polygon points="13.891282077834417,9.14298242744536 13.701179331941066,9.266019111356464 13.501429069687912,9.312364446307619" style="fill:none;stroke:black;stroke-width:1"/>
<polygon points="12.429853166785884,6.836691534655278 12.222660527836872,8.444508068296766 12.266647452546648,6.807464379387522" style="fill:none;stroke:black;stroke-width:1"/>
<polygon points="12.222660527836872,8.444508068296766 12.024493367195511,8.393051463700079 12.266647452546648,6.807464379387522" style="fill:none;stroke:black;stroke-width:1"/>
<polygon points="12.222660527836872,8.444508068296766 12.429853166785884,6.836691534655278 12.585663186728215,6.8742213535186645" style="fill:none;stroke:black;stroke-width:1"/>
<polygon points="12.096412001777658,6.786983472887696 11.807002254154085,8.339387785332894 11.919512772246064,6.775692400328109" style="fill:none;stroke:black;stroke-width:1"/>
<polygon points="12.024493367195511,8.393051463700079 11.807002254154085,8.339387785332894 12.096412001777658,6.786983472887696" style="fill:none;stroke:black;stroke-width:1"/>
<polygon points="11.807002254154085,8.339387785332894 12.024493367195511,8.393051463700079 11.574380904331147,8.283290327239431" style="fill:none;stroke:black;stroke-width:1"/>
<polygon points="13.010423862326805,7.031970388773157 12.873632312653555,6.972414641343096 18.074842405787756,4.3582064126705475" style="fill:none;stroke:black;stroke-width:1"/>
<polygon points="12.873632312653555,6.972414641343096 12.73371155460649,6.919610250805372 18.074842405787756,4.3582064126705475" style="fill:none;stroke:black;stroke-width:1"/>
<polygon points="13.153349302133378,7.108971870137379 13.010423862326805,7.031970388773157 18.074842405787756,4.3582064126705475" style="fill:none;stroke:black;stroke-width:1"/>
<polygon points="13.299140088944181,7.206189870078621 13.153349302133378,7.108971870137379 18.074842405787756,4.3582064126705475" style="fill:none;stroke:black;stroke-width:1"/>
<polygon points="11.54718680796368,6.782454097718869 15.955823073138795,3.812389732840087 17.981814414504626,3.095841367209184" style="fill:none;stroke:black;stroke-width:1"/>
<polygon points="11.54718680796368,6.782454097718869 11.352491988747193,6.801394038013825 15.955823073138795,3.812389732840087" style="fill:none;stroke:black;stroke-width:1"/>
<polygon points="10.555177981018899,7.419143289800646 14.194257690020246,5.031761651354412 15.771942205110356,3.36017154267628" style="fill:none;stroke:black;stroke-width:1"/>
<polygon points="10.849246922036063,8.058330413534467 15.086240566231204,9.039174521380424 14.194257690020246,5.031761651354412" style="fill:none;stroke:black;stroke-width:1"/>
<polygon points="10.674745379954,7.885401501254281 10.849246922036063,8.058330413534467 14.194257690020246,5.031761651354412" style="fill:none;stroke:black;stroke-width:1"/>
<polygon points="20.62200118790939,16.174823001800462 20.1164386997551,12.813445158776007 21.780900218852384,18.41140513421154" style="fill:none;stroke:black;stroke-width:1"/>
<polygon points="20.62200118790939,16.174823001800462 18.43015365458905,15.012439932083979 20.1164386997551,12.813445158776007" style="fill:none;stroke:black;stroke-width:1"/>
<polygon points="12.634712512935456,15.885182344708937 13.979643275808792,13.742035912204857 20.1164386997551,12.813445158776007" style="fill:none;stroke:black;stroke-width:1"/>
<polygon points="12.714428499229143,17.78935208949862 12.634712512935456,15.885182344708937 20.1164386997551,12.813445158776007" style="fill:none;stroke:black;stroke-width:1"/>
<polygon points="16.055401923571914,15.653284590376169 14.808636536628486,17.68273614548321 20.1164386997551,12.813445158776007" style="fill:none;stroke:black;stroke-width:1"/>
<polygon points="14.808636536628486,17.68273614548321 12.714428499229143,17.78935208949862 20.1164386997551,12.813445158776007" style="fill:none;stroke:black;stroke-width:1"/>
<polygon points="19.210834641727295,11.598890281562507 14.095647640669391,22.466015066019914 17.595045015100876,10.872811162640454" style="fill:none;stroke:black;stroke-width:1"/>
<polygon points="13.14553571585008,22.496581065528304 13.17947126448492,22.401579769896983 17.073006062835134,11.628041760822043" style="fill:none;stroke:black;stroke-width:1"/>
<polygon points="13.17947126448492,22.401579769896983 13.20387586151664,22.3118181592493 17.073006062835134,11.628041760822043" style="fill:none;stroke:black;stroke-width:1"/>
<polygon points="13.101487663350404,22.59558618467879 13.14553571585008,22.496581065528304 17.073006062835134,11.628041760822043" style="fill:none;stroke:black;stroke-width:1"/>
<polygon points="20.21551707990809,23.57648926636918 20.344541178187058,23.501886462921178 17.68512416369535,18.108022140542875" style="fill:none;stroke:black;stroke-width:1"/>
<polygon points="20.344541178187058,23.501886462921178 20.47356527646602,23.427283659473183 17.68512416369535,18.108022140542875" style="fill:none;stroke:black;stroke-width:1"/>
<polygon points="19.673298596423365,21.864312748563435 20.344541178187058,23.501886462921178 20.21551707990809,23.57648926636918" style="fill:none;stroke:black;stroke-width:1"/>
<polygon points="19.9949205251854,21.740690026148386 20.173200749816097,21.695302718968424 20.60258937474499,23.35268085602518" style="fill:none;stroke:black;stroke-width:1"/>
<polygon points="20.173200749816097,21.695302718968424 20.731613473023955,23.278078052577182 20.60258937474499,23.35268085602518" style="fill:none;stroke:black;stroke-width:1"/>
<polygon points="10.538002855661928,18.165348580840387 20.173200749816097,21.695302718968424 11.177692480079429,15.694632005948948" style="fill:none;stroke:black;stroke-width:1"/>
<polygon points="20.173200749816097,21.695302718968424 19.9949205251854,21.740690026148386 11.177692480079429,15.694632005948948" style="fill:none;stroke:black;stroke-width:1"/>
<polygon points="19.534322613421324,21.939273872951542 20.086491439381724,23.651096104194103 19.405278573530143,22.01393075966999" style="fill:none;stroke:black;stroke-width:1"/>
<polygon points="20.086491439381724,23.651096104194103 19.534322613421324,21.939273872951542 20.21551707990809,23.57648926636918" style="fill:none;stroke:black;stroke-width:1"/>
<polygon points="19.534322613421324,21.939273872951542 19.673298596423365,21.864312748563435 20.21551707990809,23.57648926636918" style="fill:none;stroke:black;stroke-width:1"/>
<polygon points="10.848925489108089,20.76149406660761 12.080068977089834,22.9984552423007 20.751724137931035,21.64448275862069" style="fill:none;stroke:black;stroke-width:1"/>
<polygon points="16.48763014502304,25.478090869548737 21.120659650350532,21.75860787063028 20.944910902037716,21.67480741411309" style="fill:none;stroke:black;stroke-width:1"/>
<polygon points="14.713145802116657,12.401328837943701 19.534322613421324,21.939273872951542 12.523096326330556,23.1011550807212" style="fill:none;stroke:black;stroke-width:1"/>
<polygon points="18.76015808213531,22.38694477690999 19.069206592525582,23.948603676505673 18.63113398385634,22.461547580357987" style="fill:none;stroke:black;stroke-width:1"/>
<polygon points="19.14723037697221,22.163136366565986 19.27625447525118,22.08853356311799 19.79344353089123,23.794887793676963" style="fill:none;stroke:black;stroke-width:1"/>
<polygon points="19.44903704322097,23.898356801505088 19.262553899741746,23.93093922130712 18.889182180414274,22.31234197346199" style="fill:none;stroke:black;stroke-width:1"/>
<polygon points="18.76015808213531,22.38694477690999 19.262553899741746,23.93093922130712 19.069206592525582,23.948603676505673" style="fill:none;stroke:black;stroke-width:1"/>
<polygon points="19.262553899741746,23.93093922130712 18.76015808213531,22.38694477690999 18.889182180414274,22.31234197346199" style="fill:none;stroke:black;stroke-width:1"/>
<polygon points="19.069206592525582,23.948603676505673 19.262553899741746,23.93093922130712 17.68512416369535,18.108022140542875" style="fill:none;stroke:black;stroke-width:1"/>
<polygon points="19.262553899741746,23.93093922130712 19.44903704322097,23.898356801505088 17.68512416369535,18.108022140542875" style="fill:none;stroke:black;stroke-width:1"/>
<polygon points="14.927637655776042,11.672573929783987 12.361336095640414,21.798915276572064 14.325980759657442,13.286217232987003" style="fill:none;stroke:black;stroke-width:1"/>
<polygon points="14.378832700154158,15.149115551582069 11.963944477224809,22.792954543985502 18.27916084788398,22.812581366331706" style="fill:none;stroke:black;stroke-width:1"/>
<polygon points="16.27919953321943,21.04240929282019 17.073006062835134,11.628041760822043 14.31502189717367,19.62862094128281" style="fill:none;stroke:black;stroke-width:1"/>
<polygon points="16.27919953321943,21.04240929282019 18.70198203941144,20.707502850277926 17.073006062835134,11.628041760822043" style="fill:none;stroke:black;stroke-width:1"/>
<polygon points="20.166160614877295,18.857025193258075 21.848588062154565,18.469109169041126 17.073006062835134,11.628041760822043" style="fill:none;stroke:black;stroke-width:1"/>
<polygon points="18.70198203941144,20.707502850277926 20.166160614877295,18.857025193258075 17.073006062835134,11.628041760822043" style="fill:none;stroke:black;stroke-width:1"/>
<polygon points="22.490662901420773,19.735856850082932 21.249814139804528,21.98731953864431 17.073006062835134,11.628041760822043" style="fill:none;stroke:black;stroke-width:1"/>
<polygon points="21.249814139804528,21.98731953864431 13.101487663350404,22.59558618467879 17.073006062835134,11.628041760822043" style="fill:none;stroke:black;stroke-width:1"/>
<polygon points="21.624389360747692,14.139743926534202 23.252728196059138,15.99042506120413 20.041437395325637,14.72532654525256" style="fill:none;stroke:black;stroke-width:1"/>
<polygon points="23.252728196059138,15.99042506120413 23.75978837115438,18.097444912348614 20.041437395325637,14.72532654525256" style="fill:none;stroke:black;stroke-width:1"/>
<polygon points="21.551358988569348,24.262473476294407 23.29294304694468,22.442874379922134 20.041437395325637,14.72532654525256" style="fill:none;stroke:black;stroke-width:1"/>
<polygon points="23.29294304694468,22.442874379922134 24.267035987058108,20.07931028301389 20.041437395325637,14.72532654525256" style="fill:none;stroke:black;stroke-width:1"/>
<polygon points="19.32628269038842,13.074300461162686 21.624389360747692,14.139743926534202 20.041437395325637,14.72532654525256" style="fill:none;stroke:black;stroke-width:1"/>
<polygon points="24.267035987058108,20.07931028301389 19.32628269038842,13.074300461162686 20.041437395325637,14.72532654525256" style="fill:none;stroke:black;stroke-width:1"/>
<polygon points="13.840867243532516,7.813463533778113 13.718659724364738,7.627261221387689 19.814568237998692,5.250530898780703" style="fill:none;stroke:black;stroke-width:1"/>
<polygon points="14.082124817287855,8.486038291589521 14.027444242667276,8.246710126089493 19.814568237998692,5.250530898780703" style="fill:none;stroke:black;stroke-width:1"/>
<polygon points="14.027444242667276,8.246710126089493 14.082124817287855,8.486038291589521 13.15142137763469,9.131233406311921" style="fill:none;stroke:black;stroke-width:1"/>
<polygon points="14.028407201190465,8.958145287661207 13.210038389794715,9.228290394466434 13.15142137763469,9.131233406311921" style="fill:none;stroke:black;stroke-width:1"/>
<polygon points="13.210038389794715,9.228290394466434 14.028407201190465,8.958145287661207 13.332094733857726,9.294262186221351" style="fill:none;stroke:black;stroke-width:1"/>
<polygon points="13.210038389794715,9.228290394466434 13.332094733857726,9.294262186221351 17.25043127797837,8.975795913564703" style="fill:none;stroke:black;stroke-width:1"/>
<polygon points="13.210038389794715,9.228290394466434 17.25043127797837,8.975795913564703 15.086240566231204,9.039174521380424" style="fill:none;stroke:black;stroke-width:1"/>
<polygon points="13.15142137763469,9.131233406311921 13.210038389794715,9.228290394466434 15.086240566231204,9.039174521380424" style="fill:none;stroke:black;stroke-width:1"/>
<polygon points="12.73371155460649,6.919610250805372 12.3973100204596,8.493984305078731 12.585663186728215,6.8742213535186645" style="fill:none;stroke:black;stroke-width:1"/>
<polygon points="12.3973100204596,8.493984305078731 12.222660527836872,8.444508068296766 12.585663186728215,6.8742213535186645" style="fill:none;stroke:black;stroke-width:1"/>
<polygon points="11.54718680796368,6.782454097718869 11.736315721719022,6.774034746881065 11.574380904331147,8.283290327239431" style="fill:none;stroke:black;stroke-width:1"/>
<polygon points="11.807002254154085,8.339387785332894 11.736315721719022,6.774034746881065 11.919512772246064,6.775692400328109" style="fill:none;stroke:black;stroke-width:1"/>
<polygon points="11.736315721719022,6.774034746881065 11.807002254154085,8.339387785332894 11.574380904331147,8.283290327239431" style="fill:none;stroke:black;stroke-width:1"/>
<polygon points="11.919512772246064,6.775692400328109 11.736315721719022,6.774034746881065 17.981814414504626,3.095841367209184" style="fill:none;stroke:black;stroke-width:1"/>
<polygon points="11.736315721719022,6.774034746881065 11.54718680796368,6.782454097718869 17.981814414504626,3.095841367209184" style="fill:none;stroke:black;stroke-width:1"/>
<polygon points="10.572131065057633,7.665350687799318 10.674745379954,7.885401501254281 14.194257690020246,5.031761651354412" style="fill:none;stroke:black;stroke-width:1"/>
<polygon points="10.555177981018899,7.419143289800646 10.572131065057633,7.665350687799318 14.194257690020246,5.031761651354412" style="fill:none;stroke:black;stroke-width:1"/>
<polygon points="10.572131065057633,7.665350687799318 10.555177981018899,7.419143289800646 10.674745379954,7.885401501254281" style="fill:none;stroke:black;stroke-width:1"/>
<polygon points="10.849246922036063,8.058330413534467 11.081724137931035,8.163793103448276 15.086240566231204,9.039174521380424" style="fill:none;stroke:black;stroke-width:1"/>
<polygon points="11.081724137931035,8.163793103448276 13.15142137763469,9.131233406311921 15.086240566231204,9.039174521380424" style="fill:none;stroke:black;stroke-width:1"/>
<polygon points="11.081724137931035,8.163793103448276 10.849246922036063,8.058330413534467 10.762849449526183,7.007639588065748" style="fill:none;stroke:black;stroke-width:1"/>
<polygon points="11.081724137931035,8.163793103448276 12.3973100204596,8.493984305078731 13.15142137763469,9.131233406311921" style="fill:none;stroke:black;stroke-width:1"/>
<polygon points="12.3973100204596,8.493984305078731 11.081724137931035,8.163793103448276 12.222660527836872,8.444508068296766" style="fill:none;stroke:black;stroke-width:1"/>
<polygon points="10.555177981018899,7.419143289800646 10.624633150297246,7.190710853731858 10.674745379954,7.885401501254281" style="fill:none;stroke:black;stroke-width:1"/>
<polygon points="10.624633150297246,7.190710853731858 10.849246922036063,8.058330413534467 10.674745379954,7.885401501254281" style="fill:none;stroke:black;stroke-width:1"/>
<polygon points="10.849246922036063,8.058330413534467 10.624633150297246,7.190710853731858 10.762849449526183,7.007639588065748" style="fill:none;stroke:black;stroke-width:1"/>
<polygon points="10.624633150297246,7.190710853731858 10.555177981018899,7.419143289800646 15.771942205110356,3.36017154267628" style="fill:none;stroke:black;stroke-width:1"/>
<polygon points="15.955823073138795,3.812389732840087 10.624633150297246,7.190710853731858 15.771942205110356,3.36017154267628" style="fill:none;stroke:black;stroke-width:1"/>
<polygon points="10.762849449526183,7.007639588065748 10.624633150297246,7.190710853731858 15.955823073138795,3.812389732840087" style="fill:none;stroke:black;stroke-width:1"/>
<polygon points="19.236353901589617,20.212793508611664 16.69845644644673,20.17046271471608 19.210834641727295,11.598890281562507" style="fill:none;stroke:black;stroke-width:1"/>
<polygon points="19.92443395099142,16.113143594428102 16.505059650752358,23.409805418483216 19.210834641727295,11.598890281562507" style="fill:none;stroke:black;stroke-width:1"/>
<polygon points="16.505059650752358,23.409805418483216 14.095647640669391,22.466015066019914 19.210834641727295,11.598890281562507" style="fill:none;stroke:black;stroke-width:1"/>
<polygon points="18.499214396653382,23.832269283953103 18.674844636688498,23.91625180619382 15.492277767196747,17.480027313066376" style="fill:none;stroke:black;stroke-width:1"/>
<polygon points="18.243833773680056,23.550604956115524 18.353115603696835,23.707754977243347 15.492277767196747,17.480027313066376" style="fill:none;stroke:black;stroke-width:1"/>
<polygon points="18.353115603696835,23.707754977243347 18.499214396653382,23.832269283953103 15.492277767196747,17.480027313066376" style="fill:none;stroke:black;stroke-width:1"/>
<polygon points="18.499214396653382,23.832269283953103 18.353115603696835,23.707754977243347 18.27916084788398,22.812581366331706" style="fill:none;stroke:black;stroke-width:1"/>
<polygon points="18.201491686579956,22.983516844795076 14.378832700154158,15.149115551582069 18.27916084788398,22.812581366331706" style="fill:none;stroke:black;stroke-width:1"/>
<polygon points="18.201491686579956,22.983516844795076 18.164392013342024,23.173126952178915 14.378832700154158,15.149115551582069" style="fill:none;stroke:black;stroke-width:1"/>
<polygon points="18.164392013342024,23.173126952178915 18.201491686579956,22.983516844795076 18.243833773680056,23.550604956115524" style="fill:none;stroke:black;stroke-width:1"/>
<polygon points="18.353115603696835,23.707754977243347 18.201491686579956,22.983516844795076 18.27916084788398,22.812581366331706" style="fill:none;stroke:black;stroke-width:1"/>
<polygon points="18.201491686579956,22.983516844795076 18.353115603696835,23.707754977243347 18.243833773680056,23.550604956115524" style="fill:none;stroke:black;stroke-width:1"/>
<polygon points="18.178654422464234,23.368715290620628 18.243833773680056,23.550604956115524 14.378832700154158,15.149115551582069" style="fill:none;stroke:black;stroke-width:1"/>
<polygon points="18.164392013342024,23.173126952178915 18.178654422464234,23.368715290620628 14.378832700154158,15.149115551582069" style="fill:none;stroke:black;stroke-width:1"/>
<polygon points="18.178654422464234,23.368715290620628 18.164392013342024,23.173126952178915 18.243833773680056,23.550604956115524" style="fill:none;stroke:black;stroke-width:1"/>
<polygon points="19.82755885386627,21.797572417821215 20.344541178187058,23.501886462921178 19.673298596423365,21.864312748563435" style="fill:none;stroke:black;stroke-width:1"/>
<polygon points="19.9949205251854,21.740690026148386 19.82755885386627,21.797572417821215 11.177692480079429,15.694632005948948" style="fill:none;stroke:black;stroke-width:1"/>
<polygon points="20.47356527646602,23.427283659473183 19.82755885386627,21.797572417821215 19.9949205251854,21.740690026148386" style="fill:none;stroke:black;stroke-width:1"/>
<polygon points="20.344541178187058,23.501886462921178 19.82755885386627,21.797572417821215 20.47356527646602,23.427283659473183" style="fill:none;stroke:black;stroke-width:1"/>
<polygon points="20.731613473023955,23.278078052577182 20.360216667193704,21.66304764170483 20.860637571302924,23.203475249129184" style="fill:none;stroke:black;stroke-width:1"/>
<polygon points="20.173200749816097,21.695302718968424 20.360216667193704,21.66304764170483 20.731613473023955,23.278078052577182" style="fill:none;stroke:black;stroke-width:1"/>
<polygon points="10.848925489108089,20.76149406660761 20.360216667193704,21.66304764170483 10.538002855661928,18.165348580840387" style="fill:none;stroke:black;stroke-width:1"/>
<polygon points="20.360216667193704,21.66304764170483 20.173200749816097,21.695302718968424 10.538002855661928,18.165348580840387" style="fill:none;stroke:black;stroke-width:1"/>
<polygon points="12.080068977089834,22.9984552423007 14.026473157114875,24.637162381680774 20.944910902037716,21.67480741411309" style="fill:none;stroke:black;stroke-width:1"/>
<polygon points="14.026473157114875,24.637162381680774 16.48763014502304,25.478090869548737 20.944910902037716,21.67480741411309" style="fill:none;stroke:black;stroke-width:1"/>
<polygon points="21.120659650350532,21.75860787063028 19.20490356958679,25.339381441561784 21.551358988569348,24.262473476294407" style="fill:none;stroke:black;stroke-width:1"/>
<polygon points="16.48763014502304,25.478090869548737 19.20490356958679,25.339381441561784 21.120659650350532,21.75860787063028" style="fill:none;stroke:black;stroke-width:1"/>
<polygon points="19.82755885386627,21.797572417821215 12.622840512264375,13.706851609048128 11.177692480079429,15.694632005948948" style="fill:none;stroke:black;stroke-width:1"/>
<polygon points="12.622840512264375,13.706851609048128 19.82755885386627,21.797572417821215 19.673298596423365,21.864312748563435" style="fill:none;stroke:black;stroke-width:1"/>
<polygon points="19.534322613421324,21.939273872951542 12.622840512264375,13.706851609048128 19.673298596423365,21.864312748563435" style="fill:none;stroke:black;stroke-width:1"/>
<polygon points="14.713145802116657,12.401328837943701 12.622840512264375,13.706851609048128 19.534322613421324,21.939273872951542" style="fill:none;stroke:black;stroke-width:1"/>
<polygon points="19.626664195943903,23.852468848496166 19.44903704322097,23.898356801505088 19.018206278693242,22.237739170013988" style="fill:none;stroke:black;stroke-width:1"/>
<polygon points="19.14723037697221,22.163136366565986 19.626664195943903,23.852468848496166 19.018206278693242,22.237739170013988" style="fill:none;stroke:black;stroke-width:1"/>
<polygon points="19.626664195943903,23.852468848496166 19.14723037697221,22.163136366565986 19.79344353089123,23.794887793676963" style="fill:none;stroke:black;stroke-width:1"/>
<polygon points="19.626664195943903,23.852468848496166 19.79344353089123,23.794887793676963 17.68512416369535,18.108022140542875" style="fill:none;stroke:black;stroke-width:1"/>
<polygon points="19.44903704322097,23.898356801505088 19.626664195943903,23.852468848496166 17.68512416369535,18.108022140542875" style="fill:none;stroke:black;stroke-width:1"/>
<polygon points="13.11030646882271,21.807390879862695 14.927637655776042,11.672573929783987 15.345154333824661,10.935787796398074" style="fill:none;stroke:black;stroke-width:1"/>
<polygon points="13.150784214818575,21.851526814070596 13.11030646882271,21.807390879862695 15.345154333824661,10.935787796398074" style="fill:none;stroke:black;stroke-width:1"/>
<polygon points="11.954230031828107,22.744435770828588 11.963944477224809,22.792954543985502 14.378832700154158,15.149115551582069" style="fill:none;stroke:black;stroke-width:1"/>
<polygon points="13.585299780763584,7.464522721701451 13.44429174205549,7.324436212599203 19.814568237998692,5.250530898780703" style="fill:none;stroke:black;stroke-width:1"/>
<polygon points="13.718659724364738,7.627261221387689 13.585299780763584,7.464522721701451 19.814568237998692,5.250530898780703" style="fill:none;stroke:black;stroke-width:1"/>
<polygon points="13.946485597120953,8.02141646500618 13.840867243532516,7.813463533778113 19.814568237998692,5.250530898780703" style="fill:none;stroke:black;stroke-width:1"/>
<polygon points="14.027444242667276,8.246710126089493 13.946485597120953,8.02141646500618 19.814568237998692,5.250530898780703" style="fill:none;stroke:black;stroke-width:1"/>
<polygon points="12.873632312653555,6.972414641343096 12.544926736411757,8.543774086400855 12.73371155460649,6.919610250805372" style="fill:none;stroke:black;stroke-width:1"/>
<polygon points="12.544926736411757,8.543774086400855 12.3973100204596,8.493984305078731 12.73371155460649,6.919610250805372" style="fill:none;stroke:black;stroke-width:1"/>
<polygon points="12.544926736411757,8.543774086400855 12.873632312653555,6.972414641343096 13.010423862326805,7.031970388773157" style="fill:none;stroke:black;stroke-width:1"/>
<polygon points="12.3973100204596,8.493984305078731 12.544926736411757,8.543774086400855 13.15142137763469,9.131233406311921" style="fill:none;stroke:black;stroke-width:1"/>
<polygon points="11.331648764763482,8.224213195575738 11.54718680796368,6.782454097718869 11.574380904331147,8.283290327239431" style="fill:none;stroke:black;stroke-width:1"/>
<polygon points="11.54718680796368,6.782454097718869 11.331648764763482,8.224213195575738 11.352491988747193,6.801394038013825" style="fill:none;stroke:black;stroke-width:1"/>
<polygon points="12.024493367195511,8.393051463700079 11.331648764763482,8.224213195575738 11.574380904331147,8.283290327239431" style="fill:none;stroke:black;stroke-width:1"/>
<polygon points="12.222660527836872,8.444508068296766 11.331648764763482,8.224213195575738 12.024493367195511,8.393051463700079" style="fill:none;stroke:black;stroke-width:1"/>
<polygon points="11.081724137931035,8.163793103448276 11.331648764763482,8.224213195575738 12.222660527836872,8.444508068296766" style="fill:none;stroke:black;stroke-width:1"/>
<polygon points="11.352491988747193,6.801394038013825 11.15259722183671,6.831298152938242 15.955823073138795,3.812389732840087" style="fill:none;stroke:black;stroke-width:1"/>
<polygon points="11.331648764763482,8.224213195575738 11.15259722183671,6.831298152938242 11.352491988747193,6.801394038013825" style="fill:none;stroke:black;stroke-width:1"/>
<polygon points="11.15259722183671,6.831298152938242 11.331648764763482,8.224213195575738 11.081724137931035,8.163793103448276" style="fill:none;stroke:black;stroke-width:1"/>
<polygon points="16.037559908475703,12.337389060610922 20.73354313969088,18.344420776415152 19.210834641727295,11.598890281562507" style="fill:none;stroke:black;stroke-width:1"/>
<polygon points="20.73354313969088,18.344420776415152 19.236353901589617,20.212793508611664 19.210834641727295,11.598890281562507" style="fill:none;stroke:black;stroke-width:1"/>
<polygon points="17.939204051014976,14.866226175454132 19.92443395099142,16.113143594428102 19.210834641727295,11.598890281562507" style="fill:none;stroke:black;stroke-width:1"/>
<polygon points="15.739576618554885,15.791726184699643 17.939204051014976,14.866226175454132 19.210834641727295,11.598890281562507" style="fill:none;stroke:black;stroke-width:1"/>
<polygon points="16.69845644644673,20.17046271471608 15.160059030123026,18.196927189941782 19.210834641727295,11.598890281562507" style="fill:none;stroke:black;stroke-width:1"/>
<polygon points="15.160059030123026,18.196927189941782 15.739576618554885,15.791726184699643 19.210834641727295,11.598890281562507" style="fill:none;stroke:black;stroke-width:1"/>
<polygon points="13.220801490091999,18.03410576164461 14.31502189717367,19.62862094128281 17.595045015100876,10.872811162640454" style="fill:none;stroke:black;stroke-width:1"/>
<polygon points="11.379941193081114,18.341466681451728 13.220801490091999,18.03410576164461 17.595045015100876,10.872811162640454" style="fill:none;stroke:black;stroke-width:1"/>
<polygon points="14.095647640669391,22.466015066019914 12.304355998864024,20.693947841224812 17.595045015100876,10.872811162640454" style="fill:none;stroke:black;stroke-width:1"/>
<polygon points="12.304355998864024,20.693947841224812 11.379941193081114,18.341466681451728 17.595045015100876,10.872811162640454" style="fill:none;stroke:black;stroke-width:1"/>
<polygon points="19.069206592525582,23.948603676505673 18.87280192945344,23.951379310344826 18.63113398385634,22.461547580357987" style="fill:none;stroke:black;stroke-width:1"/>
<polygon points="18.87280192945344,23.951379310344826 18.50064276801516,22.546648560261318 18.63113398385634,22.461547580357987" style="fill:none;stroke:black;stroke-width:1"/>
<polygon points="18.87280192945344,23.951379310344826 19.069206592525582,23.948603676505673 15.492277767196747,17.480027313066376" style="fill:none;stroke:black;stroke-width:1"/>
<polygon points="18.674844636688498,23.91625180619382 18.87280192945344,23.951379310344826 15.492277767196747,17.480027313066376" style="fill:none;stroke:black;stroke-width:1"/>
<polygon points="18.87280192945344,23.951379310344826 18.674844636688498,23.91625180619382 18.499214396653382,23.832269283953103" style="fill:none;stroke:black;stroke-width:1"/>
<polygon points="20.360216667193704,21.66304764170483 20.553785416753566,21.64556193978109 20.860637571302924,23.203475249129184" style="fill:none;stroke:black;stroke-width:1"/>
<polygon points="20.989661669581892,23.128872445681182 20.553785416753566,21.64556193978109 20.751724137931035,21.64448275862069" style="fill:none;stroke:black;stroke-width:1"/>
<polygon points="20.553785416753566,21.64556193978109 20.989661669581892,23.128872445681182 20.860637571302924,23.203475249129184" style="fill:none;stroke:black;stroke-width:1"/>
<polygon points="20.553785416753566,21.64556193978109 10.848925489108089,20.76149406660761 20.751724137931035,21.64448275862069" style="fill:none;stroke:black;stroke-width:1"/>
<polygon points="20.553785416753566,21.64556193978109 20.360216667193704,21.66304764170483 10.848925489108089,20.76149406660761" style="fill:none;stroke:black;stroke-width:1"/>
<polygon points="13.180945311327285,21.895885841237806 13.150784214818575,21.851526814070596 15.345154333824661,10.935787796398074" style="fill:none;stroke:black;stroke-width:1"/>
<polygon points="17.073006062835134,11.628041760822043 13.222819104723367,22.026623104651314 15.345154333824661,10.935787796398074" style="fill:none;stroke:black;stroke-width:1"/>
<polygon points="13.222819104723367,22.026623104651314 13.213104659326666,21.978104331494407 15.345154333824661,10.935787796398074" style="fill:none;stroke:black;stroke-width:1"/>
<polygon points="12.751886275505193,21.664749611199873 12.654120474320525,21.672396958731273 14.927637655776042,11.672573929783987" style="fill:none;stroke:black;stroke-width:1"/>
<polygon points="12.654120474320525,21.672396958731273 12.554406923130752,21.697185441280396 14.927637655776042,11.672573929783987" style="fill:none;stroke:black;stroke-width:1"/>
<polygon points="12.45583308036208,21.73931808337286 12.361336095640414,21.798915276572064 14.927637655776042,11.672573929783987" style="fill:none;stroke:black;stroke-width:1"/>
<polygon points="12.554406923130752,21.697185441280396 12.45583308036208,21.73931808337286 14.927637655776042,11.672573929783987" style="fill:none;stroke:black;stroke-width:1"/>
<polygon points="11.94989072461859,22.618532788630667 11.949146478690857,22.686075850682116 14.378832700154158,15.149115551582069" style="fill:none;stroke:black;stroke-width:1"/>
<polygon points="11.949146478690857,22.686075850682116 11.954230031828107,22.744435770828588 14.378832700154158,15.149115551582069" style="fill:none;stroke:black;stroke-width:1"/>
<polygon points="18.87280192945344,23.951379310344826 18.380856693227877,22.665161565560172 18.50064276801516,22.546648560261318" style="fill:none;stroke:black;stroke-width:1"/>
<polygon points="18.380856693227877,22.665161565560172 18.499214396653382,23.832269283953103 18.27916084788398,22.812581366331706" style="fill:none;stroke:black;stroke-width:1"/>
<polygon points="18.380856693227877,22.665161565560172 18.87280192945344,23.951379310344826 18.499214396653382,23.832269283953103" style="fill:none;stroke:black;stroke-width:1"/>
<polygon points="11.963944477224809,22.792954543985502 11.976291475536216,22.833093810316257 18.27916084788398,22.812581366331706" style="fill:none;stroke:black;stroke-width:1"/>
<polygon points="11.976291475536216,22.833093810316257 18.380856693227877,22.665161565560172 18.27916084788398,22.812581366331706" style="fill:none;stroke:black;stroke-width:1"/>
<polygon points="18.380856693227877,22.665161565560172 11.976291475536216,22.833093810316257 11.996312886872257,22.875656251650778" style="fill:none;stroke:black;stroke-width:1"/>
<polygon points="12.179938325272454,23.044010609564236 18.76015808213531,22.38694477690999 18.63113398385634,22.461547580357987" style="fill:none;stroke:black;stroke-width:1"/>
<polygon points="13.153349302133378,7.108971870137379 12.675385994826446,8.604319595736058 13.010423862326805,7.031970388773157" style="fill:none;stroke:black;stroke-width:1"/>
<polygon points="12.675385994826446,8.604319595736058 12.544926736411757,8.543774086400855 13.010423862326805,7.031970388773157" style="fill:none;stroke:black;stroke-width:1"/>
<polygon points="12.544926736411757,8.543774086400855 12.675385994826446,8.604319595736058 13.15142137763469,9.131233406311921" style="fill:none;stroke:black;stroke-width:1"/>
<polygon points="10.95004407693942,6.8850170453301365 11.081724137931035,8.163793103448276 10.762849449526183,7.007639588065748" style="fill:none;stroke:black;stroke-width:1"/>
<polygon points="10.95004407693942,6.8850170453301365 11.15259722183671,6.831298152938242 11.081724137931035,8.163793103448276" style="fill:none;stroke:black;stroke-width:1"/>
<polygon points="10.95004407693942,6.8850170453301365 10.762849449526183,7.007639588065748 15.955823073138795,3.812389732840087" style="fill:none;stroke:black;stroke-width:1"/>
<polygon points="11.15259722183671,6.831298152938242 10.95004407693942,6.8850170453301365 15.955823073138795,3.812389732840087" style="fill:none;stroke:black;stroke-width:1"/>
<polygon points="13.213104659326666,21.978104331494407 13.200766983856813,21.938135244678204 15.345154333824661,10.935787796398074" style="fill:none;stroke:black;stroke-width:1"/>
<polygon points="13.200766983856813,21.938135244678204 13.180945311327285,21.895885841237806 15.345154333824661,10.935787796398074" style="fill:none;stroke:black;stroke-width:1"/>
<polygon points="13.227902657860621,22.08498302479779 17.073006062835134,11.628041760822043 13.227158411932887,22.152526086849242" style="fill:none;stroke:black;stroke-width:1"/>
<polygon points="13.227902657860621,22.08498302479779 13.222819104723367,22.026623104651314 17.073006062835134,11.628041760822043" style="fill:none;stroke:black;stroke-width:1"/>
<polygon points="12.844478101344396,21.673939554095956 12.751886275505193,21.664749611199873 14.927637655776042,11.672573929783987" style="fill:none;stroke:black;stroke-width:1"/>
<polygon points="12.926911810362427,21.69709985422179 12.844478101344396,21.673939554095956 14.927637655776042,11.672573929783987" style="fill:none;stroke:black;stroke-width:1"/>
<polygon points="12.998416905033586,21.72826592242427 12.926911810362427,21.69709985422179 14.927637655776042,11.672573929783987" style="fill:none;stroke:black;stroke-width:1"/>
<polygon points="11.973173275034837,22.45924071623061 11.957567768544234,22.5426094133924 14.325980759657442,13.286217232987003" style="fill:none;stroke:black;stroke-width:1"/>
<polygon points="11.997577872066554,22.369479105582926 11.973173275034837,22.45924071623061 14.325980759657442,13.286217232987003" style="fill:none;stroke:black;stroke-width:1"/>
<polygon points="12.07556147320107,22.175472690801115 12.031513420701396,22.274477809951605 14.325980759657442,13.286217232987003" style="fill:none;stroke:black;stroke-width:1"/>
<polygon points="12.031513420701396,22.274477809951605 11.997577872066554,22.369479105582926 14.325980759657442,13.286217232987003" style="fill:none;stroke:black;stroke-width:1"/>
<polygon points="12.361336095640414,21.798915276572064 12.273693638364808,21.87603426975273 14.325980759657442,13.286217232987003" style="fill:none;stroke:black;stroke-width:1"/>
<polygon points="12.273693638364808,21.87603426975273 12.19551724137931,21.970689655172414 14.325980759657442,13.286217232987003" style="fill:none;stroke:black;stroke-width:1"/>
<polygon points="12.130144101600425,22.073762752284615 12.07556147320107,22.175472690801115 14.325980759657442,13.286217232987003" style="fill:none;stroke:black;stroke-width:1"/>
<polygon points="12.19551724137931,21.970689655172414 12.130144101600425,22.073762752284615 14.325980759657442,13.286217232987003" style="fill:none;stroke:black;stroke-width:1"/>
<polygon points="18.50064276801516,22.546648560261318 12.11851218308077,23.006531010657646 18.63113398385634,22.461547580357987" style="fill:none;stroke:black;stroke-width:1"/>
<polygon points="12.11851218308077,23.006531010657646 12.179938325272454,23.044010609564236 18.63113398385634,22.461547580357987" style="fill:none;stroke:black;stroke-width:1"/>
<polygon points="18.76015808213531,22.38694477690999 12.251792197190348,23.07523085942256 18.889182180414274,22.31234197346199" style="fill:none;stroke:black;stroke-width:1"/>
<polygon points="12.179938325272454,23.044010609564236 12.251792197190348,23.07523085942256 18.76015808213531,22.38694477690999" style="fill:none;stroke:black;stroke-width:1"/>
<polygon points="18.889182180414274,22.31234197346199 12.251792197190348,23.07523085942256 19.018206278693242,22.237739170013988" style="fill:none;stroke:black;stroke-width:1"/>
<polygon points="12.79257967515074,8.674273578172436 13.153349302133378,7.108971870137379 13.299140088944181,7.206189870078621" style="fill:none;stroke:black;stroke-width:1"/>
<polygon points="12.79257967515074,8.674273578172436 12.675385994826446,8.604319595736058 13.153349302133378,7.108971870137379" style="fill:none;stroke:black;stroke-width:1"/>
<polygon points="12.79257967515074,8.674273578172436 13.299140088944181,7.206189870078621 13.44429174205549,7.324436212599203" style="fill:none;stroke:black;stroke-width:1"/>
<polygon points="12.675385994826446,8.604319595736058 12.79257967515074,8.674273578172436 13.15142137763469,9.131233406311921" style="fill:none;stroke:black;stroke-width:1"/>
<polygon points="13.11030646882271,21.807390879862695 13.059524077666582,21.76563956842736 14.927637655776042,11.672573929783987" style="fill:none;stroke:black;stroke-width:1"/>
<polygon points="13.059524077666582,21.76563956842736 12.998416905033586,21.72826592242427 14.927637655776042,11.672573929783987" style="fill:none;stroke:black;stroke-width:1"/>
<polygon points="18.380856693227877,22.665161565560172 12.02670352987553,22.92027654546445 18.50064276801516,22.546648560261318" style="fill:none;stroke:black;stroke-width:1"/>
<polygon points="12.02670352987553,22.92027654546445 18.380856693227877,22.665161565560172 11.996312886872257,22.875656251650778" style="fill:none;stroke:black;stroke-width:1"/>
<polygon points="12.33432579927487,23.098678558837054 19.14723037697221,22.163136366565986 19.018206278693242,22.237739170013988" style="fill:none;stroke:black;stroke-width:1"/>
<polygon points="12.251792197190348,23.07523085942256 12.33432579927487,23.098678558837054 19.018206278693242,22.237739170013988" style="fill:none;stroke:black;stroke-width:1"/>
<polygon points="19.14723037697221,22.163136366565986 12.33432579927487,23.098678558837054 19.27625447525118,22.08853356311799" style="fill:none;stroke:black;stroke-width:1"/>
<polygon points="13.585299780763584,7.464522721701451 12.895703690876587,8.752666399979704 13.44429174205549,7.324436212599203" style="fill:none;stroke:black;stroke-width:1"/>
<polygon points="12.895703690876587,8.752666399979704 12.79257967515074,8.674273578172436 13.44429174205549,7.324436212599203" style="fill:none;stroke:black;stroke-width:1"/>
<polygon points="12.79257967515074,8.674273578172436 12.895703690876587,8.752666399979704 13.15142137763469,9.131233406311921" style="fill:none;stroke:black;stroke-width:1"/>
<polygon points="12.067440630053996,22.96462197507116 12.11851218308077,23.006531010657646 18.50064276801516,22.546648560261318" style="fill:none;stroke:black;stroke-width:1"/>
<polygon points="12.02670352987553,22.92027654546445 12.067440630053996,22.96462197507116 18.50064276801516,22.546648560261318" style="fill:none;stroke:black;stroke-width:1"/>
<polygon points="12.426044703704516,23.10860052941071 19.534322613421324,21.939273872951542 19.405278573530143,22.01393075966999" style="fill:none;stroke:black;stroke-width:1"/>
<polygon points="19.534322613421324,21.939273872951542 12.426044703704516,23.10860052941071 12.523096326330556,23.1011550807212" style="fill:none;stroke:black;stroke-width:1"/>
<polygon points="19.27625447525118,22.08853356311799 12.426044703704516,23.10860052941071 19.405278573530143,22.01393075966999" style="fill:none;stroke:black;stroke-width:1"/>
<polygon points="12.33432579927487,23.098678558837054 12.426044703704516,23.10860052941071 19.27625447525118,22.08853356311799" style="fill:none;stroke:black;stroke-width:1"/>
<polygon points="12.983953955495952,8.838528427427576 13.585299780763584,7.464522721701451 13.718659724364738,7.627261221387689" style="fill:none;stroke:black;stroke-width:1"/>
<polygon points="12.983953955495952,8.838528427427576 12.895703690876587,8.752666399979704 13.585299780763584,7.464522721701451" style="fill:none;stroke:black;stroke-width:1"/>
<polygon points="12.983953955495952,8.838528427427576 13.718659724364738,7.627261221387689 13.840867243532516,7.813463533778113" style="fill:none;stroke:black;stroke-width:1"/>
<polygon points="12.895703690876587,8.752666399979704 13.112616885383046,9.028781564323973 13.15142137763469,9.131233406311921" style="fill:none;stroke:black;stroke-width:1"/>
<polygon points="12.983953955495952,8.838528427427576 13.112616885383046,9.028781564323973 12.895703690876587,8.752666399979704" style="fill:none;stroke:black;stroke-width:1"/>
<polygon points="13.112616885383046,9.028781564323973 14.027444242667276,8.246710126089493 13.15142137763469,9.131233406311921" style="fill:none;stroke:black;stroke-width:1"/>
<polygon points="13.112616885383046,9.028781564323973 13.946485597120953,8.02141646500618 14.027444242667276,8.246710126089493" style="fill:none;stroke:black;stroke-width:1"/>
<polygon points="13.946485597120953,8.02141646500618 13.056526382500786,8.930890026785761 13.840867243532516,7.813463533778113" style="fill:none;stroke:black;stroke-width:1"/>
<polygon points="13.112616885383046,9.028781564323973 13.056526382500786,8.930890026785761 13.946485597120953,8.02141646500618" style="fill:none;stroke:black;stroke-width:1"/>
<polygon points="13.056526382500786,8.930890026785761 12.983953955495952,8.838528427427576 13.840867243532516,7.813463533778113" style="fill:none;stroke:black;stroke-width:1"/>
<polygon points="13.056526382500786,8.930890026785761 13.112616885383046,9.028781564323973 12.983953955495952,8.838528427427576" style="fill:none;stroke:black;stroke-width:1"/>
<polygon points="13.101487663350404,22.59558618467879 21.249814139804528,21.98731953864431 13.04690503495105,22.697296123195294" style="fill:none;stroke:black;stroke-width:1"/>
<polygon points="13.04690503495105,22.697296123195294 21.249814139804528,21.98731953864431 19.254410155536497,23.55184548997741" style="fill:none;stroke:black;stroke-width:1"/>
<polygon points="12.815738175111502,22.97324458293678 21.651787387644575,13.919681303171805 19.69037497579765,12.535596703723234" style="fill:none;stroke:black;stroke-width:1"/>
<polygon points="12.815738175111502,22.97324458293678 19.69037497579765,12.535596703723234 12.720850611192994,23.033520525874266" style="fill:none;stroke:black;stroke-width:1"/>
<polygon points="22.953192680911492,15.931577378209354 12.815738175111502,22.97324458293678 12.904438962690378,22.895401778075076" style="fill:none;stroke:black;stroke-width:1"/>
<polygon points="12.815738175111502,22.97324458293678 22.953192680911492,15.931577378209354 21.651787387644575,13.919681303171805" style="fill:none;stroke:black;stroke-width:1"/>
<polygon points="17.268202585551947,11.977303808996473 12.622359196679746,23.07615665783277 12.720850611192994,23.033520525874266" style="fill:none;stroke:black;stroke-width:1"/>
<polygon points="19.69037497579765,12.535596703723234 17.268202585551947,11.977303808996473 12.720850611192994,23.033520525874266" style="fill:none;stroke:black;stroke-width:1"/>
<polygon points="12.622359196679746,23.07615665783277 17.268202585551947,11.977303808996473 12.523096326330556,23.1011550807212" style="fill:none;stroke:black;stroke-width:1"/>
<polygon points="17.268202585551947,11.977303808996473 14.713145802116657,12.401328837943701 12.523096326330556,23.1011550807212" style="fill:none;stroke:black;stroke-width:1"/>
<polygon points="19.20490356958679,25.339381441561784 23.39206896551724,18.36655172413793 21.551358988569348,24.262473476294407" style="fill:none;stroke:black;stroke-width:1"/>
<polygon points="23.39206896551724,18.36655172413793 10.538002855661928,18.165348580840387 11.177692480079429,15.694632005948948" style="fill:none;stroke:black;stroke-width:1"/>
<polygon points="20.166160614877295,18.857025193258075 23.39206896551724,18.36655172413793 21.848588062154565,18.469109169041126" style="fill:none;stroke:black;stroke-width:1"/>
<polygon points="23.39206896551724,18.36655172413793 10.848925489108089,20.76149406660761 10.538002855661928,18.165348580840387" style="fill:none;stroke:black;stroke-width:1"/>
<polygon points="23.39206896551724,18.36655172413793 20.62200118790939,16.174823001800462 21.780900218852384,18.41140513421154" style="fill:none;stroke:black;stroke-width:1"/>
<polygon points="23.39206896551724,18.36655172413793 23.252728196059138,15.99042506120413 21.624389360747692,14.139743926534202" style="fill:none;stroke:black;stroke-width:1"/>
<polygon points="23.39206896551724,18.36655172413793 16.037559908475703,12.337389060610922 13.979643275808792,13.742035912204857" style="fill:none;stroke:black;stroke-width:1"/>
<polygon points="19.32628269038842,13.074300461162686 23.39206896551724,18.36655172413793 21.624389360747692,14.139743926534202" style="fill:none;stroke:black;stroke-width:1"/>
<polygon points="23.39206896551724,18.36655172413793 17.268202585551947,11.977303808996473 19.69037497579765,12.535596703723234" style="fill:none;stroke:black;stroke-width:1"/>
<polygon points="23.75978837115438,18.097444912348614 23.39206896551724,18.36655172413793 21.780900218852384,18.41140513421154" style="fill:none;stroke:black;stroke-width:1"/>
<polygon points="18.43015365458905,15.012439932083979 23.39206896551724,18.36655172413793 16.055401923571914,15.653284590376169" style="fill:none;stroke:black;stroke-width:1"/>
<polygon points="12.634712512935456,15.885182344708937 23.39206896551724,18.36655172413793 13.979643275808792,13.742035912204857" style="fill:none;stroke:black;stroke-width:1"/>
<polygon points="23.39206896551724,18.36655172413793 14.808636536628486,17.68273614548321 16.055401923571914,15.653284590376169" style="fill:none;stroke:black;stroke-width:1"/>
<polygon points="23.39206896551724,18.36655172413793 16.505059650752358,23.409805418483216 19.92443395099142,16.113143594428102" style="fill:none;stroke:black;stroke-width:1"/>
<polygon points="23.39206896551724,18.36655172413793 14.026473157114875,24.637162381680774 12.080068977089834,22.9984552423007" style="fill:none;stroke:black;stroke-width:1"/>
<polygon points="23.39206896551724,18.36655172413793 16.27919953321943,21.04240929282019 14.31502189717367,19.62862094128281" style="fill:none;stroke:black;stroke-width:1"/>
<polygon points="23.39206896551724,18.36655172413793 22.490662901420773,19.735856850082932 21.848588062154565,18.469109169041126" style="fill:none;stroke:black;stroke-width:1"/>
<polygon points="21.249814139804528,21.98731953864431 23.39206896551724,18.36655172413793 19.254410155536497,23.55184548997741" style="fill:none;stroke:black;stroke-width:1"/>
<polygon points="23.39206896551724,18.36655172413793 23.29294304694468,22.442874379922134 21.551358988569348,24.262473476294407" style="fill:none;stroke:black;stroke-width:1"/>
<polygon points="20.62200118790939,16.174823001800462 23.39206896551724,18.36655172413793 18.43015365458905,15.012439932083979" style="fill:none;stroke:black;stroke-width:1"/>
<polygon points="23.39206896551724,18.36655172413793 12.634712512935456,15.885182344708937 12.714428499229143,17.78935208949862" style="fill:none;stroke:black;stroke-width:1"/>
<polygon points="14.808636536628486,17.68273614548321 23.39206896551724,18.36655172413793 12.714428499229143,17.78935208949862" style="fill:none;stroke:black;stroke-width:1"/>
<polygon points="12.622840512264375,13.706851609048128 23.39206896551724,18.36655172413793 11.177692480079429,15.694632005948948" style="fill:none;stroke:black;stroke-width:1"/>
<polygon points="23.39206896551724,18.36655172413793 20.73354313969088,18.344420776415152 16.037559908475703,12.337389060610922" style="fill:none;stroke:black;stroke-width:1"/>
<polygon points="10.848925489108089,20.76149406660761 23.39206896551724,18.36655172413793 12.080068977089834,22.9984552423007" style="fill:none;stroke:black;stroke-width:1"/>
<polygon points="23.39206896551724,18.36655172413793 15.160059030123026,18.196927189941782 16.69845644644673,20.17046271471608" style="fill:none;stroke:black;stroke-width:1"/>
<polygon points="21.651787387644575,13.919681303171805 23.39206896551724,18.36655172413793 19.69037497579765,12.535596703723234" style="fill:none;stroke:black;stroke-width:1"/>
<polygon points="22.953192680911492,15.931577378209354 23.39206896551724,18.36655172413793 21.651787387644575,13.919681303171805" style="fill:none;stroke:black;stroke-width:1"/>
<polygon points="16.27919953321943,21.04240929282019 23.39206896551724,18.36655172413793 18.70198203941144,20.707502850277926" style="fill:none;stroke:black;stroke-width:1"/>
<polygon points="23.39206896551724,18.36655172413793 20.166160614877295,18.857025193258075 18.70198203941144,20.707502850277926" style="fill:none;stroke:black;stroke-width:1"/>
<polygon points="23.39206896551724,18.36655172413793 21.249814139804528,21.98731953864431 22.490662901420773,19.735856850082932" style="fill:none;stroke:black;stroke-width:1"/>
<polygon points="23.252728196059138,15.99042506120413 23.39206896551724,18.36655172413793 23.75978837115438,18.097444912348614" style="fill:none;stroke:black;stroke-width:1"/>
<polygon points="23.29294304694468,22.442874379922134 23.39206896551724,18.36655172413793 24.267035987058108,20.07931028301389" style="fill:none;stroke:black;stroke-width:1"/>
<polygon points="23.39206896551724,18.36655172413793 19.32628269038842,13.074300461162686 24.267035987058108,20.07931028301389" style="fill:none;stroke:black;stroke-width:1"/>
<polygon points="19.236353901589617,20.212793508611664 23.39206896551724,18.36655172413793 16.69845644644673,20.17046271471608" style="fill:none;stroke:black;stroke-width:1"/>
<polygon points="17.939204051014976,14.866226175454132 23.39206896551724,18.36655172413793 19.92443395099142,16.113143594428102" style="fill:none;stroke:black;stroke-width:1"/>
<polygon points="16.505059650752358,23.409805418483216 23.39206896551724,18.36655172413793 14.095647640669391,22.466015066019914" style="fill:none;stroke:black;stroke-width:1"/>
<polygon points="13.220801490091999,18.03410576164461 23.39206896551724,18.36655172413793 14.31502189717367,19.62862094128281" style="fill:none;stroke:black;stroke-width:1"/>
<polygon points="14.026473157114875,24.637162381680774 23.39206896551724,18.36655172413793 16.48763014502304,25.478090869548737" style="fill:none;stroke:black;stroke-width:1"/>
<polygon points="23.39206896551724,18.36655172413793 19.20490356958679,25.339381441561784 16.48763014502304,25.478090869548737" style="fill:none;stroke:black;stroke-width:1"/>
<polygon points="23.39206896551724,18.36655172413793 12.304355998864024,20.693947841224812 14.095647640669391,22.466015066019914" style="fill:none;stroke:black;stroke-width:1"/>
<polygon points="17.268202585551947,11.977303808996473 23.39206896551724,18.36655172413793 14.713145802116657,12.401328837943701" style="fill:none;stroke:black;stroke-width:1"/>
<polygon points="23.39206896551724,18.36655172413793 12.622840512264375,13.706851609048128 14.713145802116657,12.401328837943701" style="fill:none;stroke:black;stroke-width:1"/>
<polygon points="20.73354313969088,18.344420776415152 23.39206896551724,18.36655172413793 19.236353901589617,20.212793508611664" style="fill:none;stroke:black;stroke-width:1"/>
<polygon points="23.39206896551724,18.36655172413793 17.939204051014976,14.866226175454132 15.739576618554885,15.791726184699643" style="fill:none;stroke:black;stroke-width:1"/>
<polygon points="15.160059030123026,18.196927189941782 23.39206896551724,18.36655172413793 15.739576618554885,15.791726184699643" style="fill:none;stroke:black;stroke-width:1"/>
<polygon points="23.39206896551724,18.36655172413793 13.220801490091999,18.03410576164461 11.379941193081114,18.341466681451728" style="fill:none;stroke:black;stroke-width:1"/>
<polygon points="12.304355998864024,20.693947841224812 23.39206896551724,18.36655172413793 11.379941193081114,18.341466681451728" style="fill:none;stroke:black;stroke-width:1"/>
<polygon points="23.39206896551724,18.36655172413793 12.981691617298711,22.80055071933439 13.04690503495105,22.697296123195294" style="fill:none;stroke:black;stroke-width:1"/>
<polygon points="23.39206896551724,18.36655172413793 13.04690503495105,22.697296123195294 19.254410155536497,23.55184548997741" style="fill:none;stroke:black;stroke-width:1"/>
<polygon points="12.981691617298711,22.80055071933439 23.39206896551724,18.36655172413793 12.904438962690378,22.895401778075076" style="fill:none;stroke:black;stroke-width:1"/>
<polygon points="23.39206896551724,18.36655172413793 22.953192680911492,15.931577378209354 12.904438962690378,22.895401778075076" style="fill:none;stroke:black;stroke-width:1"/>
<polygon points="12.426044703704516,23.10860052941071 13.227158411932887,22.152526086849242 13.21948136800724,22.228449462087507" style="fill:none;stroke:black;stroke-width:1"/>
<polygon points="13.20387586151664,22.3118181592493 12.426044703704516,23.10860052941071 13.21948136800724,22.228449462087507" style="fill:none;stroke:black;stroke-width:1"/>
<polygon points="12.426044703704516,23.10860052941071 12.031513420701396,22.274477809951605 12.07556147320107,22.175472690801115" style="fill:none;stroke:black;stroke-width:1"/>
<polygon points="12.426044703704516,23.10860052941071 12.622359196679746,23.07615665783277 12.523096326330556,23.1011550807212" style="fill:none;stroke:black;stroke-width:1"/>
<polygon points="12.426044703704516,23.10860052941071 13.17947126448492,22.401579769896983 13.14553571585008,22.496581065528304" style="fill:none;stroke:black;stroke-width:1"/>
<polygon points="13.101487663350404,22.59558618467879 12.426044703704516,23.10860052941071 13.14553571585008,22.496581065528304" style="fill:none;stroke:black;stroke-width:1"/>
<polygon points="12.426044703704516,23.10860052941071 13.227902657860621,22.08498302479779 13.227158411932887,22.152526086849242" style="fill:none;stroke:black;stroke-width:1"/>
<polygon points="12.426044703704516,23.10860052941071 12.981691617298711,22.80055071933439 12.904438962690378,22.895401778075076" style="fill:none;stroke:black;stroke-width:1"/>
<polygon points="12.622359196679746,23.07615665783277 12.426044703704516,23.10860052941071 12.720850611192994,23.033520525874266" style="fill:none;stroke:black;stroke-width:1"/>
<polygon points="12.815738175111502,22.97324458293678 12.426044703704516,23.10860052941071 12.904438962690378,22.895401778075076" style="fill:none;stroke:black;stroke-width:1"/>
<polygon points="12.426044703704516,23.10860052941071 11.94989072461859,22.618532788630667 11.957567768544234,22.5426094133924" style="fill:none;stroke:black;stroke-width:1"/>
<polygon points="13.17947126448492,22.401579769896983 12.426044703704516,23.10860052941071 13.20387586151664,22.3118181592493" style="fill:none;stroke:black;stroke-width:1"/>
<polygon points="12.981691617298711,22.80055071933439 12.426044703704516,23.10860052941071 13.04690503495105,22.697296123195294" style="fill:none;stroke:black;stroke-width:1"/>
<polygon points="12.426044703704516,23.10860052941071 13.101487663350404,22.59558618467879 13.04690503495105,22.697296123195294" style="fill:none;stroke:black;stroke-width:1"/>
<polygon points="13.180945311327285,21.895885841237806 12.426044703704516,23.10860052941071 13.150784214818575,21.851526814070596" style="fill:none;stroke:black;stroke-width:1"/>
<polygon points="12.426044703704516,23.10860052941071 13.200766983856813,21.938135244678204 13.213104659326666,21.978104331494407" style="fill:none;stroke:black;stroke-width:1"/>
<polygon points="12.45583308036208,21.73931808337286 12.426044703704516,23.10860052941071 12.361336095640414,21.798915276572064" style="fill:none;stroke:black;stroke-width:1"/>
<polygon points="12.426044703704516,23.10860052941071 12.815738175111502,22.97324458293678 12.720850611192994,23.033520525874266" style="fill:none;stroke:black;stroke-width:1"/>
<polygon points="12.426044703704516,23.10860052941071 11.976291475536216,22.833093810316257 11.963944477224809,22.792954543985502" style="fill:none;stroke:black;stroke-width:1"/>
<polygon points="12.426044703704516,23.10860052941071 13.11030646882271,21.807390879862695 13.150784214818575,21.851526814070596" style="fill:none;stroke:black;stroke-width:1"/>
<polygon points="12.426044703704516,23.10860052941071 12.654120474320525,21.672396958731273 12.751886275505193,21.664749611199873" style="fill:none;stroke:black;stroke-width:1"/>
<polygon points="12.426044703704516,23.10860052941071 12.02670352987553,22.92027654546445 11.996312886872257,22.875656251650778" style="fill:none;stroke:black;stroke-width:1"/>
<polygon points="11.954230031828107,22.744435770828588 12.426044703704516,23.10860052941071 11.963944477224809,22.792954543985502" style="fill:none;stroke:black;stroke-width:1"/>
<polygon points="12.426044703704516,23.10860052941071 11.949146478690857,22.686075850682116 11.94989072461859,22.618532788630667" style="fill:none;stroke:black;stroke-width:1"/>
<polygon points="12.426044703704516,23.10860052941071 13.059524077666582,21.76563956842736 13.11030646882271,21.807390879862695" style="fill:none;stroke:black;stroke-width:1"/>
<polygon points="13.222819104723367,22.026623104651314 12.426044703704516,23.10860052941071 13.213104659326666,21.978104331494407" style="fill:none;stroke:black;stroke-width:1"/>
<polygon points="12.844478101344396,21.673939554095956 12.426044703704516,23.10860052941071 12.751886275505193,21.664749611199873" style="fill:none;stroke:black;stroke-width:1"/>
<polygon points="12.654120474320525,21.672396958731273 12.426044703704516,23.10860052941071 12.554406923130752,21.697185441280396" style="fill:none;stroke:black;stroke-width:1"/>
<polygon points="12.426044703704516,23.10860052941071 12.45583308036208,21.73931808337286 12.554406923130752,21.697185441280396" style="fill:none;stroke:black;stroke-width:1"/>
<polygon points="11.973173275034837,22.45924071623061 12.426044703704516,23.10860052941071 11.957567768544234,22.5426094133924" style="fill:none;stroke:black;stroke-width:1"/>
<polygon points="12.426044703704516,23.10860052941071 12.273693638364808,21.87603426975273 12.361336095640414,21.798915276572064" style="fill:none;stroke:black;stroke-width:1"/>
<polygon points="11.949146478690857,22.686075850682116 12.426044703704516,23.10860052941071 11.954230031828107,22.744435770828588" style="fill:none;stroke:black;stroke-width:1"/>
<polygon points="11.976291475536216,22.833093810316257 12.426044703704516,23.10860052941071 11.996312886872257,22.875656251650778" style="fill:none;stroke:black;stroke-width:1"/>
<polygon points="12.130144101600425,22.073762752284615 12.426044703704516,23.10860052941071 12.07556147320107,22.175472690801115" style="fill:none;stroke:black;stroke-width:1"/>
<polygon points="13.200766983856813,21.938135244678204 12.426044703704516,23.10860052941071 13.180945311327285,21.895885841237806" style="fill:none;stroke:black;stroke-width:1"/>
<polygon points="13.227902657860621,22.08498302479779 12.426044703704516,23.10860052941071 13.222819104723367,22.026623104651314" style="fill:none;stroke:black;stroke-width:1"/>
<polygon points="12.426044703704516,23.10860052941071 12.844478101344396,21.673939554095956 12.926911810362427,21.69709985422179" style="fill:none;stroke:black;stroke-width:1"/>
<polygon points="12.998416905033586,21.72826592242427 12.426044703704516,23.10860052941071 12.926911810362427,21.69709985422179" style="fill:none;stroke:black;stroke-width:1"/>
<polygon points="12.426044703704516,23.10860052941071 11.973173275034837,22.45924071623061 11.997577872066554,22.369479105582926" style="fill:none;stroke:black;stroke-width:1"/>
<polygon points="12.031513420701396,22.274477809951605 12.426044703704516,23.10860052941071 11.997577872066554,22.369479105582926" style="fill:none;stroke:black;stroke-width:1"/>
<polygon points="12.273693638364808,21.87603426975273 12.426044703704516,23.10860052941071 12.19551724137931,21.970689655172414" style="fill:none;stroke:black;stroke-width:1"/>
<polygon points="12.426044703704516,23.10860052941071 12.130144101600425,22.073762752284615 12.19551724137931,21.970689655172414" style="fill:none;stroke:black;stroke-width:1"/>
<polygon points="12.11851218308077,23.006531010657646 12.426044703704516,23.10860052941071 12.179938325272454,23.044010609564236" style="fill:none;stroke:black;stroke-width:1"/>
<polygon points="12.426044703704516,23.10860052941071 12.251792197190348,23.07523085942256 12.179938325272454,23.044010609564236" style="fill:none;stroke:black;stroke-width:1"/>
<polygon points="13.059524077666582,21.76563956842736 12.426044703704516,23.10860052941071 12.998416905033586,21.72826592242427" style="fill:none;stroke:black;stroke-width:1"/>
<polygon points="12.067440630053996,22.96462197507116 12.426044703704516,23.10860052941071 12.11851218308077,23.006531010657646" style="fill:none;stroke:black;stroke-width:1"/>
<polygon points="12.426044703704516,23.10860052941071 12.33432579927487,23.098678558837054 12.251792197190348,23.07523085942256" style="fill:none;stroke:black;stroke-width:1"/>
<polygon points="12.426044703704516,23.10860052941071 12.067440630053996,22.96462197507116 12.02670352987553,22.92027654546445" style="fill:none;stroke:black;stroke-width:1"/>
</svg>
