<?xml version="1.0" encoding="UTF-8" standalone="no"?>
<svg xmlns="http://www.w3.org/2000/svg" version="1.1" width="800" height="800">
<polygon points="15.127861442400576,23.861833619607793 17.180986065688167,22.390360638474057 18.258390964823313,24.009317403987932" style="fill:none;stroke:black;stroke-width:1"/>
<polygon points="14.600288901792435,13.087407874706507 12.108083350376516,12.709033862611115 12.87802537545498,10.634525817597265" style="fill:none;stroke:black;stroke-width:1"/>
<polygon points="22.800696996732626,6.467507725668812 22.540565082519187,4.443305296035977 24.484654162101457,6.477428473247207" style="fill:none;stroke:black;stroke-width:1"/>
<polygon points="18.102700631760307,4.114660739704691 13.433927052994298,5.796935877766593 17.39032870376609,2.4217801580905207" style="fill:none;stroke:black;stroke-width:1"/>
<polygon points="11.212997369322729,9.59912142206368 11.347931034482759,10.950344827586207 9.60192467168513,8.522648988923116" style="fill:none;stroke:black;stroke-width:1"/>
<polygon points="12.108083350376516,12.709033862611115 11.347931034482759,10.950344827586207 12.87802537545498,10.634525817597265" style="fill:none;stroke:black;stroke-width:1"/>
<polygon points="11.347931034482759,10.950344827586207 11.212997369322729,9.59912142206368 12.87802537545498,10.634525817597265" style="fill:none;stroke:black;stroke-width:1"/>
<polygon points="9.848103340394877,5.7175777051964705 10.401453525043923,7.055131623336886 9.60192467168513,8.522648988923116" style="fill:none;stroke:black;stroke-width:1"/>
<polygon points="10.401453525043923,7.055131623336886 11.212997369322729,9.59912142206368 9.60192467168513,8.522648988923116" style="fill:none;stroke:black;stroke-width:1"/>
<polygon points="12.093932668596942,4.112937929336681 10.401453525043923,7.055131623336886 9.848103340394877,5.7175777051964705" style="fill:none;stroke:black;stroke-width:1"/>
<polygon points="20.73411553827662,22.713461524278966 19.805655388495378,21.40623277921714 22.134961423132236,19.432910161728746" style="fill:none;stroke:black;stroke-width:1"/>
<polygon points="19.805655388495378,21.40623277921714 20.73411553827662,22.713461524278966 18.258390964823313,24.009317403987932" style="fill:none;stroke:black;stroke-width:1"/>
<polygon points="17.180986065688167,22.390360638474057 19.805655388495378,21.40623277921714 18.258390964823313,24.009317403987932" style="fill:none;stroke:black;stroke-width:1"/>
<polygon points="20.594943269635344,18.182703953771338 22.179602969148632,17.193941646789234 22.134961423132236,19.432910161728746" style="fill:none;stroke:black;stroke-width:1"/>
<polygon points="19.805655388495378,21.40623277921714 20.594943269635344,18.182703953771338 22.134961423132236,19.432910161728746" style="fill:none;stroke:black;stroke-width:1"/>
<polygon points="15.778379470301964,10.680844766016913 14.600288901792435,13.087407874706507 12.87802537545498,10.634525817597265" style="fill:none;stroke:black;stroke-width:1"/>
<polygon points="14.600288901792435,13.087407874706507 15.778379470301964,10.680844766016913 17.52353820643258,13.048653023163357" style="fill:none;stroke:black;stroke-width:1"/>
<polygon points="22.800696996732626,6.467507725668812 20.356080233852282,5.2416544251604265 22.540565082519187,4.443305296035977" style="fill:none;stroke:black;stroke-width:1"/>
<polygon points="17.39032870376609,2.4217801580905207 15.351498310343418,3.4424585499910565 14.519881981620987,2.812895715954929" style="fill:none;stroke:black;stroke-width:1"/>
<polygon points="13.069454297685198,5.087066395604951 10.401453525043923,7.055131623336886 12.093932668596942,4.112937929336681" style="fill:none;stroke:black;stroke-width:1"/>
<polygon points="10.401453525043923,7.055131623336886 13.069454297685198,5.087066395604951 11.212997369322729,9.59912142206368" style="fill:none;stroke:black;stroke-width:1"/>
<polygon points="13.069454297685198,5.087066395604951 12.093932668596942,4.112937929336681 14.519881981620987,2.812895715954929" style="fill:none;stroke:black;stroke-width:1"/>
<polygon points="24.23919359234964,9.366174523822364 22.800696996732626,6.467507725668812 24.484654162101457,6.477428473247207" style="fill:none;stroke:black;stroke-width:1"/>
<polygon points="22.179602969148632,17.193941646789234 24.23919359234964,9.366174523822364 22.134961423132236,19.432910161728746" style="fill:none;stroke:black;stroke-width:1"/>
<polygon points="24.23919359234964,9.366174523822364 22.179602969148632,17.193941646789234 22.540780457988728,14.426197688476838" style="fill:none;stroke:black;stroke-width:1"/>
<polygon points="11.380392415186622,13.883862889052299 11.347931034482759,10.950344827586207 12.108083350376516,12.709033862611115" style="fill:none;stroke:black;stroke-width:1"/>
<polygon points="11.347931034482759,10.950344827586207 11.380392415186622,13.883862889052299 9.60192467168513,8.522648988923116" style="fill:none;stroke:black;stroke-width:1"/>
<polygon points="20.455940435603235,13.016187818104697 19.400770274082333,14.072394019423081 17.52353820643258,13.048653023163357" style="fill:none;stroke:black;stroke-width:1"/>
<polygon points="20.594943269635344,18.182703953771338 20.64088535369545,15.675693323813237 22.179602969148632,17.193941646789234" style="fill:none;stroke:black;stroke-width:1"/>
<polygon points="22.179602969148632,17.193941646789234 20.64088535369545,15.675693323813237 22.540780457988728,14.426197688476838" style="fill:none;stroke:black;stroke-width:1"/>
<polygon points="20.64088535369545,15.675693323813237 20.455940435603235,13.016187818104697 22.540780457988728,14.426197688476838" style="fill:none;stroke:black;stroke-width:1"/>
<polygon points="20.455940435603235,13.016187818104697 20.64088535369545,15.675693323813237 19.400770274082333,14.072394019423081" style="fill:none;stroke:black;stroke-width:1"/>
<polygon points="19.81485726970586,24.17346400016126 19.805655388495378,21.40623277921714 17.180986065688167,22.390360638474057" style="fill:none;stroke:black;stroke-width:1"/>
<polygon points="19.805655388495378,21.40623277921714 19.81485726970586,24.17346400016126 19.966329889326165,24.069922442725552" style="fill:none;stroke:black;stroke-width:1"/>
<polygon points="18.155417190032658,24.643007873031976 18.334347387407888,24.601369888273275 17.180986065688167,22.390360638474057" style="fill:none;stroke:black;stroke-width:1"/>
<polygon points="14.000097401233077,9.993338167003339 15.778379470301964,10.680844766016913 12.87802537545498,10.634525817597265" style="fill:none;stroke:black;stroke-width:1"/>
<polygon points="11.212997369322729,9.59912142206368 14.000097401233077,9.993338167003339 12.87802537545498,10.634525817597265" style="fill:none;stroke:black;stroke-width:1"/>
<polygon points="13.069454297685198,5.087066395604951 14.000097401233077,9.993338167003339 11.212997369322729,9.59912142206368" style="fill:none;stroke:black;stroke-width:1"/>
<polygon points="15.778379470301964,10.680844766016913 18.689312325680156,10.725916799203072 17.52353820643258,13.048653023163357" style="fill:none;stroke:black;stroke-width:1"/>
<polygon points="18.689312325680156,10.725916799203072 20.455940435603235,13.016187818104697 17.52353820643258,13.048653023163357" style="fill:none;stroke:black;stroke-width:1"/>
<polygon points="20.455940435603235,13.016187818104697 18.689312325680156,10.725916799203072 20.933006399562434,10.53038439315715" style="fill:none;stroke:black;stroke-width:1"/>
<polygon points="20.356080233852282,5.2416544251604265 19.85863201975424,3.877998023708156 22.540565082519187,4.443305296035977" style="fill:none;stroke:black;stroke-width:1"/>
<polygon points="19.85863201975424,3.877998023708156 20.356080233852282,5.2416544251604265 18.102700631760307,4.114660739704691" style="fill:none;stroke:black;stroke-width:1"/>
<polygon points="22.540565082519187,4.443305296035977 19.85863201975424,3.877998023708156 17.39032870376609,2.4217801580905207" style="fill:none;stroke:black;stroke-width:1"/>
<polygon points="19.85863201975424,3.877998023708156 18.102700631760307,4.114660739704691 17.39032870376609,2.4217801580905207" style="fill:none;stroke:black;stroke-width:1"/>
<polygon points="22.428374635685813,9.196645764460268 20.356080233852282,5.2416544251604265 22.800696996732626,6.467507725668812" style="fill:none;stroke:black;stroke-width:1"/>
<polygon points="24.23919359234964,9.366174523822364 22.428374635685813,9.196645764460268 22.800696996732626,6.467507725668812" style="fill:none;stroke:black;stroke-width:1"/>
<polygon points="22.587058599260466,11.48280178963081 24.23919359234964,9.366174523822364 22.540780457988728,14.426197688476838" style="fill:none;stroke:black;stroke-width:1"/>
<polygon points="20.455940435603235,13.016187818104697 22.587058599260466,11.48280178963081 22.540780457988728,14.426197688476838" style="fill:none;stroke:black;stroke-width:1"/>
<polygon points="22.587058599260466,11.48280178963081 20.455940435603235,13.016187818104697 20.933006399562434,10.53038439315715" style="fill:none;stroke:black;stroke-width:1"/>
<polygon points="22.428374635685813,9.196645764460268 22.587058599260466,11.48280178963081 20.933006399562434,10.53038439315715" style="fill:none;stroke:black;stroke-width:1"/>
<polygon points="22.587058599260466,11.48280178963081 22.428374635685813,9.196645764460268 24.23919359234964,9.366174523822364" style="fill:none;stroke:black;stroke-width:1"/>
<polygon points="15.736250592982355,19.392455230451915 16.546482263216987,14.090333391275102 17.52353820643258,13.048653023163357" style="fill:none;stroke:black;stroke-width:1"/>
<polygon points="13.569320556260955,20.98111545595733 16.546482263216987,14.090333391275102 13.608608066572442,21.06916740651121" style="fill:none;stroke:black;stroke-width:1"/>
<polygon points="16.546482263216987,14.090333391275102 14.600288901792435,13.087407874706507 17.52353820643258,13.048653023163357" style="fill:none;stroke:black;stroke-width:1"/>
<polygon points="19.81485726970586,24.17346400016126 19.52413793103448,22.742758620689656 19.966329889326165,24.069922442725552" style="fill:none;stroke:black;stroke-width:1"/>
<polygon points="20.062024231131808,22.993711511746966 20.537077317285814,23.12223716364689 20.594943269635344,18.182703953771338" style="fill:none;stroke:black;stroke-width:1"/>
<polygon points="20.240933634657477,23.5606500526289 20.594943269635344,18.182703953771338 19.805655388495378,21.40623277921714" style="fill:none;stroke:black;stroke-width:1"/>
<polygon points="20.240933634657477,23.5606500526289 20.235331038439114,23.353987290213432 20.594943269635344,18.182703953771338" style="fill:none;stroke:black;stroke-width:1"/>
<polygon points="20.190355540691435,23.756325960351276 20.240933634657477,23.5606500526289 19.805655388495378,21.40623277921714" style="fill:none;stroke:black;stroke-width:1"/>
<polygon points="12.712160133676388,22.028039857260747 14.33288572296863,21.610299629975 15.127861442400576,23.861833619607793" style="fill:none;stroke:black;stroke-width:1"/>
<polygon points="14.33288572296863,21.610299629975 17.180986065688167,22.390360638474057 15.127861442400576,23.861833619607793" style="fill:none;stroke:black;stroke-width:1"/>
<polygon points="14.000097401233077,9.993338167003339 16.87060826308611,9.95433594680905 15.778379470301964,10.680844766016913" style="fill:none;stroke:black;stroke-width:1"/>
<polygon points="16.87060826308611,9.95433594680905 18.689312325680156,10.725916799203072 15.778379470301964,10.680844766016913" style="fill:none;stroke:black;stroke-width:1"/>
<polygon points="13.646452792455623,5.863180196337879 13.433927052994298,5.796935877766593 18.102700631760307,4.114660739704691" style="fill:none;stroke:black;stroke-width:1"/>
<polygon points="13.850232322291031,5.941486171955727 13.646452792455623,5.863180196337879 18.102700631760307,4.114660739704691" style="fill:none;stroke:black;stroke-width:1"/>
<polygon points="14.229631474806553,6.131954272176506 14.044785322931135,6.031271599081487 18.102700631760307,4.114660739704691" style="fill:none;stroke:black;stroke-width:1"/>
<polygon points="14.044785322931135,6.031271599081487 13.850232322291031,5.941486171955727 18.102700631760307,4.114660739704691" style="fill:none;stroke:black;stroke-width:1"/>
<polygon points="20.64088535369545,15.675693323813237 17.475184309083062,15.079857847827052 19.400770274082333,14.072394019423081" style="fill:none;stroke:black;stroke-width:1"/>
<polygon points="16.234480711020918,15.998885295643046 17.475184309083062,15.079857847827052 20.64088535369545,15.675693323813237" style="fill:none;stroke:black;stroke-width:1"/>
<polygon points="14.33288572296863,21.610299629975 17.372940598835658,24.73760226246503 17.180986065688167,22.390360638474057" style="fill:none;stroke:black;stroke-width:1"/>
<polygon points="12.862142005943042,16.19428830499851 12.901499625160106,18.595160145590686 11.844196760044632,19.064775350826206" style="fill:none;stroke:black;stroke-width:1"/>
<polygon points="12.901499625160106,18.595160145590686 12.712160133676388,22.028039857260747 11.844196760044632,19.064775350826206" style="fill:none;stroke:black;stroke-width:1"/>
<polygon points="13.68755435809507,14.117737802943992 11.380392415186622,13.883862889052299 12.108083350376516,12.709033862611115" style="fill:none;stroke:black;stroke-width:1"/>
<polygon points="14.600288901792435,13.087407874706507 13.68755435809507,14.117737802943992 12.108083350376516,12.709033862611115" style="fill:none;stroke:black;stroke-width:1"/>
<polygon points="20.235331038439114,23.353987290213432 20.17306793183906,23.160673916095075 20.594943269635344,18.182703953771338" style="fill:none;stroke:black;stroke-width:1"/>
<polygon points="20.17306793183906,23.160673916095075 20.062024231131808,22.993711511746966 20.594943269635344,18.182703953771338" style="fill:none;stroke:black;stroke-width:1"/>
<polygon points="20.17306793183906,23.160673916095075 20.190355540691435,23.756325960351276 20.062024231131808,22.993711511746966" style="fill:none;stroke:black;stroke-width:1"/>
<polygon points="20.240933634657477,23.5606500526289 20.17306793183906,23.160673916095075 20.235331038439114,23.353987290213432" style="fill:none;stroke:black;stroke-width:1"/>
<polygon points="20.17306793183906,23.160673916095075 20.240933634657477,23.5606500526289 20.190355540691435,23.756325960351276" style="fill:none;stroke:black;stroke-width:1"/>
<polygon points="20.062024231131808,22.993711511746966 19.91069810908807,22.861973975595077 20.537077317285814,23.12223716364689" style="fill:none;stroke:black;stroke-width:1"/>
<polygon points="19.91069810908807,22.861973975595077 19.52413793103448,22.742758620689656 19.727587738478558,22.774335206065366" style="fill:none;stroke:black;stroke-width:1"/>
<polygon points="19.52413793103448,22.742758620689656 19.91069810908807,22.861973975595077 19.966329889326165,24.069922442725552" style="fill:none;stroke:black;stroke-width:1"/>
<polygon points="20.09405908280201,23.928440716231947 19.805655388495378,21.40623277921714 19.966329889326165,24.069922442725552" style="fill:none;stroke:black;stroke-width:1"/>
<polygon points="20.09405908280201,23.928440716231947 20.190355540691435,23.756325960351276 19.805655388495378,21.40623277921714" style="fill:none;stroke:black;stroke-width:1"/>
<polygon points="20.190355540691435,23.756325960351276 20.09405908280201,23.928440716231947 20.062024231131808,22.993711511746966" style="fill:none;stroke:black;stroke-width:1"/>
<polygon points="19.91069810908807,22.861973975595077 20.09405908280201,23.928440716231947 19.966329889326165,24.069922442725552" style="fill:none;stroke:black;stroke-width:1"/>
<polygon points="20.09405908280201,23.928440716231947 19.91069810908807,22.861973975595077 20.062024231131808,22.993711511746966" style="fill:none;stroke:black;stroke-width:1"/>
<polygon points="22.428374635685813,9.196645764460268 15.72308503111897,8.393788013601313 20.356080233852282,5.2416544251604265" style="fill:none;stroke:black;stroke-width:1"/>
<polygon points="14.573896048202613,8.822950029333676 15.72308503111897,8.393788013601313 15.720971542031718,8.667246310272958" style="fill:none;stroke:black;stroke-width:1"/>
<polygon points="19.741119124939154,9.915333726614758 22.428374635685813,9.196645764460268 20.933006399562434,10.53038439315715" style="fill:none;stroke:black;stroke-width:1"/>
<polygon points="18.689312325680156,10.725916799203072 19.741119124939154,9.915333726614758 20.933006399562434,10.53038439315715" style="fill:none;stroke:black;stroke-width:1"/>
<polygon points="19.741119124939154,9.915333726614758 15.72308503111897,8.393788013601313 22.428374635685813,9.196645764460268" style="fill:none;stroke:black;stroke-width:1"/>
<polygon points="15.72308503111897,8.393788013601313 19.741119124939154,9.915333726614758 15.720971542031718,8.667246310272958" style="fill:none;stroke:black;stroke-width:1"/>
<polygon points="16.87060826308611,9.95433594680905 19.741119124939154,9.915333726614758 18.689312325680156,10.725916799203072" style="fill:none;stroke:black;stroke-width:1"/>
<polygon points="13.331434246836183,7.3644000262765115 13.646452792455623,5.863180196337879 13.850232322291031,5.941486171955727" style="fill:none;stroke:black;stroke-width:1"/>
<polygon points="14.404290458347894,6.242951985702138 14.229631474806553,6.131954272176506 18.102700631760307,4.114660739704691" style="fill:none;stroke:black;stroke-width:1"/>
<polygon points="20.356080233852282,5.2416544251604265 15.027245695512905,6.800175256008094 18.102700631760307,4.114660739704691" style="fill:none;stroke:black;stroke-width:1"/>
<polygon points="15.169241528188055,6.978763292115843 15.027245695512905,6.800175256008094 20.356080233852282,5.2416544251604265" style="fill:none;stroke:black;stroke-width:1"/>
<polygon points="18.99191338413587,17.077217788573243 17.541840943983907,17.412277648675868 20.64088535369545,15.675693323813237" style="fill:none;stroke:black;stroke-width:1"/>
<polygon points="16.546482263216987,14.090333391275102 13.637489469767425,21.166991342089723 13.608608066572442,21.06916740651121" style="fill:none;stroke:black;stroke-width:1"/>
<polygon points="16.51626741886701,24.318154057449306 14.33288572296863,21.610299629975 12.712160133676388,22.028039857260747" style="fill:none;stroke:black;stroke-width:1"/>
<polygon points="12.901499625160106,18.595160145590686 16.51626741886701,24.318154057449306 12.712160133676388,22.028039857260747" style="fill:none;stroke:black;stroke-width:1"/>
<polygon points="13.68755435809507,14.117737802943992 11.802422796675433,16.636875689562565 11.380392415186622,13.883862889052299" style="fill:none;stroke:black;stroke-width:1"/>
<polygon points="11.802422796675433,16.636875689562565 13.68755435809507,14.117737802943992 12.862142005943042,16.19428830499851" style="fill:none;stroke:black;stroke-width:1"/>
<polygon points="11.802422796675433,16.636875689562565 12.862142005943042,16.19428830499851 11.844196760044632,19.064775350826206" style="fill:none;stroke:black;stroke-width:1"/>
<polygon points="11.802422796675433,16.636875689562565 11.844196760044632,19.064775350826206 9.60192467168513,8.522648988923116" style="fill:none;stroke:black;stroke-width:1"/>
<polygon points="11.380392415186622,13.883862889052299 11.802422796675433,16.636875689562565 9.60192467168513,8.522648988923116" style="fill:none;stroke:black;stroke-width:1"/>
<polygon points="18.334347387407888,24.601369888273275 18.504150525205105,24.554520679504066 17.180986065688167,22.390360638474057" style="fill:none;stroke:black;stroke-width:1"/>
<polygon points="18.504150525205105,24.554520679504066 18.667748999733554,24.50860877930411 17.180986065688167,22.390360638474057" style="fill:none;stroke:black;stroke-width:1"/>
<polygon points="18.504150525205105,24.554520679504066 18.334347387407888,24.601369888273275 18.021971402382277,22.970111236719994" style="fill:none;stroke:black;stroke-width:1"/>
<polygon points="18.994944050639816,24.41678994429119 19.158541576092947,24.370880526784727 17.180986065688167,22.390360638474057" style="fill:none;stroke:black;stroke-width:1"/>
<polygon points="18.994944050639816,24.41678994429119 18.721620309449804,22.801963093014393 19.158541576092947,24.370880526784727" style="fill:none;stroke:black;stroke-width:1"/>
<polygon points="19.649334152452333,24.233152274265343 19.81485726970586,24.17346400016126 17.180986065688167,22.390360638474057" style="fill:none;stroke:black;stroke-width:1"/>
<polygon points="19.485736626999202,24.279061691771805 19.649334152452333,24.233152274265343 17.180986065688167,22.390360638474057" style="fill:none;stroke:black;stroke-width:1"/>
<polygon points="19.649334152452333,24.233152274265343 19.52413793103448,22.742758620689656 19.81485726970586,24.17346400016126" style="fill:none;stroke:black;stroke-width:1"/>
<polygon points="19.158541576092947,24.370880526784727 19.322139101546075,24.324971109278266 17.180986065688167,22.390360638474057" style="fill:none;stroke:black;stroke-width:1"/>
<polygon points="19.322139101546075,24.324971109278266 19.485736626999202,24.279061691771805 17.180986065688167,22.390360638474057" style="fill:none;stroke:black;stroke-width:1"/>
<polygon points="19.52413793103448,22.742758620689656 14.469938123221171,22.329365012711563 19.727587738478558,22.774335206065366" style="fill:none;stroke:black;stroke-width:1"/>
<polygon points="18.334347387407888,24.601369888273275 17.85837387692915,23.016020654226455 18.021971402382277,22.970111236719994" style="fill:none;stroke:black;stroke-width:1"/>
<polygon points="18.155417190032658,24.643007873031976 17.85837387692915,23.016020654226455 18.334347387407888,24.601369888273275" style="fill:none;stroke:black;stroke-width:1"/>
<polygon points="17.775078575364965,24.706681108618515 17.36758130056976,23.15374890674584 17.531178826022888,23.107839489239378" style="fill:none;stroke:black;stroke-width:1"/>
<polygon points="12.170401989309186,22.008766928953385 12.901499625160106,18.595160145590686 12.862142005943042,16.19428830499851" style="fill:none;stroke:black;stroke-width:1"/>
<polygon points="12.131114478997697,21.920714978399502 12.170401989309186,22.008766928953385 12.862142005943042,16.19428830499851" style="fill:none;stroke:black;stroke-width:1"/>
<polygon points="20.208599057458642,18.853224068399484 20.578015398043433,19.687390488183397 16.546482263216987,14.090333391275102" style="fill:none;stroke:black;stroke-width:1"/>
<polygon points="20.64088535369545,15.675693323813237 22.19497409108296,19.138709009662836 21.00954757700717,19.280938579756004" style="fill:none;stroke:black;stroke-width:1"/>
<polygon points="22.19497409108296,19.138709009662836 20.64088535369545,15.675693323813237 20.594943269635344,18.182703953771338" style="fill:none;stroke:black;stroke-width:1"/>
<polygon points="14.771720829647563,9.139774874638459 15.449178386932761,9.09799326076268 14.97431764612579,9.214958876838512" style="fill:none;stroke:black;stroke-width:1"/>
<polygon points="16.87060826308611,9.95433594680905 14.771720829647563,9.139774874638459 14.97431764612579,9.214958876838512" style="fill:none;stroke:black;stroke-width:1"/>
<polygon points="19.741119124939154,9.915333726614758 15.624533620786005,8.910457431986464 15.720971542031718,8.667246310272958" style="fill:none;stroke:black;stroke-width:1"/>
<polygon points="15.624533620786005,8.910457431986464 19.741119124939154,9.915333726614758 15.449178386932761,9.09799326076268" style="fill:none;stroke:black;stroke-width:1"/>
<polygon points="14.771720829647563,9.139774874638459 15.624533620786005,8.910457431986464 15.449178386932761,9.09799326076268" style="fill:none;stroke:black;stroke-width:1"/>
<polygon points="15.624533620786005,8.910457431986464 14.573896048202613,8.822950029333676 15.720971542031718,8.667246310272958" style="fill:none;stroke:black;stroke-width:1"/>
<polygon points="15.21683536603416,9.205555410551948 19.741119124939154,9.915333726614758 16.87060826308611,9.95433594680905" style="fill:none;stroke:black;stroke-width:1"/>
<polygon points="19.741119124939154,9.915333726614758 15.21683536603416,9.205555410551948 15.449178386932761,9.09799326076268" style="fill:none;stroke:black;stroke-width:1"/>
<polygon points="15.21683536603416,9.205555410551948 16.87060826308611,9.95433594680905 14.97431764612579,9.214958876838512" style="fill:none;stroke:black;stroke-width:1"/>
<polygon points="15.449178386932761,9.09799326076268 15.21683536603416,9.205555410551948 14.97431764612579,9.214958876838512" style="fill:none;stroke:black;stroke-width:1"/>
<polygon points="14.044785322931135,6.031271599081487 13.549053594842817,7.465965567390342 13.850232322291031,5.941486171955727" style="fill:none;stroke:black;stroke-width:1"/>
<polygon points="13.549053594842817,7.465965567390342 13.331434246836183,7.3644000262765115 13.850232322291031,5.941486171955727" style="fill:none;stroke:black;stroke-width:1"/>
<polygon points="13.549053594842817,7.465965567390342 14.044785322931135,6.031271599081487 14.229631474806553,6.131954272176506" style="fill:none;stroke:black;stroke-width:1"/>
<polygon points="13.646452792455623,5.863180196337879 13.09491776154277,7.270738863627173 13.433927052994298,5.796935877766593" style="fill:none;stroke:black;stroke-width:1"/>
<polygon points="13.331434246836183,7.3644000262765115 13.09491776154277,7.270738863627173 13.646452792455623,5.863180196337879" style="fill:none;stroke:black;stroke-width:1"/>
<polygon points="13.09491776154277,7.270738863627173 13.331434246836183,7.3644000262765115 12.842645428110849,7.185518514675751" style="fill:none;stroke:black;stroke-width:1"/>
<polygon points="14.724426786288987,6.493427988083629 14.568281953985775,6.363682534119729 18.102700631760307,4.114660739704691" style="fill:none;stroke:black;stroke-width:1"/>
<polygon points="14.568281953985775,6.363682534119729 14.404290458347894,6.242951985702138 18.102700631760307,4.114660739704691" style="fill:none;stroke:black;stroke-width:1"/>
<polygon points="14.878170208780022,6.638460272648498 14.724426786288987,6.493427988083629 18.102700631760307,4.114660739704691" style="fill:none;stroke:black;stroke-width:1"/>
<polygon points="15.027245695512905,6.800175256008094 14.878170208780022,6.638460272648498 18.102700631760307,4.114660739704691" style="fill:none;stroke:black;stroke-width:1"/>
<polygon points="12.984558223471453,5.702961033918309 15.351498310343418,3.4424585499910565 17.39032870376609,2.4217801580905207" style="fill:none;stroke:black;stroke-width:1"/>
<polygon points="12.984558223471453,5.702961033918309 12.748675772548706,5.676394919718613 15.351498310343418,3.4424585499910565" style="fill:none;stroke:black;stroke-width:1"/>
<polygon points="11.755196288881699,6.222011621491914 13.069454297685198,5.087066395604951 14.519881981620987,2.812895715954929" style="fill:none;stroke:black;stroke-width:1"/>
<polygon points="12.049265221725442,6.931191130560963 14.000097401233077,9.993338167003339 13.069454297685198,5.087066395604951" style="fill:none;stroke:black;stroke-width:1"/>
<polygon points="11.861256905309148,6.740431656777109 12.049265221725442,6.931191130560963 13.069454297685198,5.087066395604951" style="fill:none;stroke:black;stroke-width:1"/>
<polygon points="20.3220855800059,17.849950959129455 20.64088535369545,15.675693323813237 21.00954757700717,19.280938579756004" style="fill:none;stroke:black;stroke-width:1"/>
<polygon points="20.3220855800059,17.849950959129455 18.99191338413587,17.077217788573243 20.64088535369545,15.675693323813237" style="fill:none;stroke:black;stroke-width:1"/>
<polygon points="15.4254880661952,17.375165150991627 16.234480711020918,15.998885295643046 20.64088535369545,15.675693323813237" style="fill:none;stroke:black;stroke-width:1"/>
<polygon points="15.485857298234508,18.60626800047785 15.4254880661952,17.375165150991627 20.64088535369545,15.675693323813237" style="fill:none;stroke:black;stroke-width:1"/>
<polygon points="17.541840943983907,17.412277648675868 16.778391714848297,18.60091455106659 20.64088535369545,15.675693323813237" style="fill:none;stroke:black;stroke-width:1"/>
<polygon points="16.778391714848297,18.60091455106659 15.485857298234508,18.60626800047785 20.64088535369545,15.675693323813237" style="fill:none;stroke:black;stroke-width:1"/>
<polygon points="19.400770274082333,14.072394019423081 15.82867233679207,21.064650267344817 17.52353820643258,13.048653023163357" style="fill:none;stroke:black;stroke-width:1"/>
<polygon points="13.659645289507862,21.386297697688246 13.654822066627192,21.273205976618474 16.546482263216987,14.090333391275102" style="fill:none;stroke:black;stroke-width:1"/>
<polygon points="13.654822066627192,21.273205976618474 13.637489469767425,21.166991342089723 16.546482263216987,14.090333391275102" style="fill:none;stroke:black;stroke-width:1"/>
<polygon points="13.651195851065937,21.50464443712692 13.659645289507862,21.386297697688246 16.546482263216987,14.090333391275102" style="fill:none;stroke:black;stroke-width:1"/>
<polygon points="18.667748999733554,24.50860877930411 18.83134652518669,24.46269936179765 17.180986065688167,22.390360638474057" style="fill:none;stroke:black;stroke-width:1"/>
<polygon points="18.83134652518669,24.46269936179765 18.994944050639816,24.41678994429119 17.180986065688167,22.390360638474057" style="fill:none;stroke:black;stroke-width:1"/>
<polygon points="18.355302961802558,22.878038614500575 18.83134652518669,24.46269936179765 18.667748999733554,24.50860877930411" style="fill:none;stroke:black;stroke-width:1"/>
<polygon points="18.721620309449804,22.801963093014393 18.915529297273224,22.774032442442106 19.158541576092947,24.370880526784727" style="fill:none;stroke:black;stroke-width:1"/>
<polygon points="18.915529297273224,22.774032442442106 19.322139101546075,24.324971109278266 19.158541576092947,24.370880526784727" style="fill:none;stroke:black;stroke-width:1"/>
<polygon points="13.411931182821284,19.303833706239285 18.915529297273224,22.774032442442106 13.75674153113124,17.74790490884156" style="fill:none;stroke:black;stroke-width:1"/>
<polygon points="18.915529297273224,22.774032442442106 18.721620309449804,22.801963093014393 13.75674153113124,17.74790490884156" style="fill:none;stroke:black;stroke-width:1"/>
<polygon points="18.185581199596765,22.92416853720095 18.504150525205105,24.554520679504066 18.021971402382277,22.970111236719994" style="fill:none;stroke:black;stroke-width:1"/>
<polygon points="18.504150525205105,24.554520679504066 18.185581199596765,22.92416853720095 18.667748999733554,24.50860877930411" style="fill:none;stroke:black;stroke-width:1"/>
<polygon points="18.185581199596765,22.92416853720095 18.355302961802558,22.878038614500575 18.667748999733554,24.50860877930411" style="fill:none;stroke:black;stroke-width:1"/>
<polygon points="13.656175641583308,20.93054781621335 14.469938123221171,22.329365012711563 19.52413793103448,22.742758620689656" style="fill:none;stroke:black;stroke-width:1"/>
<polygon points="17.30066157024047,23.87787646223589 19.91069810908807,22.861973975595077 19.727587738478558,22.774335206065366" style="fill:none;stroke:black;stroke-width:1"/>
<polygon points="15.849908477083835,15.633406810029046 18.185581199596765,22.92416853720095 13.218548217345221,22.21791526712289" style="fill:none;stroke:black;stroke-width:1"/>
<polygon points="17.203983775116633,23.1996583242523 17.372940598835658,24.73760226246503 17.040386249663502,23.245567741758762" style="fill:none;stroke:black;stroke-width:1"/>
<polygon points="17.69477635147602,23.061930071732917 17.85837387692915,23.016020654226455 18.155417190032658,24.643007873031976" style="fill:none;stroke:black;stroke-width:1"/>
<polygon points="17.775078575364965,24.706681108618515 17.576121637480913,24.72673182849669 17.36758130056976,23.15374890674584" style="fill:none;stroke:black;stroke-width:1"/>
<polygon points="17.203983775116633,23.1996583242523 17.576121637480913,24.72673182849669 17.372940598835658,24.73760226246503" style="fill:none;stroke:black;stroke-width:1"/>
<polygon points="17.576121637480913,24.72673182849669 17.203983775116633,23.1996583242523 17.36758130056976,23.15374890674584" style="fill:none;stroke:black;stroke-width:1"/>
<polygon points="17.372940598835658,24.73760226246503 17.576121637480913,24.72673182849669 17.180986065688167,22.390360638474057" style="fill:none;stroke:black;stroke-width:1"/>
<polygon points="17.576121637480913,24.72673182849669 17.775078575364965,24.706681108618515 17.180986065688167,22.390360638474057" style="fill:none;stroke:black;stroke-width:1"/>
<polygon points="13.68755435809507,14.117737802943992 12.26438800062072,21.01438541675355 12.862142005943042,16.19428830499851" style="fill:none;stroke:black;stroke-width:1"/>
<polygon points="12.901499625160106,18.595160145590686 12.336938430996543,22.20290304451759 16.595661319313823,23.550279299792155" style="fill:none;stroke:black;stroke-width:1"/>
<polygon points="16.8961304869097,20.297966659631754 16.546482263216987,14.090333391275102 15.736250592982355,19.392455230451915" style="fill:none;stroke:black;stroke-width:1"/>
<polygon points="16.8961304869097,20.297966659631754 18.343061722608283,20.13320026078224 16.546482263216987,14.090333391275102" style="fill:none;stroke:black;stroke-width:1"/>
<polygon points="19.20560990032115,19.04096490147974 20.208599057458642,18.853224068399484 16.546482263216987,14.090333391275102" style="fill:none;stroke:black;stroke-width:1"/>
<polygon points="18.343061722608283,20.13320026078224 19.20560990032115,19.04096490147974 16.546482263216987,14.090333391275102" style="fill:none;stroke:black;stroke-width:1"/>
<polygon points="20.578015398043433,19.687390488183397 19.79575910472171,21.130326501105703 16.546482263216987,14.090333391275102" style="fill:none;stroke:black;stroke-width:1"/>
<polygon points="19.79575910472171,21.130326501105703 13.651195851065937,21.50464443712692 16.546482263216987,14.090333391275102" style="fill:none;stroke:black;stroke-width:1"/>
<polygon points="20.798385755531605,16.791050706124793 21.844452268450535,17.888601530899027 20.594943269635344,18.182703953771338" style="fill:none;stroke:black;stroke-width:1"/>
<polygon points="21.844452268450535,17.888601530899027 22.19497409108296,19.138709009662836 20.594943269635344,18.182703953771338" style="fill:none;stroke:black;stroke-width:1"/>
<polygon points="20.537077317285814,23.12223716364689 21.66730004541545,21.987469097401675 20.594943269635344,18.182703953771338" style="fill:none;stroke:black;stroke-width:1"/>
<polygon points="21.66730004541545,21.987469097401675 22.32287757451897,20.5107424109249 20.594943269635344,18.182703953771338" style="fill:none;stroke:black;stroke-width:1"/>
<polygon points="19.335321460902005,16.170881017206852 20.798385755531605,16.791050706124793 20.594943269635344,18.182703953771338" style="fill:none;stroke:black;stroke-width:1"/>
<polygon points="22.32287757451897,20.5107424109249 19.335321460902005,16.170881017206852 20.594943269635344,18.182703953771338" style="fill:none;stroke:black;stroke-width:1"/>
<polygon points="15.528634012026512,7.617669255304081 15.422347358166816,7.387319938389526 20.356080233852282,5.2416544251604265" style="fill:none;stroke:black;stroke-width:1"/>
<polygon points="15.72308503111897,8.393788013601313 15.682239164937236,8.12358671201057 20.356080233852282,5.2416544251604265" style="fill:none;stroke:black;stroke-width:1"/>
<polygon points="15.682239164937236,8.12358671201057 15.72308503111897,8.393788013601313 14.573896048202613,8.822950029333676" style="fill:none;stroke:black;stroke-width:1"/>
<polygon points="15.624533620786005,8.910457431986464 14.631176377363753,9.0017621121233 14.573896048202613,8.822950029333676" style="fill:none;stroke:black;stroke-width:1"/>
<polygon points="14.631176377363753,9.0017621121233 15.624533620786005,8.910457431986464 14.771720829647563,9.139774874638459" style="fill:none;stroke:black;stroke-width:1"/>
<polygon points="14.631176377363753,9.0017621121233 14.771720829647563,9.139774874638459 16.87060826308611,9.95433594680905" style="fill:none;stroke:black;stroke-width:1"/>
<polygon points="14.631176377363753,9.0017621121233 16.87060826308611,9.95433594680905 14.000097401233077,9.993338167003339" style="fill:none;stroke:black;stroke-width:1"/>
<polygon points="14.573896048202613,8.822950029333676 14.631176377363753,9.0017621121233 14.000097401233077,9.993338167003339" style="fill:none;stroke:black;stroke-width:1"/>
<polygon points="14.404290458347894,6.242951985702138 13.744634516414385,7.574899051735238 14.229631474806553,6.131954272176506" style="fill:none;stroke:black;stroke-width:1"/>
<polygon points="13.744634516414385,7.574899051735238 13.549053594842817,7.465965567390342 14.229631474806553,6.131954272176506" style="fill:none;stroke:black;stroke-width:1"/>
<polygon points="12.984558223471453,5.702961033918309 13.213135423476446,5.74333542178052 12.842645428110849,7.185518514675751" style="fill:none;stroke:black;stroke-width:1"/>
<polygon points="13.09491776154277,7.270738863627173 13.213135423476446,5.74333542178052 13.433927052994298,5.796935877766593" style="fill:none;stroke:black;stroke-width:1"/>
<polygon points="13.213135423476446,5.74333542178052 13.09491776154277,7.270738863627173 12.842645428110849,7.185518514675751" style="fill:none;stroke:black;stroke-width:1"/>
<polygon points="13.433927052994298,5.796935877766593 13.213135423476446,5.74333542178052 17.39032870376609,2.4217801580905207" style="fill:none;stroke:black;stroke-width:1"/>
<polygon points="13.213135423476446,5.74333542178052 12.984558223471453,5.702961033918309 17.39032870376609,2.4217801580905207" style="fill:none;stroke:black;stroke-width:1"/>
<polygon points="11.757498824712915,6.495531357918071 11.861256905309148,6.740431656777109 13.069454297685198,5.087066395604951" style="fill:none;stroke:black;stroke-width:1"/>
<polygon points="11.755196288881699,6.222011621491914 11.757498824712915,6.495531357918071 13.069454297685198,5.087066395604951" style="fill:none;stroke:black;stroke-width:1"/>
<polygon points="11.757498824712915,6.495531357918071 11.755196288881699,6.222011621491914 11.861256905309148,6.740431656777109" style="fill:none;stroke:black;stroke-width:1"/>
<polygon points="12.049265221725442,6.931191130560963 12.304137931034482,7.043103448275862 14.000097401233077,9.993338167003339" style="fill:none;stroke:black;stroke-width:1"/>
<polygon points="12.304137931034482,7.043103448275862 14.573896048202613,8.822950029333676 14.000097401233077,9.993338167003339" style="fill:none;stroke:black;stroke-width:1"/>
<polygon points="12.304137931034482,7.043103448275862 12.049265221725442,6.931191130560963 12.031245119532011,5.790318836517735" style="fill:none;stroke:black;stroke-width:1"/>
<polygon points="12.304137931034482,7.043103448275862 13.744634516414385,7.574899051735238 14.573896048202613,8.822950029333676" style="fill:none;stroke:black;stroke-width:1"/>
<polygon points="13.744634516414385,7.574899051735238 12.304137931034482,7.043103448275862 13.549053594842817,7.465965567390342" style="fill:none;stroke:black;stroke-width:1"/>
<polygon points="11.755196288881699,6.222011621491914 11.854456693919062,5.975537011675025 11.861256905309148,6.740431656777109" style="fill:none;stroke:black;stroke-width:1"/>
<polygon points="11.854456693919062,5.975537011675025 12.049265221725442,6.931191130560963 11.861256905309148,6.740431656777109" style="fill:none;stroke:black;stroke-width:1"/>
<polygon points="12.049265221725442,6.931191130560963 11.854456693919062,5.975537011675025 12.031245119532011,5.790318836517735" style="fill:none;stroke:black;stroke-width:1"/>
<polygon points="11.854456693919062,5.975537011675025 11.755196288881699,6.222011621491914 14.519881981620987,2.812895715954929" style="fill:none;stroke:black;stroke-width:1"/>
<polygon points="15.351498310343418,3.4424585499910565 11.854456693919062,5.975537011675025 14.519881981620987,2.812895715954929" style="fill:none;stroke:black;stroke-width:1"/>
<polygon points="12.031245119532011,5.790318836517735 11.854456693919062,5.975537011675025 15.351498310343418,3.4424585499910565" style="fill:none;stroke:black;stroke-width:1"/>
<polygon points="19.37283731800775,19.828763742833768 17.767042423654086,19.761384150029226 19.400770274082333,14.072394019423081" style="fill:none;stroke:black;stroke-width:1"/>
<polygon points="19.53589267877632,17.16275795679773 17.371762919467468,21.645444330399155 19.400770274082333,14.072394019423081" style="fill:none;stroke:black;stroke-width:1"/>
<polygon points="17.371762919467468,21.645444330399155 15.82867233679207,21.064650267344817 19.400770274082333,14.072394019423081" style="fill:none;stroke:black;stroke-width:1"/>
<polygon points="16.778455150606643,24.617027350302394 16.961492593045264,24.704778160277343 14.33288572296863,21.610299629975" style="fill:none;stroke:black;stroke-width:1"/>
<polygon points="16.51626741886701,24.318154057449306 16.627214034956985,24.485194683217728 14.33288572296863,21.610299629975" style="fill:none;stroke:black;stroke-width:1"/>
<polygon points="16.627214034956985,24.485194683217728 16.778455150606643,24.617027350302394 14.33288572296863,21.610299629975" style="fill:none;stroke:black;stroke-width:1"/>
<polygon points="16.778455150606643,24.617027350302394 16.627214034956985,24.485194683217728 16.595661319313823,23.550279299792155" style="fill:none;stroke:black;stroke-width:1"/>
<polygon points="16.499343533205625,23.722368806007 12.901499625160106,18.595160145590686 16.595661319313823,23.550279299792155" style="fill:none;stroke:black;stroke-width:1"/>
<polygon points="16.499343533205625,23.722368806007 16.448632119952727,23.918072206612273 12.901499625160106,18.595160145590686" style="fill:none;stroke:black;stroke-width:1"/>
<polygon points="16.448632119952727,23.918072206612273 16.499343533205625,23.722368806007 16.51626741886701,24.318154057449306" style="fill:none;stroke:black;stroke-width:1"/>
<polygon points="16.627214034956985,24.485194683217728 16.499343533205625,23.722368806007 16.595661319313823,23.550279299792155" style="fill:none;stroke:black;stroke-width:1"/>
<polygon points="16.499343533205625,23.722368806007 16.627214034956985,24.485194683217728 16.51626741886701,24.318154057449306" style="fill:none;stroke:black;stroke-width:1"/>
<polygon points="16.454113475107427,24.12477937142311 16.51626741886701,24.318154057449306 12.901499625160106,18.595160145590686" style="fill:none;stroke:black;stroke-width:1"/>
<polygon points="16.448632119952727,23.918072206612273 16.454113475107427,24.12477937142311 12.901499625160106,18.595160145590686" style="fill:none;stroke:black;stroke-width:1"/>
<polygon points="16.454113475107427,24.12477937142311 16.448632119952727,23.918072206612273 16.51626741886701,24.318154057449306" style="fill:none;stroke:black;stroke-width:1"/>
<polygon points="18.534430431356576,22.836967641736134 18.83134652518669,24.46269936179765 18.355302961802558,22.878038614500575" style="fill:none;stroke:black;stroke-width:1"/>
<polygon points="18.721620309449804,22.801963093014393 18.534430431356576,22.836967641736134 13.75674153113124,17.74790490884156" style="fill:none;stroke:black;stroke-width:1"/>
<polygon points="18.994944050639816,24.41678994429119 18.534430431356576,22.836967641736134 18.721620309449804,22.801963093014393" style="fill:none;stroke:black;stroke-width:1"/>
<polygon points="18.83134652518669,24.46269936179765 18.534430431356576,22.836967641736134 18.994944050639816,24.41678994429119" style="fill:none;stroke:black;stroke-width:1"/>
<polygon points="19.322139101546075,24.324971109278266 19.114814096017827,22.754183164126047 19.485736626999202,24.279061691771805" style="fill:none;stroke:black;stroke-width:1"/>
<polygon points="18.915529297273224,22.774032442442106 19.114814096017827,22.754183164126047 19.322139101546075,24.324971109278266" style="fill:none;stroke:black;stroke-width:1"/>
<polygon points="13.656175641583308,20.93054781621335 19.114814096017827,22.754183164126047 13.411931182821284,19.303833706239285" style="fill:none;stroke:black;stroke-width:1"/>
<polygon points="19.114814096017827,22.754183164126047 18.915529297273224,22.774032442442106 13.411931182821284,19.303833706239285" style="fill:none;stroke:black;stroke-width:1"/>
<polygon points="14.469938123221171,22.329365012711563 15.726204003135248,23.35281495157696 19.727587738478558,22.774335206065366" style="fill:none;stroke:black;stroke-width:1"/>
<polygon points="15.726204003135248,23.35281495157696 17.30066157024047,23.87787646223589 19.727587738478558,22.774335206065366" style="fill:none;stroke:black;stroke-width:1"/>
<polygon points="19.91069810908807,22.861973975595077 19.03320533105789,23.792516814243918 20.537077317285814,23.12223716364689" style="fill:none;stroke:black;stroke-width:1"/>
<polygon points="17.30066157024047,23.87787646223589 19.03320533105789,23.792516814243918 19.91069810908807,22.861973975595077" style="fill:none;stroke:black;stroke-width:1"/>
<polygon points="18.534430431356576,22.836967641736134 14.602051552056245,16.483325560341488 13.75674153113124,17.74790490884156" style="fill:none;stroke:black;stroke-width:1"/>
<polygon points="14.602051552056245,16.483325560341488 18.534430431356576,22.836967641736134 18.355302961802558,22.878038614500575" style="fill:none;stroke:black;stroke-width:1"/>
<polygon points="18.185581199596765,22.92416853720095 14.602051552056245,16.483325560341488 18.355302961802558,22.878038614500575" style="fill:none;stroke:black;stroke-width:1"/>
<polygon points="15.849908477083835,15.633406810029046 14.602051552056245,16.483325560341488 18.185581199596765,22.92416853720095" style="fill:none;stroke:black;stroke-width:1"/>
<polygon points="17.968585672783615,24.678442368305333 17.775078575364965,24.706681108618515 17.531178826022888,23.107839489239378" style="fill:none;stroke:black;stroke-width:1"/>
<polygon points="17.69477635147602,23.061930071732917 17.968585672783615,24.678442368305333 17.531178826022888,23.107839489239378" style="fill:none;stroke:black;stroke-width:1"/>
<polygon points="17.968585672783615,24.678442368305333 17.69477635147602,23.061930071732917 18.155417190032658,24.643007873031976" style="fill:none;stroke:black;stroke-width:1"/>
<polygon points="17.968585672783615,24.678442368305333 18.155417190032658,24.643007873031976 17.180986065688167,22.390360638474057" style="fill:none;stroke:black;stroke-width:1"/>
<polygon points="17.775078575364965,24.706681108618515 17.968585672783615,24.678442368305333 17.180986065688167,22.390360638474057" style="fill:none;stroke:black;stroke-width:1"/>
<polygon points="13.100870656493916,20.666910132449786 13.68755435809507,14.117737802943992 14.600288901792435,13.087407874706507" style="fill:none;stroke:black;stroke-width:1"/>
<polygon points="13.185679459345414,20.68650365076062 13.100870656493916,20.666910132449786 14.600288901792435,13.087407874706507" style="fill:none;stroke:black;stroke-width:1"/>
<polygon points="12.274824590949475,22.15081963419549 12.336938430996543,22.20290304451759 12.901499625160106,18.595160145590686" style="fill:none;stroke:black;stroke-width:1"/>
<polygon points="15.301745988505886,7.174414734925179 15.169241528188055,6.978763292115843 20.356080233852282,5.2416544251604265" style="fill:none;stroke:black;stroke-width:1"/>
<polygon points="15.422347358166816,7.387319938389526 15.301745988505886,7.174414734925179 20.356080233852282,5.2416544251604265" style="fill:none;stroke:black;stroke-width:1"/>
<polygon points="15.61700514843632,7.864099182472204 15.528634012026512,7.617669255304081 20.356080233852282,5.2416544251604265" style="fill:none;stroke:black;stroke-width:1"/>
<polygon points="15.682239164937236,8.12358671201057 15.61700514843632,7.864099182472204 20.356080233852282,5.2416544251604265" style="fill:none;stroke:black;stroke-width:1"/>
<polygon points="14.568281953985775,6.363682534119729 13.915453326689757,7.69193617109261 14.404290458347894,6.242951985702138" style="fill:none;stroke:black;stroke-width:1"/>
<polygon points="13.915453326689757,7.69193617109261 13.744634516414385,7.574899051735238 14.404290458347894,6.242951985702138" style="fill:none;stroke:black;stroke-width:1"/>
<polygon points="13.915453326689757,7.69193617109261 14.568281953985775,6.363682534119729 14.724426786288987,6.493427988083629" style="fill:none;stroke:black;stroke-width:1"/>
<polygon points="13.744634516414385,7.574899051735238 13.915453326689757,7.69193617109261 14.573896048202613,8.822950029333676" style="fill:none;stroke:black;stroke-width:1"/>
<polygon points="12.578266678099915,7.109078991339866 12.984558223471453,5.702961033918309 12.842645428110849,7.185518514675751" style="fill:none;stroke:black;stroke-width:1"/>
<polygon points="12.984558223471453,5.702961033918309 12.578266678099915,7.109078991339866 12.748675772548706,5.676394919718613" style="fill:none;stroke:black;stroke-width:1"/>
<polygon points="13.331434246836183,7.3644000262765115 12.578266678099915,7.109078991339866 12.842645428110849,7.185518514675751" style="fill:none;stroke:black;stroke-width:1"/>
<polygon points="13.549053594842817,7.465965567390342 12.578266678099915,7.109078991339866 13.331434246836183,7.3644000262765115" style="fill:none;stroke:black;stroke-width:1"/>
<polygon points="12.304137931034482,7.043103448275862 12.578266678099915,7.109078991339866 13.549053594842817,7.465965567390342" style="fill:none;stroke:black;stroke-width:1"/>
<polygon points="12.748675772548706,5.676394919718613 12.50596839027759,5.664219284720082 15.351498310343418,3.4424585499910565" style="fill:none;stroke:black;stroke-width:1"/>
<polygon points="12.578266678099915,7.109078991339866 12.50596839027759,5.664219284720082 12.748675772548706,5.676394919718613" style="fill:none;stroke:black;stroke-width:1"/>
<polygon points="12.50596839027759,5.664219284720082 12.578266678099915,7.109078991339866 12.304137931034482,7.043103448275862" style="fill:none;stroke:black;stroke-width:1"/>
<polygon points="17.475184309083062,15.079857847827052 20.332669333259265,18.725516029576404 19.400770274082333,14.072394019423081" style="fill:none;stroke:black;stroke-width:1"/>
<polygon points="20.332669333259265,18.725516029576404 19.37283731800775,19.828763742833768 19.400770274082333,14.072394019423081" style="fill:none;stroke:black;stroke-width:1"/>
<polygon points="18.372691432535632,16.410438936676027 19.53589267877632,17.16275795679773 19.400770274082333,14.072394019423081" style="fill:none;stroke:black;stroke-width:1"/>
<polygon points="17.075210270824677,17.00220310766804 18.372691432535632,16.410438936676027 19.400770274082333,14.072394019423081" style="fill:none;stroke:black;stroke-width:1"/>
<polygon points="17.767042423654086,19.761384150029226 16.7714915161233,18.51141292193436 19.400770274082333,14.072394019423081" style="fill:none;stroke:black;stroke-width:1"/>
<polygon points="16.7714915161233,18.51141292193436 17.075210270824677,17.00220310766804 19.400770274082333,14.072394019423081" style="fill:none;stroke:black;stroke-width:1"/>
<polygon points="15.11579164218879,18.382129001172636 15.736250592982355,19.392455230451915 17.52353820643258,13.048653023163357" style="fill:none;stroke:black;stroke-width:1"/>
<polygon points="14.039090256138882,18.549048478828393 15.11579164218879,18.382129001172636 17.52353820643258,13.048653023163357" style="fill:none;stroke:black;stroke-width:1"/>
<polygon points="15.82867233679207,21.064650267344817 14.666439598057801,19.981714416364937 17.52353820643258,13.048653023163357" style="fill:none;stroke:black;stroke-width:1"/>
<polygon points="14.666439598057801,19.981714416364937 14.039090256138882,18.549048478828393 17.52353820643258,13.048653023163357" style="fill:none;stroke:black;stroke-width:1"/>
<polygon points="17.372940598835658,24.73760226246503 17.167878110432888,24.739310344827587 17.040386249663502,23.245567741758762" style="fill:none;stroke:black;stroke-width:1"/>
<polygon points="17.167878110432888,24.739310344827587 16.87486313240997,23.30525601586284 17.040386249663502,23.245567741758762" style="fill:none;stroke:black;stroke-width:1"/>
<polygon points="17.167878110432888,24.739310344827587 17.372940598835658,24.73760226246503 14.33288572296863,21.610299629975" style="fill:none;stroke:black;stroke-width:1"/>
<polygon points="16.961492593045264,24.704778160277343 17.167878110432888,24.739310344827587 14.33288572296863,21.610299629975" style="fill:none;stroke:black;stroke-width:1"/>
<polygon points="17.167878110432888,24.739310344827587 16.961492593045264,24.704778160277343 16.778455150606643,24.617027350302394" style="fill:none;stroke:black;stroke-width:1"/>
<polygon points="19.114814096017827,22.754183164126047 19.318131406874585,22.743422732172977 19.485736626999202,24.279061691771805" style="fill:none;stroke:black;stroke-width:1"/>
<polygon points="19.649334152452333,24.233152274265343 19.318131406874585,22.743422732172977 19.52413793103448,22.742758620689656" style="fill:none;stroke:black;stroke-width:1"/>
<polygon points="19.318131406874585,22.743422732172977 19.649334152452333,24.233152274265343 19.485736626999202,24.279061691771805" style="fill:none;stroke:black;stroke-width:1"/>
<polygon points="19.318131406874585,22.743422732172977 13.656175641583308,20.93054781621335 19.52413793103448,22.742758620689656" style="fill:none;stroke:black;stroke-width:1"/>
<polygon points="19.318131406874585,22.743422732172977 19.114814096017827,22.754183164126047 13.656175641583308,20.93054781621335" style="fill:none;stroke:black;stroke-width:1"/>
<polygon points="13.264615633667423,20.71380151363275 13.185679459345414,20.68650365076062 14.600288901792435,13.087407874706507" style="fill:none;stroke:black;stroke-width:1"/>
<polygon points="16.546482263216987,14.090333391275102 13.464897954620666,20.83906275071522 14.600288901792435,13.087407874706507" style="fill:none;stroke:black;stroke-width:1"/>
<polygon points="13.464897954620666,20.83906275071522 13.402784114573596,20.78697934039312 14.600288901792435,13.087407874706507" style="fill:none;stroke:black;stroke-width:1"/>
<polygon points="12.619925867896747,20.72227519058036 12.521277506132368,20.77350137254017 13.68755435809507,14.117737802943992" style="fill:none;stroke:black;stroke-width:1"/>
<polygon points="12.521277506132368,20.77350137254017 12.427564510367066,20.83973254362365 13.68755435809507,14.117737802943992" style="fill:none;stroke:black;stroke-width:1"/>
<polygon points="12.341197046622696,20.92028970866951 12.26438800062072,21.01438541675355 13.68755435809507,14.117737802943992" style="fill:none;stroke:black;stroke-width:1"/>
<polygon points="12.427564510367066,20.83973254362365 12.341197046622696,20.92028970866951 13.68755435809507,14.117737802943992" style="fill:none;stroke:black;stroke-width:1"/>
<polygon points="12.170401989309186,22.008766928953385 12.218788796992932,22.085819718449578 12.901499625160106,18.595160145590686" style="fill:none;stroke:black;stroke-width:1"/>
<polygon points="12.218788796992932,22.085819718449578 12.274824590949475,22.15081963419549 12.901499625160106,18.595160145590686" style="fill:none;stroke:black;stroke-width:1"/>
<polygon points="17.167878110432888,24.739310344827587 16.72339051278967,23.408797573298553 16.87486313240997,23.30525601586284" style="fill:none;stroke:black;stroke-width:1"/>
<polygon points="16.72339051278967,23.408797573298553 16.778455150606643,24.617027350302394 16.595661319313823,23.550279299792155" style="fill:none;stroke:black;stroke-width:1"/>
<polygon points="16.72339051278967,23.408797573298553 17.167878110432888,24.739310344827587 16.778455150606643,24.617027350302394" style="fill:none;stroke:black;stroke-width:1"/>
<polygon points="12.336938430996543,22.20290304451759 12.403015276009919,22.242618907660336 16.595661319313823,23.550279299792155" style="fill:none;stroke:black;stroke-width:1"/>
<polygon points="12.403015276009919,22.242618907660336 16.72339051278967,23.408797573298553 16.595661319313823,23.550279299792155" style="fill:none;stroke:black;stroke-width:1"/>
<polygon points="16.72339051278967,23.408797573298553 12.403015276009919,22.242618907660336 12.475235565224603,22.276378235837146" style="fill:none;stroke:black;stroke-width:1"/>
<polygon points="12.823125167266257,22.335173381109733 17.203983775116633,23.1996583242523 17.040386249663502,23.245567741758762" style="fill:none;stroke:black;stroke-width:1"/>
<polygon points="14.878170208780022,6.638460272648498 14.067026604060146,7.822826937931888 14.724426786288987,6.493427988083629" style="fill:none;stroke:black;stroke-width:1"/>
<polygon points="14.067026604060146,7.822826937931888 13.915453326689757,7.69193617109261 14.724426786288987,6.493427988083629" style="fill:none;stroke:black;stroke-width:1"/>
<polygon points="13.915453326689757,7.69193617109261 14.067026604060146,7.822826937931888 14.573896048202613,8.822950029333676" style="fill:none;stroke:black;stroke-width:1"/>
<polygon points="12.25977188689879,5.683300545147615 12.304137931034482,7.043103448275862 12.031245119532011,5.790318836517735" style="fill:none;stroke:black;stroke-width:1"/>
<polygon points="12.25977188689879,5.683300545147615 12.50596839027759,5.664219284720082 12.304137931034482,7.043103448275862" style="fill:none;stroke:black;stroke-width:1"/>
<polygon points="12.25977188689879,5.683300545147615 12.031245119532011,5.790318836517735 15.351498310343418,3.4424585499910565" style="fill:none;stroke:black;stroke-width:1"/>
<polygon points="12.50596839027759,5.664219284720082 12.25977188689879,5.683300545147615 15.351498310343418,3.4424585499910565" style="fill:none;stroke:black;stroke-width:1"/>
<polygon points="13.402784114573596,20.78697934039312 13.336713006693484,20.747368203105488 14.600288901792435,13.087407874706507" style="fill:none;stroke:black;stroke-width:1"/>
<polygon points="13.336713006693484,20.747368203105488 13.264615633667423,20.71380151363275 14.600288901792435,13.087407874706507" style="fill:none;stroke:black;stroke-width:1"/>
<polygon points="13.520933748577207,20.904062666461133 16.546482263216987,14.090333391275102 13.569320556260955,20.98111545595733" style="fill:none;stroke:black;stroke-width:1"/>
<polygon points="13.520933748577207,20.904062666461133 13.464897954620666,20.83906275071522 16.546482263216987,14.090333391275102" style="fill:none;stroke:black;stroke-width:1"/>
<polygon points="12.720917298063528,20.68660066657069 12.619925867896747,20.72227519058036 13.68755435809507,14.117737802943992" style="fill:none;stroke:black;stroke-width:1"/>
<polygon points="12.820490539560053,20.665365330722057 12.720917298063528,20.68660066657069 13.68755435809507,14.117737802943992" style="fill:none;stroke:black;stroke-width:1"/>
<polygon points="12.917401128306693,20.655458330883196 12.820490539560053,20.665365330722057 13.68755435809507,14.117737802943992" style="fill:none;stroke:black;stroke-width:1"/>
<polygon points="12.102233075802712,21.822891042820988 12.131114478997697,21.920714978399502 12.862142005943042,16.19428830499851" style="fill:none;stroke:black;stroke-width:1"/>
<polygon points="12.084900478942945,21.71667640829224 12.102233075802712,21.822891042820988 12.862142005943042,16.19428830499851" style="fill:none;stroke:black;stroke-width:1"/>
<polygon points="12.0885266945042,21.48523794778379 12.080077256062276,21.603584687222465 12.862142005943042,16.19428830499851" style="fill:none;stroke:black;stroke-width:1"/>
<polygon points="12.080077256062276,21.603584687222465 12.084900478942945,21.71667640829224 12.862142005943042,16.19428830499851" style="fill:none;stroke:black;stroke-width:1"/>
<polygon points="12.26438800062072,21.01438541675355 12.199140940284845,21.121149342172686 12.862142005943042,16.19428830499851" style="fill:none;stroke:black;stroke-width:1"/>
<polygon points="12.199140940284845,21.121149342172686 12.147241379310346,21.23965517241379 12.862142005943042,16.19428830499851" style="fill:none;stroke:black;stroke-width:1"/>
<polygon points="12.110802763814455,21.363341132927218 12.0885266945042,21.48523794778379 12.862142005943042,16.19428830499851" style="fill:none;stroke:black;stroke-width:1"/>
<polygon points="12.147241379310346,21.23965517241379 12.110802763814455,21.363341132927218 12.862142005943042,16.19428830499851" style="fill:none;stroke:black;stroke-width:1"/>
<polygon points="16.87486313240997,23.30525601586284 12.72918874457612,22.334334716315837 17.040386249663502,23.245567741758762" style="fill:none;stroke:black;stroke-width:1"/>
<polygon points="12.72918874457612,22.334334716315837 12.823125167266257,22.335173381109733 17.040386249663502,23.245567741758762" style="fill:none;stroke:black;stroke-width:1"/>
<polygon points="17.203983775116633,23.1996583242523 12.920250388164732,22.325299723828316 17.36758130056976,23.15374890674584" style="fill:none;stroke:black;stroke-width:1"/>
<polygon points="12.823125167266257,22.335173381109733 12.920250388164732,22.325299723828316 17.203983775116633,23.1996583242523" style="fill:none;stroke:black;stroke-width:1"/>
<polygon points="17.36758130056976,23.15374890674584 12.920250388164732,22.325299723828316 17.531178826022888,23.107839489239378" style="fill:none;stroke:black;stroke-width:1"/>
<polygon points="14.201188810186888,7.966066325716463 14.878170208780022,6.638460272648498 15.027245695512905,6.800175256008094" style="fill:none;stroke:black;stroke-width:1"/>
<polygon points="14.201188810186888,7.966066325716463 14.067026604060146,7.822826937931888 14.878170208780022,6.638460272648498" style="fill:none;stroke:black;stroke-width:1"/>
<polygon points="14.201188810186888,7.966066325716463 15.027245695512905,6.800175256008094 15.169241528188055,6.978763292115843" style="fill:none;stroke:black;stroke-width:1"/>
<polygon points="14.067026604060146,7.822826937931888 14.201188810186888,7.966066325716463 14.573896048202613,8.822950029333676" style="fill:none;stroke:black;stroke-width:1"/>
<polygon points="13.100870656493916,20.666910132449786 13.011141262037635,20.65623179389032 13.68755435809507,14.117737802943992" style="fill:none;stroke:black;stroke-width:1"/>
<polygon points="13.011141262037635,20.65623179389032 12.917401128306693,20.655458330883196 13.68755435809507,14.117737802943992" style="fill:none;stroke:black;stroke-width:1"/>
<polygon points="16.72339051278967,23.408797573298553 12.55431299892788,22.303836878184022 16.87486313240997,23.30525601586284" style="fill:none;stroke:black;stroke-width:1"/>
<polygon points="12.55431299892788,22.303836878184022 16.72339051278967,23.408797573298553 12.475235565224603,22.276378235837146" style="fill:none;stroke:black;stroke-width:1"/>
<polygon points="13.01988510231756,22.304241249080395 17.69477635147602,23.061930071732917 17.531178826022888,23.107839489239378" style="fill:none;stroke:black;stroke-width:1"/>
<polygon points="12.920250388164732,22.325299723828316 13.01988510231756,22.304241249080395 17.531178826022888,23.107839489239378" style="fill:none;stroke:black;stroke-width:1"/>
<polygon points="17.69477635147602,23.061930071732917 13.01988510231756,22.304241249080395 17.85837387692915,23.016020654226455" style="fill:none;stroke:black;stroke-width:1"/>
<polygon points="15.301745988505886,7.174414734925179 14.316884581528171,8.120381690175332 15.169241528188055,6.978763292115843" style="fill:none;stroke:black;stroke-width:1"/>
<polygon points="14.316884581528171,8.120381690175332 14.201188810186888,7.966066325716463 15.169241528188055,6.978763292115843" style="fill:none;stroke:black;stroke-width:1"/>
<polygon points="14.201188810186888,7.966066325716463 14.316884581528171,8.120381690175332 14.573896048202613,8.822950029333676" style="fill:none;stroke:black;stroke-width:1"/>
<polygon points="12.639281404353289,22.323559316740276 12.72918874457612,22.334334716315837 16.87486313240997,23.30525601586284" style="fill:none;stroke:black;stroke-width:1"/>
<polygon points="12.55431299892788,22.303836878184022 12.639281404353289,22.323559316740276 16.87486313240997,23.30525601586284" style="fill:none;stroke:black;stroke-width:1"/>
<polygon points="13.120339350078456,22.26901720364154 18.185581199596765,22.92416853720095 18.021971402382277,22.970111236719994" style="fill:none;stroke:black;stroke-width:1"/>
<polygon points="18.185581199596765,22.92416853720095 13.120339350078456,22.26901720364154 13.218548217345221,22.21791526712289" style="fill:none;stroke:black;stroke-width:1"/>
<polygon points="17.85837387692915,23.016020654226455 13.120339350078456,22.26901720364154 18.021971402382277,22.970111236719994" style="fill:none;stroke:black;stroke-width:1"/>
<polygon points="13.01988510231756,22.304241249080395 13.120339350078456,22.26901720364154 17.85837387692915,23.016020654226455" style="fill:none;stroke:black;stroke-width:1"/>
<polygon points="14.413058554542195,8.28450038703749 15.301745988505886,7.174414734925179 15.422347358166816,7.387319938389526" style="fill:none;stroke:black;stroke-width:1"/>
<polygon points="14.413058554542195,8.28450038703749 14.316884581528171,8.120381690175332 15.301745988505886,7.174414734925179" style="fill:none;stroke:black;stroke-width:1"/>
<polygon points="14.413058554542195,8.28450038703749 15.422347358166816,7.387319938389526 15.528634012026512,7.617669255304081" style="fill:none;stroke:black;stroke-width:1"/>
<polygon points="14.316884581528171,8.120381690175332 14.542619651421223,8.637057200887666 14.573896048202613,8.822950029333676" style="fill:none;stroke:black;stroke-width:1"/>
<polygon points="14.413058554542195,8.28450038703749 14.542619651421223,8.637057200887666 14.316884581528171,8.120381690175332" style="fill:none;stroke:black;stroke-width:1"/>
<polygon points="14.542619651421223,8.637057200887666 15.682239164937236,8.12358671201057 14.573896048202613,8.822950029333676" style="fill:none;stroke:black;stroke-width:1"/>
<polygon points="14.542619651421223,8.637057200887666 15.61700514843632,7.864099182472204 15.682239164937236,8.12358671201057" style="fill:none;stroke:black;stroke-width:1"/>
<polygon points="15.61700514843632,7.864099182472204 14.488655365687148,8.457149772031935 15.528634012026512,7.617669255304081" style="fill:none;stroke:black;stroke-width:1"/>
<polygon points="14.542619651421223,8.637057200887666 14.488655365687148,8.457149772031935 15.61700514843632,7.864099182472204" style="fill:none;stroke:black;stroke-width:1"/>
<polygon points="14.488655365687148,8.457149772031935 14.413058554542195,8.28450038703749 15.528634012026512,7.617669255304081" style="fill:none;stroke:black;stroke-width:1"/>
<polygon points="14.488655365687148,8.457149772031935 14.542619651421223,8.637057200887666 14.413058554542195,8.28450038703749" style="fill:none;stroke:black;stroke-width:1"/>
<polygon points="13.651195851065937,21.50464443712692 19.79575910472171,21.130326501105703 13.628919781755684,21.626541251983497" style="fill:none;stroke:black;stroke-width:1"/>
<polygon points="13.628919781755684,21.626541251983497 19.79575910472171,21.130326501105703 18.556504950852037,22.152417785387875" style="fill:none;stroke:black;stroke-width:1"/>
<polygon points="13.475350012149688,21.97617449679035 20.043127257238666,16.404750940011905 18.854761289967662,15.610427083389622" style="fill:none;stroke:black;stroke-width:1"/>
<polygon points="13.475350012149688,21.97617449679035 18.854761289967662,15.610427083389622 13.398300609718886,22.070687897021028" style="fill:none;stroke:black;stroke-width:1"/>
<polygon points="20.832678812621268,17.583534748880904 13.475350012149688,21.97617449679035 13.541248352672195,21.86896514879827" style="fill:none;stroke:black;stroke-width:1"/>
<polygon points="13.475350012149688,21.97617449679035 20.832678812621268,17.583534748880904 20.043127257238666,16.404750940011905" style="fill:none;stroke:black;stroke-width:1"/>
<polygon points="17.389900302626266,15.321491610392885 13.311983871054778,22.151554901984454 13.398300609718886,22.070687897021028" style="fill:none;stroke:black;stroke-width:1"/>
<polygon points="18.854761289967662,15.610427083389622 17.389900302626266,15.321491610392885 13.398300609718886,22.070687897021028" style="fill:none;stroke:black;stroke-width:1"/>
<polygon points="13.311983871054778,22.151554901984454 17.389900302626266,15.321491610392885 13.218548217345221,22.21791526712289" style="fill:none;stroke:black;stroke-width:1"/>
<polygon points="17.389900302626266,15.321491610392885 15.849908477083835,15.633406810029046 13.218548217345221,22.21791526712289" style="fill:none;stroke:black;stroke-width:1"/>
<polygon points="19.03320533105789,23.792516814243918 21.09896551724138,19.021724137931034 20.537077317285814,23.12223716364689" style="fill:none;stroke:black;stroke-width:1"/>
<polygon points="21.09896551724138,19.021724137931034 13.411931182821284,19.303833706239285 13.75674153113124,17.74790490884156" style="fill:none;stroke:black;stroke-width:1"/>
<polygon points="19.20560990032115,19.04096490147974 21.09896551724138,19.021724137931034 20.208599057458642,18.853224068399484" style="fill:none;stroke:black;stroke-width:1"/>
<polygon points="21.09896551724138,19.021724137931034 13.656175641583308,20.93054781621335 13.411931182821284,19.303833706239285" style="fill:none;stroke:black;stroke-width:1"/>
<polygon points="21.09896551724138,19.021724137931034 20.3220855800059,17.849950959129455 21.00954757700717,19.280938579756004" style="fill:none;stroke:black;stroke-width:1"/>
<polygon points="21.09896551724138,19.021724137931034 21.844452268450535,17.888601530899027 20.798385755531605,16.791050706124793" style="fill:none;stroke:black;stroke-width:1"/>
<polygon points="21.09896551724138,19.021724137931034 17.475184309083062,15.079857847827052 16.234480711020918,15.998885295643046" style="fill:none;stroke:black;stroke-width:1"/>
<polygon points="19.335321460902005,16.170881017206852 21.09896551724138,19.021724137931034 20.798385755531605,16.791050706124793" style="fill:none;stroke:black;stroke-width:1"/>
<polygon points="21.09896551724138,19.021724137931034 17.389900302626266,15.321491610392885 18.854761289967662,15.610427083389622" style="fill:none;stroke:black;stroke-width:1"/>
<polygon points="22.19497409108296,19.138709009662836 21.09896551724138,19.021724137931034 21.00954757700717,19.280938579756004" style="fill:none;stroke:black;stroke-width:1"/>
<polygon points="18.99191338413587,17.077217788573243 21.09896551724138,19.021724137931034 17.541840943983907,17.412277648675868" style="fill:none;stroke:black;stroke-width:1"/>
<polygon points="15.4254880661952,17.375165150991627 21.09896551724138,19.021724137931034 16.234480711020918,15.998885295643046" style="fill:none;stroke:black;stroke-width:1"/>
<polygon points="21.09896551724138,19.021724137931034 16.778391714848297,18.60091455106659 17.541840943983907,17.412277648675868" style="fill:none;stroke:black;stroke-width:1"/>
<polygon points="21.09896551724138,19.021724137931034 17.371762919467468,21.645444330399155 19.53589267877632,17.16275795679773" style="fill:none;stroke:black;stroke-width:1"/>
<polygon points="21.09896551724138,19.021724137931034 15.726204003135248,23.35281495157696 14.469938123221171,22.329365012711563" style="fill:none;stroke:black;stroke-width:1"/>
<polygon points="21.09896551724138,19.021724137931034 16.8961304869097,20.297966659631754 15.736250592982355,19.392455230451915" style="fill:none;stroke:black;stroke-width:1"/>
<polygon points="21.09896551724138,19.021724137931034 20.578015398043433,19.687390488183397 20.208599057458642,18.853224068399484" style="fill:none;stroke:black;stroke-width:1"/>
<polygon points="19.79575910472171,21.130326501105703 21.09896551724138,19.021724137931034 18.556504950852037,22.152417785387875" style="fill:none;stroke:black;stroke-width:1"/>
<polygon points="21.09896551724138,19.021724137931034 21.66730004541545,21.987469097401675 20.537077317285814,23.12223716364689" style="fill:none;stroke:black;stroke-width:1"/>
<polygon points="20.3220855800059,17.849950959129455 21.09896551724138,19.021724137931034 18.99191338413587,17.077217788573243" style="fill:none;stroke:black;stroke-width:1"/>
<polygon points="21.09896551724138,19.021724137931034 15.4254880661952,17.375165150991627 15.485857298234508,18.60626800047785" style="fill:none;stroke:black;stroke-width:1"/>
<polygon points="16.778391714848297,18.60091455106659 21.09896551724138,19.021724137931034 15.485857298234508,18.60626800047785" style="fill:none;stroke:black;stroke-width:1"/>
<polygon points="14.602051552056245,16.483325560341488 21.09896551724138,19.021724137931034 13.75674153113124,17.74790490884156" style="fill:none;stroke:black;stroke-width:1"/>
<polygon points="21.09896551724138,19.021724137931034 20.332669333259265,18.725516029576404 17.475184309083062,15.079857847827052" style="fill:none;stroke:black;stroke-width:1"/>
<polygon points="13.656175641583308,20.93054781621335 21.09896551724138,19.021724137931034 14.469938123221171,22.329365012711563" style="fill:none;stroke:black;stroke-width:1"/>
<polygon points="21.09896551724138,19.021724137931034 16.7714915161233,18.51141292193436 17.767042423654086,19.761384150029226" style="fill:none;stroke:black;stroke-width:1"/>
<polygon points="20.043127257238666,16.404750940011905 21.09896551724138,19.021724137931034 18.854761289967662,15.610427083389622" style="fill:none;stroke:black;stroke-width:1"/>
<polygon points="20.832678812621268,17.583534748880904 21.09896551724138,19.021724137931034 20.043127257238666,16.404750940011905" style="fill:none;stroke:black;stroke-width:1"/>
<polygon points="16.8961304869097,20.297966659631754 21.09896551724138,19.021724137931034 18.343061722608283,20.13320026078224" style="fill:none;stroke:black;stroke-width:1"/>
<polygon points="21.09896551724138,19.021724137931034 19.20560990032115,19.04096490147974 18.343061722608283,20.13320026078224" style="fill:none;stroke:black;stroke-width:1"/>
<polygon points="21.09896551724138,19.021724137931034 19.79575910472171,21.130326501105703 20.578015398043433,19.687390488183397" style="fill:none;stroke:black;stroke-width:1"/>
<polygon points="21.844452268450535,17.888601530899027 21.09896551724138,19.021724137931034 22.19497409108296,19.138709009662836" style="fill:none;stroke:black;stroke-width:1"/>
<polygon points="21.66730004541545,21.987469097401675 21.09896551724138,19.021724137931034 22.32287757451897,20.5107424109249" style="fill:none;stroke:black;stroke-width:1"/>
<polygon points="21.09896551724138,19.021724137931034 19.335321460902005,16.170881017206852 22.32287757451897,20.5107424109249" style="fill:none;stroke:black;stroke-width:1"/>
<polygon points="19.37283731800775,19.828763742833768 21.09896551724138,19.021724137931034 17.767042423654086,19.761384150029226" style="fill:none;stroke:black;stroke-width:1"/>
<polygon points="18.372691432535632,16.410438936676027 21.09896551724138,19.021724137931034 19.53589267877632,17.16275795679773" style="fill:none;stroke:black;stroke-width:1"/>
<polygon points="17.371762919467468,21.645444330399155 21.09896551724138,19.021724137931034 15.82867233679207,21.064650267344817" style="fill:none;stroke:black;stroke-width:1"/>
<polygon points="15.11579164218879,18.382129001172636 21.09896551724138,19.021724137931034 15.736250592982355,19.392455230451915" style="fill:none;stroke:black;stroke-width:1"/>
<polygon points="15.726204003135248,23.35281495157696 21.09896551724138,19.021724137931034 17.30066157024047,23.87787646223589" style="fill:none;stroke:black;stroke-width:1"/>
<polygon points="21.09896551724138,19.021724137931034 19.03320533105789,23.792516814243918 17.30066157024047,23.87787646223589" style="fill:none;stroke:black;stroke-width:1"/>
<polygon points="21.09896551724138,19.021724137931034 14.666439598057801,19.981714416364937 15.82867233679207,21.064650267344817" style="fill:none;stroke:black;stroke-width:1"/>
<polygon points="17.389900302626266,15.321491610392885 21.09896551724138,19.021724137931034 15.849908477083835,15.633406810029046" style="fill:none;stroke:black;stroke-width:1"/>
<polygon points="21.09896551724138,19.021724137931034 14.602051552056245,16.483325560341488 15.849908477083835,15.633406810029046" style="fill:none;stroke:black;stroke-width:1"/>
<polygon points="20.332669333259265,18.725516029576404 21.09896551724138,19.021724137931034 19.37283731800775,19.828763742833768" style="fill:none;stroke:black;stroke-width:1"/>
<polygon points="21.09896551724138,19.021724137931034 18.372691432535632,16.410438936676027 17.075210270824677,17.00220310766804" style="fill:none;stroke:black;stroke-width:1"/>
<polygon points="16.7714915161233,18.51141292193436 21.09896551724138,19.021724137931034 17.075210270824677,17.00220310766804" style="fill:none;stroke:black;stroke-width:1"/>
<polygon points="21.09896551724138,19.021724137931034 15.11579164218879,18.382129001172636 14.039090256138882,18.549048478828393" style="fill:none;stroke:black;stroke-width:1"/>
<polygon points="14.666439598057801,19.981714416364937 21.09896551724138,19.021724137931034 14.039090256138882,18.549048478828393" style="fill:none;stroke:black;stroke-width:1"/>
<polygon points="21.09896551724138,19.021724137931034 13.592579456799209,21.750338904205776 13.628919781755684,21.626541251983497" style="fill:none;stroke:black;stroke-width:1"/>
<polygon points="21.09896551724138,19.021724137931034 13.628919781755684,21.626541251983497 18.556504950852037,22.152417785387875" style="fill:none;stroke:black;stroke-width:1"/>
<polygon points="13.592579456799209,21.750338904205776 21.09896551724138,19.021724137931034 13.541248352672195,21.86896514879827" style="fill:none;stroke:black;stroke-width:1"/>
<polygon points="21.09896551724138,19.021724137931034 20.832678812621268,17.583534748880904 13.541248352672195,21.86896514879827" style="fill:none;stroke:black;stroke-width:1"/>
<polygon points="13.120339350078456,22.26901720364154 13.569320556260955,20.98111545595733 13.608608066572442,21.06916740651121" style="fill:none;stroke:black;stroke-width:1"/>
<polygon points="13.637489469767425,21.166991342089723 13.120339350078456,22.26901720364154 13.608608066572442,21.06916740651121" style="fill:none;stroke:black;stroke-width:1"/>
<polygon points="13.120339350078456,22.26901720364154 12.080077256062276,21.603584687222465 12.0885266945042,21.48523794778379" style="fill:none;stroke:black;stroke-width:1"/>
<polygon points="13.120339350078456,22.26901720364154 13.311983871054778,22.151554901984454 13.218548217345221,22.21791526712289" style="fill:none;stroke:black;stroke-width:1"/>
<polygon points="13.120339350078456,22.26901720364154 13.654822066627192,21.273205976618474 13.659645289507862,21.386297697688246" style="fill:none;stroke:black;stroke-width:1"/>
<polygon points="13.651195851065937,21.50464443712692 13.120339350078456,22.26901720364154 13.659645289507862,21.386297697688246" style="fill:none;stroke:black;stroke-width:1"/>
<polygon points="13.120339350078456,22.26901720364154 13.520933748577207,20.904062666461133 13.569320556260955,20.98111545595733" style="fill:none;stroke:black;stroke-width:1"/>
<polygon points="13.120339350078456,22.26901720364154 13.592579456799209,21.750338904205776 13.541248352672195,21.86896514879827" style="fill:none;stroke:black;stroke-width:1"/>
<polygon points="13.311983871054778,22.151554901984454 13.120339350078456,22.26901720364154 13.398300609718886,22.070687897021028" style="fill:none;stroke:black;stroke-width:1"/>
<polygon points="13.475350012149688,21.97617449679035 13.120339350078456,22.26901720364154 13.541248352672195,21.86896514879827" style="fill:none;stroke:black;stroke-width:1"/>
<polygon points="13.120339350078456,22.26901720364154 12.170401989309186,22.008766928953385 12.131114478997697,21.920714978399502" style="fill:none;stroke:black;stroke-width:1"/>
<polygon points="13.654822066627192,21.273205976618474 13.120339350078456,22.26901720364154 13.637489469767425,21.166991342089723" style="fill:none;stroke:black;stroke-width:1"/>
<polygon points="13.592579456799209,21.750338904205776 13.120339350078456,22.26901720364154 13.628919781755684,21.626541251983497" style="fill:none;stroke:black;stroke-width:1"/>
<polygon points="13.120339350078456,22.26901720364154 13.651195851065937,21.50464443712692 13.628919781755684,21.626541251983497" style="fill:none;stroke:black;stroke-width:1"/>
<polygon points="13.264615633667423,20.71380151363275 13.120339350078456,22.26901720364154 13.185679459345414,20.68650365076062" style="fill:none;stroke:black;stroke-width:1"/>
<polygon points="13.120339350078456,22.26901720364154 13.336713006693484,20.747368203105488 13.402784114573596,20.78697934039312" style="fill:none;stroke:black;stroke-width:1"/>
<polygon points="12.341197046622696,20.92028970866951 13.120339350078456,22.26901720364154 12.26438800062072,21.01438541675355" style="fill:none;stroke:black;stroke-width:1"/>
<polygon points="13.120339350078456,22.26901720364154 13.475350012149688,21.97617449679035 13.398300609718886,22.070687897021028" style="fill:none;stroke:black;stroke-width:1"/>
<polygon points="13.120339350078456,22.26901720364154 12.403015276009919,22.242618907660336 12.336938430996543,22.20290304451759" style="fill:none;stroke:black;stroke-width:1"/>
<polygon points="13.120339350078456,22.26901720364154 13.100870656493916,20.666910132449786 13.185679459345414,20.68650365076062" style="fill:none;stroke:black;stroke-width:1"/>
<polygon points="13.120339350078456,22.26901720364154 12.521277506132368,20.77350137254017 12.619925867896747,20.72227519058036" style="fill:none;stroke:black;stroke-width:1"/>
<polygon points="13.120339350078456,22.26901720364154 12.55431299892788,22.303836878184022 12.475235565224603,22.276378235837146" style="fill:none;stroke:black;stroke-width:1"/>
<polygon points="12.274824590949475,22.15081963419549 13.120339350078456,22.26901720364154 12.336938430996543,22.20290304451759" style="fill:none;stroke:black;stroke-width:1"/>
<polygon points="13.120339350078456,22.26901720364154 12.218788796992932,22.085819718449578 12.170401989309186,22.008766928953385" style="fill:none;stroke:black;stroke-width:1"/>
<polygon points="13.120339350078456,22.26901720364154 13.011141262037635,20.65623179389032 13.100870656493916,20.666910132449786" style="fill:none;stroke:black;stroke-width:1"/>
<polygon points="13.464897954620666,20.83906275071522 13.120339350078456,22.26901720364154 13.402784114573596,20.78697934039312" style="fill:none;stroke:black;stroke-width:1"/>
<polygon points="12.720917298063528,20.68660066657069 13.120339350078456,22.26901720364154 12.619925867896747,20.72227519058036" style="fill:none;stroke:black;stroke-width:1"/>
<polygon points="12.521277506132368,20.77350137254017 13.120339350078456,22.26901720364154 12.427564510367066,20.83973254362365" style="fill:none;stroke:black;stroke-width:1"/>
<polygon points="13.120339350078456,22.26901720364154 12.341197046622696,20.92028970866951 12.427564510367066,20.83973254362365" style="fill:none;stroke:black;stroke-width:1"/>
<polygon points="12.102233075802712,21.822891042820988 13.120339350078456,22.26901720364154 12.131114478997697,21.920714978399502" style="fill:none;stroke:black;stroke-width:1"/>
<polygon points="13.120339350078456,22.26901720364154 12.199140940284845,21.121149342172686 12.26438800062072,21.01438541675355" style="fill:none;stroke:black;stroke-width:1"/>
<polygon points="12.218788796992932,22.085819718449578 13.120339350078456,22.26901720364154 12.274824590949475,22.15081963419549" style="fill:none;stroke:black;stroke-width:1"/>
<polygon points="12.403015276009919,22.242618907660336 13.120339350078456,22.26901720364154 12.475235565224603,22.276378235837146" style="fill:none;stroke:black;stroke-width:1"/>
<polygon points="12.110802763814455,21.363341132927218 13.120339350078456,22.26901720364154 12.0885266945042,21.48523794778379" style="fill:none;stroke:black;stroke-width:1"/>
<polygon points="13.336713006693484,20.747368203105488 13.120339350078456,22.26901720364154 13.264615633667423,20.71380151363275" style="fill:none;stroke:black;stroke-width:1"/>
<polygon points="13.520933748577207,20.904062666461133 13.120339350078456,22.26901720364154 13.464897954620666,20.83906275071522" style="fill:none;stroke:black;stroke-width:1"/>
<polygon points="13.120339350078456,22.26901720364154 12.720917298063528,20.68660066657069 12.820490539560053,20.665365330722057" style="fill:none;stroke:black;stroke-width:1"/>
<polygon points="12.917401128306693,20.655458330883196 13.120339350078456,22.26901720364154 12.820490539560053,20.665365330722057" style="fill:none;stroke:black;stroke-width:1"/>
<polygon points="13.120339350078456,22.26901720364154 12.102233075802712,21.822891042820988 12.084900478942945,21.71667640829224" style="fill:none;stroke:black;stroke-width:1"/>
<polygon points="12.080077256062276,21.603584687222465 13.120339350078456,22.26901720364154 12.084900478942945,21.71667640829224" style="fill:none;stroke:black;stroke-width:1"/>
<polygon points="12.199140940284845,21.121149342172686 13.120339350078456,22.26901720364154 12.147241379310346,21.23965517241379" style="fill:none;stroke:black;stroke-width:1"/>
<polygon points="13.120339350078456,22.26901720364154 12.110802763814455,21.363341132927218 12.147241379310346,21.23965517241379" style="fill:none;stroke:black;stroke-width:1"/>
<polygon points="12.72918874457612,22.334334716315837 13.120339350078456,22.26901720364154 12.823125167266257,22.335173381109733" style="fill:none;stroke:black;stroke-width:1"/>
<polygon points="13.120339350078456,22.26901720364154 12.920250388164732,22.325299723828316 12.823125167266257,22.335173381109733" style="fill:none;stroke:black;stroke-width:1"/>
<polygon points="13.011141262037635,20.65623179389032 13.120339350078456,22.26901720364154 12.917401128306693,20.655458330883196" style="fill:none;stroke:black;stroke-width:1"/>
<polygon points="12.639281404353289,22.323559316740276 13.120339350078456,22.26901720364154 12.72918874457612,22.334334716315837" style="fill:none;stroke:black;stroke-width:1"/>
<polygon points="13.120339350078456,22.26901720364154 13.01988510231756,22.304241249080395 12.920250388164732,22.325299723828316" style="fill:none;stroke:black;stroke-width:1"/>
<polygon points="13.120339350078456,22.26901720364154 12.639281404353289,22.323559316740276 12.55431299892788,22.303836878184022" style="fill:none;stroke:black;stroke-width:1"/>
</svg>
